<svg width="48" height="48" viewBox="0 0 48 48" fill="none" xmlns="http://www.w3.org/2000/svg">
  <path d="M25.75 29.75H24C22.0985 29.75 20.2193 30.0779 18.4727 30.7109C16.7263 31.344 15.1526 32.2676 13.8379 33.418C12.5238 34.568 11.495 35.9201 10.7988 37.3906C10.103 38.8605 9.75 40.4263 9.75 42V43.75H6.25V42C6.25 39.8969 6.72453 37.8217 7.63672 35.8945C8.54855 33.9683 9.87633 32.233 11.5332 30.7832C13.1898 29.3337 15.1454 28.194 17.2812 27.4199C19.4169 26.646 21.6994 26.25 24 26.25H25.75V29.75Z" fill="#828B9C"/>
  <path fill-rule="evenodd" clip-rule="evenodd" d="M36 24.25C39.1756 24.25 41.75 26.8244 41.75 30V32.25H45.75V43.75H26.25V32.25H30.25V30C30.25 26.8244 32.8244 24.25 36 24.25ZM29.75 40.25H42.25V35.75H29.75V40.25ZM36 27.75C34.7574 27.75 33.75 28.7574 33.75 30V32.25H38.25V30C38.25 28.7574 37.2426 27.75 36 27.75Z" fill="#828B9C"/>
  <path fill-rule="evenodd" clip-rule="evenodd" d="M24 4.25C29.3848 4.25 33.75 8.61522 33.75 14C33.75 19.3848 29.3848 23.75 24 23.75C18.6152 23.75 14.25 19.3848 14.25 14C14.25 8.61522 18.6152 4.25 24 4.25ZM24 7.75C20.5482 7.75 17.75 10.5482 17.75 14C17.75 17.4518 20.5482 20.25 24 20.25C27.4518 20.25 30.25 17.4518 30.25 14C30.25 10.5482 27.4518 7.75 24 7.75Z" fill="#828B9C"/>
</svg>
