<svg xmlns="http://www.w3.org/2000/svg" xmlns:xlink="http://www.w3.org/1999/xlink" fill="currentColor" version="1.1" width="18" height="18" viewBox="0 0 18 18"><g><g><rect x="0" y="0" width="18" height="18" rx="0" fill="currentColor" fill-opacity="0"/></g><g><g style="opacity:0;"><rect x="0" y="0" width="18" height="18" rx="0" fill="currentColor" fill-opacity="1"/></g><g><path d="M14.8023,9.31641L11.46777,14.6953L11.43437,16.8645L13.3645,15.873L16.698999999999998,10.49414L14.8023,9.31641ZM15.9783,7.41973L15.1943,8.683589999999999L17.091,9.86133L17.875,8.5957L15.9783,7.41973ZM10.3709,15.5936L8.853909999999999,14.7639L8.31602,14.4703L7.77812,14.7639L6.25059,15.5953L4.72656,14.7639L4.18867,14.4703L3.65078,14.7639L3.25,14.9801L3.25,2.8125C3.25,2.50137,3.50137,2.25,3.8125,2.25L12.8055,2.25C13.1166,2.25,13.368,2.50137,13.368,2.8125L13.368,8.4375L14.493,8.4375L14.493,2.25C14.493,1.629492,14.0324,1.125,13.4629,1.125L3.15508,1.125C2.585547,1.125,2.125,1.629492,2.125,2.25L2.125,16.875L4.18516,15.75L6.24707,16.875L8.3125,15.75L10.36914,16.875L10.36914,15.5936L10.3709,15.5936Z" fill="currentColor" fill-opacity="1"/></g><g><path d="M11.118021015625,5.625L5.498291015625,5.625C5.187158015625,5.625,4.935791015625,5.373633,4.935791015625,5.0625C4.935791015625,4.751367,5.187158015625,4.5,5.498291015625,4.5L11.119771015625,4.5C11.430911015625,4.5,11.682271015625,4.751367,11.682271015625,5.0625C11.680521015625,5.373633,11.429151015625,5.625,11.118021015625,5.625ZM11.118021015625,8.4375L5.498291015625,8.4375C5.187158015625,8.4375,4.935791015625,8.18613,4.935791015625,7.875C4.935791015625,7.56387,5.187158015625,7.3125,5.498291015625,7.3125L11.119771015625,7.3125C11.430911015625,7.3125,11.682271015625,7.56387,11.682271015625,7.875C11.680521015625,8.18613,11.429151015625,8.4375,11.118021015625,8.4375ZM9.994771015625,11.25L5.498291015625,11.25C5.187158015625,11.25,4.935791015625,10.99863,4.935791015625,10.6875C4.935791015625,10.37637,5.187158015625,10.125,5.498291015625,10.125L9.994771015625,10.125C10.305911015625,10.125,10.557271015625,10.37637,10.557271015625,10.6875C10.557271015625,10.99863,10.305911015625,11.25,9.994771015625,11.25Z" fill="currentColor" fill-opacity="1"/></g></g></g></svg>