<svg xmlns="http://www.w3.org/2000/svg" xmlns:xlink="http://www.w3.org/1999/xlink" fill="currentColor" version="1.1" width="18" height="18" viewBox="0 0 18 18"><g><g><rect x="0" y="0" width="18" height="18" rx="0" fill="currentColor" fill-opacity="0"/></g><g><g style="opacity:0;"><rect x="1" y="1" width="16" height="16" rx="0" fill="currentColor" fill-opacity="1"/></g><g><path d="M8.53244333659172,16.74048033773899C8.64800333659172,16.85598033773899,8.80266333659172,16.91998033773899,8.966223336591721,16.91998033773899C9.128003336591721,16.91998033773899,9.284443336591721,16.85598033773899,9.40000333659172,16.74048033773899L16.77423333659172,9.36622033773899C16.89333333659172,9.247110337738992,16.95733333659172,9.085330337738991,16.95393333659172,8.91644033773899L16.77953333659172,1.9777783377389908C16.77063333659172,1.6560003377389907,16.51643333659172,1.3964443377389908,16.19643333659172,1.3804443377389908L9.081783336591721,1.0337777787389908C8.909333336591722,1.0248888877389908,8.74044333659172,1.0906666377389909,8.617773336591721,1.2133333377389908L1.2453333365917205,8.585780337738992C1.0053333365917205,8.82578033773899,1.0053333365917205,9.213330337738991,1.2453333365917205,9.45333033773899L8.53244333659172,16.74048033773899ZM9.29333333659172,2.272890337738991L15.56533333659172,2.578670337738991L15.718233336591721,8.685330337738991L8.966223336591721,15.439080337738991L2.5466633365917204,9.01956033773899L9.29333333659172,2.272890337738991ZM10.78666333659172,5.9831103377389905L6.710223336591721,10.06133033773899C6.591113336591721,10.180440337738991,6.432893336591721,10.24089033773899,6.27644333659172,10.24089033773899C6.12000333659172,10.24089033773899,5.961773336591721,10.180440337738991,5.842663336591721,10.06133033773899C5.6026633365917204,9.82133033773899,5.6026633365917204,9.433780337738991,5.842663336591721,9.19378033773899L9.919113336591721,5.1173303377389905C10.159113336591721,4.877330337738991,10.54666333659172,4.877330337738991,10.78666333659172,5.1173303377389905C11.02666333659172,5.355560337738991,11.02666333659172,5.74489033773899,10.78666333659172,5.9831103377389905ZM8.966223336591721,12.315580337738991C8.847113336591722,12.43468033773899,8.688893336591722,12.49508033773899,8.53244333659172,12.49508033773899C8.37600333659172,12.49508033773899,8.217773336591721,12.43468033773899,8.09866333659172,12.315580337738991C7.858663336591721,12.075580337738991,7.858663336591721,11.68798033773899,8.09866333659172,11.44798033773899L10.78844333659172,8.75822033773899C11.028443336591721,8.518220337738992,11.41603333659172,8.518220337738992,11.65603333659172,8.75822033773899C11.89603333659172,8.99822033773899,11.89603333659172,9.385780337738991,11.65603333659172,9.625780337738991L8.966223336591721,12.315580337738991ZM13.563533336591721,4.596440337738991C13.275533336591721,4.308440337738991,13.275533336591721,3.8426703377389906,13.563533336591721,3.5546703377389908C13.85153333659172,3.266670337738991,14.317333336591721,3.266670337738991,14.60533333659172,3.5546703377389908C14.89333333659172,3.8426703377389906,14.89333333659172,4.308440337738991,14.60533333659172,4.596440337738991C14.317333336591721,4.882670337738991,13.85153333659172,4.882670337738991,13.563533336591721,4.596440337738991Z" fill="currentColor" fill-opacity="1"/></g></g></g></svg>