<svg xmlns="http://www.w3.org/2000/svg" xmlns:xlink="http://www.w3.org/1999/xlink" fill="currentColor" version="1.1" width="18" height="18" viewBox="0 0 18 18"><g><g><rect x="0" y="0" width="18" height="18" rx="0" fill="currentColor" fill-opacity="0"/></g><g><g style="opacity:0;"><rect x="0.5" y="0.5" width="17" height="17" rx="0" fill="currentColor" fill-opacity="1"/></g><g><path d="M8.149260473051072,10.507719683780671C7.968750473051071,10.507719683780671,7.792820473051071,10.41530968378067,7.693860473051071,10.24884968378067L5.899130473051071,7.23040968378067C5.749730473051071,6.97916968378067,5.832310473051071,6.65439968378067,6.0835604730510715,6.50501968378067C6.334760473051071,6.35564968378067,6.6595504730510715,6.43820968378067,6.8089504730510715,6.68942968378067L8.603680473051071,9.70786968378067C8.753070473051071,9.95911968378067,8.670490473051071,10.28388968378067,8.419240473051072,10.43327968378067C8.337620473051071,10.48199968378067,8.244330473051072,10.507719683780671,8.149260473051072,10.507719683780671ZM9.943040473051072,10.507719683780671C9.847980473051072,10.507719683780671,9.75468047305107,10.48200968378067,9.673060473051072,10.43327968378067C9.421810473051071,10.28388968378067,9.339230473051071,9.95913968378067,9.48863047305107,9.70786968378067L11.283320473051072,6.68942968378067C11.432720473051072,6.43818968378067,11.757520473051072,6.35557968378067,12.00872047305107,6.50501968378067C12.260020473051071,6.65439968378067,12.34262047305107,6.97916968378067,12.19322047305107,7.23040968378067L10.39845047305107,10.24884968378067C10.29950047305107,10.41526968378067,10.123560473051072,10.507719683780671,9.943040473051072,10.507719683780671ZM11.799420473051072,10.915519683780671L6.292850473051071,10.915519683780671C6.000550473051071,10.915519683780671,5.7636004730510715,10.67855968378067,5.7636004730510715,10.38626968378067C5.7636004730510715,10.09396968378067,6.000550473051071,9.85701968378067,6.292850473051071,9.85701968378067L11.799420473051072,9.85701968378067C12.09182047305107,9.85701968378067,12.32872047305107,10.09396968378067,12.32872047305107,10.38626968378067C12.32872047305107,10.67855968378067,12.09182047305107,10.915519683780671,11.799420473051072,10.915519683780671ZM11.269220473051071,13.036529683780671L6.823110473051071,13.036529683780671C6.5308204730510715,13.036529683780671,6.293860473051071,12.79962968378067,6.293860473051071,12.50732968378067C6.293860473051071,12.21502968378067,6.5308204730510715,11.97802968378067,6.823110473051071,11.97802968378067L11.269220473051071,11.97802968378067C11.561520473051072,11.97802968378067,11.79842047305107,12.21502968378067,11.79842047305107,12.50732968378067C11.79842047305107,12.79962968378067,11.56142047305107,13.036529683780671,11.269220473051071,13.036529683780671ZM9.046150473051071,15.75102968378067C8.753860473051072,15.75102968378067,8.51690047305107,15.51412968378067,8.51690047305107,15.22182968378067L8.51690047305107,10.83495968378067C8.51690047305107,10.54266968378067,8.753860473051072,10.30570968378067,9.046150473051071,10.30570968378067C9.338450473051072,10.30570968378067,9.57540047305107,10.54266968378067,9.57540047305107,10.83495968378067L9.57540047305107,15.22182968378067C9.57540047305107,15.51412968378067,9.338420473051071,15.75102968378067,9.046150473051071,15.75102968378067ZM14.483020473051072,16.70422968378067C14.13232047305107,16.70422968378067,13.84792047305107,16.419929683780673,13.84792047305107,16.06912968378067L13.84792047305107,8.285079683780669C13.84792047305107,7.84071968378067,14.209420473051072,7.47921968378067,14.653820473051072,7.47921968378067L15.249320473051071,7.47921968378067L9.04617047305107,2.65184968378067L2.8430104730510712,7.47921968378067L3.438500473051071,7.47921968378067C3.882850473051071,7.47921968378067,4.244350473051071,7.84071968378067,4.244350473051071,8.285079683780669L4.244350473051071,16.06912968378067C4.244350473051071,16.419929683780673,3.960000473051071,16.70422968378067,3.609250473051071,16.70422968378067C3.258510473051071,16.70422968378067,2.974150473051071,16.419929683780673,2.974150473051071,16.06912968378067L2.974150473051071,8.749419683780669L1.4375094730510711,8.749419683780669C1.117482473051071,8.749419683780669,0.8315814730510711,8.55837968378067,0.7091133730510711,8.26269968378067C0.5866661730510712,7.96703968378067,0.6537538130510712,7.62977968378067,0.8800614730510712,7.40349968378067C0.8986324730510712,7.38492968378067,0.9183364730510712,7.3675296837806705,0.9390614730510711,7.35139968378067L8.528360473051071,1.4452886837806702C8.82418047305107,1.1873326837806701,9.268140473051071,1.1873536837806702,9.563930473051071,1.4452886837806702L17.15322047305107,7.35139968378067C17.173920473051073,7.3675296837806705,17.19362047305107,7.38492968378067,17.212220473051072,7.40349968378067C17.43852047305107,7.62975968378067,17.50562047305107,7.96703968378067,17.383120473051072,8.26269968378067C17.26072047305107,8.55837968378067,16.97482047305107,8.749419683780669,16.65472047305107,8.749419683780669L15.118120473051071,8.749419683780669L15.118120473051071,16.06912968378067C15.118120473051071,16.419929683780673,14.833820473051071,16.70422968378067,14.483020473051072,16.70422968378067Z" fill="currentColor" fill-opacity="1"/></g></g></g></svg>