<?xml version="1.0" encoding="UTF-8"?>
<svg width="20px" height="20px" viewBox="0 0 20 20" version="1.1" xmlns="http://www.w3.org/2000/svg" xmlns:xlink="http://www.w3.org/1999/xlink">
    <title>message-outlined</title>
    <g id="页面-1" stroke="none" stroke-width="1">
        <g id="概览页--未开通备份" transform="translate(-1140.000000, -304.000000)">
            <g id="框架/顶栏账号下拉面板-改" transform="translate(1120.000000, 60.000000)">
                <g id="组-112备份-3" transform="translate(8.000000, 237.000000)">
                    <g id="message-outlined" transform="translate(12.000000, 7.000000)">
                        <rect id="矩形" opacity="0" x="0" y="0" width="20" height="20"></rect>
                        <path d="M9.0625,10 C9.0625,10.517767 9.48223305,10.9375 10,10.9375 C10.517767,10.9375 10.9375,10.517767 10.9375,10 C10.9375,9.48223305 10.517767,9.0625 10,9.0625 C9.48223305,9.0625 9.0625,9.48223305 9.0625,10 Z M12.96875,10 C12.96875,10.517767 13.388483,10.9375 13.90625,10.9375 C14.424017,10.9375 14.84375,10.517767 14.84375,10 C14.84375,9.48223305 14.424017,9.0625 13.90625,9.0625 C13.388483,9.0625 12.96875,9.48223305 12.96875,10 Z M5.15625,10 C5.15625,10.517767 5.57598305,10.9375 6.09375,10.9375 C6.61151695,10.9375 7.03125,10.517767 7.03125,10 C7.03125,9.48223305 6.61151695,9.0625 6.09375,9.0625 C5.57598305,9.0625 5.15625,9.48223305 5.15625,10 Z M18.0703125,6.609375 C17.6289063,5.56054688 16.9960938,4.61914062 16.1894531,3.81054687 C15.3828125,3.00390625 14.4414063,2.36914062 13.390625,1.9296875 C12.3164063,1.47851562 11.1757813,1.25 10,1.25 L9.9609375,1.25 C8.77734375,1.25585938 7.63085938,1.49023438 6.55273438,1.95117188 C5.51171875,2.39648438 4.578125,3.02929688 3.77929688,3.8359375 C2.98046875,4.64257812 2.35351563,5.58007812 1.91992188,6.625 C1.47070313,7.70703125 1.24414063,8.85742188 1.24988919,10.0410156 C1.25585938,11.3964844 1.58007813,12.7421875 2.1875,13.9453125 L2.1875,16.9140625 C2.1875,17.4101562 2.58984375,17.8125 3.0859375,17.8125 L6.05664063,17.8125 C7.25976563,18.4199219 8.60546875,18.7441406 9.9609375,18.75 L10.0019531,18.75 C11.171875,18.75 12.3066406,18.5234375 13.375,18.0800781 C14.4199219,17.6445312 15.359375,17.0195312 16.1640625,16.2207031 C16.9707031,15.421875 17.6054688,14.4882812 18.0488281,13.4472656 C18.5097656,12.3691406 18.7441406,11.2226563 18.750109,10.0390625 C18.7558594,8.84960938 18.5253906,7.6953125 18.0703125,6.609375 L18.0703125,6.609375 Z M15.1191406,15.1640625 C13.75,16.5195312 11.9335937,17.265625 10,17.265625 L9.96679687,17.265625 C8.7890625,17.2597656 7.61914062,16.9667969 6.5859375,16.4160156 L6.421875,16.328125 L3.671875,16.328125 L3.671875,13.578125 L3.58398437,13.4140625 C3.03320312,12.3808594 2.74023438,11.2109375 2.73431411,10.0332031 C2.7265625,8.0859375 3.47070312,6.2578125 4.8359375,4.88085938 C6.19921875,3.50390625 8.02148437,2.7421875 9.96875,2.734375 L10.0019531,2.734375 C10.9785156,2.734375 11.9257812,2.92382812 12.8183594,3.29882812 C13.6894531,3.6640625 14.4707031,4.18945312 15.1425781,4.86132812 C15.8125,5.53125 16.3398437,6.31445313 16.7050781,7.18554688 C17.0839844,8.08789062 17.2734375,9.04492188 17.2695904,10.0332031 C17.2578125,11.9785156 16.4941406,13.8007812 15.1191406,15.1640625 Z" id="形状"></path>
                    </g>
                </g>
            </g>
        </g>
    </g>
</svg>