<svg xmlns="http://www.w3.org/2000/svg" xmlns:xlink="http://www.w3.org/1999/xlink" fill="currentColor" version="1.1" width="18.5" height="18.5" viewBox="0 0 18.5 18.5"><g><g><rect x="0" y="0" width="18" height="18" rx="0" fill="currentColor" fill-opacity="0"/></g><g><g style="opacity:0;"><rect x="0.5" y="0.5" width="18" height="18" rx="0" fill="currentColor" fill-opacity="1"/></g><g><path d="M17.862599029541016,13.309180238418579C18.173799029541016,13.309180238418579,18.425099029541016,13.057810238418579,18.425099029541016,12.746680238418579C18.425099029541016,12.435550238418578,18.173799029541016,12.184180238418579,17.862599029541016,12.184180238418579L16.565399029541016,12.184180238418579L18.312599029541015,9.85508023841858C18.498999029541018,9.60723023841858,18.447999029541016,9.25391023841858,18.200099029541015,9.067580238418579C17.952299029541017,8.881250238418579,17.598999029541016,8.93223023841858,17.412599029541013,9.18008023841858L15.431599029541015,11.82207023841858L13.448769029541015,9.18008023841858C13.262439029541016,8.93223023841858,12.909119029541015,8.881250238418579,12.661269029541016,9.067580238418579C12.413419029541016,9.25391023841858,12.362439029541015,9.60723023841858,12.548769029541017,9.85508023841858L14.296039029541015,12.184180238418579L12.998769029541016,12.184180238418579C12.687639029541016,12.184180238418579,12.436269029541016,12.435550238418578,12.436269029541016,12.746680238418579C12.436269029541016,13.057810238418579,12.687639029541016,13.309180238418579,12.998769029541016,13.309180238418579L14.867329029541015,13.309180238418579L14.867329029541015,14.374410238418578L12.998769029541016,14.374410238418578C12.687639029541016,14.374410238418578,12.436269029541016,14.625800238418579,12.436269029541016,14.936900238418579C12.436269029541016,15.248000238418578,12.687639029541016,15.499400238418579,12.998769029541016,15.499400238418579L14.867329029541015,15.499400238418579L14.867329029541015,16.81250023841858C14.867329029541015,17.12360023841858,15.118699029541016,17.37500023841858,15.429799029541016,17.37500023841858C15.740999029541015,17.37500023841858,15.992299029541016,17.12360023841858,15.992299029541016,16.81250023841858L15.992299029541016,15.50120023841858L17.860899029541017,15.50120023841858C18.171999029541016,15.50120023841858,18.423399029541017,15.24980023841858,18.423399029541017,14.93870023841858C18.423399029541017,14.627500238418579,18.171999029541016,14.37617023841858,17.860899029541017,14.37617023841858L15.994099029541015,14.37617023841858L15.994099029541015,13.31094023841858L17.862599029541016,13.31094023841858L17.862599029541016,13.309180238418579ZM12.833539029541015,5.000000238418579C12.833539029541015,4.688867238418579,12.582169029541015,4.437500238418579,12.272799029541016,4.437500238418579L5.533341029541016,4.437500238418579C5.223966029541016,4.437500238418579,4.972599029541016,4.688867238418579,4.972599029541016,5.000000238418579C4.972599029541016,5.311133238418579,5.223966029541016,5.562500238418579,5.533341029541016,5.562500238418579L12.272799029541016,5.562500238418579C12.582169029541015,5.562500238418579,12.833539029541015,5.311133238418579,12.833539029541015,5.000000238418579ZM11.690959029541016,8.375000238418579C11.690959029541016,8.063870238418579,11.439589029541015,7.812500238418579,11.130219029541015,7.812500238418579L5.533341029541016,7.812500238418579C5.223966029541016,7.812500238418579,4.972599029541016,8.063870238418579,4.972599029541016,8.375000238418579C4.972599029541016,8.68613023841858,5.223966029541016,8.937500238418579,5.533341029541016,8.937500238418579L11.130219029541015,8.937500238418579C11.439589029541015,8.937500238418579,11.690959029541016,8.68613023841858,11.690959029541016,8.375000238418579ZM5.533341029541016,11.187500238418579C5.223966029541016,11.187500238418579,4.972599029541016,11.438870238418579,4.972599029541016,11.750000238418579C4.972599029541016,12.06113023841858,5.223966029541016,12.312500238418579,5.533341029541016,12.312500238418579L8.903069029541015,12.312500238418579C9.212439029541017,12.312500238418579,9.463809029541014,12.06113023841858,9.463809029541014,11.750000238418579C9.463809029541014,11.438870238418579,9.212439029541017,11.187500238418579,8.903069029541015,11.187500238418579L5.533341029541016,11.187500238418579Z" fill="currentColor" fill-opacity="1"/></g><g><path d="M11.135382648010253,15.125L4.374842648010254,15.125C4.065462648010254,15.125,3.814092648010254,14.8736,3.814092648010254,14.5625L3.814092648010254,3.3125C3.814092648010254,3.00137,4.065462648010254,2.75,4.374842648010254,2.75L13.403012648010254,2.75C13.712312648010254,2.75,13.963712648010254,3.00137,13.963712648010254,3.3125L13.963712648010254,7.8125C13.963712648010254,8.12363,14.215112648010255,8.375,14.524412648010253,8.375C14.833812648010253,8.375,15.085212648010254,8.12363,15.085212648010254,7.8125L15.085212648010254,2.75C15.085212648010254,2.129492,14.582412648010253,1.625,13.963712648010254,1.625L3.814092648010254,1.625C3.195346648010254,1.625,2.692612648010254,2.129492,2.692612648010254,2.75L2.692612648010254,15.125C2.692612648010254,15.7455,3.195346648010254,16.25,3.814092648010254,16.25L11.135382648010253,16.25C11.444762648010254,16.25,11.696132648010254,15.9986,11.696132648010254,15.6875C11.696132648010254,15.3764,11.446522648010253,15.125,11.135382648010253,15.125Z" fill="currentColor" fill-opacity="1"/></g></g></g></svg>