<svg xmlns="http://www.w3.org/2000/svg" xmlns:xlink="http://www.w3.org/1999/xlink" fill="currentColor" version="1.1" width="18" height="18" viewBox="0 0 18 18"><g><g><rect x="0" y="0" width="18" height="18" rx="0" fill="currentColor" fill-opacity="0"/></g><g><g style="opacity:0;"><rect x="1" y="2" width="15.99984359741211" height="15.99984359741211" rx="0" fill="currentColor" fill-opacity="1"/></g><g><path d="M14.800056248468556,2.9854591488838196C16.015056248468557,2.9854591488838196,16.999956248468557,3.9704491488838194,16.999956248468557,5.18543914888382L16.999956248468557,7.98540914888382C16.999956248468557,8.31680914888382,16.731456248468554,8.58540914888382,16.399956248468555,8.58540914888382C15.626856248468556,8.58540914888382,15.000056248468557,9.212119148883819,15.000056248468557,9.985389148883819C15.000056248468557,10.75850914888382,15.626856248468556,11.38521914888382,16.399956248468555,11.38521914888382C16.731456248468554,11.38521914888382,16.999956248468557,11.653969148883819,16.999956248468557,11.98521914888382L16.999956248468557,14.78515914888382C16.999956248468557,16.000159148883817,16.015056248468557,16.98515914888382,14.800056248468556,16.98515914888382L3.2001362484685565,16.98515914888382C1.9851462484685565,16.98515914888382,1.0001562484685564,16.000159148883817,1.0001562484685564,14.78515914888382L1.0001562484685564,11.98521914888382C1.0001562484685564,11.65380914888382,1.2687472484685565,11.38521914888382,1.6001502484685566,11.38521914888382C2.3732662484685565,11.38521914888382,2.999976248468556,10.75850914888382,2.999976248468556,9.985389148883819C2.999976248468556,9.212119148883819,2.3732662484685565,8.58540914888382,1.6001502484685566,8.58540914888382C1.2687472484685565,8.58540914888382,1.0001562484685564,8.31680914888382,1.0001562484685564,7.98540914888382L1.0001562484685564,5.18543914888382C1.0001562484685564,3.9704491488838194,1.9851462484685565,2.9854591488838196,3.2001362484685565,2.9854591488838196L14.800056248468556,2.9854591488838196ZM14.800056248468556,4.185449148883819L3.2001462484685566,4.185449148883819C2.9349762484685566,4.185449148883819,2.6806062484685564,4.2907591488838195,2.4929562484685563,4.4782591488838195C2.3054562484685563,4.665839148883819,2.200146248468556,4.920219148883819,2.200146248468556,5.185449148883819L2.200146248468556,7.45494914888382C3.3466962484685565,7.725729148883819,4.200126248468557,8.75586914888382,4.200126248468557,9.985389148883819C4.200126248468557,11.21474914888382,3.3466962484685565,12.24489914888382,2.200146248468556,12.51567914888382L2.200146248468556,14.78515914888382C2.200146248468556,15.050459148883819,2.3054562484685563,15.30475914888382,2.4929562484685563,15.49235914888382C2.6805362484685564,15.67985914888382,2.9349062484685566,15.78515914888382,3.2001462484685566,15.78515914888382L14.800056248468556,15.78515914888382C15.065156248468556,15.78515914888382,15.319556248468556,15.67985914888382,15.507056248468556,15.49235914888382C15.694656248468556,15.30485914888382,15.799856248468556,15.050459148883819,15.799856248468556,14.78515914888382L15.799856248468556,12.515839148883819C14.653256248468557,12.24505914888382,13.799856248468556,11.21490914888382,13.799856248468556,9.98554914888382C13.799856248468556,8.756029148883819,14.653256248468557,7.72587914888382,15.799856248468556,7.45509914888382L15.799856248468556,5.185449148883819C15.799856248468556,4.920219148883819,15.694556248468556,4.665839148883819,15.507056248468556,4.4782591488838195C15.319456248468557,4.29079914888382,15.065156248468556,4.185449148883819,14.800056248468556,4.185449148883819ZM6.616196248468556,6.52448914888382C6.870726248468556,6.312299148883819,7.2490062484685565,6.3468291488838195,7.4611862484685565,6.6013591488838195L9.000236248468557,8.44837914888382L10.539286248468557,6.6013591488838195C10.751466248468557,6.3468291488838195,11.129856248468556,6.3124591488838195,11.384456248468556,6.52448914888382C11.638956248468556,6.73666914888382,11.673456248468556,7.115109148883819,11.461256248468557,7.369639148883819L10.114286248468556,8.985399148883818L11.000356248468556,8.985399148883818C11.318056248468556,8.985399148883818,11.580656248468557,9.233049148883818,11.599256248468556,9.550239148883819L11.600256248468556,9.58554914888382C11.600256248468556,9.91694914888382,11.331656248468557,10.185549148883819,11.000256248468556,10.185549148883819L9.700226248468557,10.185549148883819L9.700226248468557,10.98553914888382L11.000256248468556,10.98553914888382C11.317856248468557,10.98553914888382,11.580556248468556,11.23318914888382,11.599156248468557,11.55037914888382L11.600056248468556,11.58568914888382C11.600056248468556,11.91708914888382,11.331456248468557,12.18567914888382,11.000056248468557,12.18567914888382L9.700066248468556,12.18567914888382L9.700066248468556,12.98565914888382C9.700066248468556,13.30335914888382,9.452416248468557,13.56595914888382,9.135236248468557,13.58455914888382L9.100076248468556,13.585559148883819C8.768676248468555,13.585559148883819,8.500086248468556,13.31695914888382,8.500086248468556,12.98555914888382L8.500086248468556,12.18552914888382L7.000096248468556,12.18552914888382C6.6824462484685565,12.18552914888382,6.419786248468556,11.93786914888382,6.401036248468556,11.62068914888382L6.400076248468556,11.58552914888382C6.400076248468556,11.25412914888382,6.668846248468556,10.98553914888382,7.000096248468556,10.98553914888382L8.500086248468556,10.98553914888382L8.500086248468556,10.185549148883819L7.000096248468556,10.185549148883819C6.6824462484685565,10.185549148883819,6.419786248468556,9.93788914888382,6.401036248468556,9.620709148883819L6.400076248468556,9.58554914888382C6.400076248468556,9.254149148883819,6.668846248468556,8.98555914888382,7.000096248468556,8.98555914888382L7.885716248468556,8.98555914888382L6.539166248468557,7.369639148883819C6.336506248468557,7.12635914888382,6.3576062484685565,6.76744914888382,6.587446248468557,6.549959148883819L6.616196248468556,6.52448914888382Z" fill="currentColor" fill-opacity="1"/></g></g></g></svg>