<svg xmlns="http://www.w3.org/2000/svg" xmlns:xlink="http://www.w3.org/1999/xlink" fill="currentColor" version="1.1" width="18" height="18" viewBox="0 0 18 18"><g><g><rect x="0" y="0" width="18" height="18" rx="0" fill="currentColor" fill-opacity="0"/></g><g><g style="opacity:0;"><rect x="1.5" y="1.5" width="16" height="16" rx="0" fill="currentColor" fill-opacity="1"/></g><g><path d="M9.50000246723175,2.60345L14.74287246723175,2.60345Q14.74217246723175,2.60345,14.74137246723175,16.396Q14.74137246723175,16.3963,4.2579324672317505,16.3966Q4.25887246723175,16.3966,4.258622467231751,9.5L4.2579324672317505,5.96266L6.879312467231751,2.60345L9.50000246723175,2.60345ZM6.16794246723175,1.712998L3.2713924672317507,5.437139999999999C3.1960674672317504,5.53398,3.1551724672317505,5.65317,3.1551724672317505,5.77586L3.1551724672317505,9.5L3.1551724672317505,16.3945C3.1551724672317505,17.0045,3.6482654672317505,17.5,4.2579324672317505,17.5L14.74207246723175,17.5C15.350872467231751,17.5,15.84487246723175,17.0053,15.84487246723175,16.396L15.84487246723175,2.6040200000000002C15.84487246723175,1.993828,15.35217246723175,1.5,14.74287246723175,1.5L9.50000246723175,1.5L6.603452467231751,1.5C6.43319246723175,1.5,6.272472467231751,1.5786057,6.16794246723175,1.712998ZM11.84483246723175,9.22414C12.14953246723175,9.22414,12.39655246723175,8.97712,12.39655246723175,8.67241C12.39655246723175,8.367709999999999,12.14953246723175,8.12069,11.84483246723175,8.12069L7.1551724672317505,8.12069C6.8504624672317505,8.12069,6.603452467231751,8.367709999999999,6.603452467231751,8.67241C6.603452467231751,8.97712,6.8504624672317505,9.22414,7.1551724672317505,9.22414L11.84483246723175,9.22414ZM12.81034246723175,11.9828C13.11505246723175,11.9828,13.36207246723175,11.7357,13.36207246723175,11.43104C13.36207246723175,11.12633,13.11505246723175,10.87931,12.81034246723175,10.87931L6.189652467231751,10.87931C5.884942467231751,10.87931,5.63793246723175,11.12633,5.63793246723175,11.43104C5.63793246723175,11.7357,5.884942467231751,11.9828,6.189652467231751,11.9828L12.81034246723175,11.9828ZM6.46552246723175,5.36428Q6.46552246723175,5.36259,4.2579324672317505,5.36207L4.2579324672317505,6.46552L6.465602467231751,6.46552C7.0745124672317505,6.46552,7.56896246723175,5.97296,7.56896246723175,5.36428L7.56896246723175,2.60345L6.46552246723175,2.60345L6.46552246723175,5.36428Z" fill="currentColor" fill-opacity="1"/></g></g></g></svg>