<?xml version="1.0" encoding="UTF-8"?>
<svg width="20px" height="20px" viewBox="0 0 20 20" version="1.1" xmlns="http://www.w3.org/2000/svg" xmlns:xlink="http://www.w3.org/1999/xlink">
    <title>fileprotect-outlined</title>
    <g id="页面-1" stroke="none" stroke-width="1">
        <g id="概览页--未开通备份" transform="translate(-1140.000000, -220.000000)">
            <g id="框架/顶栏账号下拉面板-改" transform="translate(1120.000000, 60.000000)">
                <g id="组-112备份" transform="translate(8.000000, 153.000000)">
                    <g id="fileprotect-outlined" transform="translate(12.000000, 7.000000)">
                        <rect id="矩形" opacity="0" x="0" y="0" width="20" height="20"></rect>
                        <path d="M12.5917969,13.0703125 C12.5625,13.0292969 12.515625,13.0058594 12.4648438,13.0058594 L11.6015625,13.0058594 C11.4746094,13.0058594 11.4003906,13.1503906 11.4746094,13.2539062 L12.9160156,15.2480469 C12.9785156,15.3339844 13.1054688,15.3339844 13.1679687,15.2480469 L15.3984375,12.1621094 C15.4726562,12.0585938 15.3984375,11.9140625 15.2714844,11.9140625 L14.40625,11.9140625 C14.3554688,11.9140625 14.3085938,11.9375 14.2792969,11.9785156 L13.0390625,13.6933594 L12.5917969,13.0703125 Z M13.4375,5.9765625 L13.4375,5.0390625 C13.4375,4.953125 13.3671875,4.8828125 13.28125,4.8828125 L5.78125,4.8828125 C5.6953125,4.8828125 5.625,4.953125 5.625,5.0390625 L5.625,5.9765625 C5.625,6.0625 5.6953125,6.1328125 5.78125,6.1328125 L13.28125,6.1328125 C13.3671875,6.1328125 13.4375,6.0625 13.4375,5.9765625 Z M5.78125,7.6953125 C5.6953125,7.6953125 5.625,7.765625 5.625,7.8515625 L5.625,8.7890625 C5.625,8.875 5.6953125,8.9453125 5.78125,8.9453125 L9.375,8.9453125 C9.4609375,8.9453125 9.53125,8.875 9.53125,8.7890625 L9.53125,7.8515625 C9.53125,7.765625 9.4609375,7.6953125 9.375,7.6953125 L5.78125,7.6953125 Z M9.375,16.640625 L4.0625,16.640625 L4.0625,2.890625 L15,2.890625 L15,8.671875 C15,8.7578125 15.0703125,8.828125 15.15625,8.828125 L16.25,8.828125 C16.3359375,8.828125 16.40625,8.7578125 16.40625,8.671875 L16.40625,2.109375 C16.40625,1.76367188 16.1269531,1.484375 15.78125,1.484375 L3.28125,1.484375 C2.93554688,1.484375 2.65625,1.76367188 2.65625,2.109375 L2.65625,17.421875 C2.65625,17.7675781 2.93554688,18.046875 3.28125,18.046875 L9.375,18.046875 C9.4609375,18.046875 9.53125,17.9765625 9.53125,17.890625 L9.53125,16.796875 C9.53125,16.7109375 9.4609375,16.640625 9.375,16.640625 Z M17.2382812,10.375 L13.4882812,9.07226562 C13.4707031,9.06640625 13.4550781,9.06445312 13.4375,9.06445312 C13.4199219,9.06445312 13.4023438,9.06640625 13.3867188,9.07226562 L9.63671875,10.375 C9.57421875,10.3964844 9.53125,10.4550781 9.53125,10.5214844 L9.53125,15.4257812 C9.53125,15.4746094 9.55273438,15.5195312 9.59179688,15.5488281 L13.3417969,18.4824219 C13.3691406,18.5039062 13.4042969,18.515625 13.4375,18.515625 C13.4707031,18.515625 13.5058594,18.5039062 13.5332031,18.4824219 L17.2832031,15.5488281 C17.3203125,15.5195312 17.34375,15.4746094 17.34375,15.4257812 L17.34375,10.5214844 C17.34375,10.4550781 17.3007812,10.3964844 17.2382812,10.375 Z M16.1328125,14.9160156 L13.4375,17.0234375 L10.7421875,14.9160156 L10.7421875,11.2695312 L13.4375,10.3320312 L16.1328125,11.2695312 L16.1328125,14.9160156 Z" id="形状"></path>
                    </g>
                </g>
            </g>
        </g>
    </g>
</svg>