<svg xmlns="http://www.w3.org/2000/svg" xmlns:xlink="http://www.w3.org/1999/xlink" fill="currentColor" version="1.1" width="18" height="18" viewBox="0 0 18 18"><g><g><rect x="0" y="0" width="18" height="18" rx="0" fill="currentColor" fill-opacity="0"/></g><g><g style="opacity:0;"><rect x="0.5" y="0.5" width="17" height="17" rx="0" fill="currentColor" fill-opacity="1"/></g><g><path d="M7.07473,4.11473C7.3708,4.11473,7.61082,4.35501,7.61082,4.65144C7.61082,4.94364,7.37761,5.18127,7.08739,5.18802L7.07473,5.18816L2.57808,5.18816C2.3023499999999997,5.18816,2.07903,5.40656,2.07232,5.67731L2.0721600000000002,5.68987L2.0721600000000002,13.6042C2.0721600000000002,13.8766,2.29132,14.0991,2.56538,14.1058L2.57808,14.1059L4.78287,14.1059C5.07894,14.1059,5.31896,14.3462,5.31896,14.6427C5.31896,14.9349,5.08574,15.1725,4.79552,15.1792L4.78287,15.1794L2.57808,15.1794C1.715785,15.1794,1.0141524,14.4887,1.000215225,13.6303L1,13.6042L1,5.68987C1,4.8280899999999995,1.6930049999999999,4.12884,2.552,4.11496L2.57808,4.11473L7.07473,4.11473ZM11.5773,3C13.5481,3,15.1443,4.60897,15.1443,6.59187C15.1443,7.80391,14.548,8.87623,13.6342,9.5268C15.6104,10.34709,17,12.29148,17,14.5601C17,14.8565,16.759999999999998,15.0968,16.463900000000002,15.0968C16.1721,15.0968,15.9347,14.8633,15.928,14.5728L15.9278,14.5601C15.9278,12.14361,13.9621,10.183769999999999,11.5361,10.183769999999999C9.13435,10.183769999999999,7.1837,12.10461,7.14491,14.4877L7.14432,14.5601C7.14432,14.8565,6.90432,15.0968,6.60825,15.0968C6.31218,15.0968,6.07216,14.8565,6.07216,14.5601C6.07216,12.27139,7.48648,10.31268,9.49048,9.505130000000001C8.593630000000001,8.85268,8.0103,7.79062,8.0103,6.59187C8.01031,4.60897,9.60651,3,11.5773,3ZM6.13971,9.822510000000001C6.43579,9.822510000000001,6.67579,10.06282,6.67579,10.35923C6.67579,10.651430000000001,6.4426,10.88908,6.15238,10.895800000000001L6.13971,10.89595L3.10309,10.89595C2.80703,10.89595,2.56701,10.655660000000001,2.56701,10.35923C2.56701,10.067029999999999,2.8002000000000002,9.82938,3.09044,9.82265L3.10309,9.822510000000001L6.13971,9.822510000000001ZM11.5773,4.07343C10.20029,4.07343,9.08248,5.20018,9.08248,6.59187C9.08248,7.98359,10.20027,9.110330000000001,11.5773,9.110330000000001C12.9544,9.110330000000001,14.0722,7.98359,14.0722,6.59187C14.0722,5.20018,12.9544,4.07343,11.5773,4.07343ZM6.73195,6.94282C7.02804,6.94282,7.26804,7.1831,7.26804,7.47953C7.26804,7.77173,7.03485,8.00938,6.74463,8.016110000000001L6.73196,8.01625L3.10309,8.01625C2.80703,8.01625,2.56701,7.77595,2.56701,7.47953C2.56701,7.18734,2.8002000000000002,6.94969,3.09044,6.942959999999999L3.10309,6.94282L6.73195,6.94282Z" fill="currentColor" fill-opacity="1"/></g></g></g></svg>