<svg xmlns="http://www.w3.org/2000/svg" xmlns:xlink="http://www.w3.org/1999/xlink" fill="currentColor" version="1.1" width="18" height="18" viewBox="0 0 18 18"><g><g><rect x="0" y="0" width="18" height="18" rx="0" fill="currentColor" fill-opacity="0"/></g><g><g style="opacity:0;"><rect x="1.5" y="1.5" width="15.5" height="15.5" rx="0" fill="currentColor" fill-opacity="1"/></g><g><path d="M3.859812680091858,17C3.669092680091858,17,3.475342680091858,16.9531,3.296728680091858,16.8562C3.1377926800918576,16.7684,3.003076680091858,16.6488,2.895605680091858,16.500500000000002C2.614062680091858,16.1069,2.465722680091858,15.6438,2.465722680091858,15.1609L2.465722680091858,3.81289C2.465722680091858,2.53687,3.502592680091858,1.5,4.777102680091858,1.5L13.721422680091857,1.5C14.995922680091859,1.5,16.034322680091858,2.53687,16.034322680091858,3.81289L16.034322680091858,15.1609C16.034322680091858,15.6301,15.893522680091857,16.082700000000003,15.627122680091858,16.4687C15.618022680091858,16.482300000000002,15.608922680091858,16.4944,15.599822680091858,16.506500000000003C15.357622680091858,16.8305,14.970122680091858,17.0076,14.563022680091859,16.9788C14.149722680091857,16.9501,13.784922680091858,16.715400000000002,13.586622680091859,16.3521L12.866122680091857,15.0322L12.082082680091858,16.3945C11.882272680091859,16.7502,11.509912680091858,16.9803,11.110302680091857,16.9955C11.078512680091858,16.997,11.046732680091857,16.997,11.016452680091858,16.9955C10.616842680091858,16.9803,10.244482680091858,16.7502,10.044682680091858,16.3945L9.250002680091857,15.0171L8.464402680091858,16.3854C8.255522680091858,16.7563,7.866502680091858,16.9879,7.448732680091858,16.9894C7.432082680091858,16.9894,7.4154326800918575,16.9894,7.398782680091858,16.9879C6.999172680091858,16.9728,6.626802680091858,16.7427,6.427002680091858,16.3854L5.648972680091858,15.0322L4.913332680091858,16.3733C4.695362680091858,16.773,4.283642680091858,17,3.859812680091858,17ZM4.777102680091858,2.473291C4.038432680091858,2.473291,3.439013680091858,3.07422,3.439013680091858,3.81138L3.439013680091858,15.1594C3.439013680091858,15.4379,3.525292680091858,15.7058,3.687252680091858,15.9329C3.708442680091858,15.9616,3.732662680091858,15.9843,3.762942680091858,16.000999999999998C3.8643526800918577,16.057000000000002,4.000582680091858,16.0131,4.059622680091858,15.9041L5.163082680091858,13.8955C5.270552680091858,13.6987,5.491552680091858,13.5867,5.711032680091858,13.6139C5.733742680091858,13.6169,5.7579626800918575,13.6215,5.780662680091858,13.6275C5.919922680091858,13.6639,6.042532680091858,13.7592,6.113672680091858,13.8864L7.274662680091858,15.9086C7.309472680091858,15.9722,7.371532680091858,16.0131,7.435112680091858,16.0146L7.444192680091858,16.0146C7.5123026800918575,16.0146,7.578902680091858,15.9722,7.615232680091858,15.9071L7.618262680091858,15.9011L8.776222680091859,13.8849C8.848872680091858,13.7577,8.969972680091857,13.6639,9.109232680091857,13.626C9.201562680091858,13.6018,9.298442680091858,13.6018,9.389262680091857,13.626C9.528512680091858,13.6624,9.649612680091858,13.7562,9.722262680091859,13.8834L10.892332680091858,15.9147C10.927152680091858,15.9783,10.989212680091859,16.0176,11.052782680091857,16.020699999999998L11.072462680091858,16.020699999999998C11.136032680091859,16.0176,11.198092680091857,15.9783,11.232912680091857,15.9147L11.235942680091858,15.9086L12.402982680091858,13.8834C12.475622680091858,13.7562,12.596722680091858,13.6624,12.736022680091859,13.626C12.758722680091857,13.62,12.781422680091858,13.6154,12.804122680091858,13.6124C13.025122680091858,13.5836,13.246122680091858,13.6972,13.355122680091858,13.8939L14.440422680091858,15.8829C14.496422680091857,15.9843,14.591722680091857,16.002499999999998,14.631122680091858,16.003999999999998C14.675022680091859,16.006999999999998,14.758222680091858,16.000999999999998,14.818822680091857,15.9208C14.820322680091857,15.9177,14.823322680091858,15.9147,14.824822680091858,15.9132C14.979222680091858,15.6892,15.061022680091858,15.4288,15.061022680091858,15.1579L15.061022680091858,3.81289C15.061022680091858,3.07422,14.460022680091859,2.474805,13.722922680091857,2.474805L4.777102680091858,2.474805L4.777102680091858,2.473291Z" fill="currentColor" fill-opacity="1"/></g><g><path d="M9.746480720367432,5.346240361801147L5.847265720367432,5.346240361801147C5.580859720367432,5.346240361801147,5.362890720367432,5.128271361801147,5.362890720367432,4.861865361801147L5.362890720367432,4.8573243618011475C5.362890720367432,4.5909183618011475,5.580859720367432,4.3729493618011475,5.847265720367432,4.3729493618011475L9.746480720367432,4.3729493618011475C10.012890720367432,4.3729493618011475,10.230860720367431,4.5909183618011475,10.230860720367431,4.8573243618011475L10.230860720367431,4.861865361801147C10.230860720367431,5.128271361801147,10.012890720367432,5.346240361801147,9.746480720367432,5.346240361801147ZM12.676950720367431,8.276709361801148L5.847265720367432,8.276709361801148C5.580859720367432,8.276709361801148,5.362890720367432,8.058739361801148,5.362890720367432,7.792339361801147L5.362890720367432,7.787789361801147C5.362890720367432,7.521389361801147,5.580859720367432,7.303419361801147,5.847265720367432,7.303419361801147L12.676950720367431,7.303419361801147C12.943360720367432,7.303419361801147,13.161330720367431,7.521389361801147,13.161330720367431,7.787789361801147L13.161330720367431,7.792339361801147C13.161330720367431,8.058739361801148,12.943360720367432,8.276709361801148,12.676950720367431,8.276709361801148ZM9.746480720367432,11.234419361801148L5.847265720367432,11.234419361801148C5.580859720367432,11.234419361801148,5.362890720367432,11.016459361801147,5.362890720367432,10.750049361801148L5.362890720367432,10.745509361801147C5.362890720367432,10.479099361801147,5.580859720367432,10.261129361801148,5.847265720367432,10.261129361801148L9.746480720367432,10.261129361801148C10.012890720367432,10.261129361801148,10.230860720367431,10.479099361801147,10.230860720367431,10.745509361801147L10.230860720367431,10.750049361801148C10.230860720367431,11.016459361801147,10.012890720367432,11.234419361801148,9.746480720367432,11.234419361801148Z" fill="currentColor" fill-opacity="1"/></g></g></g></svg>