<?xml version="1.0" encoding="UTF-8"?>
<svg width="20px" height="20px" viewBox="0 0 20 20" version="1.1" xmlns="http://www.w3.org/2000/svg" xmlns:xlink="http://www.w3.org/1999/xlink">
    <title>link-outlined</title>
    <g id="页面-1" stroke="none" stroke-width="1">
        <g id="概览页--未开通备份" transform="translate(-1140.000000, -262.000000)">
            <g id="框架/顶栏账号下拉面板-改" transform="translate(1120.000000, 60.000000)">
                <g id="组-112备份-2" transform="translate(8.000000, 195.000000)">
                    <g id="link-outlined" transform="translate(12.000000, 7.000000)">
                        <rect id="矩形" opacity="0" x="0" y="0" width="20" height="20"></rect>
                        <path d="M11.2109375,12.9960938 C11.1503906,12.9355469 11.0507812,12.9355469 10.9902344,12.9960938 L8.72070312,15.265625 C7.66992188,16.3164063 5.89648438,16.4277344 4.73632813,15.265625 C3.57421875,14.1035156 3.68554688,12.3320313 4.73632813,11.28125 L7.00585938,9.01171875 C7.06640625,8.95117188 7.06640625,8.8515625 7.00585938,8.79101563 L6.22851562,8.01367188 C6.16796875,7.953125 6.06835938,7.953125 6.0078125,8.01367188 L3.73828125,10.2832031 C2.0859375,11.9355469 2.0859375,14.609375 3.73828125,16.2597656 C5.390625,17.9101562 8.06445312,17.9121094 9.71484375,16.2597656 L11.984375,13.9902344 C12.0449219,13.9296875 12.0449219,13.8300781 11.984375,13.7695312 L11.2109375,12.9960938 Z M16.2617188,3.73828125 C14.609375,2.0859375 11.9355469,2.0859375 10.2851562,3.73828125 L8.01367188,6.0078125 C7.953125,6.06835938 7.953125,6.16796875 8.01367188,6.22851562 L8.7890625,7.00390625 C8.84960938,7.06445313 8.94921875,7.06445313 9.00976563,7.00390625 L11.2792969,4.734375 C12.3300781,3.68359375 14.1035156,3.57226563 15.2636719,4.734375 C16.4257813,5.89648438 16.3144531,7.66796875 15.2636719,8.71875 L12.9941406,10.9882812 C12.9335938,11.0488281 12.9335938,11.1484375 12.9941406,11.2089844 L13.7714844,11.9863281 C13.8320312,12.046875 13.9316406,12.046875 13.9921875,11.9863281 L16.2617188,9.71679688 C17.9121094,8.06445312 17.9121094,5.390625 16.2617188,3.73828125 L16.2617188,3.73828125 Z M11.9160156,7.27148438 C11.8554688,7.2109375 11.7558594,7.2109375 11.6953125,7.27148438 L7.27148438,11.6933594 C7.2109375,11.7539062 7.2109375,11.8535156 7.27148438,11.9140625 L8.04492188,12.6875 C8.10546875,12.7480469 8.20507812,12.7480469 8.265625,12.6875 L12.6875,8.265625 C12.7480469,8.20507812 12.7480469,8.10546875 12.6875,8.04492188 L11.9160156,7.27148438 Z" id="形状"></path>
                    </g>
                </g>
            </g>
        </g>
    </g>
</svg>