<?xml version="1.0" encoding="UTF-8"?>
<svg width="64px" height="64px" viewBox="0 0 64 64" version="1.1" xmlns="http://www.w3.org/2000/svg" xmlns:xlink="http://www.w3.org/1999/xlink">
    <g id="汇总" stroke="none" stroke-width="1" fill="none" fill-rule="evenodd">
        <g id="DNS-解析-我的域名-点击域名后-添加记录-添加状态-切换" transform="translate(-918.000000, -427.000000)">
            <g id="我的域名/添加域名-默认状态备份-4" transform="translate(249.000000, 192.000000)">
                <g id="编组-11" transform="translate(669.000000, 235.000000)">
                    <circle id="椭圆形" fill="#F1F7FF" cx="32" cy="32" r="32"></circle>
                    <g id="file--exception" transform="translate(12.000000, 12.000000)" fill-rule="nonzero">
                        <rect id="矩形" fill="#000000" opacity="0" x="0" y="0" width="40" height="40"></rect>
                        <path d="M26.875,12.1875 L26.875,10.3125 C26.875,10.140625 26.734375,10 26.5625,10 L11.5625,10 C11.390625,10 11.25,10.140625 11.25,10.3125 L11.25,12.1875 C11.25,12.359375 11.390625,12.5 11.5625,12.5 L26.5625,12.5 C26.734375,12.5 26.875,12.359375 26.875,12.1875 Z M11.5625,15.625 C11.390625,15.625 11.25,15.765625 11.25,15.9375 L11.25,17.8125 C11.25,17.984375 11.390625,18.125 11.5625,18.125 L18.75,18.125 C18.921875,18.125 19.0625,17.984375 19.0625,17.8125 L19.0625,15.9375 C19.0625,15.765625 18.921875,15.625 18.75,15.625 L11.5625,15.625 Z M17.1875,33.28125 L8.125,33.28125 L8.125,5.78125 L30,5.78125 L30,19.21875 C30,19.390625 30.140625,19.53125 30.3125,19.53125 L32.5,19.53125 C32.671875,19.53125 32.8125,19.390625 32.8125,19.21875 L32.8125,4.21875 C32.8125,3.52734375 32.2539062,2.96875 31.5625,2.96875 L6.5625,2.96875 C5.87109375,2.96875 5.3125,3.52734375 5.3125,4.21875 L5.3125,34.84375 C5.3125,35.5351562 5.87109375,36.09375 6.5625,36.09375 L17.1875,36.09375 C17.359375,36.09375 17.5,35.953125 17.5,35.78125 L17.5,33.59375 C17.5,33.421875 17.359375,33.28125 17.1875,33.28125 Z" id="形状" fill="#0063FF"></path>
                        <g id="编组-10" transform="translate(17.812500, 20.156250)" fill="#0063FF">
                            <path d="M8.4375,0 C13.0976562,0 16.875,3.77734375 16.875,8.4375 C16.875,13.0976562 13.0976562,16.875 8.4375,16.875 C3.77734375,16.875 0,13.0976562 0,8.4375 C0,3.77734375 3.77734375,0 8.4375,0 Z M8.4375,2.5 C6.8515625,2.5 5.359375,3.1171875 4.23828125,4.23828125 C3.1171875,5.359375 2.5,6.8515625 2.5,8.4375 C2.5,10.0234375 3.1171875,11.515625 4.23828125,12.6367188 C5.359375,13.7578125 6.8515625,14.375 8.4375,14.375 C10.0234375,14.375 11.515625,13.7578125 12.6367188,12.6367188 C13.7578125,11.515625 14.375,10.0234375 14.375,8.4375 C14.375,6.8515625 13.7578125,5.359375 12.6367188,4.23828125 C11.515625,3.1171875 10.0234375,2.5 8.4375,2.5 Z" id="形状结合"></path>
                            <circle id="椭圆形" cx="8.4375" cy="11.5625" r="1.25"></circle>
                            <path d="M7.65625,9.0625 L9.21875,9.0625 C9.390625,9.0625 9.53125,8.921875 9.53125,8.75 L9.53125,4.375 C9.53125,4.203125 9.390625,4.0625 9.21875,4.0625 L7.65625,4.0625 C7.484375,4.0625 7.34375,4.203125 7.34375,4.375 L7.34375,8.75 C7.34375,8.921875 7.484375,9.0625 7.65625,9.0625 Z" id="路径"></path>
                        </g>
                    </g>
                </g>
            </g>
        </g>
    </g>
</svg>