<svg xmlns="http://www.w3.org/2000/svg" width="13" height="13" viewBox="0 0 13 13"><defs><style>.a{fill:#009fe8;}.b{fill:#fff;}</style></defs><g transform="translate(-372 -240)"><rect class="a" width="13" height="13" rx="2" transform="translate(372 240)"/><path class="b" d="M381.023,247.609a9.452,9.452,0,0,0,1.028-2.627h-2.536v-.943h3.016v-.4h-3.016V242.22h-1.371v1.415H375.4v.4h2.742v.943h-2.331v.4h4.731c0,.067,0,.067-.069.134a4.6,4.6,0,0,1-.616,1.684c-3.5-1.347-4.525-.539-4.8-.4a1.987,1.987,0,0,0,.205,3.571,4.915,4.915,0,0,0,5.143-1.752.252.252,0,0,0,.2.068q.754.4,4.388,2.088v-2.021A26.764,26.764,0,0,1,381.023,247.609Zm-1.782.606a3.54,3.54,0,0,1-4.113,1.347,1.18,1.18,0,0,1-.069-2.155,5.688,5.688,0,0,1,4.32.606A.775.775,0,0,1,379.241,248.215Z"/></g></svg>