<?xml version="1.0" encoding="UTF-8"?>
<svg width="54px" height="54px" viewBox="0 0 54 54" version="1.1" xmlns="http://www.w3.org/2000/svg" xmlns:xlink="http://www.w3.org/1999/xlink">
    <defs>
        <rect id="path-1" x="0" y="0" width="54" height="53.9999966"></rect>
    </defs>
    <g id="汇总" stroke="none" stroke-width="1" fill="none" fill-rule="evenodd">
        <g id="DNS-解析-批量操作-导入记录-改" transform="translate(-559.000000, -531.000000)">
            <g id="编组-7" transform="translate(220.000000, 140.000000)">
                <g id="编组-6" transform="translate(20.000000, 318.000000)">
                    <g id="组-247" transform="translate(76.000000, 0.000000)">
                        <g id="组-246" transform="translate(148.000000, 73.000000)">
                            <g id="容器" transform="translate(95.000000, 0.000000)">
                                <mask id="mask-2" fill="white">
                                    <use xlink:href="#path-1"></use>
                                </mask>
                                <g fill-rule="nonzero"></g>
                                <path d="M41.7820572,39.0825003 L36.5845562,39.0825003 C35.4661789,39.0825003 34.5595563,38.1758811 34.5595563,37.0575038 C34.5595563,35.9391266 35.4661789,35.032504 36.5845562,35.0325005 L41.7820572,35.0325005 C46.0550485,34.9344372 49.5298144,31.558586 49.7512061,27.2902056 C49.9725909,23.0218251 46.8657262,19.3046012 42.6258072,18.7649992 L40.9720559,18.5962492 L40.9720559,16.9424996 C40.3909684,9.65802894 34.307166,4.04447053 26.9995571,4.04999974 C19.8979041,4.28182756 14.0950281,9.79455895 13.4995571,16.8749989 L13.4995571,18.5624988 L11.8120572,18.5624988 C7.45666762,18.9592323 4.1866954,22.7163365 4.39471722,27.0848093 C4.60273818,31.4532821 8.21492248,34.8826676 12.5883073,34.8637505 L17.4483067,34.8637505 C18.5666839,34.8637505 19.4733066,35.7703732 19.4733066,36.8887504 C19.4733066,38.0071242 18.5666839,38.9137503 17.4483067,38.9137503 L12.2845577,38.9137503 C6.10820965,38.8717104 0.934703541,34.2266534 0.229992301,28.090496 C-0.474718511,21.9543403 3.51104828,16.2573785 9.5170572,14.8162504 C11.0623314,6.33843887 18.383111,0.134148731 26.9995571,0 C35.6947426,0.117231047 43.0712135,6.4156058 44.5495577,14.9850004 C50.5675349,16.4295978 54.554734,22.1459865 53.8316105,28.2925225 C53.108487,34.4390603 47.9034809,39.0740065 41.7145565,39.0825003 L41.7820572,39.0825003 Z" id="路径" fill="#0063FF" fill-rule="nonzero" mask="url(#mask-2)"></path>
                                <path d="M26.9999983,25.9874983 C25.8816218,25.9874983 24.9749984,26.8941217 24.9749984,28.0124982 L24.9749984,46.0349984 C24.9749984,47.153374 25.8816218,48.0599983 26.9999983,48.0599983 C28.1183749,48.0599983 29.0249982,47.153374 29.0249982,46.0349984 L29.0249982,28.0124982 C29.0249982,26.8941217 28.118377,25.9874983 26.9999983,25.9874983 Z" id="路径" fill="#0063FF" fill-rule="nonzero" mask="url(#mask-2)"></path>
                                <path d="M27.000539,21.9037156 C26.4712113,21.9023726 25.9623907,22.108325 25.5830388,22.4774883 L20.0817891,28.0462383 C19.3099742,28.8336468 19.3099742,30.0938313 20.0817891,30.8812377 L20.2505391,30.8812377 C21.0379478,31.653053 22.2981325,31.653053 23.0855391,30.8812377 L28.5192889,25.4137383 C29.2911042,24.6263295 29.2911042,23.366147 28.5192889,22.5787383 C28.1329478,22.146784 27.5800523,21.9010522 27.000539,21.9037156 Z" id="路径" fill="#0063FF" fill-rule="nonzero" mask="url(#mask-2)"></path>
                                <path d="M27,21.9037404 C26.4706719,21.9024797 25.9618504,22.1083271 25.5824994,22.4774903 C24.8106842,23.264899 24.8106842,24.5250836 25.5824994,25.3124902 L31.151249,30.9487401 C31.938658,31.7205554 33.198843,31.7205554 33.9862485,30.9487401 C34.7580621,30.1613337 34.7580621,28.9011488 33.9862485,28.1137402 L28.5187499,22.5112404 C28.1204475,22.1041845 27.5691518,21.8836663 27,21.9037404 Z M46.743747,53.9999897 L7.25624911,53.9999897 C6.13787359,53.9999897 5.23124967,53.0933705 5.23124967,51.9749933 C5.23124967,50.856616 6.13787198,49.9499934 7.25624911,49.94999 L46.743747,49.94999 C47.8621243,49.9499934 48.7687503,50.856616 48.7687503,51.9749933 C48.7687503,53.0933705 47.8621243,53.9999897 46.743747,53.9999897 Z" id="路径" fill="#0063FF" fill-rule="nonzero" mask="url(#mask-2)"></path>
                            </g>
                        </g>
                    </g>
                </g>
            </g>
        </g>
    </g>
</svg>