<?xml version="1.0" encoding="UTF-8"?>
<svg width="40px" height="40px" viewBox="0 0 40 40" version="1.1" xmlns="http://www.w3.org/2000/svg" xmlns:xlink="http://www.w3.org/1999/xlink">
    <g id="主账号" stroke="none" stroke-width="1" fill="none" fill-rule="evenodd">
        <g id="费用账单-账单查看--空状态" transform="translate(-495.000000, -761.000000)" fill="#DDDDDD" fill-rule="nonzero">
            <g id="编组-13备份" transform="translate(487.000000, 761.000000)">
                <g id="工单" transform="translate(8.000000, 0.000000)">
                    <rect id="矩形" opacity="0" x="0" y="0" width="40" height="40"></rect>
                    <path d="M27.5,16.25 L12.5,16.25 C11.8096441,16.25 11.25,16.8096441 11.25,17.5 C11.25,18.1903559 11.8096441,18.75 12.5,18.75 L27.5,18.75 C28.1903559,18.75 28.75,18.1903559 28.75,17.5 C28.75,16.8096441 28.1903559,16.25 27.5,16.25 Z M27.5,23.75 L12.5,23.75 C11.8096441,23.75 11.25,24.3096441 11.25,25 C11.25,25.6903559 11.8096441,26.25 12.5,26.25 L27.5,26.25 C28.1903559,26.25 28.75,25.6903559 28.75,25 C28.75,24.3096441 28.1903559,23.75 27.5,23.75 Z M32.5,1.25 L7.5,1.25 C5.4325,1.25 3.75,2.9325 3.75,5 L3.75,35 C3.75,37.0675 5.4325,38.75 7.5,38.75 L32.5,38.75 C34.5675,38.75 36.25,37.0675 36.25,35 L36.25,5 C36.25,2.9325 34.5675,1.25 32.5,1.25 Z M12.5,3.75 L27.5,3.75 L27.5,7.5 L12.5,7.5 L12.5,3.75 Z M33.75,35 C33.75,35.6903559 33.1903559,36.25 32.5,36.25 L7.5,36.25 C6.81125,36.25 6.25,35.69 6.25,35 L6.25,5 C6.25,4.31125 6.81125,3.75 7.5,3.75 L10,3.75 L10,7.5 C10,8.87875 11.12125,10 12.5,10 L27.5,10 C28.87875,10 30,8.87875 30,7.5 L30,3.75 L32.5,3.75 C33.19,3.75 33.75,4.31125 33.75,5 L33.75,35 Z" id="形状"></path>
                </g>
            </g>
        </g>
    </g>
</svg>