<?xml version="1.0" encoding="UTF-8"?>
<svg width="22px" height="22px" viewBox="0 0 22 22" version="1.1" xmlns="http://www.w3.org/2000/svg" xmlns:xlink="http://www.w3.org/1999/xlink">
    <title>ads 云原生数据库</title>
    <g id="页面-1" stroke="none" stroke-width="1" fill="none" fill-rule="evenodd">
        <g id="子用户" transform="translate(-50.000000, -692.000000)" fill="#0063FF" fill-rule="nonzero">
            <g id="ads-云原生数据库" transform="translate(50.000000, 692.000000)">
                <rect id="矩形" opacity="0" x="0" y="0" width="22" height="22"></rect>
                <path d="M7.64317383,17.47075 L10.6626738,19.3545 L14.0350762,17.4735 L13.8673262,19.272 L13.83525,19.2903262 L10.6209727,21.0833262 L7.75042383,19.2921738 L7.643625,17.47075 L7.64317383,17.47075 Z M10.3752988,0.916673828 L10.4115,0.937298828 L15.2340977,3.67857617 L13.9645,4.29732617 C13.8545,4.35095117 12.8599238,4.85007617 11.6178262,5.918 C13.54925,7.849875 14.9444238,10.115875 15.7652988,12.656875 C16.7489029,12.3219022 17.7059894,11.9136059 18.6285,11.4354238 L19.71475,10.8767012 L19.71475,16.071 L19.679,16.09025 L14.9402988,18.7554512 L15.0379238,17.375875 C15.0461738,17.2535 15.11125,16.13975 14.7583262,14.4915977 C12.0472988,15.158 9.37107617,15.1699238 6.80167383,14.5273262 C6.65300195,15.4818517 6.58904444,16.4476562 6.61054883,17.4134512 L6.63804883,18.8022012 L1.83332617,15.7455762 L1.83332617,10.3037988 L3.0415,11.2662988 C3.14232617,11.3469512 4.07,12.05875 5.68792383,12.667875 C6.36854883,10.1562012 7.640875,7.90075 9.472375,5.963375 C8.71717512,5.33787787 7.91587739,4.77022644 7.07529883,4.26525 L6.04082617,3.64007617 L10.3752988,0.916673828 L10.3752988,0.916673828 Z M18.2251738,13.2834238 C17.5506694,13.5880155 16.8606943,13.8571168 16.1580762,14.089625 C16.3519512,14.94625 16.4431738,15.6809727 16.4853262,16.17825 L18.2251738,15.1997012 L18.2251738,13.2834238 Z M3.322,13.189 L3.322,14.9279238 L5.14432617,16.0875 C5.181,15.412375 5.25754883,14.7432227 5.37029883,14.0955762 C4.66522608,13.8465302 3.98042626,13.5434381 3.322,13.189 L3.322,13.189 Z M10.5467012,6.9355 C8.86507617,8.69915234 7.70504883,10.7763262 7.09682617,13.1115488 C9.41967383,13.7041738 11.8680762,13.688125 14.3751738,13.0647988 C13.6308262,10.7680762 12.343375,8.7065 10.5467012,6.9355 L10.5467012,6.9355 Z M17.1952988,4.23957617 L19.7142988,5.76904883 L19.7142988,9.73592383 L18.225625,10.5398047 L18.225625,6.60730469 L15.4050488,4.89457031 L17.1952988,4.23914648 L17.1952988,4.23957617 Z M4.70892383,4.22354883 L6.09582617,5.14157617 L3.322,6.74757617 L3.322,10.5375488 L1.83334766,9.44029883 L1.83334766,5.889125 L4.70892383,4.22354883 L4.70892383,4.22354883 Z M10.4133262,2.65145117 L8.84904883,3.63504883 C9.43593897,4.03467772 10.0009598,4.46551469 10.5416738,4.92570117 C11.0581922,4.4671021 11.6029979,4.04138946 12.172875,3.65107617 L10.4133262,2.65192383 L10.4133262,2.65145117 Z" id="形状"></path>
            </g>
        </g>
    </g>
</svg>