<?xml version="1.0" encoding="UTF-8"?>
<svg width="16px" height="16px" viewBox="0 0 16 16" version="1.1" xmlns="http://www.w3.org/2000/svg" xmlns:xlink="http://www.w3.org/1999/xlink">
    <g id="CDN" stroke="none" stroke-width="1" fill="none" fill-rule="evenodd">
        <g id="内容管理-刷新-上传文件备份" transform="translate(-334.000000, -530.000000)" fill-rule="nonzero">
            <g id="我的域名/添加域名-默认状态备份-4" transform="translate(30.000000, 263.000000)">
                <g id="组-5872" transform="translate(121.000000, 224.000000)">
                    <g id="X元素-进度条-上传成功" transform="translate(183.000000, 40.000000)">
                        <g id="成功" transform="translate(0.000000, 3.000000)">
                            <rect id="矩形" fill="#000000" opacity="0" x="0" y="0" width="16" height="16"></rect>
                            <path d="M8,1 C11.8659255,1 15,4.13407498 15,8 C15,9.28450006 14.6529754,10.5194754 14.0059999,11.5974754 C13.8567725,11.8461066 13.5342441,11.9266899 13.2856129,11.7774625 C13.0369807,11.6282352 12.9563984,11.3057067 13.1056248,11.0570755 C13.6599256,10.1338294 13.9518645,9.07686095 13.95,8 C13.95,4.71385003 11.2861502,2.05000003 8,2.05000003 C4.71385003,2.05000003 2.05000003,4.71385003 2.05000003,8 C2.05000003,11.2861502 4.71385003,13.95 8,13.95 C9.07670925,13.9519066 10.133545,13.6600918 11.0567251,13.1059753 C11.2175622,13.0094734 11.4176636,13.0061069 11.581655,13.0971443 C11.7456464,13.1881828 11.848613,13.3597925 11.8517683,13.5473319 C11.8549226,13.7348712 11.7577869,13.9098485 11.5969507,14.0063504 C10.5105854,14.6583847 9.26701735,15.0019176 8,15 C4.13407498,15 1,11.8659255 1,8 C1,4.13407498 4.13407498,1 8,1 Z M11.0280734,5.85516315 C11.2352336,6.0622544 11.2354712,6.3982532 11.0286031,6.60563749 C11.0286031,6.60563749 10.9658769,6.66852585 10.8571513,6.77753234 L10.5419518,7.09354635 C10.4998729,7.13573396 10.4557031,7.18001785 10.4097039,7.22613598 L10.1138449,7.52275941 C9.53885409,8.09923604 8.80574074,8.83424374 8.26237438,9.37901416 L7.98690149,9.65519887 C7.94482261,9.69738648 7.90483461,9.73747781 7.86719885,9.77521082 L7.67170195,9.97121288 C7.56297641,10.0802194 7.50025013,10.1431077 7.50025013,10.1431077 C7.29359945,10.3503105 6.95835104,10.3507852 6.75111551,10.1441694 L6.64345877,10.0368369 C6.62086415,10.0143103 6.5951683,9.98869189 6.56681426,9.96042325 L6.368336,9.76254279 C6.33112132,9.72544021 6.29213452,9.68657083 6.25181862,9.64637636 L5.86505182,9.26077448 C5.68783909,9.08409549 5.51062635,8.90741651 5.36176765,8.75900616 L5.0286077,8.42684967 C4.99670941,8.39504746 4.97898814,8.37737956 4.97898814,8.37737956 C4.84305409,8.24396612 4.78902594,8.04782481 4.8374432,7.86352129 C4.88586046,7.67921763 5.02928635,7.53506035 5.21319565,7.48585259 C5.39710492,7.43664496 5.59324956,7.48994505 5.72706258,7.62549019 C5.72706258,7.62549019 5.74639864,7.64476634 5.78052109,7.67878309 L6.0185252,7.91604989 C6.12089256,8.01810012 6.2411742,8.13800915 6.36401503,8.26046943 L6.72485997,8.62019652 C6.76239467,8.65761494 6.7985076,8.69361599 6.83263005,8.72763274 L7.00892939,8.90338592 C7.0328151,8.92719765 7.05357293,8.94789117 7.07063416,8.96489954 L7.12409267,9.01819244 L7.12409267,9.01819244 L7.16703141,8.97514231 C7.18099943,8.96113805 7.19820079,8.94389207 7.21837683,8.9236637 L7.47329326,8.66808598 C7.54468539,8.59650866 7.62487219,8.51611384 7.71178434,8.42897624 L8.14130108,7.99834529 C8.29494934,7.84429845 8.45674562,7.68208246 8.6197059,7.51869944 L9.10509473,7.03205146 C9.31616709,6.82043156 9.51689277,6.61918518 9.69071707,6.44490997 L10.0294416,6.1053067 C10.1225618,6.01194498 10.1935659,5.94075667 10.23547,5.89874389 L10.2784087,5.85569376 L10.2784087,5.85569376 C10.4852763,5.64830947 10.8209127,5.64807191 11.0280734,5.85516315 Z" id="形状" fill="#02DE6D"></path>
                        </g>
                    </g>
                </g>
            </g>
        </g>
    </g>
</svg>