<?xml version="1.0" encoding="UTF-8"?>
<svg width="16px" height="16px" viewBox="0 0 16 16" version="1.1" xmlns="http://www.w3.org/2000/svg" xmlns:xlink="http://www.w3.org/1999/xlink">
    <g id="CDN" stroke="none" stroke-width="1" fill="none" fill-rule="evenodd">
        <g id="猫云控制台设计规范" transform="translate(-1242.000000, -7089.000000)" fill-rule="nonzero">
            <g id="编组-58" transform="translate(110.000000, 6623.000000)">
                <g id="编组-39" transform="translate(512.000000, 394.000000)">
                    <g id="编组-101备份-6" transform="translate(356.000000, 0.000000)">
                        <g id="编组-99" transform="translate(0.000000, 50.000000)">
                            <g id="icon_穿梭框删除-默认态" transform="translate(264.000000, 22.000000)">
                                <rect id="矩形" fill="currentColor" opacity="0" x="0" y="0" width="16" height="16"></rect>
                                <path d="M7.99799955,14.9629998 C7.09564483,14.9605412 6.20202959,14.7860942 5.36499965,14.4489999 C4.49938524,14.1004367 3.71427429,13.5783906 3.05799997,12.9149995 C2.3934257,12.2580905 1.86946392,11.4728284 1.51799989,10.6069999 C0.835768104,8.92487526 0.835768104,7.04312468 1.51799989,5.36100054 C1.8699528,4.49548125 2.39424336,3.7105763 3.0589999,3.05400014 C3.7132839,2.38964748 4.49857557,1.86861724 5.36500013,1.52400011 C7.05376041,0.854656219 8.93423879,0.854656219 10.6229995,1.52400011 C11.4863657,1.87016708 12.2692665,2.39028549 12.9229997,3.05200005 C13.5863642,3.70687842 14.1063627,4.49249506 14.4499992,5.35900021 C15.1271023,7.04212093 15.1271023,8.92187881 14.4499992,10.6049991 C14.106069,11.4716458 13.5861171,12.2575326 12.9229988,12.9129996 C12.2682012,13.5749049 11.4856933,14.0968041 10.6229986,14.447 C9.78904474,14.7852702 8.89794481,14.9604354 7.99799955,14.9629998 Z M7.96899974,9.50399923 L9.65100038,11.184999 C10.0967401,11.6334043 10.8222593,11.6334043 11.268,11.184999 C11.4753574,10.9883246 11.5836185,10.7090478 11.5630001,10.4239993 C11.5312589,10.1298509 11.3971027,9.8562274 11.1840004,9.65099955 L9.50200021,7.97000027 L11.1839994,6.28800011 C11.3969749,6.08636427 11.5313104,5.81556654 11.5630001,5.52400017 C11.5872597,5.2363615 11.4785827,4.95343256 11.268,4.75600004 C11.0560716,4.53742743 10.7634176,4.4158802 10.459,4.42000008 C10.1542829,4.41431165 9.86102808,4.53610802 9.64999998,4.75600004 L7.96899974,6.41800022 L6.33399999,4.78300023 C6.12744081,4.5776453 5.85597742,4.45039678 5.56599987,4.42300034 C5.53500021,4.42300034 5.505,4.42300034 5.47800004,4.42300034 C5.22189271,4.42299175 4.97665393,4.52649689 4.79799974,4.71000028 C4.35054338,5.16042948 4.35054338,5.88757133 4.79799974,6.3380003 L6.4339999,7.97000027 L4.79899967,9.5989995 C4.3511523,10.0449719 4.3511523,10.7700267 4.79899967,11.2159991 C4.97257316,11.4036546 5.21540821,11.5120625 5.4709996,11.5159993 C5.50399959,11.5159993 5.53699958,11.5159993 5.5709995,11.5159993 C5.86380613,11.4898314 6.13694704,11.3575292 6.33899963,11.1439996 L7.96899974,9.50499964 L7.96899974,9.50399923 Z" id="形状" fill="currentColor"></path>
                            </g>
                        </g>
                    </g>
                </g>
            </g>
        </g>
    </g>
</svg>