<svg xmlns="http://www.w3.org/2000/svg" xmlns:xlink="http://www.w3.org/1999/xlink" fill="none" version="1.1" width="16" height="16" viewBox="0 0 16 16"><defs><clipPath id="master_svg0_27_0108"><rect x="0" y="0" width="16" height="16" rx="0"/></clipPath></defs><g clip-path="url(#master_svg0_27_0108)"><g style="opacity:0;"><rect x="0" y="0" width="16" height="16" rx="0" fill="#000000" fill-opacity="1"/></g><g><path d="M1,8C1,4.13401,4.13401,1,8,1C11.866,1,15,4.13401,15,8C15,11.866,11.866,15,8,15C4.1360600000000005,14.995,1.00495752,11.8639,1,8ZM2.806,5C0.9406245,8.23093,2.4447900000000002,12.3628,5.95071,13.6384C9.45662,14.914,13.2643,12.7147,13.9112,9.04047C14.5582,5.36625,11.7308,1.998662,8,2C5.85679,1.999324,3.87635,3.1432,2.806,5ZM6.471,12L6.471,11L7.488,11L7.488,7L7.023,7L7.023,6L8.494,6L8.494,7L8.488,7L8.488,11L9.471,11L9.471,12L6.471,12ZM7.271,4.651C7.271,4.29202,7.56202,4.0009999999999994,7.921,4.0009999999999994C8.27998,4.0009999999999994,8.571,4.29202,8.571,4.651C8.571,5.00998,8.27998,5.301,7.921,5.301C7.56162,5.301,7.27045,5.00938,7.271,4.651L7.271,4.651Z" fill="#CCCCCC" fill-opacity="1"/></g></g></svg>