<?xml version="1.0" encoding="UTF-8"?>
<svg width="16px" height="16px" viewBox="0 0 16 16" version="1.1" xmlns="http://www.w3.org/2000/svg" xmlns:xlink="http://www.w3.org/1999/xlink">
    <g id="CDN" stroke="none" stroke-width="1" fill="none" fill-rule="evenodd">
        <g id="猫云控制台设计规范2" transform="translate(-682.000000, -713.000000)" fill-rule="nonzero">
            <g id="编组-90" transform="translate(160.000000, 535.000000)">
                <g id="编组-87" transform="translate(0.000000, 177.000000)">
                    <g id="对的" transform="translate(522.000000, 1.000000)">
                        <rect id="矩形" fill="currentColor" opacity="0" x="0" y="0" width="16" height="16"></rect>
                        <g id="编组-20" fill="currentColor">
                            <path d="M14.5454545,8 C14.5454545,11.6 11.6,14.5454545 8,14.5454545 C4.4,14.5454545 1.45454545,11.6 1.45454545,8 C1.45454545,4.4 4.4,1.45454545 8,1.45454545 C11.6,1.45454545 14.5454545,4.4 14.5454545,8 Z M8,0 C3.56363636,0 0,3.56363636 0,8 C0,12.4363636 3.56363636,16 8,16 C12.4363636,16 16,12.4363636 16,8 C16,3.56363636 12.4363636,0 8,0 Z" id="形状"></path>
                            <path d="M6.72727273,11.2 C6.54545455,11.2 6.36363637,11.1272727 6.21818181,10.9818182 L3.85454545,8.61818181 C3.56363636,8.32727272 3.56363636,7.89090908 3.85454545,7.6 C4.14545455,7.30909091 4.58181819,7.30909091 4.87272727,7.6 L6.72727273,9.45454545 L11.1272727,5.05454545 C11.4181818,4.76363636 11.8545455,4.76363636 12.1454545,5.05454545 C12.4363636,5.34545455 12.4363636,5.78181819 12.1454545,6.07272727 L7.23636364,10.9818182 C7.09090909,11.1272727 6.90909091,11.2 6.72727273,11.2 Z" id="路径"></path>
                        </g>
                    </g>
                </g>
            </g>
        </g>
    </g>
</svg>