<?xml version="1.0" encoding="UTF-8"?>
<svg width="56px" height="56px" viewBox="0 0 56 56" version="1.1" xmlns="http://www.w3.org/2000/svg" xmlns:xlink="http://www.w3.org/1999/xlink">
    <g id="CDN" stroke="none" stroke-width="1" fill="none" fill-rule="evenodd">
        <g id="服务概览" transform="translate(-1332.000000, -316.000000)">
            <g id="编组-9" transform="translate(1080.000000, 240.000000)">
                <g id="编组-7" transform="translate(20.000000, 62.000000)">
                    <g id="❖-Side-Tip-悬浮操作按钮-点击新建-Modal" transform="translate(232.000000, 14.000000)">
                        <rect id="Rectangle-" fill="#E4F0FF" x="0" y="0" width="56" height="56" rx="28"></rect>
                        <g id="unlock-fill" transform="translate(16.890625, 16.000000)" fill-rule="nonzero">
                            <rect id="矩形" fill="#000000" opacity="0" x="0" y="0" width="24" height="24"></rect>
                            <path d="M21.599375,10.56 L6.599375,10.56 L6.599375,3.84 C6.599375,2.913 7.352375,2.16 8.279375,2.16 L15.719375,2.16 C16.646375,2.16 17.399375,2.913 17.399375,3.84 L17.399375,5.88 C17.399375,6.012 17.507375,6.12 17.639375,6.12 L19.319375,6.12 C19.451375,6.12 19.559375,6.012 19.559375,5.88 L19.559375,3.84 C19.559375,1.719 17.840375,0 15.719375,0 L8.279375,0 C6.158375,0 4.439375,1.719 4.439375,3.84 L4.439375,10.56 L2.399375,10.56 C1.868375,10.56 1.439375,10.989 1.439375,11.52 L1.439375,23.04 C1.439375,23.571 1.868375,24 2.399375,24 L21.599375,24 C22.130375,24 22.559375,23.571 22.559375,23.04 L22.559375,11.52 C22.559375,10.989 22.130375,10.56 21.599375,10.56 Z M12.839375,17.67 L12.839375,19.26 C12.839375,19.392 12.731375,19.5 12.599375,19.5 L11.399375,19.5 C11.267375,19.5 11.159375,19.392 11.159375,19.26 L11.159375,17.67 C10.796375,17.409 10.559375,16.983 10.559375,16.5 C10.559375,15.705 11.204375,15.06 11.999375,15.06 C12.794375,15.06 13.439375,15.705 13.439375,16.5 C13.439375,16.983 13.202375,17.409 12.839375,17.67 Z" id="形状" fill="#0063FF"></path>
                        </g>
                    </g>
                </g>
            </g>
        </g>
    </g>
</svg>