<?xml version="1.0" encoding="UTF-8"?>
<svg width="16px" height="16px" viewBox="0 0 16 16" version="1.1" xmlns="http://www.w3.org/2000/svg" xmlns:xlink="http://www.w3.org/1999/xlink">
    <g id="CDN" stroke="none" stroke-width="1" fill="none" fill-rule="evenodd">
        <g id="内容管理-刷新-上传文件备份" transform="translate(-1034.000000, -530.000000)" fill-rule="nonzero">
            <g id="我的域名/添加域名-默认状态备份-5" transform="translate(730.000000, 263.000000)">
                <g id="组-5872" transform="translate(121.000000, 224.000000)">
                    <g id="X元素-进度条-上传成功" transform="translate(183.000000, 40.000000)">
                        <g id="失败" transform="translate(0.000000, 3.000000)">
                            <rect id="矩形" fill="#000000" opacity="0" x="0" y="0" width="16" height="16"></rect>
                            <path d="M8,1 C11.8659255,1 15,4.13407498 15,8 C15,9.28450006 14.6529754,10.5194754 14.0059999,11.5974754 C13.8567725,11.8461066 13.5342441,11.9266899 13.2856129,11.7774625 C13.0369807,11.6282352 12.9563984,11.3057067 13.1056248,11.0570755 C13.6599256,10.1338294 13.9518645,9.07686095 13.95,8 C13.95,4.71385003 11.2861502,2.05000003 8,2.05000003 C4.71385003,2.05000003 2.05000003,4.71385003 2.05000003,8 C2.05000003,11.2861502 4.71385003,13.95 8,13.95 C9.07670925,13.9519066 10.133545,13.6600918 11.0567251,13.1059753 C11.2175622,13.0094734 11.4176636,13.0061069 11.581655,13.0971443 C11.7456464,13.1881828 11.848613,13.3597925 11.8517683,13.5473319 C11.8549226,13.7348712 11.7577869,13.9098485 11.5969507,14.0063504 C10.5105854,14.6583847 9.26701735,15.0019176 8,15 C4.13407498,15 1,11.8659255 1,8 C1,4.13407498 4.13407498,1 8,1 Z M9.92795544,5.71692712 C10.1039979,5.76357279 10.2414913,5.90103712 10.2881465,6.07704297 C10.3348023,6.2530488 10.2834508,6.44055085 10.153621,6.56824285 L9.85442159,6.86737967 C9.43408292,7.28763042 8.71950718,8.0020567 8.71950718,8.0020567 C8.71950718,8.0020567 10.153621,9.43587055 10.153621,9.43587055 C10.2834508,9.56356242 10.3348023,9.75106447 10.2881465,9.92707036 C10.2414913,10.103076 10.1039979,10.2405406 9.92795544,10.287186 C9.7519127,10.333832 9.56437139,10.2824913 9.43665278,10.1526887 L8.41236899,9.12861948 C8.18118268,8.89748161 8.00253871,8.71887507 8.00253871,8.71887507 C8.00253871,8.71887507 7.82389475,8.89748161 7.59270843,9.12861948 L6.56842464,10.1526887 L6.56842464,10.1526887 C6.44070591,10.2824913 6.2531646,10.333832 6.07712192,10.287186 C5.90107921,10.2405406 5.7635861,10.103076 5.71693067,9.92707036 C5.67027523,9.75106447 5.72162662,9.56356242 5.8514561,9.43587055 C5.8514561,9.43587055 7.28557012,8.0020567 7.28557012,8.0020567 C7.28557012,8.0020567 6.57099427,7.28763042 6.15065554,6.86737967 L5.8514561,6.56824285 L5.8514561,6.56824285 C5.72162662,6.44055085 5.67027523,6.2530488 5.71693067,6.07704297 C5.7635861,5.90103712 5.90107921,5.76357279 6.07712192,5.71692712 C6.2531646,5.67028145 6.44070591,5.72162209 6.56842464,5.85142439 L7.94766115,7.23037213 C7.98268938,7.26539302 8.00253871,7.2852382 8.00253871,7.2852382 C8.00253871,7.2852382 8.02238804,7.26539302 8.05741627,7.23037213 L9.43665278,5.85142439 L9.43665278,5.85142439 C9.56437139,5.72162209 9.7519127,5.67028145 9.92795544,5.71692712 Z" id="形状" fill="#FE4D4F"></path>
                        </g>
                    </g>
                </g>
            </g>
        </g>
    </g>
</svg>