<?xml version="1.0" encoding="UTF-8"?>
<svg width="22px" height="20px" viewBox="0 0 22 20" version="1.1" xmlns="http://www.w3.org/2000/svg" xmlns:xlink="http://www.w3.org/1999/xlink">
    <g id="Symbols" stroke="none" stroke-width="1" fill="none" fill-rule="evenodd">
        <g id="框架/顶部导航" transform="translate(-1348.000000, -20.000000)" fill-rule="nonzero">
            <g id="消息通知" transform="translate(1348.000000, 19.000000)">
                <rect id="矩形-2" fill="#000000" opacity="0" x="0" y="0" width="22" height="22"></rect>
                <path d="M19.4864159,19.8590092 L2.5190418,19.8590092 C1.73532693,19.8590092 1.1,19.2236831 1.1,18.4399672 L1.1,3.5640418 C1.1,2.7803266 1.73532654,2.145 2.5190418,2.145 L19.4864159,2.145 C20.2679926,2.14800029 20.9,2.78244719 20.9,3.5640418 L20.9,18.4399672 C20.9,19.2215563 20.2679988,19.8560028 19.4864159,19.8590092 Z M2.5190418,7.68144638 L2.5190418,18.4388752 L19.4798659,18.4388752 L19.4798659,7.87574593 L11.5397819,13.2604635 C11.3020095,13.4261735 10.9861651,13.4261735 10.7483927,13.2604635 L2.5190418,7.68144638 L2.5190418,7.68144638 Z M2.5190418,3.5640418 L2.5190418,5.96549728 L11.1424498,11.8184996 L19.480959,6.1696213 L19.480959,3.5640418 L2.5190418,3.5640418 Z" id="形状" stroke="#555555" stroke-width="0.4" fill="#555555"></path>
            </g>
        </g>
    </g>
</svg>