<?xml version="1.0" encoding="UTF-8"?>
<svg width="16px" height="16px" viewBox="0 0 16 16" version="1.1" xmlns="http://www.w3.org/2000/svg" xmlns:xlink="http://www.w3.org/1999/xlink">
    <title>成功</title>
    <g id="CDN" stroke="none" stroke-width="1" fill="none" fill-rule="evenodd">
        <g id="猫云控制台设计规范" transform="translate(-432.000000, -9379.000000)" fill-rule="nonzero">
            <g id="bg备份-4" transform="translate(408.000000, 9367.000000)">
                <g id="成功" transform="translate(24.000000, 12.000000)">
                    <rect id="矩形" fill="#000000" opacity="0" x="0" y="0" width="16" height="16"></rect>
                    <path d="M8,0 C12.4182006,0 16,3.58179997 16,8 C16,9.46800007 15.6034004,10.8794005 14.8639999,12.1114005 C14.6934543,12.3955505 14.3248504,12.4876456 14.0407005,12.3171001 C13.7565494,12.1465545 13.6644554,11.7779506 13.8349998,11.4938006 C14.4684864,10.4386622 14.8021309,9.23069823 14.8,8 C14.8,4.24440003 11.7556003,1.20000003 8,1.20000003 C4.24440003,1.20000003 1.20000003,4.24440003 1.20000003,8 C1.20000003,11.7556003 4.24440003,14.8 8,14.8 C9.23052486,14.8021789 10.4383372,14.4686763 11.4934001,13.8354003 C11.6772139,13.7251125 11.9059012,13.721265 12.09332,13.8253078 C12.2807387,13.9293518 12.3984149,14.1254772 12.4020209,14.3398079 C12.4056258,14.5541385 12.2946136,14.7541126 12.1108008,14.8644005 C10.8692404,15.6095825 9.44801983,16.0021915 8,16 C3.58179997,16 0,12.4182006 0,8 C0,3.58179997 3.58179997,0 8,0 Z M11.6411605,5.37034752 C11.8904693,5.62439822 11.8907552,6.03658721 11.6417981,6.2909974 C11.6417981,6.2909974 7.39557061,10.6306148 7.39557061,10.6306148 C7.14687503,10.8848024 6.74341738,10.8853847 6.49401795,10.6319172 L6.44844407,10.585601 C6.13924283,10.271363 4.36133567,8.4644949 4.36133567,8.4644949 C4.19774465,8.30082899 4.13272399,8.06021122 4.19099217,7.83411552 C4.24926035,7.60801967 4.4218675,7.43117367 4.64319477,7.37080769 C4.864522,7.31044187 5.10057399,7.37582815 5.26161245,7.54210913 C5.26161245,7.54210913 6.94288059,9.25061678 6.94288059,9.25061678 L6.98551246,9.20704685 C7.4025633,8.78081925 10.73897,5.37099846 10.73897,5.37099846 C10.9879266,5.11658827 11.3918511,5.11629684 11.6411605,5.37034752 Z" id="形状" fill="#02DE6D"></path>
                </g>
            </g>
        </g>
    </g>
</svg>