<?xml version="1.0" encoding="UTF-8"?>
<svg width="16px" height="16px" viewBox="0 0 16 16" version="1.1" xmlns="http://www.w3.org/2000/svg" xmlns:xlink="http://www.w3.org/1999/xlink">
    <g id="CDN" stroke="none" stroke-width="1" fill="none" fill-rule="evenodd">
        <g id="服务概览" transform="translate(-341.000000, -1035.000000)" fill-rule="nonzero">
            <g id="编组-5备份" transform="translate(220.000000, 570.000000)">
                <g id="编组-11" transform="translate(20.000000, 448.000000)">
                    <g id="向上4" transform="translate(101.000000, 17.000000)">
                        <rect id="矩形" fill="#000000" opacity="0" x="0" y="0" width="16" height="16"></rect>
                        <path d="M13.1564062,6.19520313 L8.5308125,1.5723125 C8.23784375,1.27934375 7.762125,1.27934375 7.46915625,1.5723125 L2.84629687,6.19789063 C2.42970312,6.61448438 2.77642187,7.34285938 3.32201562,7.34285938 L5.61464062,7.34285938 L5.61464062,13.9143281 C5.61464062,14.3201719 5.94254687,14.6507656 6.35107812,14.6507656 L9.65160937,14.6507656 C10.0574531,14.6507656 10.3880469,14.3228594 10.3880469,13.9143281 L10.3880469,7.34017188 L12.6860469,7.34017188 C13.2424062,7.34017188 13.5595469,6.60373438 13.1563906,6.19520313 L13.1564062,6.19520313 Z" id="路径" fill="#FE4D4F"></path>
                    </g>
                </g>
            </g>
        </g>
    </g>
</svg>