<?xml version="1.0" encoding="UTF-8"?>
<svg width="14px" height="14px" viewBox="0 0 14 14" version="1.1" xmlns="http://www.w3.org/2000/svg" xmlns:xlink="http://www.w3.org/1999/xlink">
    <g id="CDN">
        <g id="域名管理-–-静态加速备份" transform="translate(-1376.000000, -282.000000)" fill-rule="nonzero">
            <g id="组-168" transform="translate(220.000000, 194.000000)">
                <g id="组-93" transform="translate(1146.000000, 78.000000)">
                    <g id="icon_刷新" transform="translate(10.000000, 10.000000)">
                        <rect id="矩形" fill="currentColor" opacity="0" x="0" y="0" width="14" height="14"></rect>
                        <path d="M3.78437483,11.8676248 L4.634,10.9926248 C5.34610951,11.4292753 6.16468006,11.6614668 7,11.6637499 C9.61103523,11.6243974 11.6980164,9.47988987 11.6663752,6.86874992 L10.5,6.86874992 L12.25,4.4712497 L14,6.8687495 L12.8327503,6.8687495 C12.8765414,10.1342824 10.2655137,12.8173811 7,12.8624998 L6.99212515,12.8624998 C5.84715694,12.8610028 4.72924709,12.5142868 3.78437483,11.8676248 Z M0,6.86874992 L3.5,6.86874992 L1.75,9.26625013 L0,6.86874992 Z M1.16637495,6.86874992 C1.12258577,3.60287973 3.73414254,0.919639332 7,0.875 C8.14760387,0.875237182 9.26839304,1.22199564 10.2156252,1.86987497 L9.36600041,2.74487507 C8.65412915,2.3076808 7.83540213,2.07544574 7,2.07375 C4.38875782,2.11262397 2.3014994,4.25741616 2.33362505,6.86874992 L1.16637495,6.86874992 Z" id="形状" fill="currentColor"></path>
                    </g>
                </g>
            </g>
        </g>
    </g>
</svg>