<?xml version="1.0" encoding="UTF-8"?>
<svg width="56px" height="56px" viewBox="0 0 56 56" version="1.1" xmlns="http://www.w3.org/2000/svg" xmlns:xlink="http://www.w3.org/1999/xlink">
    <g id="CDN" stroke="none" stroke-width="1" fill="none" fill-rule="evenodd">
        <g id="服务概览" transform="translate(-1332.000000, -423.000000)">
            <g id="编组-9" transform="translate(1080.000000, 240.000000)">
                <g id="编组-7备份" transform="translate(20.000000, 166.000000)">
                    <g id="❖-Side-Tip-悬浮操作按钮-点击新建-Modal备份" transform="translate(232.000000, 17.000000)">
                        <rect id="Rectangle-" fill="#E4F0FF" x="0" y="0" width="56" height="56" rx="28"></rect>
                        <g id="database-fill" transform="translate(16.890625, 16.000000)" fill-rule="nonzero">
                            <rect id="矩形" fill="#000000" opacity="0" x="0" y="0" width="24" height="24"></rect>
                            <path d="M20.569375,0 L3.42651786,0 C2.95241071,0 2.569375,0.383035714 2.569375,0.857142857 L2.569375,6.85714286 L21.4265179,6.85714286 L21.4265179,0.857142857 C21.4265179,0.383035714 21.0434821,0 20.569375,0 Z M5.99794643,4.5 C5.40598214,4.5 4.92651786,4.02053571 4.92651786,3.42857143 C4.92651786,2.83660714 5.40598214,2.35714286 5.99794643,2.35714286 C6.58991071,2.35714286 7.069375,2.83660714 7.069375,3.42857143 C7.069375,4.02053571 6.58991071,4.5 5.99794643,4.5 Z M2.569375,23.1428571 C2.569375,23.6169643 2.95241071,24 3.42651786,24 L20.569375,24 C21.0434821,24 21.4265179,23.6169643 21.4265179,23.1428571 L21.4265179,17.1428571 L2.569375,17.1428571 L2.569375,23.1428571 Z M5.99794643,19.5 C6.58991071,19.5 7.069375,19.9794643 7.069375,20.5714286 C7.069375,21.1633929 6.58991071,21.6428571 5.99794643,21.6428571 C5.40598214,21.6428571 4.92651786,21.1633929 4.92651786,20.5714286 C4.92651786,19.9794643 5.40598214,19.5 5.99794643,19.5 Z M2.569375,15.4285714 L21.4265179,15.4285714 L21.4265179,8.57142857 L2.569375,8.57142857 L2.569375,15.4285714 Z M5.99794643,10.9285714 C6.58991071,10.9285714 7.069375,11.4080357 7.069375,12 C7.069375,12.5919643 6.58991071,13.0714286 5.99794643,13.0714286 C5.40598214,13.0714286 4.92651786,12.5919643 4.92651786,12 C4.92651786,11.4080357 5.40598214,10.9285714 5.99794643,10.9285714 Z" id="形状" fill="#0063FF"></path>
                        </g>
                    </g>
                </g>
            </g>
        </g>
    </g>
</svg>