<?xml version="1.0" encoding="UTF-8"?>
<svg width="16px" height="16px" viewBox="0 0 16 16" version="1.1" xmlns="http://www.w3.org/2000/svg" xmlns:xlink="http://www.w3.org/1999/xlink">
    <g id="CDN" stroke="none" stroke-width="1" fill="none" fill-rule="evenodd">
        <g id="域名管理-–-域名详情-基础配置" transform="translate(-930.000000, -436.000000)" fill-rule="nonzero">
            <g id="组-168" transform="translate(220.000000, 194.000000)">
                <g id="编组-7备份-2" transform="translate(696.000000, 120.000000)">
                    <g id="icon_编辑" transform="translate(14.000000, 122.000000)">
                        <rect id="矩形" fill="currentColor" opacity="0" x="0" y="0.00100000005" width="15.9989996" height="15.9989996"></rect>
                        <g id="edit" transform="translate(1.000000, 1.000000)" fill="currentColor">
                            <path d="M2.54975,11.2 C2.58475,11.2 2.61975,11.1965 2.65475,11.19125 L5.59825,10.675 C5.63325,10.668 5.6665,10.65225 5.691,10.626 L13.10925,3.20775 C13.1775,3.1395 13.1775,3.02925 13.10925,2.961 L10.20075,0.05075 C10.1675,0.0175 10.12375,0 10.0765,0 C10.02925,0 9.9855,0.0175 9.95225,0.05075 L2.534,7.469 C2.50775,7.49525 2.492,7.52675 2.485,7.56175 L1.96875,10.50525 C1.9355,10.6995 1.995,10.8885 2.13325,11.02675 C2.24875,11.13875 2.394,11.2 2.54975,11.2 L2.54975,11.2 Z M3.72925,8.148 L10.0765,1.8025 L11.35925,3.08525 L5.012,9.43075 L3.45625,9.7055 L3.72925,8.148 L3.72925,8.148 Z M13.9,12.67 L0.1,12.67 C0.044771525,12.67 -4.15677796e-16,12.7147715 0,12.77 L0,13.86 L0,13.86 C0,13.937 0.063,14 0.14,14 L13.86,14 C13.937,14 14,13.937 14,13.86 L14,12.77 C14,12.7147715 13.9552285,12.67 13.9,12.67 Z" id="形状"></path>
                        </g>
                    </g>
                </g>
            </g>
        </g>
    </g>
</svg>