<?xml version="1.0" encoding="UTF-8"?>
<svg width="14px" height="14px" viewBox="0 0 14 14" version="1.1" xmlns="http://www.w3.org/2000/svg" xmlns:xlink="http://www.w3.org/1999/xlink">
    <g id="CDN" stroke="none" stroke-width="1" fill="none" fill-rule="evenodd">
        <g id="域名管理-–-域名详情-缓存配置-缓存规则" transform="translate(-567.000000, -123.000000)" fill-rule="nonzero">
            <g id="我的域名/添加域名-默认状态备份-5" transform="translate(140.000000, 48.000000)">
                <g id="编组-5" transform="translate(20.000000, 62.000000)">
                    <g id="编组-9" transform="translate(360.000000, 10.000000)">
                        <g id="306问号-线性圆框备份" transform="translate(47.000000, 3.000000)">
                            <rect id="矩形" fill="currentColor" opacity="0" x="0" y="0" width="14" height="14"></rect>
                            <path d="M13,7 C13,10.3125 10.3125,13 7,13 C3.6875,13 1,10.3125 1,7 C1,3.6875 3.6875,1 7,1 C10.3125,1 13,3.6875 13,7 Z M7,0 C3.1375,0 0,3.1375 0,7 C0,10.8625 3.1375,14 7,14 C10.8625,14 14,10.8625 14,7 C14,3.1375 10.8625,0 7,0 Z M7.5,11 L6.5,11 L6.5,10 L7.5,10 L7.5,11 Z M7.5875,7.9 C7.5375,7.9375 7.5,8.025 7.5,8.1 L7.5,9.0125 L6.5,9.0125 L6.5,8.1 C6.5,7.7125 6.675,7.35 6.9625,7.1125 L7.05,7.0375 C7.925,6.3375 8.35,5.975 8.35,5.35 C8.35,4.6 7.75,4 7,4 C6.225,4 5.65,4.575 5.65,5.35 L4.65,5.35 C4.65,4.0375 5.6875,3 7,3 C8.3,3 9.35,4.05 9.35,5.35 C9.35,6.4875 8.575,7.1125 7.675,7.825 L7.5875,7.9 Z" id="形状" fill="currentColor"></path>
                        </g>
                    </g>
                </g>
            </g>
        </g>
    </g>
</svg>