<?xml version="1.0" encoding="UTF-8"?>
<svg width="16px" height="16px" viewBox="0 0 16 16" version="1.1" xmlns="http://www.w3.org/2000/svg" xmlns:xlink="http://www.w3.org/1999/xlink">
    <title>正确</title>
    <g id="官网页面" stroke="none" stroke-width="1" fill="none" fill-rule="evenodd">
        <g id="客服弹窗" transform="translate(-998.000000, -187.000000)" fill="#0FBE5B" fill-rule="nonzero">
            <g id="框架/顶栏账号下拉面板-改" transform="translate(969.000000, 60.000000)">
                <g id="编组-7" transform="translate(29.000000, 125.000000)">
                    <g id="正确" transform="translate(0.000000, 2.000000)">
                        <rect id="矩形" opacity="0" x="0" y="0" width="15.9983383" height="15.9983383"></rect>
                        <path d="M7.98823281,14.9812565 C6.1368626,14.9812565 4.38391967,14.2641435 3.05280792,12.9330317 C1.43891305,11.3191368 0.72961172,9.08655623 1.10301044,6.80866782 C1.59514682,3.81054172 4.04957939,1.4451624 7.07582758,1.05770264 C9.48182768,0.745235097 11.84252,1.67326371 13.382985,3.53088327 C13.7548214,3.97771186 13.743885,4.61358331 13.3595499,5.04166385 L9.20841858,9.65524717 C8.5756718,10.3582991 7.51328214,10.4348537 6.7867951,9.82554198 L4.05426641,7.53827954 C3.80741705,7.33205096 3.77617029,6.9649016 3.98083653,6.71805224 C4.18862745,6.47276521 4.55577682,6.43995612 4.80262618,6.6461847 L7.53515487,8.93500947 C7.77731722,9.13811338 8.13196788,9.11311597 8.34288347,8.87720298 L12.4924525,4.26361966 C11.2019615,2.72627934 9.23497832,1.95604684 7.22268732,2.21227022 C4.70576124,2.53567413 2.66066115,4.50265734 2.25289101,6.99771069 C1.94042346,8.90063804 2.53254946,10.764507 3.87772224,12.1081174 C5.22289503,13.4532902 7.0852016,14.0454162 8.98812896,13.7329486 C11.4878693,13.3236162 13.5048473,11.1879005 13.7860681,8.65691336 C13.850124,8.07416138 13.8313759,7.49297175 13.7266993,6.92896783 C13.6860785,6.70867821 13.632959,6.48995093 13.5673408,6.277473 C13.4720382,5.96969246 13.6454577,5.64316388 13.9532383,5.54942361 C14.2610188,5.45412101 14.585985,5.6275405 14.6812876,5.93532103 C14.7594045,6.18998208 14.8234604,6.45401716 14.8718928,6.71805224 C14.9968799,7.39454447 15.0203149,8.0913471 14.9437604,8.78658739 C14.6016084,11.8753291 12.2299797,14.3828811 9.17717182,14.8843915 C8.7787757,14.9484474 8.38194192,14.9812565 7.98823281,14.9812565" id="路径"></path>
                    </g>
                </g>
            </g>
        </g>
    </g>
</svg>