<?xml version="1.0" encoding="UTF-8"?>
<svg width="16px" height="16px" viewBox="0 0 16 16" version="1.1" xmlns="http://www.w3.org/2000/svg" xmlns:xlink="http://www.w3.org/1999/xlink">
    <title>失败</title>
    <g id="CDN" stroke="none" stroke-width="1" fill="none" fill-rule="evenodd">
        <g id="猫云控制台设计规范" transform="translate(-134.000000, -9431.000000)" fill-rule="nonzero">
            <g id="bg备份-2" transform="translate(110.000000, 9419.000000)">
                <g id="失败" transform="translate(24.000000, 12.000000)">
                    <rect id="矩形" fill="#000000" opacity="0" x="0" y="0" width="16" height="16"></rect>
                    <path d="M8,0 C12.4182006,0 16,3.58179997 16,8 C16,9.46800007 15.6034004,10.8794005 14.8639999,12.1114005 C14.6934543,12.3955505 14.3248504,12.4876456 14.0407005,12.3171001 C13.7565494,12.1465545 13.6644554,11.7779506 13.8349998,11.4938006 C14.4684864,10.4386622 14.8021309,9.23069823 14.8,8 C14.8,4.24440003 11.7556003,1.20000003 8,1.20000003 C4.24440003,1.20000003 1.20000003,4.24440003 1.20000003,8 C1.20000003,11.7556003 4.24440003,14.8 8,14.8 C9.23052486,14.8021789 10.4383372,14.4686763 11.4934001,13.8354003 C11.6772139,13.7251125 11.9059012,13.721265 12.09332,13.8253078 C12.2807387,13.9293518 12.3984149,14.1254772 12.4020209,14.3398079 C12.4056258,14.5541385 12.2946136,14.7541126 12.1108008,14.8644005 C10.8692404,15.6095825 9.44801983,16.0021915 8,16 C3.58179997,16 0,12.4182006 0,8 C0,3.58179997 3.58179997,0 8,0 Z M10.3555897,5.20076547 C10.571506,5.25798838 10.7401416,5.42662375 10.7973643,5.64254022 C10.8545876,5.85845665 10.7916051,6.08847615 10.6323687,6.24512324 C10.6323687,6.24512324 9.88921593,6.98827607 9.36900901,7.50848305 L8.98028295,7.89720914 C8.91300345,7.96448866 8.87342726,8.00406484 8.87342726,8.00406484 C8.87342726,8.00406484 8.91300345,8.04364103 8.98028295,8.11092055 L9.36900901,8.49964664 C9.40902492,8.53966256 9.45036005,8.58099769 9.49257464,8.62321229 L9.88437884,9.01501653 C9.97144644,9.10208414 10.0567551,9.18739281 10.1367869,9.26742465 L10.525513,9.65615074 C10.5927925,9.72343026 10.6323687,9.76300644 10.6323687,9.76300644 C10.7916051,9.91965338 10.8545876,10.1496729 10.7973643,10.3655894 C10.7401416,10.5815056 10.571506,10.7501413 10.3555897,10.8073639 C10.1396732,10.8645872 9.9096537,10.8016047 9.75300675,10.6423683 C9.75300675,10.6423683 9.71343057,10.6027921 9.64615104,10.5355126 L9.25742492,10.1467866 C9.17739308,10.0667548 9.0920844,9.98144611 9.00501679,9.89437852 L8.61321252,9.50257435 C8.57099792,9.46035976 8.52966279,9.41902464 8.48964686,9.37900872 L8.10092074,8.9902827 C8.03364122,8.92300319 7.99406503,8.88342701 7.99406503,8.88342701 C7.99406503,8.88342701 7.95448885,8.92300319 7.88720933,8.9902827 L7.49848321,9.37900872 C6.97827619,9.89921561 6.23512332,10.6423683 6.23512332,10.6423683 C6.07847621,10.8016047 5.84845669,10.8645872 5.63254025,10.8073639 C5.41662376,10.7501413 5.24798839,10.5815056 5.19076547,10.3655894 C5.13354255,10.1496729 5.19652506,9.91965338 5.35576099,9.76300644 L5.8513428,9.26742465 C5.93137465,9.18739281 6.01668332,9.10208414 6.10375093,9.01501653 L6.61912084,8.49964664 C6.65913676,8.45963072 6.69783348,8.420934 6.73477125,8.38399623 L7.00784694,8.11092055 C7.07512646,8.04364103 7.11470265,8.00406484 7.11470265,8.00406484 C7.11470265,8.00406484 7.07512646,7.96448866 7.00784694,7.89720914 L6.73477125,7.62413346 C6.32845573,7.21781795 5.70930826,6.59867051 5.46261669,6.35197895 L5.36851332,6.25787557 C5.36015834,6.2495206 5.35576099,6.24512324 5.35576099,6.24512324 C5.19652506,6.08847615 5.13354255,5.85845665 5.19076547,5.64254022 C5.24798839,5.42662375 5.41662376,5.25798838 5.63254025,5.20076547 C5.84845669,5.14354256 6.07847621,5.20652506 6.23512332,5.36576098 L6.24787564,5.3785133 L6.24787564,5.3785133 L6.34197902,5.47261667 C6.5886706,5.71930823 7.20781809,6.33845565 7.61413362,6.74477115 L7.88720933,7.01784682 C7.95448885,7.08512633 7.99406503,7.12470252 7.99406503,7.12470252 C7.99406503,7.12470252 8.03364122,7.08512633 8.10092074,7.01784682 L8.37399645,6.74477115 C8.41093422,6.70783337 8.44963094,6.66913666 8.48964686,6.62912074 L9.00501679,6.11375087 C9.0920844,6.02668326 9.17739308,5.9413746 9.25742492,5.86134276 L9.75300675,5.36576098 L9.75300675,5.36576098 C9.9096537,5.20652506 10.1396732,5.14354256 10.3555897,5.20076547 Z" id="形状" fill="#FE4D4F"></path>
                </g>
            </g>
        </g>
    </g>
</svg>