<?xml version="1.0" encoding="UTF-8"?>
<svg width="16px" height="16px" viewBox="0 0 16 16" version="1.1" xmlns="http://www.w3.org/2000/svg" xmlns:xlink="http://www.w3.org/1999/xlink">
    <title>搜索</title>
    <g id="DNS-2" stroke="none" stroke-width="1" fill="none" fill-rule="evenodd">
        <g id="DNS-解析" transform="translate(-1349.000000, -224.000000)" fill-rule="nonzero">
            <g id="编组-9" transform="translate(76.000000, 186.000000)">
                <g id="编组-4" transform="translate(40.000000, 30.000000)">
                    <g id="编组-3备份-5" transform="translate(1024.000000, 0.000000)">
                        <g id="搜索" transform="translate(209.000000, 8.000000)">
                            <rect id="矩形" fill="#000000" opacity="0" x="0" y="0" width="16" height="16"></rect>
                            <path d="M15.1693333,14.3726667 L11.9553333,11.1593333 C12.847859,10.0843339 13.3354467,8.73055251 13.3333333,7.33333333 C13.3333333,4.01962483 10.6470418,1.33333333 7.33333333,1.33333333 C4.01962483,1.33333333 1.33333333,4.01962483 1.33333333,7.33333333 C1.33333333,10.6470418 4.01962483,13.3333333 7.33333333,13.3333333 C8.73078145,13.3356027 10.0848244,12.8480057 11.16,11.9553333 L14.3733333,15.1686667 C14.5933279,15.3886574 14.9500054,15.3886574 15.17,15.1686667 C15.3875446,14.9478175 15.3872475,14.5931511 15.1693333,14.3726667 L15.1693333,14.3726667 Z M9.23,11.826 C8.63,12.08 7.99266667,12.2080016 7.33333333,12.2080016 C6.04030722,12.2090457 4.80007891,11.6952025 3.88666667,10.78 C2.9712196,9.86669721 2.45713095,8.62645536 2.4579989,7.33333333 C2.45713096,6.04021131 2.9712196,4.79996946 3.88666667,3.88666667 C4.80007891,2.97146412 6.04030722,2.45762098 7.33333333,2.45866508 C8.62635944,2.45762098 9.86658776,2.97146412 10.78,3.88666667 C11.6954471,4.79996946 12.2095357,6.04021131 12.2086683,7.33333333 C12.2097124,8.62635944 11.6958692,9.86658776 10.7806667,10.78 C10.3365409,11.2258077 9.80984922,11.5808604 9.23,11.8253333 L9.23,11.826 Z" id="形状" stroke="#798CA7" stroke-width="0.3" fill="#798CA7"></path>
                        </g>
                    </g>
                </g>
            </g>
        </g>
    </g>
</svg>