<?xml version="1.0" encoding="UTF-8"?>
<svg width="16px" height="16px" viewBox="0 0 16 16" version="1.1" xmlns="http://www.w3.org/2000/svg" xmlns:xlink="http://www.w3.org/1999/xlink">
    <title>编组 6备份</title>
    <g id="CDN" stroke="none" stroke-width="1" fill="none" fill-rule="evenodd">
        <g id="猫云控制台设计规范" transform="translate(-134.000000, -9483.000000)" fill-rule="nonzero">
            <g id="bg备份-3" transform="translate(110.000000, 9471.000000)">
                <g id="编组-6备份" transform="translate(24.000000, 12.000000)">
                    <rect id="矩形" fill="#FA8C15" opacity="0" x="2.03726813e-10" y="4.65661287e-10" width="16" height="16"></rect>
                    <path d="M8,0 C12.4178576,0 16,3.58214297 16,8 C16,12.4178576 12.4178576,16 8,16 C3.58214297,16 0,12.4178576 0,8 C0,3.58214297 3.58214297,0 8,0 Z M8,1.35714286 C4.33214297,1.35714286 1.35714286,4.33214297 1.35714286,8 C1.35714286,11.6678576 4.33214297,14.6428571 8,14.6428571 C11.6678576,14.6428571 14.6428571,11.6678576 14.6428571,8 C14.6428571,4.33214297 11.6678576,1.35714286 8,1.35714286 Z M8.42857143,6.85714286 C8.50714288,6.85714286 8.57142857,6.92142857 8.57142857,7 L8.57142857,7 L8.57142857,11.8571429 C8.57142857,11.9357142 8.50714288,12 8.42857143,12 L8.42857143,12 L7.57142857,12 C7.49285714,12 7.42857143,11.9357142 7.42857143,11.8571429 L7.42857143,11.8571429 L7.42857143,7 C7.42857143,6.92142857 7.49285714,6.85714286 7.57142857,6.85714286 L7.57142857,6.85714286 Z M8,4 C8.4733869,4 8.85714286,4.38375592 8.85714286,4.85714286 C8.85714286,5.33052976 8.4733869,5.71428571 8,5.71428571 C7.52661307,5.71428571 7.14285714,5.33052976 7.14285714,4.85714286 C7.14285714,4.38375592 7.52661307,4 8,4 Z" id="形状结合" fill="#F7B500" transform="translate(8.000000, 8.000000) rotate(-180.000000) translate(-8.000000, -8.000000) "></path>
                </g>
            </g>
        </g>
    </g>
</svg>