<?xml version="1.0" encoding="UTF-8"?>
<svg width="14px" height="14px" viewBox="0 0 14 14" version="1.1" xmlns="http://www.w3.org/2000/svg" xmlns:xlink="http://www.w3.org/1999/xlink">
    <g id="CDN" stroke="none" stroke-width="1" fill="none" fill-rule="evenodd">
        <g id="域名管理-–-静态加速备份" transform="translate(-1322.000000, -282.000000)" fill-rule="nonzero">
            <g id="组-168" transform="translate(220.000000, 194.000000)">
                <g id="组-93备份" transform="translate(1092.000000, 78.000000)">
                    <g id="icon_刷新" transform="translate(10.000000, 10.000000)">
                        <rect id="矩形" fill="currentColor" opacity="0" x="0" y="0" width="14" height="14"></rect>
                        <g id="编组-13" transform="translate(0.000000, 0.920000)" fill="currentColor">
                            <path d="M13.4367816,7.17826764 C13.7219171,7.17826764 13.9575641,7.38830664 13.9948585,7.66081802 L14,7.73657734 L14,11.7245038 C14,12.0071542 13.7881143,12.2407474 13.513207,12.2777168 L13.4367816,12.2828135 L0.563218382,12.2828135 C0.278082869,12.2828135 0.0424359061,12.0727745 0.00514151998,11.8002631 L0,11.7245038 L0,7.73834987 C0,7.43000393 0.252161459,7.18004017 0.563218382,7.18004017 C0.848353895,7.18004017 1.08400086,7.39007917 1.12129524,7.66259055 L1.12643676,7.73834987 L1.12563218,11.1661941 L12.8735632,11.1661941 L12.8735632,7.73657734 C12.8735632,7.4539269 13.0854489,7.2203337 13.3603562,7.18336435 L13.4367816,7.17826764 Z" id="路径-2495"></path>
                            <path d="M9.82013531,5.45949147 C10.0400858,5.24145797 10.3966959,5.24145797 10.6166464,5.45949147 C10.8365968,5.67752497 10.8365968,6.03102712 10.6166464,6.24906062 L7.39825557,9.43940179 C7.17830511,9.65743529 6.82169496,9.65743529 6.6017445,9.43940179 L3.38335369,6.24906062 C3.16340323,6.03102712 3.16340323,5.67752497 3.38335369,5.45949147 C3.60330415,5.24145797 3.95991431,5.24145797 4.17986477,5.45949147 L7,8.25500778 L9.82013531,5.45949147 Z" id="路径-2496"></path>
                            <path d="M6.99713942,0 C7.28227493,0 7.51792189,0.210038997 7.55521628,0.482550377 L7.5603578,0.558309696 L7.5603578,8.28301335 C7.5603578,8.59135928 7.30819634,8.84132305 6.99713942,8.84132305 C6.7120039,8.84132305 6.47635694,8.63128405 6.43906255,8.35877267 L6.43392103,8.28301335 L6.43392103,0.558309696 C6.43392103,0.249963765 6.68608249,0 6.99713942,0 Z" id="路径-2497"></path>
                        </g>
                    </g>
                </g>
            </g>
        </g>
    </g>
</svg>