<?xml version="1.0" encoding="UTF-8"?>
<svg width="16px" height="16px" viewBox="0 0 16 16" version="1.1" xmlns="http://www.w3.org/2000/svg" xmlns:xlink="http://www.w3.org/1999/xlink">
    <g id="CDN" stroke="none" stroke-width="1" fill="none" fill-rule="evenodd">
        <g id="购买资源包-订单确认备份" transform="translate(-80.000000, -315.000000)" fill-rule="nonzero">
            <g id="编组-8" transform="translate(60.000000, 293.000000)">
                <g id="返回" transform="translate(28.000000, 30.000000) rotate(-90.000000) translate(-28.000000, -30.000000) translate(20.000000, 22.000000)">
                    <rect id="矩形" fill="currentColor" opacity="0" x="0" y="0" width="16" height="16"></rect>
                    <path d="M11.6302696,15.8927644 C11.80416,15.8927644 11.97824,15.8263941 12.1109807,15.6936533 C12.3764622,15.4281719 12.3764622,14.9977126 12.1109807,14.7324207 L5.39107556,8.01251556 L12.1109807,1.2928 C12.3764622,1.02750815 12.3764622,0.596859259 12.1109807,0.331567407 C11.8454993,0.0660859259 11.4152296,0.0660859259 11.1497481,0.331567407 L3.94913185,7.53199407 C3.6836915,7.79750381 3.6836915,8.22790656 3.94913185,8.4934163 L11.1497481,15.6936533 C11.2822993,15.8263941 11.4563793,15.8927644 11.6302696,15.8927644 L11.6302696,15.8927644 Z" id="路径" fill="currentColor"></path>
                </g>
            </g>
        </g>
    </g>
</svg>