<?xml version="1.0" encoding="UTF-8"?>
<svg width="14px" height="14px" viewBox="0 0 14 14" version="1.1" xmlns="http://www.w3.org/2000/svg" xmlns:xlink="http://www.w3.org/1999/xlink">
    <g id="CDN" stroke-width="1">
        <g id="域名管理-–-静态加速备份" transform="translate(-1268.000000, -282.000000)" fill-rule="nonzero">
            <g id="组-168" transform="translate(220.000000, 194.000000)">
                <g id="组-93备份-2" transform="translate(1038.000000, 78.000000)">
                    <g id="icon_刷新" transform="translate(10.000000, 10.000000)">
                        <rect id="矩形" fill="currentColor" opacity="0" x="0" y="0" width="14" height="14"></rect>
                        <g id="编组-12" transform="translate(0.000000, 0.280000)" fill="currentColor">
                            <path d="M8.21951816,0.306503797 C7.98738769,0.760248198 7.52000759,1.05172817 7,1.05172817 C6.47999194,1.05172817 6.01261234,0.760248461 5.78048133,0.306503554 C5.65890227,0.0688537765 5.38651643,-0.0507199068 5.12870659,0.0203832967 C4.04610303,0.318962215 3.05513354,0.874774851 2.23447353,1.63533257 C2.05219974,1.80425726 2.00264607,2.07246305 2.11257487,2.29510066 C2.2045776,2.48143282 2.25287372,2.68539314 2.25287372,2.89759434 C2.25287372,3.61152689 1.70333178,4.1972459 1.00309126,4.25692288 L0.858022983,4.26193007 C0.612092079,4.26193007 0.394597014,4.42109242 0.320776559,4.65508567 C0.10889126,5.32671159 0,6.03112197 0,6.74983593 C0,7.22571971 0.0478859592,7.69618784 0.142065072,8.15599813 C0.19997679,8.43874028 0.46323804,8.63172717 0.751061977,8.6024308 C0.79508051,8.59795034 0.839721826,8.59570096 0.88505754,8.59570096 C1.64057489,8.59570096 2.25287372,9.20644219 2.25287372,9.96003707 C2.25287372,10.2867186 2.13792314,10.594361 1.93067195,10.8400808 C1.74514335,11.0600459 1.7560149,11.3842199 1.95586585,11.5913266 C2.79243982,12.4582731 3.83973003,13.098395 4.99965133,13.4428632 C5.2935306,13.5301381 5.60340753,13.3668849 5.6968165,13.0755739 C5.87657659,12.514963 6.40075326,12.1269246 7,12.1269246 C7.59924674,12.1269246 8.12342341,12.514963 8.3031835,13.0755739 C8.39659246,13.3668848 8.70646936,13.5301381 9.00034861,13.4428632 C10.1602703,13.098395 11.2075603,12.4582731 12.0441336,11.5913264 C12.2441513,11.3840467 12.2548519,11.0595423 12.0689219,10.8396006 C11.8618396,10.5946374 11.7471263,10.2873132 11.7471263,9.96003707 C11.7471263,9.20644245 12.3594256,8.59570096 13.1149428,8.59570096 C13.1602783,8.59570096 13.204919,8.59795031 13.2489396,8.6024309 C13.5367634,8.63172673 13.8000242,8.43873964 13.8579356,8.15599765 C13.9521143,7.69618748 14,7.22571952 14,6.74983593 C14,6.03112264 13.8911088,5.32671239 13.6792237,4.65508598 C13.6054034,4.42109257 13.3879082,4.26193007 13.1419772,4.26193007 L13.1149428,4.26193007 C12.3594251,4.26193007 11.7471263,3.65118955 11.7471263,2.89759434 C11.7471263,2.6853936 11.7954226,2.48143349 11.8874256,2.29510127 C11.9973549,2.07246337 11.9478011,1.804257 11.7655268,1.63533218 C10.9448649,0.874774275 9.95389591,0.318962027 8.87129302,0.0203832967 C8.61348309,-0.0507199341 8.34109716,0.0688538695 8.21951816,0.306503797 Z M8.9591954,1.22636312 L9.05805306,1.26096986 C9.61644232,1.46927569 10.1391672,1.7618439 10.6092057,2.1274491 L10.7172414,2.21510518 L10.6858945,2.33093944 C10.6428089,2.51500982 10.6206895,2.70481289 10.6206895,2.89759434 L10.6246376,3.03878163 C10.6901471,4.20701998 11.5635624,5.1599084 12.7037931,5.35147207 L12.7356599,5.4811733 C12.8269755,5.89367622 12.8735632,6.31833499 12.8735632,6.74983593 L12.8660442,7.04896258 C12.8610386,7.14831225 12.8535412,7.2472813 12.8435734,7.34580548 L12.8252874,7.48786118 L12.696729,7.50694318 C11.518236,7.70535402 10.6206895,8.72806256 10.6206895,9.96003707 L10.6269528,10.1374565 C10.6477579,10.4312883 10.7200303,10.7150687 10.8383181,10.9780704 L10.9087356,11.1210067 L10.8670219,11.1599672 C10.4333545,11.5386752 9.94661701,11.8519374 9.4222171,12.0890336 L9.1370115,12.20766 L9.06101771,12.0894861 C8.60679361,11.4256572 7.84441768,11.0033541 7,11.0033541 L6.85188278,11.0077011 C6.0669573,11.0538726 5.36648732,11.464706 4.93898229,12.0894861 L4.86218391,12.20766 L4.84305016,12.2011849 C4.21710308,11.9545401 3.63892327,11.6017931 3.13297751,11.1599671 L3.09045976,11.1210067 L3.16170404,10.9774174 C3.30357278,10.6618527 3.37931048,10.3165504 3.37931048,9.96003707 L3.37536237,9.81884984 C3.30985288,8.65061192 2.43643783,7.69772281 1.30327147,7.50694318 L1.17390804,7.48786118 L1.15642675,7.34580525 C1.13649107,7.14875697 1.12643676,6.94992921 1.12643676,6.74983593 L1.13201241,6.49179874 C1.14686096,6.1489573 1.1912876,5.81117522 1.26434015,5.48117311 L1.29540229,5.35147207 C2.4817648,5.15227725 3.37931048,4.12956967 3.37931048,2.89759434 L3.3719801,2.70590777 C3.36223473,2.5789146 3.3428294,2.45365321 3.31410576,2.33093969 L3.28195402,2.21510518 L3.39079449,2.12744901 C3.86083211,1.76184406 4.38355691,1.46927583 4.94194634,1.26096993 L5.04,1.22636312 L5.14257612,1.34847756 C5.60637685,1.86433337 6.27547706,2.17529868 7,2.17529868 C7.72452263,2.17529868 8.39362319,1.86433316 8.85742384,1.3484773 L8.9591954,1.22636312 Z" id="路径-2493"></path>
                            <path d="M7,3.94090946 C5.44471313,3.94090946 4.1839079,5.19850654 4.1839079,6.74983593 C4.1839079,8.3011648 5.44471337,9.55876241 7,9.55876241 C8.5552861,9.55876241 9.8160921,8.30116456 9.8160921,6.74983593 C9.8160921,5.19850677 8.55528633,3.94090946 7,3.94090946 Z M7,5.06447997 C7.93317255,5.06447997 8.68965534,5.81903769 8.68965534,6.74983593 C8.68965534,7.6806337 7.93317225,8.43519189 7,8.43519189 C6.06682727,8.43519189 5.31034466,7.680634 5.31034466,6.74983593 C5.31034466,5.8190374 6.06682698,5.06447997 7,5.06447997 Z" id="路径-2494"></path>
                        </g>
                    </g>
                </g>
            </g>
        </g>
    </g>
</svg>