<?xml version="1.0" encoding="UTF-8"?>
<svg width="14px" height="14px" viewBox="0 0 14 14" version="1.1" xmlns="http://www.w3.org/2000/svg" xmlns:xlink="http://www.w3.org/1999/xlink">
    <g id="CDN" stroke="none" stroke-width="1" fill="none" fill-rule="evenodd" stroke-linejoin="round">
        <g id="域名管理-–-静态加速" transform="translate(-417.000000, -459.000000)" fill-rule="nonzero" stroke="currentColor">
            <g id="组-168" transform="translate(220.000000, 194.000000)">
                <g id="组-347" transform="translate(20.000000, 132.000000)">
                    <g id="域名" transform="translate(56.000000, 15.000000)">
                        <g id="组-67" transform="translate(0.000000, 115.000000)">
                            <g id="icon_复制备份-2" transform="translate(121.000000, 3.000000)">
                                <g id="组-5911" transform="translate(1.000000, 1.000000)">
                                    <path d="M2.55438733,2.37289788 L2.55438733,0.898026856 C2.55438733,0.40206061 2.95644796,0 3.45241422,0 L11.2353129,0 C11.7312792,0 12.1333406,0.40206061 12.1333406,0.898026856 L12.1333406,8.68092517 C12.1333406,9.17689144 11.7312792,9.57895285 11.2353129,9.57895285 L9.74380707,9.57895285" id="路径" stroke-linecap="round"></path>
                                    <path d="M8.68092554,2.55438722 L0.898026894,2.55438722 C0.402060627,2.55438722 0,2.95644783 0,3.45241408 L0,11.2353124 C0,11.7312787 0.402060627,12.1333401 0.898026894,12.1333401 L8.68092554,12.1333401 C9.17689183,12.1333401 9.57895326,11.7312787 9.57895326,11.2353124 L9.57895326,3.45241408 C9.57895326,2.95644783 9.17689183,2.55438722 8.68092554,2.55438722 Z" id="路径"></path>
                                </g>
                            </g>
                        </g>
                    </g>
                </g>
            </g>
        </g>
    </g>
</svg>