<?xml version="1.0" encoding="UTF-8"?>
<svg width="20px" height="20px" viewBox="0 0 20 20" version="1.1" xmlns="http://www.w3.org/2000/svg" xmlns:xlink="http://www.w3.org/1999/xlink">
    <g id="Symbols" stroke="none" stroke-width="1" fill="none" fill-rule="evenodd">
        <g id="框架/顶部导航" transform="translate(-1307.000000, -20.000000)" fill-rule="nonzero">
            <g id="icon_顶部导航-客服" transform="translate(1306.000000, 19.000000)">
                <rect id="底部" fill-opacity="0" fill="#D8D8D8" x="0" y="0" width="22" height="22"></rect>
                <path d="M9.30663106,19.3100668 C9.29646169,18.5877491 9.87093047,17.9925065 10.5931527,17.9770195 L12.5573233,17.9436418 C12.81095,17.9398164 13.0601773,18.0101214 13.274417,18.1459258 C15.0216162,17.6254523 16.4987565,16.447438 17.3949258,14.8598351 C17.1193014,14.5130723 16.9695339,14.0830264 16.970131,13.6400669 L16.970131,10.8890147 C16.9701599,10.0778512 17.4688248,9.35014441 18.2252976,9.05734015 C17.7015928,5.56232348 14.6618202,3.0012425 11.1286233,3.07822392 C7.59542641,3.15520559 4.67008754,5.84625521 4.29910846,9.36076519 C4.76010429,9.73324995 5.02781065,10.2943181 5.02732813,10.886992 L5.02732813,13.6461359 C5.05234934,14.7480887 4.16590057,15.6548934 3.06366406,15.6548934 C1.96142731,15.6548924 1.07497858,14.7480878 1.1,13.6461359 L1.1,10.8890147 C1.10057335,9.95905865 1.75323266,9.15695429 2.66364939,8.96732389 C3.2380767,4.59855762 6.99068486,1.35076464 11.3966673,1.40910509 C15.8026507,1.46744554 19.4679501,4.81346002 19.9265008,9.19590425 C20.5291994,9.54771556 20.8996817,10.1931713 20.899483,10.8910374 L20.899483,13.6461359 C20.899483,14.7309176 20.0200941,15.6103056 18.9353134,15.6103065 L18.8938449,15.6103065 C17.7969339,17.5951496 15.9693269,19.0740695 13.7993411,19.732838 C13.6048662,20.2262075 13.1330412,20.5544497 12.6028362,20.5652335 L10.6396774,20.5996221 L10.6154032,20.5996221 C9.9013595,20.5964583 9.32035581,20.0239852 9.30663106,19.3100668 Z" id="形状结合" fill="#555555"></path>
            </g>
        </g>
    </g>
</svg>