<svg xmlns="http://www.w3.org/2000/svg" width="16.002" height="16.001" viewBox="0 0 16.002 16.001">
  <path id="排除_2" data-name="排除 2" d="M17610-10742a8.011,8.011,0,0,1-8-8,8.009,8.009,0,0,1,8-8,8.009,8.009,0,0,1,8,8A8.011,8.011,0,0,1,17610-10742Zm0-14.666a6.67,6.67,0,0,0-6.664,6.663,6.673,6.673,0,0,0,6.664,6.668,6.674,6.674,0,0,0,6.666-6.668A6.672,6.672,0,0,0,17610-10756.666Zm0,11.332a.667.667,0,0,1-.664-.667v-4.665a.667.667,0,0,1,.664-.668.668.668,0,0,1,.666.668v4.665A.66.66,0,0,1,17610-10745.334Zm-.066-7.468a.935.935,0,0,1-.934-.933.935.935,0,0,1,.934-.933.933.933,0,0,1,.932.933A.933.933,0,0,1,17609.934-10752.8Z" transform="translate(-17602 10758.001)" fill="currentColor"/>
</svg>
