<?xml version="1.0" encoding="UTF-8"?>
<svg width="14px" height="14px" viewBox="0 0 14 14" version="1.1" xmlns="http://www.w3.org/2000/svg" xmlns:xlink="http://www.w3.org/1999/xlink">
    <g id="CDN" stroke="none" stroke-width="1" fill="none" fill-rule="evenodd">
        <g id="域名管理-–-静态加速备份" transform="translate(-1356.000000, -399.000000)" fill-rule="nonzero">
            <g id="组-168" transform="translate(220.000000, 194.000000)">
                <g id="组-347" transform="translate(20.000000, 132.000000)">
                    <g id="操作" transform="translate(967.000000, 0.000000)">
                        <g id="组-64" transform="translate(20.000000, 70.000000)">
                            <g id="编组-11" transform="translate(96.000000, 0.000000)">
                                <g id="icon_下拉箭头" transform="translate(33.000000, 3.000000)">
                                    <rect id="矩形" fill="#000000" opacity="0" x="0" y="0" width="14" height="14"></rect>
                                    <path d="M11.2999997,4.95 C11.1511931,4.81180316 10.9528174,4.73966676 10.7499995,4.75 L3.24999988,4.8 C3.04718184,4.78966684 2.84880686,4.8618032 2.69999987,5 C2.39999983,5.28571433 2.39999983,5.76428568 2.69999987,6.04999995 L6.44999981,9.80000019 C6.5,9.85000038 6.5999999,9.9000001 6.64999962,9.95000029 L6.69999981,10.0000005 C6.97374535,10.1034203 7.28231382,10.0455632 7.5,9.85000038 L11.2499995,6.05000043 C11.5631089,5.7579782 11.5853248,5.26922399 11.2999997,4.95 Z" id="路径" fill="#999999"></path>
                                </g>
                            </g>
                        </g>
                    </g>
                </g>
            </g>
        </g>
    </g>
</svg>