<?xml version="1.0" encoding="UTF-8"?>
<svg width="30px" height="30px" viewBox="0 0 30 30" version="1.1" xmlns="http://www.w3.org/2000/svg" xmlns:xlink="http://www.w3.org/1999/xlink">
    <g id="CDN" stroke="none" stroke-width="1" fill="none" fill-rule="evenodd">
        <g id="域名管理-–-域名详情-基础配置2" transform="translate(-1390.000000, -15.000000)">
            <g id="编组备份-3" transform="translate(1390.000000, 15.000000)">
                <path d="M0,15 C0,23.28435 6.71565,30 15,30 C23.28435,30 30,23.28435 30,15 C30,6.71565 23.28435,0 15,0 C6.71565,0 0,6.71565 0,15" id="Fill-1" fill="#DFEDFF"></path>
                <path d="M5.8659,20.138235 C5.8659,22.975935 9.95535,25.276185 15,25.276185 C20.04465,25.276185 24.13425,22.975935 24.13425,20.138235 C24.13485,17.300685 20.04615,14.999985 15.0015,14.999535 C9.9567,14.999085 5.86665,17.299035 5.8659,20.136585 L5.8659,20.138235 Z" id="Fill-3" fill="#A4C8FF"></path>
                <path d="M9.291135,10.43328 C9.290835,13.58628 11.846385,16.14243 14.999235,16.14288 C18.152235,16.14318 20.708535,13.58763 20.708835,10.43463 L20.708835,10.43328 C20.709285,7.28028 18.153585,4.72413 15.000735,4.72383 C11.847735,4.72338 9.291585,7.27893 9.291135,10.43193 L9.291135,10.43328 Z" id="Fill-5" fill="#0063FF"></path>
            </g>
        </g>
    </g>
</svg>