<?xml version="1.0" encoding="UTF-8"?>
<svg width="22px" height="22px" viewBox="0 0 22 22" version="1.1" xmlns="http://www.w3.org/2000/svg" xmlns:xlink="http://www.w3.org/1999/xlink">
    <title>amscloudapp 小程序云应用</title>
    <g id="页面-1" stroke="none" stroke-width="1" fill="none" fill-rule="evenodd">
        <g id="子用户" transform="translate(-380.000000, -826.000000)" fill="#0063FF" fill-rule="nonzero">
            <g id="编组-18" transform="translate(380.000000, 825.000000)">
                <g id="amscloudapp-小程序云应用" transform="translate(0.000000, 1.000000)">
                    <rect id="矩形" opacity="0" x="0" y="0" width="22" height="22"></rect>
                    <path d="M14.487,13.607 C14.575,13.651 14.619,13.651 14.718,13.651 L16.28,13.651 C16.643,13.651 16.918,13.376 16.918,13.013 L16.918,11.451 C16.918,11.088 16.643,10.813 16.28,10.813 L14.718,10.813 C14.355,10.813 14.08,11.088 14.08,11.451 L14.08,12.969 L11.418,15.576 L10.263,15.576 C10.175,15.576 10.131,15.576 10.032,15.62 L8.151,13.882 L8.151,12.87 C8.151,12.595 7.964,12.408 7.689,12.408 L6.6,12.408 C6.325,12.408 6.138,12.595 6.138,12.87 L6.138,13.97 C6.138,14.245 6.325,14.432 6.6,14.432 L7.656,14.432 L9.724,16.357 L9.724,17.413 C9.724,17.688 9.955,17.963 10.274,17.963 L11.55,17.963 C11.825,17.963 12.1,17.732 12.1,17.413 L12.1,16.126 C12.1,16.082 12.1,16.038 12.056,15.994 L14.487,13.607 L14.487,13.607 Z" id="路径"></path>
                    <path d="M16.412,7.656 C15.224,4.444 11.649,2.838 8.437,4.037 C6.281,4.862 4.774,6.787 4.499,9.075 C2.024,9.625 0.462,12.1 1.067,14.575 C1.507,16.632 3.388,18.15 5.5,18.15 L6.963,18.15 C7.326,18.15 7.656,17.831 7.656,17.468 C7.656,17.105 7.337,16.786 6.963,16.786 L5.5,16.786 C3.718,16.874 2.2,15.554 2.112,13.761 C2.024,11.968 3.355,10.461 5.137,10.373 L5.269,10.373 C5.588,10.373 5.819,10.098 5.863,9.779 L5.863,9.735 C5.962,7.062 8.162,4.95 10.857,5.038 C12.925,5.082 14.751,6.501 15.345,8.525 L15.345,8.569 C15.389,8.657 15.433,8.8 15.532,8.844 C15.62,8.932 15.763,8.976 15.895,8.976 L15.939,8.976 C18.095,8.976 19.833,10.714 19.833,12.87 C19.833,14.883 18.271,16.577 16.258,16.72 L15.07,16.72 C14.707,16.72 14.388,16.995 14.333,17.358 C14.289,17.721 14.608,18.04 14.971,18.095 L16.115,18.095 C18.997,17.952 21.252,15.532 21.109,12.639 C20.988,10.043 18.975,7.931 16.412,7.656 Z" id="路径"></path>
                </g>
            </g>
        </g>
    </g>
</svg>