<?xml version="1.0" encoding="UTF-8"?>
<svg width="16px" height="16px" viewBox="0 0 16 16" version="1.1" xmlns="http://www.w3.org/2000/svg" xmlns:xlink="http://www.w3.org/1999/xlink">
    <title>选择</title>
    <g id="CDN" stroke="none" stroke-width="1" fill="none" fill-rule="evenodd">
        <g id="猫云控制台设计规范" transform="translate(-274.000000, -3156.000000)" fill-rule="nonzero">
            <g id="编组-93" transform="translate(110.000000, 2990.000000)">
                <g id="编组-73" transform="translate(136.000000, 164.000000)">
                    <g id="选择" transform="translate(28.000000, 2.000000)">
                        <rect id="矩形备份-5" fill="#0063FF" x="0" y="0" width="16" height="16"></rect>
                        <g transform="translate(2.000000, 2.000000)">
                            <rect id="矩形" fill="#000000" opacity="0" x="0" y="0" width="12.4444444" height="12.4444444"></rect>
                            <path d="M5.44094229,10.4856978 C5.44094229,10.4856978 1.54422945,6.42654618 1.54422945,6.42654618 C1.54422945,6.42654618 2.5433387,5.60619214 2.5433387,5.60619214 C2.5433387,5.60619214 4.79661995,7.41569395 4.79661995,7.41569395 C5.72044171,6.2922496 7.77041854,4.06073138 10.5990273,2.28663463 C10.5990273,2.28663463 10.8368038,2.8492896 10.8368038,2.8492896 C8.24051237,5.29039182 6.11521043,8.72883741 5.44094229,10.4856978 C5.44094229,10.4856978 5.44094229,10.4856978 5.44094229,10.4856978 C5.44094229,10.4856978 5.44094229,10.4856978 5.44094229,10.4856978 C5.44094229,10.4856978 5.44094229,10.4856978 5.44094229,10.4856978 Z" id="路径" fill="#FFFFFF"></path>
                        </g>
                    </g>
                </g>
            </g>
        </g>
    </g>
</svg>