<?xml version="1.0" encoding="UTF-8"?>
<svg width="16px" height="16px" viewBox="0 0 16 16" version="1.1" xmlns="http://www.w3.org/2000/svg" xmlns:xlink="http://www.w3.org/1999/xlink">
    <title>编组</title>
    <g id="汇总" stroke="none" stroke-width="1" fill="none" fill-rule="evenodd">
        <g id="DNS-解析-我的域名-首页加切换语言-改" transform="translate(-218.000000, -22.000000)">
            <g id="组-5890" transform="translate(198.000000, 0.000000)">
                <g id="编组" transform="translate(20.000000, 22.000012)">
                    <polygon id="Clip-4" points="0 0 16 0 16 16 0 16"></polygon>
                    <path d="M7.9977192,0.999998546 C8.3718663,0.998633338 8.73345014,1.13462848 9.01406047,1.38213412 L9.01406047,1.38213412 L14.3634471,6.13536132 C14.6903673,6.42642576 14.8767989,6.84385655 14.8754309,7.28164535 L14.8754309,7.28164535 L14.8754309,13.4715791 C14.8754309,14.3157027 14.1911376,14.9999884 13.3470141,14.9999884 L13.3470141,14.9999884 L2.6484243,14.9999884 C1.80430075,14.9999884 1.12000748,14.3157027 1.12000748,13.4715791 L1.12000748,13.4715791 L1.12000748,7.28164535 C1.11863949,6.84385655 1.30507113,6.42642576 1.63199133,6.13536132 L1.63199133,6.13536132 L6.98137793,1.38213412 C7.26198826,1.13462848 7.62357209,0.998633338 7.9977192,0.999998546 Z M7.9977192,2.14627405 C7.90537456,2.14537588 7.815781,2.17793035 7.74553671,2.23799563 L7.74553671,2.23799563 L2.39615012,6.99122283 C2.31435129,7.06577714 2.26730779,7.17096016 2.26629906,7.28164535 L2.26629906,7.28164535 L2.26629906,13.4715791 C2.26629906,13.6825871 2.43741634,13.8537043 2.6484243,13.8537043 L2.6484243,13.8537043 L13.3470141,13.8537043 C13.5581138,13.8537043 13.7291393,13.6825871 13.7291393,13.4715791 L13.7291393,13.4715791 L13.7291393,7.28164535 C13.7281306,7.17096016 13.6810871,7.06577714 13.5991966,6.99122283 L13.5991966,6.99122283 L8.24990168,2.23799563 C8.1796574,2.17793035 8.09015554,2.14537588 7.9977192,2.14627405 Z M7.9977192,8.12223835 C8.41982683,8.12223835 8.76187798,8.46438121 8.76187798,8.88639714 L8.76187798,8.88639714 L8.76187798,12.7073745 L7.23356041,12.7073745 L7.23356041,8.88639714 C7.23356041,8.46438121 7.57561157,8.12223835 7.9977192,8.12223835 Z" id="形状结合" fill="#000000"></path>
                </g>
            </g>
        </g>
    </g>
</svg>