<?xml version="1.0" encoding="UTF-8"?>
<svg width="23px" height="21px" viewBox="0 0 23 21" version="1.1" xmlns="http://www.w3.org/2000/svg" xmlns:xlink="http://www.w3.org/1999/xlink">
    <g id="主账号" stroke="none" stroke-width="1" fill="none" fill-rule="evenodd">
        <g id="访问管理---用户列表" transform="translate(-1029.000000, -392.000000)" fill-rule="nonzero">
            <g id="编组-21" transform="translate(243.000000, 323.000000)">
                <g id="编组-19" transform="translate(786.000000, 69.000000)">
                    <g id="tablet-outlined" fill="#222222">
                        <rect id="矩形" opacity="0" x="0" y="0" width="18" height="18"></rect>
                        <path d="M14.0625,1.125 L3.9375,1.125 C3.31699219,1.125 2.8125,1.62949219 2.8125,2.25 L2.8125,15.75 C2.8125,16.3705078 3.31699219,16.875 3.9375,16.875 L14.0625,16.875 C14.6830078,16.875 15.1875,16.3705078 15.1875,15.75 L15.1875,2.25 C15.1875,1.62949219 14.6830078,1.125 14.0625,1.125 Z M13.921875,15.609375 L4.078125,15.609375 L4.078125,2.390625 L13.921875,2.390625 L13.921875,15.609375 Z M8.296875,13.78125 C8.296875,14.1695752 8.61167479,14.484375 9,14.484375 C9.38832521,14.484375 9.703125,14.1695752 9.703125,13.78125 C9.703125,13.3929248 9.38832521,13.078125 9,13.078125 C8.61167479,13.078125 8.296875,13.3929248 8.296875,13.78125 Z" id="形状"></path>
                    </g>
                    <g id="check-circle-filled" transform="translate(10.000000, 8.000000)">
                        <rect id="矩形" fill="#000000" opacity="0" x="0" y="0" width="12" height="12"></rect>
                        <path d="M6,0.25 C7.58766741,0.25 9.02517475,0.893653906 10.0657604,1.93423958 C11.1063461,2.97482525 11.75,4.41233259 11.75,6 C11.75,7.58766741 11.1063461,9.02517475 10.0657604,10.0657604 C9.02517475,11.1063461 7.58766741,11.75 6,11.75 C4.41233259,11.75 2.97482525,11.1063461 1.93423958,10.0657604 C0.893653906,9.02517475 0.25,7.58766741 0.25,6 C0.25,4.41233259 0.893653906,2.97482525 1.93423958,1.93423958 C2.97482525,0.893653906 4.41233259,0.25 6,0.25 Z" id="形状" stroke="#FFFFFF" fill="#02DE6D"></path>
                        <path d="M8.26757813,4.28554688 L5.79960938,7.70742187 C5.65078125,7.91484375 5.34257813,7.91484375 5.19375,7.70742187 L3.73242188,5.68242188 C3.68789063,5.6203125 3.73242188,5.53359375 3.80859375,5.53359375 L4.35820313,5.53359375 C4.47773438,5.53359375 4.59140625,5.59101562 4.66171875,5.68945312 L5.49609375,6.84726562 L7.33828125,4.29257813 C7.40859375,4.1953125 7.52109375,4.13671875 7.64179688,4.13671875 L8.19140625,4.13671875 C8.26757813,4.13671875 8.31210938,4.2234375 8.26757813,4.28554688 Z" id="路径" fill="#FFFFFF"></path>
                    </g>
                </g>
            </g>
        </g>
    </g>
</svg>