<?xml version="1.0" encoding="UTF-8"?>
<svg width="22px" height="20px" viewBox="0 0 22 20" version="1.1" xmlns="http://www.w3.org/2000/svg" xmlns:xlink="http://www.w3.org/1999/xlink">
    <g id="主账号" stroke="none" stroke-width="1" fill="none" fill-rule="evenodd">
        <g id="访问管理---用户列表" transform="translate(-1071.000000, -392.000000)" fill-rule="nonzero">
            <g id="编组-21" transform="translate(243.000000, 323.000000)">
                <g id="编组-20" transform="translate(828.000000, 69.000000)">
                    <g id="mail-outlined" fill="#222222">
                        <rect id="矩形" opacity="0" x="0" y="0" width="18" height="18"></rect>
                        <path d="M16.3125,2.8125 L1.6875,2.8125 C1.37636719,2.8125 1.125,3.06386719 1.125,3.375 L1.125,14.625 C1.125,14.9361328 1.37636719,15.1875 1.6875,15.1875 L16.3125,15.1875 C16.6236328,15.1875 16.875,14.9361328 16.875,14.625 L16.875,3.375 C16.875,3.06386719 16.6236328,2.8125 16.3125,2.8125 Z M15.609375,4.76015625 L15.609375,13.921875 L2.390625,13.921875 L2.390625,4.76015625 L1.90546875,4.38222656 L2.59628906,3.49453125 L3.34863281,4.07988281 L14.653125,4.07988281 L15.4054688,3.49453125 L16.0962891,4.38222656 L15.609375,4.76015625 L15.609375,4.76015625 Z M14.653125,4.078125 L9,8.47265625 L3.346875,4.078125 L2.59453125,3.49277344 L1.90371094,4.38046875 L2.38886719,4.75839844 L8.39355469,9.42714844 C8.74863281,9.703125 9.24609375,9.703125 9.60117188,9.42714844 L15.609375,4.76015625 L16.0945312,4.38222656 L15.4037109,3.49453125 L14.653125,4.078125 Z" id="形状"></path>
                    </g>
                    <g id="check-circle-filled备份" transform="translate(10.000000, 8.000000)">
                        <rect id="矩形" fill="#000000" opacity="0" x="0" y="0" width="12" height="12"></rect>
                        <path d="M6,0.75 C3.10078125,0.75 0.75,3.10078125 0.75,6 C0.75,8.89921875 3.10078125,11.25 6,11.25 C8.89921875,11.25 11.25,8.89921875 11.25,6 C11.25,3.10078125 8.89921875,0.75 6,0.75 Z" id="形状" stroke="#FFFFFF" fill="#02DE6D"></path>
                        <path d="M8.26757813,4.28554688 L5.79960938,7.70742187 C5.65078125,7.91484375 5.34257813,7.91484375 5.19375,7.70742187 L3.73242188,5.68242188 C3.68789063,5.6203125 3.73242188,5.53359375 3.80859375,5.53359375 L4.35820313,5.53359375 C4.47773438,5.53359375 4.59140625,5.59101562 4.66171875,5.68945312 L5.49609375,6.84726562 L7.33828125,4.29257813 C7.40859375,4.1953125 7.52109375,4.13671875 7.64179688,4.13671875 L8.19140625,4.13671875 C8.26757813,4.13671875 8.31210938,4.2234375 8.26757813,4.28554688 Z" id="路径" fill="#FFFFFF"></path>
                    </g>
                </g>
            </g>
        </g>
    </g>
</svg>