<?xml version="1.0" encoding="UTF-8"?>
<svg width="14px" height="14px" viewBox="0 0 14 14" version="1.1" xmlns="http://www.w3.org/2000/svg" xmlns:xlink="http://www.w3.org/1999/xlink">
    <g id="主账号" stroke="none" stroke-width="1" fill="none" fill-rule="evenodd">
        <g id="账号信息-复制-编辑" transform="translate(-1024.000000, -208.000000)" fill="#555555" fill-rule="nonzero">
            <g id="编组-4" transform="translate(219.000000, 139.000000)">
                <g id="编组-15" transform="translate(602.000000, 66.000000)">
                    <g id="复制" transform="translate(203.000000, 3.000000)">
                        <rect id="矩形" opacity="0" x="0" y="0" width="14" height="14"></rect>
                        <path d="M5.39583789,1.45833789 L11.5208379,1.45833789 C12.0846204,1.45833789 12.5416621,1.91537959 12.5416621,2.47916211 L12.5416621,8.60416211 C12.5416621,9.16794997 12.0846258,9.625 11.5208379,9.625 L5.39583789,9.625 C4.83204469,9.625 4.375,9.16795531 4.375,8.60416211 L4.375,2.47916211 C4.375,1.91537425 4.83205003,1.45833789 5.39583789,1.45833789 L5.39583789,1.45833789 Z M5.39583789,2.33333789 C5.31529919,2.33333789 5.25,2.39862341 5.25,2.47916211 L5.25,8.60416211 C5.25,8.64284072 5.26536502,8.67993516 5.29271493,8.70728507 C5.32006484,8.73463498 5.35715928,8.75 5.39583789,8.75 L11.5208379,8.75 C11.6013766,8.75 11.6666621,8.68470081 11.6666621,8.60416211 L11.6666621,2.47916211 C11.6666621,2.39862874 11.6013713,2.33333789 11.5208379,2.33333789 L5.39583789,2.33333789 Z M8.75,10.5 C8.75,10.2583754 8.94587542,10.0625 9.1875,10.0625 C9.42912458,10.0625 9.625,10.2583754 9.625,10.5 L9.625,11.5208379 C9.625,12.0846258 9.16794997,12.5416621 8.60416211,12.5416621 L2.47916211,12.5416621 C1.91537959,12.5416621 1.45833789,12.0846204 1.45833789,11.5208379 L1.45833789,5.39583789 C1.45833789,4.83205003 1.91537425,4.375 2.47916211,4.375 L3.5,4.375 C3.74162458,4.375 3.9375,4.57087542 3.9375,4.8125 C3.9375,5.05412458 3.74162458,5.25 3.5,5.25 L2.47916211,5.25 C2.39862341,5.25000755 2.33333789,5.31529919 2.33333789,5.39583789 L2.33333789,11.5208379 C2.33334544,11.6013713 2.39862874,11.6666546 2.47916211,11.6666621 L8.60416211,11.6666621 C8.68470081,11.6666621 8.74999245,11.6013766 8.75,11.5208379 L8.75,10.5 Z" id="形状"></path>
                    </g>
                </g>
            </g>
        </g>
    </g>
</svg>
