<?xml version="1.0" encoding="UTF-8"?>
<svg width="24px" height="24px" viewBox="0 0 24 24" version="1.1" xmlns="http://www.w3.org/2000/svg" xmlns:xlink="http://www.w3.org/1999/xlink">
    <title>编组 9</title>
    <g id="页面-1" stroke="none" stroke-width="1" fill="none" fill-rule="evenodd">
        <g id="购买ssl证书-自定义配置备份-2" transform="translate(-543.000000, -838.000000)">
            <g id="编组-5备份-7" transform="translate(217.000000, 686.000000)">
                <g id="编组-9" transform="translate(326.000000, 152.000000)">
                    <rect id="矩形" x="0" y="0" width="24" height="24"></rect>
                    <path d="M24,0 L24,20 C24,22.209139 22.209139,24 20,24 L0,24 L0,24 L24,0 Z" id="矩形" fill="#0063FF"></path>
                    <g id="check" transform="translate(8.000000, 8.000000)" fill-rule="nonzero">
                        <rect id="矩形" fill="#000000" opacity="0" x="0" y="0" width="16" height="16"></rect>
                        <path d="M12.9698065,4 L12.1012812,4 C11.9795137,4 11.8639588,4.05591364 11.7894073,4.1515881 L6.66647496,10.6412984 L4.21000218,7.52877223 C4.13420813,7.43309777 4.01989579,7.37718413 3.8981283,7.37718413 L3.02960302,7.37718413 C2.94635382,7.37718413 2.90038037,7.47285859 2.95132392,7.53746991 L6.35460108,11.8490332 C6.51364433,12.0503223 6.81930559,12.0503223 6.97959137,11.8490332 L13.0480856,4.15904326 C13.0990291,4.09567446 13.0530557,4 12.9698065,4 Z" id="路径" fill="#FFFFFF"></path>
                    </g>
                </g>
            </g>
        </g>
    </g>
</svg>