<?xml version="1.0" encoding="UTF-8"?>
<svg width="32px" height="32px" viewBox="0 0 32 32" version="1.1" xmlns="http://www.w3.org/2000/svg" xmlns:xlink="http://www.w3.org/1999/xlink">
    <g id="页面-1" stroke="none" stroke-width="1" fill="none" fill-rule="evenodd">
        <g id="icon" transform="translate(-1305.000000, -290.000000)">
            <g id="编组-15" transform="translate(1306.000000, 291.000000)">
                <path d="M26.4285066,16.7252415 C27.5816482,16.6314901 28.5191617,17.3908761 28.6129131,18.5533929 C28.6972893,19.7534102 27.8535271,20.7377994 26.6910104,20.8315508 C25.5753692,20.915927 24.59098,20.0721648 24.5066038,18.9565237 C24.4128525,17.7471312 25.2191141,16.8564934 26.4285066,16.7252415 Z" id="path22" fill="#86DA2F" fill-rule="nonzero"></path>
                <path d="M28.6129131,18.5533929 C28.6972893,19.7534102 27.8535271,20.7377994 26.6910104,20.8315508 C25.5753692,20.915927 24.59098,20.0721648 24.5066038,18.9565237 C24.4128525,17.7471312 25.2191141,16.8564934 26.4285066,16.7252415 C27.5816482,16.6314901 28.5191617,17.3908761 28.6129131,18.5533929 Z" id="path22" stroke-opacity="0" stroke="#000000"></path>
                <path d="M12.3189279,26.2316287 C12.3189279,25.0691119 13.2095657,24.1784741 14.2783311,24.1784741 C15.3564717,24.1784741 16.3783615,25.1628633 16.3783615,26.2785044 C16.3783615,27.3472698 15.4877236,28.2847834 14.4564587,28.331659 C13.16269,28.331659 12.3189279,27.5253974 12.3189279,26.2316287 Z" id="path24" fill="#24C2FF" fill-rule="nonzero"></path>
                <path d="M14.2783311,24.1784741 C15.3564717,24.1784741 16.3783615,25.1628633 16.3783615,26.2785044 C16.3783615,27.3472698 15.4877236,28.2847834 14.4564587,28.331659 C13.16269,28.331659 12.3189279,27.5253974 12.3189279,26.2316287 C12.3189279,25.0691119 13.2095657,24.1784741 14.2783311,24.1784741 Z" id="path24" stroke-opacity="0" stroke="#000000"></path>
                <path d="M15.4877236,13.1908154 C15.309596,13.2845668 15.2158447,13.1533149 15.1783441,13.0126879 C13.5189452,9.93764347 14.0158274,6.0469623 16.9127442,3.73130387 C17.6721301,3.1031698 19.1065259,2.97191791 19.7252848,3.60005198 C19.9971637,3.81568009 20.0440394,4.08755901 20.0815399,4.39693848 C20.1752913,5.07194823 20.3065432,5.73758284 20.7565497,6.27196555 C21.2440567,6.85322394 21.8721908,7.07822719 22.5847011,7.03135152 C23.2128351,7.03135152 23.8315941,6.9469753 24.2347249,7.65948558 C24.4597281,8.0626164 24.3753519,9.61888887 24.0097216,9.93764347 C23.8315941,10.0688954 23.7003422,9.98451915 23.5690903,9.93764347 C22.5378254,9.53451265 21.46906,9.53451265 20.4002945,9.71264023 C20.0440394,9.7595159 19.8659118,9.66576455 19.8659118,9.26263373 C19.8190361,8.59699912 19.6877842,7.96886505 19.322154,7.38760666 C18.6565194,6.18758933 17.4096264,6.14071366 16.6033647,7.25635476 C15.928355,8.14699262 15.7502274,9.22513319 15.5720998,10.2938986 C15.3939723,11.2314122 15.4408479,12.2158014 15.4877236,13.1908154 Z" id="path26" fill="#FFCB12" fill-rule="nonzero"></path>
                <path d="M15.1783441,13.0126879 C13.5189452,9.93764347 14.0158274,6.0469623 16.9127442,3.73130387 C17.6721301,3.1031698 19.1065259,2.97191791 19.7252848,3.60005198 C19.9971637,3.81568009 20.0440394,4.08755901 20.0815399,4.39693848 C20.1752913,5.07194823 20.3065432,5.73758284 20.7565497,6.27196555 C21.2440567,6.85322394 21.8721908,7.07822719 22.5847011,7.03135152 C23.2128351,7.03135152 23.8315941,6.9469753 24.2347249,7.65948558 C24.4597281,8.0626164 24.3753519,9.61888887 24.0097216,9.93764347 C23.8315941,10.0688954 23.7003422,9.98451915 23.5690903,9.93764347 C22.5378254,9.53451265 21.46906,9.53451265 20.4002945,9.71264023 C20.0440394,9.7595159 19.8659118,9.66576455 19.8659118,9.26263373 C19.8190361,8.59699912 19.6877842,7.96886505 19.322154,7.38760666 C18.6565194,6.18758933 17.4096264,6.14071366 16.6033647,7.25635476 C15.928355,8.14699262 15.7502274,9.22513319 15.5720998,10.2938986 C15.3939723,11.2314122 15.4408479,12.2158014 15.4877236,13.1908154 C15.309596,13.2845668 15.2158447,13.1533149 15.1783441,13.0126879 Z" id="path26" stroke-opacity="0" stroke="#000000"></path>
                <path d="M16.6033647,13.8658252 C16.5096134,13.7345733 16.556489,13.5939463 16.6877409,13.50957 C19.2377777,11.1845365 23.0347076,10.73453 25.9785001,13.0126879 C26.737886,13.6408219 27.2253931,14.9345906 26.8222622,15.6939766 C26.6441347,16.003356 26.4285066,16.1439831 26.1566276,16.2283593 C25.5284936,16.5002382 24.9472352,16.762742 24.5534795,17.3440004 C24.1503487,17.9252588 24.0565973,18.6002685 24.2347249,19.3127788 C24.3753519,19.8940372 24.59098,20.5127962 24.0097216,21.056554 C23.7003422,21.3659335 22.1815702,21.6284373 21.7784394,21.3659335 C21.6003119,21.2346816 21.6471875,21.0940545 21.6940632,20.915927 C21.8253151,19.8002859 21.5628113,18.7783961 21.1596805,17.7940069 C21.0190535,17.4377518 21.0659291,17.2596242 21.4221843,17.1658728 C22.0503184,16.9877453 22.6315767,16.6783658 23.0722081,16.2283593 C24.0565973,15.2908458 23.8315941,14.0908284 22.5378254,13.5470706 C21.5159356,13.1064392 20.4377951,13.1908154 19.4159053,13.2845668 C18.4315161,13.3314425 17.4940026,13.5939463 16.6033647,13.8658252 Z" id="path28" fill="#86DA2F" fill-rule="nonzero"></path>
                <path d="M16.6877409,13.50957 C19.2377777,11.1845365 23.0347076,10.73453 25.9785001,13.0126879 C26.737886,13.6408219 27.2253931,14.9345906 26.8222622,15.6939766 C26.6441347,16.003356 26.4285066,16.1439831 26.1566276,16.2283593 C25.5284936,16.5002382 24.9472352,16.762742 24.5534795,17.3440004 C24.1503487,17.9252588 24.0565973,18.6002685 24.2347249,19.3127788 C24.3753519,19.8940372 24.59098,20.5127962 24.0097216,21.056554 C23.7003422,21.3659335 22.1815702,21.6284373 21.7784394,21.3659335 C21.6003119,21.2346816 21.6471875,21.0940545 21.6940632,20.915927 C21.8253151,19.8002859 21.5628113,18.7783961 21.1596805,17.7940069 C21.0190535,17.4377518 21.0659291,17.2596242 21.4221843,17.1658728 C22.0503184,16.9877453 22.6315767,16.6783658 23.0722081,16.2283593 C24.0565973,15.2908458 23.8315941,14.0908284 22.5378254,13.5470706 C21.5159356,13.1064392 20.4377951,13.1908154 19.4159053,13.2845668 C18.4315161,13.3314425 17.4940026,13.5939463 16.6033647,13.8658252 C16.5096134,13.7345733 16.556489,13.5939463 16.6877409,13.50957 Z" id="path28" stroke-opacity="0" stroke="#000000"></path>
                <path d="M16.0221063,15.028342 C16.1533582,14.8877149 16.2471096,14.9345906 16.3783615,15.028342 C19.322154,16.8096177 20.8409259,20.3346686 19.5002815,23.7753433 C19.1440264,24.6659811 17.9908847,25.556619 17.1377474,25.3409909 C16.7814923,25.2472395 16.6033647,25.0691119 16.4252371,24.8441087 C16.0221063,24.309726 15.5720998,23.8222189 14.9064652,23.5972157 C14.1939549,23.3722124 13.5658209,23.5034643 12.9376868,23.8690946 C12.4033041,24.1784741 11.8689214,24.5816049 11.2032867,24.1784741 C10.8001559,23.9534708 10.1251462,22.5659508 10.2657732,22.1253194 C10.3501494,21.9471919 10.528277,21.9471919 10.7064046,21.9471919 C11.8220457,21.7690643 12.7220587,21.2346816 13.5658209,20.5127962 C13.8376998,20.297168 14.0533279,20.297168 14.2783311,20.6065475 C14.6345863,21.1409302 15.0845928,21.5909367 15.6658512,21.9003162 C16.828368,22.5659508 17.9440091,21.9940675 18.075261,20.6534232 C18.2065129,19.5377821 17.8127572,18.5533929 17.4471269,17.5690037 C17.0533712,16.6783658 16.556489,15.8252285 16.0221063,15.028342 Z" id="path30" fill="#24C2FF" fill-rule="nonzero"></path>
                <path d="M16.3783615,15.028342 C19.322154,16.8096177 20.8409259,20.3346686 19.5002815,23.7753433 C19.1440264,24.6659811 17.9908847,25.556619 17.1377474,25.3409909 C16.7814923,25.2472395 16.6033647,25.0691119 16.4252371,24.8441087 C16.0221063,24.309726 15.5720998,23.8222189 14.9064652,23.5972157 C14.1939549,23.3722124 13.5658209,23.5034643 12.9376868,23.8690946 C12.4033041,24.1784741 11.8689214,24.5816049 11.2032867,24.1784741 C10.8001559,23.9534708 10.1251462,22.5659508 10.2657732,22.1253194 C10.3501494,21.9471919 10.528277,21.9471919 10.7064046,21.9471919 C11.8220457,21.7690643 12.7220587,21.2346816 13.5658209,20.5127962 C13.8376998,20.297168 14.0533279,20.297168 14.2783311,20.6065475 C14.6345863,21.1409302 15.0845928,21.5909367 15.6658512,21.9003162 C16.828368,22.5659508 17.9440091,21.9940675 18.075261,20.6534232 C18.2065129,19.5377821 17.8127572,18.5533929 17.4471269,17.5690037 C17.0533712,16.6783658 16.556489,15.8252285 16.0221063,15.028342 C16.1533582,14.8877149 16.2471096,14.9345906 16.3783615,15.028342 Z" id="path30" stroke-opacity="0" stroke="#000000"></path>
                <path d="M14.5970857,15.2908458 C14.4189582,16.1814836 14.0158274,17.0346209 13.4814446,17.7940069 C11.8689214,20.2034167 9.55326293,21.1878059 6.69384664,20.915927 C5.66258175,20.8315508 4.81881957,19.9784134 4.72506822,19.1346513 C4.67819254,18.7783961 4.77194389,18.5065172 4.99694714,18.2346383 C5.30632661,17.8408826 5.57820554,17.4846274 5.70945743,16.9877453 C5.98133636,16.003356 5.61570608,15.2064695 4.90319579,14.4845841 C3.91880658,13.50957 4.05943361,12.6095571 5.22195039,11.8970468 C5.35320229,11.8126705 5.53132986,11.7189192 5.70945743,11.634543 C5.98133636,11.4939159 6.19696447,11.4939159 6.29071582,11.8126705 C6.69384664,12.8345603 7.49073315,13.5939463 8.39074614,14.2220803 C8.70012561,14.4845841 8.70012561,14.6720868 8.42824668,14.9814663 C7.89386397,15.5627247 7.5844845,16.275235 7.53760882,17.0814966 C7.45323261,18.0565107 8.034491,18.6846448 9.00950507,18.6846448 C9.63763914,18.6846448 10.2188975,18.4596415 10.7532803,18.1971377 C12.1408003,17.4846274 13.2095657,16.4533625 14.2408306,15.3845971 C14.3720825,15.3377214 14.4189582,15.2439701 14.5970857,15.2908458 Z" id="path32" fill="#0069DA" fill-rule="nonzero"></path>
                <path d="M13.4814446,17.7940069 C11.8689214,20.2034167 9.55326293,21.1878059 6.69384664,20.915927 C5.66258175,20.8315508 4.81881957,19.9784134 4.72506822,19.1346513 C4.67819254,18.7783961 4.77194389,18.5065172 4.99694714,18.2346383 C5.30632661,17.8408826 5.57820554,17.4846274 5.70945743,16.9877453 C5.98133636,16.003356 5.61570608,15.2064695 4.90319579,14.4845841 C3.91880658,13.50957 4.05943361,12.6095571 5.22195039,11.8970468 C5.35320229,11.8126705 5.53132986,11.7189192 5.70945743,11.634543 C5.98133636,11.4939159 6.19696447,11.4939159 6.29071582,11.8126705 C6.69384664,12.8345603 7.49073315,13.5939463 8.39074614,14.2220803 C8.70012561,14.4845841 8.70012561,14.6720868 8.42824668,14.9814663 C7.89386397,15.5627247 7.5844845,16.275235 7.53760882,17.0814966 C7.45323261,18.0565107 8.034491,18.6846448 9.00950507,18.6846448 C9.63763914,18.6846448 10.2188975,18.4596415 10.7532803,18.1971377 C12.1408003,17.4846274 13.2095657,16.4533625 14.2408306,15.3845971 C14.3720825,15.3377214 14.4189582,15.2439701 14.5970857,15.2908458 C14.4189582,16.1814836 14.0158274,17.0346209 13.4814446,17.7940069 Z" id="path32" stroke-opacity="0" stroke="#000000"></path>
                <path d="M7.27510503,5.91571041 C7.35948125,5.91571041 7.5844845,5.96258608 7.80948775,6.00946176 C9.45951157,6.31884123 10.4907765,5.73758284 11.0251592,4.17193523 C11.3814143,3.15004548 12.1408003,2.84066601 13.1158144,3.37504873 C13.16269,3.37504873 13.16269,3.41254927 13.2095657,3.41254927 C14.2408306,3.99380766 14.2408306,4.08755901 13.6126965,4.97819687 C13.0783138,5.69070716 12.8064349,6.4969688 12.675183,7.35010612 C12.5814316,7.83761316 12.4033041,7.92198937 11.9626727,7.7438618 C11.2407873,7.48135801 10.4907765,7.48135801 9.7313905,7.7438618 C8.87825318,8.01574073 8.52199804,8.77512669 8.79387696,9.61888887 C9.15013211,10.73453 10.1251462,11.2314122 10.9782835,11.8126705 C11.8220457,12.3939289 12.8064349,12.7033084 13.7439484,13.1064392 C13.8752003,13.1533149 14.1002036,13.1533149 14.0533279,13.368943 C14.0158274,13.50957 13.8376998,13.50957 13.6595722,13.50957 C11.6439181,13.5939463 9.7313905,13.2845668 8.16574289,11.9439224 C6.69384664,10.73453 5.61570608,9.26263373 5.80320878,7.20947909 C5.93446068,6.54384448 6.42196772,6.0469623 7.27510503,5.91571041 Z" id="path34" fill="#FF4649" fill-rule="nonzero"></path>
                <path d="M7.80948775,6.00946176 C9.45951157,6.31884123 10.4907765,5.73758284 11.0251592,4.17193523 C11.3814143,3.15004548 12.1408003,2.84066601 13.1158144,3.37504873 C13.16269,3.37504873 13.16269,3.41254927 13.2095657,3.41254927 C14.2408306,3.99380766 14.2408306,4.08755901 13.6126965,4.97819687 C13.0783138,5.69070716 12.8064349,6.4969688 12.675183,7.35010612 C12.5814316,7.83761316 12.4033041,7.92198937 11.9626727,7.7438618 C11.2407873,7.48135801 10.4907765,7.48135801 9.7313905,7.7438618 C8.87825318,8.01574073 8.52199804,8.77512669 8.79387696,9.61888887 C9.15013211,10.73453 10.1251462,11.2314122 10.9782835,11.8126705 C11.8220457,12.3939289 12.8064349,12.7033084 13.7439484,13.1064392 C13.8752003,13.1533149 14.1002036,13.1533149 14.0533279,13.368943 C14.0158274,13.50957 13.8376998,13.50957 13.6595722,13.50957 C11.6439181,13.5939463 9.7313905,13.2845668 8.16574289,11.9439224 C6.69384664,10.73453 5.61570608,9.26263373 5.80320878,7.20947909 C5.93446068,6.54384448 6.42196772,6.0469623 7.27510503,5.91571041 C7.35948125,5.91571041 7.5844845,5.96258608 7.80948775,6.00946176 Z" id="path34" stroke-opacity="0" stroke="#000000"></path>
                <path d="M3.60942711,18.4596415 C2.54066168,18.6002685 1.47189625,17.7002555 1.3781449,16.5846144 C1.29376868,15.515849 2.18440654,14.4470836 3.20629629,14.3533322 C4.36881307,14.2220803 5.43757851,15.028342 5.53132986,16.0971074 C5.57820554,17.1189972 4.90319579,18.3752653 3.60942711,18.4596415 Z" id="path36" fill="#0069DA" fill-rule="nonzero"></path>
                <path d="M1.3781449,16.5846144 C1.29376868,15.515849 2.18440654,14.4470836 3.20629629,14.3533322 C4.36881307,14.2220803 5.43757851,15.028342 5.53132986,16.0971074 C5.57820554,17.1189972 4.90319579,18.3752653 3.60942711,18.4596415 C2.54066168,18.6002685 1.47189625,17.7002555 1.3781449,16.5846144 Z" id="path36" stroke-opacity="0" stroke="#000000"></path>
                <path d="M22.3596978,2.56878709 C23.4753389,2.47503573 24.5534795,3.37504873 24.6378557,4.49068983 C24.7316071,5.55945526 23.8315941,6.59072015 22.7628286,6.67509637 C21.6003119,6.76884773 20.5784221,5.91571041 20.4846707,4.8000693 C20.4002945,3.68442819 21.197181,2.66253844 22.3596978,2.56878709 Z" id="path38" fill="#FFCB12" fill-rule="nonzero"></path>
                <path d="M24.6378557,4.49068983 C24.7316071,5.55945526 23.8315941,6.59072015 22.7628286,6.67509637 C21.6003119,6.76884773 20.5784221,5.91571041 20.4846707,4.8000693 C20.4002945,3.68442819 21.197181,2.66253844 22.3596978,2.56878709 C23.4753389,2.47503573 24.5534795,3.37504873 24.6378557,4.49068983 Z" id="path38" stroke-opacity="0" stroke="#000000"></path>
                <path d="M10.7064046,3.41254927 C10.8470316,4.57506605 10.04077,5.55945526 8.8313775,5.73758284 C7.80948775,5.86883473 6.74072232,5.02507255 6.60009529,4.04068334 C6.46884339,2.74691466 7.18135368,1.80940112 8.39074614,1.67814923 C9.50638725,1.5375222 10.5751527,2.39065952 10.7064046,3.41254927 Z" id="path40" fill="#FF4649" fill-rule="nonzero"></path>
                <path d="M8.8313775,5.73758284 C7.80948775,5.86883473 6.74072232,5.02507255 6.60009529,4.04068334 C6.46884339,2.74691466 7.18135368,1.80940112 8.39074614,1.67814923 C9.50638725,1.5375222 10.5751527,2.39065952 10.7064046,3.41254927 C10.8470316,4.57506605 10.04077,5.55945526 8.8313775,5.73758284 Z" id="path40" stroke-opacity="0" stroke="#000000"></path>
                <rect id="画板-329" fill-opacity="0" fill="#FFFFFF" fill-rule="nonzero" x="0" y="0" width="30" height="30.0004331"></rect>
                <rect id="画板-329" stroke-opacity="0" stroke="#000000" x="0" y="0" width="30" height="30.0004331"></rect>
            </g>
        </g>
    </g>
</svg>
