<?xml version="1.0" encoding="UTF-8"?>
<svg width="32px" height="32px" viewBox="0 0 32 32" version="1.1" xmlns="http://www.w3.org/2000/svg" xmlns:xlink="http://www.w3.org/1999/xlink">
    <g id="页面-1" stroke="none" stroke-width="1" fill="none" fill-rule="evenodd">
        <g id="icon" transform="translate(-1307.000000, -233.000000)">
            <g id="编组-13" transform="translate(1307.770000, 233.770000)">
                <path d="M14.9947276,0 C6.72759227,0 1.13686838e-13,6.72759227 1.13686838e-13,15.0052724 C1.13686838e-13,23.2618629 6.72759227,30 14.9947276,30 C23.2618629,30 30,23.2618629 30,15.0052724 C30,6.72759227 23.2618629,0 14.9947276,0 Z" id="path" fill="#50A2DB" fill-rule="nonzero"></path>
                <path d="M1.13686838e-13,15.0052724 C1.13686838e-13,23.2618629 6.72759227,30 14.9947276,30 C23.2618629,30 30,23.2618629 30,15.0052724 C30,6.72759227 23.2618629,0 14.9947276,0 C6.72759227,0 1.13686838e-13,6.72759227 1.13686838e-13,15.0052724 Z" id="path" stroke-opacity="0" stroke="#000000"></path>
                <path d="M14.9947276,1.38137083 C12.5799649,1.38137083 10.5342707,5.23022847 9.80667838,10.5975395 C9.77504394,10.7662566 9.75395431,10.9455185 9.73286467,11.1142355 C9.63796134,11.9683656 9.56414763,12.8435852 9.53251318,13.7504394 C9.51142355,14.1616872 9.50087873,14.572935 9.50087873,15.0052724 C9.50087873,15.427065 9.51142355,15.8383128 9.53251318,16.2495606 C9.56414763,17.1564148 9.63796134,18.0316344 9.73286467,18.8752197 C10.8611599,19.0228471 12.0738137,19.1177504 13.3286467,19.1704745 C13.8769772,19.1915641 14.4358524,19.202109 14.9947276,19.202109 C15.5536028,19.202109 16.112478,19.1915641 16.6608084,19.1704745 C17.9156415,19.1177504 19.1282953,19.0228471 20.2565905,18.8752197 C20.3831283,18.8646749 20.5096661,18.8435852 20.6256591,18.8330404 C25.3391916,18.168717 28.6186292,16.7029877 28.6186292,15.0052724 C28.6186292,7.47627417 22.513181,1.38137083 14.9947276,1.38137083 Z" id="path" fill="#F1606D" fill-rule="nonzero"></path>
                <path d="M9.80667838,10.5975395 C9.77504394,10.7662566 9.75395431,10.9455185 9.73286467,11.1142355 C9.63796134,11.9683656 9.56414763,12.8435852 9.53251318,13.7504394 C9.51142355,14.1616872 9.50087873,14.572935 9.50087873,15.0052724 C9.50087873,15.427065 9.51142355,15.8383128 9.53251318,16.2495606 C9.56414763,17.1564148 9.63796134,18.0316344 9.73286467,18.8752197 C10.8611599,19.0228471 12.0738137,19.1177504 13.3286467,19.1704745 C13.8769772,19.1915641 14.4358524,19.202109 14.9947276,19.202109 C15.5536028,19.202109 16.112478,19.1915641 16.6608084,19.1704745 C17.9156415,19.1177504 19.1282953,19.0228471 20.2565905,18.8752197 C20.3831283,18.8646749 20.5096661,18.8435852 20.6256591,18.8330404 C25.3391916,18.168717 28.6186292,16.7029877 28.6186292,15.0052724 C28.6186292,7.47627417 22.513181,1.38137083 14.9947276,1.38137083 C12.5799649,1.38137083 10.5342707,5.23022847 9.80667838,10.5975395 Z" id="path" stroke-opacity="0" stroke="#000000"></path>
                <path d="M20.6256591,11.1669596 C20.4991213,10.9666081 20.340949,10.7873462 20.1933216,10.5975395 C18.9384886,9.12126538 17.0826011,8.19332162 14.9947276,8.19332162 C14.3198594,8.19332162 13.7188049,9.22671353 13.3286467,10.8295255 C13.1810193,11.4622144 13.0650264,12.1898067 12.9912127,12.9912127 C12.9279438,13.6239016 12.8963093,14.2987698 12.8963093,15.0052724 C12.8963093,15.7012302 12.9279438,16.3760984 12.9912127,17.0087873 C13.6239016,17.0615114 14.2987698,17.1036907 14.9947276,17.1036907 C15.7012302,17.1036907 16.3655536,17.0615114 16.9982425,17.0087873 C18.400703,16.8822496 19.6133568,16.6080844 20.456942,16.2495606 C21.3110721,15.9015817 21.8066784,15.4692443 21.8066784,15.0052724 C21.8066784,13.5817223 21.3743409,12.2636204 20.6256591,11.1669596 Z" id="path" fill="#FFFFFF" fill-rule="nonzero"></path>
                <path d="M20.1933216,10.5975395 C18.9384886,9.12126538 17.0826011,8.19332162 14.9947276,8.19332162 C14.3198594,8.19332162 13.7188049,9.22671353 13.3286467,10.8295255 C13.1810193,11.4622144 13.0650264,12.1898067 12.9912127,12.9912127 C12.9279438,13.6239016 12.8963093,14.2987698 12.8963093,15.0052724 C12.8963093,15.7012302 12.9279438,16.3760984 12.9912127,17.0087873 C13.6239016,17.0615114 14.2987698,17.1036907 14.9947276,17.1036907 C15.7012302,17.1036907 16.3655536,17.0615114 16.9982425,17.0087873 C18.400703,16.8822496 19.6133568,16.6080844 20.456942,16.2495606 C21.3110721,15.9015817 21.8066784,15.4692443 21.8066784,15.0052724 C21.8066784,13.5817223 21.3743409,12.2636204 20.6256591,11.1669596 C20.4991213,10.9666081 20.340949,10.7873462 20.1933216,10.5975395 Z" id="path" stroke-opacity="0" stroke="#000000"></path>
            </g>
        </g>
    </g>
</svg>
