<?xml version="1.0" encoding="UTF-8"?>
<svg width="30px" height="30px" viewBox="0 0 30 30" version="1.1" xmlns="http://www.w3.org/2000/svg" xmlns:xlink="http://www.w3.org/1999/xlink">
    <g id="页面-1" stroke="none" stroke-width="1" fill="none" fill-rule="evenodd">
        <g id="icon" transform="translate(-1108.000000, -105.000000)" fill="#97A3B7" fill-rule="nonzero">
            <g id="Centos-weak" transform="translate(1108.000000, 105.000000)">
                <polygon id="路径" points="4.39372 20.3938 6.50013 22.5003 12.586 16.4143 13.5861 16.4143 13.5861 17.4141 7.5 23.5001 9.6065 25.6066 4.39372 25.6066"></polygon>
                <polygon id="路径" points="3.68671 18.6867 0 15 3.68671 11.3133 3.68671 14.2931 12.293 14.2931 13 15 12.2927 15.7073 3.68671 15.7073"></polygon>
                <polygon id="路径" points="4.39372 19.3937 6.50013 21.5001 11.5858 16.4143 4.39372 16.4143"></polygon>
                <polygon id="路径" points="11.586 13.586 4.39372 13.586 4.39372 10.6063 6.49988 8.50012"></polygon>
                <polygon id="路径" points="12.5863 13.586 6.50001 7.5 4.39372 9.6063 4.39372 4.39371 9.6064 4.39371 7.5 6.50013 13.5861 12.5862 13.5861 13.586"></polygon>
                <polygon id="路径" points="15.7076 12.2925 15 13 14.2933 12.2933 14.2933 3.68646 11.3137 3.68646 15 0 18.6865 3.68646 15.7076 3.68646"></polygon>
                <polygon id="路径" points="16.4146 12.5856 16.4146 13.586 17.4141 13.586 23.5001 7.5 25.6069 9.6068 25.6069 4.39371 20.3937 4.39371 22.5 6.50013"></polygon>
                <polygon id="路径" points="19.3937 4.39371 21.5001 6.50013 16.4146 11.5855 16.4146 4.39371"></polygon>
                <polygon id="路径" points="26.3142 11.3142 30 15 26.3142 18.686 26.3142 15.7073 17.7073 15.7073 17 15 17.707 14.2931 26.3142 14.2931"></polygon>
                <polygon id="路径" points="25.6069 10.6069 23.5001 8.50012 18.414 13.586 25.6069 13.586"></polygon>
                <polygon id="路径" points="18.4143 16.4143 25.6069 16.4143 25.6069 19.3933 23.5001 21.5001"></polygon>
                <polygon id="路径" points="17.4144 16.4143 23.5001 22.5003 25.6069 20.3934 25.6069 25.6066 20.3935 25.6066 22.5 23.5001 16.4146 17.4147 16.4146 16.4143"></polygon>
                <polygon id="路径" points="14.2933 17.7069 15 17.0002 15.7076 17.7078 15.7076 26.3142 18.686 26.3142 15 30 11.3142 26.3142 14.2933 26.3142"></polygon>
                <polygon id="路径" points="13.5861 18.4142 8.50012 23.5001 10.6067 25.6066 13.5861 25.6066"></polygon>
                <polygon id="路径" points="19.3935 25.6066 16.4146 25.6066 16.4146 18.4148 21.5001 23.5001"></polygon>
                <polygon id="路径" points="10.6065 4.39371 13.5861 4.39371 13.5861 11.5861 8.50012 6.50013"></polygon>
            </g>
        </g>
    </g>
</svg>
