<?xml version="1.0" encoding="UTF-8"?>
<svg width="32px" height="32px" viewBox="0 0 32 32" version="1.1" xmlns="http://www.w3.org/2000/svg" xmlns:xlink="http://www.w3.org/1999/xlink">
    <g id="页面-1" stroke="none" stroke-width="1" fill="none" fill-rule="evenodd">
        <g id="icon" transform="translate(-1437.000000, -290.000000)">
            <g id="编组" transform="translate(1438.000000, 291.000000)">
                <ellipse id="ellipse894" fill="#98A3B7" fill-rule="nonzero" cx="15" cy="15.000051" rx="15" ry="15.000051"></ellipse>
                <ellipse id="ellipse894" fill-opacity="0" fill="#000000" fill-rule="nonzero" cx="15" cy="15.000051" rx="15" ry="15.000051"></ellipse>
                <ellipse id="ellipse894" stroke-opacity="0" stroke="#000000" stroke-width="0.64" cx="15" cy="15.000051" rx="15" ry="15.000051"></ellipse>
                <path d="M14.9893685,3.64561574 L11.6723425,6.97327328 L6.97322224,6.96264178 L6.96259075,11.6723935 L3.64556471,15.000051 L6.96259075,18.3170771 L6.96259075,23.0161973 L11.6723425,23.0161973 L14.9893685,26.3438548 L18.317026,23.0161973 L23.0267778,23.0161973 L23.0267778,18.3170771 L26.3438038,15.000051 L23.0161463,11.6723935 L18.317026,6.97327328 L14.9893685,3.64561574 Z M15.9993604,6.96264178 L15.9993604,10.5560867 L14.9893685,11.5660786 L13.9900081,10.5560867 L13.9900081,6.97327328 L15.9993604,6.96264178 Z M10.0350924,8.61052331 L12.5653879,11.1408188 L12.5653879,12.565439 L11.1407678,12.565439 L8.59984078,10.0351435 L10.0350924,8.61052331 Z M6.96259075,13.9900591 L10.5560356,13.9900591 L11.5660275,15.000051 L10.5560356,15.9994114 L6.96259075,15.9994114 L6.96259075,13.9900591 Z M19.3589124,13.9900591 L22.9417258,13.9900591 L22.9417258,15.9994114 L19.3589124,15.9994114 L18.3489205,15.000051 L19.3589124,13.9900591 Z M11.1939252,17.3602426 L12.6291769,17.3602426 L12.6291769,18.7954943 L10.0882499,21.3257898 L8.66362975,19.9011696 L11.1939252,17.3602426 Z M17.3601916,17.3602426 L18.7954433,17.3602426 L21.3257388,19.9011696 L19.9011186,21.3257898 L17.3601916,18.7954943 L17.3601916,17.3602426 Z M14.9893685,18.3489716 L15.9993604,19.348332 L15.9993604,22.9417768 L13.9900081,22.9417768 L13.9900081,19.348332 L14.9893685,18.3489716 Z" id="path896" fill="#FFFFFF" fill-rule="nonzero"></path>
                <path d="M11.6723425,6.97327328 L6.97322224,6.96264178 L6.96259075,11.6723935 L3.64556471,15.000051 L6.96259075,18.3170771 L6.96259075,23.0161973 L11.6723425,23.0161973 L14.9893685,26.3438548 L18.317026,23.0161973 L23.0267778,23.0161973 L23.0267778,18.3170771 L26.3438038,15.000051 L23.0161463,11.6723935 L18.317026,6.97327328 L14.9893685,3.64561574 L11.6723425,6.97327328 Z M15.9993604,10.5560867 L14.9893685,11.5660786 L13.9900081,10.5560867 L13.9900081,6.97327328 L15.9993604,6.96264178 L15.9993604,10.5560867 Z M12.5653879,11.1408188 L12.5653879,12.565439 L11.1407678,12.565439 L8.59984078,10.0351435 L10.0350924,8.61052331 L12.5653879,11.1408188 Z M10.5560356,13.9900591 L11.5660275,15.000051 L10.5560356,15.9994114 L6.96259075,15.9994114 L6.96259075,13.9900591 L10.5560356,13.9900591 Z M22.9417258,13.9900591 L22.9417258,15.9994114 L19.3589124,15.9994114 L18.3489205,15.000051 L19.3589124,13.9900591 L22.9417258,13.9900591 Z M12.6291769,17.3602426 L12.6291769,18.7954943 L10.0882499,21.3257898 L8.66362975,19.9011696 L11.1939252,17.3602426 L12.6291769,17.3602426 Z M18.7954433,17.3602426 L21.3257388,19.9011696 L19.9011186,21.3257898 L17.3601916,18.7954943 L17.3601916,17.3602426 L18.7954433,17.3602426 Z M15.9993604,19.348332 L15.9993604,22.9417768 L13.9900081,22.9417768 L13.9900081,19.348332 L14.9893685,18.3489716 L15.9993604,19.348332 Z" id="path896" fill-opacity="0" fill="#000000" fill-rule="nonzero"></path>
                <path d="M6.97322224,6.96264178 L6.96259075,11.6723935 L3.64556471,15.000051 L6.96259075,18.3170771 L6.96259075,23.0161973 L11.6723425,23.0161973 L14.9893685,26.3438548 L18.317026,23.0161973 L23.0267778,23.0161973 L23.0267778,18.3170771 L26.3438038,15.000051 L23.0161463,11.6723935 L18.317026,6.97327328 L14.9893685,3.64561574 L11.6723425,6.97327328 L6.97322224,6.96264178 Z M14.9893685,11.5660786 L13.9900081,10.5560867 L13.9900081,6.97327328 L15.9993604,6.96264178 L15.9993604,10.5560867 L14.9893685,11.5660786 Z M12.5653879,12.565439 L11.1407678,12.565439 L8.59984078,10.0351435 L10.0350924,8.61052331 L12.5653879,11.1408188 L12.5653879,12.565439 Z M11.5660275,15.000051 L10.5560356,15.9994114 L6.96259075,15.9994114 L6.96259075,13.9900591 L10.5560356,13.9900591 L11.5660275,15.000051 Z M22.9417258,15.9994114 L19.3589124,15.9994114 L18.3489205,15.000051 L19.3589124,13.9900591 L22.9417258,13.9900591 L22.9417258,15.9994114 Z M12.6291769,18.7954943 L10.0882499,21.3257898 L8.66362975,19.9011696 L11.1939252,17.3602426 L12.6291769,17.3602426 L12.6291769,18.7954943 Z M21.3257388,19.9011696 L19.9011186,21.3257898 L17.3601916,18.7954943 L17.3601916,17.3602426 L18.7954433,17.3602426 L21.3257388,19.9011696 Z M15.9993604,22.9417768 L13.9900081,22.9417768 L13.9900081,19.348332 L14.9893685,18.3489716 L15.9993604,19.348332 L15.9993604,22.9417768 Z" id="path896" stroke-opacity="0" stroke="#000000" stroke-width="0.64"></path>
                <polygon id="path898" fill="#C7C7C7" points="15.9993604 12.6717539 14.9893685 13.5647994 13.9900081 12.6717539 13.9900081 13.9900591 12.6717029 13.9900591 13.5647483 15.000051 12.6717029 15.9994114 13.9900081 15.9994114 13.9900081 17.3177167 14.9893685 16.4246712 15.9993604 17.3177167 15.9993604 15.9994114 17.3176656 15.9994114 16.4246202 15.000051 17.3176656 13.9900591 15.9993604 13.9900591"></polygon>
                <polygon id="path898" fill-opacity="0" fill="#000000" fill-rule="nonzero" points="14.9893685 13.5647994 13.9900081 12.6717539 13.9900081 13.9900591 12.6717029 13.9900591 13.5647483 15.000051 12.6717029 15.9994114 13.9900081 15.9994114 13.9900081 17.3177167 14.9893685 16.4246712 15.9993604 17.3177167 15.9993604 15.9994114 17.3176656 15.9994114 16.4246202 15.000051 17.3176656 13.9900591 15.9993604 13.9900591 15.9993604 12.6717539"></polygon>
                <polygon id="path898" stroke-opacity="0" stroke="#000000" stroke-width="0.64" points="13.9900081 12.6717539 13.9900081 13.9900591 12.6717029 13.9900591 13.5647483 15.000051 12.6717029 15.9994114 13.9900081 15.9994114 13.9900081 17.3177167 14.9893685 16.4246712 15.9993604 17.3177167 15.9993604 15.9994114 17.3176656 15.9994114 16.4246202 15.000051 17.3176656 13.9900591 15.9993604 13.9900591 15.9993604 12.6717539 14.9893685 13.5647994"></polygon>
                <polygon id="path900" fill="#C7C7C7" points="18.317026 6.97327328 19.9542761 8.61052331 17.4239806 11.1408188 17.4239806 12.565439 18.8486007 12.565439 21.3788962 10.0351435 23.0267778 11.6723935 23.0267778 6.97327328"></polygon>
                <polygon id="path900" fill-opacity="0" fill="#000000" fill-rule="nonzero" points="19.9542761 8.61052331 17.4239806 11.1408188 17.4239806 12.565439 18.8486007 12.565439 21.3788962 10.0351435 23.0267778 11.6723935 23.0267778 6.97327328 18.317026 6.97327328"></polygon>
                <polygon id="path900" stroke-opacity="0" stroke="#000000" stroke-width="0.64" points="17.4239806 11.1408188 17.4239806 12.565439 18.8486007 12.565439 21.3788962 10.0351435 23.0267778 11.6723935 23.0267778 6.97327328 18.317026 6.97327328 19.9542761 8.61052331"></polygon>
            </g>
        </g>
    </g>
</svg>
