<?xml version="1.0" encoding="UTF-8"?>
<svg width="32px" height="32px" viewBox="0 0 32 32" version="1.1" xmlns="http://www.w3.org/2000/svg" xmlns:xlink="http://www.w3.org/1999/xlink">
    <g id="页面-1" stroke="none" stroke-width="1" fill="none" fill-rule="evenodd">
        <g id="icon" transform="translate(-1405.000000, -290.000000)">
            <g id="编组" transform="translate(1406.000000, 291.000000)">
                <ellipse id="ellipse894" fill="#88216F" fill-rule="nonzero" cx="15" cy="15.0000489" rx="15" ry="15.0000489"></ellipse>
                <ellipse id="ellipse894" fill-opacity="0" fill="#000000" fill-rule="nonzero" cx="15" cy="15.0000489" rx="15" ry="15.0000489"></ellipse>
                <ellipse id="ellipse894" stroke-opacity="0" stroke="#000000" stroke-width="0.64" cx="15" cy="15.0000489" rx="15" ry="15.0000489"></ellipse>
                <path d="M14.9893685,3.64561523 L11.6723429,6.97327229 L6.97322338,6.96264079 L6.96259189,11.6723918 L3.64556632,15.0000489 L6.96259189,18.3170745 L6.96259189,23.016194 L11.6723429,23.016194 L14.9893685,26.3438511 L18.3170256,23.016194 L23.0267766,23.016194 L23.0161451,18.3170745 L26.3438022,15.0000489 L23.0161451,11.6723918 L18.3170256,6.97327229 L14.9893685,3.64561523 Z M15.9993603,6.96264079 L15.9993603,10.5560852 L14.9893685,11.5660769 L13.9900082,10.5560852 L13.9900082,6.97327229 L15.9993603,6.96264079 Z M10.0350931,8.61052209 L12.5653883,11.1408172 L12.5653883,12.5654372 L11.1407683,12.5654372 L8.59984169,10.035142 L10.0350931,8.61052209 Z M6.96259189,13.9900571 L10.5560363,13.9900571 L11.566028,15.0000489 L10.5560363,15.9994092 L6.96259189,15.9994092 L6.96259189,13.9900571 Z M19.3482803,13.9900571 L22.9417247,13.9900571 L22.9417247,15.9994092 L19.3482803,15.9994092 L18.34892,15.0000489 L19.3482803,13.9900571 Z M11.1939258,17.3602402 L12.6291772,17.3602402 L12.6291772,18.7954916 L10.0882506,21.3257868 L8.66363064,19.9011668 L11.1939258,17.3602402 Z M17.3601913,17.3602402 L18.7954427,17.3602402 L21.3257379,19.9011668 L19.9011179,21.3257868 L17.3601913,18.7954916 L17.3601913,17.3602402 Z M14.9893685,18.348969 L15.9993603,19.3483292 L15.9993603,22.9417736 L13.9900082,22.9417736 L13.9900082,19.3483292 L14.9893685,18.348969 Z" id="path896" fill="#FFFFFF" fill-rule="nonzero"></path>
                <path d="M11.6723429,6.97327229 L6.97322338,6.96264079 L6.96259189,11.6723918 L3.64556632,15.0000489 L6.96259189,18.3170745 L6.96259189,23.016194 L11.6723429,23.016194 L14.9893685,26.3438511 L18.3170256,23.016194 L23.0267766,23.016194 L23.0161451,18.3170745 L26.3438022,15.0000489 L23.0161451,11.6723918 L18.3170256,6.97327229 L14.9893685,3.64561523 L11.6723429,6.97327229 Z M15.9993603,10.5560852 L14.9893685,11.5660769 L13.9900082,10.5560852 L13.9900082,6.97327229 L15.9993603,6.96264079 L15.9993603,10.5560852 Z M12.5653883,11.1408172 L12.5653883,12.5654372 L11.1407683,12.5654372 L8.59984169,10.035142 L10.0350931,8.61052209 L12.5653883,11.1408172 Z M10.5560363,13.9900571 L11.566028,15.0000489 L10.5560363,15.9994092 L6.96259189,15.9994092 L6.96259189,13.9900571 L10.5560363,13.9900571 Z M22.9417247,13.9900571 L22.9417247,15.9994092 L19.3482803,15.9994092 L18.34892,15.0000489 L19.3482803,13.9900571 L22.9417247,13.9900571 Z M12.6291772,17.3602402 L12.6291772,18.7954916 L10.0882506,21.3257868 L8.66363064,19.9011668 L11.1939258,17.3602402 L12.6291772,17.3602402 Z M18.7954427,17.3602402 L21.3257379,19.9011668 L19.9011179,21.3257868 L17.3601913,18.7954916 L17.3601913,17.3602402 L18.7954427,17.3602402 Z M15.9993603,19.3483292 L15.9993603,22.9417736 L13.9900082,22.9417736 L13.9900082,19.3483292 L14.9893685,18.348969 L15.9993603,19.3483292 Z" id="path896" fill-opacity="0" fill="#000000" fill-rule="nonzero"></path>
                <path d="M6.97322338,6.96264079 L6.96259189,11.6723918 L3.64556632,15.0000489 L6.96259189,18.3170745 L6.96259189,23.016194 L11.6723429,23.016194 L14.9893685,26.3438511 L18.3170256,23.016194 L23.0267766,23.016194 L23.0161451,18.3170745 L26.3438022,15.0000489 L23.0161451,11.6723918 L18.3170256,6.97327229 L14.9893685,3.64561523 L11.6723429,6.97327229 L6.97322338,6.96264079 Z M14.9893685,11.5660769 L13.9900082,10.5560852 L13.9900082,6.97327229 L15.9993603,6.96264079 L15.9993603,10.5560852 L14.9893685,11.5660769 Z M12.5653883,12.5654372 L11.1407683,12.5654372 L8.59984169,10.035142 L10.0350931,8.61052209 L12.5653883,11.1408172 L12.5653883,12.5654372 Z M11.566028,15.0000489 L10.5560363,15.9994092 L6.96259189,15.9994092 L6.96259189,13.9900571 L10.5560363,13.9900571 L11.566028,15.0000489 Z M22.9417247,15.9994092 L19.3482803,15.9994092 L18.34892,15.0000489 L19.3482803,13.9900571 L22.9417247,13.9900571 L22.9417247,15.9994092 Z M12.6291772,18.7954916 L10.0882506,21.3257868 L8.66363064,19.9011668 L11.1939258,17.3602402 L12.6291772,17.3602402 L12.6291772,18.7954916 Z M21.3257379,19.9011668 L19.9011179,21.3257868 L17.3601913,18.7954916 L17.3601913,17.3602402 L18.7954427,17.3602402 L21.3257379,19.9011668 Z M15.9993603,22.9417736 L13.9900082,22.9417736 L13.9900082,19.3483292 L14.9893685,18.348969 L15.9993603,19.3483292 L15.9993603,22.9417736 Z" id="path896" stroke-opacity="0" stroke="#000000" stroke-width="0.64"></path>
                <polygon id="path898" fill="#EFA724" fill-rule="nonzero" points="15.9993603 12.6717521 14.9893685 13.5647975 13.9900082 12.6717521 13.9900082 13.9900571 12.6717032 13.9900571 13.5647486 15.0000489 12.6717032 15.9994092 13.9900082 15.9994092 13.9900082 17.3177142 14.9893685 16.4246689 15.9993603 17.3177142 15.9993603 15.9994092 17.3176653 15.9994092 16.42462 15.0000489 17.3176653 13.9900571 15.9993603 13.9900571"></polygon>
                <polygon id="path898" fill-opacity="0" fill="#000000" fill-rule="nonzero" points="14.9893685 13.5647975 13.9900082 12.6717521 13.9900082 13.9900571 12.6717032 13.9900571 13.5647486 15.0000489 12.6717032 15.9994092 13.9900082 15.9994092 13.9900082 17.3177142 14.9893685 16.4246689 15.9993603 17.3177142 15.9993603 15.9994092 17.3176653 15.9994092 16.42462 15.0000489 17.3176653 13.9900571 15.9993603 13.9900571 15.9993603 12.6717521"></polygon>
                <polygon id="path898" stroke-opacity="0" stroke="#000000" stroke-width="0.64" points="13.9900082 12.6717521 13.9900082 13.9900571 12.6717032 13.9900571 13.5647486 15.0000489 12.6717032 15.9994092 13.9900082 15.9994092 13.9900082 17.3177142 14.9893685 16.4246689 15.9993603 17.3177142 15.9993603 15.9994092 17.3176653 15.9994092 16.42462 15.0000489 17.3176653 13.9900571 15.9993603 13.9900571 15.9993603 12.6717521 14.9893685 13.5647975"></polygon>
                <polygon id="path900" fill="#EFA724" fill-rule="nonzero" points="18.3170256 6.97327229 19.9542754 8.61052209 17.4239802 11.1408172 17.4239802 12.5654372 18.8486002 12.5654372 21.3788953 10.035142 23.0267766 11.6723918 23.0161451 6.97327229"></polygon>
                <polygon id="path900" fill-opacity="0" fill="#000000" fill-rule="nonzero" points="19.9542754 8.61052209 17.4239802 11.1408172 17.4239802 12.5654372 18.8486002 12.5654372 21.3788953 10.035142 23.0267766 11.6723918 23.0161451 6.97327229 18.3170256 6.97327229"></polygon>
                <polygon id="path900" stroke-opacity="0" stroke="#000000" stroke-width="0.64" points="17.4239802 11.1408172 17.4239802 12.5654372 18.8486002 12.5654372 21.3788953 10.035142 23.0267766 11.6723918 23.0161451 6.97327229 18.3170256 6.97327229 19.9542754 8.61052209"></polygon>
            </g>
        </g>
    </g>
</svg>
