<?xml version="1.0" encoding="UTF-8"?>
<svg width="31px" height="31px" viewBox="0 0 31 31" version="1.1" xmlns="http://www.w3.org/2000/svg" xmlns:xlink="http://www.w3.org/1999/xlink">
    <g id="页面-1" stroke="none" stroke-width="1" fill="none" fill-rule="evenodd">
        <g id="icon" transform="translate(-1940.000000, -106.000000)" fill="#98A3B7" fill-rule="nonzero">
            <g id="编组-6" transform="translate(1918.000000, 90.000000)">
                <g id="debian" transform="translate(22.000000, 16.000000)">
                    <rect id="矩形" opacity="0" x="0" y="0" width="30.273219" height="30.273219"></rect>
                    <path d="M17.5080018,15.9943409 C17.0034679,15.9943409 17.6089322,16.2466374 18.2648323,16.3475383 C18.4414458,16.22139 18.605406,16.0700239 18.7567721,15.9312815 C18.3468918,16.0214015 17.9248755,16.0427121 17.5080018,15.9943409 M20.2073737,15.3258171 C20.4974822,14.9095604 20.7119372,14.4554621 20.8002144,13.9887401 C20.7245313,14.3293138 20.5479474,14.6194519 20.3839576,14.9095604 C19.4379195,15.502401 20.2956804,14.5689866 20.3839576,14.2031951 C19.3748602,15.4771832 20.2452152,14.9600256 20.2073737,15.3258171 M21.1912533,12.7399698 C21.2543127,11.8317732 21.0146694,12.1092876 20.9389863,12.462485 C21.0272635,12.5129207 21.1029466,13.0931672 21.1912533,12.7399698 M15.6159256,0.391038933 C15.8682221,0.441474589 16.1835485,0.479316113 16.1457069,0.542405028 C16.435845,0.479316113 16.4989044,0.416256761 15.6033315,0.391038933 M16.1457069,0.542405028 L15.9564993,0.642405028 L16.1331128,0.609045653 L16.1331128,0.542405028 M24.4960896,13.0805435 C24.5213074,13.8878392 24.243793,14.2788781 24.0167439,14.9726197 L23.5752693,15.1996689 C23.2220719,15.8808163 23.6131108,15.641173 23.3608438,16.1835485 C22.8058151,16.6754883 21.6705694,17.7224568 21.3174016,17.8233577 C21.065105,17.8233577 21.4939855,17.5080018 21.5570448,17.3944772 C20.8128381,17.8990407 20.9515805,18.1513077 19.8289584,18.4666636 L19.7911169,18.3909805 C16.9908442,19.7028102 13.1057909,17.1043687 13.1688503,13.5472655 C13.1310087,13.7616909 13.0805435,13.7112553 13.0174842,13.7995325 C12.8603027,11.9468902 13.8643213,10.1898547 15.5402426,9.38469789 C17.0852165,8.60772853 18.9472902,8.84735146 20.2452152,9.99016227 C19.4273204,8.92916188 18.1535793,8.32038315 16.8142602,8.35035305 C15.3258171,8.36297675 13.9383044,9.30901484 13.4715825,10.330736 C12.714752,10.8100521 12.6264452,12.1849706 12.2984952,12.4246435 C11.8443969,15.7042324 13.1310087,17.1169924 15.3005993,18.7820195 C15.641173,19.0216628 15.4015002,19.0469101 15.4519654,19.2234941 C14.7148286,18.8737586 14.0578155,18.3756343 13.5220477,17.7602983 C13.8121562,18.1765551 14.1148884,18.5928119 14.5311451,18.9081382 C13.837374,18.681089 12.9291774,17.2683585 12.6642868,17.2052696 C13.837374,19.2991771 17.4323188,20.8885211 19.2991771,20.1064728 C18.3059538,20.1769121 17.308416,20.0570326 16.360162,19.7532754 C15.9439052,19.5514441 15.3888765,19.1099695 15.4771832,19.0342864 C17.9635483,20.0800152 20.8236211,19.6728179 22.9193397,17.9747238 C23.4743684,17.5332492 24.0924269,16.7890128 24.2690404,16.7764187 C24.0167439,17.1800518 24.3194761,16.9782205 24.1176743,17.3314179 C24.6726735,16.4232213 23.8653778,16.9530026 24.6978913,15.7672917 L25.0006235,16.1835485 C24.8870989,15.426718 25.9340675,14.5185214 25.833137,13.3328401 C26.0728099,12.9544248 26.0854336,13.7112553 25.833137,14.5563629 C26.1989581,13.6229485 25.9340675,13.4842062 26.0223446,12.714752 C26.1232751,12.967019 26.2493938,13.2445333 26.3124827,13.509424 C26.0854336,12.6264452 26.5647497,11.995763 26.6656505,11.4911995 C26.552126,11.4281402 26.3124827,11.8696148 26.2620175,10.8226758 C26.2620175,10.3559538 26.3881657,10.5704088 26.4386014,10.4694784 C26.3377005,10.406419 26.1106514,10.0658453 25.9592853,9.38469789 C26.0601862,9.2207081 26.2367997,9.80095465 26.3881657,9.81357835 C26.2872353,9.28379701 26.1358692,8.86754025 26.1358692,8.45128349 C25.7070183,7.59352258 25.9845031,8.5774022 25.6313353,8.07286825 C25.2024548,6.6979497 26.0097505,7.75751237 26.0601862,7.13942429 C26.7413336,8.11070978 27.1197488,9.61174703 27.2963623,10.2424292 C27.1702141,9.48559877 26.9431649,8.72876829 26.6782742,8.02240303 C26.8801056,8.11070978 26.3503242,6.45827687 26.9431649,7.55568105 C26.1581121,5.19345889 24.5089701,3.21539669 22.326499,2.01822445 C22.5535482,2.2326499 22.8562803,2.51016426 22.7427558,2.54800579 C21.7967177,1.98038293 21.9607075,1.94254141 21.8219355,1.70286857 C21.0525109,1.38751268 21.0020457,1.7280864 20.484888,1.70286857 C19.0216628,0.920820266 18.744178,1.00909745 17.4071009,0.504563505 L17.4701603,0.794671999 C16.4989044,0.479316113 16.3349146,0.920820266 15.2879756,0.794671999 C15.2249162,0.744206779 15.6285493,0.618088076 15.9564993,0.567622856 C15.0230849,0.693771123 15.0735501,0.391038933 14.1527299,0.60546438 C14.3671553,0.441474589 14.6068282,0.340573714 14.846501,0.201831315 C14.0896705,0.25226697 13.0301079,0.643305904 13.3580579,0.290108494 C12.1092876,0.85773135 9.90185553,1.63980922 8.66570894,2.80027276 L8.62786742,2.5227584 C8.06024456,3.20390582 6.15554468,4.55360655 6.00417858,5.43655572 L5.84021835,5.47439725 C5.5500803,5.97896075 5.36087268,6.54658361 5.1212294,7.06374125 C4.74281416,7.71967084 4.55360655,7.31603778 4.6166659,7.41693865 C3.85983542,8.95581743 3.48142019,10.2550529 3.15347017,11.3272393 C3.38051931,11.667813 3.15347017,13.4085231 3.24174735,14.8086595 C2.86333211,21.6958168 8.08546239,28.3937665 13.7869383,29.945269 C14.632046,30.2353775 15.8682221,30.2353775 16.9277848,30.2605953 C15.6790145,29.9074275 15.5150247,30.0713877 14.304096,29.6425368 C13.4211172,29.2388742 13.2319096,28.7595581 12.6138511,28.217153 L12.8661181,28.6586572 C11.6425656,28.2297767 12.1471291,28.1288758 11.1506258,27.81352 L11.4155165,27.4729462 C11.0245071,27.4351047 10.3685775,26.8044225 10.1919936,26.4512251 L9.76311313,26.4638488 C9.24595549,25.833137 8.96844113,25.3664446 8.99365896,25.0006235 L8.85491656,25.25292 C8.69092677,24.9880294 6.93762254,22.8562803 7.84581911,23.3482202 C7.68182932,23.1968541 7.45478018,23.0959532 7.21510734,22.654449 L7.39172083,22.4400236 C6.95021667,21.8850244 6.58442513,21.1534118 6.60964296,20.9263626 C6.86193949,21.2290948 7.01330559,21.3047779 7.17726582,21.3426194 C6.0672675,18.605406 6.00417858,21.1912533 5.15907093,18.5675645 L5.34827854,18.5423466 C5.22213028,18.3405153 5.1212294,18.1134662 5.02029896,17.8990407 L5.09598201,17.1422103 C4.30131001,16.2087959 4.86893287,13.2319096 4.98245744,11.59213 C5.07076418,10.9109825 5.65101073,10.2045877 6.09248532,9.0945894 L5.82759466,9.04412418 C6.33215816,8.1485513 8.77923351,5.42396159 9.91447922,5.56270399 C10.4568843,4.86893287 9.80095465,5.56270399 9.68743008,5.38612007 C10.8983588,4.13734978 11.2767741,4.50314133 12.0840698,4.27609218 C12.967019,3.77152868 11.3272393,4.4779235 11.7434961,4.08688457 C13.257157,3.70846933 12.8156529,3.20390582 14.7960358,3.0146982 C14.9978671,3.14084647 14.304096,3.19131169 14.1401062,3.34267779 C15.4015002,2.72458971 18.1134662,2.8759558 19.8920178,3.6832515 C21.9480838,4.65450742 24.2564167,7.47999801 24.3447235,10.1541521 L24.4456243,10.1793699 C24.3951591,11.2515562 24.6096141,12.4750791 24.2311989,13.5977307 L24.4834659,13.0679494 M12.0336046,16.688112 L11.9705452,17.0413094 C12.2984952,17.482784 12.5633859,17.9621001 12.9796426,18.3152975 C12.6769105,17.7224568 12.4498613,17.482784 12.0336046,16.6754883 M12.8156529,16.6502705 C12.6390689,16.4610628 12.5381681,16.22139 12.4246435,15.9943409 C12.5255444,16.3980035 12.7525935,16.7511713 12.967019,17.1043687 L12.8156529,16.6502705 M26.6152149,13.6481664 L26.5269081,13.837374 C26.4007599,14.7960358 26.0980277,15.7420739 25.6565531,16.6250526 C26.1611166,15.7042324 26.4764429,14.6825112 26.6025912,13.6481664 M15.7042324,0.151366095 C16.0448061,0.0252178279 16.5367459,0.0883067433 16.9025374,0 C16.435845,0.0378415238 15.969123,0.0630593517 15.5150247,0.126148267 L15.7042324,0.151366095 M3.79677607,6.48352426 C3.88505325,7.20251321 3.25437104,7.4926217 3.93551847,7.01330559 C4.31393371,6.18079207 3.79677607,6.78625645 3.8093702,6.48352426 M3.00210407,9.83879618 C3.15347017,9.34685637 3.19131169,9.05674787 3.25437104,8.77923351 C2.81289645,9.33423267 3.0399456,9.44775724 3.00210407,9.82617248" id="形状"></path>
                </g>
            </g>
        </g>
    </g>
</svg>
