<?xml version="1.0" encoding="UTF-8"?>
<svg width="32px" height="32px" viewBox="0 0 32 32" version="1.1" xmlns="http://www.w3.org/2000/svg" xmlns:xlink="http://www.w3.org/1999/xlink">
    <g id="页面-1" stroke="none" stroke-width="1" fill="none" fill-rule="evenodd">
        <g id="icon" transform="translate(-1241.000000, -230.000000)">
            <g id="编组-4" transform="translate(1242.000000, 231.000000)">
                <path d="M15,0.77 C22.85,0.77 29.22,7.14 29.22,15 C29.22,22.85 22.85,29.22 15,29.22 C7.14,29.22 0.77,22.85 0.77,15 C0.77,7.14 7.14,0.77 15,0.77 Z M15,2.08 C7.86,2.08 2.08,7.86 2.08,15 C2.08,22.13 7.86,27.91 15,27.91 C22.13,27.91 27.91,22.13 27.91,15 C27.91,7.86 22.13,2.08 15,2.08 Z M10.99,4.5 C9.2,6.23 7.89,6.99 8.26,10 C8.63,13.01 11.84,14.94 14.89,14.99 L15.1,15 C18.15,15.05 20.61,17.54 20.61,20.61 C20.61,23.71 18.1,26.22 15,26.22 C8.79,26.22 3.77,21.2 3.77,15 C3.77,10.21 6.77,6.12 10.99,4.5 Z M6.06,16.64 C6.06,16.64 6.14,18.22 6.95,19.75 C7.74,21.23 9.86,23.84 12.09,24.19 C12.18,24.21 12.28,24.22 12.38,24.22 C13.09,24.22 13.67,23.64 13.67,22.93 C13.67,22.22 13.09,21.64 12.38,21.64 C10.93,21.44 9.76,21.04 8.87,20.43 C6.72,18.97 6.13,16.88 6.06,16.64 Z" id="形状结合" fill="#808080" fill-rule="nonzero"></path>
                <path d="M29.22,15 C29.22,22.85 22.85,29.22 15,29.22 C7.14,29.22 0.77,22.85 0.77,15 C0.77,7.14 7.14,0.77 15,0.77 C22.85,0.77 29.22,7.14 29.22,15 Z M2.08,15 C2.08,22.13 7.86,27.91 15,27.91 C22.13,27.91 27.91,22.13 27.91,15 C27.91,7.86 22.13,2.08 15,2.08 C7.86,2.08 2.08,7.86 2.08,15 Z M8.26,10 C8.63,13.01 11.84,14.94 14.89,14.99 L15.1,15 C18.15,15.05 20.61,17.54 20.61,20.61 C20.61,23.71 18.1,26.22 15,26.22 C8.79,26.22 3.77,21.2 3.77,15 C3.77,10.21 6.77,6.12 10.99,4.5 C9.2,6.23 7.89,6.99 8.26,10 Z M6.95,19.75 C7.74,21.23 9.86,23.84 12.09,24.19 C12.18,24.21 12.28,24.22 12.38,24.22 C13.09,24.22 13.67,23.64 13.67,22.93 C13.67,22.22 13.09,21.64 12.38,21.64 C10.93,21.44 9.76,21.04 8.87,20.43 C6.72,18.97 6.13,16.88 6.06,16.64 C6.06,16.64 6.14,18.22 6.95,19.75 Z" id="形状结合" stroke-opacity="0" stroke="#000000"></path>
                <rect id="画板-329" fill-opacity="0" fill="#FFFFFF" fill-rule="nonzero" x="0" y="0" width="30" height="30.0004331"></rect>
                <rect id="画板-329" stroke-opacity="0" stroke="#000000" x="0" y="0" width="30" height="30.0004331"></rect>
            </g>
        </g>
    </g>
</svg>
