<?xml version="1.0" encoding="UTF-8"?>
<svg width="31px" height="30px" viewBox="0 0 31 30" version="1.1" xmlns="http://www.w3.org/2000/svg" xmlns:xlink="http://www.w3.org/1999/xlink">
    <title>Fedora-weak</title>
    <g id="页面-1" stroke="none" stroke-width="1" fill="none" fill-rule="evenodd">
        <g id="icon" transform="translate(-1884.000000, -230.000000)" fill="#98A3B7">
            <g id="Fedora-weak" transform="translate(1884.600590, 230.310060)">
                <path d="M0.00278224479,14.7121409 C0.0174433706,6.58383451 6.72437047,0 15.0080479,0 L14.9947887,0.0131830583 C23.2857695,0.0131830583 30,6.59701756 30,14.7252914 C30,22.8492288 23.2945727,29.4321721 15.0094607,29.4374975 L3.41119513,29.4374975 C1.53114756,29.4374975 0.0066404358,27.9443232 0.00278224479,26.1008687 L0,26.1008687 L0,14.7121409 L0.00278224479,14.7121409 Z M13.3646759,10.0478597 C13.6508341,7.7809388 15.7180637,6.05336041 18.0581924,6.05336041 L18.0565622,6.05770767 C20.5754718,6.05770767 22.9537583,7.94955805 22.9537583,10.5593145 L22.9537583,10.5848547 C22.9537583,10.8185198 22.9537583,11.053163 22.9148398,11.3180196 C22.8450663,12.0122767 22.198303,12.5112331 21.49383,12.4134198 C20.7894656,12.3143024 20.3113759,11.6584099 20.441685,10.9719779 C20.4536399,10.8936186 20.4578785,10.7705912 20.4578785,10.5590972 C20.4578785,9.07907335 19.2233661,8.50773504 18.0562361,8.50773504 C16.8893235,8.50773504 15.837722,9.47010916 15.8360917,10.5590972 C15.8495682,11.3983352 15.8451123,12.2333347 15.8406563,13.0690949 C15.838374,13.4873011 15.8360917,13.9057246 15.8360917,14.3251263 L18.0020041,14.3092588 C19.6929786,14.2749155 19.7119978,16.7725236 18.0214581,16.760786 L15.8366351,16.7766535 C15.8335921,17.3410362 15.8364178,17.5340544 15.8385914,17.6826219 C15.8403303,17.80065 15.8416345,17.8905295 15.8393522,18.1164782 C15.8393522,18.1164782 15.8577193,19.3552293 15.8200069,20.2939108 C15.558628,23.0517023 13.164702,25.2556532 10.2882304,25.2556532 C7.23885753,25.2556532 4.72721865,22.8114076 4.72721865,19.8133215 C4.81877189,16.7302465 7.32530274,14.3051289 10.4830962,14.3329514 L12.2444963,14.3199096 L12.2444963,16.7670895 L10.4830962,16.782957 L10.4738583,16.782957 C8.73886785,16.8332765 7.25149718,17.9892123 7.22365299,19.8119087 C7.22365299,21.4721263 8.59138714,22.8026044 10.2892085,22.8026044 C11.984639,22.8026044 13.3415267,21.592654 13.3415267,19.8147344 L13.3388097,10.5463814 C13.3398965,10.3743387 13.3454392,10.2376175 13.3646759,10.0478597 Z" id="形状"></path>
            </g>
        </g>
    </g>
</svg>