<?xml version="1.0" encoding="UTF-8"?>
<svg width="16px" height="16px" viewBox="0 0 16 16" version="1.1" xmlns="http://www.w3.org/2000/svg" xmlns:xlink="http://www.w3.org/1999/xlink">
    <g id="页面-1" stroke="none" stroke-width="1" fill="none" fill-rule="evenodd">
        <g id="实例详情-监控" transform="translate(-558.000000, -336.000000)" fill="#999999" fill-rule="nonzero">
            <g id="📊-智能图表" transform="translate(240.000000, 318.000000)">
                <g id="编组-8" transform="translate(294.000000, 18.000000)">
                    <g id="全屏" transform="translate(24.000000, 0.000000)">
                        <rect id="矩形" opacity="0" x="0" y="0" width="16" height="16"></rect>
                        <path d="M1.33332812,10.6666719 L1.33332812,12.6666719 C1.33332812,13.7712414 2.22875863,14.6666719 3.33332812,14.6666719 L5.33332812,14.6666719 C5.70152083,14.6666719 6,14.3681927 6,14 C6,13.6318073 5.70152083,13.3333281 5.33332812,13.3333281 L3.33332812,13.3333281 C2.96514762,13.3333195 2.6666805,13.0348524 2.66667187,12.6666719 L2.66667187,10.6666719 C2.66667187,10.2984792 2.36819271,10 2,10 C1.63180729,10 1.33332812,10.2984792 1.33332812,10.6666719 L1.33332812,10.6666719 Z M10.6666719,14.6666719 L12.6666719,14.6666719 C13.7712414,14.6666719 14.6666719,13.7712414 14.6666719,12.6666719 L14.6666719,10.6666719 C14.6666719,10.2984792 14.3681927,10 14,10 C13.6318073,10 13.3333281,10.2984792 13.3333281,10.6666719 L13.3333281,12.6666719 C13.3333195,13.0348524 13.0348524,13.3333195 12.6666719,13.3333281 L10.6666719,13.3333281 C10.2984792,13.3333281 10,13.6318073 10,14 C10,14.3681927 10.2984792,14.6666719 10.6666719,14.6666719 L10.6666719,14.6666719 Z M14.6666719,5.33332812 L14.6666719,3.33332813 C14.6666719,2.22875863 13.7712414,1.33332813 12.6666719,1.33332813 L10.6666719,1.33332813 C10.2984792,1.33332813 10,1.63180729 10,2 C10,2.36819271 10.2984792,2.66667187 10.6666719,2.66667188 L12.6666719,2.66667188 C13.0348524,2.6666805 13.3333195,2.96514762 13.3333281,3.33332813 L13.3333281,5.33332812 C13.3333281,5.70152083 13.6318073,6 14,6 C14.3681927,6 14.6666719,5.70152083 14.6666719,5.33332812 Z M5.33332812,1.33332812 L3.33332812,1.33332812 C2.22875863,1.33332812 1.33332812,2.22875863 1.33332812,3.33332812 L1.33332812,5.33332812 C1.33332812,5.70152083 1.63180729,5.99999999 2,5.99999999 C2.36819271,5.99999999 2.66667187,5.70152083 2.66667187,5.33332812 L2.66667187,3.33332812 C2.6666805,2.96514762 2.96514762,2.6666805 3.33332812,2.66667188 L5.33332812,2.66667188 C5.70152083,2.66667188 6,2.36819271 6,2 C6,1.63180729 5.70152083,1.33332812 5.33332812,1.33332812 L5.33332812,1.33332812 Z" id="形状"></path>
                    </g>
                </g>
            </g>
        </g>
    </g>
</svg>
