<?xml version="1.0" encoding="UTF-8"?>
<svg width="24px" height="24px" viewBox="0 0 24 24" version="1.1" xmlns="http://www.w3.org/2000/svg" xmlns:xlink="http://www.w3.org/1999/xlink">
    <title>khslj</title>
    <g id="页面-1" stroke="none" stroke-width="1" fill="none" fill-rule="evenodd">
        <g id="icon" transform="translate(-692.000000, -278.000000)" fill="#FC8C00" fill-rule="nonzero">
            <g id="khslj" transform="translate(692.000000, 278.000000)">
                <rect id="矩形" opacity="0" x="0" y="0" width="24" height="24"></rect>
                <path d="M17.904,10.6751953 L16.0368047,11.7503906 L19.4831953,17.388 C19.4831953,17.388 20.6135859,17.592 21.4224141,16.5168047 L17.9039766,10.6751953 L17.904,10.6751953 Z" id="路径"></path>
                <path d="M21.6911953,17.3016094 C21.6911953,17.3016094 21.2591953,17.8823906 20.3088047,18.0023906 L14.3663906,17.9856094 L14.3663906,17.5583906 L12.8231953,19.0103906 L14.2943906,20.496 L14.3111953,20.052 L19.3368047,20.1551953 C19.3391953,20.1551953 21.7823906,20.088 21.6911953,17.3016094 Z M11.7288047,18.0023906 L11.7288047,20.0351953 L4.656,20.052 C4.656,20.052 4.13521875,19.0943906 4.85280469,18.0023906 L11.7288047,18.0023906 L11.7288047,18.0023906 Z" id="形状"></path>
                <path d="M3.83039062,19.8311953 C3.83039062,19.8311953 3.48960937,18.7031953 4.49519531,17.4576094 L6.864,13.5456094 L7.296,13.6991953 L6.79439062,11.6495859 L4.69439063,12.1631953 L5.07119531,12.42 L2.628,16.2768047 C2.628,16.2768047 1.37039062,18.6528047 3.83039062,19.8311953 L3.83039062,19.8311953 Z M6.38160937,10.3511953 L8.18639062,11.4143906 L11.6471953,5.688 C11.6471953,5.688 11.0783906,4.72560938 9.89519531,4.55280469 L6.38160937,10.3511719 L6.38160937,10.3511953 Z" id="形状"></path>
                <path d="M10.5192188,3.96 C10.5192188,3.96 11.5607812,4.17360937 12.3023906,5.54639062 C13.044,6.91678125 14.7096094,9.63839062 14.7096094,9.63839062 L14.3543906,9.88319531 L16.4496094,10.4448047 L17.0736094,8.46960937 L16.6223906,8.664 L14.2703906,4.656 C14.2703906,4.656 13.0992188,2.62080469 10.5192188,3.96 Z" id="路径"></path>
            </g>
        </g>
    </g>
</svg>