<?xml version="1.0" encoding="UTF-8"?>
<svg width="24px" height="24px" viewBox="0 0 24 24" version="1.1" xmlns="http://www.w3.org/2000/svg" xmlns:xlink="http://www.w3.org/1999/xlink">
    <title>poweroff-outlined</title>
    <g id="页面-1" stroke="none" stroke-width="1" fill="none" fill-rule="evenodd">
        <g id="icon" transform="translate(-692.000000, -197.000000)" fill="#0FBE5B" fill-rule="nonzero">
            <g id="poweroff-outlined" transform="translate(692.000000, 197.000000)">
                <rect id="矩形" opacity="0" x="0" y="0" width="24" height="24"></rect>
                <path d="M16.5375,2.92734375 C16.4132812,2.8640625 16.265625,2.95546875 16.265625,3.09609375 L16.265625,4.60078125 C16.265625,4.7296875 16.3335937,4.84921875 16.4414062,4.91953125 C16.9664062,5.25 17.4539062,5.6390625 17.8992187,6.08671875 C18.665625,6.85546875 19.2679687,7.7484375 19.6875,8.7421875 C20.1210937,9.77109375 20.3414062,10.8632812 20.3414062,11.9929688 C20.3414062,13.1203125 20.1210937,14.2148438 19.6875,15.24375 C19.2679687,16.2375 18.665625,17.1304687 17.8992187,17.8992187 C17.1328125,18.6679688 16.2398437,19.2703125 15.2460937,19.6898437 C14.2195312,20.1257812 13.125,20.3460937 12,20.3460937 C10.875,20.3460937 9.78046875,20.1257812 8.75390625,19.6898437 C7.76015625,19.2703125 6.8671875,18.6679688 6.10078125,17.8992187 C5.334375,17.1304687 4.73203125,16.2375 4.3125,15.24375 C3.87890625,14.2148438 3.65859375,13.1226562 3.65859375,11.9929688 C3.65859375,10.865625 3.87890625,9.77109375 4.3125,8.7421875 C4.73203125,7.7484375 5.334375,6.85546875 6.10078125,6.08671875 C6.54609375,5.64140625 7.03359375,5.25234375 7.55859375,4.91953125 C7.66875,4.8515625 7.734375,4.7296875 7.734375,4.60078125 L7.734375,3.09375 C7.734375,2.953125 7.58671875,2.8640625 7.4625,2.925 C4.18359375,4.575 1.921875,7.95234375 1.875,11.8664063 C1.809375,17.4632813 6.38671875,22.1132812 11.98125,22.1250226 C17.5828125,22.1367187 22.125,17.5945313 22.125,11.990625 C22.125,8.025 19.8515625,4.59140625 16.5375,2.92734375 Z M11.25,13.125 L12.75,13.125 C12.853125,13.125 12.9375,13.040625 12.9375,12.9375 L12.9375,2.0625 C12.9375,1.959375 12.853125,1.875 12.75,1.875 L11.25,1.875 C11.146875,1.875 11.0625,1.959375 11.0625,2.0625 L11.0625,12.9375 C11.0625,13.040625 11.146875,13.125 11.25,13.125 Z" id="形状"></path>
            </g>
        </g>
    </g>
</svg>