<?xml version="1.0" encoding="UTF-8"?>
<svg width="24px" height="24px" viewBox="0 0 24 24" version="1.1" xmlns="http://www.w3.org/2000/svg" xmlns:xlink="http://www.w3.org/1999/xlink">
    <g id="页面-1" stroke="none" stroke-width="1" fill="none" fill-rule="evenodd">
        <g id="实例详情-基本信息" transform="translate(-1041.000000, -220.000000)" fill="#0063FF" fill-rule="nonzero">
            <g id="fund-outlined" transform="translate(1041.000000, 220.000000)">
                <rect id="矩形" opacity="0" x="0" y="0" width="24" height="24"></rect>
                <path d="M21.703125,3.84375 L2.203125,3.84375 C1.78828125,3.84375 1.453125,4.17890625 1.453125,4.59375 L1.453125,19.59375 C1.453125,20.0085937 1.78828125,20.34375 2.203125,20.34375 L21.703125,20.34375 C22.1179688,20.34375 22.453125,20.0085937 22.453125,19.59375 L22.453125,4.59375 C22.453125,4.17890625 22.1179688,3.84375 21.703125,3.84375 Z M20.765625,18.65625 L3.140625,18.65625 L3.140625,5.53125 L20.765625,5.53125 L20.765625,18.65625 Z M5.32265625,16.7273438 C5.3953125,16.8 5.51484375,16.8 5.5875,16.7273438 L9.63046875,12.684375 L12.3117188,15.3679688 C12.384375,15.440625 12.5039062,15.440625 12.5765625,15.3679688 L19.5375,8.40234375 C19.6101562,8.3296875 19.6101562,8.21015625 19.5375,8.1375 L18.675,7.275 C18.6023437,7.20234375 18.4828125,7.20234375 18.4101562,7.275 L12.4453125,13.2421875 L9.7640625,10.5585938 C9.69140625,10.4859375 9.571875,10.4859375 9.49921875,10.5585938 L4.4625,15.5976562 C4.38984375,15.6703125 4.38984375,15.7898438 4.4625,15.8625 L5.32265625,16.7273437 L5.32265625,16.7273438 Z" id="形状"></path>
            </g>
        </g>
    </g>
</svg>
