<?xml version="1.0" encoding="UTF-8"?>
<svg width="24px" height="24px" viewBox="0 0 24 24" version="1.1" xmlns="http://www.w3.org/2000/svg" xmlns:xlink="http://www.w3.org/1999/xlink">
    <title>laptop-outlined</title>
    <g id="页面-1" stroke="none" stroke-width="1" fill="none" fill-rule="evenodd">
        <g id="icon" transform="translate(-692.000000, -154.000000)" fill="#68CEFF" fill-rule="nonzero">
            <g id="laptop-outlined" transform="translate(692.000000, 154.000000)">
                <rect id="矩形" opacity="0" x="0" y="0" width="24" height="24"></rect>
                <path d="M22.4273437,19.8070313 L21.009375,14.8125 L21.009375,3.9375 C21.009375,3.52265625 20.6742188,3.1875 20.259375,3.1875 L3.759375,3.1875 C3.34453125,3.1875 3.009375,3.52265625 3.009375,3.9375 L3.009375,14.8125 L1.59140625,19.8070313 C1.415625,20.296875 1.7765625,20.8125 2.296875,20.8125 L21.721875,20.8125 C22.2421875,20.8125 22.603125,20.296875 22.4273437,19.8070313 Z M4.696875,4.875 L19.321875,4.875 L19.321875,14.1328125 L4.696875,14.1328125 L4.696875,4.875 Z M10.0476563,19.125 L10.2375,18.2578125 L13.7601563,18.2578125 L13.95,19.125 L10.0476563,19.125 Z M15.2976563,19.125 L14.85,17.0929687 C14.83125,17.00625 14.7539063,16.9453125 14.6671875,16.9453125 L9.3328125,16.9453125 C9.24375,16.9453125 9.16875,17.00625 9.15,17.0929687 L8.70234375,19.125 L3.5390625,19.125 L4.53046875,15.6328125 L19.4882813,15.6328125 L20.4796875,19.125 L15.2976563,19.125 Z" id="形状"></path>
            </g>
        </g>
    </g>
</svg>