<?xml version="1.0" encoding="UTF-8"?>
<svg width="24px" height="24px" viewBox="0 0 24 24" version="1.1" xmlns="http://www.w3.org/2000/svg" xmlns:xlink="http://www.w3.org/1999/xlink">
    <title>stop-outlined</title>
    <g id="页面-1" stroke="none" stroke-width="1" fill="none" fill-rule="evenodd">
        <g id="icon" transform="translate(-692.000000, -240.000000)" fill="#FE4D4F" fill-rule="nonzero">
            <g id="stop-outlined" transform="translate(692.000000, 240.000000)">
                <rect id="矩形" opacity="0" x="0" y="0" width="24" height="24"></rect>
                <path d="M12,1.5 C6.2015625,1.5 1.5,6.2015625 1.5,12 C1.5,17.7984375 6.2015625,22.5 12,22.5 C17.7984375,22.5 22.5,17.7984375 22.5,12 C22.5,6.2015625 17.7984375,1.5 12,1.5 Z M12,20.71875 C7.1859375,20.71875 3.28125,16.8140625 3.28125,12 C3.28125,9.9140625 4.01484375,7.996875 5.23828125,6.496875 L17.503125,18.7617188 C16.003125,19.9851563 14.0859375,20.71875 12,20.71875 Z M18.7617188,17.503125 L6.496875,5.23828125 C7.996875,4.01484375 9.9140625,3.28125 12,3.28125 C16.8140625,3.28125 20.71875,7.1859375 20.71875,12 C20.71875,14.0859375 19.9851563,16.003125 18.7617188,17.503125 Z" id="形状"></path>
            </g>
        </g>
    </g>
</svg>