<?xml version="1.0" encoding="UTF-8"?>
<svg width="32px" height="32px" viewBox="0 0 32 32" version="1.1" xmlns="http://www.w3.org/2000/svg" xmlns:xlink="http://www.w3.org/1999/xlink">
    <title>linux</title>
    <defs>
        <polygon id="path-1" points="-9.94484534e-16 -4.06257512e-15 26.8530302 -4.06257512e-15 26.8530302 10.2006118 -9.94484534e-16 10.2006118"></polygon>
    </defs>
    <g id="页面-1" stroke="none" stroke-width="1" fill="none" fill-rule="evenodd">
        <g id="icon" transform="translate(-2006.000000, -229.000000)">
            <g id="linux" transform="translate(2006.000000, 229.000000)">
                <rect id="矩形" fill="#98A3B7" fill-rule="nonzero" opacity="0" x="0" y="0" width="32" height="32"></rect>
                <g id="编组" transform="translate(2.570000, 0.000000)">
                    <path d="M13.8722345,4.78629081 C13.5650106,4.98602446 13.3294469,5.27952619 13.1967993,5.62258016 C13.0611024,6.06550095 13.082448,6.53739075 13.2509256,6.96963875 C13.3896719,7.42323234 13.6686891,7.81965026 14.0437615,8.10552857 C14.236634,8.24198782 14.4584756,8.32737014 14.6948017,8.35633914 C14.929603,8.3845458 15.1659291,8.34490401 15.3763355,8.23817611 C15.6263838,8.09866749 15.8268798,7.88063763 15.9450428,7.61991662 C16.0593941,7.35538389 16.1241932,7.07331729 16.1302919,6.78743898 C16.1562116,6.42303943 16.1089464,6.05787753 15.9953574,5.71177419 C15.8703333,5.33289014 15.6263838,5.00813238 15.2985766,4.78629081 C15.130099,4.67880057 14.9448499,4.60790275 14.7481656,4.57893375 C14.5514813,4.54996474 14.3509853,4.57207267 14.1649739,4.64373283 C14.0620577,4.68642399 13.9614285,4.73978794 13.8691851,4.80382468" id="Fill-1" fill="#FFFFFF"></path>
                    <path d="M24.0570495,19.3731744 C23.8748497,18.3623087 23.5889714,17.3720262 23.2062756,16.4213855 C22.9455546,15.713932 22.5918278,15.0423086 22.1519564,14.4278608 C21.7090356,13.837808 21.1479518,13.3407609 20.7157038,12.7446093 C20.4862388,12.4335737 20.2933662,12.086708 20.0547531,11.7832958 C19.9579357,11.5827999 19.8649299,11.3830662 19.7719242,11.1825702 C19.4860459,10.5574497 19.2253249,9.91784458 18.8860826,9.32474238 C18.8319563,9.23173664 18.7747807,9.1387309 18.7214167,9.04953686 C18.6787255,8.47778025 18.6177382,7.90602363 18.5857198,7.33426701 C18.6101148,6.18694206 18.5140596,5.03656774 18.2960298,3.90677667 C18.1458484,3.36780076 17.9171457,2.84940809 17.6175453,2.3775183 C17.2676302,1.82024618 16.817086,1.33387188 16.2880205,0.945077382 C15.4273362,0.333678971 14.397412,0.00510950108 13.3430928,0.00129779029 C12.5677908,-0.0169984215 11.7993499,0.158340275 11.1101926,0.515878747 C10.3844429,0.912296669 9.79820175,1.52369508 9.42999048,2.26316697 C9.08769885,3.01026229 8.90549908,3.81758263 8.89406395,4.63938748 C8.86585729,5.44747017 8.94056682,6.24792943 8.97334753,7.05524978 C9.0053659,7.89153913 8.98706969,8.73164018 9.05491814,9.56792953 C9.07702606,9.83551163 9.10904443,10.1038561 9.10904443,10.3752499 C9.10904443,10.5109468 9.10142101,10.6466437 9.09837164,10.7792912 L9.08769885,10.8074979 C8.7232993,11.4257574 8.31925796,12.0226713 7.87938653,12.5906162 C7.57216264,12.980173 7.26493875,13.3659182 6.95390315,13.7486139 C6.55062415,14.2022075 6.20680784,14.7061157 5.93541403,15.2496656 C5.75321425,15.7207931 5.60684456,16.2071674 5.49249324,16.7004028 L5.48182045,16.7392822 C5.31029346,17.3079895 5.09607531,17.8584005 4.83840367,18.3905153 C4.81324637,18.4400676 4.78885142,18.4941939 4.7667435,18.5406967 C4.61351273,18.8585934 4.45265853,19.1764901 4.28418092,19.4875257 L4.09207069,19.8481135 C3.97009595,20.0661434 3.86336805,20.2917967 3.7703623,20.5204993 C3.71623601,20.6592456 3.67354485,20.8025659 3.64838756,20.9489356 C3.60188468,21.2599712 3.62323027,21.5748185 3.70556322,21.874419 C3.72385943,21.9498909 3.74825438,22.0253627 3.77417401,22.0993099 C3.85269525,22.3211515 3.94493866,22.5391814 4.05624061,22.7465384 C4.10579285,22.8433559 4.1591568,22.9363616 4.20947138,23.0324167 L4.25597426,23.1002652 C4.30628884,23.1894592 4.35965279,23.2786532 4.41301674,23.3647979 L4.42064016,23.3754707 C4.48086519,23.4753375 4.54947599,23.572155 4.61351273,23.6689724 L4.62418552,23.6826946 C4.69203397,23.7757003 4.75988242,23.8717554 4.83154259,23.9647612 C5.09607531,24.9977348 5.58168727,25.9590483 6.25026134,26.7884765 C6.14658281,26.9706763 6.05357707,27.1490644 5.94989853,27.3282148 C5.58549898,27.8565179 5.28513617,28.4244628 5.05262181,29.0213767 C4.9565667,29.329363 4.93140941,29.6541207 4.98477336,29.9720174 C5.03508794,30.2937258 5.19975385,30.5834158 5.44980208,30.7938222 C5.61751735,30.9226581 5.81038992,31.0126144 6.01469761,31.0545433 C6.21824297,31.0979968 6.42864941,31.1193423 6.63981818,31.1086695 C7.43265403,31.0476822 8.21939114,30.8898773 8.9763969,30.6474525 C9.43380219,30.5262401 9.89120749,30.4187499 10.3562362,30.3257442 C10.8387988,30.2152045 11.3282225,30.1473561 11.8214578,30.1252482 C11.9426702,30.1290599 12.064645,30.1221988 12.1820457,30.1153377 C12.5182386,30.1511678 12.8536691,30.16489 13.1936737,30.1511678 L13.3186978,30.1435444 C13.4040802,30.1549795 13.4940365,30.1572665 13.5832306,30.16489 C14.1763328,30.1969083 14.7656232,30.2578957 15.3518644,30.3478521 C15.8664453,30.425611 16.3810263,30.5262401 16.8887462,30.6512643 C17.6709092,30.8875903 18.4751802,31.0446328 19.2931733,31.1117189 C19.5073915,31.1223917 19.7216096,31.1048578 19.9365901,31.0621667 C20.1469965,31.0187132 20.3474925,30.9257074 20.5190195,30.7976339 C20.7698301,30.5902769 20.9329713,30.3005869 20.9870976,29.9788785 C21.0404615,29.6609818 21.0160666,29.3354617 20.9192491,29.0290001 C20.6829231,28.4320862 20.3795109,27.8641413 20.0074879,27.3381252 C19.8794144,27.1200954 19.7574397,26.8952044 19.6286039,26.6771746 C20.1828266,26.0596774 20.6730126,25.3804306 21.0839151,24.6584925 C21.3339633,24.6722147 21.5801998,24.644008 21.8195752,24.5654868 C22.4454581,24.354318 22.9882458,23.9472273 23.3671298,23.4036774 C23.4814811,23.2428232 23.5706752,23.0644351 23.6248015,22.8753742 C23.871038,22.4926785 24.0395156,22.0634798 24.1172745,21.613698 C24.2316258,20.8704144 24.214092,20.1095969 24.0639105,19.3731744 L24.0570495,19.3731744 Z" id="Fill-3" fill="#020204"></path>
                    <path d="M13.8722345,4.78255534 C13.5650106,4.98305132 13.3294469,5.27579071 13.1967993,5.61884468 C13.0611024,6.06176548 13.082448,6.53365527 13.2509256,6.96590328 C13.3896719,7.41949686 13.6686891,7.81667713 14.0437615,8.10255544 C14.236634,8.23825234 14.4584756,8.324397 14.6948017,8.35260366 C14.929603,8.38081032 15.1659291,8.34193087 15.3763355,8.23444063 C15.6263838,8.09493201 15.8268798,7.8776645 15.9450428,7.61618114 C16.0593941,7.35241075 16.1241932,7.06958181 16.1302919,6.7837035 C16.1562116,6.41930395 16.1089464,6.0549044 15.9953574,5.70803872 C15.8703333,5.32915466 15.6263838,5.00439691 15.2985766,4.78255534 C15.130099,4.67506509 14.9448499,4.60416727 14.7481656,4.57519827 C14.5514813,4.54699161 14.3509853,4.56833719 14.1649739,4.63999735 C14.0620577,4.68268851 13.9614285,4.73605247 13.8691851,4.80008921 M10.4775248,4.78255534 C10.2846523,4.79703984 10.1024525,4.87861045 9.96294389,5.01125798 C9.82343527,5.14390552 9.71975674,5.31162079 9.66258108,5.49382057 C9.56652596,5.8650812 9.54136867,6.25463804 9.59473262,6.63733381 C9.6015937,6.98419949 9.66258108,7.33030283 9.7769324,7.6588723 C9.84096914,7.81972649 9.93397488,7.9699079 10.0559496,8.09493201 C10.177162,8.21995613 10.3311551,8.31296187 10.4988704,8.35565303 C10.6597246,8.39529482 10.8274399,8.38843374 10.981433,8.33811916 C11.1354261,8.28856692 11.2779841,8.20242226 11.3923354,8.08807093 C11.5600507,7.91654395 11.6812631,7.70537517 11.7430128,7.47743487 C11.8032379,7.24796988 11.8322069,7.00859444 11.8245834,6.769219 C11.8245834,6.4726679 11.7780806,6.1761168 11.6888865,5.89023849 C11.5996925,5.60436018 11.4456994,5.34363917 11.2383423,5.12560931 C11.1384755,5.02193077 11.0241242,4.93273674 10.8952883,4.8687 C10.7634032,4.80771263 10.6200828,4.77569426 10.4775248,4.78255534 M10.3136213,9.24911804 C10.2023193,9.39243837 10.1237981,9.56015364 10.0841563,9.73549234 C10.0452768,9.91083103 10.0201195,10.0930308 10.0163078,10.2714189 C10.027743,10.6320067 9.99877397,10.9933569 9.9271138,11.3470837 C9.80208969,11.7152949 9.61302884,12.0545372 9.36984169,12.3587117 C8.95131584,12.8832031 8.62274637,13.4732559 8.39785544,14.1021882 C8.28350411,14.4917451 8.24386232,14.8995981 8.28655348,15.3066888 C7.85430548,15.9462939 7.47923313,16.6255408 7.16895988,17.3322319 C6.68944666,18.4010356 6.38222277,19.5414995 6.25719866,20.705596 C6.10396788,22.1387992 6.31437432,23.586487 6.86478536,24.9160117 C7.26806436,25.8735135 7.88327448,26.7311484 8.66238816,27.4210681 C9.0626178,27.7671714 9.50172688,28.0606731 9.97361668,28.2924251 C11.6423837,29.1073689 13.597029,29.0890727 15.2482621,28.2428729 C16.0731163,27.7603103 16.8270727,27.1633964 17.484974,26.4742391 C17.9103609,26.0877316 18.2884826,25.6547213 18.6216261,25.1835938 C19.1758489,24.2222804 19.5006066,23.1428039 19.5684551,22.0351207 C19.911509,20.1201172 19.7003403,18.1479381 18.9646801,16.3465235 C18.6749901,15.7457979 18.2922943,15.1961492 17.8280279,14.716636 C17.7030038,13.8772973 17.460579,13.0585418 17.1068522,12.2870515 C16.8491806,11.7328288 16.538145,11.2037633 16.2987696,10.6358184 C16.2019521,10.4040664 16.1165698,10.1677403 16.0090795,9.9428494 C15.905401,9.71414676 15.762843,9.50297798 15.5875043,9.32458991 C15.3976811,9.14925122 15.1735525,9.01736602 14.9265537,8.94265649 C14.6795548,8.86337291 14.4264572,8.82068175 14.1687856,8.81382067 C13.6542046,8.78866338 13.1365743,8.85270012 12.6288544,8.83516625 C12.217952,8.81687004 11.8139106,8.74597222 11.4030082,8.77036717 C11.1994629,8.7818023 10.9959175,8.82068175 10.8060943,8.89615362 C10.6132217,8.97086315 10.4455065,9.09207556 10.3136213,9.25292975" id="Fill-5" fill="#FFFFFF"></path>
                    <path d="M14.5620017,5.69042861 C14.4476503,5.69728969 14.3401601,5.73311977 14.244105,5.79410715 C14.1472875,5.85433218 14.0657169,5.93666513 14.0009178,6.02967087 C13.8789431,6.21873173 13.811857,6.4405733 13.8080453,6.66927594 C13.7973725,6.83699122 13.8225298,7.0085182 13.8758937,7.1693724 C13.9292577,7.33022659 14.0298868,7.47354692 14.1579603,7.58027482 C14.2936572,7.69157678 14.4583231,7.75561352 14.6336618,7.76628631 C14.8082382,7.77314739 14.9805275,7.72740686 15.1230855,7.62754004 C15.2374368,7.54520708 15.3304426,7.44152855 15.3944793,7.31650444 C15.4592784,7.19452969 15.4989202,7.05883279 15.516454,6.92313588 C15.5522841,6.67994873 15.5088306,6.42990051 15.4021027,6.21187065 C15.2908008,5.99079142 15.1017399,5.82231381 14.8730373,5.73311977 C14.7724081,5.69347798 14.6694919,5.67975582 14.5620017,5.68280519" id="Fill-7" fill="#020204"></path>
                    <path d="M10.4774486,4.78629081 C10.284576,4.80077531 10.1023763,4.88234593 9.96286765,5.01499346 C9.82335904,5.14687865 9.7196805,5.31535627 9.66250484,5.49755605 C9.56644973,5.86881668 9.54129244,6.25837352 9.59465639,6.64106928 C9.60227981,6.98717262 9.66250484,7.33403831 9.77761851,7.66260778 C9.84165525,7.82727368 9.93466099,7.97364338 10.0558734,8.09866749 C10.1770858,8.2236916 10.3310789,8.31669735 10.4987942,8.35938851 C10.6596484,8.3990303 10.8273637,8.39140688 10.9813568,8.34185464 C11.1353499,8.29154006 11.2779079,8.20615773 11.3922592,8.09180641 C11.5599745,7.92027943 11.6819492,7.70911065 11.7429366,7.480408 C11.8031616,7.25170535 11.8321306,7.01232992 11.8245072,6.77295448 C11.8245072,6.47640338 11.7787667,6.17985228 11.6888103,5.89397397 C11.5996163,5.60809566 11.4463855,5.34737464 11.2390284,5.12934478 C11.1383993,5.02566625 11.0240479,4.93647222 10.8952121,4.87167314 C10.7633269,4.8114481 10.6200066,4.77942973 10.4774486,4.78629081" id="Fill-9" fill="#FFFFFF"></path>
                    <path d="M10.0166128,6.37646032 C9.9701099,6.61583576 9.98078269,6.86588399 10.0554922,7.09839834 C10.1126679,7.25162912 10.1988125,7.39113773 10.3131639,7.50930077 C10.384824,7.58782201 10.4663946,7.65567046 10.5632121,7.70217333 C10.6600296,7.75248792 10.7667575,7.76621008 10.8742477,7.74181513 C10.9703028,7.71665783 11.0526358,7.65948217 11.1136231,7.58096093 C11.1746105,7.50243969 11.2173017,7.41248331 11.2455083,7.31947757 C11.3278413,7.04122268 11.3209802,6.74467158 11.2317862,6.46565435 C11.1746105,6.262109 11.0640709,6.07609751 10.9062661,5.9365889 C10.8315565,5.87255215 10.7385508,5.82223757 10.6417333,5.79784262 C10.5418665,5.77268533 10.438188,5.77954641 10.3413705,5.82223757 C10.2415037,5.87255215 10.1591708,5.95488511 10.1096185,6.05475193 C10.0593039,6.15461875 10.0272856,6.262109 10.0128011,6.37264861" id="Fill-11" fill="#020204"></path>
                    <path d="M9.56286672,9.38153687 C9.5697278,9.41355524 9.58040059,9.44557362 9.5986968,9.47073091 C9.63071517,9.52104549 9.67035697,9.55992494 9.71990921,9.59270565 C9.76641208,9.62472402 9.81291495,9.65293068 9.85941782,9.68189968 C10.1056543,9.84961496 10.3236842,10.056972 10.4990229,10.3001592 C10.713241,10.6363521 10.9815855,10.9359525 11.2849977,11.1936242 C11.517512,11.3544784 11.7889058,11.4505335 12.0717348,11.4756908 C12.4003042,11.5008481 12.7326854,11.4619686 13.0505821,11.3613395 C13.3433215,11.2751948 13.6261504,11.1539824 13.8899208,10.9931282 C14.3435144,10.6287286 14.8298887,10.3070203 15.3444696,10.0394382 C15.4656821,9.996747 15.5876568,9.96396628 15.7020081,9.91060233 C15.8201712,9.86028775 15.920038,9.77490543 15.9810253,9.6605541 C16.0199048,9.54620278 16.0450621,9.42499038 16.0488738,9.30301563 C16.0664077,9.17494215 16.1090988,9.04915569 16.1304444,8.92108221 C16.1594134,8.79224639 16.1487406,8.65959885 16.1022378,8.53457474 C16.0526855,8.43851962 15.9734019,8.35999838 15.8765845,8.3096838 C15.7805294,8.26318093 15.6738015,8.23497427 15.5663112,8.23116256 C15.3482814,8.23802364 15.1340632,8.25936922 14.9228944,8.2951993 C14.6370161,8.32035659 14.3511378,8.28452651 14.0652595,8.2951993 C13.7115327,8.30587209 13.357806,8.38439333 13.0002675,8.39887783 C12.5931768,8.42022341 12.1891355,8.35618667 11.7820447,8.33789046 C11.606706,8.32721767 11.428318,8.33484109 11.2529793,8.36304775 C11.0776406,8.38820504 10.9099253,8.45224178 10.7635556,8.55287095 C10.6270964,8.65959885 10.5020723,8.77395017 10.3808599,8.89592492 C10.3168231,8.95310058 10.245163,9.00265282 10.1704534,9.04229461 C10.0911698,9.08117406 10.0095992,9.10328199 9.92040519,9.09947028 C9.87695169,9.0926092 9.83121116,9.0926092 9.78775766,9.09947028 C9.76260037,9.11014307 9.73744308,9.12462757 9.71990921,9.14216144 L9.66654525,9.20696052 C9.63071517,9.26032447 9.5986968,9.31750013 9.57353951,9.37467579" id="Fill-13" fill="#D99A03"></path>
                    <path d="M10.4595336,8.48113455 C10.3169756,8.56727921 10.177467,8.65952262 10.0379584,8.75634007 C9.96324882,8.80284294 9.90226145,8.86306797 9.85575858,8.93853985 C9.83060129,8.99571551 9.8199285,9.05670288 9.82374021,9.11692791 C9.82678958,9.17791528 9.82678958,9.23890266 9.82374021,9.29989003 C9.8199285,9.33876948 9.805444,9.38146064 9.805444,9.42491414 C9.805444,9.44625972 9.805444,9.4676053 9.81306742,9.48513917 C9.8199285,9.50648475 9.82678958,9.52478097 9.84127408,9.53926547 C9.85880795,9.55679934 9.88472758,9.57128384 9.91293424,9.57814492 C9.93809153,9.58576834 9.96629819,9.58881771 9.99526719,9.59567879 C10.1202913,9.63150887 10.2346426,9.70011966 10.3276484,9.78931369 C10.4237035,9.87469602 10.5098481,9.97456284 10.6135267,10.0568958 C10.899405,10.2718763 11.2455083,10.3824159 11.5999974,10.3786042 C11.9529619,10.3717431 12.3036392,10.3214285 12.6428815,10.2322345 C12.9112259,10.1750588 13.1757587,10.1033987 13.432668,10.0142046 C13.8328976,9.86402323 14.2011089,9.64599337 14.5190056,9.36392677 C14.6585142,9.22822987 14.8048839,9.10625512 14.9626887,8.99571551 C15.1052467,8.90652148 15.272962,8.8455341 15.4155199,8.76015178 C15.4300044,8.75252836 15.4414396,8.74185557 15.4551617,8.73499449 C15.4658345,8.7243217 15.4772697,8.71364891 15.4833684,8.69916441 C15.4948035,8.67400712 15.4948035,8.64580046 15.4833684,8.62064317 C15.4772697,8.59548587 15.4658345,8.57414029 15.45135,8.55660642 C15.4338161,8.5344985 15.4124706,8.51315292 15.391125,8.49561905 C15.2264591,8.37364431 15.0305371,8.3065582 14.8262294,8.29893478 C14.6196347,8.28445027 14.4229504,8.29893478 14.2224545,8.25929298 C14.036443,8.22041353 13.8542432,8.16628724 13.6758551,8.1022505 C13.4860319,8.04126313 13.2931594,7.9955226 13.0934257,7.96274188 C12.628397,7.88803235 12.1572696,7.89870514 11.6960525,7.99857196 C11.2638045,8.09538942 10.8452787,8.25929298 10.4595336,8.48113455" id="Fill-15" fill="#604405"></path>
                    <path d="M10.4130307,7.99529389 C10.206436,8.13480251 10.0196621,8.30632949 9.85880795,8.49920206 C9.76656455,8.60592996 9.69109267,8.73095408 9.64154043,8.86741332 C9.60875972,8.97414122 9.58741414,9.08544318 9.56988027,9.19598279 C9.55920748,9.23486224 9.5523464,9.27831575 9.5523464,9.32100691 C9.5523464,9.34235249 9.55539577,9.36369807 9.56301919,9.38123194 C9.56988027,9.40333986 9.58055306,9.42087373 9.59503756,9.43535823 C9.61943251,9.46051552 9.65221322,9.47423768 9.6880433,9.4818611 C9.72006167,9.48872218 9.75589176,9.48872218 9.79172184,9.49253389 C9.94876432,9.51769118 10.095134,9.58172792 10.2239698,9.67473367 C10.3520433,9.7639277 10.4740181,9.86760623 10.6059033,9.95298856 C10.9062661,10.132139 11.24932,10.2289564 11.5999974,10.2358175 C11.9499125,10.2426786 12.2967782,10.2068485 12.6360204,10.132139 C12.9074142,10.0818244 13.1757587,10.0071148 13.4364797,9.90724803 C13.8260365,9.73877041 14.1904361,9.52074055 14.5228173,9.25620782 C14.6768104,9.1418565 14.8262294,9.0206441 14.9657381,8.8887589 C15.0122409,8.84225603 15.0587438,8.79575316 15.108296,8.753062 C15.159373,8.7096085 15.2157863,8.67759013 15.2767737,8.65624454 C15.3735911,8.63108725 15.4734579,8.62803788 15.5733248,8.65243283 C15.6442226,8.67072905 15.7196945,8.67759013 15.7951663,8.67759013 C15.8340458,8.67759013 15.8698759,8.67072905 15.9057059,8.66005626 C15.941536,8.64557175 15.9735544,8.62422617 15.9949,8.59525717 C16.0269183,8.55637772 16.0414028,8.50987485 16.0414028,8.45956027 C16.0414028,8.40924569 16.0269183,8.36274281 16.0017611,8.32005165 C15.9483971,8.2377187 15.8660642,8.17368196 15.7768701,8.13785188 C15.651846,8.08829964 15.5230102,8.04865784 15.391125,8.02350055 C14.9870836,7.92744544 14.5937151,7.78412512 14.2224545,7.59811363 C14.036443,7.50510789 13.8611043,7.40600341 13.6758551,7.30918595 C13.4898436,7.20550742 13.2969711,7.11631339 13.0972374,7.0515143 C12.6360204,6.92649019 12.1458344,6.94783577 11.6991019,7.11631339 C11.1990055,7.29088974 10.752273,7.59506426 10.4099813,7.99834326" id="Fill-17" fill="#F5BD0C"></path>
                    <path d="M11.5104222,7.40302484 C11.4136048,7.36102484 11.2565623,7.58102484 11.3030652,7.69802484 C11.3175497,7.73102484 11.3602408,7.76902484 11.3884475,7.75002484 C11.4174165,7.73102484 11.4707804,7.60502484 11.5172833,7.56202484 C11.5531134,7.52502484 11.5462523,7.41702484 11.5104222,7.40302484 M12.7393178,7.45902484 C12.7644751,7.56702484 12.8933109,7.54902484 12.9680204,7.59502484 C13.0434923,7.64202484 13.0861835,7.73102484 13.1578436,7.74002484 C13.2325532,7.75002484 13.3362317,7.70802484 13.3469045,7.61902484 C13.361389,7.49702484 13.2256921,7.42202484 13.1395474,7.38002484 C13.0251961,7.30902484 12.8963603,7.30402484 12.782009,7.37002484 C12.757614,7.38402484 12.7324567,7.42602484 12.7393178,7.45902484" id="Fill-19" fill="#CD8907"></path>
                    <path d="M26.8264861,27.352381 C26.7548259,27.5383925 26.6511474,27.7099195 26.5230739,27.8639126 C26.2219487,28.185621 25.8575492,28.4425303 25.4573195,28.6209184 C24.7780727,28.9357657 24.117122,29.2856807 23.4744676,29.6683765 C23.0567041,29.9466314 22.6663849,30.2614787 22.3057971,30.6113938 C22.009246,30.9231917 21.6913493,31.20907 21.3551564,31.4766521 C21.004479,31.7335614 20.6012,31.9089001 20.1720014,31.9767486 C19.6467476,32.044597 19.1146328,31.9622641 18.6320702,31.7449965 C18.2859669,31.612349 17.9848417,31.3798347 17.7744353,31.0726108 C17.5960472,30.7440413 17.5137143,30.37583 17.5320105,30.0045694 C17.5533561,29.3504798 17.631115,28.700202 17.7675742,28.0567852 C17.8598176,27.5208587 17.9528233,26.9849321 18.0107613,26.4451939 C18.1098658,25.4587231 18.121301,24.469203 18.0458291,23.4827322 C18.0282952,23.3180663 18.0282952,23.1503511 18.0458291,22.9856852 C18.067937,22.6502546 18.3500036,22.392583 18.6892459,22.3963947 C18.8424766,22.392583 18.9964698,22.4070675 19.1466512,22.4360365 C19.5041896,22.4779653 19.8609658,22.539715 20.2116432,22.6212856 C20.429673,22.6784613 20.6477029,22.7577448 20.8657327,22.8179699 C21.2301323,22.9246978 21.6158774,22.9567162 21.9947615,22.9216484 C22.3919417,22.8286427 22.7952207,22.7676553 23.2023114,22.7318252 C23.3707891,22.7394486 23.5392667,22.7676553 23.6963092,22.8179699 C23.8602127,22.8644727 24.0142058,22.9468057 24.13923,23.0642064 C24.228424,23.1610238 24.3000841,23.2715635 24.3458247,23.3935382 C24.4144355,23.575738 24.4571266,23.7647988 24.4708488,23.9576714 C24.4784722,24.1291984 24.4921944,24.3007254 24.5143023,24.4730147 C24.5752897,24.7474579 24.7071749,25.0051295 24.8931863,25.2193477 C25.0822472,25.4267047 25.2857926,25.6195773 25.5076341,25.7911043 C25.7188029,25.9763534 25.9398821,26.1486428 26.1723965,26.3056853 C26.2829361,26.3811571 26.3942381,26.4482432 26.4971542,26.5305762 C26.6046445,26.6090974 26.6938385,26.7089643 26.761687,26.8240779 C26.8470693,26.9811204 26.8760383,27.1633202 26.8333471,27.3378965" id="Fill-21" fill="#F5BD0C"></path>
                    <g transform="translate(0.000000, 21.799388)">
                        <mask id="mask-2" fill="white">
                            <use xlink:href="#path-1"></use>
                        </mask>
                        <g id="Clip-24"></g>
                        <path d="M4.37383235,0.0677123152 C4.54917105,-0.000136136869 4.73899425,-0.0176700065 4.92424339,0.0181600749 C5.11025488,0.0532278142 5.28483123,0.128699688 5.43882435,0.236189932 C5.73537545,0.461080869 5.9930471,0.740098099 6.19659245,1.05037136 C6.70050062,1.74410272 7.18306321,2.45155624 7.62217229,3.18797877 C7.97971076,3.78413034 8.30446852,4.39934046 8.71537094,4.96042429 C8.98371538,5.32482384 9.28712756,5.6640661 9.55928371,6.02846565 C9.84135031,6.38600412 10.0555685,6.79309483 10.188216,7.22610518 C10.3452585,7.80167351 10.2812217,8.41154723 10.0128773,8.94518675 C9.82000473,9.31644738 9.53031471,9.62672063 9.17658795,9.84093878 C8.81981182,10.0559193 8.40814705,10.1626472 7.99038355,10.1527367 C7.33248227,10.0627803 6.69668891,9.8630467 6.11044779,9.55887218 C4.86401836,9.06258744 3.50933635,8.90554495 2.22250278,8.51903748 C1.82608486,8.40163679 1.44033973,8.25831646 1.0401101,8.15158856 C0.861722032,8.10813506 0.686383336,8.0547711 0.51485635,7.98311094 C0.346378733,7.91145078 0.200009039,7.79023838 0.103191585,7.6370076 C0.032293764,7.51198349 -0.00353631738,7.36866316 0.000275393406,7.22610518 C0.0040871042,7.08278485 0.032293764,6.94403858 0.0826083465,6.81520276 C0.178663458,6.54685832 0.335705943,6.30748288 0.439384476,6.04295015 C0.596426961,5.60689044 0.657414334,5.13881235 0.618534884,4.67759534 C0.596426961,4.21637834 0.51485635,3.75592368 0.489699059,3.29470667 C0.468353478,3.0873496 0.475214558,2.87999254 0.511044639,2.67644718 C0.56440859,2.26935647 0.88230527,1.94383637 1.29320769,1.88361134 C1.48303089,1.85159296 1.67285409,1.83634612 1.86191494,1.84778125 C2.0509758,1.85845404 2.24461071,1.85845404 2.43367156,1.84778125 C2.62273242,1.83634612 2.81255561,1.78298217 2.98027089,1.69378814 C3.13426401,1.60154474 3.26996091,1.47270891 3.37363944,1.32252751 C3.47731798,1.1723461 3.56956138,1.01835299 3.65570604,0.857498791 C3.74108836,0.696644596 3.83790582,0.547225533 3.95225714,0.403905207 C4.05974738,0.257535513 4.20611708,0.1469959 4.37383235,0.0677123152 M26.8263336,5.55276414 C26.7546734,5.73877563 26.6509949,5.91030261 26.5229214,6.06429573 C26.2217963,6.38600412 25.8581591,6.64291343 25.4571671,6.82130149 C24.7786826,7.1361488 24.1169696,7.48606386 23.4743151,7.86875962 C23.0565516,8.14777685 22.6662324,8.46262416 22.3056446,8.81253921 C22.0090935,9.12357481 21.6911968,9.40945312 21.3550039,9.67703522 C21.0043265,9.93394452 20.6010475,10.1092832 20.1726112,10.177894 C19.6465951,10.2457425 19.1144803,10.1626472 18.6319177,9.94537966 C18.2858144,9.81273212 17.9846892,9.58098011 17.7742828,9.27299387 C17.5958947,8.94518675 17.5135618,8.57621314 17.531858,8.20495251 C17.5532036,7.55086294 17.6317248,6.90058508 17.7674217,6.2571683 C17.8596651,5.72124176 17.9526709,5.18531522 18.0106089,4.64557697 C18.1104757,3.65910622 18.1211485,2.6695861 18.046439,1.68311535 C18.0281427,1.51844944 18.0281427,1.35149651 18.046439,1.1868306 C18.0677845,0.850637711 18.3498511,0.592966062 18.6890934,0.596777773 C18.8423242,0.592966062 18.9970796,0.607450563 19.1464987,0.636419565 C19.5040372,0.679110726 19.8608133,0.740098099 20.2114907,0.821668709 C20.4302829,0.878844371 20.6475504,0.958127956 20.8655803,1.01835299 C21.2299798,1.12584323 21.6157249,1.1578616 21.994609,1.12203152 C22.3917893,1.02978812 22.7950683,0.968800746 23.202159,0.932970665 C23.3706366,0.940594086 23.5391142,0.968800746 23.6961567,1.01835299 C23.8608226,1.0656182 24.0140534,1.14718881 24.1390775,1.2645895 C24.2282715,1.36140696 24.2999317,1.47270891 24.3456722,1.59392132 C24.414283,1.77612109 24.4569742,1.96518195 24.4706963,2.15805451 C24.4783197,2.33034384 24.4928042,2.50110848 24.5141498,2.67339781 C24.5751372,2.94784099 24.7070224,3.20551264 24.8930339,3.41973078 C25.0820947,3.62708785 25.2864024,3.81996042 25.5074817,3.9914874 C25.7186504,4.17749889 25.9397297,4.34902587 26.172244,4.50606836 C26.2827836,4.58154023 26.3940856,4.64938868 26.4977641,4.7309593 C26.604492,4.81024288 26.6936861,4.9101097 26.7615345,5.02446103 C26.8469168,5.18150351 26.8766482,5.36370329 26.8331947,5.53904198" id="Fill-23" fill="#F5BD0C" mask="url(#mask-2)"></path>
                    </g>
                    <path d="M4.37383235,21.870836 C4.54917105,21.8029875 4.73899425,21.7854537 4.92424339,21.8212837 C5.11025488,21.8563515 5.28483123,21.9318234 5.43882435,22.0393136 C5.73537545,22.2642045 5.9930471,22.5432218 6.19659245,22.853495 C6.70050062,23.546464 7.18306321,24.2546799 7.62217229,24.9911024 C7.97971076,25.587254 8.30446852,26.2024641 8.71537094,26.7627856 C8.98371538,27.1279475 9.28712756,27.4671898 9.55928371,27.8315893 C9.84135031,28.1891278 10.0555685,28.5962185 10.188216,29.0292288 C10.3452585,29.6040348 10.2812217,30.2146709 10.0128773,30.7475481 C9.82000473,31.119571 9.53031471,31.4298443 9.17658795,31.6440624 C8.81981182,31.8590429 8.40814705,31.9657708 7.99038355,31.9558604 C7.33248227,31.865904 6.69668891,31.6661704 6.11044779,31.3619958 C4.86401836,30.8657111 3.50933635,30.7086686 2.22250278,30.3221611 C1.82608486,30.2047605 1.44033973,30.0614401 1.0401101,29.9547122 C0.861722032,29.9112587 0.686383336,29.8578948 0.51485635,29.7862346 C0.346378733,29.7145744 0.200009039,29.593362 0.103191585,29.4401313 C0.032293764,29.3151072 -0.00353631738,29.1717868 0.000275393406,29.0292288 C0.0040871042,28.8859085 0.032293764,28.7463999 0.0826083465,28.6183264 C0.178663458,28.349982 0.335705943,28.1106065 0.439384476,27.8460738 C0.596426961,27.4100141 0.657414334,26.9411737 0.618534884,26.480719 C0.596426961,26.019502 0.51485635,25.5628591 0.489699059,25.0978303 C0.468353478,24.8904733 0.475214558,24.6831162 0.511044639,24.4795708 C0.56440859,24.0724801 0.88230527,23.74696 1.29320769,23.686735 C1.48303089,23.6539543 1.67285409,23.6394698 1.86191494,23.6509049 C2.0509758,23.6615777 2.24461071,23.6615777 2.43367156,23.6509049 C2.62273242,23.6394698 2.81255561,23.5861058 2.98027089,23.4969118 C3.13426401,23.4039061 3.26996091,23.2758326 3.37363944,23.1256512 C3.47731798,22.9747074 3.56956138,22.8214767 3.65570604,22.6606225 C3.74108836,22.4997683 3.83790582,22.3495869 3.95225714,22.2062665 C4.05974738,22.0606592 4.20611708,21.9463079 4.37383235,21.870836" id="Fill-25" fill="#F5BD0C"></path>
                    <path d="M4.64934281,22.1708939 C4.80638529,22.1106688 4.98172399,22.0992337 5.14562755,22.1388755 C5.31029346,22.1785173 5.46352423,22.2532268 5.59617177,22.3607171 C5.85003171,22.5817963 6.06424986,22.8470913 6.22510405,23.1428801 C6.65354034,23.8366115 7.07206619,24.5372039 7.46162303,25.2515185 C7.74368963,25.7981178 8.06234865,26.3271833 8.4122637,26.8310915 C8.65468851,27.1596609 8.93370574,27.4592614 9.18375397,27.7809698 C9.44523733,28.0996288 9.64115926,28.4602167 9.76313401,28.8505358 C9.90569199,29.3613051 9.84470462,29.9071421 9.60227981,30.3828436 C9.4231294,30.7190365 9.15554731,31.0011031 8.82621549,31.1909263 C8.49764602,31.3837988 8.11876197,31.4768046 7.74064026,31.4592707 C7.14296401,31.366265 6.56434631,31.1871146 6.01774698,30.9256312 C4.93140941,30.5299756 3.74825438,30.4788987 2.63371014,30.1686254 C2.23348051,30.0618975 1.84392367,29.9147655 1.44064467,29.8148987 C1.26149426,29.7760192 1.08310619,29.7257046 0.911579209,29.6609056 C0.740052224,29.5968688 0.589870818,29.4756564 0.489241654,29.3216633 C0.425204912,29.2004509 0.393186542,29.064754 0.400047621,28.9282947 C0.407671043,28.7933602 0.435877703,28.6569009 0.486192285,28.5288275 C0.583009739,28.2749675 0.736240513,28.0424532 0.833057967,27.7885932 C0.968754871,27.395987 1.0144954,26.9812729 0.97180424,26.5665587 C0.94359758,26.1556563 0.868888048,25.7478033 0.846780126,25.3330891 C0.833057967,25.1516517 0.839919046,24.9656402 0.871937417,24.7834404 C0.903955788,24.6012407 0.990100451,24.4335254 1.11893628,24.2970661 C1.26835534,24.1613692 1.45436683,24.0721752 1.65486281,24.0470179 C1.85459646,24.022623 2.05509245,24.022623 2.25101438,24.0470179 C2.45151037,24.0721752 2.65124401,24.0797986 2.85174,24.0759869 C3.24510855,24.0759869 3.60188468,23.8472843 3.7703623,23.4897458 C3.85269525,23.3296539 3.92359308,23.1611763 3.98076874,22.9926987 C4.04175611,22.8219341 4.12408906,22.6610799 4.22090652,22.5070867 C4.320011,22.3530936 4.46333132,22.2318812 4.63180894,22.1602211" id="Fill-27" fill="#F5BD0C"></path>
                </g>
            </g>
        </g>
    </g>
</svg>