<?xml version="1.0" encoding="UTF-8"?>
<svg width="32px" height="32px" viewBox="0 0 32 32" version="1.1" xmlns="http://www.w3.org/2000/svg" xmlns:xlink="http://www.w3.org/1999/xlink">
    <defs>
        <polygon id="path-1" points="-6.66143432e-15 4.16339645e-16 24.59098 4.16339645e-16 24.59098 26.6722601 -6.66143432e-15 26.6722601"></polygon>
    </defs>
    <g id="页面-1" stroke="none" stroke-width="1" fill="none" fill-rule="evenodd">
        <g id="icon" transform="translate(-1651.000000, -229.000000)">
            <g id="编组-23" transform="translate(1652.000000, 230.000000)">
                <g id="Clipped" transform="translate(2.700039, 1.659399)">
                    <mask id="mask-2" fill="white">
                        <use xlink:href="#path-1"></use>
                    </mask>
                    <g id="path-1"></g>
                    <g id="编组" mask="url(#mask-2)">
                        <g transform="translate(0.000000, -0.002344)" id="path">
                            <path d="M22.0503184,10.3993689 C21.5159356,11.0556284 20.1096653,11.3181322 19.0127745,10.9806273 C17.9533842,10.6618727 17.6158793,9.92123699 18.1877626,9.3399786 C18.7408956,8.76809534 19.9690383,8.53371696 21.0003032,8.78684561 C22.0690686,9.05872454 22.5753259,9.77123482 22.0503184,10.3993689 Z M17.175248,9.05872454 C16.5846144,9.62123266 15.3470966,9.86498618 14.4564587,9.59310725 C13.9502014,9.44310508 13.6783225,9.12435048 13.6595722,8.85247156 C13.6501971,8.65559372 13.3314425,8.46809101 12.9751873,8.36496452 C12.6189322,8.26183803 12.2158014,8.27121317 11.7939203,8.31808884 C11.6907938,8.32746398 11.4751657,8.38371479 11.3251635,8.42121533 C10.9501581,8.54309209 10.6220284,8.68371912 10.3501494,8.89934723 C10.0032694,9.17122616 9.8907678,9.6587332 9.90014293,9.82748563 C9.90951807,10.0806143 10.1532716,10.2962424 10.5189019,10.4274943 C10.875157,10.5681213 11.3251635,10.5774965 11.77517,10.5118705 C12.328303,10.3712435 12.9283117,10.3712435 13.4251938,10.5399959 C14.3252068,10.8400003 14.5502101,11.6181365 13.8752003,12.2837711 C13.1533149,12.968156 11.7845451,13.2400349 10.8845321,12.8556544 C10.3782748,12.6400262 10.2001473,12.2556457 10.181397,11.8993905 C10.1532716,11.6181365 9.90014293,11.3931332 9.53451265,11.2525062 C9.17825751,11.1118792 8.76575156,11.1212543 8.29699479,11.1587549 C8.23136884,11.16813 7.95011478,11.2150057 7.78136234,11.2525062 C7.54698396,11.3181322 7.06885206,11.4493841 6.66572124,11.8337646 C6.34696663,12.1337689 6.2063396,12.415023 6.12196339,12.5931506 C6.07508771,12.6775268 6.00946176,12.90253 6.00946176,12.9775311 C6.00008663,13.2962857 6.18758933,13.5775398 6.55321961,13.7650425 C6.90947476,13.9431701 7.38760666,13.9900457 7.8751137,13.9244198 C8.47512236,13.7650425 9.1220067,13.7837928 9.60951374,14.008796 C10.5189019,14.4400522 10.6314035,15.4431917 9.77826617,16.2775788 C8.88762832,17.1494663 7.35948125,17.4307204 6.45946826,16.8869626 C5.97196122,16.5963334 5.83133419,16.155702 5.89696014,15.6400696 C5.89696014,15.6306944 5.89696014,15.5088177 5.87820987,15.4431917 C5.87820987,15.4431917 5.8594596,15.3400652 5.79383365,15.2181885 C5.70008229,15.0306858 5.55008013,14.8900587 5.34382715,14.768182 C4.99694714,14.5806793 4.53756551,14.5338036 4.05005847,14.5994295 C3.45004981,14.7588068 2.85004115,14.7306814 2.4656606,14.5056782 C1.80002599,14.1025474 1.99690383,13.2681603 2.85004115,12.6306511 C3.29067251,12.2931462 3.82505522,12.0868933 4.33131253,12.002517 C4.80944444,11.9087657 5.31570175,11.6931376 5.70008229,11.3931332 C6.07508771,11.102504 6.28134069,10.7931246 6.30009096,10.5118705 C6.30009096,10.5024954 6.30009096,10.3618683 6.28134069,10.2118662 C6.25321528,9.9774878 6.27196555,9.74310942 6.4969688,9.48998076 C6.63759583,9.32122833 6.95635043,9.16185102 7.29385531,9.10560021 C7.52823369,9.06809967 7.82823802,9.06809967 8.00636559,9.06809967 C8.15636776,9.05872454 8.40949641,9.02122399 8.50324777,8.99309859 C8.85012777,8.89934723 9.05638075,8.78684561 9.30013427,8.58996777 C9.5720132,8.39308993 9.7313905,8.17746181 9.7595159,7.98995911 C9.7595159,7.94308343 9.77826617,7.76495586 9.77826617,7.73683045 C9.68451482,7.28682395 10.3501494,6.79931692 11.2407873,6.63993961 C11.7001689,6.5555634 12.12205,6.57431367 12.4501797,6.66806502 C12.7689344,6.75244124 13.0126879,6.91181854 13.0970641,7.09932125 C13.1064392,7.12744665 13.1251895,7.18369746 13.1251895,7.21182287 C13.2001906,7.40870071 13.4251938,7.57745315 13.8001992,7.68057964 C14.1564544,7.77433099 14.5783355,7.78370613 15.0002166,7.70870504 C15.4970987,7.58682828 16.0502317,7.55870288 16.5377388,7.68995477 C17.4190015,7.90558289 17.728381,8.51496668 17.175248,9.05872454 Z M15.0752176,19.0713691 C14.1939549,20.1495097 12.4314295,20.4588891 11.2501624,19.7463788 C10.1345213,19.0901194 10.04077,17.7963507 10.9314078,16.8869626 C11.7845451,16.015075 13.2939419,15.7338209 14.4002079,16.2494534 C15.5720998,16.7932112 15.9096047,18.0494793 15.0752176,19.0713691 Z M23.7378427,6.06805636 L13.1345646,0.217971897 C12.6095571,-0.072657299 11.9720478,-0.072657299 11.4470403,0.217971897 L0.843762182,6.06805636 C0.318754602,6.35868555 -6.66143432e-15,6.89306827 -6.66143432e-15,7.4837018 L-6.66143432e-15,19.1932459 C-6.66143432e-15,19.7745042 0.318754602,20.308887 0.843762182,20.5995162 L11.4470403,26.4496006 C11.9720478,26.7402298 12.6095571,26.7402298 13.1345646,26.4496006 L23.7378427,20.5995162 C24.2628503,20.308887 24.59098,19.7745042 24.59098,19.1932459 L24.59098,7.4837018 C24.59098,6.89306827 24.2628503,6.35868555 23.7378427,6.06805636 Z" stroke="none" fill="#808080" fill-rule="evenodd"></path>
                            <path d="M19.0127745,10.9806273 C17.9533842,10.6618727 17.6158793,9.92123699 18.1877626,9.3399786 C18.7408956,8.76809534 19.9690383,8.53371696 21.0003032,8.78684561 C22.0690686,9.05872454 22.5753259,9.77123482 22.0503184,10.3993689 C21.5159356,11.0556284 20.1096653,11.3181322 19.0127745,10.9806273 Z M14.4564587,9.59310725 C13.9502014,9.44310508 13.6783225,9.12435048 13.6595722,8.85247156 C13.6501971,8.65559372 13.3314425,8.46809101 12.9751873,8.36496452 C12.6189322,8.26183803 12.2158014,8.27121317 11.7939203,8.31808884 C11.6907938,8.32746398 11.4751657,8.38371479 11.3251635,8.42121533 C10.9501581,8.54309209 10.6220284,8.68371912 10.3501494,8.89934723 C10.0032694,9.17122616 9.8907678,9.6587332 9.90014293,9.82748563 C9.90951807,10.0806143 10.1532716,10.2962424 10.5189019,10.4274943 C10.875157,10.5681213 11.3251635,10.5774965 11.77517,10.5118705 C12.328303,10.3712435 12.9283117,10.3712435 13.4251938,10.5399959 C14.3252068,10.8400003 14.5502101,11.6181365 13.8752003,12.2837711 C13.1533149,12.968156 11.7845451,13.2400349 10.8845321,12.8556544 C10.3782748,12.6400262 10.2001473,12.2556457 10.181397,11.8993905 C10.1532716,11.6181365 9.90014293,11.3931332 9.53451265,11.2525062 C9.17825751,11.1118792 8.76575156,11.1212543 8.29699479,11.1587549 C8.23136884,11.16813 7.95011478,11.2150057 7.78136234,11.2525062 C7.54698396,11.3181322 7.06885206,11.4493841 6.66572124,11.8337646 C6.34696663,12.1337689 6.2063396,12.415023 6.12196339,12.5931506 C6.07508771,12.6775268 6.00946176,12.90253 6.00946176,12.9775311 C6.00008663,13.2962857 6.18758933,13.5775398 6.55321961,13.7650425 C6.90947476,13.9431701 7.38760666,13.9900457 7.8751137,13.9244198 C8.47512236,13.7650425 9.1220067,13.7837928 9.60951374,14.008796 C10.5189019,14.4400522 10.6314035,15.4431917 9.77826617,16.2775788 C8.88762832,17.1494663 7.35948125,17.4307204 6.45946826,16.8869626 C5.97196122,16.5963334 5.83133419,16.155702 5.89696014,15.6400696 C5.89696014,15.6306944 5.89696014,15.5088177 5.87820987,15.4431917 C5.87820987,15.4431917 5.8594596,15.3400652 5.79383365,15.2181885 C5.70008229,15.0306858 5.55008013,14.8900587 5.34382715,14.768182 C4.99694714,14.5806793 4.53756551,14.5338036 4.05005847,14.5994295 C3.45004981,14.7588068 2.85004115,14.7306814 2.4656606,14.5056782 C1.80002599,14.1025474 1.99690383,13.2681603 2.85004115,12.6306511 C3.29067251,12.2931462 3.82505522,12.0868933 4.33131253,12.002517 C4.80944444,11.9087657 5.31570175,11.6931376 5.70008229,11.3931332 C6.07508771,11.102504 6.28134069,10.7931246 6.30009096,10.5118705 C6.30009096,10.5024954 6.30009096,10.3618683 6.28134069,10.2118662 C6.25321528,9.9774878 6.27196555,9.74310942 6.4969688,9.48998076 C6.63759583,9.32122833 6.95635043,9.16185102 7.29385531,9.10560021 C7.52823369,9.06809967 7.82823802,9.06809967 8.00636559,9.06809967 C8.15636776,9.05872454 8.40949641,9.02122399 8.50324777,8.99309859 C8.85012777,8.89934723 9.05638075,8.78684561 9.30013427,8.58996777 C9.5720132,8.39308993 9.7313905,8.17746181 9.7595159,7.98995911 C9.7595159,7.94308343 9.77826617,7.76495586 9.77826617,7.73683045 C9.68451482,7.28682395 10.3501494,6.79931692 11.2407873,6.63993961 C11.7001689,6.5555634 12.12205,6.57431367 12.4501797,6.66806502 C12.7689344,6.75244124 13.0126879,6.91181854 13.0970641,7.09932125 C13.1064392,7.12744665 13.1251895,7.18369746 13.1251895,7.21182287 C13.2001906,7.40870071 13.4251938,7.57745315 13.8001992,7.68057964 C14.1564544,7.77433099 14.5783355,7.78370613 15.0002166,7.70870504 C15.4970987,7.58682828 16.0502317,7.55870288 16.5377388,7.68995477 C17.4190015,7.90558289 17.728381,8.51496668 17.175248,9.05872454 C16.5846144,9.62123266 15.3470966,9.86498618 14.4564587,9.59310725 Z M11.2501624,19.7463788 C10.1345213,19.0901194 10.04077,17.7963507 10.9314078,16.8869626 C11.7845451,16.015075 13.2939419,15.7338209 14.4002079,16.2494534 C15.5720998,16.7932112 15.9096047,18.0494793 15.0752176,19.0713691 C14.1939549,20.1495097 12.4314295,20.4588891 11.2501624,19.7463788 Z M13.1345646,0.217971897 C12.6095571,-0.072657299 11.9720478,-0.072657299 11.4470403,0.217971897 L0.843762182,6.06805636 C0.318754602,6.35868555 -6.66143432e-15,6.89306827 -6.66143432e-15,7.4837018 L-6.66143432e-15,19.1932459 C-6.66143432e-15,19.7745042 0.318754602,20.308887 0.843762182,20.5995162 L11.4470403,26.4496006 C11.9720478,26.7402298 12.6095571,26.7402298 13.1345646,26.4496006 L23.7378427,20.5995162 C24.2628503,20.308887 24.59098,19.7745042 24.59098,19.1932459 L24.59098,7.4837018 C24.59098,6.89306827 24.2628503,6.35868555 23.7378427,6.06805636 L13.1345646,0.217971897 Z" stroke-opacity="0" stroke="#000000" stroke-width="1" fill="none"></path>
                            <path d="M19.0127745,10.9806273 C17.9533842,10.6618727 17.6158793,9.92123699 18.1877626,9.3399786 C18.7408956,8.76809534 19.9690383,8.53371696 21.0003032,8.78684561 C22.0690686,9.05872454 22.5753259,9.77123482 22.0503184,10.3993689 C21.5159356,11.0556284 20.1096653,11.3181322 19.0127745,10.9806273 Z M14.4564587,9.59310725 C13.9502014,9.44310508 13.6783225,9.12435048 13.6595722,8.85247156 C13.6501971,8.65559372 13.3314425,8.46809101 12.9751873,8.36496452 C12.6189322,8.26183803 12.2158014,8.27121317 11.7939203,8.31808884 C11.6907938,8.32746398 11.4751657,8.38371479 11.3251635,8.42121533 C10.9501581,8.54309209 10.6220284,8.68371912 10.3501494,8.89934723 C10.0032694,9.17122616 9.8907678,9.6587332 9.90014293,9.82748563 C9.90951807,10.0806143 10.1532716,10.2962424 10.5189019,10.4274943 C10.875157,10.5681213 11.3251635,10.5774965 11.77517,10.5118705 C12.328303,10.3712435 12.9283117,10.3712435 13.4251938,10.5399959 C14.3252068,10.8400003 14.5502101,11.6181365 13.8752003,12.2837711 C13.1533149,12.968156 11.7845451,13.2400349 10.8845321,12.8556544 C10.3782748,12.6400262 10.2001473,12.2556457 10.181397,11.8993905 C10.1532716,11.6181365 9.90014293,11.3931332 9.53451265,11.2525062 C9.17825751,11.1118792 8.76575156,11.1212543 8.29699479,11.1587549 C8.23136884,11.16813 7.95011478,11.2150057 7.78136234,11.2525062 C7.54698396,11.3181322 7.06885206,11.4493841 6.66572124,11.8337646 C6.34696663,12.1337689 6.2063396,12.415023 6.12196339,12.5931506 C6.07508771,12.6775268 6.00946176,12.90253 6.00946176,12.9775311 C6.00008663,13.2962857 6.18758933,13.5775398 6.55321961,13.7650425 C6.90947476,13.9431701 7.38760666,13.9900457 7.8751137,13.9244198 C8.47512236,13.7650425 9.1220067,13.7837928 9.60951374,14.008796 C10.5189019,14.4400522 10.6314035,15.4431917 9.77826617,16.2775788 C8.88762832,17.1494663 7.35948125,17.4307204 6.45946826,16.8869626 C5.97196122,16.5963334 5.83133419,16.155702 5.89696014,15.6400696 C5.89696014,15.6306944 5.89696014,15.5088177 5.87820987,15.4431917 C5.87820987,15.4431917 5.8594596,15.3400652 5.79383365,15.2181885 C5.70008229,15.0306858 5.55008013,14.8900587 5.34382715,14.768182 C4.99694714,14.5806793 4.53756551,14.5338036 4.05005847,14.5994295 C3.45004981,14.7588068 2.85004115,14.7306814 2.4656606,14.5056782 C1.80002599,14.1025474 1.99690383,13.2681603 2.85004115,12.6306511 C3.29067251,12.2931462 3.82505522,12.0868933 4.33131253,12.002517 C4.80944444,11.9087657 5.31570175,11.6931376 5.70008229,11.3931332 C6.07508771,11.102504 6.28134069,10.7931246 6.30009096,10.5118705 C6.30009096,10.5024954 6.30009096,10.3618683 6.28134069,10.2118662 C6.25321528,9.9774878 6.27196555,9.74310942 6.4969688,9.48998076 C6.63759583,9.32122833 6.95635043,9.16185102 7.29385531,9.10560021 C7.52823369,9.06809967 7.82823802,9.06809967 8.00636559,9.06809967 C8.15636776,9.05872454 8.40949641,9.02122399 8.50324777,8.99309859 C8.85012777,8.89934723 9.05638075,8.78684561 9.30013427,8.58996777 C9.5720132,8.39308993 9.7313905,8.17746181 9.7595159,7.98995911 C9.7595159,7.94308343 9.77826617,7.76495586 9.77826617,7.73683045 C9.68451482,7.28682395 10.3501494,6.79931692 11.2407873,6.63993961 C11.7001689,6.5555634 12.12205,6.57431367 12.4501797,6.66806502 C12.7689344,6.75244124 13.0126879,6.91181854 13.0970641,7.09932125 C13.1064392,7.12744665 13.1251895,7.18369746 13.1251895,7.21182287 C13.2001906,7.40870071 13.4251938,7.57745315 13.8001992,7.68057964 C14.1564544,7.77433099 14.5783355,7.78370613 15.0002166,7.70870504 C15.4970987,7.58682828 16.0502317,7.55870288 16.5377388,7.68995477 C17.4190015,7.90558289 17.728381,8.51496668 17.175248,9.05872454 C16.5846144,9.62123266 15.3470966,9.86498618 14.4564587,9.59310725 Z M11.2501624,19.7463788 C10.1345213,19.0901194 10.04077,17.7963507 10.9314078,16.8869626 C11.7845451,16.015075 13.2939419,15.7338209 14.4002079,16.2494534 C15.5720998,16.7932112 15.9096047,18.0494793 15.0752176,19.0713691 C14.1939549,20.1495097 12.4314295,20.4588891 11.2501624,19.7463788 Z M13.1345646,0.217971897 C12.6095571,-0.072657299 11.9720478,-0.072657299 11.4470403,0.217971897 L0.843762182,6.06805636 C0.318754602,6.35868555 -6.66143432e-15,6.89306827 -6.66143432e-15,7.4837018 L-6.66143432e-15,19.1932459 C-6.66143432e-15,19.7745042 0.318754602,20.308887 0.843762182,20.5995162 L11.4470403,26.4496006 C11.9720478,26.7402298 12.6095571,26.7402298 13.1345646,26.4496006 L23.7378427,20.5995162 C24.2628503,20.308887 24.59098,19.7745042 24.59098,19.1932459 L24.59098,7.4837018 C24.59098,6.89306827 24.2628503,6.35868555 23.7378427,6.06805636 L13.1345646,0.217971897 Z" stroke="none" fill-opacity="0" fill="#000000" fill-rule="evenodd"></path>
                            <path d="M18.1877626,9.3399786 C18.7408956,8.76809534 19.9690383,8.53371696 21.0003032,8.78684561 C22.0690686,9.05872454 22.5753259,9.77123482 22.0503184,10.3993689 C21.5159356,11.0556284 20.1096653,11.3181322 19.0127745,10.9806273 C17.9533842,10.6618727 17.6158793,9.92123699 18.1877626,9.3399786 Z M13.6595722,8.85247156 C13.6501971,8.65559372 13.3314425,8.46809101 12.9751873,8.36496452 C12.6189322,8.26183803 12.2158014,8.27121317 11.7939203,8.31808884 C11.6907938,8.32746398 11.4751657,8.38371479 11.3251635,8.42121533 C10.9501581,8.54309209 10.6220284,8.68371912 10.3501494,8.89934723 C10.0032694,9.17122616 9.8907678,9.6587332 9.90014293,9.82748563 C9.90951807,10.0806143 10.1532716,10.2962424 10.5189019,10.4274943 C10.875157,10.5681213 11.3251635,10.5774965 11.77517,10.5118705 C12.328303,10.3712435 12.9283117,10.3712435 13.4251938,10.5399959 C14.3252068,10.8400003 14.5502101,11.6181365 13.8752003,12.2837711 C13.1533149,12.968156 11.7845451,13.2400349 10.8845321,12.8556544 C10.3782748,12.6400262 10.2001473,12.2556457 10.181397,11.8993905 C10.1532716,11.6181365 9.90014293,11.3931332 9.53451265,11.2525062 C9.17825751,11.1118792 8.76575156,11.1212543 8.29699479,11.1587549 C8.23136884,11.16813 7.95011478,11.2150057 7.78136234,11.2525062 C7.54698396,11.3181322 7.06885206,11.4493841 6.66572124,11.8337646 C6.34696663,12.1337689 6.2063396,12.415023 6.12196339,12.5931506 C6.07508771,12.6775268 6.00946176,12.90253 6.00946176,12.9775311 C6.00008663,13.2962857 6.18758933,13.5775398 6.55321961,13.7650425 C6.90947476,13.9431701 7.38760666,13.9900457 7.8751137,13.9244198 C8.47512236,13.7650425 9.1220067,13.7837928 9.60951374,14.008796 C10.5189019,14.4400522 10.6314035,15.4431917 9.77826617,16.2775788 C8.88762832,17.1494663 7.35948125,17.4307204 6.45946826,16.8869626 C5.97196122,16.5963334 5.83133419,16.155702 5.89696014,15.6400696 C5.89696014,15.6306944 5.89696014,15.5088177 5.87820987,15.4431917 C5.87820987,15.4431917 5.8594596,15.3400652 5.79383365,15.2181885 C5.70008229,15.0306858 5.55008013,14.8900587 5.34382715,14.768182 C4.99694714,14.5806793 4.53756551,14.5338036 4.05005847,14.5994295 C3.45004981,14.7588068 2.85004115,14.7306814 2.4656606,14.5056782 C1.80002599,14.1025474 1.99690383,13.2681603 2.85004115,12.6306511 C3.29067251,12.2931462 3.82505522,12.0868933 4.33131253,12.002517 C4.80944444,11.9087657 5.31570175,11.6931376 5.70008229,11.3931332 C6.07508771,11.102504 6.28134069,10.7931246 6.30009096,10.5118705 C6.30009096,10.5024954 6.30009096,10.3618683 6.28134069,10.2118662 C6.25321528,9.9774878 6.27196555,9.74310942 6.4969688,9.48998076 C6.63759583,9.32122833 6.95635043,9.16185102 7.29385531,9.10560021 C7.52823369,9.06809967 7.82823802,9.06809967 8.00636559,9.06809967 C8.15636776,9.05872454 8.40949641,9.02122399 8.50324777,8.99309859 C8.85012777,8.89934723 9.05638075,8.78684561 9.30013427,8.58996777 C9.5720132,8.39308993 9.7313905,8.17746181 9.7595159,7.98995911 C9.7595159,7.94308343 9.77826617,7.76495586 9.77826617,7.73683045 C9.68451482,7.28682395 10.3501494,6.79931692 11.2407873,6.63993961 C11.7001689,6.5555634 12.12205,6.57431367 12.4501797,6.66806502 C12.7689344,6.75244124 13.0126879,6.91181854 13.0970641,7.09932125 C13.1064392,7.12744665 13.1251895,7.18369746 13.1251895,7.21182287 C13.2001906,7.40870071 13.4251938,7.57745315 13.8001992,7.68057964 C14.1564544,7.77433099 14.5783355,7.78370613 15.0002166,7.70870504 C15.4970987,7.58682828 16.0502317,7.55870288 16.5377388,7.68995477 C17.4190015,7.90558289 17.728381,8.51496668 17.175248,9.05872454 C16.5846144,9.62123266 15.3470966,9.86498618 14.4564587,9.59310725 C13.9502014,9.44310508 13.6783225,9.12435048 13.6595722,8.85247156 Z M10.9314078,16.8869626 C11.7845451,16.015075 13.2939419,15.7338209 14.4002079,16.2494534 C15.5720998,16.7932112 15.9096047,18.0494793 15.0752176,19.0713691 C14.1939549,20.1495097 12.4314295,20.4588891 11.2501624,19.7463788 C10.1345213,19.0901194 10.04077,17.7963507 10.9314078,16.8869626 Z M11.4470403,0.217971897 L0.843762182,6.06805636 C0.318754602,6.35868555 -6.66143432e-15,6.89306827 -6.66143432e-15,7.4837018 L-6.66143432e-15,19.1932459 C-6.66143432e-15,19.7745042 0.318754602,20.308887 0.843762182,20.5995162 L11.4470403,26.4496006 C11.9720478,26.7402298 12.6095571,26.7402298 13.1345646,26.4496006 L23.7378427,20.5995162 C24.2628503,20.308887 24.59098,19.7745042 24.59098,19.1932459 L24.59098,7.4837018 C24.59098,6.89306827 24.2628503,6.35868555 23.7378427,6.06805636 L13.1345646,0.217971897 C12.6095571,-0.072657299 11.9720478,-0.072657299 11.4470403,0.217971897 Z" stroke-opacity="0" stroke="#000000" stroke-width="1.388889" fill="none"></path>
                        </g>
                    </g>
                </g>
                <rect id="画板-329" fill-opacity="0" fill="#FFFFFF" fill-rule="nonzero" x="0" y="0" width="30" height="30.0004331"></rect>
                <rect id="画板-329" stroke-opacity="0" stroke="#000000" x="0" y="0" width="30" height="30.0004331"></rect>
            </g>
        </g>
    </g>
</svg>
