<?xml version="1.0" encoding="UTF-8"?>
<svg width="30px" height="30px" viewBox="0 0 30 30" version="1.1" xmlns="http://www.w3.org/2000/svg" xmlns:xlink="http://www.w3.org/1999/xlink">
    <g id="页面-1" stroke="none" stroke-width="1" fill="none" fill-rule="evenodd">
        <g id="icon" transform="translate(-1124.000000, -291.000000)">
            <g id="OpenCloudOS-weak" transform="translate(1124.000000, 291.000000)">
                <path d="M5.07110424,19.9999166 L10.0710607,14.9999696 L15.0710077,19.9999166 C12.3096111,22.7614079 7.83251027,22.7614079 5.07110424,19.9999166 Z" id="路径" fill="#7787A1" fill-rule="nonzero"></path>
                <path d="M15.0711971,9.99992796 C17.8325936,7.23849352 22.3096945,7.23849352 25.0710911,9.99992796 L20.0711441,14.9998749 L15.0711971,9.99992796 Z" id="路径" fill="#7787A1" fill-rule="nonzero"></path>
                <path d="M5.07104742,19.9999166 C2.30965086,17.2385201 2.30965086,12.7613245 5.07104742,9.99992796 L15.0710077,0 C17.8324042,2.76140214 17.8324042,7.23855034 15.0710077,9.99992796 L5.07104742,19.9999166 Z" id="路径" fill="#BDC4D0" fill-rule="nonzero"></path>
                <path d="M20.0711441,14.9999696 L25.0710911,10.0000227 C27.8324876,12.7614192 27.8324876,17.2385201 25.0710911,20.0000113 L25.0710911,20.0000113 L20.0711441,24.9999583 L15.0711971,20.0000113 L20.0711441,15.0000643 L20.0711441,14.9999696 Z M15.0711024,20.0000113 L20.0711441,24.9999583 L15.0711024,30 C12.3097058,27.2386034 12.3097058,22.7614079 15.0711024,20.0000113 Z" id="形状" fill="#98A3B7"></path>
            </g>
        </g>
    </g>
</svg>
