<?xml version="1.0" encoding="UTF-8"?>
<svg width="32px" height="32px" viewBox="0 0 32 32" version="1.1" xmlns="http://www.w3.org/2000/svg" xmlns:xlink="http://www.w3.org/1999/xlink">
    <g id="页面-1" stroke="none" stroke-width="1" fill="none" fill-rule="evenodd">
        <g id="icon" transform="translate(-1547.000000, -290.000000)">
            <g id="编组-21" transform="translate(1548.000000, 291.000000)">
                <circle id="椭圆形" fill="#FFFFFF" fill-rule="nonzero" cx="15.3305419" cy="14.7091896" r="14.0227637"></circle>
                <circle id="椭圆形" stroke-opacity="0" stroke="#000000" cx="15.3305419" cy="14.7091896" r="14.0227637"></circle>
                <path d="M15.0053552,0 C6.71545876,0 0,6.71545876 0,15.0053552 C0,23.2845412 6.71545876,30 15.0053552,30 C18.9789361,30 22.79186,28.4255623 25.6087112,25.6087112 C28.4255623,22.79186 30,18.9789361 30,15.0053552 C30,6.71545876 23.2845412,0 15.0053552,0 Z M15.0053552,1.8743306 C18.4862549,1.8743306 21.8172081,3.25598001 24.2806141,5.71938593 C26.74402,8.18279186 28.1256694,11.5137451 28.1256694,15.0053552 C28.1256694,18.4862549 26.74402,21.8172081 24.2806141,24.2806141 C21.8172081,26.74402 18.4862549,28.1256694 15.0053552,28.1256694 C11.2138522,28.1256694 7.60442699,26.4762585 5.11960014,23.6165655 C6.06212067,22.931096 7.61513745,23.1131739 9.52159943,23.3273831 C10.4534095,23.4344877 11.5137451,23.5523027 12.6062121,23.5737237 C15.6586933,23.5951446 18.9575152,23.0382006 20.9817922,22.1492324 C22.2991789,21.5708675 23.1345948,21.1960014 23.6594074,20.7140307 C23.8521956,20.5640843 23.9485898,20.3070332 24.0556944,20.0285612 L24.1199572,19.8571939 C24.2056408,19.6322742 24.3341664,19.1610139 24.3877187,18.9039629 C24.4091396,18.7968583 24.4305605,18.6897537 24.3448768,18.6147804 C24.2591931,18.5505177 24.0556944,18.6683327 24.0556944,18.6683327 C23.1667262,19.2038558 20.9389504,20.2213495 18.861121,20.2641914 C16.2691896,20.3177437 11.0317744,17.6401285 10.4855409,17.3616566 C10.1213852,16.4941092 9.75722956,15.6265619 9.3930739,14.7697251 C13.1417351,17.233131 16.2477687,18.60407 18.6362014,18.8182792 C21.2816851,19.0539093 23.348804,17.6079971 24.2484827,16.9975009 C24.3662978,16.9225277 24.4841128,16.836844 24.5912174,16.7511603 C24.6019279,16.7404498 24.6554802,16.697608 24.6447697,16.6654766 C24.4948233,15.7336665 23.1131739,11.2245627 22.0635487,10.1428061 C21.7743663,9.85362371 21.5494466,9.55373081 21.0781864,9.2859693 C17.2866833,7.07961442 8.30060693,5.74080685 7.8721885,5.68725455 C7.8721885,5.68725455 7.84005712,5.67654409 7.80792574,5.69796501 C7.80792574,5.69796501 7.74366298,7.62584791 7.74366298,7.84005712 C7.40092824,7.72224206 6.26561942,7.3580864 4.65905034,6.92966798 C7.14387719,3.73795073 10.9568011,1.8743306 15.0053552,1.8743306 Z M17.7365227,9.48946805 C17.8007854,9.48946805 17.8650482,9.48946805 17.929311,9.48946805 C20.0499821,9.56444127 21.7101035,11.3530882 21.6351303,13.4737594 C21.6029989,14.5019636 21.1745805,15.4551946 20.4248483,16.1513745 C19.675116,16.8475544 18.6897537,17.2117101 17.6615494,17.1795787 C15.5408783,17.1046055 13.8807569,15.3159586 13.9557301,13.1952874 C13.9878615,12.1670832 14.4162799,11.2245627 15.1660121,10.5176723 C15.8729025,9.86433417 16.7832917,9.50017851 17.7365227,9.48946805 Z M17.7579436,10.6247769 C17.093895,10.6247769 16.4619779,10.8818279 15.9800071,11.3423777 C15.4551946,11.8243484 15.1445912,12.488397 15.1231703,13.2059979 C15.0803285,14.6840414 16.2370582,15.9371653 17.7151017,15.9907176 C18.4327026,16.0121385 19.1181721,15.7550875 19.6429846,15.2624063 C20.1677972,14.7697251 20.4676901,14.116387 20.489111,13.3987861 C20.5319529,11.9207426 19.3752231,10.6783292 17.8971796,10.6247769 C17.8543377,10.6247769 17.8114959,10.6247769 17.7579436,10.6247769 Z M18.3363085,11.9635844 C18.9896466,11.9635844 19.5251696,12.3277401 19.5251696,12.766869 C19.5251696,13.1952874 18.9896466,13.5594431 18.3363085,13.5594431 C17.6722599,13.5594431 17.1474473,13.1952874 17.1474473,12.766869 C17.1474473,12.3277401 17.6722599,11.9635844 18.3363085,11.9635844 Z" id="path820-3-6" fill="#808080" fill-rule="nonzero"></path>
                <path d="M0,15.0053552 C0,23.2845412 6.71545876,30 15.0053552,30 C18.9789361,30 22.79186,28.4255623 25.6087112,25.6087112 C28.4255623,22.79186 30,18.9789361 30,15.0053552 C30,6.71545876 23.2845412,0 15.0053552,0 C6.71545876,0 0,6.71545876 0,15.0053552 Z M24.2806141,5.71938593 C26.74402,8.18279186 28.1256694,11.5137451 28.1256694,15.0053552 C28.1256694,18.4862549 26.74402,21.8172081 24.2806141,24.2806141 C21.8172081,26.74402 18.4862549,28.1256694 15.0053552,28.1256694 C11.2138522,28.1256694 7.60442699,26.4762585 5.11960014,23.6165655 C6.06212067,22.931096 7.61513745,23.1131739 9.52159943,23.3273831 C10.4534095,23.4344877 11.5137451,23.5523027 12.6062121,23.5737237 C15.6586933,23.5951446 18.9575152,23.0382006 20.9817922,22.1492324 C22.2991789,21.5708675 23.1345948,21.1960014 23.6594074,20.7140307 C23.8521956,20.5640843 23.9485898,20.3070332 24.0556944,20.0285612 L24.1199572,19.8571939 C24.2056408,19.6322742 24.3341664,19.1610139 24.3877187,18.9039629 C24.4091396,18.7968583 24.4305605,18.6897537 24.3448768,18.6147804 C24.2591931,18.5505177 24.0556944,18.6683327 24.0556944,18.6683327 C23.1667262,19.2038558 20.9389504,20.2213495 18.861121,20.2641914 C16.2691896,20.3177437 11.0317744,17.6401285 10.4855409,17.3616566 C10.1213852,16.4941092 9.75722956,15.6265619 9.3930739,14.7697251 C13.1417351,17.233131 16.2477687,18.60407 18.6362014,18.8182792 C21.2816851,19.0539093 23.348804,17.6079971 24.2484827,16.9975009 C24.3662978,16.9225277 24.4841128,16.836844 24.5912174,16.7511603 C24.6019279,16.7404498 24.6554802,16.697608 24.6447697,16.6654766 C24.4948233,15.7336665 23.1131739,11.2245627 22.0635487,10.1428061 C21.7743663,9.85362371 21.5494466,9.55373081 21.0781864,9.2859693 C17.2866833,7.07961442 8.30060693,5.74080685 7.8721885,5.68725455 C7.8721885,5.68725455 7.84005712,5.67654409 7.80792574,5.69796501 C7.80792574,5.69796501 7.74366298,7.62584791 7.74366298,7.84005712 C7.40092824,7.72224206 6.26561942,7.3580864 4.65905034,6.92966798 C7.14387719,3.73795073 10.9568011,1.8743306 15.0053552,1.8743306 C18.4862549,1.8743306 21.8172081,3.25598001 24.2806141,5.71938593 Z M17.929311,9.48946805 C20.0499821,9.56444127 21.7101035,11.3530882 21.6351303,13.4737594 C21.6029989,14.5019636 21.1745805,15.4551946 20.4248483,16.1513745 C19.675116,16.8475544 18.6897537,17.2117101 17.6615494,17.1795787 C15.5408783,17.1046055 13.8807569,15.3159586 13.9557301,13.1952874 C13.9878615,12.1670832 14.4162799,11.2245627 15.1660121,10.5176723 C15.8729025,9.86433417 16.7832917,9.50017851 17.7365227,9.48946805 C17.8007854,9.48946805 17.8650482,9.48946805 17.929311,9.48946805 Z M15.9800071,11.3423777 C15.4551946,11.8243484 15.1445912,12.488397 15.1231703,13.2059979 C15.0803285,14.6840414 16.2370582,15.9371653 17.7151017,15.9907176 C18.4327026,16.0121385 19.1181721,15.7550875 19.6429846,15.2624063 C20.1677972,14.7697251 20.4676901,14.116387 20.489111,13.3987861 C20.5319529,11.9207426 19.3752231,10.6783292 17.8971796,10.6247769 C17.8543377,10.6247769 17.8114959,10.6247769 17.7579436,10.6247769 C17.093895,10.6247769 16.4619779,10.8818279 15.9800071,11.3423777 Z M19.5251696,12.766869 C19.5251696,13.1952874 18.9896466,13.5594431 18.3363085,13.5594431 C17.6722599,13.5594431 17.1474473,13.1952874 17.1474473,12.766869 C17.1474473,12.3277401 17.6722599,11.9635844 18.3363085,11.9635844 C18.9896466,11.9635844 19.5251696,12.3277401 19.5251696,12.766869 Z" id="path820-3-6" stroke-opacity="0" stroke="#000000"></path>
            </g>
        </g>
    </g>
</svg>
