<?xml version="1.0" encoding="UTF-8"?>
<svg width="30px" height="30px" viewBox="0 0 30 30" version="1.1" xmlns="http://www.w3.org/2000/svg" xmlns:xlink="http://www.w3.org/1999/xlink">
    <g id="页面-1" stroke="none" stroke-width="1" fill="none" fill-rule="evenodd">
        <g id="icon" transform="translate(-1087.000000, -291.000000)">
            <g id="OpenCloudOS" transform="translate(1087.000000, 291.000000)">
                <path d="M5.16394193,20.0003964 L10.1639773,15.0003705 L15.1640032,20.0003964 C12.4025631,22.7619313 7.92539154,22.7619313 5.16394193,20.0003964 Z" id="路径" fill="#060198" fill-rule="nonzero"></path>
                <path d="M15.1637191,10.0002499 C17.9251592,7.23877188 22.4023308,7.23877188 25.1637709,10.0002499 L20.163745,15.0002758 L15.1637191,10.0002499 Z" id="路径" fill="#060198" fill-rule="nonzero"></path>
                <path d="M5.16388511,20.0003964 C2.40244496,17.2389563 2.40244496,12.76169 5.16388511,10.0002499 L15.1640032,0.000164111 C17.9254434,2.76160983 17.9254434,7.2388287 15.1640032,10.0002499 L5.16388511,20.0003964 Z" id="路径" fill="#00C0FF" fill-rule="nonzero"></path>
                <path d="M20.1636503,25.0000435 L15.1636244,30.0001641 C12.4021843,27.238724 12.4021843,22.7614577 15.1636244,20.0000176 L15.1637191,20.0000176 L20.1636503,15.0000864 L20.163745,14.9999917 L25.1637709,9.9999658 C27.925211,12.7614059 27.925211,17.2385775 25.1637709,20.0001123 L25.1637709,20.0001123 L20.163745,25.0001382 L20.1636503,25.0000435 Z" id="路径" fill="#0368EC"></path>
            </g>
        </g>
    </g>
</svg>
