<?xml version="1.0" encoding="UTF-8"?>
<svg width="30px" height="30px" viewBox="0 0 30 30" version="1.1" xmlns="http://www.w3.org/2000/svg" xmlns:xlink="http://www.w3.org/1999/xlink">
    <g id="页面-1" stroke="none" stroke-width="1" fill="none" fill-rule="evenodd">
        <g id="icon" transform="translate(-1726.000000, -287.000000)" fill-rule="nonzero">
            <g id="Redhat" transform="translate(1726.000000, 287.000000)">
                <path d="M20.0110312,17.0796344 C21.9826875,17.0796344 24.8353125,16.6729469 24.8353125,14.3277906 C24.8412188,14.1468531 24.8248125,13.9658219 24.7864688,13.7888219 L23.61225,8.6887375 C23.3412187,7.5665875 23.1031875,7.057525 21.1332188,6.07250312 C19.6044375,5.29077813 16.27425,4 15.2892187,4 C14.3719688,4 14.105625,5.1820375 13.0118438,5.1820375 C11.9590312,5.1820375 11.1773437,4.29944687 10.1923125,4.29944687 C9.24664687,4.29944687 8.63041875,4.94405312 8.15445,6.26950937 C8.15445,6.26950937 6.82900312,10.0078844 6.65879062,10.5500406 C6.63173437,10.6496031 6.62004375,10.7527281 6.6241125,10.8557594 C6.6241125,12.3088844 12.3451875,17.0732594 20.0110312,17.0732594 L20.0110312,17.0796344 Z M25.1379375,15.2797281 C25.4105625,16.5705719 25.4105625,16.7060406 25.4105625,16.8762906 C25.4105625,19.0827906 22.9298437,20.3073531 19.6690312,20.3073531 C12.2994375,20.3120406 5.84397188,15.9937281 5.84397188,13.1395094 C5.84355,12.7421969 5.92454063,12.3490094 6.08195625,11.9842281 C3.43104375,12.1166031 0,12.5894781 0,15.6186344 C0,20.5799781 11.7556875,26.6950094 21.0638438,26.6950094 C28.2001875,26.6950094 30,23.4672906 30,20.9187906 C30,18.9141344 28.266375,16.6382594 25.1410313,15.2797281" id="形状" fill="#EE0000"></path>
                <path d="M25.13775,15.2799156 C25.410375,16.5707594 25.410375,16.7063219 25.410375,16.8764781 C25.410375,19.0829781 22.92975,20.3075444 19.6688438,20.3075444 C12.29925,20.3122281 5.84381086,15.9939156 5.84381086,13.1396969 C5.84339063,12.7423844 5.92438125,12.3491969 6.08179688,11.9844156 L6.65863125,10.5565094 C6.63220313,10.6541031 6.62052188,10.7549781 6.62395313,10.8560406 C6.62395313,12.3090719 12.345,17.0735406 20.0108438,17.0735406 C21.9825,17.0735406 24.835125,16.6668531 24.835125,14.3216969 C24.8410313,14.1407594 24.824625,13.9597281 24.7862813,13.7827281 L25.13775,15.2799156 Z" id="路径" fill="#000000"></path>
            </g>
        </g>
    </g>
</svg>
