<?xml version="1.0" encoding="UTF-8"?>
<svg width="31px" height="31px" viewBox="0 0 31 31" version="1.1" xmlns="http://www.w3.org/2000/svg" xmlns:xlink="http://www.w3.org/1999/xlink">
    <defs>
        <ellipse id="path-1" cx="14.862649" cy="14.8626975" rx="14.862649" ry="14.8626975"></ellipse>
    </defs>
    <g id="页面-1" stroke="none" stroke-width="1" fill="none" fill-rule="evenodd">
        <g id="icon" transform="translate(-1405.000000, -230.000000)">
            <g id="编组-18" transform="translate(1405.890974, 230.719770)">
                <ellipse id="path-1" fill="#1147B2" fill-rule="nonzero" cx="14.862649" cy="15.0429977" rx="14.862649" ry="14.8626975"></ellipse>
                <ellipse id="path-1" stroke-opacity="0" stroke="#000000" stroke-width="0.64" cx="14.862649" cy="15.0429977" rx="14.862649" ry="14.8626975"></ellipse>
                <path d="M10.2697629,9.4282998 C13.2614593,9.4282998 15.5473683,11.5351283 15.5473683,15.2326123 C15.5473683,18.9195622 13.2614593,21.0263907 10.2697629,21.0263907 C7.25699814,21.0263907 4.99215751,18.8984939 4.99215751,15.2326123 C4.99215751,11.5351283 7.25699814,9.4282998 10.2697629,9.4282998 Z M25.7128157,12.8308278 L23.4269068,12.8308278 C23.3426337,11.9459598 22.6368461,11.4297869 21.4991588,11.4297869 C20.3298689,11.4297869 19.6872863,11.9670281 19.6872863,12.693884 C19.6767521,13.4944788 20.4984152,13.8631738 21.4780905,14.0843908 L22.4893682,14.326676 C24.4487187,14.76911 25.8602937,15.7698536 25.8708279,17.6449309 C25.8602937,19.7096229 24.2380358,21.0263907 21.4886246,21.0263907 C18.7497476,21.0263907 17.0116141,19.7622936 16.9484092,17.3289067 L19.2553864,17.3289067 C19.3291254,18.4560599 20.2245275,19.0249036 21.4675563,19.0249036 C22.6789827,19.0249036 23.4585093,18.466594 23.4585093,17.6449309 C23.4585093,16.8759385 22.77379,16.5283118 21.5412953,16.2333558 L20.3193348,15.9173316 C18.412655,15.4643634 17.2433652,14.5057565 17.2433652,12.8518961 C17.2328311,10.7977383 19.0447036,9.4282998 21.520227,9.4282998 C24.027353,9.4282998 25.6812133,10.8188066 25.7128157,12.8308278 Z M10.2697629,18.909028 C11.9973623,18.909028 13.1350496,17.6133285 13.1350496,15.2326123 C13.1350496,12.841362 11.9973623,11.5456624 10.2697629,11.5456624 C8.53162938,11.5456624 7.40447613,12.841362 7.40447613,15.2326123 C7.40447613,17.6133285 8.53162938,18.909028 10.2697629,18.909028 Z" id="OS" fill="#FFFFFF"></path>
                <g id="Clipped" transform="translate(0.274702, 0.000000)">
                    <mask id="mask-2" fill="white">
                        <use xlink:href="#path-1"></use>
                    </mask>
                    <g id="path-1"></g>
                </g>
            </g>
        </g>
    </g>
</svg>
