<?xml version="1.0" encoding="UTF-8"?>
<svg width="32px" height="32px" viewBox="0 0 32 32" version="1.1" xmlns="http://www.w3.org/2000/svg" xmlns:xlink="http://www.w3.org/1999/xlink">
    <g id="页面-1" stroke="none" stroke-width="1" fill="none" fill-rule="evenodd">
        <g id="icon" transform="translate(-1515.000000, -230.000000)">
            <g id="编组-20" transform="translate(1515.770000, 230.770000)">
                <path d="M14.9947276,0 C6.72759227,0 0,6.72759227 0,15.0052724 C0,23.2618629 6.72759227,30 14.9947276,30 C23.2618629,30 30,23.2618629 30,15.0052724 C30,6.72759227 23.2618629,0 14.9947276,0 Z" id="path" fill="#E8E8E8" fill-rule="nonzero"></path>
                <path d="M0,15.0052724 C0,23.2618629 6.72759227,30 14.9947276,30 C23.2618629,30 30,23.2618629 30,15.0052724 C30,6.72759227 23.2618629,0 14.9947276,0 C6.72759227,0 0,6.72759227 0,15.0052724 Z" id="path" stroke-opacity="0" stroke="#000000" stroke-width="0.64"></path>
                <path d="M23.884007,12.5061511 C23.9050967,12.0949033 24.0738137,11.71529 24.3690685,11.4411248 C24.6643234,11.1669596 25.0544815,11.0193322 25.4657293,11.029877 C26.3093146,11.0615114 26.973638,11.7680141 26.9420035,12.6115993 C26.9314587,13.0228471 26.7521968,13.4024605 26.456942,13.6766257 C26.1616872,13.9613357 25.771529,14.0984183 25.3602812,14.0878735 C24.516696,14.056239 23.8629174,13.3497364 23.884007,12.5061511 Z M27.9753954,14.0140598 C28.0386643,13.9613357 28.0913884,13.9297012 28.112478,13.9191564 C28.0492091,13.5500879 27.5325132,11.7258348 27.1107206,11.2934974 C26.9947276,11.1775044 26.8998243,11.0615114 26.7205624,10.9455185 C25.2126538,10.0702988 21.6379613,9.543058 21.4797891,9.52196837 C21.4797891,9.52196837 21.4165202,10.2917399 21.4165202,10.3760984 C21.0579965,10.2495606 18.400703,9.39543058 15.9121265,9.31107206 C13.8137083,9.23725835 10.7346221,8.96309315 6.67486819,11.4622144 L6.5483304,11.5360281 C4.6397188,12.7381371 3.31107206,14.2038664 2.62565905,15.9121265 C2.40421793,16.4499121 2.11950791,17.6731107 2.40421793,18.8119508 C2.53075571,19.3075571 2.76274165,19.8137083 3.0685413,20.2671353 C3.77504394,21.2794376 4.96660808,21.9543058 6.24253076,22.0702988 C8.0456942,22.228471 9.41652021,21.4165202 9.90158172,19.8980668 C10.228471,18.8541301 9.90158172,17.314587 8.61511424,16.5342707 C7.5711775,15.9015817 6.45342707,16.0386643 5.81019332,16.4710018 C5.24077329,16.8506151 4.92442882,17.43058 4.92442882,18.0632689 C4.94551845,19.1915641 5.91564148,19.7926186 6.6115993,19.8031634 C6.82249561,19.8031634 7.0228471,19.7609842 7.25483304,19.6871705 C7.33919156,19.6660808 7.41300527,19.6344464 7.4973638,19.5817223 C7.65553603,19.4657293 7.79261863,19.2653779 7.79261863,19.0755712 C7.79261863,19.0333919 7.78207381,18.9806678 7.771529,18.9279438 C7.68717047,18.6326889 7.40246046,18.4639719 7.10720562,18.516696 L7.0228471,18.5377856 L6.93848858,18.56942 C6.78031634,18.6115993 6.65377856,18.6115993 6.63268893,18.6115993 C6.5483304,18.6115993 6.14762742,18.4850615 6.14762742,18.0421793 C6.14762742,17.884007 6.21089631,17.7680141 6.25307557,17.7047452 C6.36906854,17.5043937 6.71704745,17.314587 7.18101933,17.3567663 C7.79261863,17.4094903 8.22495606,17.71529 8.5202109,18.3057996 C8.7943761,18.8541301 8.72056239,19.5289982 8.34094903,20.0246046 C7.96133568,20.5096661 7.28646749,20.7205624 6.39015817,20.6256591 C5.48330404,20.5202109 4.72407733,20.0035149 4.29173989,19.1915641 C3.86994728,18.400703 3.84885764,17.4622144 4.228471,16.745167 C5.14586995,15.0158172 6.87521968,15.026362 7.82425308,15.1950791 C9.22671353,15.4376098 10.8189807,16.7346221 11.3884007,18.2214411 C11.483304,18.4639719 11.5254833,18.6537786 11.5676626,18.8224956 L11.6309315,19.086116 L13.2126538,19.8558875 C13.202109,19.8242531 13.2442882,19.7504394 13.2126538,19.3075571 C13.1810193,18.9173989 13.1177504,17.8418278 13.6660808,17.3040422 C13.8769772,17.0931459 14.1933216,16.913884 14.4463972,16.8506151 C15.4797891,16.5975395 16.7029877,16.7768014 17.8523726,18.1054482 C18.4534271,18.7908612 18.7381371,19.1072056 18.8857645,19.2442882 L19.0017575,19.3391916 C19.0439367,19.370826 20.973638,20.2565905 20.973638,20.2565905 C20.9630931,20.2460457 19.7926186,18.6221441 20.0140598,17.3356766 C20.1827768,16.3022847 20.9947276,16.397188 22.1230228,16.5237258 C22.4920914,16.5764499 22.913884,16.6186292 23.3567663,16.629174 C24.56942,16.6397188 25.8769772,16.4077329 26.6783831,16.059754 C27.2056239,15.827768 27.5325132,15.6801406 27.7434095,15.4903339 C27.8172232,15.427065 27.8594025,15.3321617 27.9015817,15.2161687 L27.9332162,15.1528998 C27.9648506,15.0579965 28.0070299,14.8787346 28.0386643,14.7732865 C28.0386643,14.7311072 28.0492091,14.6783831 28.0175747,14.6572935 L27.9015817,14.6783831 C27.5536028,14.8892794 26.6678383,15.2899824 25.8347979,15.3110721 C24.8119508,15.3321617 22.745167,14.2776801 22.5237258,14.1616872 C22.4710018,14.0456942 22.1441125,13.2864675 22.0808436,13.1282953 C23.5676626,14.1089631 24.801406,14.6572935 25.7504394,14.7311072 C26.8049209,14.8260105 27.6168717,14.2565905 27.9753954,14.0140598 Z M25.6344464,12.6432337 C25.370826,12.6432337 25.1599297,12.5061511 25.1599297,12.3268893 C25.1599297,12.1581722 25.370826,12.0210896 25.6344464,12.0210896 C25.887522,12.0210896 26.0984183,12.1581722 26.0984183,12.3268893 C26.0984183,12.5061511 25.887522,12.6432337 25.6344464,12.6432337 Z M25.4551845,11.483304 C25.1704745,11.4727592 24.8963093,11.5676626 24.6959578,11.7680141 C24.4850615,11.9578207 24.3585237,12.2214411 24.3585237,12.5061511 C24.3374341,13.0966608 24.7908612,13.5922671 25.3813708,13.6133568 C25.6660808,13.6239016 25.940246,13.5184534 26.1511424,13.3286467 C26.3514938,13.1282953 26.4780316,12.8646749 26.4885764,12.5799649 C26.4991213,12 26.0456942,11.5043937 25.4551845,11.483304 Z" id="形状" fill="#30BB77" fill-rule="nonzero"></path>
                <path d="M24.3690685,11.4411248 C24.6643234,11.1669596 25.0544815,11.0193322 25.4657293,11.029877 C26.3093146,11.0615114 26.973638,11.7680141 26.9420035,12.6115993 C26.9314587,13.0228471 26.7521968,13.4024605 26.456942,13.6766257 C26.1616872,13.9613357 25.771529,14.0984183 25.3602812,14.0878735 C24.516696,14.056239 23.8629174,13.3497364 23.884007,12.5061511 C23.9050967,12.0949033 24.0738137,11.71529 24.3690685,11.4411248 Z M28.112478,13.9191564 C28.0492091,13.5500879 27.5325132,11.7258348 27.1107206,11.2934974 C26.9947276,11.1775044 26.8998243,11.0615114 26.7205624,10.9455185 C25.2126538,10.0702988 21.6379613,9.543058 21.4797891,9.52196837 C21.4797891,9.52196837 21.4165202,10.2917399 21.4165202,10.3760984 C21.0579965,10.2495606 18.400703,9.39543058 15.9121265,9.31107206 C13.8137083,9.23725835 10.7346221,8.96309315 6.67486819,11.4622144 L6.5483304,11.5360281 C4.6397188,12.7381371 3.31107206,14.2038664 2.62565905,15.9121265 C2.40421793,16.4499121 2.11950791,17.6731107 2.40421793,18.8119508 C2.53075571,19.3075571 2.76274165,19.8137083 3.0685413,20.2671353 C3.77504394,21.2794376 4.96660808,21.9543058 6.24253076,22.0702988 C8.0456942,22.228471 9.41652021,21.4165202 9.90158172,19.8980668 C10.228471,18.8541301 9.90158172,17.314587 8.61511424,16.5342707 C7.5711775,15.9015817 6.45342707,16.0386643 5.81019332,16.4710018 C5.24077329,16.8506151 4.92442882,17.43058 4.92442882,18.0632689 C4.94551845,19.1915641 5.91564148,19.7926186 6.6115993,19.8031634 C6.82249561,19.8031634 7.0228471,19.7609842 7.25483304,19.6871705 C7.33919156,19.6660808 7.41300527,19.6344464 7.4973638,19.5817223 C7.65553603,19.4657293 7.79261863,19.2653779 7.79261863,19.0755712 C7.79261863,19.0333919 7.78207381,18.9806678 7.771529,18.9279438 C7.68717047,18.6326889 7.40246046,18.4639719 7.10720562,18.516696 L7.0228471,18.5377856 L6.93848858,18.56942 C6.78031634,18.6115993 6.65377856,18.6115993 6.63268893,18.6115993 C6.5483304,18.6115993 6.14762742,18.4850615 6.14762742,18.0421793 C6.14762742,17.884007 6.21089631,17.7680141 6.25307557,17.7047452 C6.36906854,17.5043937 6.71704745,17.314587 7.18101933,17.3567663 C7.79261863,17.4094903 8.22495606,17.71529 8.5202109,18.3057996 C8.7943761,18.8541301 8.72056239,19.5289982 8.34094903,20.0246046 C7.96133568,20.5096661 7.28646749,20.7205624 6.39015817,20.6256591 C5.48330404,20.5202109 4.72407733,20.0035149 4.29173989,19.1915641 C3.86994728,18.400703 3.84885764,17.4622144 4.228471,16.745167 C5.14586995,15.0158172 6.87521968,15.026362 7.82425308,15.1950791 C9.22671353,15.4376098 10.8189807,16.7346221 11.3884007,18.2214411 C11.483304,18.4639719 11.5254833,18.6537786 11.5676626,18.8224956 L11.6309315,19.086116 L13.2126538,19.8558875 C13.202109,19.8242531 13.2442882,19.7504394 13.2126538,19.3075571 C13.1810193,18.9173989 13.1177504,17.8418278 13.6660808,17.3040422 C13.8769772,17.0931459 14.1933216,16.913884 14.4463972,16.8506151 C15.4797891,16.5975395 16.7029877,16.7768014 17.8523726,18.1054482 C18.4534271,18.7908612 18.7381371,19.1072056 18.8857645,19.2442882 L19.0017575,19.3391916 C19.0439367,19.370826 20.973638,20.2565905 20.973638,20.2565905 C20.9630931,20.2460457 19.7926186,18.6221441 20.0140598,17.3356766 C20.1827768,16.3022847 20.9947276,16.397188 22.1230228,16.5237258 C22.4920914,16.5764499 22.913884,16.6186292 23.3567663,16.629174 C24.56942,16.6397188 25.8769772,16.4077329 26.6783831,16.059754 C27.2056239,15.827768 27.5325132,15.6801406 27.7434095,15.4903339 C27.8172232,15.427065 27.8594025,15.3321617 27.9015817,15.2161687 L27.9332162,15.1528998 C27.9648506,15.0579965 28.0070299,14.8787346 28.0386643,14.7732865 C28.0386643,14.7311072 28.0492091,14.6783831 28.0175747,14.6572935 L27.9015817,14.6783831 C27.5536028,14.8892794 26.6678383,15.2899824 25.8347979,15.3110721 C24.8119508,15.3321617 22.745167,14.2776801 22.5237258,14.1616872 C22.4710018,14.0456942 22.1441125,13.2864675 22.0808436,13.1282953 C23.5676626,14.1089631 24.801406,14.6572935 25.7504394,14.7311072 C26.8049209,14.8260105 27.6168717,14.2565905 27.9753954,14.0140598 C28.0386643,13.9613357 28.0913884,13.9297012 28.112478,13.9191564 Z M25.1599297,12.3268893 C25.1599297,12.1581722 25.370826,12.0210896 25.6344464,12.0210896 C25.887522,12.0210896 26.0984183,12.1581722 26.0984183,12.3268893 C26.0984183,12.5061511 25.887522,12.6432337 25.6344464,12.6432337 C25.370826,12.6432337 25.1599297,12.5061511 25.1599297,12.3268893 Z M24.6959578,11.7680141 C24.4850615,11.9578207 24.3585237,12.2214411 24.3585237,12.5061511 C24.3374341,13.0966608 24.7908612,13.5922671 25.3813708,13.6133568 C25.6660808,13.6239016 25.940246,13.5184534 26.1511424,13.3286467 C26.3514938,13.1282953 26.4780316,12.8646749 26.4885764,12.5799649 C26.4991213,12 26.0456942,11.5043937 25.4551845,11.483304 C25.1704745,11.4727592 24.8963093,11.5676626 24.6959578,11.7680141 Z" id="形状" stroke-opacity="0" stroke="#000000" stroke-width="0.64"></path>
            </g>
        </g>
    </g>
</svg>
