<?xml version="1.0" encoding="UTF-8"?>
<svg width="31px" height="31px" viewBox="0 0 31 31" version="1.1" xmlns="http://www.w3.org/2000/svg" xmlns:xlink="http://www.w3.org/1999/xlink">
    <defs>
        <ellipse id="path-1" cx="14.8831869" cy="14.8832354" rx="14.8831869" ry="14.8832354"></ellipse>
    </defs>
    <g id="页面-1" stroke="none" stroke-width="1" fill="none" fill-rule="evenodd">
        <g id="icon" transform="translate(-1437.000000, -230.000000)">
            <g id="编组-16" transform="translate(1437.890974, 230.890928)">
                <ellipse id="path-1" fill="#808080" fill-rule="nonzero" cx="14.8831869" cy="14.8832354" rx="14.8831869" ry="14.8832354"></ellipse>
                <ellipse id="path-1" stroke-opacity="0" stroke="#000000" stroke-width="0.64" cx="14.8831869" cy="14.8832354" rx="14.8831869" ry="14.8832354"></ellipse>
                <path d="M10.2417593,9.61943459 C13.2375898,9.61943459 15.5266575,11.7291744 15.5266575,15.421219 C15.5266575,19.1132637 13.2375898,21.2230035 10.2417593,21.2230035 C7.22483138,21.2230035 4.9568611,19.102715 4.9568611,15.421219 C4.9568611,11.7291744 7.22483138,9.61943459 10.2417593,9.61943459 Z M25.7061521,13.0266644 L23.4170844,13.0266644 C23.3326948,12.1405737 22.625932,11.6131387 21.4866725,11.6131387 C20.3157669,11.6131387 19.6722962,12.1511223 19.6722962,12.8789826 C19.6617475,13.6912324 20.4845461,14.0498882 21.4655751,14.2819596 L22.4782502,14.5245796 C24.4403082,14.967625 25.8538339,15.9592027 25.8643825,17.8368711 C25.8538339,19.9149648 24.2293342,21.2230035 21.4761238,21.2230035 C18.733462,21.2230035 16.9929267,19.9677083 16.9296345,17.5204102 L19.2397996,17.5204102 C19.3136405,18.6491209 20.2102799,19.2292994 21.4550264,19.2292994 C22.6681267,19.2292994 23.4487305,18.6596696 23.4487305,17.8368711 C23.4487305,17.0773648 22.763065,16.718709 21.5288673,16.4233455 L20.3052182,16.1174332 C18.3959036,15.6532904 17.2249981,14.7039075 17.2249981,13.0372131 C17.2144494,10.9907655 19.0288256,9.61943459 21.5077699,9.61943459 C24.0183602,9.61943459 25.674506,11.0118629 25.7061521,13.0266644 Z M10.2417593,19.1132637 C11.9717459,19.1132637 13.1110054,17.8157737 13.1110054,15.421219 C13.1110054,13.0266644 11.9717459,11.7291744 10.2417593,11.7291744 C8.50122397,11.7291744 7.37251317,13.0266644 7.37251317,15.421219 C7.37251317,17.8157737 8.50122397,19.1132637 10.2417593,19.1132637 Z" id="OS" fill="#FFFFFF"></path>
                <g id="Clipped" transform="translate(0.233626, 0.172389)">
                    <mask id="mask-2" fill="white">
                        <use xlink:href="#path-1"></use>
                    </mask>
                    <g id="path-1"></g>
                </g>
            </g>
        </g>
    </g>
</svg>
