<?xml version="1.0" encoding="UTF-8"?>
<svg width="37px" height="36px" viewBox="0 0 37 36" version="1.1" xmlns="http://www.w3.org/2000/svg" xmlns:xlink="http://www.w3.org/1999/xlink">
    <defs>
        <linearGradient x1="6.98261606%" y1="11.1337757%" x2="95.2459162%" y2="85.6725422%" id="linearGradient-1">
            <stop stop-color="#81B2F8" offset="0%"></stop>
            <stop stop-color="#ACD0FF" offset="100%"></stop>
        </linearGradient>
    </defs>
    <g id="页面-1" stroke="none" stroke-width="1" fill="none" fill-rule="evenodd">
        <g id="购买实例-自定义配置" transform="translate(-250.000000, -384.000000)">
            <g id="编组-23" transform="translate(250.000000, 384.000000)">
                <rect id="矩形" fill="#0063FF" x="0" y="0" width="23" height="23" rx="3"></rect>
                <path d="M36.044,17.468 L36.044,29.812 C36.044,30.6277523 35.9653736,31.3347757 35.8124589,31.9336916 C35.6464568,32.5838663 35.3659237,33.1208202 34.9790513,33.5491431 C34.588082,33.982002 34.0674128,34.3085234 33.4100201,34.5183296 C32.8053082,34.7113228 32.0531461,34.812 31.152,34.812 L10.308,34.812 C8.38771642,34.812 7.11743555,34.3145125 6.42325416,33.4334361 C5.74561857,32.5733602 5.38,31.2780429 5.38,29.524 L5.38,17.468 L36.044,17.468 Z M33.132,8.756 C34.2233118,8.756 34.9576898,9.07098376 35.3923779,9.60709902 C35.8186728,10.1328628 36.044,10.8046297 36.044,11.632 L36.044,15.948 L5.38,15.948 L5.38,11.704 C5.38,10.8446557 5.63426701,10.1487869 6.11937934,9.60660257 C6.61723113,9.05017998 7.3002069,8.756 8.184,8.756 Z" id="形状" stroke="url(#linearGradient-1)" fill-opacity="0.198672421" fill="#0063FF" fill-rule="nonzero"></path>
                <path d="M13.044,9.716 C13.044,10.052 12.936,10.316 12.72,10.508 C12.504,10.7 12.24,10.796 11.928,10.796 C11.64,10.796 11.394,10.694 11.19,10.49 C10.986,10.286 10.884,10.004 10.884,9.644 L10.848,7.16 C10.848,6.752 10.956,6.446 11.172,6.242 C11.388,6.038 11.64,5.936 11.928,5.936 C12.24,5.936 12.504,6.044 12.72,6.26 C12.936,6.476 13.044,6.788 13.044,7.196 L13.044,9.716 Z" id="路径" fill="#FFFFFF" fill-rule="nonzero"></path>
                <path d="M30.54,9.68 C30.54,10.016 30.438,10.286 30.234,10.49 C30.03,10.694 29.784,10.796 29.496,10.796 C29.184,10.796 28.926,10.7 28.722,10.508 C28.518,10.316 28.416,10.04 28.416,9.68 L28.416,7.016 C28.416,6.608 28.518,6.326 28.722,6.17 C28.926,6.014 29.184,5.936 29.496,5.936 C29.784,5.936 30.03,6.026 30.234,6.206 C30.438,6.386 30.54,6.68 30.54,7.088 L30.54,9.68 Z" id="路径" fill="#FFFFFF" fill-rule="nonzero"></path>
            </g>
        </g>
    </g>
</svg>
