<?xml version="1.0" encoding="UTF-8"?>
<svg width="31px" height="31px" viewBox="0 0 31 31" version="1.1" xmlns="http://www.w3.org/2000/svg" xmlns:xlink="http://www.w3.org/1999/xlink">
    <g id="页面-1" stroke="none" stroke-width="1" fill="none" fill-rule="evenodd">
        <g id="icon" transform="translate(-1663.000000, -176.000000)" fill-rule="nonzero">
            <g id="编组-7" transform="translate(1641.000000, 90.000000)">
                <g id="编组-120备份" transform="translate(22.000000, 86.000000)">
                    <g id="Ubuntu-weak" fill="#98A3B7">
                        <path d="M3.1258,18.063519 C4.85213,18.063519 6.2516,16.754219 6.2516,15.139219 C6.2516,13.524119 4.85213,12.214819 3.1258,12.214819 C1.39947,12.214819 0,13.524119 0,15.139219 C0,16.754219 1.39947,18.063519 3.1258,18.063519 Z" id="路径"></path>
                        <path d="M24.9945,30.273219 C26.7208,30.273219 28.1202,28.963919 28.1202,27.348719 C28.1202,25.733619 26.7208,24.424319 24.9945,24.424319 C23.2681,24.424319 21.8687,25.733619 21.8687,27.348719 C21.8687,28.963919 23.2681,30.273219 24.9945,30.273219 Z" id="路径"></path>
                        <path d="M17.7049,7.839839 C21.5024,7.839839 24.6534,10.567319 25.1751,14.103419 L30.4003,14.103419 C30.163,11.324919 28.972,8.735109 26.9808,6.692599 C25.7056,7.320799 24.1375,7.332819 22.8055,6.589159 C21.4724,5.844629 20.6989,4.524149 20.6248,3.140379 C19.6665,2.924559 18.6873,2.815899 17.705,2.81640721 C15.7984,2.81640721 13.956,3.218999 12.2803,3.982289 L14.8962,8.364939 C15.7916,8.016849 16.7441,7.838779 17.7049,7.839839 Z" id="路径"></path>
                        <path d="M25.1749,16.171919 C24.6544,19.709319 21.503,22.438419 17.7043,22.438419 C16.7117,22.438419 15.7634,22.251619 14.8947,21.912619 L12.2783,26.295619 C13.9536,27.059319 15.7968,27.462119 17.7041,27.462119 C18.7004,27.462119 19.6795,27.350919 20.6262,27.137519 C20.699,25.752219 21.4729,24.429419 22.8068,23.684519 C24.1393,22.940219 25.708,22.952319 26.9835,23.581819 C28.9731,21.539119 30.1628,18.949419 30.3994,16.171919 L25.1749,16.171919 Z" id="路径"></path>
                        <path d="M10.1581,15.139019 C10.1581,12.813419 11.2883,10.738619 13.0449,9.401019 L10.4296,5.019039 C9.81182,5.436499 9.23155,5.906999 8.69542,6.425189 C7.18185,7.889119 6.09647,9.656819 5.49913,11.586019 C6.70251,12.340019 7.49932,13.648819 7.49932,15.139019 C7.49932,16.628919 6.7024,17.938019 5.49902,18.691719 C6.09636,20.621019 7.18174,22.388519 8.69531,23.852619 C9.23101,24.370619 9.81079,24.840919 10.4281,25.258319 L13.0438,20.876019 C11.2876,19.538619 10.1581,17.463819 10.1581,15.139019 Z" id="路径"></path>
                        <path d="M24.9919,5.849119 C26.7181,5.849119 28.1175,4.539749 28.1175,2.924559 C28.1175,1.309369 26.7181,8.8817842e-16 24.9919,8.8817842e-16 C23.2656,8.8817842e-16 21.8662,1.309369 21.8662,2.924559 C21.8662,4.539749 23.2656,5.849119 24.9919,5.849119 Z" id="路径"></path>
                    </g>
                    <g id="Ubuntu">
                        <path d="M3.1258,18.063519 C4.85213,18.063519 6.2516,16.754219 6.2516,15.139219 C6.2516,13.524119 4.85213,12.214819 3.1258,12.214819 C1.39947,12.214819 0,13.524119 0,15.139219 C0,16.754219 1.39947,18.063519 3.1258,18.063519 Z" id="路径" fill="#FF6309"></path>
                        <path d="M24.9945,30.273219 C26.7208,30.273219 28.1202,28.963919 28.1202,27.348719 C28.1202,25.733619 26.7208,24.424319 24.9945,24.424319 C23.2681,24.424319 21.8687,25.733619 21.8687,27.348719 C21.8687,28.963919 23.2681,30.273219 24.9945,30.273219 Z" id="路径" fill="#FFB515"></path>
                        <path d="M17.7049,7.839839 C21.5024,7.839839 24.6534,10.567319 25.1751,14.103419 L30.4003,14.103419 C30.163,11.324919 28.972,8.735109 26.9808,6.692599 C25.7056,7.320799 24.1375,7.332819 22.8055,6.589159 C21.4724,5.844629 20.6989,4.524149 20.6248,3.140379 C19.6665,2.924559 18.6873,2.815899 17.705,2.81640721 C15.7984,2.81640721 13.956,3.218999 12.2803,3.982289 L14.8962,8.364939 C15.7916,8.016849 16.7441,7.838779 17.7049,7.839839 Z" id="路径" fill="#FF6309"></path>
                        <path d="M25.1749,16.171919 C24.6544,19.709319 21.503,22.438419 17.7043,22.438419 C16.7117,22.438419 15.7634,22.251619 14.8947,21.912619 L12.2783,26.295619 C13.9536,27.059319 15.7968,27.462119 17.7041,27.462119 C18.7004,27.462119 19.6795,27.350919 20.6262,27.137519 C20.699,25.752219 21.4729,24.429419 22.8068,23.684519 C24.1393,22.940219 25.708,22.952319 26.9835,23.581819 C28.9731,21.539119 30.1628,18.949419 30.3994,16.171919 L25.1749,16.171919 Z" id="路径" fill="#C90016"></path>
                        <path d="M10.1581,15.139019 C10.1581,12.813419 11.2883,10.738619 13.0449,9.401019 L10.4296,5.019039 C9.81182,5.436499 9.23155,5.906999 8.69542,6.425189 C7.18185,7.889119 6.09647,9.656819 5.49913,11.586019 C6.70251,12.340019 7.49932,13.648819 7.49932,15.139019 C7.49932,16.628919 6.7024,17.938019 5.49902,18.691719 C6.09636,20.621019 7.18174,22.388519 8.69531,23.852619 C9.23101,24.370619 9.81079,24.840919 10.4281,25.258319 L13.0438,20.876019 C11.2876,19.538619 10.1581,17.463819 10.1581,15.139019 Z" id="路径" fill="#FFB515"></path>
                        <path d="M24.9919,5.849119 C26.7181,5.849119 28.1175,4.539749 28.1175,2.924559 C28.1175,1.309369 26.7181,8.8817842e-16 24.9919,8.8817842e-16 C23.2656,8.8817842e-16 21.8662,1.309369 21.8662,2.924559 C21.8662,4.539749 23.2656,5.849119 24.9919,5.849119 Z" id="路径" fill="#C90016"></path>
                    </g>
                </g>
            </g>
        </g>
    </g>
</svg>
