<svg xmlns="http://www.w3.org/2000/svg" xmlns:xlink="http://www.w3.org/1999/xlink" fill="none" version="1.1" width="14" height="14" viewBox="0 0 14 14"><defs><clipPath id="master_svg0_13_615"><rect x="0" y="0" width="14" height="14" rx="0"/></clipPath></defs><g clip-path="url(#master_svg0_13_615)"><g style="opacity:0;"><rect x="0" y="0" width="14" height="14" rx="0" fill="#000000" fill-opacity="1"/></g><g><path d="M10.937500625,12.539014453125L3.062500625,12.539014453125C2.179687625,12.538814453125,1.462890625,11.822514453125,1.462890625,10.938964453125L1.462890625,3.938964453125C1.460937505,3.054934453125,2.1777346250000003,2.336425453125,3.062500625,2.333007453125L4.085940625,2.333007453125L4.085940625,1.898925453125C4.070310624999999,1.647460453125,4.271480625000001,1.434814453125,4.523440625,1.434814453125C4.775390625,1.434814453125,4.974610625,1.647460453125,4.958980625000001,1.898925453125L4.958980625000001,2.333007453125L9.041010625,2.333007453125L9.041010625,1.898925453125C9.041010625,1.656250453125,9.238280625,1.459472653125,9.480470625,1.459472653125C9.722660625,1.459472653125,9.919920625,1.656250453125,9.919920625,1.898925453125L9.919920625,2.333007453125L10.937500625,2.333007453125C11.824190625,2.334716453125,12.540990625,3.052974453125,12.542990625,3.938964453125L12.542990625,10.938964453125C12.544890625,11.824914453125,11.824190625,12.542514453125,10.937500625,12.539014453125ZM3.062500625,3.2060544531249997C2.660160625,3.2060544531249997,2.3339846250000003,3.534424453125,2.335937625,3.937984453125L2.335937625,10.937984453125C2.332031625,11.341304453125,2.660160625,11.668714453125,3.062500625,11.664014453125L10.937500625,11.664014453125C11.130860625,11.665514453125,11.316410625,11.589614453125,11.453120625,11.453114453125C11.589890625,11.316654453125,11.667990625,11.131594453125,11.669890625,10.938234453125L11.669890625,3.938234453125C11.667990625,3.744144453125,11.589890625,3.559084453125,11.453120625,3.423344453125C11.318360625,3.285884453125,11.132810625,3.207764453125,10.937500625,3.206294453125L9.919920625,3.206294453125L9.919920625,3.646244453125C9.919920625,3.888914453125,9.722660625,4.085694453125,9.480470625,4.085694453125C9.238280625,4.085694453125,9.041010625,3.888914453125,9.041010625,3.646244453125L9.041010625,3.206294453125L4.958980625000001,3.206294453125L4.958980625000001,3.646244453125C4.957030625,3.887694453125,4.761720625000001,4.082274453125001,4.519530625,4.080324453125C4.279300624999999,4.082274453125001,4.083980625000001,3.886714453125,4.085940625,3.646244453125L4.085940625,3.206294453125L3.062500625,3.2060544531249997Z" fill="#555555" fill-opacity="1"/><path d="" fill="#000000" fill-opacity="0"/></g><g><path d="M9.770001834945678,6.270999908447266C10.003501834945679,6.282166208447266,10.18708183494568,6.474732908447265,10.18708183494568,6.708499908447266C10.18708183494568,6.942266908447266,10.003501834945679,7.134833908447265,9.770001834945678,7.145999908447266L4.228999834945679,7.145999908447266C3.9954998349456785,7.134833908447265,3.8119218349456787,6.942266908447266,3.8119218349456787,6.708499908447266C3.8119219224899785,6.474732908447265,3.9954998349456785,6.282166208447266,4.228999834945679,6.270999908447266L9.770001834945678,6.270999908447266Z" fill="#555555" fill-opacity="1"/></g><g><path d="M8.020001834945678,8.458000183105469C8.253501834945679,8.469166483105468,8.43708183494568,8.661733183105468,8.43708183494568,8.895500183105469C8.43708183494568,9.129267183105469,8.253501834945679,9.32183418310547,8.020001834945678,9.333000183105469L4.228999834945679,9.333000183105469C3.9954998349456785,9.32183418310547,3.8119218349456787,9.129267183105469,3.8119218349456787,8.895500183105469C3.8119219224899785,8.661733183105468,3.9954998349456785,8.469166483105468,4.228999834945679,8.458000183105469L8.020001834945678,8.458000183105469Z" fill="#555555" fill-opacity="1"/></g></g></svg>