<?xml version="1.0" encoding="UTF-8"?>
<svg width="32px" height="32px" viewBox="0 0 32 32" version="1.1" xmlns="http://www.w3.org/2000/svg" xmlns:xlink="http://www.w3.org/1999/xlink">
    <g id="汇总" stroke="none" stroke-width="1" fill="none" fill-rule="evenodd">
        <g id="DNS-解析-批量操作-导出记录-弹窗-改" transform="translate(-490.000000, -572.000000)" fill-rule="nonzero">
            <g id="我的域名/添加域名-默认状态备份-11" transform="translate(470.000000, 532.000000)">
                <g id="编组-4" transform="translate(19.999960, 20.000000)">
                    <g id="icon_失败提示框" transform="translate(0.000000, 20.000625)">
                        <rect id="矩形" fill="#000000" opacity="0" x="0" y="0" width="32" height="31.9983371"></rect>
                        <path d="M15.9969664,31.994671 C6.01853691,31.9920621 -1.52154594,22.9540105 0.265046685,13.137332 C2.05164242,3.3206534 12.2926101,-2.48166133 21.6321972,1.03115988 C30.9717855,4.54397923 34.8499415,15.6567984 29.7237361,24.2173716 C29.3825656,24.7861791 28.6447899,24.9706158 28.0760695,24.6292685 C27.5073491,24.2879213 27.3231592,23.5501176 27.664721,22.9815457 C32.5303037,14.8352277 27.7570688,4.33745262 18.4194854,2.64850487 C9.08190132,0.959556968 0.933463575,9.12010722 2.63685328,18.4545983 C4.34024185,27.7890865 14.8458889,32.5459304 22.9851407,27.6680824 C23.551909,27.3412694 24.2760262,27.5287108 24.6130222,28.0894652 C24.950016,28.6502195 24.7756488,29.3775625 24.2210308,29.7245921 C21.7448634,31.2108182 18.9113587,31.9962935 16.0233656,31.9970693 L15.9969664,31.994671 Z M19.2414752,20.8602487 L15.9969664,17.6183058 L12.7548573,20.8602464 C12.3075467,21.3075327 11.5823126,21.3075327 11.135002,20.8602464 C10.6876914,20.4129602 10.6876914,19.6877638 11.135002,19.2404753 L14.3771123,15.9961352 L11.135002,12.7541945 C10.6876914,12.3069072 10.6876914,11.5817119 11.135002,11.1344234 C11.5823138,10.687136 12.3075467,10.687136 12.7548573,11.1344234 L15.9969664,14.3763652 L19.2414752,11.1344234 C19.6887869,10.687136 20.414021,10.687136 20.8613305,11.1344234 C21.3086422,11.5817108 21.3086422,12.3069072 20.8613305,12.7541945 L17.6192214,15.9961352 L20.8613305,19.2404753 C21.3092304,19.6876631 21.3095096,20.4133401 20.8619553,20.8608712 C20.4144009,21.3084023 19.6886862,21.3081231 19.2414752,20.8602487 Z" id="形状" fill="#FE4D4F"></path>
                    </g>
                </g>
            </g>
        </g>
    </g>
</svg>