<?xml version="1.0" encoding="UTF-8"?>
<svg width="40px" height="40px" viewBox="0 0 40 40" version="1.1" xmlns="http://www.w3.org/2000/svg" xmlns:xlink="http://www.w3.org/1999/xlink">
    <g id="CDN" stroke="none" stroke-width="1" fill="none" fill-rule="evenodd">
        <g id="猫云控制台设计规范2" transform="translate(-259.000000, -924.000000)" fill-rule="nonzero">
            <g id="编组-91" transform="translate(160.000000, 842.000000)">
                <g id="HTSCIT_完成" transform="translate(99.000000, 82.000000)">
                    <rect id="矩形" fill="#000000" opacity="0" x="0" y="0" width="40" height="40"></rect>
                    <path d="M36.3,7.4 L20,23.7 L13.82,17.52 L11.74,19.6 L18.96,26.82 L20,27.82 L21.04,26.82 L38.38,9.48 L36.3,7.4 Z M20,1.2 C9.6,1.2 1.22,9.58 1.22,19.98 C1.22,30.38 9.6,38.76 20,38.76 C30.4,38.76 38.78,30.38 38.78,19.98 C38.78,17.96 38.5,15.94 37.78,14.06 L35.44,16.36 C35.72,17.52 35.9,18.68 35.9,19.98 C35.9,28.8 28.82,35.88 20,35.88 C11.18,35.88 4.1,28.8 4.1,19.98 C4.1,11.16 11.18,4.08 20,4.08 C24.34,4.08 28.22,5.8 30.98,8.56 L33,6.54 C29.68,3.22 25.06,1.2 20,1.2 Z" id="形状" fill="#02DE6D"></path>
                </g>
            </g>
        </g>
    </g>
</svg>