<?xml version="1.0" encoding="UTF-8"?>
<svg width="16px" height="16px" viewBox="0 0 16 16" version="1.1" xmlns="http://www.w3.org/2000/svg" xmlns:xlink="http://www.w3.org/1999/xlink">
    <g id="CDN" stroke="none" stroke-width="1" fill="none" fill-rule="evenodd">
        <g id="猫云控制台设计规范2" transform="translate(-1033.000000, -713.000000)" fill-rule="nonzero">
            <g id="编组-90" transform="translate(160.000000, 535.000000)">
                <g id="编组-87" transform="translate(0.000000, 177.000000)">
                    <g id="icon_刷新" transform="translate(873.000000, 1.000000)">
                        <rect id="矩形" fill="#000000" opacity="0" x="0" y="0" width="16" height="16"></rect>
                        <path d="M14.2579997,13.5590001 L8.68000007,7.98000014 L14.2579997,2.40200007 C14.4260294,2.22640562 14.4229729,1.94873303 14.2511189,1.77687931 C14.0792658,1.6050258 13.8015931,1.60197009 13.6259997,1.77000004 L8.0480001,7.34800017 L2.47000003,1.77000006 C2.29665875,1.58884652 2.00824976,1.58566897 1.83095935,1.76295939 C1.65366893,1.94024986 1.65684648,2.22865885 1.83800001,2.40200007 L7.41600013,7.98000014 L1.83800001,13.5590001 C1.66997978,13.7345954 1.67304012,14.0122606 1.84488976,14.1841098 C2.01673943,14.3559591 2.29440403,14.3590204 2.47000003,14.1910001 L8.0480001,8.61200011 L13.6260006,14.1910001 C13.8015969,14.3590184 14.0792592,14.3559572 14.2511084,14.1841079 C14.4229577,14.0122586 14.426019,13.7345954 14.2579997,13.5590001 Z" id="路径" stroke="currentColor" stroke-width="0.5" fill="currentColor"></path>
                    </g>
                </g>
            </g>
        </g>
    </g>
</svg>
