<?xml version="1.0" encoding="UTF-8"?>
<svg width="32px" height="32px" viewBox="0 0 32 32" version="1.1" xmlns="http://www.w3.org/2000/svg" xmlns:xlink="http://www.w3.org/1999/xlink">
    <g id="汇总" stroke="none" stroke-width="1" fill="none" fill-rule="evenodd">
        <g id="DNS-解析-批量操作-添加域名-操作成功-改" transform="translate(-490.000000, -445.000000)" fill-rule="nonzero">
            <g id="我的域名/添加域名-默认状态备份-10" transform="translate(470.000000, 405.000000)">
                <g id="编组-4" transform="translate(19.999960, 20.000000)">
                    <g id="icon_成功提示框" transform="translate(0.000000, 20.000625)">
                        <rect id="矩形" fill="#000000" opacity="0" x="0" y="0" width="32" height="31.9983371"></rect>
                        <path d="M15.9969664,31.994671 C6.01853691,31.9920621 -1.52154594,22.9540105 0.265046685,13.137332 C2.05164242,3.3206534 12.2926101,-2.48166133 21.6321972,1.03115988 C30.9717855,4.54397923 34.8499415,15.6567984 29.7237361,24.2173716 C29.3825656,24.7861791 28.6447899,24.9706158 28.0760695,24.6292685 C27.5073491,24.2879213 27.3231592,23.5501176 27.664721,22.9815457 C32.5303037,14.8352277 27.7570688,4.33745262 18.4194854,2.64850487 C9.08190132,0.959556968 0.933463575,9.12010722 2.63685328,18.4545983 C4.34024185,27.7890865 14.8458889,32.5459304 22.9851407,27.6680824 C23.551909,27.3412694 24.2760262,27.5287108 24.6130222,28.0894652 C24.950016,28.6502195 24.7756488,29.3775625 24.2210308,29.7245921 C21.7448634,31.2108182 18.9113587,31.9962935 16.0233656,31.9970693 L15.9969664,31.994671 Z M13.1652206,20.8482479 L9.15277967,16.8528136 C8.66964825,16.3874689 8.66188413,15.6164408 9.13554584,15.1414615 C9.60920755,14.6664822 10.3802952,14.6720661 10.8470281,15.1538537 L14.0075447,18.3022086 L21.1469059,11.1512209 C21.6129477,10.6687182 22.3840708,10.6620175 22.8584271,11.1363492 C23.3327834,11.6106808 23.3260823,12.381765 22.8435534,12.8477814 L14.8594684,20.8458495 C14.3909115,21.3142425 13.6313779,21.3142425 13.1628198,20.8458495 L13.1652206,20.8482479 Z" id="形状" fill="#02DE6D"></path>
                    </g>
                </g>
            </g>
        </g>
    </g>
</svg>