<svg xmlns="http://www.w3.org/2000/svg" xmlns:xlink="http://www.w3.org/1999/xlink" fill="none" version="1.1" width="16" height="16.000999450683594" viewBox="0 0 16 16.000999450683594"><defs><clipPath id="master_svg0_3_2775"><rect x="0" y="0" width="16" height="16.000999450683594" rx="0"/></clipPath></defs><g clip-path="url(#master_svg0_3_2775)"><g style="opacity:0;"><rect x="0" y="0" width="16" height="16" rx="0" fill="#000000" fill-opacity="1"/></g><g><path d="M4.887,15.37C1.91969,14.125,-0.00798079,11.2179,0,8C-0.0110981,3.57713,3.57713,-0.0111021,8,0C9.06927,-0.00493451,10.1282,0.209838,11.111,0.631C12.064,1.02967,12.9294,1.61169,13.658,2.344C15.1617,3.84158,16.0048,5.87779,16,8C15.9999,10.1205,15.1566,12.1538,13.656,13.652C12.1573,15.1552,10.1222,16,8,16C6.93021,16.0046,5.8708,15.7902,4.887,15.37ZM1.43,8C1.42945,11.63,4.37155,14.573,8.001,14.573C11.6299,14.5736,14.572,11.6315,14.572,8.002C14.5726,4.3731,11.63,1.431,8,1.431C4.37371,1.43541,1.43496,4.37371,1.43,8ZM6.972,11.263C7.02623,10.7467,7.48257,10.3681,8,10.41C8.51991,10.3665,8.97832,10.7487,9.029,11.268C8.9778,11.787,8.51973,12.1689,8,12.126C7.48082,12.1678,7.02371,11.7863,6.972,11.268L6.972,11.263ZM6.89,6.708C6.89,5.145,7.39,3.877,8.001,3.877C8.612,3.877,9.113,5.146,9.113,6.708C9.113,8.27,8.615,9.538,8,9.538C7.385,9.538,6.89,8.272,6.89,6.708Z" fill="#F53F3F" fill-opacity="1"/></g></g></svg>