<svg id="加载" xmlns="http://www.w3.org/2000/svg" width="16" height="16" viewBox="0 0 16 16">
  <rect id="矩形" width="16" height="16" opacity="0"/>
  <path id="形状" d="M7.372,15.371v-.428a.615.615,0,0,1,1.23,0v.428a.615.615,0,0,1-1.23,0ZM4,14.907a.6.6,0,0,1-.227-.838l.454-.795a.627.627,0,0,1,.846-.227.613.613,0,0,1,.219.839l-.455.795A.607.607,0,0,1,4,14.907Zm7.152-.226a.6.6,0,0,1,.214-.834.617.617,0,0,1,.839.223.609.609,0,1,1-1.053.611Zm-10.077-2.7a.61.61,0,0,1,.219-.838l1.221-.707A.614.614,0,0,1,3.123,11.5l-1.213.707a.629.629,0,0,1-.307.08A.605.605,0,0,1,1.071,11.985ZM12.478,8.6a.612.612,0,0,1,0-1.225h2.882a.612.612,0,0,1,0,1.225ZM.61,8.6a.612.612,0,0,1,0-1.225h1.9a.612.612,0,0,1,0,1.225ZM11.344,6.051a.616.616,0,0,1,.227-.839l2.5-1.443a.613.613,0,0,1,.614,1.062l-2.5,1.443a.615.615,0,0,1-.3.078A.629.629,0,0,1,11.344,6.051ZM3.368,6.026l-2.076-1.2A.6.6,0,0,1,1.073,4a.608.608,0,0,1,.839-.227l2.067,1.2a.609.609,0,0,1-.308,1.137A.6.6,0,0,1,3.368,6.026ZM9.924,4.634A.624.624,0,0,1,9.7,3.791L11.141,1.3a.615.615,0,0,1,.838-.227.606.606,0,0,1,.227.839l-1.443,2.5a.615.615,0,0,1-.839.226ZM5.209,4.406l-1.44-2.5A.609.609,0,0,1,4.823,1.3L6.269,3.791a.612.612,0,0,1-.219.839.6.6,0,0,1-.306.084A.627.627,0,0,1,5.209,4.406Zm2.164-.912V.616a.615.615,0,1,1,1.23,0V3.495a.623.623,0,0,1-.619.62A.614.614,0,0,1,7.373,3.495Z" transform="translate(0.019 0.019)" fill="currentColor"/>
</svg>
