<?xml version="1.0" encoding="UTF-8"?>
<svg width="32px" height="32px" viewBox="0 0 32 32" version="1.1" xmlns="http://www.w3.org/2000/svg" xmlns:xlink="http://www.w3.org/1999/xlink">
    <g id="汇总" stroke="none" stroke-width="1" fill="none" fill-rule="evenodd">
        <g id="DNS-解析-我的域名-改-删除域名" transform="translate(-490.000000, -448.000000)" fill-rule="nonzero">
            <g id="我的域名/添加域名-默认状态备份-10" transform="translate(470.000000, 408.000000)">
                <g id="编组-4" transform="translate(19.999960, 20.000000)">
                    <g id="icon_警示提示框" transform="translate(0.000000, 20.000625)">
                        <rect id="矩形" fill="#000000" opacity="0" x="0" y="0.000110857755" width="32" height="31.9982263"></rect>
                        <path d="M0,15.9991131 C0,7.16304637 7.16344343,0 16,0 C24.8365566,0 32,7.16304637 32,15.9991131 C32,24.8351799 24.8365566,31.9982263 16,31.9982263 C7.16970389,31.9831275 0.0150990305,24.8289198 0,15.9991131 Z M2.28571429,15.9991131 C2.28571429,23.5728859 8.4258085,29.7126387 16,29.7126387 C23.5741926,29.7126387 29.7142857,23.5728859 29.7142857,15.9991131 C29.7142857,8.42534146 23.5741926,2.28558759 16,2.28558759 C8.42998505,2.29565947 2.29578618,8.42951778 2.28571429,15.9991131 Z M14.8571429,22.8558759 C14.8571429,22.2247289 15.3688169,21.7130821 16,21.7130821 C16.6311831,21.7130821 17.1428571,22.2247289 17.1428571,22.8558759 C17.1428571,23.4870229 16.6311831,23.9986697 16,23.9986697 C15.3530993,24.0383295 14.8174798,23.5027386 14.8571429,22.8558759 Z M14.8571429,18.2847007 L14.8571429,9.14235036 C14.8571429,8.51120282 15.3688169,7.99955657 16,7.99955657 C16.6311831,7.99955657 17.1428571,8.51120282 17.1428571,9.14235036 L17.1428571,18.2847007 C17.1428571,18.9158477 16.6311831,19.4274945 16,19.4274945 C15.3688169,19.4274945 14.8571429,18.9158477 14.8571429,18.2847007 Z" id="形状" fill="#F7B500"></path>
                    </g>
                </g>
            </g>
        </g>
    </g>
</svg>