<?xml version="1.0" encoding="UTF-8"?>
<svg width="14px" height="14px" viewBox="0 0 14 14" version="1.1" xmlns="http://www.w3.org/2000/svg" xmlns:xlink="http://www.w3.org/1999/xlink">
    <title>lock</title>
    <g id="汇总" stroke="none" stroke-width="1" fill="none" fill-rule="evenodd">
        <g id="DNS-解析-我的域名-首页加切换语言-改备份" transform="translate(-296.000000, -287.000000)" fill-rule="nonzero">
            <g id="组-348" transform="translate(220.000000, 140.000000)">
                <g id="组-347" transform="translate(20.000000, 74.000000)">
                    <g id="lock" transform="translate(56.000000, 73.000000)">
                        <rect id="矩形" fill="#000000" opacity="0" x="0" y="0" width="14" height="14"></rect>
                        <path d="M12.6,6.16 L11.41,6.16 L11.41,2.24 C11.41,1.00275 10.40725,0 9.17,0 L4.83,0 C3.59275,0 2.59,1.00275 2.59,2.24 L2.59,6.16 L1.4,6.16 C1.09025,6.16 0.84,6.41025 0.84,6.72 L0.84,13.44 C0.84,13.74975 1.09025,14 1.4,14 L12.6,14 C12.90975,14 13.16,13.74975 13.16,13.44 L13.16,6.72 C13.16,6.41025 12.90975,6.16 12.6,6.16 Z M3.85,2.24 C3.85,1.69925 4.28925,1.26 4.83,1.26 L9.17,1.26 C9.71075,1.26 10.15,1.69925 10.15,2.24 L10.15,6.16 L3.85,6.16 L3.85,2.24 Z M11.9,12.74 L2.1,12.74 L2.1,7.42 L11.9,7.42 L11.9,12.74 Z M6.51,10.3075 L6.51,11.235 C6.51,11.312 6.573,11.375 6.65,11.375 L7.35,11.375 C7.427,11.375 7.49,11.312 7.49,11.235 L7.49,10.3075 C7.70175,10.15525 7.84,9.90675 7.84,9.625 C7.84,9.16125 7.46375,8.785 7,8.785 C6.53625,8.785 6.16,9.16125 6.16,9.625 C6.16,9.90675 6.29825,10.15525 6.51,10.3075 Z" id="形状" fill="#999999"></path>
                    </g>
                </g>
            </g>
        </g>
    </g>
</svg>