<?xml version="1.0" encoding="UTF-8"?>
<svg width="16px" height="16px" viewBox="0 0 16 16" version="1.1" xmlns="http://www.w3.org/2000/svg" xmlns:xlink="http://www.w3.org/1999/xlink">
    <g id="汇总" stroke="none" stroke-width="1" fill="none" fill-rule="evenodd">
        <g id="DNS-解析-我的域名-点击域名后-添加记录-添加状态-切换备份" transform="translate(-1119.000000, -212.000000)" fill-rule="nonzero">
            <g id="我的域名/添加域名-默认状态备份-4" transform="translate(249.000000, 192.000000)">
                <g id="minus-square" transform="translate(870.000000, 20.000000)">
                    <rect id="矩形" fill="#000000" opacity="0" x="0" y="0" width="16" height="16"></rect>
                    <g id="编组-12" transform="translate(1.000000, 1.540000)" fill="currentColor" stroke="currentColor" stroke-width="0.2">
                        <path d="M13.44,0 L0.56,0 C0.25025,0 0,0.231 0,0.516923077 L0,12.4061538 C0,12.6920769 0.25025,12.9230769 0.56,12.9230769 L13.44,12.9230769 C13.74975,12.9230769 14,12.6920769 14,12.4061538 L14,0.516923077 C14,0.231 13.74975,0 13.44,0 Z M12.7938462,11.7169231 L1.20615385,11.7169231 L1.20615385,1.20615385 L12.7938462,1.20615385 L12.7938462,11.7169231 Z" id="形状"></path>
                        <path d="M3.78,9.30461538 L10.22,9.30461538 C10.297,9.30461538 10.36,9.23676923 10.36,9.15384615 L10.36,8.24923077 C10.36,8.16630769 10.297,8.09846154 10.22,8.09846154 L3.78,8.09846154 C3.703,8.09846154 3.64,8.16630769 3.64,8.24923077 L3.64,9.15384615 C3.64,9.23676923 3.703,9.30461538 3.78,9.30461538 Z" id="路径"></path>
                    </g>
                </g>
            </g>
        </g>
    </g>
</svg>