<?xml version="1.0" encoding="UTF-8"?>
<svg width="14px" height="14px" viewBox="0 0 14 14" version="1.1" xmlns="http://www.w3.org/2000/svg" xmlns:xlink="http://www.w3.org/1999/xlink">
    <title>pause</title>
    <g id="汇总" stroke="none" stroke-width="1" fill="none" fill-rule="evenodd">
        <g id="DNS-解析-我的域名-首页加切换语言-改备份" transform="translate(-296.000000, -347.000000)" fill="#FFB100" fill-rule="nonzero">
            <g id="组-348" transform="translate(220.000000, 140.000000)">
                <g id="组-347" transform="translate(20.000000, 74.000000)">
                    <g id="编组-4" transform="translate(56.000000, 73.000000)">
                        <g id="pause" transform="translate(0.000000, 60.000000)">
                            <rect id="矩形" opacity="0" x="0" y="0" width="14" height="14"></rect>
                            <path d="M11.63,0.5 L10.43,0.5 C10.3475,0.5 10.28,0.569642857 10.28,0.654761905 L10.28,13.3452381 C10.28,13.4303571 10.3475,13.5 10.43,13.5 L11.63,13.5 C11.7125,13.5 11.78,13.4303571 11.78,13.3452381 L11.78,0.654761905 C11.78,0.569642857 11.7125,0.5 11.63,0.5 Z M3.57,0.5 L2.37,0.5 C2.2875,0.5 2.22,0.569642857 2.22,0.654761905 L2.22,13.3452381 C2.22,13.4303571 2.2875,13.5 2.37,13.5 L3.57,13.5 C3.6525,13.5 3.72,13.4303571 3.72,13.3452381 L3.72,0.654761905 C3.72,0.569642857 3.6525,0.5 3.57,0.5 Z" id="形状"></path>
                        </g>
                    </g>
                </g>
            </g>
        </g>
    </g>
</svg>