<?xml version="1.0" encoding="UTF-8"?>
<svg width="16px" height="16px" viewBox="0 0 16 16" version="1.1" xmlns="http://www.w3.org/2000/svg" xmlns:xlink="http://www.w3.org/1999/xlink">
    <title>切片</title>
    <g id="汇总" stroke="none" stroke-width="1" fill="none" fill-rule="evenodd">
        <g id="DNS-解析-批量操作-操作日志-点击后详情-改" transform="translate(-260.000000, -330.000000)" fill-rule="nonzero">
            <g id="编组-13" transform="translate(220.000000, 140.000000)">
                <g id="编组-11" transform="translate(20.000000, 118.000000)">
                    <g id="故障IP" transform="translate(20.000000, 15.000000)">
                        <g id="选框/多选-选中备份-2" transform="translate(0.000000, 57.000000)">
                            <rect id="矩形" fill="#000000" opacity="0" x="0" y="0" width="16" height="16"></rect>
                            <path d="M12.2999997,5.95 C12.1511931,5.81180316 11.9528174,5.73966676 11.7499995,5.75 L4.24999988,5.8 C4.04718184,5.78966684 3.84880686,5.8618032 3.69999987,6 C3.39999983,6.28571433 3.39999983,6.76428568 3.69999987,7.04999995 L7.44999981,10.8000002 C7.5,10.8500004 7.5999999,10.9000001 7.64999962,10.9500003 L7.69999981,11.0000005 C7.97374535,11.1034203 8.28231382,11.0455632 8.5,10.8500004 L12.2499995,7.05000043 C12.5631089,6.7579782 12.5853248,6.26922399 12.2999997,5.95 Z" id="路径" fill="#999999"></path>
                        </g>
                    </g>
                </g>
            </g>
        </g>
    </g>
</svg>