<?xml version="1.0" encoding="UTF-8"?>
<svg width="18px" height="18px" viewBox="0 0 18 18" version="1.1" xmlns="http://www.w3.org/2000/svg" xmlns:xlink="http://www.w3.org/1999/xlink">
    <defs>
        <polygon id="path-1" points="0 0 14.72717 0 14.72717 10.6173019 0 10.6173019"></polygon>
    </defs>
    <g id="账户中心" stroke="none" stroke-width="1" fill="none" fill-rule="evenodd">
        <g id="账户中心/国内" transform="translate(-431.000000, -371.000000)">
            <g id="编组" transform="translate(411.000000, 132.000000)">
                <g id="编组-2备份-7" transform="translate(0.000000, 224.000000)">
                    <g id="icon邮箱" transform="translate(20.000000, 15.000000)">
                        <rect id="矩形" x="0" y="0" width="18" height="18"></rect>
                        <g id="编组" transform="translate(1.636364, 3.681818)">
                            <mask id="mask-2" fill="white">
                                <use xlink:href="#path-1"></use>
                            </mask>
                            <g id="Clip-2"></g>
                            <path d="M9.13799873,5.0384055 L13.6996858,1.55283679 L13.6996858,8.98086216 L9.13799873,5.0384055 Z M6.43229049,5.67510317 L7.05700085,6.15185581 C7.14878943,6.22206723 7.25907273,6.25734419 7.36867104,6.25734419 C7.47861184,6.25734419 7.58855264,6.22206723 7.68068372,6.15185581 L8.3040241,5.67544567 L12.8335167,9.58981776 L1.8956055,9.58981776 L6.43229049,5.67510317 Z M5.59728837,5.0384055 L1.0273814,8.98188964 L1.0273814,1.5518093 L5.59728837,5.0384055 Z M7.36832854,5.09731459 L2.03431586,1.02744989 L12.6948063,1.02744989 L7.36832854,5.09731459 Z M13.8709332,-3.42494715e-05 L0.856134038,-3.42494715e-05 C0.383833827,-3.42494715e-05 -0.000102748414,0.383902326 -0.000102748414,0.856202537 L-0.000102748414,9.76106512 C-0.000102748414,10.2333653 0.383833827,10.6173019 0.856134038,10.6173019 L13.8709332,10.6173019 C14.3432334,10.6173019 14.72717,10.2333653 14.72717,9.76106512 L14.72717,0.856202537 C14.72717,0.383902326 14.3432334,-3.42494715e-05 13.8709332,-3.42494715e-05 L13.8709332,-3.42494715e-05 Z" id="Fill-1" fill="#345AF8" mask="url(#mask-2)"></path>
                        </g>
                    </g>
                </g>
            </g>
        </g>
    </g>
</svg>