<?xml version="1.0" encoding="UTF-8"?>
<svg width="36px" height="36px" viewBox="0 0 36 36" version="1.1" xmlns="http://www.w3.org/2000/svg" xmlns:xlink="http://www.w3.org/1999/xlink">
    <title>hsm 加密服务</title>
    <defs>
        <polygon id="path-1" points="0 0 24.9180866 0 24.9180866 28 0 28"></polygon>
    </defs>
    <g id="页面-1" stroke="none" stroke-width="1" fill="none" fill-rule="evenodd">
        <g id="购买ssl证书-自定义配置备份" transform="translate(-595.000000, -544.000000)">
            <g id="编组-5备份-6" transform="translate(575.000000, 518.000000)">
                <g id="hsm-加密服务" transform="translate(20.000000, 26.000000)">
                    <rect id="矩形" fill="#000000" fill-rule="nonzero" opacity="0" x="0" y="0" width="36" height="36"></rect>
                    <g id="编组" transform="translate(4.980000, 4.000000)">
                        <g>
                            <mask id="mask-2" fill="white">
                                <use xlink:href="#path-1"></use>
                            </mask>
                            <g id="Clip-2"></g>
                            <path d="M16.5751909,20.9703038 C16.5751909,20.2927427 17.1341788,19.7337548 17.8117399,19.7337548 L17.8456179,19.7337548 L17.8456179,19.1408888 C17.8456179,16.9896324 19.5903377,15.2279736 21.7585332,15.2279736 C22.6393626,15.2279736 23.4863139,15.5159371 24.180814,16.0579859 C24.2824482,15.601338 24.3671433,14.4205466 24.4518385,13.9462539 L13.1760928,13.9462539 L13.1760928,28 C14.1246783,27.6104024 15.7282395,27.1361096 16.5921299,26.5947665 L16.5751909,20.9703038 Z M2.21089593,20.0732411 C4.90420123,24.883219 9.67536052,27.0690593 11.7927389,27.9322439 L11.7927389,13.8954368 L0.500054195,13.8954368 C0.838834736,15.911181 1.36394458,18.5649619 2.21089593,20.0732411 L2.21089593,20.0732411 Z M24.7398019,3.1504473 C24.7398019,3.1504473 22.1481308,4.87822806 18.1674594,2.71003259 C16.6775308,1.89695929 14.5142759,0.999190859 13.1422147,-0.000211737838 L13.1422147,12.545961 L24.756741,12.545961 C25.1293995,8.02324075 24.7398019,3.1504473 24.7398019,3.1504473 L24.7398019,3.1504473 Z M6.78443324,2.71003259 C8.27506762,1.91389832 10.4206777,1.01683568 11.7927389,0.017433082 L11.7927389,12.5290219 L0.161273654,12.5290219 C-0.211384942,8.00630172 0.178212681,3.13421406 0.178212681,3.13421406 C0.178212681,3.13421406 2.76988382,4.86128903 6.78443324,2.71003259 L6.78443324,2.71003259 Z" id="Fill-1" fill="#0063FF" mask="url(#mask-2)"></path>
                        </g>
                        <path d="M20.2337384,19.7510467 L20.2337384,19.2082921 C20.2337384,18.3620465 20.9282385,17.6675464 21.7921289,17.6675464 C22.6390803,17.6675464 23.3505194,18.3620465 23.3505194,19.2082921 L23.3505194,19.7510467 L24.4854342,19.7510467 C24.5193123,19.5816564 24.5369571,19.4122662 24.5369571,19.2598149 C24.5369571,17.7522415 23.3166413,16.5156925 21.8090679,16.5156925 C20.3022003,16.5156925 19.0656513,17.7353025 19.0656513,19.2598149 C19.0656513,19.4292052 19.0818846,19.5985955 19.1157626,19.7510467 L20.2337384,19.7510467 Z M22.3680558,24.3577563 L22.3680558,25.6966452 C22.3680558,25.9846087 22.1309094,26.2217551 21.842946,26.2217551 L21.7420176,26.2217551 C21.4540541,26.2217551 21.2169078,25.9846087 21.2169078,25.6966452 L21.2169078,24.3577563 C20.8611882,24.1551938 20.6402751,23.7825352 20.6402751,23.3759985 C20.6409809,22.7492545 21.1498575,22.2410837 21.7766015,22.2417888 C22.4026397,22.2424953 22.9101047,22.7499603 22.9101047,23.3759985 C22.9446885,23.7825352 22.7075422,24.1551938 22.3680558,24.3577563 L22.3680558,24.3577563 Z M25.129823,20.6481094 L18.4551406,20.6481094 C17.9476755,20.6481094 17.5411389,21.0553518 17.5411389,21.5628168 L17.5411389,26.8823771 C17.5411389,27.3905479 17.9476755,27.7963788 18.4551406,27.7963788 L25.129823,27.7963788 C25.637288,27.7963788 26.0438247,27.3905479 26.0438247,26.8823771 L26.0438247,21.5628168 C26.0614695,21.0553518 25.637288,20.6481094 25.129823,20.6481094 L25.129823,20.6481094 Z" id="Fill-3" fill="#0063FF"></path>
                    </g>
                </g>
            </g>
        </g>
    </g>
</svg>