<?xml version="1.0" encoding="UTF-8"?>
<svg width="20px" height="20px" viewBox="0 0 20 20" version="1.1" xmlns="http://www.w3.org/2000/svg" xmlns:xlink="http://www.w3.org/1999/xlink">
    <g id="主账号" stroke="none" stroke-width="1" fill="none" fill-rule="evenodd">
        <g id="支付系统-尚未完成支付，请继续支付--" transform="translate(-687.000000, -132.000000)" fill="#FE4D4F" fill-rule="nonzero">
            <g id="编组-16备份-2" transform="translate(664.000000, 109.000000)">
                <g id="close-circle-filled" transform="translate(23.000000, 23.000000)">
                    <rect id="矩形" opacity="0" x="0" y="0" width="20" height="20"></rect>
                    <path d="M10,1.25 C5.16796875,1.25 1.25,5.16796875 1.25,10 C1.25,14.8320312 5.16796875,18.75 10,18.75 C14.8320312,18.75 18.75,14.8320312 18.75,10 C18.75,5.16796875 14.8320312,1.25 10,1.25 Z M13.2304688,13.3242188 L11.9414062,13.3183594 L10,11.0039062 L8.06054688,13.3164063 L6.76953125,13.3222656 C6.68359375,13.3222656 6.61328125,13.2539062 6.61328125,13.1660156 C6.61328125,13.1289062 6.62695313,13.09375 6.65039062,13.0644531 L9.19140625,10.0371094 L6.65039062,7.01171875 C6.62695313,6.98242188 6.61328125,6.94726562 6.61328125,6.91015625 C6.61328125,6.82421875 6.68359375,6.75390625 6.76953125,6.75390625 L8.06054688,6.75976562 L10,9.07421875 L11.9394531,6.76171875 L13.2285156,6.75585938 C13.3144531,6.75585938 13.3847656,6.82421875 13.3847656,6.91210938 C13.3847656,6.94921875 13.3710937,6.984375 13.3476562,7.01367188 L10.8105469,10.0390625 L13.3496094,13.0664063 C13.3730469,13.0957031 13.3867188,13.1308594 13.3867188,13.1679688 C13.3867188,13.2539062 13.3164062,13.3242188 13.2304688,13.3242188 Z" id="形状"></path>
                </g>
            </g>
        </g>
    </g>
</svg>