<?xml version="1.0" encoding="UTF-8"?>
<svg width="24px" height="24px" viewBox="0 0 24 24" version="1.1" xmlns="http://www.w3.org/2000/svg" xmlns:xlink="http://www.w3.org/1999/xlink">
    <g id="主账号" stroke="none" stroke-width="1" fill="none" fill-rule="evenodd">
        <g id="访问管理-----角色--新建角色1.2" transform="translate(-810.000000, -484.000000)">
            <g id="编组-15" transform="translate(810.000000, 440.000000)">
                <g id="编组-12" transform="translate(0.000000, 44.000000)">
                    <rect id="矩形备份-3" stroke="#DDDDDD" fill="#E5E6E8" x="0.5" y="0.5" width="23" height="23" rx="3"></rect>
                    <g id="left-outlined备份" transform="translate(12.000000, 12.000000) scale(-1, 1) translate(-12.000000, -12.000000) translate(4.000000, 4.000000)" fill="#CCCCCC" fill-rule="nonzero">
                        <rect id="矩形" opacity="0" x="0" y="0" width="16" height="16"></rect>
                        <path d="M11.3125,3.4109375 L11.3125,2.203125 C11.3125,2.0984375 11.1921875,2.040625 11.1109375,2.1046875 L4.0671875,7.60625 C3.8109375,7.80625 3.8109375,8.1921875 4.0671875,8.3921875 L11.1109375,13.89375 C11.19375,13.9578125 11.3125,13.9 11.3125,13.7953125 L11.3125,12.5875 C11.3125,12.5109375 11.2765625,12.4375 11.2171875,12.390625 L5.5921875,8 L11.2171875,3.6078125 C11.2765625,3.5609375 11.3125,3.4875 11.3125,3.4109375 Z" id="路径"></path>
                    </g>
                </g>
            </g>
        </g>
    </g>
</svg>
