<?xml version="1.0" encoding="UTF-8"?>
<svg width="16px" height="16px" viewBox="0 0 16 16" version="1.1" xmlns="http://www.w3.org/2000/svg" xmlns:xlink="http://www.w3.org/1999/xlink">
    <title>编组</title>
    <g id="登录注册" stroke="none" stroke-width="1" fill="none" fill-rule="evenodd">
        <g id="登录/海外" transform="translate(-619.000000, -562.000000)">
            <g id="编组-7" transform="translate(480.000000, 200.000000)">
                <g id="编组备份" transform="translate(40.000000, 340.000000)">
                    <g id="编组" transform="translate(99.000000, 22.000000)">
                        <path d="M3.34818953,8.00002046 C3.34818953,7.48045838 3.43684675,6.98200607 3.59377739,6.51497295 L0.839100257,4.4557889 C0.28562709,5.5552968 -0.0017925659,6.76927199 0,8.00002046 C0,9.27364301 0.301508438,10.4750996 0.837708592,11.5414701 L3.59099406,9.4789314 C3.43046146,9.00232524 3.34843512,8.50289109 3.34818953,8.00002046" id="Fill-1" fill="#FBBC05"></path>
                        <path d="M8.18623757,3.27283197 C9.33910884,3.27283197 10.3808107,3.67236293 11.1994369,4.32692932 L13.5809842,1.99978215 C12.1299692,0.763633519 10.2696412,0 8.18623757,0 C4.95127245,0 2.17072674,1.81028518 0.839067512,4.45579708 L3.59513631,6.51498113 C4.2295716,4.62901171 6.03873549,3.27283197 8.18623757,3.27283197" id="Fill-3" fill="#EA4335"></path>
                        <path d="M8.18623757,12.727168 C6.03799872,12.727168 4.2289167,11.3710701 3.59374464,9.48501887 L0.839067512,11.5442029 C2.16998997,14.1897148 4.95061755,16 8.18623757,16 C10.1822938,16 12.088383,15.3065687 13.5195872,14.0063544 L10.9040765,12.0276002 C10.1666581,12.482442 9.23751732,12.727168 8.18558267,12.727168" id="Fill-5" fill="#34A853"></path>
                        <path d="M16,8.00002046 C16,7.52750534 15.9250138,7.01817087 15.8138444,6.54565575 L8.18555811,6.54565575 L8.18555811,9.63643644 L12.5761778,9.63643644 C12.3571135,10.6905338 11.7595163,11.5005597 10.9047887,12.0276493 L13.5195626,14.0063217 C15.0224785,12.6413053 16,10.6080584 16,8.00002046" id="Fill-7" fill="#4285F4"></path>
                    </g>
                </g>
            </g>
        </g>
    </g>
</svg>