<?xml version="1.0" encoding="UTF-8"?>
<svg width="26px" height="26px" viewBox="0 0 26 26" version="1.1" xmlns="http://www.w3.org/2000/svg" xmlns:xlink="http://www.w3.org/1999/xlink">
    <title>chrome-filled备份</title>
    <g id="登录注册" stroke="none" stroke-width="1" fill="none" fill-rule="evenodd">
        <g id="谷歌注册" transform="translate(-520.000000, -188.000000)" fill-rule="nonzero">
            <g id="编组-2备份-2" transform="translate(480.000000, 151.000000)">
                <g id="chrome-filled备份" transform="translate(40.000000, 37.000000)">
                    <rect id="矩形" fill="#000000" opacity="0" x="0" y="0" width="26" height="26"></rect>
                    <path d="M9.44023437,13 C9.44023437,14.9677734 11.0322266,16.5597656 13,16.5597656 C14.9677734,16.5597656 16.5597656,14.9677734 16.5597656,13 C16.5597656,11.0322266 14.9677734,9.44023438 13,9.44023438 C11.0322266,9.44023438 9.44023437,11.0296875 9.44023437,13 Z" id="路径" fill="#1D76E4"></path>
                    <path d="M22.8515625,9.2015625 L16.9025391,9.50878906 C18.5173828,11.3953125 18.5427734,14.1171875 17.184375,16.2042969 L12.4109375,23.5472656 C14.3914062,23.6539062 16.4328125,23.2197266 18.28125,22.1457031 C22.8515625,19.5050781 24.7050781,13.9673828 22.8515625,9.2015625 Z" id="路径" fill="#FCD501"></path>
                    <path d="M8.13261719,15.0287109 L4.15898438,7.21347656 C3.07226563,8.87402344 2.4375,10.8671875 2.4375,13 C2.4375,18.28125 6.30449219,22.6560547 11.3597656,23.4304688 L14.0740234,18.1136719 C11.6212891,18.5757813 9.25234375,17.2300781 8.13261719,15.0287109 Z" id="路径" fill="#58BE5A"></path>
                    <path d="M13.6804687,7.7796875 L22.425,8.23925781 C21.53125,6.46699219 20.1246094,4.92578125 18.2761719,3.85175781 C16.6029297,2.884375 14.7646484,2.42480469 12.9619141,2.4375 C9.8515625,2.45019531 6.81230469,3.8390625 4.78359375,6.36035156 L8.03867187,11.3597656 C8.85117187,9.02636719 11.2074219,7.63496094 13.6804687,7.7796875 Z" id="路径" fill="#E42C2C"></path>
                </g>
            </g>
        </g>
    </g>
</svg>