<?xml version="1.0" encoding="UTF-8"?>
<svg width="16px" height="16px" viewBox="0 0 16 16" version="1.1" xmlns="http://www.w3.org/2000/svg" xmlns:xlink="http://www.w3.org/1999/xlink">
    <g id="CDN" stroke="none" stroke-width="1" fill="none" fill-rule="evenodd">
        <g id="猫云控制台设计规范2" transform="translate(-683.000000, -766.000000)" fill="currentColor" fill-rule="nonzero">
            <g id="编组-90" transform="translate(160.000000, 535.000000)">
                <g id="编组-87" transform="translate(0.000000, 177.000000)">
                    <path d="M538.202916,61.202928 L531.797072,61.202928 L531.797072,54.7970844 C531.797072,54.3568696 531.440202,54 530.999988,54 C530.559773,54 530.202903,54.3568696 530.202903,54.7970844 L530.202903,61.202928 L523.797084,61.202928 C523.35687,61.202928 523,61.5597977 523,62.0000125 C523,62.4402272 523.35687,62.7970969 523.797084,62.7970969 L530.202903,62.7970969 L530.202903,69.2029156 C530.202903,69.6431304 530.559773,70 530.999988,70 C531.440202,70 531.797072,69.6431304 531.797072,69.2029156 L531.797072,62.7970969 L538.202916,62.7970969 C538.64313,62.7970969 539,62.4402272 539,62.0000125 C539,61.5597977 538.64313,61.202928 538.202916,61.202928 Z" id="路径"></path>
                </g>
            </g>
        </g>
    </g>
</svg>