<?xml version="1.0" encoding="UTF-8"?>
<svg width="20px" height="20px" viewBox="0 0 20 20" version="1.1" xmlns="http://www.w3.org/2000/svg" xmlns:xlink="http://www.w3.org/1999/xlink">
    <title>编组</title>
    <g id="页面-1" stroke="none" stroke-width="1" fill="none" fill-rule="evenodd">
        <g id="对象存储-存储列表-单个桶详情/安全管理/防盗链设置" transform="translate(-1186.000000, -20.000000)" fill="#555555">
            <g id="组-5925" transform="translate(1186.000000, 20.000000)">
                <g id="编组" transform="translate(0.000000, 0.000000)">
                    <path d="M2.14001476,13.3597202 C3.48996284,12.9097375 5.20699204,12.5428637 6.04926734,12.710165 C7.33921772,12.9686166 8.33264105,13.9608861 8.72377985,15.7642783 L8.73301027,15.8092766 L8.78723895,15.8669667 L8.91992616,15.9938849 C9.03992154,16.1069574 9.19453098,16.2500288 9.22452983,16.2777201 C10.1164186,17.128072 10.4717895,17.9680397 9.9248875,19.0029999 L9.87527403,19.0929964 L8.54032537,18.3280258 C8.70185762,18.047652 8.63493712,17.8526595 8.22418369,17.4499827 L7.77535479,17.0276912 C7.73958694,16.994231 7.70958809,16.9665397 7.69112726,16.9457713 C7.44652129,16.6977039 7.29883466,16.487712 7.24229837,16.1958002 C6.99076959,14.9127726 6.45194416,14.3601015 5.74812507,14.2193377 C5.28775816,14.1270336 4.04626745,14.38087 2.98938502,14.7212415 L2.87285104,14.7604708 L2.14001476,13.3597202 Z" id="Fill-3"></path>
                    <path d="M10,1.53801777 C14.6728972,1.53801777 18.4608284,5.3271028 18.4608284,9.9988462 C18.4608284,14.6717434 14.6728972,18.4608284 10,18.4608284 C5.3271028,18.4608284 1.53917157,14.6717434 1.53917157,9.9988462 C1.53917157,5.3271028 5.3271028,1.53801777 10,1.53801777 M10,0 C4.47675089,0 0,4.47675089 0,9.9988462 C0,15.5232491 4.47675089,19.9988462 10,19.9988462 C15.5232491,19.9988462 20,15.5232491 20,9.9988462 C20,4.47675089 15.5232491,0 10,0" id="Fill-5"></path>
                    <path d="M15.1244952,2.52278759 C15.486789,2.32664128 15.9390793,2.45125187 16.1513788,2.80546902 C16.3613707,3.15853236 16.2563748,3.61659167 15.9125418,3.84273682 L15.8617745,3.87273566 C15.5837083,4.0238837 14.8902735,4.72193377 14.2902965,5.47998154 C14.0433829,5.79150802 13.8287758,6.09265028 13.6672436,6.35110188 L13.6418599,6.39263874 L13.688012,6.39033114 C13.8483904,6.37648552 14.0306911,6.35571709 14.2360678,6.32687204 L14.4691358,6.29456559 L15.5502481,6.11918772 C15.6217838,6.10764971 15.6840891,6.09957309 15.7417792,6.09149648 C15.894081,6.06957425 16.0140764,6.05688243 16.1179185,6.05226722 C16.3706011,6.0407292 16.5240568,6.05572863 16.7352025,6.19649244 C17.0340372,6.39494635 17.343256,6.96953963 17.616707,7.65489789 C17.744779,7.97219338 17.8370832,8.26295142 17.8809277,8.5064036 C17.9132341,8.68870428 17.9224645,8.85254413 17.8924657,9.01638399 C17.8313142,9.36137072 17.6017076,9.66366678 17.2024922,9.7432791 L17.1205723,9.75827853 C16.9751933,9.78020076 16.830968,9.79981539 16.685589,9.81712242 L15.2883351,9.98557748 L14.724126,10.058267 C14.5972078,10.075574 14.4783662,10.092881 14.3699088,10.1090343 L14.194531,10.1355717 C13.9199262,10.1794162 13.7260875,10.2163378 13.6430137,10.2428753 C12.8411215,10.4944041 12.529595,10.9236183 12.5261336,11.5316719 C12.5226722,12.0624207 12.785739,12.6935502 13.0661128,12.9750779 C13.1988,13.1077651 13.3776393,13.2462213 13.6568594,13.4354448 L14.2983731,13.85889 L14.3433714,13.8888889 C14.5441329,14.0238837 14.6998962,14.1392639 14.8360448,14.2546441 C15.3056421,14.6550133 15.5606323,15.0807661 15.4221761,15.6357448 L15.3794854,15.7949694 C15.3264105,15.9795777 15.2456444,16.2334141 15.1418022,16.5530172 L14.9133495,17.2337602 L14.6502827,18.003346 L14.3987539,18.7244721 C14.2637591,19.1156109 13.8426214,19.3302181 13.4457136,19.2067613 C13.0499596,19.0856121 12.8215069,18.6725511 12.9299642,18.2721818 L12.9553479,18.1925695 L13.1064959,17.75874 L13.2841814,17.2429907 L13.4884043,16.6487827 C13.5991693,16.3187954 13.693781,16.0314988 13.7676243,15.7995846 L13.8749279,15.4569055 L13.7526249,15.3530633 C13.6799354,15.2965271 13.6049383,15.2422984 13.5264798,15.1926849 L12.9911157,14.8396216 C12.5226722,14.5327103 12.233068,14.3169493 11.9780778,14.0619592 C11.4092535,13.4919811 10.9823468,12.4674051 10.9880581,11.5224414 C10.9950387,10.2497981 11.7392408,9.22868351 13.1838006,8.77523941 C13.3845621,8.71178032 13.6972424,8.65293643 14.1414561,8.58716972 L14.3849083,8.55255567 L14.6514365,8.51563401 L16.2263759,8.32179532 L16.1894543,8.22602977 C16.1179185,8.0494981 16.03946,7.87527403 15.9540787,7.70451136 L15.9102342,7.62028384 L15.6390908,7.6629745 L15.0668051,7.75758625 C14.9318103,7.77950848 14.8118149,7.79796931 14.6964348,7.81527634 L14.5833622,7.83142956 C14.0329987,7.91219568 13.6026307,7.95257875 13.2461059,7.94450213 C12.5561325,7.93065651 12.0726895,7.76912426 11.895004,7.16453213 C11.7023191,6.50917272 12.1719165,5.67612784 13.0834199,4.52578747 L13.2668744,4.29964232 C13.9395408,3.48275066 14.6560517,2.77777778 15.1244952,2.52278759 L15.1244952,2.52278759 Z M7.44825199,7.54644052 L7.46209761,7.5983616 C7.47594323,7.66989731 7.49786547,7.76220145 7.52901811,7.87181262 L7.58786201,8.06218992 C7.63862928,8.22372216 7.69978078,8.40256144 7.78977732,8.64716742 L8.14053306,9.60482289 C8.26514365,9.94980962 8.32860275,10.1424945 8.39436945,10.3628707 C8.65512865,11.2593746 7.86015922,11.9101188 6.91634937,12.0128072 C6.03253721,12.1074189 5.10372678,11.7358948 4.4056767,10.9143879 C4.16683974,10.6340141 4.0156917,10.3305642 3.88992731,9.94288681 L3.8195454,9.71097265 L3.75724011,9.48598131 C3.62801431,9.00946117 3.59570786,8.94715588 3.45379024,8.92292604 L3.4307142,8.91831083 C3.3649475,8.90908042 3.298027,8.90561901 3.2311065,8.90561901 C2.89650398,8.90446521 2.50536518,9.00484597 2.10730357,9.17676243 C1.97000115,9.23445252 1.83616015,9.30021922 1.70578055,9.37290873 L1.58693896,9.44098304 L1.57193954,9.44905965 C1.21541479,9.67982001 0.738894658,9.57713165 0.509288104,9.2194531 C0.279681551,8.86292835 0.382369909,8.38640822 0.74004846,8.15680166 C0.90273451,8.0518057 1.16464751,7.90642668 1.50040383,7.76335526 C2.07499712,7.51644168 2.65882081,7.36644744 3.2334141,7.36644744 C3.37302411,7.36644744 3.51263413,7.37683166 3.64762894,7.39644629 C4.57528557,7.52797969 4.93642552,8.01142264 5.21449175,8.98061613 L5.32641052,9.38213915 C5.40371524,9.64174455 5.47871236,9.802123 5.57793931,9.91865697 C5.94600208,10.3513326 6.37521634,10.5232491 6.75135572,10.482866 L6.80096919,10.4759432 L6.81481481,10.4736356 L6.69366563,10.1286489 L6.3509865,9.19406946 C5.9586939,8.1164186 5.85831314,7.72297219 5.92754125,7.30529595 C6.1536864,5.95419407 6.8713511,4.81769932 8.39783085,4.62039922 L8.50859582,4.6077074 C9.38548517,4.52117226 9.61624553,3.98926964 9.32317988,3.72851044 C8.79704627,3.26006692 6.63020653,2.89546556 5.14064844,3.10776509 C4.72066459,3.16891658 4.33067959,2.87585093 4.2706819,2.45471328 C4.2106842,2.03472943 4.50259605,1.64474443 4.9237337,1.58590054 C6.81712242,1.31475712 9.41663782,1.7532018 10.3454483,2.57932387 C11.6919349,3.77581631 10.8161994,5.86535133 8.7555094,6.12841814 L8.65743625,6.13880235 C7.972078,6.20572286 7.60170763,6.74108688 7.46094381,7.47259721 L7.44825199,7.54644052 Z" id="Fill-7"></path>
                </g>
            </g>
        </g>
    </g>
</svg>