<?xml version="1.0" encoding="UTF-8"?>
<svg width="14px" height="14px" viewBox="0 0 14 14" version="1.1" xmlns="http://www.w3.org/2000/svg" xmlns:xlink="http://www.w3.org/1999/xlink">
    <g id="页面-1" stroke="none" stroke-width="1" fill="none" fill-rule="evenodd">
        <g id="实例" transform="translate(-537.000000, -239.000000)" fill-rule="nonzero">
            <g id="实例表格" transform="translate(220.000000, 140.000000)">
                <g id="icon_筛选备份-3" transform="translate(317.000000, 99.000000)">
                    <rect id="矩形-200" fill="#D8D8D8" opacity="0" x="0" y="0" width="14" height="14"></rect>
                    <g id="筛选">
                        <rect id="矩形" fill="#000000" opacity="0" x="0" y="0" width="14" height="14"></rect>
                        <path d="M13.9291247,0.942375019 L8.22499967,7.77787495 L8.22499967,11.7538755 C8.22211909,11.8462024 8.1839081,11.9339013 8.11824989,11.9988753 L6.28074998,13.4977505 C6.18716848,13.5727522 6.05877101,13.5871818 5.95087636,13.5348241 C5.84298128,13.4824656 5.77486557,13.3726742 5.77587485,13.2527508 L5.77587485,7.77787495 L0.073499999,0.942375019 C-0.0043033231,0.852213629 -0.0225948584,0.725047469 0.0266424571,0.61661265 C0.0758797564,0.508177819 0.183662415,0.438258548 0.302749988,0.4375 L13.6850003,0.4375 C13.8047652,0.436831127 13.9142462,0.505076171 13.9663827,0.612900103 C14.0185201,0.720723975 14.0040238,0.848916918 13.9291247,0.942375019 Z" id="路径" fill="#999999"></path>
                    </g>
                </g>
            </g>
        </g>
    </g>
</svg>
