<?xml version="1.0" encoding="UTF-8"?>
<svg width="16px" height="16px" viewBox="0 0 16 16" version="1.1" xmlns="http://www.w3.org/2000/svg" xmlns:xlink="http://www.w3.org/1999/xlink">
    <g id="CDN" stroke="none" stroke-width="1" fill="none" fill-rule="evenodd">
        <g id="猫云控制台设计规范2" transform="translate(-390.000000, -713.000000)" fill-rule="nonzero">
            <g id="编组-90" transform="translate(160.000000, 535.000000)">
                <g id="编组-87" transform="translate(0.000000, 177.000000)">
                    <g id="文档" transform="translate(230.000000, 1.000000)">
                        <rect id="矩形" fill="#000000" opacity="0" x="0" y="0" width="16" height="16"></rect>
                        <path d="M4.79202302,5.4532307 L11.1728168,5.4473307 C11.5238109,5.4473307 11.8084179,5.16273966 11.8084179,4.81172964 C11.8084179,4.46073561 11.5238109,4.17614456 11.1728168,4.17614456 L4.79202302,4.18204456 C4.44099702,4.18204456 4.15640597,4.46647572 4.15640597,4.81764563 C4.15640597,5.16863966 4.440997,5.4532307 4.79202302,5.4532307 Z M4.79202302,7.99561897 L11.1728168,7.98971897 C11.5238109,7.98971897 11.8084179,7.70512792 11.8084179,7.35413389 C11.8084179,7.00313986 11.5238109,6.71854881 11.1728168,6.71854881 L4.79202302,6.72444881 C4.44099702,6.72444881 4.15640597,7.00886398 4.15640597,7.36003389 C4.15640597,7.71102792 4.440997,7.99561897 4.79202302,7.99561897 Z M13.7055796,9.75297148 L13.7003032,2.21333136 C13.6705314,1.53924439 13.1199607,1.00079345 12.4390303,0.998459047 L3.48017644,1.00357558 C2.8048583,1.03353927 2.26512823,1.58642841 2.26512823,2.26919748 L2.26512823,2.94451562 L2.2598838,2.94451562 L2.26421686,13.0346345 L2.26512823,13.0346345 L2.26512823,13.7099527 C2.26512823,14.4119567 2.83432631,14.9811228 3.53634634,14.9811228 L4.17193142,14.9811228 L4.17193142,14.9847044 L6.04830723,14.9812987 C6.39933323,14.9812987 6.68392428,14.6967077 6.68392428,14.3457136 C6.68392428,13.9946876 6.39933323,13.7100966 6.04830723,13.7100966 L4.41122517,13.7130546 C3.79952791,13.6539427 3.57513605,13.4472508 3.53541897,12.8046625 L3.53106992,3.06603327 L3.53479539,3.56954787 C3.51960569,2.48628233 3.76818916,2.29012733 4.78799372,2.27572109 L4.64089345,2.27417014 L11.1939225,2.27044467 C12.1402089,2.29278153 12.4170133,2.46813464 12.4300924,3.36691727 L12.4300924,3.42542159 C12.4300924,3.47228581 12.4300924,3.51915005 12.4288133,3.56988366 L12.4300924,3.50611889 L12.4341057,9.2555168 L9.93205805,9.25892248 L9.25673991,9.26076123 C8.55473586,9.26076123 7.98556977,9.82979942 7.98556977,10.5319793 L7.98556977,11.1675644 L7.98122072,11.1675644 L7.98524998,14.2223573 C7.94428577,14.4244123 8.00139903,14.6422646 8.15810878,14.7989743 C8.22110606,14.8619556 8.29438439,14.9086919 8.37196378,14.9396949 C8.44861581,14.9723128 8.5327028,14.9904765 8.62083505,14.9904765 C8.84276458,14.9904765 9.03733666,14.8765697 9.15090766,14.7044624 L13.3959015,10.4487877 C13.4430536,10.4202471 13.4871357,10.3873414 13.5256376,10.3478002 C13.64602,10.2321986 13.7214568,10.0704682 13.7214568,9.89031837 C13.7214568,9.84297447 13.7155249,9.79737338 13.7055796,9.75297148 Z M9.25453342,12.8006172 L9.25330225,11.741847 C9.26200036,10.7745029 9.48605644,10.5314996 10.5431318,10.5314996 L9.26076919,10.5400219 L9.25299845,11.6841421 L9.2514475,10.53102 L11.5213645,10.527934 L9.25453342,12.8006172 Z" id="形状" fill="currentColor"></path>
                    </g>
                </g>
            </g>
        </g>
    </g>
</svg>