<?xml version="1.0" encoding="UTF-8"?>
<svg width="64px" height="64px" viewBox="0 0 64 64" version="1.1" xmlns="http://www.w3.org/2000/svg" xmlns:xlink="http://www.w3.org/1999/xlink">
    <title>info-circle</title>
    <g id="页面-1" stroke="none" stroke-width="1" fill="none" fill-rule="evenodd">
        <g id="弹性公网IP--购买弹性公网IP-变更包年带宽" transform="translate(-688.000000, -354.000000)" fill="#FE4D4F" fill-rule="nonzero">
            <g id="编组-26" transform="translate(315.000000, 112.000000)">
                <g id="info-circle" transform="translate(373.000000, 242.000000)">
                    <rect id="矩形" opacity="0" x="0" y="0" width="64" height="64"></rect>
                    <path d="M32,4 C16.5375,4 4,16.5375 4,32 C4,47.4625 16.5375,60 32,60 C47.4625,60 60,47.4625 60,32 C60,16.5375 47.4625,4 32,4 Z M32,55.25 C19.1625,55.25 8.75,44.8375 8.75,32 C8.75,19.1625 19.1625,8.75 32,8.75 C44.8375,8.75 55.25,19.1625 55.25,32 C55.25,44.8375 44.8375,55.25 32,55.25 Z M32,24 C30.34375,24 29,22.65625 29,21 C29,19.34375 30.34375,18 32,18 C33.65625,18 35,19.34375 35,21 C35,22.65625 33.65625,24 32,24 Z M33.5,28 L30.5,28 C30.225,28 30,28.225 30,28.5 L30,45.5 C30,45.775 30.225,46 30.5,46 L33.5,46 C33.775,46 34,45.775 34,45.5 L34,28.5 C34,28.225 33.775,28 33.5,28 Z" id="形状"></path>
                </g>
            </g>
        </g>
    </g>
</svg>