<svg xmlns="http://www.w3.org/2000/svg" xmlns:xlink="http://www.w3.org/1999/xlink" fill="none" version="1.1" width="20" height="20" viewBox="0 0 20 20"><defs><clipPath id="master_svg0_13_606"><rect x="0" y="0" width="20" height="20" rx="0"/></clipPath></defs><g clip-path="url(#master_svg0_13_606)"><g><path d="M2,15.5L2,4.5Q2,3.464466,2.732233,2.732233Q3.464466,2,4.5,2L15.5,2Q16.5355,2,17.2678,2.732233Q18,3.464465,18,4.5L18,15.5Q18,16.5355,17.2678,17.2678Q16.5355,18,15.5,18L4.5,18Q3.464465,18,2.732233,17.2678Q2,16.5355,2,15.5ZM3,15.5Q3,16.121299999999998,3.43934,16.5607Q3.87868,17,4.5,17L15.5,17Q16.121299999999998,17,16.5607,16.5607Q17,16.121299999999998,17,15.5L17,4.5Q17,3.87868,16.5607,3.43934Q16.121299999999998,3,15.5,3L4.5,3Q3.87868,3,3.43934,3.43934Q3,3.87868,3,4.5L3,15.5Z" fill="currentColor" fill-opacity="1"/></g><g><path d="M5.916748046875,7.58331298828125L8.750078046875,7.58331298828125Q8.799328046875,7.58331298828125,8.847628046875,7.57370598828125Q8.895928046875,7.56409798828125,8.941418046875,7.54525298828125Q8.986918046875001,7.52640698828125,9.027868046875,7.49904798828125Q9.068808046875,7.47168798828125,9.103638046875,7.43686598828125Q9.138458046875,7.40204398828125,9.165818046875,7.36109798828125Q9.193178046875,7.32015198828125,9.212018046875,7.27465498828125Q9.230868046874999,7.22915798828125,9.240478046875,7.18085808828125Q9.250078046875,7.13255868828125,9.250078046875,7.08331298828125Q9.250078046875,7.03406728828125,9.240478046875,6.98576788828125Q9.230868046874999,6.93746798828125,9.212018046875,6.89197098828125Q9.193178046875,6.84647398828125,9.165818046875,6.80552798828125Q9.138458046875,6.76458198828125,9.103638046875,6.72975998828125Q9.068808046875,6.69493798828125,9.027868046875,6.66757798828125Q8.986918046875001,6.64021898828125,8.941418046875,6.62137298828125Q8.895928046875,6.60252798828125,8.847628046875,6.59291998828125Q8.799328046875,6.58331298828125,8.750078046875,6.58331298828125L5.416748046875,6.58331298828125Q5.367502346875,6.58331298828125,5.319202946875,6.59291998828125Q5.270903046875,6.60252798828125,5.225406046875,6.62137298828125Q5.179909046875,6.64021898828125,5.138963046875,6.66757798828125Q5.098017046875,6.69493798828125,5.063195046875,6.72975998828125Q5.028373046875,6.76458198828125,5.001013046875,6.80552798828125Q4.973654046875,6.84647398828125,4.954808046875,6.89197098828125Q4.935963046875,6.93746798828125,4.926355046875,6.98576788828125Q4.916748046875,7.03406728828125,4.916748046875,7.08331298828125L4.916748046875,12.91664298828125Q4.916748046875,12.96589298828125,4.926355046875,13.01419298828125Q4.935963046875,13.06249298828125,4.954808046875,13.10799298828125Q4.973654046875,13.153482988281251,5.001013046875,13.19443298828125Q5.028373046875,13.235372988281249,5.063195046875,13.27020298828125Q5.098017046875,13.30502298828125,5.138963046875,13.33238298828125Q5.179909046875,13.359742988281251,5.225406046875,13.37858298828125Q5.270903046875,13.397432988281249,5.319202946875,13.407042988281251Q5.367502346875,13.41664298828125,5.416748046875,13.41664298828125Q5.465993746875,13.41664298828125,5.514293146875,13.407042988281251Q5.562593046875,13.397432988281249,5.608090046875,13.37858298828125Q5.653587046875,13.359742988281251,5.694533046875,13.33238298828125Q5.735479046875,13.30502298828125,5.770301046875,13.27020298828125Q5.805123046875,13.235372988281249,5.832483046875,13.19443298828125Q5.859842046875,13.153482988281251,5.878688046875,13.10798298828125Q5.897533046875,13.06249298828125,5.907141046875,13.01419298828125Q5.916748046875,12.96589298828125,5.916748046875,12.91664298828125L5.916748046875,7.58331298828125Z" fill-rule="evenodd" fill="currentColor" fill-opacity="1"/></g><g><path d="M5.416748046875,10.5L8.541748046875,10.5Q8.590998046875,10.5,8.639298046875,10.490393Q8.687588046875,10.480785000000001,8.733088046875,10.46194Q8.778588046875,10.443094,8.819538046875,10.415735Q8.860478046875,10.388375,8.895298046875,10.353553Q8.930128046875,10.318731,8.957478046875,10.277785Q8.984838046875,10.236839,9.003688046875,10.191342Q9.022538046874999,10.145845,9.032138046875,10.0975451Q9.041748046875,10.0492457,9.041748046875,10Q9.041748046875,9.9507543,9.032138046875,9.9024549Q9.022538046874999,9.854155,9.003688046875,9.808658Q8.984838046875,9.763161,8.957478046875,9.722215Q8.930128046875,9.681269,8.895298046875,9.646447Q8.860478046875,9.611625,8.819528046875,9.584265Q8.778588046875,9.556906,8.733088046875,9.53806Q8.687588046875,9.519214999999999,8.639298046875,9.509607Q8.590998046875,9.5,8.541748046875,9.5L5.416748046875,9.5Q5.367502346875,9.5,5.319202946875,9.509607Q5.270903046875,9.519214999999999,5.225406046875,9.53806Q5.179909046875,9.556906,5.138963046875,9.584265Q5.098017046875,9.611625,5.063195046875,9.646447Q5.028373046875,9.681269,5.001013046875,9.722215Q4.973654046875,9.763161,4.954808046875,9.808658Q4.935963046875,9.854155,4.926355046875,9.9024549Q4.916748046875,9.9507543,4.916748046875,10Q4.916748046875,10.0492457,4.926355046875,10.0975451Q4.935963046875,10.145845,4.954808046875,10.191342Q4.973654046875,10.236839,5.001013046875,10.277785Q5.028373046875,10.318731,5.063195046875,10.353553Q5.098017046875,10.388375,5.138963046875,10.415735Q5.179909046875,10.443094,5.225406046875,10.46194Q5.270903046875,10.480785000000001,5.319202946875,10.490393Q5.367502346875,10.5,5.416748046875,10.5Z" fill-rule="evenodd" fill="currentColor" fill-opacity="1"/></g><g><path d="M5.416748046875,13.41668701171875L8.541748046875,13.41668701171875Q8.590998046875,13.41668701171875,8.639298046875,13.40708001171875Q8.687588046875,13.397472011718751,8.733088046875,13.37862701171875Q8.778588046875,13.35978101171875,8.819538046875,13.33242201171875Q8.860478046875,13.30506201171875,8.895298046875,13.27024001171875Q8.930128046875,13.23541801171875,8.957478046875,13.19447201171875Q8.984838046875,13.15352601171875,9.003688046875,13.10802901171875Q9.022538046874999,13.06253201171875,9.032138046875,13.01423211171875Q9.041748046875,12.96593271171875,9.041748046875,12.91668701171875Q9.041748046875,12.86744131171875,9.032138046875,12.81914191171875Q9.022538046874999,12.77084201171875,9.003688046875,12.72534501171875Q8.984838046875,12.67984801171875,8.957478046875,12.63890201171875Q8.930128046875,12.59795601171875,8.895298046875,12.56313401171875Q8.860478046875,12.52831201171875,8.819528046875,12.50095201171875Q8.778588046875,12.47359301171875,8.733088046875,12.45474701171875Q8.687588046875,12.435902011718749,8.639298046875,12.42629401171875Q8.590998046875,12.41668701171875,8.541748046875,12.41668701171875L5.416748046875,12.41668701171875Q5.367502346875,12.41668701171875,5.319202946875,12.42629401171875Q5.270903046875,12.435902011718749,5.225406046875,12.45474701171875Q5.179909046875,12.47359301171875,5.138963046875,12.50095201171875Q5.098017046875,12.52831201171875,5.063195046875,12.56313401171875Q5.028373046875,12.59795601171875,5.001013046875,12.63890201171875Q4.973654046875,12.67984801171875,4.954808046875,12.72534501171875Q4.935963046875,12.77084201171875,4.926355046875,12.81914191171875Q4.916748046875,12.86744131171875,4.916748046875,12.91668701171875Q4.916748046875,12.96593271171875,4.926355046875,13.01423211171875Q4.935963046875,13.06253201171875,4.954808046875,13.10802901171875Q4.973654046875,13.15352601171875,5.001013046875,13.19447201171875Q5.028373046875,13.23541801171875,5.063195046875,13.27024001171875Q5.098017046875,13.30506201171875,5.138963046875,13.33242201171875Q5.179909046875,13.35978101171875,5.225406046875,13.37862701171875Q5.270903046875,13.397472011718751,5.319202946875,13.40708001171875Q5.367502346875,13.41668701171875,5.416748046875,13.41668701171875Z" fill-rule="evenodd" fill="currentColor" fill-opacity="1"/></g><g><path d="M11.333251953125,12.91668701171875L11.333251953125,7.91668701171875Q11.333251953125,7.86744131171875,11.323644953125,7.81914191171875Q11.314036953125001,7.77084201171875,11.295191953125,7.72534501171875Q11.276345953125,7.67984801171875,11.248986953125,7.63890201171875Q11.221626953125,7.59795601171875,11.186804953125,7.56313401171875Q11.151982953125,7.52831201171875,11.111036953125,7.50095201171875Q11.070090953125,7.47359301171875,11.024593953125,7.45474701171875Q10.979096953125,7.43590201171875,10.930797053125,7.42629401171875Q10.882497653125,7.41668701171875,10.833251953125,7.41668701171875Q10.784006253125,7.41668701171875,10.735706853125,7.42629401171875Q10.687406953125,7.43590201171875,10.641909953125,7.45474701171875Q10.596412953125,7.47359301171875,10.555466953125,7.50095201171875Q10.514520953125,7.52831201171875,10.479698953125,7.56313401171875Q10.444876953125,7.59795601171875,10.417516953125,7.63890201171875Q10.390157953125,7.67984801171875,10.371311953125,7.72534501171875Q10.352466953124999,7.77084201171875,10.342858953125,7.81914191171875Q10.333251953125,7.86744131171875,10.333251953125,7.91668701171875L10.333251953125,12.91668701171875Q10.333251953125,12.96593701171875,10.342858953125,13.01423701171875Q10.352466953124999,13.06252701171875,10.371311953125,13.10802701171875Q10.390157953125,13.15352701171875,10.417516953125,13.19446701171875Q10.444876953125,13.23541701171875,10.479698953125,13.27023701171875Q10.514520953125,13.30505701171875,10.555466953125,13.33241701171875Q10.596412953125,13.35977701171875,10.641909953125,13.37862701171875Q10.687406953125,13.39746701171875,10.735706853125,13.40707701171875Q10.784006253125,13.41668701171875,10.833251953125,13.41668701171875Q10.882497653125,13.41668701171875,10.930797053125,13.40707701171875Q10.979096953125,13.39746701171875,11.024593953125,13.37862701171875Q11.070090953125,13.35977701171875,11.111036953125,13.33241701171875Q11.151982953125,13.30505701171875,11.186804953125,13.27023701171875Q11.221626953125,13.23541701171875,11.248986953125,13.19446701171875Q11.276345953125,13.15352701171875,11.295191953125,13.10802701171875Q11.314036953125001,13.06252701171875,11.323644953125,13.01423701171875Q11.333251953125,12.96593701171875,11.333251953125,12.91668701171875Z" fill-rule="evenodd" fill="currentColor" fill-opacity="1"/></g><g><path d="M14.083251953125,10.20831298828125L14.083251953125,12.91664298828125Q14.083251953125,12.96589298828125,14.092861953125,13.01419298828125Q14.102461953125001,13.06249298828125,14.121311953125,13.10798298828125Q14.140161953125,13.153482988281251,14.167511953125,13.19443298828125Q14.194871953125,13.235372988281249,14.229701953125,13.27020298828125Q14.264521953125,13.30502298828125,14.305461953125,13.33238298828125Q14.346411953125,13.359742988281251,14.391911953125,13.37858298828125Q14.437401953125,13.397432988281249,14.485701953125,13.407042988281251Q14.534001953125,13.41664298828125,14.583251953125,13.41664298828125Q14.632501953125,13.41664298828125,14.680791953125,13.407042988281251Q14.729091953125,13.397432988281249,14.774591953125,13.37858298828125Q14.820091953125,13.359742988281251,14.861031953125,13.33238298828125Q14.901981953125,13.30502298828125,14.936801953125,13.27020298828125Q14.971621953125,13.235372988281249,14.998981953125,13.19443298828125Q15.026341953125,13.153482988281251,15.045191953125,13.10798298828125Q15.064031953125,13.06249298828125,15.073641953125,13.01419298828125Q15.083251953125,12.96589298828125,15.083251953125,12.91664298828125L15.083251953125,10.20831298828125Q15.083251953125,9.22454998828125,14.387631953125,8.52893098828125Q13.692011953125,7.83331298828125,12.708251953125,7.83331298828125Q11.724488953125,7.83331298828125,11.028870953125,8.52893098828125Q10.333251953125,9.22454998828125,10.333251953125,10.20831298828125L10.333251953125,12.91664298828125Q10.333251953125,12.96589298828125,10.342858953125,13.01419298828125Q10.352466953124999,13.06249298828125,10.371311953125,13.10798298828125Q10.390157953125,13.153482988281251,10.417516953125,13.19443298828125Q10.444876953125,13.235372988281249,10.479698953125,13.27020298828125Q10.514520953125,13.30502298828125,10.555466953125,13.33238298828125Q10.596412953125,13.359742988281251,10.641909953125,13.37858298828125Q10.687406953125,13.397432988281249,10.735706853125,13.407042988281251Q10.784006253125,13.41664298828125,10.833251953125,13.41664298828125Q10.882497653125,13.41664298828125,10.930797053125,13.407042988281251Q10.979096953125,13.397432988281249,11.024593953125,13.37858298828125Q11.070090953125,13.359742988281251,11.111036953125,13.33238298828125Q11.151982953125,13.30502298828125,11.186804953125,13.27020298828125Q11.221626953125,13.235372988281249,11.248986953125,13.19443298828125Q11.276345953125,13.153482988281251,11.295191953125,13.10798298828125Q11.314036953125001,13.06249298828125,11.323644953125,13.01419298828125Q11.333251953125,12.96589298828125,11.333251953125,12.91664298828125L11.333251953125,10.20831298828125Q11.333251953125,9.63876298828125,11.735976953125,9.23603798828125Q12.138701953125,8.83331298828125,12.708251953125,8.83331298828125Q13.277801953125,8.83331298828125,13.680521953125,9.23603798828125Q14.083251953125,9.63876298828125,14.083251953125,10.20831298828125Z" fill-rule="evenodd" fill="currentColor" fill-opacity="1"/></g></g></svg>