<svg xmlns="http://www.w3.org/2000/svg" xmlns:xlink="http://www.w3.org/1999/xlink" fill="currentColor" version="1.1" width="20" height="20" viewBox="0 0 20 20"><g><g style="opacity:0;"><rect x="0" y="0" width="20" height="20" rx="0" fill="currentColor" fill-opacity="1"/></g><g><rect x="2.5" y="2.5" width="15.000000953674316" height="15.000000953674316" rx="2" fill-opacity="0" stroke-opacity="1" stroke="currentColor" fill="currentColor" stroke-width="1"/></g><g><path d="M7.0001,7.375L6.04175,7.375Q5.9925,7.375,5.9442,7.365393Q5.8959,7.355785,5.85041,7.33694Q5.80491,7.318094,5.76396,7.290735Q5.72302,7.263375,5.6881900000000005,7.228553Q5.65337,7.193731,5.62601,7.152785Q5.59865,7.111839,5.57981,7.066342Q5.56096,7.020845,5.55136,6.972545Q5.54175,6.924246,5.54175,6.875Q5.54175,6.825754,5.55136,6.777455Q5.56096,6.729155,5.57981,6.683658Q5.59865,6.638161,5.62601,6.597215Q5.65337,6.556269,5.6881900000000005,6.521447Q5.72302,6.486625,5.76396,6.4592652Q5.80491,6.4319057,5.85041,6.4130602Q5.8959,6.3942147,5.9442,6.38460736Q5.9925,6.375,6.04175,6.375L9.16675,6.375Q9.21599,6.375,9.264289999999999,6.38460736Q9.31259,6.3942147,9.35809,6.4130602Q9.403590000000001,6.4319057,9.44453,6.4592652Q9.485479999999999,6.486625,9.520299999999999,6.521447Q9.555119999999999,6.556269,9.58248,6.597215Q9.60984,6.638161,9.628689999999999,6.683658Q9.64753,6.729155,9.65714,6.777455Q9.66675,6.825754,9.66675,6.875Q9.66675,6.924246,9.65714,6.972545Q9.64753,7.020845,9.628689999999999,7.066342Q9.60984,7.111839,9.58248,7.152785Q9.555119999999999,7.193731,9.520299999999999,7.228553Q9.485479999999999,7.263375,9.44453,7.290735Q9.403590000000001,7.318094,9.35809,7.33694Q9.31259,7.355785,9.264289999999999,7.365393Q9.21599,7.375,9.16675,7.375L8.0001,7.375L8.0001,13.75Q8.0001,13.79925,7.990489999999999,13.84754Q7.9808900000000005,13.89584,7.96204,13.94134Q7.9432,13.98684,7.91584,14.02778Q7.8884799999999995,14.06873,7.85366,14.10355Q7.81883,14.13837,7.77789,14.16573Q7.736940000000001,14.19309,7.69144,14.21194Q7.64595,14.23078,7.59765,14.24039Q7.5493500000000004,14.25,7.5001,14.25Q4.500142455,14.25,4.5,12.50004L4.5,12.5Q4.5,12.45075,4.50960736,12.40245Q4.5192147,12.35415,4.5380602,12.30866Q4.5569057,12.26316,4.5842652,12.22221Q4.611625,12.18127,4.646447,12.14645Q4.681269,12.11162,4.722215,12.08427Q4.763161,12.05691,4.808658,12.03806Q4.854155,12.019210000000001,4.902455,12.00961Q4.950754,12,5,12Q5.049243,12,5.09754,12.00961Q5.145837,12.019210000000001,5.191332,12.03806Q5.236828,12.056899999999999,5.277773,12.08426Q5.318718,12.111609999999999,5.353539,12.146429999999999Q5.388361,12.18125,5.415721,12.222190000000001Q5.443081,12.26314,5.461928,12.30863Q5.4807749999999995,12.35413,5.490386,12.40242Q5.499996,12.45072,5.5,12.49996Q5.50005,13.149519999999999,7.0001,13.23654L7.0001,7.375Z" fill-rule="evenodd" fill="currentColor" fill-opacity="1"/></g><g><path d="M14.37793,7.0000081077028415L14.38086,6.999999523162842Q14.4301,6.999999523162842,14.4784,7.009606873162841Q14.5267,7.019214223162842,14.572199999999999,7.038059723162842Q14.6177,7.0569052231628415,14.65864,7.0842646231628414Q14.69959,7.111624523162842,14.73441,7.146445523162842Q14.76923,7.181267523162842,14.79659,7.222214523162842Q14.82395,7.263160523162842,14.8428,7.308657523162842Q14.861640000000001,7.354154523162842,14.87125,7.402453523162841Q14.88086,7.450753523162842,14.88086,7.499999523162842L14.88086,13.828119523162842Q14.88086,13.877369523162841,14.87125,13.925669523162842Q14.861640000000001,13.973969523162841,14.8428,14.019469523162842Q14.82395,14.064959523162841,14.79659,14.105909523162842Q14.76923,14.146859523162842,14.73441,14.181679523162842Q14.69959,14.216499523162842,14.65864,14.243859523162842Q14.6177,14.271219523162841,14.572199999999999,14.290059523162842Q14.5267,14.308909523162843,14.4784,14.318519523162841Q14.4301,14.328119523162842,14.38086,14.328119523162842Q14.331610000000001,14.328119523162842,14.28331,14.318519523162841Q14.235009999999999,14.308909523162843,14.18952,14.290059523162842Q14.144020000000001,14.271219523162841,14.10307,14.243859523162842Q14.06213,14.216499523162842,14.02731,14.181679523162842Q13.99248,14.146859523162842,13.96512,14.105909523162842Q13.93776,14.064959523162841,13.91892,14.019469523162842Q13.90007,13.973969523162841,13.89047,13.925669523162842Q13.88086,13.877369523162841,13.88086,13.828119523162842L13.88086,12.982119523162842Q12.489090000000001,12.879179523162842,11.446,12.183789523162842Q10.125,11.303129523162841,10.125,9.999999523162842Q10.125,8.696869523162842,11.446,7.816207523162841Q12.67013,7.000120967162842,14.37449,6.999999523162842L14.375,6.999999523162842L14.37793,7.0000081077028415ZM13.88086,11.978699523162842Q12.79682,11.882489523162842,12.0007,11.351739523162841Q11.125,10.767939523162841,11.125,9.999999523162842Q11.125,9.232059523162842,12.0007,8.648259523162842Q12.79682,8.117509523162841,13.88086,8.021299523162842L13.88086,11.978699523162842Z" fill-rule="evenodd" fill="currentColor" fill-opacity="1"/></g></g></svg>