<svg xmlns="http://www.w3.org/2000/svg" xmlns:xlink="http://www.w3.org/1999/xlink" fill="currentColor" version="1.1" width="20" height="20" viewBox="0 0 20 20"><defs><clipPath id="master_svg0_13_599"><rect x="0" y="0" width="20" height="20" rx="0"/></clipPath></defs><g clip-path="url(#master_svg0_13_599)"><g><path d="M2,15.5L2,4.5Q2,3.464466,2.732233,2.732233Q3.464466,2,4.5,2L15.5,2Q16.5355,2,17.2678,2.732233Q18,3.464465,18,4.5L18,15.5Q18,16.5355,17.2678,17.2678Q16.5355,18,15.5,18L4.5,18Q3.464465,18,2.732233,17.2678Q2,16.5355,2,15.5ZM3,15.5Q3,16.121299999999998,3.43934,16.5607Q3.87868,17,4.5,17L15.5,17Q16.121299999999998,17,16.5607,16.5607Q17,16.121299999999998,17,15.5L17,4.5Q17,3.87868,16.5607,3.43934Q16.121299999999998,3,15.5,3L4.5,3Q3.87868,3,3.43934,3.43934Q3,3.87868,3,4.5L3,15.5Z" fill="currentColor" fill-opacity="1"/></g><g><path d="M7.252918046875,13.41666298828125Q8.580728046875,13.41666298828125,9.209648046875,11.94930298828125Q9.250078046875,11.854962988281251,9.250078046875,11.75233298828125Q9.250078046875,11.73425298828125,9.248778046875,11.716222988281249Q9.243808046875,11.647622988281249,9.220508046875,11.582912988281251Q9.197198046875,11.51820298828125,9.157288046875,11.46218298828125Q9.117378046875,11.40617298828125,9.063828046874999,11.36301298828125Q9.010268046875,11.31985298828125,8.947058046875,11.29276298828125Q8.852718046875001,11.25232298828125,8.750078046875,11.25232298828125L8.743758046875,11.25236298828125Q8.650758046875,11.25354298828125,8.564398046875,11.28808298828125Q8.472058046875,11.32501298828125,8.400878046875,11.394472988281251Q8.329698046875,11.46394298828125,8.290518046875,11.55535298828125Q7.921348046875,12.41666298828125,7.252918046875,12.41666298828125Q6.832518046875,12.41666298828125,6.456518046875,11.918182988281249Q5.974255046875,11.278852988281251,5.922480046875,10.22390298828125Q5.867455046875,9.10272298828125,6.289702046875,8.31722298828125Q6.647228046875,7.65212498828125,7.146918046875,7.5913799882812505Q7.942688046875,7.49467398828125,8.277108046875,8.47003298828125Q8.302458046875,8.54396298828125,8.349158046875,8.60663298828125Q8.395868046875,8.66930298828125,8.459468046875,8.71473298828125Q8.523068046875,8.76016298828125,8.597498046875,8.78401298828125Q8.671928046875,8.80786298828125,8.750078046875,8.80786298828125L8.751448046875,8.80786298828125Q8.834078046875,8.80764298828125,8.912248046875,8.78084298828125Q9.006328046875,8.74858298828125,9.080898046875,8.68277298828125Q9.155478046875,8.61697298828125,9.199188046875,8.52764298828125Q9.250078046875,8.42364298828125,9.250078046875,8.30786298828125L9.250048046875,8.30178298828125Q9.249068046875,8.22158298828125,9.223058046875,8.14570298828125Q9.011188046875,7.52778098828125,8.575258046875,7.11216178828125Q7.9224580468750005,6.48977498828125,7.026238046875,6.59868798828125Q6.011898046875,6.72199798828125,5.408897846875,7.84374698828125Q4.855030046875,8.87409298828125,4.923682046875,10.27292298828125Q4.990545046875,11.63531298828125,5.658171046875,12.52038298828125Q6.334245046875,13.41666298828125,7.252918046875,13.41666298828125Z" fill-rule="evenodd" fill="currentColor" fill-opacity="1"/></g><g><path d="M11.333251953125,12.91668701171875L11.333251953125,7.91668701171875Q11.333251953125,7.86744131171875,11.323644953125,7.81914191171875Q11.314036953125001,7.77084201171875,11.295191953125,7.72534501171875Q11.276345953125,7.67984801171875,11.248986953125,7.63890201171875Q11.221626953125,7.59795601171875,11.186804953125,7.56313401171875Q11.151982953125,7.52831201171875,11.111036953125,7.50095201171875Q11.070090953125,7.47359301171875,11.024593953125,7.45474701171875Q10.979096953125,7.43590201171875,10.930797053125,7.42629401171875Q10.882497653125,7.41668701171875,10.833251953125,7.41668701171875Q10.784006253125,7.41668701171875,10.735706853125,7.42629401171875Q10.687406953125,7.43590201171875,10.641909953125,7.45474701171875Q10.596412953125,7.47359301171875,10.555466953125,7.50095201171875Q10.514520953125,7.52831201171875,10.479698953125,7.56313401171875Q10.444876953125,7.59795601171875,10.417516953125,7.63890201171875Q10.390157953125,7.67984801171875,10.371311953125,7.72534501171875Q10.352466953124999,7.77084201171875,10.342858953125,7.81914191171875Q10.333251953125,7.86744131171875,10.333251953125,7.91668701171875L10.333251953125,12.91668701171875Q10.333251953125,12.96593701171875,10.342858953125,13.01423701171875Q10.352466953124999,13.06252701171875,10.371311953125,13.10802701171875Q10.390157953125,13.15352701171875,10.417516953125,13.19446701171875Q10.444876953125,13.23541701171875,10.479698953125,13.27023701171875Q10.514520953125,13.30505701171875,10.555466953125,13.33241701171875Q10.596412953125,13.35977701171875,10.641909953125,13.37862701171875Q10.687406953125,13.39746701171875,10.735706853125,13.40707701171875Q10.784006253125,13.41668701171875,10.833251953125,13.41668701171875Q10.882497653125,13.41668701171875,10.930797053125,13.40707701171875Q10.979096953125,13.39746701171875,11.024593953125,13.37862701171875Q11.070090953125,13.35977701171875,11.111036953125,13.33241701171875Q11.151982953125,13.30505701171875,11.186804953125,13.27023701171875Q11.221626953125,13.23541701171875,11.248986953125,13.19446701171875Q11.276345953125,13.15352701171875,11.295191953125,13.10802701171875Q11.314036953125001,13.06252701171875,11.323644953125,13.01423701171875Q11.333251953125,12.96593701171875,11.333251953125,12.91668701171875Z" fill-rule="evenodd" fill="currentColor" fill-opacity="1"/></g><g><path d="M14.083251953125,10.20831298828125L14.083251953125,12.91664298828125Q14.083251953125,12.96589298828125,14.092861953125,13.01419298828125Q14.102461953125001,13.06249298828125,14.121311953125,13.10798298828125Q14.140161953125,13.153482988281251,14.167511953125,13.19443298828125Q14.194871953125,13.235372988281249,14.229701953125,13.27020298828125Q14.264521953125,13.30502298828125,14.305461953125,13.33238298828125Q14.346411953125,13.359742988281251,14.391911953125,13.37858298828125Q14.437401953125,13.397432988281249,14.485701953125,13.407042988281251Q14.534001953125,13.41664298828125,14.583251953125,13.41664298828125Q14.632501953125,13.41664298828125,14.680791953125,13.407042988281251Q14.729091953125,13.397432988281249,14.774591953125,13.37858298828125Q14.820091953125,13.359742988281251,14.861031953125,13.33238298828125Q14.901981953125,13.30502298828125,14.936801953125,13.27020298828125Q14.971621953125,13.235372988281249,14.998981953125,13.19443298828125Q15.026341953125,13.153482988281251,15.045191953125,13.10798298828125Q15.064031953125,13.06249298828125,15.073641953125,13.01419298828125Q15.083251953125,12.96589298828125,15.083251953125,12.91664298828125L15.083251953125,10.20831298828125Q15.083251953125,9.22454998828125,14.387631953125,8.52893098828125Q13.692011953125,7.83331298828125,12.708251953125,7.83331298828125Q11.724488953125,7.83331298828125,11.028870953125,8.52893098828125Q10.333251953125,9.22454998828125,10.333251953125,10.20831298828125L10.333251953125,12.91664298828125Q10.333251953125,12.96589298828125,10.342858953125,13.01419298828125Q10.352466953124999,13.06249298828125,10.371311953125,13.10798298828125Q10.390157953125,13.153482988281251,10.417516953125,13.19443298828125Q10.444876953125,13.235372988281249,10.479698953125,13.27020298828125Q10.514520953125,13.30502298828125,10.555466953125,13.33238298828125Q10.596412953125,13.359742988281251,10.641909953125,13.37858298828125Q10.687406953125,13.397432988281249,10.735706853125,13.407042988281251Q10.784006253125,13.41664298828125,10.833251953125,13.41664298828125Q10.882497653125,13.41664298828125,10.930797053125,13.407042988281251Q10.979096953125,13.397432988281249,11.024593953125,13.37858298828125Q11.070090953125,13.359742988281251,11.111036953125,13.33238298828125Q11.151982953125,13.30502298828125,11.186804953125,13.27020298828125Q11.221626953125,13.235372988281249,11.248986953125,13.19443298828125Q11.276345953125,13.153482988281251,11.295191953125,13.10798298828125Q11.314036953125001,13.06249298828125,11.323644953125,13.01419298828125Q11.333251953125,12.96589298828125,11.333251953125,12.91664298828125L11.333251953125,10.20831298828125Q11.333251953125,9.63876298828125,11.735976953125,9.23603798828125Q12.138701953125,8.83331298828125,12.708251953125,8.83331298828125Q13.277801953125,8.83331298828125,13.680521953125,9.23603798828125Q14.083251953125,9.63876298828125,14.083251953125,10.20831298828125Z" fill-rule="evenodd" fill="currentColor" fill-opacity="1"/></g></g></svg>