<svg xmlns="http://www.w3.org/2000/svg" xmlns:xlink="http://www.w3.org/1999/xlink" fill="none" version="1.1" width="24" height="24" viewBox="0 0 24 24"><g><g><rect x="0" y="0" width="24" height="24" rx="0" fill="#D8D8D8" fill-opacity="0"/></g><g><g><path d="M11.4,5L11.4,6.4Q11.4,6.45909,11.411529,6.51705Q11.423058,6.57501,11.445672,6.62961Q11.468287,6.68421,11.501118,6.73334Q11.53395,6.78248,11.575736,6.82426Q11.617522,6.8660499999999995,11.666658,6.89888Q11.715793,6.93171,11.77039,6.95433Q11.824985999999999,6.97694,11.882946,6.9884699999999995Q11.9409052,7,12,7Q12.0590948,7,12.117054,6.9884699999999995Q12.175014000000001,6.97694,12.22961,6.95433Q12.284207,6.93171,12.333342,6.89888Q12.382478,6.8660499999999995,12.424264,6.82426Q12.46605,6.78248,12.498882,6.73334Q12.531713,6.68421,12.554328,6.62961Q12.576942,6.57501,12.588471,6.51705Q12.6,6.45909,12.6,6.4L12.6,5Q12.6,4.9409051999999996,12.588471,4.882946Q12.576942,4.824986,12.554328,4.77039Q12.531713,4.715793,12.498882,4.666658Q12.46605,4.617522,12.424264,4.575736Q12.382478,4.53395,12.333342,4.501118Q12.284207,4.468287,12.22961,4.445672Q12.175014000000001,4.423058,12.117054,4.411529Q12.0590948,4.4,12,4.4Q11.9409052,4.4,11.882946,4.411529Q11.824985999999999,4.423058,11.77039,4.445672Q11.715793,4.468287,11.666658,4.501118Q11.617522,4.53395,11.575736,4.575736Q11.53395,4.617522,11.501118,4.666658Q11.468287,4.715793,11.445672,4.77039Q11.423058,4.824986,11.411529,4.882946Q11.4,4.9409051999999996,11.4,5Z" fill-rule="evenodd" fill="#FF4A4A" fill-opacity="1"/></g><g><path d="M16.019620190734862,6.23782502412796Q16.02658019073486,6.2257680241279605,16.032970190734865,6.21340202412796Q16.100000190734864,6.083765024127961,16.100000190734864,5.93782502412796Q16.100000190734864,5.85883352412796,16.079560190734863,5.78253402412796Q16.059110190734863,5.70623402412796,16.019620190734862,5.63782502412796Q15.980120190734864,5.56941602412796,15.924260190734863,5.51356102412796Q15.868410190734863,5.45770602412796,15.800000190734863,5.41821002412796Q15.787943190734863,5.41124902412796,15.775577190734863,5.4048550241279605Q15.645940190734864,5.337825024127961,15.500000190734863,5.337825024127961Q15.421009190734864,5.337825024127961,15.344709190734863,5.35826902412796Q15.339795190734863,5.35958602412796,15.334905190734863,5.3609860241279605Q15.222704190734863,5.39309802412796,15.130721190734864,5.46492602412796Q15.038738190734863,5.53675502412796,14.980385190734863,5.63782502412796L14.980362190734864,5.6378640241279605L14.280385190734863,6.8502600241279605Q14.200000190734864,6.98949502412796,14.200000190734864,7.15026502412796Q14.200000190734864,7.16689502412796,14.200921190734864,7.183495024127961Q14.205063190734863,7.25815502412796,14.227399190734863,7.32950502412796Q14.249734190734863,7.40085502412796,14.288897190734863,7.46454502412796Q14.328060190734863,7.5282350241279605,14.381655190734863,7.5803650241279605Q14.435251190734864,7.6324950241279605,14.500000190734863,7.66987502412796Q14.639230190734864,7.750265024127961,14.800000190734863,7.750265024127961L14.810804790734863,7.75016502412796Q14.884294490734863,7.74883502412796,14.955291190734863,7.72981502412796Q15.070572190734863,7.69892502412796,15.165257190734863,7.62627502412796Q15.259942190734863,7.553615024127961,15.319615190734863,7.45026502412796L16.019620190734862,6.23782502412796Z" fill-rule="evenodd" fill="#FF4A4A" fill-opacity="1"/></g><g><path d="M16.54975841015625,8.680334L16.54967041015625,8.680385Q16.44631241015625,8.740059,16.37365841015625,8.834743Q16.30100441015625,8.929428,16.27011441015625,9.044709Q16.24967041015625,9.121009,16.24967041015625,9.2Q16.24967041015625,9.209458,16.24996841015625,9.218912Q16.25471741015625,9.369512,16.33005541015625,9.5Q16.36955141015625,9.56841,16.42540641015625,9.62426Q16.48126141015625,9.68012,16.54967041015625,9.719619999999999Q16.61807941015625,9.75911,16.69437941015625,9.77956Q16.77067891015625,9.8,16.84967041015625,9.8Q16.86359231015625,9.8,16.87749931015625,9.79935Q17.02328241015625,9.79259,17.14967041015625,9.719619999999999L18.36211041015625,9.019615Q18.43051041015625,8.980119,18.48637041015625,8.924264Q18.54222041015625,8.868409,18.58172041015625,8.8Q18.62122041015625,8.731591,18.64166041015625,8.655291Q18.66211041015625,8.5789915,18.66210041015625,8.5000000611275Q18.66210041015625,8.4860781,18.66146041015625,8.4721711Q18.65469041015625,8.326388,18.58172041015625,8.2Q18.54222041015625,8.131591,18.48637041015625,8.075736Q18.43051041015625,8.01988,18.36210041015625,7.980385Q18.29370041015625,7.940889,18.21740041015625,7.920444Q18.14110041015625,7.9,18.06210041015625,7.9Q18.04818041015625,7.9,18.03428041015625,7.900646Q17.88849041015625,7.907415,17.76210541015625,7.980385L16.54975841015625,8.680334Z" fill-rule="evenodd" fill="#FF4A4A" fill-opacity="1"/></g><g><path d="M18.99999942779541,11.4L17.59999942779541,11.4Q17.54090462779541,11.4,17.48294542779541,11.411529Q17.42498542779541,11.423058,17.37038942779541,11.445672Q17.31579242779541,11.468287,17.26665742779541,11.501118Q17.21752142779541,11.53395,17.17573542779541,11.575736Q17.13394942779541,11.617522,17.101117427795412,11.666658Q17.06828642779541,11.715793,17.04567142779541,11.77039Q17.02305742779541,11.824985999999999,17.01152842779541,11.882946Q16.99999942779541,11.9409052,16.99999942779541,12Q16.99999942779541,12.0590948,17.01152842779541,12.117054Q17.02305742779541,12.175014000000001,17.04567142779541,12.22961Q17.06828642779541,12.284207,17.101117427795412,12.333342Q17.13394942779541,12.382478,17.17573542779541,12.424264Q17.21752142779541,12.46605,17.26665742779541,12.498882Q17.31579242779541,12.531713,17.37038942779541,12.554328Q17.42498542779541,12.576942,17.48294542779541,12.588471Q17.54090462779541,12.6,17.59999942779541,12.6L18.99999942779541,12.6Q19.05908942779541,12.6,19.11704942779541,12.588471Q19.17500942779541,12.576942,19.22960942779541,12.554328Q19.28420942779541,12.531713,19.33333942779541,12.498882Q19.38247942779541,12.46605,19.42425942779541,12.424264Q19.46604942779541,12.382478,19.49887942779541,12.333342Q19.53170942779541,12.284207,19.55432942779541,12.22961Q19.57693942779541,12.175014000000001,19.58846942779541,12.117054Q19.59999942779541,12.0590948,19.59999942779541,12Q19.59999942779541,11.9409052,19.58846942779541,11.882946Q19.57693942779541,11.824985999999999,19.55432942779541,11.77039Q19.53170942779541,11.715793,19.49887942779541,11.666658Q19.46604942779541,11.617522,19.42425942779541,11.575736Q19.38247942779541,11.53395,19.33333942779541,11.501118Q19.28420942779541,11.468287,19.22960942779541,11.445672Q19.17500942779541,11.423058,19.11704942779541,11.411529Q19.05908942779541,11.4,18.99999942779541,11.4Z" fill-rule="evenodd" fill="#FF4A4A" fill-opacity="0.8999999761581421"/></g><g><path d="M17.14970941015625,14.280407190734863L18.36211041015625,14.980385190734863Q18.42685041015625,15.017768190734863,18.48045041015625,15.069898190734863Q18.53404041015625,15.122028190734863,18.57321041015625,15.185717190734863Q18.61237041015625,15.249405190734864,18.63471041015625,15.320757190734863Q18.65704041015625,15.392109190734864,18.66118041015625,15.466760190734863Q18.66210041015625,15.483367190734864,18.66210041015625,15.500000190734863Q18.66210041015625,15.660770190734864,18.58172041015625,15.800000190734863Q18.54434041015625,15.864750190734863,18.49221041015625,15.918340190734863Q18.44008041015625,15.971940190734863,18.37639041015625,16.011100190734865Q18.31270041015625,16.050270190734864,18.24135041015625,16.072600190734864Q18.17000041015625,16.094940190734864,18.09534041015625,16.099080190734863Q18.07874041015625,16.100000190734864,18.06210041015625,16.100000190734864Q17.90134041015625,16.100000190734864,17.76210541015625,16.019620190734862L16.54970941015625,15.319638190734864L16.54967041015625,15.319615190734863Q16.44860041015625,15.261262190734863,16.37677141015625,15.169279190734864Q16.30494341015625,15.077296190734863,16.27283141015625,14.965095190734864Q16.27143141015625,14.960205190734863,16.27011441015625,14.955291190734863Q16.24967041015625,14.878991590734863,16.24967041015625,14.800000190734863Q16.24967041015625,14.654060190734864,16.31670041015625,14.524423190734863Q16.32309441015625,14.512057190734863,16.33005541015625,14.500000190734863Q16.38840841015625,14.398930190734863,16.48039141015625,14.327101190734863Q16.57237441015625,14.255273190734863,16.68457541015625,14.223161190734864Q16.68946541015625,14.221761190734863,16.69437941015625,14.220444190734863Q16.77067901015625,14.200000190734864,16.84967041015625,14.200000190734864Q16.99561041015625,14.200000190734864,17.12524741015625,14.267030190734863Q17.13761341015625,14.273424190734863,17.14967041015625,14.280385190734863L17.14970941015625,14.280407190734863Z" fill-rule="evenodd" fill="#FF4A4A" fill-opacity="0.800000011920929"/></g><g><path d="M15.319638190734864,16.549779028381348L15.319615190734863,16.549740028381347Q15.311299190734863,16.535336028381348,15.302197190734864,16.521414028381347Q15.241606190734863,16.428736028381348,15.151926190734864,16.363789028381348Q15.062246190734863,16.29884302838135,14.955291190734863,16.270184028381347Q14.953196190734863,16.269623028381346,14.951097190734863,16.269077028381346Q14.876786090734864,16.249740028381346,14.800000190734863,16.249740028381346Q14.639231190734863,16.249740028381346,14.500000190734863,16.330125028381346Q14.485596190734864,16.338441028381347,14.471674190734863,16.34754302838135Q14.378996190734863,16.408134028381347,14.314049190734863,16.49781402838135Q14.249103190734864,16.587494028381347,14.220444190734863,16.69444902838135Q14.219883190734864,16.696544028381346,14.219337190734864,16.698643028381348Q14.200000190734864,16.772954128381347,14.200000190734864,16.849740028381348Q14.200000190734864,17.010510028381347,14.280385190734863,17.14974002838135L14.280407190734863,17.14977902838135L14.980385190734863,18.36218002838135Q15.019881190734864,18.430580028381346,15.075736190734863,18.48644002838135Q15.131591190734863,18.54229002838135,15.200000190734864,18.58179002838135Q15.268409190734863,18.62129002838135,15.344709190734863,18.641730028381346Q15.421009190734864,18.662170028381347,15.500000190734863,18.662170028381347Q15.513922190734863,18.662170028381347,15.527829190734863,18.661530028381346Q15.673612190734863,18.654760028381347,15.800000190734863,18.58179002838135Q15.868410190734863,18.54229002838135,15.924260190734863,18.48644002838135Q15.980120190734864,18.430580028381346,16.019620190734862,18.362170028381346Q16.059110190734863,18.29377002838135,16.079560190734863,18.21747002838135Q16.100000190734864,18.141170028381346,16.100000190734864,18.06217002838135Q16.100000190734864,18.048250028381347,16.099350190734864,18.034350028381347Q16.092590190734864,17.88856002838135,16.019620190734862,17.762175028381346L15.319638190734864,16.549779028381348Z" fill-rule="evenodd" fill="#FF4A4A" fill-opacity="0.699999988079071"/></g><g><path d="M12.6,18.99999942779541L12.6,17.59999942779541Q12.6,17.54090462779541,12.588471,17.48294542779541Q12.576942,17.42498542779541,12.554328,17.37038942779541Q12.531713,17.31579242779541,12.498882,17.26665742779541Q12.46605,17.21752142779541,12.424264,17.17573542779541Q12.382478,17.13394942779541,12.333342,17.101117427795412Q12.284207,17.06828642779541,12.22961,17.04567142779541Q12.175014000000001,17.02305742779541,12.117054,17.01152842779541Q12.0590948,16.99999942779541,12,16.99999942779541Q11.9409052,16.99999942779541,11.882946,17.01152842779541Q11.824985999999999,17.02305742779541,11.77039,17.04567142779541Q11.715793,17.06828642779541,11.666658,17.101117427795412Q11.617522,17.13394942779541,11.575736,17.17573542779541Q11.53395,17.21752142779541,11.501118,17.26665742779541Q11.468287,17.31579242779541,11.445672,17.37038942779541Q11.423058,17.42498542779541,11.411529,17.48294542779541Q11.4,17.54090462779541,11.4,17.59999942779541L11.4,18.99999942779541Q11.4,19.05908942779541,11.411529,19.11704942779541Q11.423058,19.17500942779541,11.445672,19.22960942779541Q11.468287,19.28420942779541,11.501118,19.33333942779541Q11.53395,19.38247942779541,11.575736,19.42425942779541Q11.617522,19.46604942779541,11.666658,19.49887942779541Q11.715793,19.53170942779541,11.77039,19.55432942779541Q11.824985999999999,19.57693942779541,11.882946,19.58846942779541Q11.9409052,19.59999942779541,12,19.59999942779541Q12.0590948,19.59999942779541,12.117054,19.58846942779541Q12.175014000000001,19.57693942779541,12.22961,19.55432942779541Q12.284207,19.53170942779541,12.333342,19.49887942779541Q12.382478,19.46604942779541,12.424264,19.42425942779541Q12.46605,19.38247942779541,12.498882,19.33333942779541Q12.531713,19.28420942779541,12.554328,19.22960942779541Q12.576942,19.17500942779541,12.588471,19.11704942779541Q12.6,19.05908942779541,12.6,18.99999942779541Z" fill-rule="evenodd" fill="#FF4A4A" fill-opacity="0.6000000238418579"/></g><g><path d="M9.719619999999999,17.14974002838135Q9.72658,17.137683028381346,9.73297,17.125317028381346Q9.8,16.995680028381347,9.8,16.849740028381348Q9.8,16.770748528381347,9.77956,16.69444902838135Q9.75911,16.618149028381346,9.719619999999999,16.549740028381347Q9.68012,16.481331028381348,9.62426,16.425476028381347Q9.56841,16.36962102838135,9.5,16.330125028381346Q9.487943,16.32316402838135,9.475577,16.31677002838135Q9.34594,16.249740028381346,9.2,16.249740028381346Q9.121009,16.249740028381346,9.044709,16.270184028381347Q9.039795,16.271501028381348,9.034905,16.272901028381348Q8.922704,16.305013028381346,8.830721,16.376841028381346Q8.738738,16.448670028381347,8.680385,16.549740028381347L8.680334,16.54982802838135L7.980385,17.762175028381346Q7.9,17.90141002838135,7.9,18.06217002838135Q7.9,18.078810028381348,7.900921,18.095410028381348Q7.905063,18.170070028381346,7.927399,18.24142002838135Q7.949734,18.312770028381347,7.988897,18.37646002838135Q8.02806,18.440150028381346,8.081655,18.492280028381348Q8.13525,18.544410028381346,8.2,18.58179002838135Q8.33923,18.662170028381347,8.5,18.662170028381347Q8.5166327,18.662170028381347,8.5332397,18.661250028381346Q8.607891,18.657110028381346,8.679243,18.634780028381346Q8.750595,18.612440028381346,8.814283,18.573280028381348Q8.877972,18.53411002838135,8.930102,18.48052002838135Q8.982232,18.426920028381346,9.019615,18.36218002838135L9.719619999999999,17.14974002838135Z" fill-rule="evenodd" fill="#FF4A4A" fill-opacity="0.5"/></g><g><path d="M6.23789042370224,16.019620190734862L7.45033142370224,15.319616190734862Q7.51874142370224,15.280120190734863,7.57459142370224,15.224264190734864Q7.63045142370224,15.168409190734863,7.66994142370224,15.100000190734864Q7.7094414237022395,15.031592190734862,7.72988142370224,14.955292190734863Q7.7503314237022405,14.878991690734864,7.7503314237022405,14.800000122191264Q7.7503314237022405,14.786078690734863,7.74968142370224,14.772172090734863Q7.74291142370224,14.626389190734864,7.66994142370224,14.500000190734863Q7.61027142370224,14.396642190734863,7.51559142370224,14.323988190734863Q7.42090142370224,14.251334190734863,7.30562142370224,14.220445190734864Q7.22932142370224,14.200000190734864,7.15033142370224,14.200000190734864Q7.14087142370224,14.200000190734864,7.13142142370224,14.200298190734863Q6.98082142370224,14.205047190734863,6.85033042370224,14.280384190734864L5.63789242370224,14.980384190734863Q5.56948342370224,15.019880190734863,5.51362742370224,15.075736190734863Q5.45777242370224,15.131591190734863,5.41827642370224,15.200000190734864Q5.37878042370224,15.268408190734863,5.35833542370224,15.344708190734863Q5.33789142370224,15.421008190734863,5.33789142370224,15.500000190734863Q5.33789142370224,15.513921190734862,5.33853742370224,15.527828190734864Q5.34530542370224,15.673611190734864,5.41827542370224,15.799999190734864Q5.45777142370224,15.868410190734863,5.51362742370224,15.924260190734863Q5.56948242370224,15.980120190734864,5.63789142370224,16.019620190734862Q5.70629942370224,16.059110190734863,5.78259942370224,16.079560190734863Q5.85889982370224,16.100000190734864,5.93789142370224,16.100000190734864Q5.95181252370224,16.100000190734864,5.96571952370224,16.099350190734864Q6.11150242370224,16.092590190734864,6.23789042370224,16.019620190734862Z" fill-rule="evenodd" fill="#FF4A4A" fill-opacity="0.4000000059604645"/></g><g><path d="M5,12.6L6.4,12.6Q6.45909,12.6,6.51705,12.588471Q6.57501,12.576942,6.62961,12.554328Q6.68421,12.531713,6.73334,12.498882Q6.78248,12.46605,6.82426,12.424264Q6.8660499999999995,12.382478,6.89888,12.333342Q6.93171,12.284207,6.95433,12.22961Q6.97694,12.175014000000001,6.9884699999999995,12.117054Q7,12.0590948,7,12Q7,11.9409052,6.9884699999999995,11.882946Q6.97694,11.824985999999999,6.95433,11.77039Q6.93171,11.715793,6.89888,11.666658Q6.8660499999999995,11.617522,6.82426,11.575736Q6.78248,11.53395,6.73334,11.501118Q6.68421,11.468287,6.62961,11.445672Q6.57501,11.423058,6.51705,11.411529Q6.45909,11.4,6.4,11.4L5,11.4Q4.9409051999999996,11.4,4.882946,11.411529Q4.824986,11.423058,4.77039,11.445672Q4.715793,11.468287,4.666658,11.501118Q4.617522,11.53395,4.575736,11.575736Q4.53395,11.617522,4.501118,11.666658Q4.468287,11.715793,4.445672,11.77039Q4.423058,11.824985999999999,4.411529,11.882946Q4.4,11.9409052,4.4,12Q4.4,12.0590948,4.411529,12.117054Q4.423058,12.175014000000001,4.445672,12.22961Q4.468287,12.284207,4.501118,12.333342Q4.53395,12.382478,4.575736,12.424264Q4.617522,12.46605,4.666658,12.498882Q4.715793,12.531713,4.77039,12.554328Q4.824986,12.576942,4.882946,12.588471Q4.9409051999999996,12.6,5,12.6Z" fill-rule="evenodd" fill="#FF4A4A" fill-opacity="0.30000001192092896"/></g><g><path d="M5.63789242370224,9.019616L6.85033042370224,9.719619999999999Q6.98956142370224,9.8,7.15033142370224,9.8L7.1611314237022405,9.799900000000001Q7.23462142370224,9.79858,7.30562142370224,9.77956Q7.42090142370224,9.74867,7.51559142370224,9.67601Q7.61027142370224,9.60336,7.66994142370224,9.499999Q7.7503314237022405,9.360769,7.7503314237022405,9.2Q7.7503314237022405,9.183367,7.74941142370224,9.166759Q7.74526142370224,9.092108,7.72293142370224,9.020756Q7.70059142370224,8.949404,7.66143142370224,8.885716Q7.62227142370224,8.822027,7.56867142370224,8.769897Q7.51508142370224,8.717767,7.45033142370224,8.680384L6.23789042370224,7.980384Q6.09866042370224,7.9,5.93789149224584,7.9Q5.92125842370224,7.9,5.90465092370224,7.900921Q5.82999942370224,7.905064,5.75864742370224,7.927399Q5.68729542370224,7.949735,5.62360742370224,7.988898Q5.55991842370224,8.028061,5.50778842370224,8.081656Q5.45565842370224,8.135251,5.41827542370224,8.200001Q5.33789142370224,8.339231,5.33789142370224,8.5Q5.33789142370224,8.516633,5.33881242370224,8.5332405Q5.34295542370224,8.607892,5.36529042370224,8.679244Q5.38762642370224,8.750596,5.42678942370224,8.814284Q5.46595242370224,8.877973,5.51954742370224,8.930103Q5.57314242370224,8.982233,5.63789242370224,9.019616Z" fill-rule="evenodd" fill="#FF4A4A" fill-opacity="0.20000000298023224"/></g><g><path d="M8.680362,7.45022502412796L8.680385,7.45026502412796Q8.740058,7.553615024127961,8.834743,7.62627502412796Q8.929428,7.69892502412796,9.044709,7.72981502412796Q9.121008,7.750265024127961,9.2,7.750265024127961Q9.209458,7.750265024127961,9.218912,7.7499650241279605Q9.369512,7.74521502412796,9.5,7.66987502412796Q9.56841,7.63037502412796,9.62426,7.5745250241279605Q9.68012,7.5186650241279605,9.719619999999999,7.45026502412796Q9.75911,7.38185502412796,9.77956,7.30555502412796Q9.8,7.22925502412796,9.8,7.15026502412796Q9.8,7.13633502412796,9.79935,7.12243502412796Q9.79259,6.9766450241279605,9.719619999999999,6.8502600241279605L9.019615,5.63782502412796Q8.98012,5.56941602412796,8.924264,5.51356102412796Q8.868409,5.45770502412796,8.8,5.41821002412796Q8.731591,5.3787140241279605,8.655292,5.35826902412796Q8.5789916,5.337825024127961,8.500000168359,5.337825024127961Q8.4860781,5.337825024127961,8.4721712,5.33847102412796Q8.326388,5.3452400241279605,8.2,5.41821002412796Q8.131591,5.45770502412796,8.075736,5.51356102412796Q8.01988,5.56941602412796,7.980385,5.63782502412796Q7.940889,5.70623402412796,7.920444,5.78253402412796Q7.9,5.85883352412796,7.9,5.93782502412796Q7.9,5.9517468241279605,7.900646,5.96565382412796Q7.907415,6.1114370241279605,7.980385,6.23782502412796L8.680362,7.45022502412796Z" fill-rule="evenodd" fill="#FF4A4A" fill-opacity="0.10000000149011612"/></g></g></g></svg>