<svg xmlns="http://www.w3.org/2000/svg" xmlns:xlink="http://www.w3.org/1999/xlink" fill="none" version="1.1" width="16" height="16" viewBox="0 0 16 16"><defs><clipPath id="master_svg0_38_0318"><rect x="0" y="0" width="16" height="16" rx="0"/></clipPath></defs><g clip-path="url(#master_svg0_38_0318)"><g style="opacity:0;"><rect x="0" y="0" width="16" height="16" rx="0" fill="#000000" fill-opacity="1"/></g><g transform="matrix(-1,-2.416353197531862e-7,2.416353197531862e-7,-1,28.999996496287864,29.000003503712136)"><path d="M20.25,15.250003L21,15.25Q23.381729999999997,15.25,25.0659,16.93414Q26.75,18.61827,26.75,21Q26.75,23.381729999999997,25.0659,25.0659Q23.381729999999997,26.75,21,26.75Q18.61827,26.75,16.93414,25.0659Q15.25,23.381729999999997,15.25,21L15.250003,20.25L13.749997,20.25L13.75,21Q13.75,24.00305,15.87348,26.1265Q17.99695,28.25,21,28.25Q24.00305,28.25,26.1265,26.1265Q28.25,24.00305,28.25,21Q28.25,17.99695,26.1265,15.87348Q24.00305,13.75,21,13.75L20.25,13.749997L20.25,15.250003Z" fill-rule="evenodd" fill="#394AFF" fill-opacity="1"/></g></g></svg>