<?xml version="1.0" encoding="UTF-8"?>
<svg width="16px" height="16px" viewBox="0 0 16 16" version="1.1" xmlns="http://www.w3.org/2000/svg" xmlns:xlink="http://www.w3.org/1999/xlink">
    <g id="登录注册" stroke="none" stroke-width="1" fill="none" fill-rule="evenodd">
        <g id="注册/手机号注册" transform="translate(-843.000000, -284.000000)" fill="#3860F4" fill-rule="nonzero">
            <g id="编组-7" transform="translate(480.000000, 240.000000)">
                <g id="编组-4" transform="translate(39.500000, 40.000000)">
                    <g id="编组-6" transform="translate(323.500000, 2.000000)">
                        <g id="我的" transform="translate(0.000000, 2.000000)">
                            <rect id="矩形" opacity="0" x="0" y="0" width="16" height="16"></rect>
                            <path d="M14.1935914,16.0000225 L1.80643111,16.0000225 C0.810536855,16.0000225 0,15.1894857 0,14.1935914 L0,12.9032324 C0,10.7685866 1.73643101,9.03233414 3.8708983,9.03233414 L12.1289456,9.03233414 C14.2635915,9.03233414 15.999844,10.7687652 15.999844,12.9032324 L15.999844,14.1935914 C16.0000225,15.1894857 15.1894857,16.0000225 14.1935914,16.0000225 Z M3.8708983,10.5807292 C2.59018222,10.5807292 1.54839504,11.6225164 1.54839504,12.9032324 L1.54839504,14.1935914 C1.54839504,14.335913 1.66428806,14.4516275 1.80643111,14.4516275 L14.1935914,14.4516275 C14.3357345,14.4516275 14.4516275,14.335913 14.4516275,14.1935914 L14.4516275,12.9032324 C14.4516275,11.6225164 13.4098403,10.5807292 12.1291242,10.5807292 L3.8708983,10.5807292 Z M8.00001126,7.57001065 C5.91286546,7.57001065 4.21464879,5.87197255 4.21464879,3.78500533 C4.21464879,1.6980381 5.91286546,0 8.00001126,0 C10.0866213,0 11.784838,1.6980381 11.784838,3.78500533 C11.784838,5.87197255 10.0866213,7.57001065 8.00001126,7.57001065 Z M8.00001126,1.54839504 C6.76661666,1.54839504 5.76304382,2.55161073 5.76304382,3.78500533 C5.76304382,5.01839992 6.76661666,6.02161562 8.00001126,6.02161562 C9.23340585,6.02161562 10.236443,5.01839992 10.236443,3.78500533 C10.236443,2.55161073 9.23340585,1.54839504 8.00001126,1.54839504 Z" id="形状"></path>
                        </g>
                    </g>
                </g>
            </g>
        </g>
    </g>
</svg>