<?xml version="1.0" encoding="UTF-8"?>
<svg width="16px" height="16px" viewBox="0 0 16 16" version="1.1" xmlns="http://www.w3.org/2000/svg" xmlns:xlink="http://www.w3.org/1999/xlink">
    <title>phone</title>
    <g id="登录注册" stroke="none" stroke-width="1" fill="none" fill-rule="evenodd">
        <g id="登录" transform="translate(-829.000000, -284.000000)" fill="#3860F4" fill-rule="nonzero">
            <g id="编组-7" transform="translate(519.500000, 280.000000)">
                <g id="编组-6" transform="translate(309.500000, 2.000000)">
                    <g id="phone" transform="translate(0.000000, 2.000000)">
                        <rect id="矩形" opacity="0" x="0" y="0" width="16" height="16"></rect>
                        <path d="M11.8137656,15.8159063 L4.54928125,15.8159063 C3.47939062,15.8159063 2.6120625,14.9412969 2.6120625,13.8619375 L2.6120625,2.1380625 C2.6120625,1.05871875 3.4794375,0.18409375 4.54928125,0.18409375 L11.8137812,0.18409375 C12.8836875,0.18409375 13.7510313,1.05870313 13.7510313,2.1380625 L13.7510313,13.8619375 C13.7510313,14.9412813 12.8836719,15.8159063 11.8137656,15.8159063 Z M12.7822188,2.1380625 C12.7822188,1.59875 12.3486094,1.16109375 11.8137813,1.16109375 L4.54928125,1.16109375 C4.01446875,1.16109375 3.58067188,1.59875 3.58067188,2.1380625 L3.58067188,2.626625 L12.7822188,2.626625 L12.7822188,2.1380625 Z M12.7822188,3.60359375 L3.58067188,3.60359375 L3.58067188,11.40425 L12.7822188,11.40425 L12.7822188,3.60359375 Z M12.7822188,12.3812188 L3.58067188,12.3812188 L3.58067188,13.8619375 C3.58067188,14.401625 4.0145,14.8389062 4.54928125,14.8389062 L11.8137813,14.8389062 C12.3486094,14.8389062 12.7822188,14.401625 12.7822188,13.8619375 L12.7822188,12.3812188 Z M8.18160938,14.3504531 C7.78054688,14.3504531 7.45532813,14.0224375 7.45532813,13.6177031 C7.45532813,13.2129687 7.78057813,12.8849688 8.18160938,12.8849688 C8.58260938,12.8849688 8.9078125,13.2129844 8.9078125,13.6177031 C8.9078125,14.0224219 8.58260938,14.3504531 8.18160938,14.3504531 Z" id="形状"></path>
                        <path d="M11.8137656,15.8940313 L4.54928125,15.8940313 C3.43801563,15.8940313 2.5339375,14.9824375 2.5339375,13.8619375 L2.5339375,2.1380625 C2.5339375,1.0175625 3.43801562,0.10596875 4.54928125,0.10596875 L11.8137812,0.10596875 C12.9250625,0.10596875 13.8291563,1.0175625 13.8291563,2.1380625 L13.8291563,13.8619375 C13.8291563,14.9824375 12.9250625,15.8940313 11.8137656,15.8940313 Z M4.54928125,0.26221875 C3.52417187,0.26221875 2.6901875,1.10373438 2.6901875,2.13807813 L2.6901875,13.8619531 C2.6901875,14.8962969 3.52417187,15.7377969 4.54928125,15.7377969 L11.8137656,15.7377969 C12.8388906,15.7377969 13.6729063,14.8963125 13.6729063,13.8619531 L13.6729063,2.1380625 C13.6729063,1.10371875 12.8389063,0.26221875 11.8137812,0.26221875 L4.54928125,0.26221875 L4.54928125,0.26221875 Z M11.8137813,14.9170312 L4.54928125,14.9170312 C3.97210938,14.9170312 3.50254688,14.4437187 3.50254688,13.8619375 L3.50254688,12.3030938 L12.8603594,12.3030938 L12.8603594,13.8619375 C12.8603594,14.4437188 12.390875,14.9170312 11.8137813,14.9170312 Z M3.65879687,12.4593438 L3.65879687,13.8619375 C3.65879687,14.3575625 4.05826562,14.7607812 4.54928125,14.7607812 L11.8137812,14.7607812 C12.3047031,14.7607812 12.7040938,14.3575469 12.7040938,13.8619375 L12.7040938,12.4593438 L3.65879687,12.4593438 Z M8.18160938,14.4285781 C7.7380625,14.4285781 7.37720313,14.0648281 7.37720313,13.6177031 C7.37720313,13.1705781 7.73807813,12.8068438 8.18160938,12.8068438 C8.625125,12.8068438 8.9859375,13.1705781 8.9859375,13.6177031 C8.9859375,14.0648281 8.625125,14.4285781 8.18160938,14.4285781 Z M8.18160938,12.9631094 C7.82421875,12.9631094 7.53345313,13.2567656 7.53345313,13.6177187 C7.53345313,13.9786875 7.82421875,14.2723437 8.18160938,14.2723437 C8.53896875,14.2723437 8.8296875,13.9786875 8.8296875,13.6177187 C8.8296875,13.2567656 8.53896875,12.9631094 8.18160938,12.9631094 Z M12.8603438,11.482375 L3.50254687,11.482375 L3.50254687,3.52546875 L12.8603438,3.52546875 L12.8603438,11.482375 L12.8603438,11.482375 Z M3.65879687,11.326125 L12.7040938,11.326125 L12.7040938,3.68171875 L3.65879687,3.68171875 L3.65879687,11.326125 Z M12.8603438,2.70475 L3.50254687,2.70475 L3.50254687,2.1380625 C3.50254687,1.55628125 3.97210937,1.08296875 4.54928125,1.08296875 L11.8137656,1.08296875 C12.3908594,1.08296875 12.8603438,1.55628125 12.8603438,2.1380625 L12.8603438,2.70475 L12.8603438,2.70475 Z M3.65879687,2.5485 L12.7040938,2.5485 L12.7040938,2.1380625 C12.7040938,1.6424375 12.3046875,1.23921875 11.8137813,1.23921875 L4.54928125,1.23921875 C4.05826562,1.23921875 3.65879687,1.6424375 3.65879687,2.1380625 L3.65879687,2.5485 Z" id="形状"></path>
                    </g>
                </g>
            </g>
        </g>
    </g>
</svg>