<?xml version="1.0" encoding="UTF-8"?>
<svg width="76px" height="30px" viewBox="0 0 76 30" version="1.1" xmlns="http://www.w3.org/2000/svg" xmlns:xlink="http://www.w3.org/1999/xlink">
    <title>编组</title>
    <defs>
        <polygon id="path-1" points="0 0 24.4365308 0 24.4365308 30 0 30"></polygon>
        <polygon id="path-3" points="0 0 6.81925303 0 6.81925303 8.8397543 0 8.8397543"></polygon>
    </defs>
    <g id="朱雀" stroke="none" stroke-width="1" fill="none" fill-rule="evenodd">
        <g id="登录-/账号" transform="translate(-101.000000, -15.000000)">
            <g id="编组" transform="translate(101.000000, 15.000000)">
                <rect id="矩形" x="0" y="0" width="76" height="30"></rect>
                <g>
                    <mask id="mask-2" fill="white">
                        <use xlink:href="#path-1"></use>
                    </mask>
                    <g id="Clip-2"></g>
                    <path d="M11.2758077,22.5690133 C11.6985838,21.9357202 11.9546885,21.2018146 12.0137784,20.4218856 C12.2006304,17.955353 11.1882617,16.2841388 13.1258886,15.4146313 C14.5603075,14.7991959 15.9410083,14.2064092 17.1557637,13.5151877 C16.1802717,17.8338339 13.8870889,20.4812659 11.2758077,22.5690133 M7.36280586,22.4247003 C6.73691721,22.3785317 6.16765036,22.089325 5.75881194,21.6135567 C5.35752309,21.1464995 5.15905643,20.5534224 5.19665911,19.9400196 C6.10536638,19.1115991 7.09900635,18.4176192 8.13329787,17.81104 C9.21114462,18.0905194 9.96871524,19.1123251 9.88160478,20.2605861 C9.83427476,20.885894 9.5463747,21.4554512 9.07060641,21.8642896 C8.59483812,22.2729829 7.98825896,22.4720303 7.36280586,22.4247003 M24.3303262,10.0413678 C23.6113746,13.2688103 19.9411206,14.4150387 21.2922038,12.8152552 C23.5615764,10.1284782 24.752812,3.57922357 23.7340551,0 C22.3887793,3.45233267 5.8797503,13.3591148 8.16944871,8.67460469 C4.3239575,11.5212293 -2.11524763,18.9668506 0.685353628,29.3096206 C1.06602633,26.124717 2.06503811,23.7418104 3.43151085,21.8910035 C3.60790953,22.2905502 3.84426924,22.6664318 4.13710556,23.0071789 C4.79261177,23.7698309 5.66415191,24.280153 6.63354613,24.4778938 C6.81952696,24.515932 7.00899221,24.5423555 7.20150633,24.5568739 C7.73186384,24.5970899 8.25496214,24.5440977 8.75236286,24.404721 C6.19087982,26.1469302 3.62489607,27.7005452 1.89546309,30.0001161 C8.27311016,26.4137786 25.9655347,27.9403893 24.3303262,10.0413678" id="Fill-1" fill="#0063FF" mask="url(#mask-2)"></path>
                </g>
                <path d="M57.2278524,19.0080393 L61.7827131,19.0080393 L61.7827131,17.8941869 L57.2278524,17.8941869 L57.2278524,16.2358942 L56.1141452,16.2358942 L56.1141452,17.8941869 L52.9338875,17.8941869 L52.9338875,16.5706887 L51.8201803,16.5706887 L51.8201803,19.0080393 L56.1141452,19.0080393 L56.1141452,21.3995118 L51.2555593,21.3995118 L51.2555593,22.513219 L54.8999706,22.513219 C54.5268474,24.3849324 53.0387104,26.1406437 51.2555593,26.8958914 L51.2555593,28.0852395 C53.6175594,27.2700308 55.6331503,24.9550704 56.0308095,22.513219 L56.1141452,22.513219 L56.1141452,28.0852395 L57.2278524,28.0852395 L57.2278524,22.513219 L57.3111881,22.513219 C57.7088473,24.9550704 59.7244382,27.2700308 62.0864382,28.0852395 L62.0864382,26.8958914 C60.3032872,26.1406437 58.8151501,24.3849324 58.442027,22.513219 L62.0864382,22.513219 L62.0864382,21.3995118 L57.2278524,21.3995118 L57.2278524,19.0080393 Z" id="Fill-3" fill="#0063FF"></path>
                <polygon id="Fill-5" fill="#0063FF" points="71.2867546 20.6664482 70.1730473 20.6664482 70.1730473 21.3994828 66.5697232 21.3994828 66.5697232 22.51319 70.1730473 22.51319 70.1730473 23.2568229 66.5697232 23.2568229 66.5697232 24.3705301 70.1730473 24.3705301 70.1730473 25.1141631 66.5697232 25.1141631 66.5697232 26.2280155 70.1730473 26.2280155 70.1730473 26.9715033 66.5697232 26.9715033 66.5697232 28.0853557 74.8514597 28.0853557 74.8514597 26.9715033 71.2867546 26.9715033 71.2867546 26.2280155 74.8514597 26.2280155 74.8514597 25.1141631 71.2867546 25.1141631 71.2867546 24.3705301 74.8514597 24.3705301 74.8514597 23.2568229 71.2867546 23.2568229 71.2867546 22.51319 74.8514597 22.51319 74.8514597 21.3994828 71.2867546 21.3994828"></polygon>
                <path d="M66.180354,16.5706742 L65.0595327,16.5706742 C64.9407721,17.5900117 64.7315619,18.2752807 64.0205953,19.0705992 L64.850758,19.8129254 C65.7808073,18.7728266 66.0446068,17.8342114 66.180354,16.5706742" id="Fill-7" fill="#0063FF"></path>
                <path d="M73.0413625,16.5706742 L73.3076301,17.8324692 C72.3700312,18.2825399 71.2704068,18.7048804 70.0759773,19.0801813 L70.0759773,16.2358796 L68.96227,16.2358796 L68.96227,19.4087329 C67.3855707,19.8455919 65.6919982,20.1979537 64.0206389,20.4264734 L64.0206389,21.5506339 C64.2243322,21.5234845 64.428461,21.4943025 64.632735,21.4636686 L64.632735,28.0853702 L65.7465874,28.0853702 L65.7465874,21.2800108 C68.6133926,20.7640265 71.4317064,19.926169 73.5436994,18.9516934 L73.7254699,19.8129254 L74.8638584,19.8129254 L74.179751,16.5706742 L73.0413625,16.5706742 Z" id="Fill-9" fill="#0063FF"></path>
                <path d="M30.2991784,13.9281494 C30.9073546,14.2201146 31.6175952,14.3683475 32.4306262,14.373429 C33.6298468,14.3811237 34.5821093,14.0797216 35.286833,13.4684965 C35.9921373,12.8575618 36.3479835,12.0213014 36.354662,10.9598605 C36.3591627,10.2484584 36.1975728,9.66917383 35.8703278,9.22099052 C35.5426473,8.77280721 35.1738797,8.43467345 34.7637347,8.20600849 C34.3537348,7.97777909 33.7886782,7.71441514 33.0691459,7.416207 C32.4201729,7.15240749 31.9413558,6.94348757 31.632404,6.78886651 C31.3234523,6.63453581 31.090577,6.46104082 30.9345041,6.26780078 C30.7779956,6.0749963 30.7009028,5.83718474 30.7027902,5.55494686 C30.7052584,5.15990093 30.8418766,4.85036843 31.1124998,4.626059 C31.3831229,4.40203993 31.7572623,4.29126447 32.234918,4.29431333 C32.8448364,4.2982333 33.3239439,4.4680987 33.6723858,4.80303841 C34.0209728,5.13841368 34.1937419,5.54304176 34.190693,6.01735821 L34.1899671,6.15296016 C34.1895315,6.20958196 34.2068085,6.25763789 34.2423786,6.29712797 C34.2776583,6.3370536 34.3206328,6.35694382 34.3714472,6.35737937 L36.1244,6.36841336 C36.1752145,6.36870373 36.2184793,6.34939424 36.2543398,6.30990417 C36.2900551,6.27070446 36.3083483,6.22293889 36.3086386,6.16646228 L36.3102357,5.91224492 C36.3147364,5.18980885 36.1485006,4.55346695 35.8115283,4.00350958 C35.4744108,3.4536974 35.0045951,3.02438802 34.4019359,2.71572663 C33.7992767,2.40721042 33.1116848,2.25026641 32.3394506,2.24535622 C31.6077227,2.24082945 30.9615083,2.37207587 30.4008073,2.63979535 C29.8402515,2.90722446 29.4006341,3.29414008 29.0826809,3.80010666 C28.7642922,4.30636361 28.6031378,4.898134 28.5987823,5.57570818 C28.5944268,6.26446155 28.75079,6.84447202 29.0680173,7.31472331 C29.3853897,7.78541016 29.7792742,8.15766219 30.2501062,8.43176977 C30.7209383,8.70558697 31.2958673,8.97475829 31.9751837,9.23870298 C32.583505,9.49103295 33.0266069,9.6886285 33.3055056,9.83134447 C33.5839687,9.97435081 33.8039226,10.1391348 33.9653673,10.3265674 C34.1265216,10.5138549 34.2066633,10.7432458 34.2049211,11.0141593 C34.2027433,11.3867017 34.068448,11.6992831 33.8026159,11.9517582 C33.5367838,12.2040882 33.1346239,12.3283658 32.5961361,12.3251717 C31.955729,12.3212518 31.448601,12.1628559 31.0746067,11.849839 C30.7004673,11.5369673 30.5150672,11.1545523 30.5178257,10.7030298 L30.5195679,10.4489576 C30.5198583,10.392481 30.502291,10.3444251 30.4670113,10.3044994 C30.4314412,10.2650094 30.3883215,10.2448288 30.3376522,10.2445384 L28.5999438,10.2336496 C28.548839,10.2332141 28.5057193,10.2528139 28.4698588,10.2918684 C28.4341435,10.3315037 28.4161407,10.3794144 28.4158503,10.4356007 L28.4135274,10.8082883 C28.4090267,11.5195452 28.5700358,12.1447079 28.8969904,12.6829053 C29.2236546,13.2215384 29.6912926,13.6364745 30.2991784,13.9281494" id="Fill-11" fill="#231815"></path>
                <path d="M40.088768,14.4048923 C40.9425957,14.4103348 41.5742917,14.1093681 41.9847271,13.5022083 C42.0051981,13.4685255 42.025669,13.4545879 42.0459948,13.46025 C42.0663206,13.4662026 42.0763383,13.4858024 42.0761931,13.5196303 L42.0725635,14.0954305 C42.0722731,14.1521975 42.08955,14.2002534 42.1249749,14.2397435 C42.1602547,14.2799595 42.2032292,14.2995593 42.2541888,14.2998497 L44.0376303,14.311174 C44.0881543,14.3114644 44.1314192,14.2923001 44.1674248,14.2526649 C44.2032853,14.2136103 44.2214333,14.1658448 44.2218689,14.1090778 L44.2739978,5.80991917 C44.2744255,5.75358774 44.2567131,5.70538662 44.2215785,5.66575136 C44.1860084,5.62597092 44.1430339,5.60593551 44.0925098,5.60549996 L42.3089232,5.5941756 C42.2581088,5.59388523 42.2148439,5.61363027 42.1791286,5.65282998 C42.1429778,5.69217487 42.1251201,5.73994044 42.1248298,5.79627187 L42.0912922,11.1314971 C42.0378645,11.5038943 41.8987781,11.8051513 41.673888,12.0351229 C41.4488526,12.2652397 41.1634207,12.3792092 40.8180277,12.3768863 C40.4316928,12.3745634 40.1304358,12.2314118 39.9136759,11.9477221 C39.6970613,11.6643228 39.5902058,11.2964262 39.5929643,10.8447585 L39.6249048,5.78059198 C39.6251951,5.72411537 39.6076279,5.6763498 39.5724933,5.63627899 C39.536778,5.59664373 39.4938035,5.57646314 39.4431343,5.57617277 L37.6749372,5.5649866 C37.6239775,5.56455805 37.5807127,5.58444827 37.5451426,5.62364797 C37.5089917,5.66299286 37.4909889,5.71075843 37.4906985,5.76708986 L37.4551284,11.4241883 C37.4493211,12.3614968 37.6935207,13.0914824 38.1883081,13.6138548 C38.6829503,14.1363724 39.3165338,14.4000267 40.088768,14.4048923" id="Fill-13" fill="#231815"></path>
                <path d="M45.5788175,14.321032 L51.447304,14.357916 C51.4981184,14.3583444 51.5413833,14.3388897 51.5772437,14.2995448 C51.6131042,14.2603451 51.6313974,14.2125795 51.6316878,14.1558125 L51.6428705,12.3944391 C51.6431573,12.3381076 51.62559,12.2900517 51.5903103,12.2499809 C51.5547402,12.2103456 51.5117657,12.1903102 51.4610965,12.1898747 L47.9704352,12.1679519 C47.9096031,12.1676615 47.8994402,12.1336884 47.9406724,12.0661778 L51.5031999,7.90505637 C51.5649031,7.81518742 51.5958273,7.73054509 51.596408,7.65156494 L51.6075872,5.8560732 C51.6080228,5.79988695 51.5904555,5.75183101 51.5553209,5.71190539 C51.5197508,5.67212494 51.4769215,5.65208954 51.4261071,5.65165399 L45.7250179,5.61578651 C45.6742035,5.61535796 45.6307934,5.63524818 45.5952233,5.6743027 C45.5590725,5.71379278 45.5412149,5.76155835 45.5407793,5.81788978 L45.5298905,7.56227672 C45.5296001,7.6190437 45.5467319,7.66724482 45.5824471,7.7067349 C45.6175817,7.74680571 45.6605562,7.76655075 45.7115158,7.76669593 L48.9277791,7.7870217 C48.9990645,7.78760244 49.008937,7.82128515 48.9576871,7.88894094 L45.5015796,12.0506431 C45.4400215,12.1294781 45.4089521,12.2139752 45.4085166,12.3041346 L45.3970435,14.1166128 C45.3967567,14.1732346 45.4141788,14.2212906 45.4494585,14.2607806 C45.4847382,14.3007063 45.5277127,14.3205965 45.5788175,14.321032" id="Fill-15" fill="#231815"></path>
                <path d="M57.1980171,11.3620495 C57.1955489,11.7687101 57.0407827,12.1008913 56.7344442,12.3585931 C56.4279606,12.6167304 56.055999,12.7440569 55.61914,12.7412984 C55.2937824,12.7391206 55.0352096,12.650268 54.8434214,12.4735789 C54.6511976,12.2976158 54.5562472,12.0570457 54.5582798,11.7521591 C54.5604576,11.4021203 54.6918492,11.1319327 54.9520191,10.9415963 C55.2123342,10.75126 55.5713744,10.657471 56.0287043,10.6603747 L57.1261509,10.6673435 C57.1768202,10.6676339 57.2022274,10.6959448 57.2019395,10.7524214 L57.1980171,11.3620495 Z M57.1351524,9.24482975 L55.5803758,9.23510242 C54.563942,9.22856913 53.7799478,9.46362219 53.2283935,9.93997121 C52.6762583,10.4161751 52.3977952,11.0892485 52.3922782,11.9586109 C52.3869064,12.7942906 52.6268957,13.4280192 53.112101,13.8603774 C53.5970159,14.2924453 54.2359711,14.5109474 55.0286763,14.5161139 C55.9738248,14.5219814 56.661707,14.2157881 57.092323,13.5973038 C57.1129392,13.5637663 57.1331198,13.5527323 57.1537359,13.5639115 C57.1737713,13.575381 57.1839342,13.5978846 57.1836438,13.6317125 L57.1801594,14.1905261 C57.1798691,14.247293 57.197146,14.2954942 57.2325709,14.3351294 C57.2678506,14.375055 57.3108251,14.3949453 57.3617847,14.3950905 L59.1452262,14.4064148 C59.1960406,14.4067052 59.2393055,14.3875409 59.2753111,14.3477604 C59.3110264,14.3087059 59.3293196,14.2609403 59.32961,14.2041734 L59.3658235,8.46272301 C59.3692453,7.92075078 59.2274004,7.42857668 58.9405166,6.9864911 C58.653778,6.54426034 58.2519084,6.19436666 57.7353434,5.93710044 C57.218488,5.67968904 56.6299117,5.54916853 55.969324,5.54481301 C55.3595508,5.54089304 54.8075609,5.64499004 54.3133542,5.85637808 C53.8191475,6.06776613 53.4206172,6.36452243 53.1186343,6.74635661 C52.816361,7.12862634 52.6434467,7.55648387 52.6000367,8.03050995 C52.5892931,8.10963529 52.6448986,8.16074009 52.766708,8.18382436 L54.6095298,8.46664299 C54.7108683,8.47854808 54.7775078,8.4226522 54.8085772,8.29837462 C54.8711515,8.0730489 55.0066083,7.89882798 55.2158186,7.77600223 C55.4250289,7.6530313 55.6870862,7.59248953 56.0021357,7.59452211 C56.4086511,7.59713542 56.7126666,7.70370055 56.9147629,7.91378194 C57.1165688,8.1241537 57.2164554,8.41510263 57.2142777,8.7879354 L57.2119547,9.16047779 C57.2115192,9.21709959 57.1859668,9.24512012 57.1351524,9.24482975 L57.1351524,9.24482975 Z" id="Fill-17" fill="#231815"></path>
                <path d="M64.0690142,10.321515 L65.5530861,14.2944779 C65.5928665,14.3962519 65.6637164,14.4475019 65.7654904,14.4482278 L67.6403979,14.4599933 C67.7521896,14.4605685 67.8083759,14.415997 67.8088176,14.3254021 C67.8091018,14.3028986 67.7992293,14.2690707 67.7791939,14.223628 L65.5416165,8.84049204 C65.531744,8.80637378 65.5369706,8.76702888 65.5575868,8.72158626 L67.5107485,6.00707918 C67.5416727,5.95089293 67.5572074,5.90588586 67.5574977,5.87205797 C67.5579333,5.793223 67.5071189,5.753007 67.4056352,5.75228108 L65.3782844,5.73950488 C65.2968361,5.73921452 65.2204693,5.77841422 65.1488935,5.85666845 L63.0588233,8.51978037 C63.0380619,8.54242908 63.0178814,8.55084976 62.9977008,8.54489721 C62.9772298,8.53923503 62.9673573,8.51934481 62.9675025,8.48551692 L63.0035081,2.77745891 C63.0037985,2.7209823 62.9863764,2.67292636 62.9510967,2.63314592 C62.9156717,2.59351066 62.8726973,2.57333007 62.8218828,2.5730397 L61.0384414,2.56171218 C60.9873366,2.56142497 60.9442169,2.58117001 60.9082112,2.62022453 C60.8724959,2.65971461 60.8546383,2.70748018 60.8542027,2.76381161 L60.7821834,14.2134651 C60.7817559,14.2700869 60.7990328,14.3181429 60.8343125,14.357633 C60.8697374,14.3977038 60.9125667,14.4174488 60.9636715,14.4178844 L62.7472582,14.4290635 C62.7979274,14.4293539 62.8411923,14.4101896 62.877198,14.3705543 C62.9130584,14.3313546 62.9310613,14.2837343 62.9313516,14.2269673 L62.9468863,11.7540465 C62.9470315,11.7316882 62.9573396,11.6977151 62.9781009,11.6525628 L63.9623039,10.3039477 C63.9723216,10.2815894 63.9903244,10.2730235 64.0157317,10.2786857 C64.0409937,10.2846383 64.0587062,10.2990115 64.0690142,10.321515" id="Fill-19" fill="#231815"></path>
                <g transform="translate(68.514595, 5.760745)">
                    <mask id="mask-4" fill="white">
                        <use xlink:href="#path-3"></use>
                    </mask>
                    <g id="Clip-22"></g>
                    <path d="M6.76684157,0.100613387 C6.73112628,0.0609781278 6.68829697,0.0407975382 6.63762772,0.0403619859 L4.85404107,0.0293279944 C4.80322664,0.0290376262 4.75996178,0.0484922954 4.72424649,0.087837186 C4.68809565,0.127182077 4.670238,0.175092829 4.66980245,0.231279075 L4.63641011,5.56650432 C4.58298236,5.93875635 4.44389599,6.24001335 4.21900583,6.46998496 C3.99382529,6.70010176 3.70853854,6.81407128 3.36314557,6.8120387 C2.97681068,6.80942538 2.67540849,6.66641905 2.45879382,6.38272932 C2.24203396,6.09918478 2.13532365,5.73143345 2.13808215,5.27991091 L2.16987746,0.215599193 C2.17016783,0.159267762 2.15274574,0.111211826 2.11761119,0.0714313829 C2.0818959,0.0315057559 2.03892141,0.0116155344 1.98810697,0.0111799821 L0.220055024,0 C0.169095405,-0.000144377535 0.125830544,0.0193102916 0.0901152556,0.0586551823 C0.0539644151,0.0978548888 0.036106771,0.145910825 0.0358164028,0.202242255 L0.000101114641,5.85919546 C-0.00570624929,6.796504 0.238638588,7.52634446 0.733280811,8.04871685 C1.22792303,8.5713796 1.86150644,8.83503392 2.63388584,8.8397543 C3.48756834,8.84519681 4.11940954,8.54423017 4.5296998,7.93721546 C4.55031594,7.90338756 4.5707869,7.88944989 4.59111267,7.89525725 C4.61129326,7.9012098 4.62145615,7.92080966 4.62131096,7.95478274 L4.61753618,8.53043768 C4.61724581,8.58720467 4.63452272,8.63511542 4.67009282,8.67489586 C4.70537256,8.71482149 4.74834705,8.73471171 4.79916148,8.73500208 L6.58274813,8.74618125 C6.63341738,8.74647162 6.67668224,8.72716214 6.71254271,8.68767206 C6.74854837,8.64861754 6.76669638,8.60070679 6.76698675,8.54393981 L6.81925657,0.244781196 C6.81954339,0.188449766 6.80197612,0.14039383 6.76684157,0.100613387" id="Fill-21" fill="#231815" mask="url(#mask-4)"></path>
                </g>
                <path d="M36.7316615,16.1654653 L34.8566089,16.1535603 C34.744672,16.1528343 34.6735318,16.2091658 34.642172,16.3216834 L33.1970095,22.1424043 C32.9992687,22.9384487 32.8993821,23.75569 32.8993821,24.5759802 L32.8993821,24.5823683 C32.8993821,24.6761572 32.8234508,24.7522337 32.7296619,24.7522337 L32.3900763,24.7522337 C32.2962873,24.7522337 32.2202109,24.6761572 32.2202109,24.5823683 C32.2202109,23.7928571 32.1277286,23.0061045 31.9443611,22.2382258 L30.526348,16.2956955 C30.4965853,16.1828874 30.4258806,16.1256849 30.3140889,16.1251042 L28.3934484,16.1129042 C28.2813663,16.112328 28.2253252,16.1685142 28.2245993,16.2811771 L28.2394081,16.3491232 L31.3075836,27.8185218 C31.3373464,27.9317654 31.4028244,27.9885324 31.5045985,27.9889679 L33.4253841,28.0011679 C33.5268678,28.0017441 33.5933621,27.9458483 33.6247218,27.8330402 L36.8825078,16.4034221 C36.903124,16.3359115 36.8986233,16.2795801 36.8682798,16.2341374 C36.8380815,16.1889852 36.7924937,16.1657557 36.7316615,16.1654653" id="Fill-23" fill="#231815"></path>
                <path d="M46.8440824,16.2291141 L45.060641,16.2179349 C44.9690298,16.2173541 44.8975992,16.262216 44.8464944,16.3522302 L43.0472279,19.3926756 C42.8915905,19.6557491 42.8095615,19.9555543 42.8095615,20.2611668 C42.8095615,20.3549558 42.7334851,20.430887 42.6396961,20.430887 L42.3001105,20.430887 C42.2063216,20.430887 42.1303903,20.3549558 42.1303903,20.2611668 L42.1303903,20.213982 C42.1303903,19.9173709 42.0530072,19.6258412 41.9057905,19.3682846 L40.1667754,16.3227578 C40.1162513,16.2320177 40.0455467,16.1862847 39.9540807,16.185704 L38.170494,16.1743765 C38.1196796,16.1740893 38.0764147,16.1938343 38.0406995,16.2328888 C38.0045486,16.2723789 37.986691,16.3201445 37.9864006,16.3766211 L37.9142361,27.8261295 C37.9138085,27.8828964 37.9310855,27.9309524 37.9666556,27.9702973 C38.0019353,28.0103681 38.0449098,28.0301131 38.0957242,28.0305487 L39.8793109,28.0417278 C39.9301253,28.0421634 39.9733902,28.0228539 40.0093958,27.9832187 C40.0449659,27.9440189 40.0632591,27.8963986 40.0635495,27.8397768 L40.1105891,20.3873318 C40.1108795,20.3423247 40.1208972,20.3170627 40.1415134,20.3114005 C40.1618391,20.3058835 40.1820197,20.3202568 40.2022003,20.3540847 L41.8002417,23.176028 C41.8503302,23.2669132 41.9214704,23.3122107 42.0130816,23.3127914 L42.9123519,23.3183084 C43.0035275,23.3190343 43.0748129,23.2743176 43.1264984,23.1841583 L44.7601099,20.3828311 C44.7804357,20.3490032 44.8006163,20.332307 44.8212324,20.3324522 C44.841413,20.3325974 44.8515759,20.3553913 44.8511403,20.4002532 L44.8041007,27.8695395 C44.8038103,27.9261613 44.8212324,27.9742172 44.8566573,28.0138525 C44.8917919,28.0539233 44.9347664,28.0736683 44.9858712,28.0739587 L46.7693126,28.0852863 C46.8199819,28.0855734 46.8633919,28.0661188 46.8992524,28.0267739 C46.9349677,27.9875742 46.9531157,27.9398086 46.9535512,27.8831868 L47.0255705,16.4335333 C47.0259981,16.3772018 47.0084308,16.3290007 46.9732963,16.2893655 C46.9378714,16.249585 46.8948969,16.2294044 46.8440824,16.2291141" id="Fill-25" fill="#231815"></path>
            </g>
        </g>
    </g>
</svg>