<?xml version="1.0" encoding="UTF-8"?>
<svg width="24px" height="24px" viewBox="0 0 24 24" version="1.1" xmlns="http://www.w3.org/2000/svg" xmlns:xlink="http://www.w3.org/1999/xlink">
    <g id="汇总" stroke="none" stroke-width="1" fill="none" fill-rule="evenodd">
        <g id="DNS-解析-批量操作-添加域名-报警-改" transform="translate(-18.000000, -18.000000)" fill-rule="nonzero">
            <g id="menu" transform="translate(18.000000, 18.000000)">
                <rect id="矩形" fill="#000000" opacity="0" x="0" y="0" width="24" height="24"></rect>
                <path d="M21.1875,3.75 L2.8125,3.75 C2.709375,3.75 2.625,3.834375 2.625,3.9375 L2.625,5.4375 C2.625,5.540625 2.709375,5.625 2.8125,5.625 L21.1875,5.625 C21.290625,5.625 21.375,5.540625 21.375,5.4375 L21.375,3.9375 C21.375,3.834375 21.290625,3.75 21.1875,3.75 Z M21.1875,18.375 L2.8125,18.375 C2.709375,18.375 2.625,18.459375 2.625,18.5625 L2.625,20.0625 C2.625,20.165625 2.709375,20.25 2.8125,20.25 L21.1875,20.25 C21.290625,20.25 21.375,20.165625 21.375,20.0625 L21.375,18.5625 C21.375,18.459375 21.290625,18.375 21.1875,18.375 Z M21.1875,11.0625 L2.8125,11.0625 C2.709375,11.0625 2.625,11.146875 2.625,11.25 L2.625,12.75 C2.625,12.853125 2.709375,12.9375 2.8125,12.9375 L21.1875,12.9375 C21.290625,12.9375 21.375,12.853125 21.375,12.75 L21.375,11.25 C21.375,11.146875 21.290625,11.0625 21.1875,11.0625 Z" id="形状" fill="#555555"></path>
            </g>
        </g>
    </g>
</svg>