<?xml version="1.0" encoding="UTF-8"?>
<svg width="97px" height="32px" viewBox="0 0 97 32" version="1.1" xmlns="http://www.w3.org/2000/svg" xmlns:xlink="http://www.w3.org/1999/xlink">
    <title>logo </title>
    <defs>
        <polygon id="path-1" points="0 0 44.3207821 0 44.3207821 32 0 32"></polygon>
        <polygon id="path-3" points="0 0 18.2864 0 18.2864 11.425935 0 11.425935"></polygon>
    </defs>
    <g id="汇总" stroke="none" stroke-width="1" fill="none" fill-rule="evenodd">
        <g id="DNS-解析-批量操作-操作日志-点击后详情-改" transform="translate(-80.000000, -14.000000)">
            <g id="编组-2" transform="translate(60.000000, 0.000000)">
                <g id="logo-" transform="translate(20.000000, 14.000000)">
                    <rect id="矩形" x="0" y="0" width="97" height="32"></rect>
                    <g id="编组">
                        <mask id="mask-2" fill="white">
                            <use xlink:href="#path-1"></use>
                        </mask>
                        <g id="Clip-2"></g>
                        <path d="M32.2366118,31.936 L29.6483765,31.936 C28.7072,31.936 27.9448471,31.1727059 27.9448471,30.2324706 C27.9448471,29.2912941 28.7072,28.5289412 29.6483765,28.5289412 L32.2366118,28.5289412 C36.2770824,28.5327059 39.7886118,25.7524706 40.7119059,21.8183529 C41.6342588,17.8842353 39.7264941,13.8334118 36.1048471,12.0395294 C35.4422588,11.7195294 35.0620235,11.008 35.1636706,10.2795294 L35.8413176,5.63952941 L31.2954353,7.59717647 C30.5613176,7.91623529 29.7029647,7.68188235 29.2342588,7.03247059 C27.6050824,4.75388235 24.9763765,3.40235294 22.1754353,3.40235294 C19.3744941,3.40235294 16.7457882,4.75388235 15.1166118,7.03247059 C14.6479059,7.68188235 13.7895529,7.91623529 13.0554353,7.59717647 L8.47190588,5.63952941 L9.14955294,10.3454118 C9.2512,11.0738824 8.87096471,11.7854118 8.20837647,12.1054118 C5.31802353,13.5632941 3.47331765,16.5016471 3.41778824,19.7383529 C3.39331765,22.0367059 4.29590588,24.2494118 5.92131765,25.8748235 C7.6192,27.5896471 9.92696471,28.5609412 12.3401412,28.576 L19.3707294,28.576 C21.9570824,28.4621176 23.9947294,26.3312941 23.9947294,23.7430588 C23.9947294,21.1538824 21.9570824,19.024 19.3707294,18.9101176 C18.4304941,18.9101176 17.6672,18.1477647 17.6672,17.2065882 C17.6672,16.2663529 18.4304941,15.5030588 19.3707294,15.5030588 C23.8130824,15.6536471 27.3368471,19.2978824 27.3368471,23.7430588 C27.3368471,28.1882353 23.8130824,31.8334118 19.3707294,31.9830588 L12.3307294,31.9830588 C8.99896471,31.9604706 5.81402353,30.6089412 3.48367059,28.2277647 C1.20978824,25.9557647 -0.0466823529,22.8583529 0.00131764706,19.6442353 C0.0606117647,15.5830588 2.15849412,11.8230588 5.58249412,9.63952941 L4.64131765,3.05129412 C4.55378824,2.43764706 4.80602353,1.82494118 5.30014118,1.45129412 C5.78767059,1.07670588 6.44084706,0.996705882 7.00367059,1.24423529 L13.2248471,3.94541176 C15.5184941,1.43152941 18.7636706,0 22.1660235,0 C25.5683765,0 28.8135529,1.43152941 31.1072,3.94541176 L37.2624941,1.29129412 C37.8290824,1.04658824 38.4832,1.12658824 38.9735529,1.50211765 C39.4639059,1.87670588 39.7133176,2.48752941 39.6248471,3.09835294 L38.6836706,9.59247059 C43.2389647,12.4724706 45.3415529,18.0169412 43.8413176,23.1934118 C42.3401412,28.3698824 37.5975529,31.9303529 32.2083765,31.9265882 L32.2366118,31.936 Z" id="Fill-1" fill="#0063FF" mask="url(#mask-2)"></path>
                    </g>
                    <path d="M59.9167059,8.1056 L59.5402353,8.55736471 C59.3152941,8.13007059 59.0574118,7.72065882 58.7684706,7.33383529 C58.4117647,6.88112941 57.7567059,6.80395294 57.3049412,7.15971765 C56.8522353,7.51548235 56.7741176,8.17054118 57.1308235,8.62324706 C57.5411765,9.14277647 57.8592941,9.72818824 58.072,10.3550118 L55.832,13.0279529 C55.6569412,13.2397176 55.5731765,13.5126588 55.5995294,13.7865412 C55.6258824,14.0604235 55.7604706,14.3117176 55.9731765,14.4867765 C56.1567059,14.6439529 56.3901176,14.7305412 56.632,14.7314824 C56.9416471,14.7305412 57.2334118,14.5931294 57.4310588,14.3550118 L58.3722353,13.2350118 L58.3722353,16.2373647 L55.6616471,19.5032471 C55.4865882,19.7140706 55.4009412,19.9860706 55.4263529,20.2599529 C55.4508235,20.5338353 55.5835294,20.7860706 55.7943529,20.9620706 C55.9769412,21.1201882 56.2103529,21.2067765 56.4531765,21.2067765 C56.7618824,21.2058353 57.0555294,21.0674824 57.2531765,20.8303059 L58.3543529,19.4844235 L58.3543529,19.8044235 C58.3562353,20.8726588 58.0625882,21.9220706 57.5063529,22.8350118 L57.1496471,23.4185412 C56.8597647,23.9126588 57.0188235,24.5488941 57.5063529,24.8491294 C57.6663529,24.9517176 57.8536471,25.0044235 58.0437647,24.9997176 C58.4051765,24.9978353 58.7392941,24.8086588 58.9284706,24.5008941 L59.2861176,23.9079529 C60.0315294,22.6693647 60.4249412,21.2500706 60.4249412,19.8044235 L60.4249412,12.2185412 C60.4249412,11.7677176 60.3872941,11.3168941 60.312,10.8726588 L61.4978824,9.44207059 C61.8564706,9.00442353 61.7971765,8.36065882 61.3651765,7.99548235 C60.9331765,7.63030588 60.2884706,7.67924706 59.9167059,8.1056" id="Fill-3" fill="#231815"></path>
                    <path d="M62.9939765,10.6464941 L74.2880941,10.6464941 C74.8593882,10.6464941 75.3243294,10.1834353 75.3243294,9.6112 C75.3243294,9.03896471 74.8593882,8.57590588 74.2880941,8.57590588 L73.7328,8.57590588 L73.7328,8.02061176 C73.7328,7.44931765 73.2697412,6.98531765 72.6984471,6.98531765 C72.1262118,6.98531765 71.6622118,7.44931765 71.6622118,8.02061176 L71.6622118,8.57590588 L65.8278588,8.57590588 L65.8278588,8.02061176 C65.8278588,7.44931765 65.3638588,6.98531765 64.7916235,6.98531765 C64.2203294,6.98531765 63.7572706,7.44931765 63.7572706,8.02061176 L63.7572706,8.57590588 L62.9939765,8.57590588 C62.4226824,8.57590588 61.9586824,9.03896471 61.9586824,9.6112 C61.9586824,10.1834353 62.4226824,10.6464941 62.9939765,10.6464941" id="Fill-5" fill="#231815"></path>
                    <path d="M81.2623059,9.33854118 L94.3361882,9.33854118 C94.9074824,9.33854118 95.3705412,8.87454118 95.3705412,8.30324706 C95.3705412,7.73101176 94.9074824,7.26795294 94.3361882,7.26795294 L81.2623059,7.26795294 C80.8924235,7.26795294 80.5507765,7.46465882 80.3663059,7.7856 C80.1808941,8.1056 80.1808941,8.49995294 80.3663059,8.82089412 C80.5507765,9.14089412 80.8924235,9.33854118 81.2623059,9.33854118" id="Fill-7" fill="#231815"></path>
                    <g id="编组" transform="translate(78.655718, 13.564047)">
                        <mask id="mask-4" fill="white">
                            <use xlink:href="#path-3"></use>
                        </mask>
                        <g id="Clip-10"></g>
                        <path d="M15.3317647,9.04470588 C15.2545882,9.23011765 15.072,9.34964706 14.8705882,9.34588235 L3.41647059,9.34588235 C3.21505882,9.34964706 3.03247059,9.23011765 2.95529412,9.04470588 C2.86494118,8.86211765 2.90258824,8.64094118 3.04847059,8.49882353 L9.13882353,2.12705882 L15.2367059,8.49882353 C15.3910588,8.64941176 15.4296471,8.88188235 15.3317647,9.07294118 L15.3317647,9.04470588 Z M1.03529412,2.07058824 L6.32470588,2.07058824 L1.552,7.06823529 C0.839529412,7.81741176 0.642823529,8.92047059 1.05223529,9.87011765 C1.46258824,10.8197647 2.40094118,11.4324706 3.43435294,11.425935 L14.8705882,11.425935 C15.904,11.4324706 16.8423529,10.8197647 17.2527059,9.87011765 C17.664,8.92047059 17.4663529,7.81741176 16.7529412,7.06823529 L11.9623529,2.07058824 L17.2517647,2.07058824 C17.8230588,2.07058824 18.2870588,1.60752941 18.2870588,1.03529412 C18.2870588,0.464 17.8230588,0 17.2517647,0 L1.03529412,0 C0.463058824,0 0,0.464 0,1.03529412 C0,1.60752941 0.463058824,2.07058824 1.03529412,2.07058824 L1.03529412,2.07058824 Z" id="Fill-9" fill="#231815" mask="url(#mask-4)"></path>
                    </g>
                    <path d="M71.9544471,22.9194353 L69.6485647,22.9194353 L69.6485647,19.1547294 L73.2156235,19.1547294 L73.2156235,21.6488471 C73.2231529,21.9848471 73.0942118,22.3095529 72.8589176,22.5486118 C72.6226824,22.7886118 72.2998588,22.9222588 71.9638588,22.9194353 L71.9544471,22.9194353 Z M64.0015059,21.6864941 L64.0015059,19.1923765 L67.5591529,19.1923765 L67.5591529,22.9570824 L65.2438588,22.9570824 C64.9088,22.9599059 64.5869176,22.8262588 64.3525647,22.5862588 C64.1182118,22.3462588 63.9911529,22.0215529 64.0015059,21.6864941 L64.0015059,21.6864941 Z M65.2438588,13.7523765 L67.5685647,13.7523765 L67.5685647,17.0747294 L64.0015059,17.0747294 L64.0015059,15.0323765 C63.9883294,14.6954353 64.1144471,14.3688471 64.3488,14.1269647 C64.5831529,13.8850824 64.9069176,13.7495529 65.2438588,13.7523765 L65.2438588,13.7523765 Z M73.2250353,15.0323765 L73.2250353,17.1123765 L69.6485647,17.1123765 L69.6485647,13.7523765 L71.9732706,13.7523765 C72.3073882,13.7552 72.6273882,13.8916706 72.8589176,14.1335529 C73.0913882,14.3735529 73.2165647,14.6982588 73.2062118,15.0323765 L73.2250353,15.0323765 Z M75.2956235,21.6864941 L75.2956235,15.0323765 C75.2899765,13.2046118 73.8104471,11.7241412 71.9826824,11.7194353 L65.2438588,11.7194353 C63.4160941,11.7241412 61.9356235,13.2046118 61.9309176,15.0323765 L61.9309176,21.6864941 C61.9205647,22.5721412 62.2650353,23.4257882 62.8871529,24.0563765 C63.5092706,24.6879059 64.3582118,25.0436706 65.2438588,25.0465109 L71.9638588,25.0465109 C72.8532706,25.0493176 73.7059765,24.6954353 74.3318588,24.0639059 C74.9586824,23.4323765 75.3059765,22.5759059 75.2956235,21.6864941 L75.2956235,21.6864941 Z" id="Fill-11" fill="#231815"></path>
                </g>
            </g>
        </g>
    </g>
</svg>