<?xml version="1.0" encoding="UTF-8"?>
<svg width="73px" height="53px" viewBox="0 0 73 53" version="1.1" xmlns="http://www.w3.org/2000/svg" xmlns:xlink="http://www.w3.org/1999/xlink">
    <g id="登录注册" stroke="none" stroke-width="1" fill="none" fill-rule="evenodd">
        <g id="loading" transform="translate(-936.000000, -483.000000)" fill="#0063FF" fill-rule="nonzero">
            <g id="_编组_" transform="translate(936.000000, 483.000000)">
                <path d="M53.0966309,52.6019281 L48.8335705,52.6019281 C47.2839319,52.6019281 46.0277016,51.3456979 46.0277016,49.7960593 C46.0277016,48.2464207 47.2839319,46.9901905 48.8335705,46.9901905 L53.0966309,46.9901905 C59.7523734,46.9965919 65.5356117,42.4175635 67.0557099,35.9377294 C68.575808,29.4578951 65.4322111,22.7847292 59.4679684,19.8306202 C58.3764676,19.3035761 57.750044,18.1321638 57.9177646,16.9317392 L59.0339113,9.28923454 L51.5464271,12.5136584 C50.3368378,13.0402864 48.9237467,12.6531382 48.1514808,11.5835361 C45.4681408,7.83074309 41.138386,5.60391322 36.5249525,5.60391322 C31.9115189,5.60391322 27.5817641,7.83074309 24.8984241,11.5835361 C24.1261582,12.6531382 22.7130671,13.0402864 21.5034778,12.5136584 L13.9539854,9.28923454 L15.0701321,17.0402534 C15.2378527,18.2406781 14.6114292,19.4120903 13.5199284,19.9391345 C8.75908712,22.3393231 5.72071847,27.1804173 5.62939113,32.5112872 C5.58834981,36.2979129 7.07478395,39.9413531 9.75293318,42.6186158 C12.5488438,45.4431745 16.3510747,47.0432336 20.325323,47.0677006 L31.9053452,47.0677006 C36.1651839,46.8796701 39.5220227,43.3713909 39.5220227,39.1074042 C39.5220227,34.8434176 36.1651839,31.3351384 31.9053452,31.1471078 C30.3557066,31.1471078 29.0994763,29.8908776 29.0994763,28.341239 C29.0994763,26.7916004 30.3557066,25.5353701 31.9053452,25.5353701 C39.2225068,25.7827 45.0263774,31.7860637 45.0263774,39.1074042 C45.0263774,46.4287448 39.2225068,52.4321084 31.9053452,52.6794383 L20.3098209,52.6794383 C14.8222671,52.6422506 9.57667591,50.4156646 5.73790539,46.4941252 C1.99294136,42.7509592 -0.0762858993,37.6505936 0.00215140614,32.3562668 C0.0999094268,25.6668932 3.55418408,19.4748291 9.19485982,15.8776006 L7.64465604,5.02617414 C7.50009941,4.01573927 7.9156653,3.00650788 8.72979868,2.39082772 C9.53276879,1.7736209 10.6082228,1.64290274 11.5356675,2.04978289 L21.7825145,6.49886773 C25.5598077,2.35888278 30.9052182,-1.27601348e-15 36.5094504,-1.27601348e-15 C42.1136826,-1.27601348e-15 47.4590931,2.35888278 51.2363863,6.49886773 L61.374719,2.12729307 C62.3077166,1.72371313 63.3860289,1.85632643 64.1934372,2.47394547 C65.0008453,3.0915645 65.4110556,4.09758199 65.2657305,5.10368433 L63.7155267,15.8000904 C71.2186846,20.5434886 74.681677,29.6764214 72.2098405,38.202102 C69.7380038,46.7277825 61.9269019,52.5920355 53.0501247,52.5864261 L53.0966309,52.6019281 Z" id="_路径_"></path>
            </g>
        </g>
    </g>
</svg>