<?xml version="1.0" encoding="UTF-8"?>
<svg width="20px" height="20px" viewBox="0 0 20 20" version="1.1" xmlns="http://www.w3.org/2000/svg" xmlns:xlink="http://www.w3.org/1999/xlink">
    <title>wifi-outlined</title>
    <g id="页面-1" stroke="none" stroke-width="1" fill="currentColor" fill-rule="evenodd">
        <g id="icon" transform="translate(-320.000000, -268.000000)" fill="currentColor" fill-rule="nonzero">
            <g id="组-52" transform="translate(300.000000, 8.000000)">
                <g id="一级导航备份" transform="translate(0.000000, 240.000000)">
                    <g id="wifi-outlined" transform="translate(20.000000, 20.000000)">
                        <rect id="矩形" opacity="0" x="0" y="0" width="20" height="20"></rect>
                        <path d="M14.1210937,12.1191406 C13.0234375,11.1640625 11.5898437,10.5859375 10.0195312,10.5859375 C8.44921875,10.5859375 7.015625,11.1640625 5.91601562,12.1210938 C5.85351562,12.1757812 5.84570312,12.2734375 5.90039062,12.3398438 L6.60351562,13.1777344 C6.66015625,13.2441406 6.75976562,13.2519531 6.82617187,13.1953125 C7.67773437,12.4453125 8.79492187,11.9921875 10.0195312,11.9921875 C11.2441406,11.9921875 12.3613281,12.4453125 13.2128906,13.1933594 C13.2792969,13.25 13.3789062,13.2421875 13.4355469,13.1757812 L14.1386719,12.3378906 C14.1933594,12.2734375 14.1855469,12.1757813 14.1210937,12.1191406 Z M16.4140625,9.3828125 C14.6816406,7.93945312 12.453125,7.0703125 10.0195312,7.0703125 C7.5859375,7.0703125 5.35742187,7.93945312 3.62304687,9.3828125 C3.55664062,9.4375 3.54882812,9.53710937 3.60351562,9.60351562 L4.30664062,10.4414062 C4.36132812,10.5078125 4.4609375,10.515625 4.52539062,10.4609375 C6.015625,9.22265625 7.93164062,8.4765625 10.0195312,8.4765625 C12.1074219,8.4765625 14.0234375,9.22265625 15.5117187,10.4609375 C15.578125,10.515625 15.6757812,10.5078125 15.7304687,10.4414062 L16.4335937,9.60351562 C16.4882812,9.53710938 16.4804687,9.4375 16.4140625,9.3828125 L16.4140625,9.3828125 Z M18.6933594,6.66796875 C16.3222656,4.72265625 13.2871094,3.5546875 9.98046875,3.5546875 C6.6953125,3.5546875 3.6796875,4.70703125 1.31445312,6.62890625 C1.24609375,6.68359375 1.23632812,6.78320312 1.29296875,6.8515625 L1.99609375,7.68945312 C2.05078125,7.75390625 2.1484375,7.76367187 2.21289062,7.7109375 C4.3359375,5.99023438 7.03710937,4.9609375 9.98046875,4.9609375 C12.9453125,4.9609375 15.6640625,6.00585938 17.7929687,7.74804688 C17.859375,7.80273438 17.9570312,7.79296875 18.0117187,7.7265625 L18.7148437,6.88867188 C18.7714844,6.82226562 18.7617187,6.72265625 18.6933594,6.66796875 Z M8.75,15.1953125 C8.75,15.8856684 9.30964406,16.4453125 10,16.4453125 C10.6903559,16.4453125 11.25,15.8856684 11.25,15.1953125 C11.25,14.5049566 10.6903559,13.9453125 10,13.9453125 C9.30964406,13.9453125 8.75,14.5049566 8.75,15.1953125 Z" id="形状"></path>
                    </g>
                </g>
            </g>
        </g>
    </g>
</svg>
