<?xml version="1.0" encoding="UTF-8"?>
<svg width="20px" height="20px" viewBox="0 0 20 20" version="1.1" xmlns="http://www.w3.org/2000/svg" xmlns:xlink="http://www.w3.org/1999/xlink">
    <title>域名管理</title>
    <g id="汇总" stroke="none" stroke-width="1">
        <g id="域名管理">
            <rect id="矩形" opacity="0" x="0" y="0" width="20" height="20"></rect>
            <path d="M17.1875,2.1875 L2.8125,2.1875 C2.46679688,2.1875 2.1875,2.46679688 2.1875,2.8125 L2.1875,17.1875 C2.1875,17.5332031 2.46679688,17.8125 2.8125,17.8125 L17.1875,17.8125 C17.5332031,17.8125 17.8125,17.5332031 17.8125,17.1875 L17.8125,2.8125 C17.8125,2.46679688 17.5332031,2.1875 17.1875,2.1875 Z M16.40625,16.40625 L3.59375,16.40625 L3.59375,3.59375 L16.40625,3.59375 L16.40625,16.40625 Z M9.609375,7.8125 L13.203125,7.8125 C13.2890625,7.8125 13.359375,7.7421875 13.359375,7.65625 L13.359375,6.71875 C13.359375,6.6328125 13.2890625,6.5625 13.203125,6.5625 L9.609375,6.5625 C9.5234375,6.5625 9.453125,6.6328125 9.453125,6.71875 L9.453125,7.65625 C9.453125,7.7421875 9.5234375,7.8125 9.609375,7.8125 Z M9.609375,10.625 L13.203125,10.625 C13.2890625,10.625 13.359375,10.5546875 13.359375,10.46875 L13.359375,9.53125 C13.359375,9.4453125 13.2890625,9.375 13.203125,9.375 L9.609375,9.375 C9.5234375,9.375 9.453125,9.4453125 9.453125,9.53125 L9.453125,10.46875 C9.453125,10.5546875 9.5234375,10.625 9.609375,10.625 Z M9.609375,13.4375 L13.203125,13.4375 C13.2890625,13.4375 13.359375,13.3671875 13.359375,13.28125 L13.359375,12.34375 C13.359375,12.2578125 13.2890625,12.1875 13.203125,12.1875 L9.609375,12.1875 C9.5234375,12.1875 9.453125,12.2578125 9.453125,12.34375 L9.453125,13.28125 C9.453125,13.3671875 9.5234375,13.4375 9.609375,13.4375 Z M7.421875,13.59375 C6.99023438,13.59375 6.640625,13.2441406 6.640625,12.8125 C6.640625,12.3808594 6.99023438,12.03125 7.421875,12.03125 C7.85351562,12.03125 8.203125,12.3808594 8.203125,12.8125 C8.203125,13.2441406 7.85351562,13.59375 7.421875,13.59375 Z M7.421875,10.78125 C6.99023438,10.78125 6.640625,10.4316406 6.640625,10 C6.640625,9.56835938 6.99023438,9.21875 7.421875,9.21875 C7.85351562,9.21875 8.203125,9.56835938 8.203125,10 C8.203125,10.4316406 7.85351562,10.78125 7.421875,10.78125 Z M7.421875,7.96875 C6.99023438,7.96875 6.640625,7.61914062 6.640625,7.1875 C6.640625,6.75585938 6.99023438,6.40625 7.421875,6.40625 C7.85351562,6.40625 8.203125,6.75585938 8.203125,7.1875 C8.203125,7.61914062 7.85351562,7.96875 7.421875,7.96875 Z" id="形状"></path>
        </g>
    </g>
</svg>