<svg width="20" height="20" viewBox="0 0 20 20" fill="none" xmlns="http://www.w3.org/2000/svg">
<rect opacity="0.01" width="20" height="20" fill="black"/>
<path fill-rule="evenodd" clip-rule="evenodd" d="M2.51999 2.18018H8.97999C9.16699 2.18018 9.31999 2.33318 9.31999 2.52018V8.98018C9.31999 9.16718 9.16699 9.32018 8.97999 9.32018H2.51999C2.33299 9.32018 2.17999 9.16718 2.17999 8.98018V2.52018C2.17999 2.33318 2.33299 2.18018 2.51999 2.18018ZM3.62499 7.87518H7.87499V3.62518H3.62499V7.87518ZM17.48 2.18018H11.02C10.833 2.18018 10.68 2.33318 10.68 2.52018V8.98018C10.68 9.16718 10.833 9.32018 11.02 9.32018H17.48C17.667 9.32018 17.82 9.16718 17.82 8.98018V2.52018C17.82 2.33318 17.667 2.18018 17.48 2.18018ZM12.125 7.87518H16.375V3.62518H12.125V7.87518ZM8.97999 10.6802H2.51999C2.33299 10.6802 2.17999 10.8332 2.17999 11.0202V17.4802C2.17999 17.6672 2.33299 17.8202 2.51999 17.8202H8.97999C9.16699 17.8202 9.31999 17.6672 9.31999 17.4802V11.0202C9.31999 10.8332 9.16699 10.6802 8.97999 10.6802ZM3.62499 16.3752H7.87499V12.1252H3.62499V16.3752ZM17.48 10.6802H11.02C10.833 10.6802 10.68 10.8332 10.68 11.0202V17.4802C10.68 17.6672 10.833 17.8202 11.02 17.8202H17.48C17.667 17.8202 17.82 17.6672 17.82 17.4802V11.0202C17.82 10.8332 17.667 10.6802 17.48 10.6802ZM12.125 16.3752H16.375V12.1252H12.125V16.3752Z" fill="currentColor" />
</svg>
