<?xml version="1.0" encoding="UTF-8"?>
<svg width="20px" height="20px" viewBox="0 0 20 20" version="1.1" xmlns="http://www.w3.org/2000/svg" xmlns:xlink="http://www.w3.org/1999/xlink">
    <title>code library</title>
    <g id="页面-1" stroke="none" stroke-width="1" fill="currentColor" fill-rule="evenodd">
        <g id="icon" transform="translate(-20.000000, -28.000000)" fill="currentColor" fill-rule="nonzero">
            <g id="侧边栏/实例" transform="translate(0.000000, 8.000000)">
                <g id="code-library" transform="translate(20.000000, 20.000000)">
                    <rect id="矩形" opacity="0" x="0" y="0" width="20" height="20"></rect>
                    <path d="M10.078125,13.1445312 C10.078125,13.2304688 10.1445312,13.3007812 10.2246094,13.3007812 L13.8378906,13.3007812 C13.9179688,13.3007812 13.984375,13.2304688 13.984375,13.1445312 L13.984375,12.2070312 C13.984375,12.1210938 13.9179688,12.0507812 13.8378906,12.0507812 L10.2246094,12.0507812 C10.1445312,12.0507812 10.078125,12.1210938 10.078125,12.2070312 L10.078125,13.1445312 Z M6.27148438,13.2636719 L10.0214844,10.1191406 C10.0957031,10.0566406 10.0957031,9.94140625 10.0214844,9.87890625 L6.27148438,6.73632812 C6.16992188,6.65039062 6.015625,6.72265625 6.015625,6.85546875 L6.015625,8.08007812 C6.015625,8.12695312 6.03515625,8.16992188 6.07226562,8.19921875 L8.21679688,10 L6.07226562,11.8007813 C6.03710938,11.8300781 6.015625,11.875 6.015625,11.9199219 L6.015625,13.1445312 C6.015625,13.2773438 6.16992188,13.3496094 6.27148438,13.2636719 Z M17.1875,2.1875 L2.8125,2.1875 C2.46679688,2.1875 2.1875,2.46679688 2.1875,2.8125 L2.1875,17.1875 C2.1875,17.5332031 2.46679688,17.8125 2.8125,17.8125 L17.1875,17.8125 C17.5332031,17.8125 17.8125,17.5332031 17.8125,17.1875 L17.8125,2.8125 C17.8125,2.46679688 17.5332031,2.1875 17.1875,2.1875 Z M16.40625,16.40625 L3.59375,16.40625 L3.59375,3.59375 L16.40625,3.59375 L16.40625,16.40625 Z" id="形状"></path>
                </g>
            </g>
        </g>
    </g>
</svg>
