<?xml version="1.0" encoding="UTF-8"?>
<svg width="20px" height="20px" viewBox="0 0 20 20" version="1.1" xmlns="http://www.w3.org/2000/svg" xmlns:xlink="http://www.w3.org/1999/xlink">
    <title>监控任务</title>
    <g id="汇总" stroke="none" stroke-width="1">
        <g id="监控任务">
            <rect id="矩形" opacity="0" x="0" y="0" width="20" height="20"></rect>
            <path d="M18.0625,7.53125 C17.6210938,6.48828125 16.9902344,5.55273438 16.1875,4.75 C15.3847656,3.94726563 14.4492187,3.31640625 13.40625,2.875 C12.3261719,2.41796875 11.1816406,2.1875 10,2.1875 C8.81835938,2.1875 7.67382812,2.41796875 6.59375,2.875 C5.55078125,3.31640625 4.61523438,3.94726562 3.8125,4.75 C3.00976563,5.55273438 2.37890625,6.48828125 1.9375,7.53125 C1.48046875,8.61132812 1.25,9.75585938 1.25,10.9375 C1.25,13.5292969 2.38867188,15.9707031 4.37304688,17.6386719 L4.40625,17.6660156 C4.51953125,17.7597656 4.66210938,17.8125 4.80859375,17.8125 L15.1933594,17.8125 C15.3398438,17.8125 15.4824219,17.7597656 15.5957031,17.6660156 L15.6289063,17.6386719 C17.6113281,15.9707031 18.75,13.5292969 18.75,10.9375 C18.75,9.75585938 18.5175781,8.61132812 18.0625,7.53125 Z M14.8710938,16.328125 L5.12890625,16.328125 C3.60351562,14.9511719 2.734375,13 2.734375,10.9375 C2.734375,8.99609375 3.49023438,7.171875 4.86328125,5.80078125 C6.23632812,4.42773438 8.06054688,3.671875 10,3.671875 C11.9414062,3.671875 13.765625,4.42773438 15.1367188,5.80078125 C16.5097656,7.17382812 17.265625,8.99804688 17.265625,10.9375 C17.265625,13 16.3964844,14.9511719 14.8710938,16.328125 Z M12.1777344,8.23242188 C12.1171875,8.171875 12.0175781,8.171875 11.9570312,8.23242188 L10.3066406,9.8828125 C9.94140625,9.78515625 9.53710938,9.87890625 9.25,10.1660156 C8.82226563,10.59375 8.82226563,11.2851562 9.25,11.7128906 C9.67773438,12.140625 10.3691406,12.140625 10.796875,11.7128906 C11.0839844,11.4257812 11.1777344,11.0214844 11.0800781,10.65625 L12.7304688,9.00585938 C12.7910156,8.9453125 12.7910156,8.84570313 12.7304688,8.78515625 L12.1777344,8.23242188 L12.1777344,8.23242188 Z M9.5703125,6.25 L10.4296875,6.25 C10.515625,6.25 10.5859375,6.1796875 10.5859375,6.09375 L10.5859375,4.53125 C10.5859375,4.4453125 10.515625,4.375 10.4296875,4.375 L9.5703125,4.375 C9.484375,4.375 9.4140625,4.4453125 9.4140625,4.53125 L9.4140625,6.09375 C9.4140625,6.1796875 9.484375,6.25 9.5703125,6.25 Z M14.6484375,10.5078125 L14.6484375,11.3671875 C14.6484375,11.453125 14.71875,11.5234375 14.8046875,11.5234375 L16.3671875,11.5234375 C16.453125,11.5234375 16.5234375,11.453125 16.5234375,11.3671875 L16.5234375,10.5078125 C16.5234375,10.421875 16.453125,10.3515625 16.3671875,10.3515625 L14.8046875,10.3515625 C14.71875,10.3515625 14.6484375,10.421875 14.6484375,10.5078125 Z M14.8964844,6.65625 L14.2890625,6.04882812 C14.2285156,5.98828125 14.1289062,5.98828125 14.0683594,6.04882812 L12.9628906,7.15429688 C12.9023438,7.21484375 12.9023438,7.31445312 12.9628906,7.375 L13.5703125,7.98242188 C13.6308594,8.04296875 13.7304688,8.04296875 13.7910156,7.98242188 L14.8964844,6.87695312 C14.9570313,6.81640625 14.9570313,6.71679688 14.8964844,6.65625 Z M5.93945312,6.04882812 C5.87890625,5.98828125 5.77929688,5.98828125 5.71875,6.04882812 L5.11132812,6.65625 C5.05078125,6.71679688 5.05078125,6.81640625 5.11132812,6.87695312 L6.21679688,7.98242188 C6.27734375,8.04296875 6.37695312,8.04296875 6.4375,7.98242188 L7.04492188,7.375 C7.10546875,7.31445312 7.10546875,7.21484375 7.04492188,7.15429688 L5.93945312,6.04882812 Z M5.1171875,10.3515625 L3.5546875,10.3515625 C3.46875,10.3515625 3.3984375,10.421875 3.3984375,10.5078125 L3.3984375,11.3671875 C3.3984375,11.453125 3.46875,11.5234375 3.5546875,11.5234375 L5.1171875,11.5234375 C5.203125,11.5234375 5.2734375,11.453125 5.2734375,11.3671875 L5.2734375,10.5078125 C5.2734375,10.421875 5.203125,10.3515625 5.1171875,10.3515625 Z" id="形状"></path>
        </g>
    </g>
</svg>