<?xml version="1.0" encoding="UTF-8"?>
<svg width="20px" height="20px" viewBox="0 0 20 20" version="1.1" xmlns="http://www.w3.org/2000/svg" xmlns:xlink="http://www.w3.org/1999/xlink">
    <title>批量操作</title>
    <g id="汇总" stroke="none" stroke-width="1">
        <g id="批量操作">
            <rect id="矩形" opacity="0" x="0" y="0" width="20" height="20"></rect>
            <path d="M9.296875,7.79492188 C9.296875,7.71875 9.23632812,7.65625 9.16015625,7.65625 L8.33984375,7.65625 C8.265625,7.65625 8.203125,7.71875 8.203125,7.79492188 L8.203125,9.453125 L6.55273438,9.453125 C6.47265625,9.453125 6.40625,9.51367188 6.40625,9.58984375 L6.40625,10.4101562 C6.40625,10.484375 6.47265625,10.546875 6.55273438,10.546875 L8.203125,10.546875 L8.203125,12.2050781 C8.203125,12.28125 8.265625,12.34375 8.33984375,12.34375 L9.16015625,12.34375 C9.23632812,12.34375 9.296875,12.28125 9.296875,12.2050781 L9.296875,10.546875 L10.9472656,10.546875 C11.0273438,10.546875 11.09375,10.484375 11.09375,10.4101562 L11.09375,9.58984375 C11.09375,9.51367188 11.0273438,9.453125 10.9472656,9.453125 L9.296875,9.453125 L9.296875,7.79492188 Z M10.9472656,13.75 L6.55273438,13.75 C6.47265625,13.75 6.40625,13.8125 6.40625,13.8867188 L6.40625,14.7070312 C6.40625,14.78125 6.47265625,14.84375 6.55273438,14.84375 L10.9472656,14.84375 C11.0273438,14.84375 11.09375,14.78125 11.09375,14.7070312 L11.09375,13.8867188 C11.09375,13.8125 11.0273438,13.75 10.9472656,13.75 Z M10.8085938,3.93359375 C10.6914062,3.81640625 10.5332031,3.75 10.3671875,3.75 L3.75,3.75 C3.40429688,3.75 3.125,4.02929688 3.125,4.375 L3.125,18.125 C3.125,18.4707031 3.40429688,18.75 3.75,18.75 L13.75,18.75 C14.0957031,18.75 14.375,18.4707031 14.375,18.125 L14.375,7.75976563 C14.375,7.59375 14.3085938,7.43554688 14.1914062,7.31835938 L10.8085938,3.93359375 Z M12.96875,17.34375 L4.53125,17.34375 L4.53125,5.15625 L10.0429688,5.15625 L12.96875,8.08203125 L12.96875,17.34375 Z M16.6835938,5.98828125 L11.9394531,1.42382812 C11.8222656,1.3125 11.6679688,1.25 11.5058594,1.25 L5.78125,1.25 C5.6953125,1.25 5.625,1.3203125 5.625,1.40625 L5.625,2.5 C5.625,2.5859375 5.6953125,2.65625 5.78125,2.65625 L11.1914062,2.65625 L15.46875,6.76953125 L15.46875,16.09375 C15.46875,16.1796875 15.5390625,16.25 15.625,16.25 L16.71875,16.25 C16.8046875,16.25 16.875,16.1796875 16.875,16.09375 L16.875,6.4375 C16.875,6.26757812 16.8066406,6.10546875 16.6835938,5.98828125 Z" id="形状"></path>
        </g>
    </g>
</svg>