<?xml version="1.0" encoding="UTF-8"?>
<svg width="20px" height="20px" viewBox="0 0 20 20" version="1.1" xmlns="http://www.w3.org/2000/svg" xmlns:xlink="http://www.w3.org/1999/xlink">
    <title>切片</title>
    <g id="页面-1" stroke="none" stroke-width="1" fill="none">
        <g id="icon" transform="translate(-20.000000, -380.000000)">
            <g id="侧边栏/密钥" transform="translate(0.000000, 60.000000)" >
                <g id="一级导航备份-4" transform="translate(0.000000, 300.000000)">
                    <g id="流量包" transform="translate(20.000000, 20.000000)">
                        <rect id="矩形" x="0" y="0" width="20" height="20"></rect>
                        <path d="M13.6613272,2 C16.05751,2 18,3.94248996 18,6.33867277 L18,11.8894351 C18,12.2635227 17.6967421,12.5667806 17.3226545,12.5667806 C16.9485669,12.5667806 16.6453089,12.2635227 16.6453089,11.8894351 L16.6453089,6.33867277 C16.6453089,4.69066519 15.3093348,3.35469108 13.6613272,3.35469108 L6.33867277,3.35469108 C4.69066519,3.35469108 3.35469108,4.69066519 3.35469108,6.33867277 L3.35469108,13.6613272 C3.35469108,15.3093348 4.69066519,16.6453089 6.33867277,16.6453089 L11.9157824,16.6453089 C12.28987,16.6453089 12.5931279,16.9485669 12.5931279,17.3226545 C12.5931279,17.6967421 12.28987,18 11.9157824,18 L6.33867277,18 C3.94248996,18 2,16.05751 2,13.6613272 L2,6.33867277 C2,3.94248996 3.94248996,2 6.33867277,2 L13.6613272,2 Z M17.2907389,13.5346304 L17.3825448,13.542225 C17.752448,13.5980206 18.0070825,13.9431177 17.9512869,14.3130209 C17.6933065,16.023331 16.434248,17.418679 14.7686486,17.8572448 C14.4068914,17.9524984 14.0364109,17.7364545 13.9411573,17.3746973 C13.8459037,17.01294 14.0619476,16.6424596 14.4237048,16.547206 C15.56766,16.2459933 16.4346336,15.2851722 16.6117489,14.1109671 C16.6582452,13.8027144 16.9056454,13.5745094 17.2008849,13.5392928 L17.2907389,13.5346304 Z M11.5303308,13.2761471 L11.4620827,13.323993 L11.481,13.311 C11.4556417,13.3282979 11.4361955,13.3394716 11.416395,13.3495902 C11.4004266,13.3577826 11.383394,13.3656331 11.3659982,13.3727805 C11.3514029,13.3787646 11.3370532,13.3840827 11.3225884,13.3888926 C11.3057752,13.3944901 11.2884091,13.3995103 11.2707714,13.4038397 C11.2551826,13.407676 11.2394291,13.4109515 11.2236117,13.4136583 C11.2080705,13.4162871 11.1927398,13.4183639 11.1772554,13.4199192 C11.1578611,13.4219051 11.1383572,13.423021 11.1188616,13.4232983 L11.1087461,13.423341 C11.0503956,13.423341 10.9937683,13.4159627 10.9397465,13.4020882 L10.9278334,13.3987842 C10.8694435,13.3827708 10.8141967,13.358994 10.763257,13.3287279 C10.7451061,13.3180698 10.7272738,13.3063405 10.7099428,13.2937063 C10.6920523,13.2805072 10.6746577,13.266459 10.6580019,13.2516 L10.597542,13.1903838 L10.5865226,13.1773722 L10.5785914,13.1675831 L10.535,13.105 L10.5091379,13.0613322 C10.4990634,13.0422479 10.4898341,13.0224988 10.4815561,13.0022598 C10.475782,12.988137 10.470569,12.9740444 10.4658459,12.9598407 L10.4512324,12.9093618 C10.4471341,12.8928307 10.4437287,12.8764619 10.4409372,12.8600248 L10.4340696,12.8065398 C10.4327357,12.7918375 10.4319284,12.7774808 10.4315761,12.7631248 L10.4314005,7.25400458 C10.4314005,6.87991697 10.7346585,6.57665904 11.1087461,6.57665904 C11.4828337,6.57665904 11.7860916,6.87991697 11.7860916,7.25400458 L11.7867244,11.3423672 L12.747765,10.577204 C13.0405597,10.3443676 13.4666679,10.3929734 13.6995043,10.6857681 C13.9323408,10.9785627 13.883735,11.404671 13.5909403,11.6375074 L11.5303308,13.2761471 L11.50636,13.2944165 L11.484,13.309 L11.5303308,13.2761471 Z M8.09165664,6.65043596 C8.10762499,6.64224361 8.12465761,6.63439308 8.1420534,6.62724569 C8.15664871,6.62126157 8.17099844,6.61594354 8.18546326,6.61113359 C8.20227638,6.60553609 8.21964256,6.60051589 8.23728018,6.59618651 C8.25286899,6.59235021 8.26862254,6.58907466 8.28443992,6.58636795 C8.29998117,6.58373914 8.3153118,6.58166233 8.33079624,6.58010703 C8.35019054,6.57812108 8.36969446,6.57700523 8.38918999,6.57672787 L8.39930555,6.57668525 C8.45765606,6.57668525 8.51428328,6.58406353 8.56830514,6.59793801 L8.58021822,6.601242 C8.63860809,6.61725541 8.69385496,6.6410322 8.74479464,6.67129834 C8.76294553,6.68195645 8.78077784,6.69368573 8.79810886,6.70631994 C8.81599932,6.71951898 8.83339397,6.73356725 8.85004973,6.74842624 L8.91050965,6.80964237 L8.92152906,6.82265406 L8.92946021,6.83244311 L8.972,6.894 L8.99891369,6.93869402 C9.00898825,6.95777828 9.01821749,6.97752738 9.02649557,6.99776639 C9.0322696,7.01188917 9.03748262,7.02598186 9.04220572,7.04018553 L9.0568192,7.0906644 C9.06091748,7.10719553 9.06432297,7.12356431 9.06711443,7.14000141 C9.07005198,7.15740209 9.07237476,7.17534142 9.07398204,7.19348637 C9.0753159,7.20818873 9.07612324,7.22254545 9.07647555,7.23690138 L9.07665109,12.7460216 C9.07665109,13.1201092 8.77339316,13.4233672 8.39930555,13.4233672 C8.02521794,13.4233672 7.72196001,13.1201092 7.72196001,12.7460216 L7.72132723,8.65765904 L6.76028666,9.42282217 C6.46749197,9.65565861 6.04138375,9.60705285 5.8085473,9.31425816 C5.57571085,9.02146347 5.62431662,8.59535524 5.91711131,8.3625188 L7.97772085,6.72387911 L8.00169163,6.70560971 L8.023,6.69 L7.97772085,6.72387911 L8.04596891,6.67603317 L8.026,6.688 C8.05240993,6.67172835 8.07185609,6.66055461 8.09165664,6.65043596 Z" id="形状结合" fill="currentColor"></path>
                    </g>
                </g>
            </g>
        </g>
    </g>
</svg>