<svg xmlns="http://www.w3.org/2000/svg" xmlns:xlink="http://www.w3.org/1999/xlink" fill="currentColor" version="1.1" width="24" height="24" viewBox="0 0 24 24"><defs><filter id="master_svg0_63_1396" filterUnits="objectBoundingBox" color-interpolation-filters="sRGB" x="-2" y="-1" width="20" height="17.5"><feFlood flood-opacity="0" result="BackgroundImageFix"/><feColorMatrix in="SourceAlpha" type="matrix" values="0 0 0 0 0 0 0 0 0 0 0 0 0 0 0 0 0 0 127 0"/><feOffset dy="1" dx="0"/><feGaussianBlur stdDeviation="0.5"/><feColorMatrix type="matrix" values="0 0 0 0 0 0 0 0 0 0 0 0 0 0 0 0 0 0 0.1599999964237213 0"/><feBlend mode="normal" in2="BackgroundImageFix" result="effect1_dropShadow"/><feBlend mode="normal" in="SourceGraphic" in2="effect1_dropShadow" result="shape"/></filter></defs><g><g style="opacity:0;"><rect x="0" y="0" width="24" height="24" rx="0" fill="currentColor" fill-opacity="1"/></g><g filter="url(#master_svg0_63_1396)"><g><path d="M4,5.75L20,5.75Q20.0739,5.75,20.1463,5.735589Q20.2188,5.721178,20.287,5.69291Q20.3553,5.664641,20.4167,5.623602Q20.4781,5.582563,20.5303,5.53033Q20.5826,5.478097,20.6236,5.416678Q20.6646,5.355258,20.6929,5.287013Q20.7212,5.218767,20.7356,5.146318Q20.75,5.0738685,20.75,5Q20.75,4.9261315,20.7356,4.853682Q20.7212,4.781233,20.6929,4.712987Q20.6646,4.644742,20.6236,4.583322Q20.5826,4.521903,20.5303,4.46967Q20.4781,4.417437,20.4167,4.376398Q20.3553,4.335359,20.287,4.30709Q20.2188,4.278822,20.1463,4.264411Q20.0739,4.25,20,4.25L4,4.25Q3.9261315,4.25,3.853682,4.264411Q3.781233,4.278822,3.712987,4.30709Q3.644742,4.335359,3.583322,4.376398Q3.521903,4.417437,3.46967,4.46967Q3.417437,4.521903,3.376398,4.583322Q3.335359,4.644742,3.30709,4.712987Q3.278822,4.781233,3.264411,4.853682Q3.25,4.9261315,3.25,5Q3.25,5.0738685,3.264411,5.146318Q3.278822,5.218767,3.30709,5.287013Q3.335359,5.355258,3.376398,5.416678Q3.417437,5.478097,3.46967,5.53033Q3.521903,5.582563,3.583322,5.623602Q3.644742,5.664641,3.712987,5.69291Q3.781233,5.721178,3.853682,5.735589Q3.9261315,5.75,4,5.75Z" fill-rule="evenodd" fill="currentColor" fill-opacity="1"/></g><g><path d="M12,10.25L20,10.25Q20.07387,10.25,20.14632,10.235589000000001Q20.21877,10.221178,20.287010000000002,10.19291Q20.35526,10.164641,20.41668,10.123602Q20.478099999999998,10.082563,20.53033,10.03033Q20.58256,9.978097,20.6236,9.916678Q20.66464,9.855258,20.692909999999998,9.787013Q20.72118,9.718767,20.735590000000002,9.646318Q20.75,9.5738685,20.75,9.5Q20.75,9.4261315,20.735590000000002,9.353682Q20.72118,9.281233,20.692909999999998,9.212987Q20.66464,9.144742,20.6236,9.083322Q20.58256,9.021903,20.53033,8.96967Q20.478099999999998,8.917437,20.41668,8.876398Q20.35526,8.835359,20.287010000000002,8.80709Q20.21877,8.778822,20.14632,8.764410999999999Q20.07387,8.75,20,8.75L12,8.75Q11.9261315,8.75,11.853682,8.764410999999999Q11.781233,8.778822,11.712987,8.80709Q11.644742,8.835359,11.583322,8.876398Q11.521903,8.917437,11.46967,8.96967Q11.417437,9.021903,11.376398,9.083322Q11.335359,9.144742,11.30709,9.212987Q11.278822,9.281233,11.264410999999999,9.353682Q11.25,9.4261315,11.25,9.5Q11.25,9.5738685,11.264410999999999,9.646318Q11.278822,9.718767,11.30709,9.787013Q11.335359,9.855258,11.376398,9.916678Q11.417437,9.978097,11.46967,10.03033Q11.521903,10.082563,11.583322,10.123602Q11.644742,10.164641,11.712987,10.19291Q11.781233,10.221178,11.853682,10.235589000000001Q11.9261315,10.25,12,10.25Z" fill-rule="evenodd" fill="currentColor" fill-opacity="1"/></g><g><path d="M12,14.75L20,14.75Q20.07387,14.75,20.14632,14.735589000000001Q20.21877,14.721178,20.287010000000002,14.69291Q20.35526,14.664641,20.41668,14.623602Q20.478099999999998,14.582563,20.53033,14.53033Q20.58256,14.478097,20.6236,14.416678Q20.66464,14.355258,20.692909999999998,14.287013Q20.72118,14.218767,20.735590000000002,14.146318Q20.75,14.0738685,20.75,14Q20.75,13.9261315,20.735590000000002,13.853682Q20.72118,13.781233,20.692909999999998,13.712987Q20.66464,13.644742,20.6236,13.583322Q20.58256,13.521903,20.53033,13.46967Q20.478099999999998,13.417437,20.41668,13.376398Q20.35526,13.335359,20.287010000000002,13.30709Q20.21877,13.278822,20.14632,13.264410999999999Q20.07387,13.25,20,13.25L12,13.25Q11.9261315,13.25,11.853682,13.264410999999999Q11.781233,13.278822,11.712987,13.30709Q11.644742,13.335359,11.583322,13.376398Q11.521903,13.417437,11.46967,13.46967Q11.417437,13.521903,11.376398,13.583322Q11.335359,13.644742,11.30709,13.712987Q11.278822,13.781233,11.264410999999999,13.853682Q11.25,13.9261315,11.25,14Q11.25,14.0738685,11.264410999999999,14.146318Q11.278822,14.218767,11.30709,14.287013Q11.335359,14.355258,11.376398,14.416678Q11.417437,14.478097,11.46967,14.53033Q11.521903,14.582563,11.583322,14.623602Q11.644742,14.664641,11.712987,14.69291Q11.781233,14.721178,11.853682,14.735589000000001Q11.9261315,14.75,12,14.75Z" fill-rule="evenodd" fill="currentColor" fill-opacity="1"/></g><g><path d="M4,19.25L20,19.25Q20.0739,19.25,20.1463,19.235589Q20.2188,19.221178,20.287,19.19291Q20.3553,19.164641,20.4167,19.123601999999998Q20.4781,19.082563,20.5303,19.03033Q20.5826,18.978096999999998,20.6236,18.916678Q20.6646,18.855258,20.6929,18.787013Q20.7212,18.718767,20.7356,18.646318Q20.75,18.5738685,20.75,18.5Q20.75,18.4261315,20.7356,18.353682Q20.7212,18.281233,20.6929,18.212987Q20.6646,18.144742,20.6236,18.083322Q20.5826,18.021903000000002,20.5303,17.96967Q20.4781,17.917437,20.4167,17.876398000000002Q20.3553,17.835359,20.287,17.80709Q20.2188,17.778822,20.1463,17.764411Q20.0739,17.75,20,17.75L4,17.75Q3.9261315,17.75,3.853682,17.764411Q3.781233,17.778822,3.712987,17.80709Q3.644742,17.835359,3.583322,17.876398000000002Q3.521903,17.917437,3.46967,17.96967Q3.417437,18.021903000000002,3.376398,18.083322Q3.335359,18.144742,3.30709,18.212987Q3.278822,18.281233,3.264411,18.353682Q3.25,18.4261315,3.25,18.5Q3.25,18.5738685,3.264411,18.646318Q3.278822,18.718767,3.30709,18.787013Q3.335359,18.855258,3.376398,18.916678Q3.417437,18.978096999999998,3.46967,19.03033Q3.521903,19.082563,3.583322,19.123601999999998Q3.644742,19.164641,3.712987,19.19291Q3.781233,19.221178,3.853682,19.235589Q3.9261315,19.25,4,19.25Z" fill-rule="evenodd" fill="currentColor" fill-opacity="1"/></g><g><path d="M3.25,9.25L3.25,14.25Q3.25,14.4651,3.364001,14.6475Q3.403152,14.710139999999999,3.45377,14.76394Q3.5043889999999998,14.81774,3.56453,14.86063Q3.624672,14.90352,3.692025,14.93385Q3.759379,14.964179999999999,3.831355,14.980789999999999Q3.9033323,14.997399999999999,3.9771666,14.999649999999999Q4.0510009,15.0019,4.123855,14.9897Q4.19671,14.9775,4.265784,14.951329999999999Q4.334859,14.92515,4.397499,14.886L8.3975,12.386Q8.544270000000001,12.294270000000001,8.636,12.1475Q8.67515,12.084859999999999,8.701329999999999,12.01578Q8.7275,11.94671,8.7397,11.873850000000001Q8.7519,11.801,8.749649999999999,11.727170000000001Q8.747399999999999,11.65333,8.730789999999999,11.58136Q8.714179999999999,11.50938,8.68385,11.44202Q8.65352,11.37467,8.61063,11.31453Q8.56774,11.25439,8.51394,11.20377Q8.460139999999999,11.15315,8.3975,11.114L4.397499,8.614001Q4.215097,8.5,4,8.5Q3.9261315,8.5,3.853682,8.514410999999999Q3.781233,8.528822,3.712987,8.55709Q3.644742,8.585359,3.583322,8.626398Q3.521903,8.667437,3.46967,8.71967Q3.417437,8.771903,3.376398,8.833322Q3.335359,8.894742,3.30709,8.962987Q3.278822,9.031233,3.264411,9.103682Q3.25,9.1761315,3.25,9.25ZM4.75,12.89681L6.5849,11.75L4.75,10.60319L4.75,12.89681Z" fill-rule="evenodd" fill="currentColor" fill-opacity="1"/></g></g></g></svg>