<?xml version="1.0" encoding="UTF-8"?>
<svg width="20px" height="20px" viewBox="0 0 20 20" version="1.1" xmlns="http://www.w3.org/2000/svg" xmlns:xlink="http://www.w3.org/1999/xlink">
    <title>save-outlined</title>
    <g id="页面-1" stroke="none" stroke-width="1" fill="currentColor" fill-rule="evenodd">
        <g id="icon" transform="translate(-320.000000, -148.000000)" fill="currentColor" fill-rule="nonzero">
            <g id="组-52" transform="translate(300.000000, 8.000000)">
                <g id="一级导航-1备份-2" transform="translate(0.000000, 120.000000)">
                    <g id="save-outlined" transform="translate(20.000000, 20.000000)">
                        <rect id="矩形" opacity="0" x="0" y="0" width="20" height="20"></rect>
                        <path d="M17.4472656,5.72851562 L14.2714844,2.55273438 C14.125,2.40625 13.9453125,2.29882812 13.75,2.24023438 L13.75,2.1875 L2.8125,2.1875 C2.46679688,2.1875 2.1875,2.46679688 2.1875,2.8125 L2.1875,17.1875 C2.1875,17.5332031 2.46679688,17.8125 2.8125,17.8125 L17.1875,17.8125 C17.5332031,17.8125 17.8125,17.5332031 17.8125,17.1875 L17.8125,6.61132812 C17.8125,6.27929688 17.6816406,5.96289062 17.4472656,5.72851562 Z M7.5,3.59375 L12.5,3.59375 L12.5,5.625 L7.5,5.625 L7.5,3.59375 Z M16.40625,16.40625 L3.59375,16.40625 L3.59375,3.59375 L6.25,3.59375 L6.25,6.25 C6.25,6.59570312 6.52929688,6.875 6.875,6.875 L13.125,6.875 C13.4707031,6.875 13.75,6.59570312 13.75,6.25 L13.75,4.01953125 L16.40625,6.67578125 L16.40625,16.40625 Z M10,8.6328125 C8.44726562,8.6328125 7.1875,9.89257812 7.1875,11.4453125 C7.1875,12.9980469 8.44726562,14.2578125 10,14.2578125 C11.5527344,14.2578125 12.8125,12.9980469 12.8125,11.4453125 C12.8125,9.89257812 11.5527344,8.6328125 10,8.6328125 Z M10,13.0078125 C9.13671875,13.0078125 8.4375,12.3085938 8.4375,11.4453125 C8.4375,10.5820312 9.13671875,9.8828125 10,9.8828125 C10.8632812,9.8828125 11.5625,10.5820312 11.5625,11.4453125 C11.5625,12.3085938 10.8632812,13.0078125 10,13.0078125 Z" id="形状"></path>
                    </g>
                </g>
            </g>
        </g>
    </g>
</svg>
