<svg id="统计" xmlns="http://www.w3.org/2000/svg" width="15" height="15" viewBox="0 0 15 15">
  <rect id="矩形" width="15" height="15" opacity="0"/>
  <path id="形状" d="M14.352,15H.639A.633.633,0,0,1,0,14.375V.624A.633.633,0,0,1,.639,0a.633.633,0,0,1,.639.624V13.751H14.352a.624.624,0,1,1,0,1.248ZM5.416,10.968h0a.639.639,0,0,1-.512-.287L2.535,7.073a.616.616,0,0,1-.029-.634A.669.669,0,0,1,3.057,6.1h.027a.653.653,0,0,1,.547.3L5.207,8.823l.676-2.447a.632.632,0,0,1,.352-.4L9,4.724A.649.649,0,0,1,9.828,5l1.105,1.926,2.18-5.864A.62.62,0,0,1,13.6.644a.651.651,0,0,1,.121-.012.643.643,0,0,1,.488.227.618.618,0,0,1,.1.629L11.664,8.633a.645.645,0,0,1-.551.405l-.049,0a.654.654,0,0,1-.555-.314L9,6.113,7.029,7,6.035,10.51a.635.635,0,0,1-.518.453Z" transform="translate(0.003)" fill="currentColor"/>
</svg>
