<svg xmlns="http://www.w3.org/2000/svg" width="19.203" height="16.004" viewBox="0 0 19.203 16.004">
  <path id="形状结合" d="M1.068,11.735A4.261,4.261,0,0,1,2.955,8.194L2,5.328a2.134,2.134,0,1,1,1.52-.507l.914,2.743a4.271,4.271,0,0,1,4.35,1.658L13.43,3.646a2.133,2.133,0,1,1,2.645.289l1.152,4.6a2.134,2.134,0,1,1-1.527.492L14.621,4.716,9.51,10.852a4.267,4.267,0,1,1-8.441.884Zm1.6,0A2.667,2.667,0,1,0,5.334,9.067,2.67,2.67,0,0,0,2.668,11.735Z" transform="translate(0 0.002)" fill="currentColor"/>
</svg>
