<?xml version="1.0" encoding="UTF-8"?>
<svg width="18px" height="18px" viewBox="0 0 18 18" version="1.1" xmlns="http://www.w3.org/2000/svg" xmlns:xlink="http://www.w3.org/1999/xlink">
    <g id="主账号" stroke="none" stroke-width="1" fill="none" fill-rule="evenodd">
        <g id="消息订阅" transform="translate(-41.000000, -321.000000)" fill="currentColor" fill-rule="nonzero">
            <g id="侧边栏/个人中心" transform="translate(0.000000, 60.000000)">
                <g id="编组-4" transform="translate(41.000000, 260.000000)">
                    <g id="消息" transform="translate(0.000000, 1.000000)">
                        <rect id="矩形" opacity="0" x="0" y="0" width="18" height="18"></rect>
                        <path d="M9.5625,2.8395 C12.5408442,3.12908578 14.8126419,5.63259888 14.8125059,8.62498828 L14.8064941,8.62498828 C14.8102559,8.65125 14.8125059,8.67749414 14.8125059,8.70525 L14.8125059,12.5625059 L15.5100059,12.5625059 C15.820666,12.5625059 16.0725059,12.8143457 16.0725059,13.1250059 C16.0725059,13.435666 15.820666,13.6875 15.5100059,13.6875 L11.7824941,13.6875 C11.5792593,15.067666 10.3950435,16.0902711 9,16.0902711 C7.6049565,16.0902711 6.42074066,15.067666 6.21750586,13.6875 L2.49449414,13.6875 C2.18383397,13.6875 1.93199414,13.435666 1.93199414,13.1250059 C1.93199414,12.8143457 2.18383397,12.5625059 2.49449414,12.5625059 L3.18749414,12.5625059 L3.18749414,8.70525 C3.18749414,8.67749414 3.18974414,8.65125 3.19350586,8.62500586 L3.18749414,8.62500586 C3.1873491,5.63260973 5.45914906,3.12908643 8.4375,2.8395 L8.4375,2.25 C8.4375,1.93933983 8.68933983,1.6875 9,1.6875 C9.31066017,1.6875 9.5625,1.93933983 9.5625,2.25 L9.5625,2.8395 Z M4.31249414,12.5625234 L13.6875059,12.5625234 L13.6875059,8.70526758 C13.6875059,8.67751172 13.6897559,8.65126758 13.6935,8.62502344 L13.6875059,8.62502344 C13.6875059,6.95033887 12.7940723,5.40286651 11.3437529,4.56552422 C9.89343358,3.72818194 8.10656642,3.72818194 6.65624705,4.56552422 C5.20592768,5.40286651 4.31249412,6.95033887 4.31249414,8.62502344 L4.3065,8.62502344 C4.31024414,8.65126758 4.31249414,8.67751172 4.31249414,8.70526758 L4.31249414,12.5625234 L4.31249414,12.5625234 Z M10.6365059,13.6874883 L7.36347656,13.6874883 C7.55216888,14.4375219 8.22657744,14.9632786 8.99998242,14.9632786 C9.7733874,14.9632786 10.447796,14.4375219 10.6365059,13.6874883 L10.6365059,13.6874883 Z" id="形状"></path>
                    </g>
                </g>
            </g>
        </g>
    </g>
</svg>
