<svg width="20" height="20" viewBox="0 0 20 20" fill="none" xmlns="http://www.w3.org/2000/svg">
<rect opacity="0.01" width="20" height="20" fill="black"/>
<path fill-rule="evenodd" clip-rule="evenodd" d="M13.3594 9.21875H6.67969C6.59375 9.21875 6.52344 9.14844 6.52344 9.0625C6.52344 9.05469 6.52344 9.04492 6.52539 9.03711L7.31055 4.19336C7.32227 4.11719 7.38867 4.0625 7.46484 4.0625H12.5742C12.6504 4.0625 12.7168 4.11719 12.7285 4.19336L13.5137 9.03711C13.5273 9.12305 13.4707 9.20312 13.3848 9.2168C13.377 9.21875 13.3672 9.21875 13.3594 9.21875ZM11.5762 5.39062H8.46094L8.05469 7.89062H11.9805L11.5762 5.39062ZM8.50977 10.9121C8.49805 10.8359 8.43164 10.7812 8.35547 10.7812H3.24609C3.16992 10.7812 3.10352 10.8359 3.0918 10.9121L2.30664 15.7559C2.30469 15.7637 2.30469 15.7734 2.30469 15.7812C2.30469 15.8672 2.375 15.9375 2.46094 15.9375H9.14062C9.14844 15.9375 9.1582 15.9375 9.16602 15.9355C9.25195 15.9219 9.30859 15.8418 9.29492 15.7559L8.50977 10.9121ZM4.24219 12.1094L3.83789 14.6094H7.76172L7.35742 12.1094H4.24219ZM17.6934 15.7559L16.9082 10.9121C16.8965 10.8359 16.8301 10.7812 16.7539 10.7812H11.6445C11.5684 10.7812 11.502 10.8359 11.4902 10.9121L10.7051 15.7559C10.7031 15.7637 10.7031 15.7734 10.7031 15.7812C10.7031 15.8672 10.7734 15.9375 10.8594 15.9375H17.5391C17.5469 15.9375 17.5566 15.9375 17.5645 15.9355C17.6484 15.9219 17.707 15.8418 17.6934 15.7559ZM12.6406 12.1094L12.2363 14.6094H16.1602L15.7559 12.1094H12.6406Z" fill="currentColor"/>
</svg>
