<?xml version="1.0" encoding="UTF-8"?>
<svg width="20px" height="20px" viewBox="0 0 20 20" version="1.1" xmlns="http://www.w3.org/2000/svg" xmlns:xlink="http://www.w3.org/1999/xlink">
    <title>earth-outlined</title>
    <g id="页面-1" stroke="none" stroke-width="1" fill="currentColor" fill-rule="evenodd">
        <g id="icon" transform="translate(-320.000000, -88.000000)" fill="currentColor" fill-rule="nonzero">
            <g id="组-52" transform="translate(300.000000, 8.000000)">
                <g id="一级导航-1" transform="translate(0.000000, 60.000000)">
                    <g id="earth-outlined" transform="translate(20.000000, 20.000000)">
                        <rect id="矩形" opacity="0" x="0" y="0" width="20" height="20"></rect>
                        <path d="M16.6875,15.6425781 C16.6914062,15.6367187 16.6972656,15.6308594 16.7011719,15.625 C17.9804688,14.1035156 18.75,12.1425781 18.75,10 C18.75,7.85742187 17.9804688,5.89648437 16.703125,4.375 C16.6992188,4.36914062 16.6933594,4.36523438 16.6894531,4.359375 C16.6679688,4.33398437 16.6484375,4.31054687 16.6269531,4.28710937 C16.6191406,4.27734375 16.6113281,4.26953125 16.6035156,4.25976562 C16.5761719,4.22851562 16.5507812,4.19921875 16.5234375,4.16796875 L16.5214844,4.16601562 C16.4921875,4.1328125 16.4609375,4.09960938 16.4316406,4.06640625 L16.4296875,4.06445312 C16.3671875,3.99804687 16.3046875,3.93164062 16.2402344,3.8671875 L16.2382812,3.86523438 L16.1445312,3.77148438 L16.1386719,3.765625 C16.109375,3.73632812 16.0800781,3.70898437 16.0507812,3.68164062 C16.0410156,3.671875 16.03125,3.66210937 16.0195312,3.65234375 C16,3.6328125 15.9804687,3.61523437 15.9609375,3.59765625 C15.9550781,3.59179687 15.9472656,3.5859375 15.9414062,3.578125 C14.3828125,2.1328125 12.2949219,1.25 10,1.25 C7.70507812,1.25 5.6171875,2.1328125 4.05664062,3.578125 C4.05078125,3.58398437 4.04296875,3.58984375 4.03710938,3.59765625 C4.01757812,3.61523437 3.99804687,3.63476562 3.97851562,3.65429687 C3.96875,3.6640625 3.95898438,3.67382812 3.94726562,3.68359375 C3.91796875,3.7109375 3.88867188,3.74023437 3.859375,3.76757812 L3.85351562,3.7734375 L3.75976562,3.8671875 L3.7578125,3.86914062 C3.69335937,3.93359375 3.63085937,4 3.56835938,4.06640625 L3.56640625,4.06835938 C3.53515625,4.1015625 3.50585938,4.13476562 3.4765625,4.16796875 L3.47460938,4.16992187 C3.44726562,4.19921875 3.41992188,4.23046875 3.39453125,4.26171875 C3.38671875,4.27148437 3.37890625,4.27929687 3.37109375,4.2890625 C3.34960938,4.3125 3.33007813,4.33789062 3.30859375,4.36132812 C3.3046875,4.3671875 3.29882813,4.37109375 3.29492188,4.37695312 C2.01953125,5.89648437 1.25,7.85742187 1.25,10 C1.25,12.1425781 2.01953125,14.1035156 3.296875,15.625 C3.30078125,15.6308594 3.30664062,15.6367187 3.31054688,15.6425781 C3.33007812,15.6660156 3.3515625,15.6914062 3.37109375,15.7148437 C3.37890625,15.7246094 3.38671875,15.7324219 3.39453125,15.7421875 C3.421875,15.7734375 3.44726562,15.8027344 3.47460937,15.8339844 C3.47460937,15.8359375 3.4765625,15.8359375 3.4765625,15.8378906 C3.50585937,15.8710937 3.53515625,15.9042969 3.56640625,15.9355469 L3.56835937,15.9375 C3.63085937,16.0039062 3.69335937,16.0703125 3.75585937,16.1347656 L3.7578125,16.1367188 C3.7890625,16.1679688 3.81835937,16.1992188 3.84960937,16.2285156 L3.85546875,16.234375 C3.91992187,16.2988281 3.98632812,16.3613281 4.05273437,16.421875 C5.6171875,17.8671875 7.70507812,18.75 10,18.75 C12.2949219,18.75 14.3828125,17.8671875 15.9433594,16.421875 C16.0097656,16.3613281 16.0742188,16.2988281 16.1386719,16.234375 L16.1445312,16.2285156 C16.1757812,16.1972656 16.2070312,16.1679688 16.2363281,16.1367188 L16.2382812,16.1347656 C16.3027344,16.0703125 16.3652344,16.0039062 16.4257812,15.9375 L16.4277344,15.9355469 C16.4570312,15.9023437 16.4882812,15.8710937 16.5175781,15.8378906 C16.5175781,15.8359375 16.5195312,15.8359375 16.5195312,15.8339844 C16.546875,15.8046875 16.5742188,15.7734375 16.5996094,15.7421875 C16.6074219,15.7324219 16.6152344,15.7246094 16.6230469,15.7148437 C16.6464844,15.6894531 16.6679688,15.6660156 16.6875,15.6425781 Z M16.7675781,12.8574219 C16.4980469,13.4941406 16.1425781,14.0839844 15.7089844,14.6191406 C15.2226562,14.1992188 14.6894531,13.8320312 14.1171875,13.5273438 C14.34375,12.6113281 14.484375,11.6054688 14.5214844,10.546875 L17.3242188,10.546875 C17.265625,11.3457031 17.078125,12.1210938 16.7675781,12.8574219 Z M17.3242188,9.453125 L14.5214844,9.453125 C14.484375,8.39453125 14.34375,7.38867188 14.1171875,6.47265625 C14.6894531,6.16796875 15.2226562,5.80078125 15.7089844,5.38085938 C16.1425781,5.91601562 16.4980469,6.50585938 16.7675781,7.14257812 C17.078125,7.87890625 17.265625,8.65429688 17.3242188,9.453125 Z M12.8574219,3.23242188 C13.6328125,3.56054688 14.3378906,4.01367188 14.9589844,4.58398438 C14.5976562,4.89257812 14.2089844,5.1640625 13.7988281,5.40039062 C13.4921875,4.52148438 13.0996094,3.7578125 12.6425781,3.14648438 C12.7148438,3.17382812 12.7871094,3.203125 12.8574219,3.23242188 Z M11.0878906,16.9160156 C10.9082031,17.0566406 10.7285156,17.1640625 10.546875,17.2363281 L10.546875,13.6132812 C11.3261719,13.6679688 12.0820312,13.8398438 12.8066406,14.125 C12.6445312,14.6054688 12.4570312,15.0488281 12.2402344,15.4492188 C11.9003906,16.0820312 11.5019531,16.5878906 11.0878906,16.9160156 Z M12.2402344,4.55078125 C12.4550781,4.953125 12.6445312,5.39648438 12.8066406,5.875 C12.0820312,6.16015625 11.3261719,6.33203125 10.546875,6.38671875 L10.546875,2.765625 C10.7265625,2.83789062 10.9082031,2.94335938 11.0878906,3.0859375 C11.5019531,3.41210938 11.9003906,3.91796875 12.2402344,4.55078125 Z M10.546875,12.5175781 L10.546875,10.546875 L13.4277344,10.546875 C13.3964844,11.4101562 13.2890625,12.2480469 13.109375,13.0429688 L13.1035156,13.0664062 C12.3007813,12.7617188 11.4414063,12.5722656 10.546875,12.5175781 L10.546875,12.5175781 Z M10.546875,9.453125 L10.546875,7.48242188 C11.4414062,7.42773438 12.3007812,7.23828125 13.1035156,6.93359375 L13.109375,6.95703125 C13.2890625,7.75195312 13.3964844,8.58789062 13.4277344,9.453125 L10.546875,9.453125 Z M9.453125,10.546875 L9.453125,12.5175781 C8.55859375,12.5722656 7.69921875,12.7617188 6.89648438,13.0664062 L6.890625,13.0429688 C6.7109375,12.2480469 6.60351562,11.4121094 6.57226562,10.546875 L9.453125,10.546875 Z M6.57226562,9.453125 C6.60351562,8.58984375 6.7109375,7.75195312 6.890625,6.95703125 L6.89648438,6.93359375 C7.69921875,7.23828125 8.55664062,7.42773438 9.453125,7.48242188 L9.453125,9.453125 L6.57226562,9.453125 Z M9.453125,13.6132812 L9.453125,17.234375 C9.2734375,17.1621094 9.09179688,17.0566406 8.91210938,16.9140625 C8.49804688,16.5878906 8.09765625,16.0800781 7.7578125,15.4472656 C7.54296875,15.0449219 7.35351562,14.6015625 7.19140625,14.1230469 C7.91796875,13.8378906 8.67382812,13.6679688 9.453125,13.6132812 Z M9.453125,6.38671875 C8.67382812,6.33203125 7.91796875,6.16015625 7.19335938,5.875 C7.35546875,5.39453125 7.54296875,4.95117188 7.75976562,4.55078125 C8.09960938,3.91796875 8.49804688,3.41015625 8.9140625,3.08398438 C9.09375,2.94335938 9.2734375,2.8359375 9.45507812,2.76367188 L9.45507812,6.38671875 L9.453125,6.38671875 Z M7.14257812,3.23242188 C7.21484375,3.203125 7.28515625,3.17382812 7.35742188,3.14648438 C6.90039062,3.7578125 6.5078125,4.52148438 6.20117188,5.40039062 C5.79101562,5.16601562 5.40234375,4.89257812 5.04101562,4.58398438 C5.66210938,4.01367188 6.3671875,3.56054688 7.14257812,3.23242188 L7.14257812,3.23242188 Z M3.23242188,7.14257812 C3.50195312,6.50585937 3.85742188,5.91601562 4.29101562,5.38085938 C4.77734375,5.80078125 5.31054688,6.16796875 5.8828125,6.47265625 C5.65625,7.38867187 5.515625,8.39453125 5.47851562,9.453125 L2.67578125,9.453125 C2.734375,8.65429688 2.921875,7.87890625 3.23242188,7.14257812 Z M2.67578125,10.546875 L5.47851562,10.546875 C5.515625,11.6054688 5.65625,12.6113281 5.8828125,13.5273438 C5.31054688,13.8320312 4.77734375,14.1992188 4.29101562,14.6191406 C3.85742188,14.0839844 3.50195312,13.4941406 3.23242188,12.8574219 C2.921875,12.1210938 2.734375,11.3457031 2.67578125,10.546875 Z M7.14257812,16.7675781 C6.3671875,16.4394531 5.66210937,15.9863281 5.04101562,15.4160156 C5.40234375,15.1074219 5.79101562,14.8359375 6.20117188,14.5996094 C6.5078125,15.4785156 6.90039062,16.2421875 7.35742188,16.8535156 C7.28515625,16.8261719 7.21289062,16.796875 7.14257812,16.7675781 Z M12.8574219,16.7675781 C12.7851562,16.796875 12.7148438,16.8261719 12.6425781,16.8535156 C13.0996094,16.2421875 13.4921875,15.4785156 13.7988281,14.5996094 C14.2089844,14.8339844 14.5976562,15.1074219 14.9589844,15.4160156 C14.3378906,15.9863281 13.6328125,16.4394531 12.8574219,16.7675781 Z" id="形状"></path>
                    </g>
                </g>
            </g>
        </g>
    </g>
</svg>
