<?xml version="1.0" encoding="UTF-8"?>
<svg width="20px" height="20px" viewBox="0 0 20 20" version="1.1" xmlns="http://www.w3.org/2000/svg" xmlns:xlink="http://www.w3.org/1999/xlink">
    <title>file-zip-outlined</title>
    <g id="页面-1" stroke="none" stroke-width="1" fill="currentColor" fill-rule="evenodd">
        <g id="ssl证书管理" transform="translate(-20.000000, -140.000000)" fill="currentColor" fill-rule="nonzero">
            <g id="侧边栏/实例" transform="translate(0.000000, 60.000000)">
                <g id="一级导航-1备份-2" transform="translate(0.000000, 60.000000)">
                    <g id="file-zip-outlined" transform="translate(20.000000, 20.000000)">
                        <rect id="矩形" opacity="0" x="0" y="0" width="20" height="20"></rect>
                        <path d="M5.78125,7.65625 L7.03125,7.65625 L7.03125,8.90625 L5.78125,8.90625 L5.78125,7.65625 Z M5.78125,11.3671875 L5.78125,14.4921875 L8.28125,14.4921875 L8.28125,11.3671875 L7.03125,11.3671875 L7.03125,10.15625 L5.78125,10.15625 L5.78125,11.3671875 Z M7.34375,12.3046875 L7.34375,13.5546875 L6.71875,13.5546875 L6.71875,12.3046875 L7.34375,12.3046875 Z M7.03125,6.40625 L8.28125,6.40625 L8.28125,7.65625 L7.03125,7.65625 L7.03125,6.40625 Z M5.78125,5.15625 L7.03125,5.15625 L7.03125,6.40625 L5.78125,6.40625 L5.78125,5.15625 Z M7.03125,8.90625 L8.28125,8.90625 L8.28125,10.15625 L7.03125,10.15625 L7.03125,8.90625 Z M7.03125,3.90625 L8.28125,3.90625 L8.28125,5.15625 L7.03125,5.15625 L7.03125,3.90625 Z M16.6914062,5.63671875 L12.4882812,1.43359375 C12.3710937,1.31640625 12.2128906,1.25 12.046875,1.25 L3.75,1.25 C3.40429688,1.25 3.125,1.52929688 3.125,1.875 L3.125,18.125 C3.125,18.4707031 3.40429688,18.75 3.75,18.75 L16.25,18.75 C16.5957031,18.75 16.875,18.4707031 16.875,18.125 L16.875,6.08007812 C16.875,5.9140625 16.8085938,5.75390625 16.6914062,5.63671875 Z M15.4335938,6.3671875 L11.7578125,6.3671875 L11.7578125,2.69140625 L15.4335938,6.3671875 Z M15.46875,17.34375 L4.53125,17.34375 L4.53125,2.65625 L5.78125,2.65625 L5.78125,3.90625 L7.03125,3.90625 L7.03125,2.65625 L10.4296875,2.65625 L10.4296875,6.875 C10.4296875,7.328125 10.796875,7.6953125 11.25,7.6953125 L15.46875,7.6953125 L15.46875,17.34375 Z" id="形状"></path>
                    </g>
                </g>
            </g>
        </g>
    </g>
</svg>