<svg width="20px" height="20px" viewBox="0 0 20 20" version="1.1" xmlns="http://www.w3.org/2000/svg" >
    <g id="对象存储2.0" stroke="none" stroke-width="1"  fill-rule="evenodd">
        <g id="对象存储-资源包管理/注释" transform="translate(-20.000000, -260.000000)" fill-rule="nonzero">
            <g id="侧边栏/实例" transform="translate(0.000000, 60.000000)">
                <g id="一级导航-1备份-3" transform="translate(0.000000, 180.000000)">
                    <g id="gold" transform="translate(20.000000, 20.000000)">
                        <path d="M6.6796875,9.21875 L13.359375,9.21875 C13.3671875,9.21875 13.3769531,9.21875 13.3847656,9.21679688 C13.4707031,9.203125 13.5273438,9.12304688 13.5136719,9.03710938 L12.7285156,4.19335938 C12.7167969,4.1171875 12.6503906,4.0625 12.5742188,4.0625 L7.46484375,4.0625 C7.38867187,4.0625 7.32226562,4.1171875 7.31054687,4.19335938 L6.52539062,9.03710938 C6.5234375,9.04492188 6.5234375,9.0546875 6.5234375,9.0625 C6.5234375,9.1484375 6.59375,9.21875 6.6796875,9.21875 Z M8.4609375,5.390625 L11.5761719,5.390625 L11.9804688,7.890625 L8.0546875,7.890625 L8.4609375,5.390625 L8.4609375,5.390625 Z M8.50976562,10.9121094 C8.49804687,10.8359375 8.43164062,10.78125 8.35546875,10.78125 L3.24609375,10.78125 C3.16992187,10.78125 3.10351562,10.8359375 3.09179687,10.9121094 L2.30664062,15.7558594 C2.3046875,15.7636719 2.3046875,15.7734375 2.3046875,15.78125 C2.3046875,15.8671875 2.375,15.9375 2.4609375,15.9375 L9.140625,15.9375 C9.1484375,15.9375 9.15820312,15.9375 9.16601562,15.9355469 C9.25195312,15.921875 9.30859375,15.8417969 9.29492187,15.7558594 L8.50976562,10.9121094 L8.50976562,10.9121094 Z M3.83789062,14.609375 L4.2421875,12.109375 L7.35742187,12.109375 L7.76171875,14.609375 L3.83789062,14.609375 Z M17.6933594,15.7558594 L16.9082031,10.9121094 C16.8964844,10.8359375 16.8300781,10.78125 16.7539062,10.78125 L11.6445312,10.78125 C11.5683594,10.78125 11.5019531,10.8359375 11.4902344,10.9121094 L10.7050781,15.7558594 C10.703125,15.7636719 10.703125,15.7734375 10.703125,15.78125 C10.703125,15.8671875 10.7734375,15.9375 10.859375,15.9375 L17.5390625,15.9375 C17.546875,15.9375 17.5566406,15.9375 17.5644531,15.9355469 C17.6484375,15.921875 17.7070312,15.8417969 17.6933594,15.7558594 L17.6933594,15.7558594 Z M12.2363281,14.609375 L12.640625,12.109375 L15.7558594,12.109375 L16.1601562,14.609375 L12.2363281,14.609375 Z" id="形状" fill="currentColor"></path>
                    </g>
                </g>
            </g>
        </g>
    </g>
</svg>