<?xml version="1.0" encoding="UTF-8"?>
<svg width="18px" height="18px" viewBox="0 0 18 18" version="1.1" xmlns="http://www.w3.org/2000/svg" xmlns:xlink="http://www.w3.org/1999/xlink">
    <title>切片</title>
    <g id="主账号" stroke="none" stroke-width="1" fill="none" fill-rule="evenodd">
        <g id="费用账单-资金管理-支付方式" transform="translate(-41.000000, -501.000000)">
            <g id="编组-14" transform="translate(0.000000, 480.000000)">
                <g id="代金券" transform="translate(41.000000, 21.000000)">
                    <rect id="矩形备份-21" x="0" y="0" width="18" height="18"></rect>
                    <path d="M16,2 C17.1045695,2 18,2.8954305 18,4 L18,7 C16.8954305,7 16,8.11928813 16,9.5 C16,10.8807119 16.8954305,12 18,12 L18,14 C18,15.1045695 17.1045695,16 16,16 L2,16 C0.8954305,16 0,15.1045695 0,14 L0,12 C1.1045695,12 2,10.8807119 2,9.5 C2,8.11928813 1.1045695,7 0,7 L0,4 C0,2.8954305 0.8954305,2 2,2 L16,2 Z M16,3.2 L2,3.2 C1.5581722,3.2 1.2,3.5581722 1.2,4 L1.2,6.062 L1.35014594,6.13737609 C2.41448128,6.70415447 3.13241122,7.92178729 3.19547854,9.301803 L3.2,9.5 C3.2,10.9607718 2.46516391,12.2688561 1.35014594,12.8626239 L1.2,12.937 L1.2,14 C1.2,14.407841 1.50518815,14.7444016 1.8996497,14.7937669 L2,14.8 L16,14.8 C16.4418278,14.8 16.8,14.4418278 16.8,14 L16.8,12.937 L16.6498541,12.8626239 C15.5855187,12.2958455 14.8675888,11.0782127 14.8045215,9.698197 L14.8,9.5 C14.8,8.03922818 15.5348361,6.73114392 16.6498541,6.13737609 L16.8,6.062 L16.8,4 C16.8,3.59215895 16.4948119,3.25559842 16.1003503,3.20623314 L16,3.2 Z" id="形状结合" fill="currentColor" fill-rule="nonzero"></path>
                    <path d="M11.625,8.9 C11.9563708,8.9 12.225,9.16862915 12.225,9.5 C12.225,9.83137085 11.9563708,10.1 11.625,10.1 L6.2625,10.1 C5.93112915,10.1 5.6625,9.83137085 5.6625,9.5 C5.6625,9.16862915 5.93112915,8.9 6.2625,8.9 L11.625,8.9 Z" id="直线-7备份-12" fill="currentColor" fill-rule="nonzero"></path>
                </g>
            </g>
        </g>
    </g>
</svg>
