<?xml version="1.0" encoding="UTF-8"?>
<svg width="20px" height="20px" viewBox="0 0 20 20" version="1.1" xmlns="http://www.w3.org/2000/svg" xmlns:xlink="http://www.w3.org/1999/xlink">
    <title>snippets-outlined</title>
    <g id="控制台" stroke="none" stroke-width="1" fill="none" fill-rule="evenodd">
        <g id="域名-概览-" transform="translate(-20.000000, -260.000000)" fill="currentColor" fill-rule="nonzero">
            <g id="侧边栏/实例" transform="translate(0.000000, 60.000000)">
                <g id="一级导航备份" transform="translate(0.000000, 180.000000)">
                    <g id="snippets-outlined" transform="translate(20.000000, 20.000000)">
                        <rect id="矩形" opacity="0" x="0" y="0" width="20" height="20"></rect>
                        <path d="M16.25,2.1875 L14.140625,2.1875 L14.140625,1.40625 C14.140625,1.3203125 14.0703125,1.25 13.984375,1.25 L12.890625,1.25 C12.8046875,1.25 12.734375,1.3203125 12.734375,1.40625 L12.734375,2.1875 L9.765625,2.1875 L9.765625,1.40625 C9.765625,1.3203125 9.6953125,1.25 9.609375,1.25 L8.515625,1.25 C8.4296875,1.25 8.359375,1.3203125 8.359375,1.40625 L8.359375,2.1875 L6.25,2.1875 C5.90429688,2.1875 5.625,2.46679688 5.625,2.8125 L5.625,5.15625 L3.75,5.15625 C3.40429688,5.15625 3.125,5.43554688 3.125,5.78125 L3.125,18.125 C3.125,18.4707031 3.40429688,18.75 3.75,18.75 L13.75,18.75 C14.0957031,18.75 14.375,18.4707031 14.375,18.125 L14.375,16.25 L16.25,16.25 C16.5957031,16.25 16.875,15.9707031 16.875,15.625 L16.875,2.8125 C16.875,2.46679688 16.5957031,2.1875 16.25,2.1875 Z M12.96875,17.34375 L4.53125,17.34375 L4.53125,6.5625 L8.7890625,6.5625 L8.7890625,9.9609375 C8.7890625,10.3925781 9.13867188,10.7421875 9.5703125,10.7421875 L12.96875,10.7421875 L12.96875,17.34375 Z M12.96875,9.4921875 L10.0390625,9.4921875 L10.0390625,6.5625 L10.0429688,6.5625 L12.96875,9.48828125 L12.96875,9.4921875 Z M15.46875,14.84375 L14.375,14.84375 L14.375,8.90625 L10.625,5.15625 L7.03125,5.15625 L7.03125,3.59375 L8.359375,3.59375 L8.359375,4.21875 C8.359375,4.3046875 8.4296875,4.375 8.515625,4.375 L9.609375,4.375 C9.6953125,4.375 9.765625,4.3046875 9.765625,4.21875 L9.765625,3.59375 L12.734375,3.59375 L12.734375,4.21875 C12.734375,4.3046875 12.8046875,4.375 12.890625,4.375 L13.984375,4.375 C14.0703125,4.375 14.140625,4.3046875 14.140625,4.21875 L14.140625,3.59375 L15.46875,3.59375 L15.46875,14.84375 Z" id="形状"></path>
                    </g>
                </g>
            </g>
        </g>
    </g>
</svg>
