<svg id="编组_3" data-name="编组 3" xmlns="http://www.w3.org/2000/svg" width="16" height="16" viewBox="0 0 16 16">
  <path id="排除_16" data-name="排除 16" d="M19424,16096h-14a1,1,0,0,1-1-1v-14a1,1,0,0,1,1-1h14a1,1,0,0,1,1,1v14A1,1,0,0,1,19424,16096Zm-13.523-14.522h0v13.04h13.047v-13.04Zm10.424,11.153a.668.668,0,1,1,.736-.663A.7.7,0,0,1,19420.9,16092.63Zm-2.369,0h-5.5a.665.665,0,0,1,0-1.33h5.5a.665.665,0,0,1,0,1.33Zm2.369-3.544a.668.668,0,1,1,0-1.331.669.669,0,1,1,0,1.331Zm-2.369,0h-5.5a.666.666,0,0,1,0-1.331h5.5a.666.666,0,0,1,0,1.331Zm2.369-3.549a.667.667,0,1,1,.736-.663A.7.7,0,0,1,19420.9,16085.537Zm-2.369,0h-5.5a.664.664,0,0,1-.662-.663.656.656,0,0,1,.662-.663h5.5a.663.663,0,0,1,0,1.326Z" transform="translate(-19408.998 -16079.999)" fill="currentColor"/>
</svg>
