<svg xmlns="http://www.w3.org/2000/svg" width="17.004" height="17" viewBox="0 0 17.004 17">
  <g id="资源_69" data-name="资源 69" transform="translate(0.5 0.5)">
    <rect id="矩形" width="16" height="16" opacity="0"/>
    <path id="排除_20" data-name="排除 20" d="M19423.5,15796h-12.992a1.508,1.508,0,0,1-1.506-1.507v-12.986a1.508,1.508,0,0,1,1.506-1.507h12.992a1.508,1.508,0,0,1,1.506,1.507v12.986A1.508,1.508,0,0,1,19423.5,15796Zm-12.992-3.3h0v1.536a.251.251,0,0,0,.254.253h12.479a.251.251,0,0,0,.254-.253v-1.536Zm.258-11.2a.255.255,0,0,0-.258.253v9.575h12.982v-9.575a.251.251,0,0,0-.25-.253Zm6.289,9.511a.715.715,0,0,1-.244-.044.687.687,0,0,1-.209-.142l-3.121-3.125a.633.633,0,0,1,.457-1.086.654.654,0,0,1,.451.18l2,2v-4.948a.667.667,0,1,1,1.281,0v4.924l2-2a.669.669,0,0,1,.469-.19h.018a.656.656,0,0,1,.475.22.664.664,0,0,1,0,.906l-3.121,3.125a.667.667,0,0,1-.205.142A.7.7,0,0,1,19417.053,15791.017Z" transform="translate(-19409 -15779.999)" fill="currentColor" stroke="rgba(0,0,0,0)" stroke-miterlimit="10" stroke-width="1"/>
  </g>
</svg>
