<?xml version="1.0" encoding="UTF-8"?>
<svg width="18px" height="18px" viewBox="0 0 18 18" version="1.1" xmlns="http://www.w3.org/2000/svg" xmlns:xlink="http://www.w3.org/1999/xlink">
    <g id="主账号" stroke="none" stroke-width="1" fill="none" fill-rule="evenodd">
        <g id="费用中心-订单管理1备份" transform="translate(-41.000000, -81.000000)">
            <g id="账户信息" transform="translate(41.000000, 81.000000)">
                <rect id="矩形" x="0" y="0" width="18" height="18"></rect>
                <path d="M15,2 C16.1045695,2 17,2.8954305 17,4 L17,12 C17,13.1045695 16.1045695,14 15,14 L3,14 C1.8954305,14 1,13.1045695 1,12 L1,4 C1,2.8954305 1.8954305,2 3,2 L15,2 Z M15,3.2 L3,3.2 C2.5581722,3.2 2.2,3.5581722 2.2,4 L2.2,12 C2.2,12.4418278 2.5581722,12.8 3,12.8 L15,12.8 C15.4418278,12.8 15.8,12.4418278 15.8,12 L15.8,4 C15.8,3.5581722 15.4418278,3.2 15,3.2 Z" id="矩形" fill="currentColor" fill-rule="nonzero"></path>
                <path d="M14.5,15.4 C14.8313708,15.4 15.1,15.6686292 15.1,16 C15.1,16.3313708 14.8313708,16.6 14.5,16.6 L3.5,16.6 C3.16862915,16.6 2.9,16.3313708 2.9,16 C2.9,15.6686292 3.16862915,15.4 3.5,15.4 L14.5,15.4 Z" id="直线-6" fill="currentColor" fill-rule="nonzero"></path>
                <path d="M7.21945291,5.67376248 C8.29881044,5.69925415 9.19801935,6.431924 9.90047979,7.73470726 C10.5411753,8.73838237 11.2097728,9.06325338 12.0135437,8.83333722 C12.8815459,8.58504792 13.3546734,8.08329072 13.5098417,7.26174663 C13.5713418,6.93613277 13.8851596,6.7220262 14.2107734,6.78352622 C14.5363873,6.84502625 14.7504939,7.15884406 14.6889938,7.48445792 C14.44813,8.75971956 13.6406814,9.61602811 12.3435638,9.98706455 C10.9822149,10.3764741 9.79493545,9.79957594 8.86692254,8.34287238 C8.32676252,7.34364451 7.76633681,6.88701311 7.19111987,6.87342795 C6.63669581,6.86033387 6.00244999,7.39031555 5.32852918,8.57435656 C5.16461374,8.86234679 4.79827181,8.96292927 4.51028159,8.79901383 C4.22229137,8.63509839 4.12170889,8.26875646 4.28562433,7.98076624 C5.15474189,6.45377552 6.11930249,5.64777974 7.21945291,5.67376248 Z" id="路径-2" fill="currentColor" fill-rule="nonzero"></path>
            </g>
        </g>
    </g>
</svg>
