<svg width="20" height="20" viewBox="0 0 20 20" fill="none" xmlns="http://www.w3.org/2000/svg">
<rect opacity="0.01" width="20" height="20" fill="black"/>
<path fill-rule="evenodd" clip-rule="evenodd" d="M2.8125 2.1875H17.1875C17.5332 2.1875 17.8125 2.4668 17.8125 2.8125V17.1875C17.8125 17.5332 17.5332 17.8125 17.1875 17.8125H2.8125C2.4668 17.8125 2.1875 17.5332 2.1875 17.1875V2.8125C2.1875 2.4668 2.4668 2.1875 2.8125 2.1875ZM3.59375 16.4062H16.4062V3.59375H3.59375V16.4062ZM9.60938 7.8125H13.2031C13.2891 7.8125 13.3594 7.74219 13.3594 7.65625V6.71875C13.3594 6.63281 13.2891 6.5625 13.2031 6.5625H9.60938C9.52344 6.5625 9.45312 6.63281 9.45312 6.71875V7.65625C9.45312 7.74219 9.52344 7.8125 9.60938 7.8125ZM13.2031 10.625H9.60938C9.52344 10.625 9.45312 10.5547 9.45312 10.4688V9.53125C9.45312 9.44531 9.52344 9.375 9.60938 9.375H13.2031C13.2891 9.375 13.3594 9.44531 13.3594 9.53125V10.4688C13.3594 10.5547 13.2891 10.625 13.2031 10.625ZM9.60938 13.4375H13.2031C13.2891 13.4375 13.3594 13.3672 13.3594 13.2812V12.3438C13.3594 12.2578 13.2891 12.1875 13.2031 12.1875H9.60938C9.52344 12.1875 9.45312 12.2578 9.45312 12.3438V13.2812C9.45312 13.3672 9.52344 13.4375 9.60938 13.4375ZM6.64062 12.8125C6.64062 13.2441 6.99023 13.5938 7.42188 13.5938C7.85352 13.5938 8.20312 13.2441 8.20312 12.8125C8.20312 12.3809 7.85352 12.0312 7.42188 12.0312C6.99023 12.0312 6.64062 12.3809 6.64062 12.8125ZM7.42188 10.7812C6.99023 10.7812 6.64062 10.4316 6.64062 10C6.64062 9.56836 6.99023 9.21875 7.42188 9.21875C7.85352 9.21875 8.20312 9.56836 8.20312 10C8.20312 10.4316 7.85352 10.7812 7.42188 10.7812ZM6.64062 7.1875C6.64062 7.61914 6.99023 7.96875 7.42188 7.96875C7.85352 7.96875 8.20312 7.61914 8.20312 7.1875C8.20312 6.75586 7.85352 6.40625 7.42188 6.40625C6.99023 6.40625 6.64062 6.75586 6.64062 7.1875Z" fill="currentColor" />
</svg>
