<?xml version="1.0" encoding="UTF-8"?>
<svg width="18px" height="18px" viewBox="0 0 18 18" version="1.1" xmlns="http://www.w3.org/2000/svg" xmlns:xlink="http://www.w3.org/1999/xlink">
    <g id="主账号" stroke="none" stroke-width="1" fill="none" fill-rule="evenodd">
        <g id="费用账单-账单查看--资源账单" transform="translate(-41.000000, -321.000000)">
            <g id="编组-8备份-3" transform="translate(0.000000, 300.000000)">
                <g id="费用账单" transform="translate(41.000000, 21.000000)">
                    <rect id="矩形备份-20" x="0" y="0" width="18" height="18"></rect>
                    <path d="M14.25,0.4 C15.5670129,0.4 16.6,1.58055669 16.6,3 L16.6,6.12459992 C16.6,6.45597076 16.3313708,6.72459992 16,6.72459992 C15.6686292,6.72459992 15.4,6.45597076 15.4,6.12459992 L15.4,3 C15.4,2.21030431 14.8659837,1.6 14.25,1.6 L3.75,1.6 C3.13401627,1.6 2.6,2.21030431 2.6,3 L2.6,15 C2.6,15.7896957 3.13401627,16.4 3.75,16.4 L8.25,16.4 C8.58137085,16.4 8.85,16.6686292 8.85,17 C8.85,17.3313708 8.58137085,17.6 8.25,17.6 L3.75,17.6 C2.43298711,17.6 1.4,16.4194433 1.4,15 L1.4,3 C1.4,1.58055669 2.43298711,0.4 3.75,0.4 L14.25,0.4 Z" id="路径备份" fill="currentColor" fill-rule="nonzero"></path>
                    <path d="M10.625,4.9 C10.9563708,4.9 11.225,5.16862915 11.225,5.5 C11.225,5.83137085 10.9563708,6.1 10.625,6.1 L5.2625,6.1 C4.93112915,6.1 4.6625,5.83137085 4.6625,5.5 C4.6625,5.16862915 4.93112915,4.9 5.2625,4.9 L10.625,4.9 Z" id="直线-7备份-10" fill="currentColor" fill-rule="nonzero"></path>
                    <path d="M16.4552526,9.72567181 C16.6453191,9.99711492 16.5793504,10.3712424 16.3079073,10.5613089 L14.1783079,12.0517662 L16.2086921,12.0524334 C16.540063,12.0524334 16.8086921,12.3210626 16.8086921,12.6524334 C16.8086921,12.9838043 16.540063,13.2524334 16.2086921,13.2524334 L14.0993079,13.2517662 L14.0993079,14.0517662 L16.2086921,14.0524334 C16.540063,14.0524334 16.8086921,14.3210626 16.8086921,14.6524334 C16.8086921,14.9838043 16.540063,15.2524334 16.2086921,15.2524334 L14.0993079,15.2517662 L14.1,16.6828617 C14.1,17.0142325 13.8313708,17.2828617 13.5,17.2828617 C13.1686292,17.2828617 12.9,17.0142325 12.9,16.6828617 L12.8993079,15.2517662 L10.7913079,15.2524334 C10.459937,15.2524334 10.1913079,14.9838043 10.1913079,14.6524334 C10.1913079,14.3210626 10.459937,14.0524334 10.7913079,14.0524334 L12.8993079,14.0517662 L12.8993079,13.2517662 L10.7913079,13.2524334 C10.459937,13.2524334 10.1913079,12.9838043 10.1913079,12.6524334 C10.1913079,12.3210626 10.459937,12.0524334 10.7913079,12.0524334 L12.8203079,12.0517662 L10.6920927,10.5613089 C10.4206496,10.3712424 10.3546809,9.99711492 10.5447474,9.72567181 C10.7348139,9.4542287 11.1089413,9.38825993 11.3803844,9.57832645 L13.4993079,11.0627662 L15.6196156,9.57832645 C15.8910587,9.38825993 16.2651861,9.4542287 16.4552526,9.72567181 Z" id="形状结合备份" fill="currentColor" fill-rule="nonzero"></path>
                    <path d="M8.375,8.9 C8.70637085,8.9 8.975,9.16862915 8.975,9.5 C8.975,9.83137085 8.70637085,10.1 8.375,10.1 L5.2625,10.1 C4.93112915,10.1 4.6625,9.83137085 4.6625,9.5 C4.6625,9.16862915 4.93112915,8.9 5.2625,8.9 L8.375,8.9 Z" id="直线-7备份-11" fill="currentColor" fill-rule="nonzero"></path>
                </g>
            </g>
        </g>
    </g>
</svg>
