<?xml version="1.0" encoding="UTF-8"?>
<svg width="20px" height="20px" viewBox="0 0 20 20" version="1.1" xmlns="http://www.w3.org/2000/svg" xmlns:xlink="http://www.w3.org/1999/xlink">
    <title>lixianrizhi</title>
    <defs>
        <polygon id="path-1" points="0 0 14.2510473 0 14.2510473 17.4353466 0 17.4353466"></polygon>
        <polygon id="path-3" points="0 0 14.5343298 0 14.5343298 15.0914328 0 15.0914328"></polygon>
    </defs>
    <g id="CDN" stroke="none" stroke-width="1" fill="currentColor" fill-rule="evenodd">
        <g id="资源包管理-离线日志" transform="translate(-20.000000, -440.000000)">
            <g id="框架/侧边Tabs-展开" transform="translate(0.000000, 60.000000)">
                <g id="一级导航-1备份-5" transform="translate(0.000000, 360.000000)">
                    <g id="lixianrizhi" transform="translate(20.000000, 20.000000)">
                        <rect id="矩形-28" fill-opacity="0" fill="#D8D8D8" fill-rule="nonzero" x="0" y="0" width="20" height="20"></rect>
                        <g id="编组" transform="translate(1.380000, 1.000000)">
                            <g>
                                <mask id="mask-2" fill="white">
                                    <use xlink:href="#path-1"></use>
                                </mask>
                                <g id="Clip-2"></g>
                                <path d="M7.09587172,17.4353466 L0.95139512,17.4353466 C0.425736055,17.4348687 0.00043008469,17.0090849 -4.77871877e-05,16.4843816 L-4.77871877e-05,0.950678313 C0.00043008469,0.425974991 0.425736055,0.000669020628 0.95139512,-0.000286723126 L13.3000823,-0.000286723126 C13.8252635,0.000669020628 14.2500916,0.425974991 14.2510473,0.950678313 L14.2510473,7.84159078 L12.9889877,7.84159078 L12.9889877,1.26272865 L1.26296758,1.26272865 L1.26296758,16.1728091 L7.09587172,16.1728091 L7.09587172,17.4353466 Z" id="Fill-1" fill="" mask="url(#mask-2)"></path>
                            </g>
                            <g transform="translate(2.707288, 2.908567)">
                                <mask id="mask-4" fill="white">
                                    <use xlink:href="#path-3"></use>
                                </mask>
                                <g id="Clip-4"></g>
                                <path d="M10.1662463,7.61679985 C8.45355351,7.61679985 7.06055699,9.00979637 7.06055699,10.7224892 C7.06055699,12.4356599 8.45355351,13.8286564 10.1662463,13.8286564 C11.8789391,13.8286564 13.2724135,12.4356599 13.2724135,10.7224892 C13.2724135,9.00979637 11.8789391,7.61679985 10.1662463,7.61679985 L10.1662463,7.61679985 Z M10.1662463,15.0916718 C7.75729418,15.0916718 5.79849736,13.1314413 5.79849736,10.7234449 C5.79849736,8.31497066 7.75824993,6.3552181 10.1662463,6.3552181 C12.5747206,6.3552181 14.5344731,8.31497066 14.5344731,10.7234449 C14.5344731,13.1314413 12.5751984,15.0916718 10.1662463,15.0916718 L10.1662463,15.0916718 Z M0,4.20288316 L9.19568853,4.20288316 L9.19568853,2.93986779 L0,2.93986779 L0,4.20288316 Z M0,1.26301537 L9.19568853,1.26301537 L9.19568853,0 L0,0 L0,1.26301537 Z" id="Fill-3" fill="" mask="url(#mask-4)"></path>
                            </g>
                            <polygon id="Fill-5" fill="" points="14.6296174 14.128521 12.4672472 14.128521 12.4672472 11.3262803 13.0985159 11.3262803 13.0985159 13.4967744 14.6296174 13.4967744"></polygon>
                        </g>
                    </g>
                </g>
            </g>
        </g>
    </g>
</svg>
