<?xml version="1.0" encoding="UTF-8"?>
<svg width="20px" height="20px" viewBox="0 0 20 20" version="1.1" xmlns="http://www.w3.org/2000/svg" xmlns:xlink="http://www.w3.org/1999/xlink">
    <title>delete-outlined</title>
    <g id="页面-1" stroke="none" stroke-width="1" fill="currentColor" fill-rule="evenodd">
        <g id="icon" transform="translate(-20.000000, -328.000000)" fill="currentColor" fill-rule="nonzero">
            <g id="侧边栏/实例" transform="translate(0.000000, 8.000000)">
                <g id="一级导航备份-3" transform="translate(0.000000, 300.000000)">
                    <g id="delete-outlined" transform="translate(20.000000, 20.000000)">
                        <rect id="矩形" opacity="0" x="0" y="0" width="20" height="20"></rect>
                        <path d="M7.03125,3.59375 L6.875,3.59375 C6.9609375,3.59375 7.03125,3.5234375 7.03125,3.4375 L7.03125,3.59375 L12.96875,3.59375 L12.96875,3.4375 C12.96875,3.5234375 13.0390625,3.59375 13.125,3.59375 L12.96875,3.59375 L12.96875,5 L14.375,5 L14.375,3.4375 C14.375,2.74804688 13.8144531,2.1875 13.125,2.1875 L6.875,2.1875 C6.18554688,2.1875 5.625,2.74804688 5.625,3.4375 L5.625,5 L7.03125,5 L7.03125,3.59375 Z M16.875,5 L3.125,5 C2.77929688,5 2.5,5.27929688 2.5,5.625 L2.5,6.25 C2.5,6.3359375 2.5703125,6.40625 2.65625,6.40625 L3.8359375,6.40625 L4.31835938,16.6210938 C4.34960938,17.2871094 4.90039062,17.8125 5.56640625,17.8125 L14.4335938,17.8125 C15.1015625,17.8125 15.6503906,17.2890625 15.6816406,16.6210938 L16.1640625,6.40625 L17.34375,6.40625 C17.4296875,6.40625 17.5,6.3359375 17.5,6.25 L17.5,5.625 C17.5,5.27929688 17.2207031,5 16.875,5 Z M14.2832031,16.40625 L5.71679688,16.40625 L5.24414062,6.40625 L14.7558594,6.40625 L14.2832031,16.40625 Z" id="形状"></path>
                    </g>
                </g>
            </g>
        </g>
    </g>
</svg>
