<?xml version="1.0" encoding="UTF-8"?>
<svg width="20px" height="20px" viewBox="0 0 20 20" version="1.1" xmlns="http://www.w3.org/2000/svg" xmlns:xlink="http://www.w3.org/1999/xlink">
    <title>camera</title>
    <g id="页面-1" stroke="none" stroke-width="1" fill="currentColor" fill-rule="evenodd">
        <g id="icon" transform="translate(-20.000000, -208.000000)" fill="currentColor" fill-rule="nonzero">
            <g id="侧边栏/实例" transform="translate(0.000000, 8.000000)">
                <g id="一级导航备份" transform="translate(0.000000, 180.000000)">
                    <g id="camera" transform="translate(20.000000, 20.000000)">
                        <rect id="矩形" opacity="0" x="0" y="0" width="20" height="20"></rect>
                        <path d="M16.875,4.84375 L14.21875,4.84375 L13.5859375,3.0703125 C13.4960938,2.82226562 13.2617188,2.65625 12.9960938,2.65625 L7.00390625,2.65625 C6.74023438,2.65625 6.50390625,2.82226562 6.41601562,3.0703125 L5.78125,4.84375 L3.125,4.84375 C2.26171875,4.84375 1.5625,5.54296875 1.5625,6.40625 L1.5625,15.3125 C1.5625,16.1757812 2.26171875,16.875 3.125,16.875 L16.875,16.875 C17.7382812,16.875 18.4375,16.1757812 18.4375,15.3125 L18.4375,6.40625 C18.4375,5.54296875 17.7382812,4.84375 16.875,4.84375 Z M17.03125,15.3125 C17.03125,15.3984375 16.9609375,15.46875 16.875,15.46875 L3.125,15.46875 C3.0390625,15.46875 2.96875,15.3984375 2.96875,15.3125 L2.96875,6.40625 C2.96875,6.3203125 3.0390625,6.25 3.125,6.25 L6.77148438,6.25 L7.10546875,5.31640625 L7.55273438,4.0625 L12.4453125,4.0625 L12.8925781,5.31640625 L13.2265625,6.25 L16.875,6.25 C16.9609375,6.25 17.03125,6.3203125 17.03125,6.40625 L17.03125,15.3125 Z M10,7.5 C8.2734375,7.5 6.875,8.8984375 6.875,10.625 C6.875,12.3515625 8.2734375,13.75 10,13.75 C11.7265625,13.75 13.125,12.3515625 13.125,10.625 C13.125,8.8984375 11.7265625,7.5 10,7.5 Z M10,12.5 C8.96484375,12.5 8.125,11.6601562 8.125,10.625 C8.125,9.58984375 8.96484375,8.75 10,8.75 C11.0351562,8.75 11.875,9.58984375 11.875,10.625 C11.875,11.6601562 11.0351562,12.5 10,12.5 Z" id="形状"></path>
                    </g>
                </g>
            </g>
        </g>
    </g>
</svg>
