<?xml version="1.0" encoding="UTF-8"?>
<svg width="18px" height="18px" viewBox="0 0 18 18" version="1.1" xmlns="http://www.w3.org/2000/svg" xmlns:xlink="http://www.w3.org/1999/xlink">
    <g id="主账号" stroke="none" stroke-width="1" fill="currentColor" fill-rule="evenodd">
        <g id="访问管理-----角色--详情" transform="translate(-41.000000, -141.000000)" fill="currentColor" fill-rule="nonzero">
            <g id="侧边栏/个人中心" transform="translate(0.000000, 60.000000)">
                <g id="编组" transform="translate(41.000000, 80.000000)">
                    <g id="cloud-sync-outlined" transform="translate(0.000000, 1.000000)">
                        <rect id="矩形" opacity="0" x="0" y="0" width="18" height="18"></rect>
                        <path d="M14.2628906,6.48457031 C13.4578125,4.359375 11.4064453,2.84765625 9.00351563,2.84765625 C6.60058594,2.84765625 4.54921875,4.35761719 3.74414062,6.4828125 C2.23066406,6.88183594 1.11621094,8.26523437 1.12494838,9.90703125 C1.13554687,11.7421875 2.559375,13.2345703 4.35234375,13.3945312 C4.43496094,13.4015625 4.50527344,13.3365234 4.50527344,13.2539062 L4.50527344,12.1921875 C4.50527344,12.121875 4.45253906,12.0621094 4.38222656,12.0533203 C3.90761719,11.9935547 3.459375,11.7861328 3.11484375,11.446875 C2.69296875,11.0337891 2.4609375,10.4783203 2.4609375,9.88945312 C2.4609375,9.39726562 2.62089844,8.93320312 2.92148437,8.54648437 C3.21503906,8.1703125 3.628125,7.89785156 4.08339844,7.77832031 L4.74960937,7.60253906 L4.99394531,6.95742188 C5.14511719,6.55664062 5.35605469,6.18046875 5.62148437,5.84121094 C5.88339844,5.50371094 6.19453125,5.20839844 6.54257812,4.96230469 C7.26503906,4.45429688 8.11582031,4.18535156 9.00351563,4.18535156 C9.89121094,4.18535156 10.7419922,4.45429688 11.4644531,4.9640625 C11.8142578,5.21015625 12.1236328,5.50546875 12.3855469,5.84296875 C12.6509766,6.18222656 12.8619141,6.55839844 13.0130859,6.95917969 L13.2556641,7.60253906 L13.9201172,7.77832031 C14.8728516,8.03144531 15.5390625,8.89804688 15.5390625,9.88769531 C15.5390625,10.4783203 15.3070312,11.0320312 14.8851562,11.4451172 C14.5423828,11.7826172 14.0958984,11.9917969 13.6212891,12.0515625 C13.5509766,12.0603516 13.5,12.1201172 13.5,12.1904297 L13.5,13.2539062 C13.5,13.3365234 13.5720703,13.4015625 13.6546875,13.3945312 C15.4423828,13.2328125 16.8626953,11.7421875 16.8750743,9.91054687 C16.8855469,8.26875 15.7728516,6.88535156 14.2628906,6.48457031 L14.2628906,6.48457031 Z" id="路径"></path>
                        <path d="M6.62519531,11.5382813 C6.65683594,10.9494141 6.90117187,10.4009766 7.31953125,9.98085937 C7.76601562,9.53261719 8.37421875,9.28125 9.00703125,9.28125 C9.64335937,9.28125 10.2427734,9.52910156 10.6945312,9.98085937 C10.7191406,10.0054687 10.7419922,10.0300781 10.7666016,10.0564453 L10.3271484,10.4009766 C10.2339844,10.4730469 10.265625,10.6207031 10.3798828,10.6488281 L12.1060547,11.0707031 C12.1939453,11.0917969 12.2800781,11.025 12.2800781,10.9353516 L12.2888672,9.1546875 C12.2888672,9.03691406 12.1552734,8.97011719 12.0621094,9.04394531 L11.6542969,9.36386719 C11.0109375,8.62558594 10.0652344,8.15800781 9.00878906,8.15800781 C7.12089844,8.15800781 5.58105469,9.65390625 5.50371094,11.5277344 C5.50019531,11.6068359 5.56347656,11.6736328 5.64433594,11.6736328 L6.48632812,11.6736328 C6.56015625,11.671875 6.62167969,11.6138672 6.62519531,11.5382812 L6.62519531,11.5382813 Z M12.3574219,11.671875 L11.5154297,11.671875 C11.4416016,11.671875 11.3800781,11.7298828 11.3748047,11.8054688 C11.3431641,12.3943359 11.0988281,12.9427734 10.6804687,13.3628906 C10.2339844,13.8111328 9.62578125,14.0625 8.99296875,14.0625 C8.35664062,14.0625 7.75722656,13.8146484 7.30546875,13.3628906 C7.28085937,13.3382813 7.25800781,13.3136719 7.23339844,13.2873047 L7.67285156,12.9427734 C7.76601562,12.8707031 7.734375,12.7230469 7.62011719,12.6949219 L5.89394531,12.2730469 C5.80605469,12.2519531 5.71992187,12.31875 5.71992187,12.4083984 L5.71289062,14.1908203 C5.71289062,14.3085938 5.84648438,14.3753906 5.93964844,14.3015625 L6.34746094,13.9816406 C6.99082031,14.7199219 7.93652344,15.1875 8.99296875,15.1875 C10.8808594,15.1875 12.4207031,13.6916016 12.4980469,11.8177734 C12.5015625,11.7386719 12.4382812,11.671875 12.3574219,11.671875 Z" id="形状"></path>
                    </g>
                </g>
            </g>
        </g>
    </g>
</svg>
