<?xml version="1.0" encoding="UTF-8"?>
<svg width="18px" height="18px" viewBox="0 0 18 18" version="1.1" xmlns="http://www.w3.org/2000/svg" xmlns:xlink="http://www.w3.org/1999/xlink">
    <g id="主账号" stroke="none" stroke-width="1" fill="none" fill-rule="evenodd">
        <g id="费用账单-资金管理-支付方式" transform="translate(-41.000000, -381.000000)" fill="currentColor" fill-rule="nonzero">
            <g id="编组-16备份" transform="translate(0.000000, 360.000000)">
                <g id="资金安全" transform="translate(41.000000, 21.000000)">
                    <rect id="矩形" opacity="0" x="0" y="0" width="18" height="18"></rect>
                    <path d="M9,18 L8.775,18 C8.1,17.775 7.425,17.55 6.8625,17.325 C4.1625,16.425 1.2375,15.4125 1.2375,11.7 L1.2375,3.0375 C1.2375,2.7 1.4625,2.475 1.8,2.475 C6.3,2.475 8.6625,0.1125 8.6625,0.1125 C8.6625,0.1125 8.8875,0 9,0 C9.1125,0 9.3375,0.1125 9.45,0.225 C9.45,0.225 11.8125,2.5875 16.3125,2.5875 C16.65,2.5875 16.875,2.8125 16.875,3.15 L16.875,11.7 C16.875,15.4125 13.8375,16.425 11.25,17.325 C10.575,17.55 9.9,17.775 9.3375,18 L9,18 Z M2.25,3.6 L2.25,11.5875 C2.25,14.5125 4.5,15.3 7.0875,16.2 C7.7625,16.425 8.4375,16.5375 9,16.875 C9.5625,16.65 10.2375,16.425 10.8,16.2 C13.3875,15.3 15.6375,14.625 15.6375,11.5875 L15.6375,3.6 C12.0375,3.4875 9.7875,2.025 8.8875,1.2375 C8.1,2.025 5.85,3.4875 2.25,3.6 Z" id="形状"></path>
                    <path d="M9,13.5 C8.6625,13.5 8.4375,13.275 8.4375,12.9375 L8.4375,7.875 C8.4375,7.5375 8.6625,7.3125 9,7.3125 C9.3375,7.3125 9.5625,7.5375 9.5625,7.875 L9.5625,12.9375 C9.5625,13.275 9.3375,13.5 9,13.5 Z" id="路径"></path>
                    <path d="M11.475,9.675 L6.525,9.675 C6.1875,9.675 5.9625,9.45 5.9625,9.1125 C5.9625,8.775 6.1875,8.55 6.525,8.55 L11.5875,8.55 C11.925,8.55 12.15,8.775 12.15,9.1125 C12.15,9.45 11.8125,9.675 11.475,9.675 L11.475,9.675 Z M11.475,11.7 L6.525,11.7 C6.1875,11.7 5.9625,11.475 5.9625,11.1375 C5.9625,10.8 6.1875,10.575 6.525,10.575 L11.5875,10.575 C11.925,10.575 12.15,10.8 12.15,11.1375 C12.15,11.475 11.8125,11.7 11.475,11.7 L11.475,11.7 Z M9,8.4375 C8.8875,8.4375 8.6625,8.4375 8.55,8.325 L6.3,5.9625 C6.075,5.7375 6.075,5.4 6.3,5.175 C6.525,4.95 6.8625,4.95 7.0875,5.175 L9.45,7.5375 C9.675,7.7625 9.675,8.1 9.45,8.325 C9.3375,8.325 9.1125,8.4375 9,8.4375 L9,8.4375 Z" id="形状"></path>
                    <path d="M9,8.4375 C8.8875,8.4375 8.6625,8.4375 8.55,8.325 C8.325,8.1 8.325,7.7625 8.55,7.5375 L10.9125,5.175 C11.1375,4.95 11.475,4.95 11.7,5.175 C11.925,5.4 11.925,5.7375 11.7,5.9625 L9.45,8.2125 C9.3375,8.325 9.1125,8.4375 9,8.4375 L9,8.4375 Z" id="路径"></path>
                </g>
            </g>
        </g>
    </g>
</svg>
