<svg xmlns="http://www.w3.org/2000/svg" width="17.799" height="17.001" viewBox="0 0 17.799 17.001">
  <g id="编组_9" data-name="编组 9" transform="translate(0.498 0.501)">
    <path id="排除_21" data-name="排除 21" d="M19424.2,15736h-12a1.6,1.6,0,0,1-1.6-1.6v-4h-.8a.8.8,0,0,1,0-1.6h.8v-2.4h-.8a.8.8,0,0,1,0-1.6h.8v-3.2a1.6,1.6,0,0,1,1.6-1.6h12a1.6,1.6,0,0,1,1.6,1.6v12.8A1.6,1.6,0,0,1,19424.2,15736Zm-12-5.6h0v4h12v-12.8h-12v3.2h.8a.8.8,0,0,1,0,1.6h-.8v2.4h.8a.8.8,0,0,1,0,1.6Zm9.6-.8h-1.6a.8.8,0,0,1,0-1.6h1.6a.8.8,0,0,1,0,1.6Zm0-3.2h-4.8a.8.8,0,1,1,0-1.6h4.8a.8.8,0,0,1,0,1.6Z" transform="translate(-19409 -15720)" fill="currentColor" stroke="rgba(0,0,0,0)" stroke-miterlimit="10" stroke-width="1"/>
  </g>
</svg>
