<?xml version="1.0" encoding="UTF-8"?>
<svg width="18px" height="18px" viewBox="0 0 18 18" version="1.1" xmlns="http://www.w3.org/2000/svg" xmlns:xlink="http://www.w3.org/1999/xlink">
    <title>切片</title>
    <g id="主账号" stroke="none" stroke-width="1" fill="none" fill-rule="evenodd">
        <g id="费用账单-发票管理备份" transform="translate(-41.000000, -141.000000)">
            <g id="编组" transform="translate(41.000000, 140.000000)">
                <g id="订单管理" transform="translate(0.000000, 1.000000)">
                    <rect id="矩形备份-16" x="0" y="0" width="18" height="18"></rect>
                    <path d="M11.9031688,0.4 L3.75,0.4 C2.43298711,0.4 1.4,1.58055669 1.4,3 L1.4,15 C1.4,16.4194433 2.43298711,17.6 3.75,17.6 L14.25,17.6 C15.5670129,17.6 16.6,16.4194433 16.6,15 L16.6,5.78803754 L11.9031688,0.4 Z M11.357,1.6 L15.4,6.238 L15.4,15 C15.4,15.7896957 14.8659837,16.4 14.25,16.4 L3.75,16.4 C3.13401627,16.4 2.6,15.7896957 2.6,15 L2.6,3 C2.6,2.21030431 3.13401627,1.6 3.75,1.6 L11.357,1.6 Z" id="路径" fill="currentColor" fill-rule="nonzero"></path>
                    <path d="M13.5,8.9 C13.8313708,8.9 14.1,9.16862915 14.1,9.5 C14.1,9.83137085 13.8313708,10.1 13.5,10.1 L4.5,10.1 C4.16862915,10.1 3.9,9.83137085 3.9,9.5 C3.9,9.16862915 4.16862915,8.9 4.5,8.9 L13.5,8.9 Z" id="直线-7" fill="currentColor" fill-rule="nonzero"></path>
                    <path d="M10.5,11.9 C10.8313708,11.9 11.1,12.1686292 11.1,12.5 C11.1,12.8313708 10.8313708,13.1 10.5,13.1 L4.5,13.1 C4.16862915,13.1 3.9,12.8313708 3.9,12.5 C3.9,12.1686292 4.16862915,11.9 4.5,11.9 L10.5,11.9 Z" id="直线-7备份" fill="currentColor" fill-rule="nonzero"></path>
                    <polygon id="路径-3" fill="currentColor" fill-rule="nonzero" points="11.8848975 1 11.8848975 5.439 15.9960373 5.41285385 16.0039627 6.61282768 10.6848975 6.64795857 10.6848975 1"></polygon>
                </g>
            </g>
        </g>
    </g>
</svg>
