<?xml version="1.0" encoding="UTF-8"?>
<svg width="20px" height="20px" viewBox="0 0 20 20" version="1.1" xmlns="http://www.w3.org/2000/svg" xmlns:xlink="http://www.w3.org/1999/xlink">
    <title>project-outlined</title>
    <g id="页面-1" stroke="none" stroke-width="1" fill="currentColor" fill-rule="evenodd">
        <g id="icon" transform="translate(-320.000000, -208.000000)" fill="currentColor" fill-rule="nonzero">
            <g id="组-52" transform="translate(300.000000, 8.000000)">
                <g id="一级导航" transform="translate(0.000000, 180.000000)">
                    <g id="project-outlined" transform="translate(20.000000, 20.000000)">
                        <rect id="矩形" opacity="0" x="0" y="0" width="20" height="20"></rect>
                        <path d="M5.46875,14.6875 L7.03125,14.6875 C7.1171875,14.6875 7.1875,14.6171875 7.1875,14.53125 L7.1875,5.46875 C7.1875,5.3828125 7.1171875,5.3125 7.03125,5.3125 L5.46875,5.3125 C5.3828125,5.3125 5.3125,5.3828125 5.3125,5.46875 L5.3125,14.53125 C5.3125,14.6171875 5.3828125,14.6875 5.46875,14.6875 Z M9.21875,9.21875 L10.78125,9.21875 C10.8671875,9.21875 10.9375,9.1484375 10.9375,9.0625 L10.9375,5.46875 C10.9375,5.3828125 10.8671875,5.3125 10.78125,5.3125 L9.21875,5.3125 C9.1328125,5.3125 9.0625,5.3828125 9.0625,5.46875 L9.0625,9.0625 C9.0625,9.1484375 9.1328125,9.21875 9.21875,9.21875 Z M12.96875,10.625 L14.53125,10.625 C14.6171875,10.625 14.6875,10.5546875 14.6875,10.46875 L14.6875,5.46875 C14.6875,5.3828125 14.6171875,5.3125 14.53125,5.3125 L12.96875,5.3125 C12.8828125,5.3125 12.8125,5.3828125 12.8125,5.46875 L12.8125,10.46875 C12.8125,10.5546875 12.8828125,10.625 12.96875,10.625 Z M17.1875,2.1875 L2.8125,2.1875 C2.46679688,2.1875 2.1875,2.46679688 2.1875,2.8125 L2.1875,17.1875 C2.1875,17.5332031 2.46679688,17.8125 2.8125,17.8125 L17.1875,17.8125 C17.5332031,17.8125 17.8125,17.5332031 17.8125,17.1875 L17.8125,2.8125 C17.8125,2.46679688 17.5332031,2.1875 17.1875,2.1875 Z M16.40625,16.40625 L3.59375,16.40625 L3.59375,3.59375 L16.40625,3.59375 L16.40625,16.40625 Z" id="形状"></path>
                    </g>
                </g>
            </g>
        </g>
    </g>
</svg>
