<?xml version="1.0" encoding="UTF-8"?>
<svg width="18px" height="18px" viewBox="0 0 18 18" version="1.1" xmlns="http://www.w3.org/2000/svg" xmlns:xlink="http://www.w3.org/1999/xlink">
    <g id="主账号" stroke="none" stroke-width="1" fill="currentColor" fill-rule="evenodd">
        <g id="访问管理-----角色--详情" transform="translate(-41.000000, -81.000000)" fill="currentColor" fill-rule="nonzero">
            <g id="侧边栏/个人中心" transform="translate(0.000000, 60.000000)">
                <g id="账号信息备份" transform="translate(41.000000, 21.000000)">
                    <rect id="矩形" opacity="0" x="0" y="0" width="18" height="18"></rect>
                    <path d="M8,3.84292646 C8,4.16972786 7.75306944,4.43550226 7.4457595,4.44304537 L7.4323503,4.44320586 L2.67098355,4.44320586 C2.37902011,4.44320586 2.1425548,4.68747436 2.13545135,4.99028224 L2.13528041,5.00432527 L2.13528041,13.8559688 C2.13528041,14.1605622 2.3673393,14.4094448 2.65753637,14.4169077 L2.67098355,14.4170883 L4.00557043,14.4170883 C4.31907216,14.4170883 4.57322013,14.6858318 4.57322013,15.0173677 C4.57322013,15.3441691 4.32627058,15.6099635 4.01896064,15.6174866 L4.00557043,15.6176471 L2.67098355,15.6176471 C1.75792356,15.6176471 1.01498563,14.8452202 1.00022792,13.8851382 L1,13.8559688 L1,5.00432527 C1,4.04049185 1.73380219,3.25843544 2.64336744,3.24290786 L2.67098355,3.24264706 L7.4323503,3.24264706 C7.74585202,3.24264706 8,3.51139055 8,3.84292646 Z M15.8985776,6.126168 C15.8985776,7.47879635 15.2232641,8.67550541 14.1885186,9.401534 C16.4263606,10.3169718 18,12.4869103 18,15.018672 C18,15.3494675 17.7282171,15.6176471 17.3929166,15.6176471 C17.0624301,15.6176471 16.7936332,15.3570743 16.7860159,15.0328046 L16.7858534,15.018672 C16.7858534,12.3218828 14.5597928,10.134709 11.8125102,10.134709 C9.09271052,10.134709 6.88373279,12.278364 6.83981689,14.9379198 L6.83914657,15.018672 C6.83914657,15.3494675 6.56736364,15.6176471 6.23208344,15.6176471 C5.89680324,15.6176471 5.625,15.3494675 5.625,15.018672 C5.625,12.4644902 7.22660991,10.2785775 9.49599739,9.3773524 C8.48038642,8.64922193 7.81979952,7.4639631 7.81979952,6.126168 C7.81981983,3.91325113 9.62739976,2.11764706 11.8592292,2.11764706 C14.091018,2.11764706 15.8985776,3.91325113 15.8985776,6.126168 Z M7,10.4926471 C7,10.7648548 6.77298921,10.9862471 6.49044808,10.9925134 L6.47811965,10.9926471 L3.52188035,10.9926471 C3.23366395,10.9926471 3,10.7687984 3,10.4926471 C3,10.2204393 3.22701079,9.99904703 3.50956938,9.99278074 L3.52188035,9.99264706 L6.47813711,9.99264706 C6.76635351,9.99264706 7,10.2165124 7,10.4926471 Z M11.8125101,3.24264706 C10.2601375,3.24264706 9,4.50094902 9,6.05513704 C9,7.60934509 10.2601173,8.86764706 11.8125101,8.86764706 C13.3648827,8.86764706 14.625,7.60934509 14.625,6.05513704 C14.625,4.50094902 13.3648827,3.24264706 11.8125101,3.24264706 L11.8125101,3.24264706 Z M6.82650299,6.61764706 C7.10643234,6.61764706 7.33333333,6.84149573 7.33333333,7.11764706 C7.33333333,7.3898548 7.11287646,7.61124709 6.83849245,7.61751338 L6.82651994,7.61764706 L3.39570228,7.61764706 C3.11580684,7.61764706 2.88888889,7.39378168 2.88888889,7.11764706 C2.88888889,6.84543932 3.10934576,6.62404703 3.38374673,6.61778074 L3.39570228,6.61764706 L6.82651994,6.61764706 L6.82650299,6.61764706 Z" id="形状"></path>
                </g>
            </g>
        </g>
    </g>
</svg>
