<?xml version="1.0" encoding="UTF-8"?>
<svg width="20px" height="20px" viewBox="0 0 20 20" version="1.1" xmlns="http://www.w3.org/2000/svg" xmlns:xlink="http://www.w3.org/1999/xlink">
    <title>编组 10</title>
    <g id="页面-1" stroke="none" stroke-width="1" fill="currentColor" fill-rule="evenodd">
        <g id="icon" transform="translate(-320.000000, -387.000000)" fill="currentColor" fill-rule="nonzero">
            <g id="一级导航备份-3" transform="translate(300.000000, 367.000000)">
                <g id="编组-10" transform="translate(20.000000, 20.000000)">
                    <rect id="矩形" opacity="0" x="0" y="0" width="20" height="20"></rect>
                    <path d="M17.0048,2 C17.3506138,2 17.63,2.27938625 17.63,2.6252 L17.63,17.0048 C17.63,17.3506138 17.3506138,17.63 17.0048,17.63 L2.6252,17.63 C2.27938625,17.63 2,17.3506138 2,17.0048 L2,2.6252 C2,2.27938625 2.27938625,2 2.6252,2 Z M16.2233,3.4067 L3.4067,3.4067 L3.4067,16.2233 L16.2233,16.2233 L16.2233,3.4067 Z M6.96801166,6.37642657 C7.07591429,6.37642657 7.16338666,6.46389894 7.16338666,6.57180157 L7.16338666,13.058225 C7.16338666,13.1661276 7.07591429,13.2536 6.96801166,13.2536 L5.846543,13.2536 C5.73864037,13.2536 5.651168,13.1661276 5.651168,13.058225 L5.651168,6.57180157 C5.651168,6.46389894 5.73864037,6.37642657 5.846543,6.37642657 L6.96801166,6.37642657 Z M11.5940372,6.3764 C12.0241445,6.3764 12.3901544,6.43900938 12.6920666,6.56422816 C12.9938193,6.68944693 13.2394204,6.85484627 13.4288961,7.06026671 C13.618239,7.26584659 13.7563729,7.50018003 13.8430854,7.76339988 C13.9297712,8.02677918 13.9731142,8.29961898 13.9731142,8.58210531 C13.9731142,8.85826692 13.9297712,9.12961855 13.8430854,9.39600077 C13.7563729,9.66254242 13.618239,9.89852348 13.4288961,10.1039439 C13.2394204,10.3095504 12.9937928,10.4747903 12.6920666,10.600009 C12.3901544,10.7252012 12.0241711,10.7878106 11.5940372,10.7878106 L10.0047526,10.7878106 L10.0047526,13.0581984 C10.0047526,13.166101 9.91728027,13.2535734 9.80937764,13.2535734 L8.68793555,13.2535734 C8.58003292,13.2535734 8.49256055,13.166101 8.49256055,13.0581984 L8.49256055,6.571775 C8.49256055,6.46387237 8.58003292,6.3764 8.68793555,6.3764 Z M11.1798479,7.55152186 L10.0047526,7.55152186 L10.0047526,9.61276849 L11.1798479,9.61276849 C11.3532461,9.61276849 11.5201337,9.59995961 11.680723,9.57423555 C11.8411529,9.54864436 11.9824492,9.49881728 12.1045322,9.42494033 C12.2264292,9.35116968 12.3244092,9.24673212 12.3983127,9.1118934 C12.4720302,8.9770281 12.5090749,8.80049408 12.5090749,8.58213189 C12.5090749,8.36390256 12.4720302,8.18723567 12.3983127,8.05237037 C12.3243825,7.91753165 12.2264292,7.81325353 12.1045322,7.73935001 C11.9824492,7.66560593 11.8411529,7.61580543 11.680723,7.5900548 C11.5201337,7.5644636 11.3532196,7.55152186 11.1798479,7.55152186 Z" id="形状结合"></path>
                </g>
            </g>
        </g>
    </g>
</svg>
