<?xml version="1.0" encoding="UTF-8"?>
<svg width="20px" height="20px" viewBox="0 0 20 20" version="1.1" xmlns="http://www.w3.org/2000/svg" xmlns:xlink="http://www.w3.org/1999/xlink">
    <title>safetycertificate-outlined</title>
    <g id="页面-1" stroke="none" stroke-width="1" fill="currentColor" fill-rule="evenodd">
        <g id="icon" transform="translate(-320.000000, -328.000000)" fill="currentColor" fill-rule="nonzero">
            <g id="组-52" transform="translate(300.000000, 8.000000)">
                <g id="一级导航备份-2" transform="translate(0.000000, 300.000000)">
                    <g id="safetycertificate-outlined" transform="translate(20.000000, 20.000000)">
                        <rect id="矩形" opacity="0" x="0" y="0" width="20" height="20"></rect>
                        <path d="M16.9316406,3.31835938 L10.2949219,1.05664062 C10.2148438,1.02929688 10.1074219,1.015625 10,1.015625 C9.89257812,1.015625 9.78515625,1.02929688 9.70507812,1.05664062 L3.06835938,3.31835938 C2.90625,3.37304688 2.7734375,3.56054688 2.7734375,3.73242187 L2.7734375,13.1542969 C2.7734375,13.3261719 2.88476562,13.5527344 3.01953125,13.6601562 L9.75195312,18.90625 C9.8203125,18.9589844 9.90820312,18.9863281 9.99804688,18.9863281 C10.0878906,18.9863281 10.1777344,18.9589844 10.2441406,18.90625 L16.9765625,13.6601562 C17.1113281,13.5546875 17.2227403,13.328125 17.2227403,13.1542969 L17.2227403,3.73242187 C17.2265625,3.56054687 17.09375,3.375 16.9316406,3.31835938 Z M15.8203125,12.7792969 L10,17.3144531 L4.1796875,12.7792969 L4.1796875,4.42773438 L10,2.44335938 L15.8203125,4.42773438 L15.8203125,12.7792969 Z M7.89453125,8.85351562 C7.8359375,8.7734375 7.7421875,8.72460938 7.640625,8.72460938 L6.5625,8.72460938 C6.43554687,8.72460938 6.36132812,8.86914062 6.43554687,8.97265625 L8.90429687,12.3710938 C9.02929687,12.5429687 9.28710937,12.5429687 9.41210937,12.3710938 L13.5644531,6.65429688 C13.6386719,6.55078125 13.5644531,6.40625 13.4375,6.40625 L12.359375,6.40625 C12.2597656,6.40625 12.1640625,6.45507812 12.1054687,6.53515625 L9.15820312,10.59375 L7.89453125,8.85351562 Z" id="形状"></path>
                    </g>
                </g>
            </g>
        </g>
    </g>
</svg>
