<svg xmlns="http://www.w3.org/2000/svg" width="17.779" height="16.001" viewBox="0 0 17.779 16.001">
  <g id="箱子" transform="translate(-0.002 0.004)">
    <path id="形状" d="M2.672,16A1.781,1.781,0,0,1,.893,14.219V5.332A1.572,1.572,0,0,1,.908,5.1,1.783,1.783,0,0,1,0,3.554V1.775A1.768,1.768,0,0,1,.527.522,1.739,1.739,0,0,1,1.779,0H16a1.787,1.787,0,0,1,1.779,1.778V3.554a1.774,1.774,0,0,1-.908,1.55l.005.035.006.055a1.338,1.338,0,0,1,.01.138v8.887A1.781,1.781,0,0,1,15.116,16Zm0-1.778H15.116V5.332H2.672ZM1.779,3.559H16V1.78H1.779ZM6.224,8.889a.889.889,0,0,1,0-1.778h5.333a.889.889,0,1,1,0,1.778Z" fill="currentColor"/>
  </g>
</svg>
