<?xml version="1.0" encoding="UTF-8"?>
<svg width="20px" height="20px" viewBox="0 0 20 20" version="1.1" xmlns="http://www.w3.org/2000/svg" xmlns:xlink="http://www.w3.org/1999/xlink">
    <title>sever</title>
    <g id="页面-1" stroke="none" stroke-width="1" fill="currentColor" fill-rule="evenodd">
        <g id="icon" transform="translate(-20.000000, -88.000000)" fill="currentColor" fill-rule="nonzero">
            <g id="侧边栏/实例" transform="translate(0.000000, 8.000000)">
                <g id="一级导航-1" transform="translate(0.000000, 60.000000)">
                    <g id="sever" transform="translate(20.000000, 20.000000)">
                        <rect id="矩形" opacity="0" x="0" y="0" width="20" height="20"></rect>
                        <path d="M16.25,1.25 L3.75,1.25 C3.40429688,1.25 3.125,1.52929688 3.125,1.875 L3.125,18.125 C3.125,18.4707031 3.40429688,18.75 3.75,18.75 L16.25,18.75 C16.5957031,18.75 16.875,18.4707031 16.875,18.125 L16.875,1.875 C16.875,1.52929688 16.5957031,1.25 16.25,1.25 Z M4.53125,2.65625 L15.46875,2.65625 L15.46875,6.71875 L4.53125,6.71875 L4.53125,2.65625 Z M15.46875,12.03125 L4.53125,12.03125 L4.53125,7.96875 L15.46875,7.96875 L15.46875,12.03125 Z M15.46875,17.34375 L4.53125,17.34375 L4.53125,13.28125 L15.46875,13.28125 L15.46875,17.34375 Z M9.6875,4.0625 L6.09375,4.0625 C6.0078125,4.0625 5.9375,4.1328125 5.9375,4.21875 L5.9375,5.15625 C5.9375,5.2421875 6.0078125,5.3125 6.09375,5.3125 L9.6875,5.3125 C9.7734375,5.3125 9.84375,5.2421875 9.84375,5.15625 L9.84375,4.21875 C9.84375,4.1328125 9.7734375,4.0625 9.6875,4.0625 Z M6.09375,10.625 L9.6875,10.625 C9.7734375,10.625 9.84375,10.5546875 9.84375,10.46875 L9.84375,9.53125 C9.84375,9.4453125 9.7734375,9.375 9.6875,9.375 L6.09375,9.375 C6.0078125,9.375 5.9375,9.4453125 5.9375,9.53125 L5.9375,10.46875 C5.9375,10.5546875 6.0078125,10.625 6.09375,10.625 Z M12.5,15.390625 C12.5,15.8220975 12.8497775,16.171875 13.28125,16.171875 C13.7127225,16.171875 14.0625,15.8220975 14.0625,15.390625 C14.0625,14.9591525 13.7127225,14.609375 13.28125,14.609375 C12.8497775,14.609375 12.5,14.9591525 12.5,15.390625 L12.5,15.390625 Z" id="形状"></path>
                    </g>
                </g>
            </g>
        </g>
    </g>
</svg>
