<?xml version="1.0" encoding="UTF-8"?>
<svg width="20px" height="20px" viewBox="0 0 20 20" version="1.1" xmlns="http://www.w3.org/2000/svg" xmlns:xlink="http://www.w3.org/1999/xlink">
    <title>shake</title>
    <g id="页面-1" stroke="none" stroke-width="1" fill="currentColor" fill-rule="evenodd">
        <g id="icon" transform="translate(-20.000000, -148.000000)" fill="currentColor" fill-rule="nonzero">
            <g id="侧边栏/实例" transform="translate(0.000000, 8.000000)">
                <g id="一级导航" transform="translate(0.000000, 120.000000)">
                    <g id="shake" transform="translate(20.000000, 20.000000)">
                        <rect id="矩形" opacity="0" x="0" y="0" width="20" height="20"></rect>
                        <path d="M6.328125,13.0078125 C6.328125,13.5255795 6.74785805,13.9453125 7.265625,13.9453125 C7.78339195,13.9453125 8.203125,13.5255795 8.203125,13.0078125 C8.203125,12.4900455 7.78339195,12.0703125 7.265625,12.0703125 C6.74785805,12.0703125 6.328125,12.4900455 6.328125,13.0078125 Z M18.3730469,6.9609375 L13.0390625,1.625 C12.796875,1.38476562 12.4746094,1.25 12.1308594,1.25 C11.7871094,1.25 11.4648437,1.3828125 11.2226562,1.625 L1.62695313,11.2207031 C1.125,11.7226563 1.125,12.5371094 1.62695313,13.0390625 L6.96289062,18.375 C7.203125,18.6152344 7.52734375,18.75 7.87109375,18.75 C8.21484375,18.75 8.53710938,18.6171875 8.77929688,18.375 L18.375,8.77929688 C18.875,8.27734375 18.875,7.4609375 18.3730469,6.9609375 Z M7.87109375,17.1894531 L2.81054688,12.1289063 L12.1308594,2.80859375 L17.1894531,7.87109375 L7.87109375,17.1894531 Z M2.984375,7.29882812 C3.04492188,7.359375 3.14257813,7.359375 3.203125,7.29882812 L7.29882813,3.203125 C7.359375,3.14257812 7.359375,3.04492188 7.29882813,2.984375 L6.54882813,2.234375 C6.48828125,2.17382812 6.390625,2.17382812 6.33007813,2.234375 L2.23242188,6.32617188 C2.171875,6.38671875 2.171875,6.484375 2.23242188,6.54492187 L2.984375,7.29882812 Z M17.0195313,12.7011719 C16.9589844,12.640625 16.8613281,12.640625 16.8007813,12.7011719 L12.7011719,16.7988281 C12.640625,16.859375 12.640625,16.9570313 12.7011719,17.0175781 L13.4511719,17.7675781 C13.5117188,17.828125 13.609375,17.828125 13.6699219,17.7675781 L17.7675781,13.671875 C17.828125,13.6113281 17.828125,13.5136719 17.7675781,13.453125 L17.0195313,12.7011719 Z" id="形状"></path>
                    </g>
                </g>
            </g>
        </g>
    </g>
</svg>
