<svg xmlns="http://www.w3.org/2000/svg" width="18.691" height="17.002" viewBox="0 0 18.691 17.002">
  <g id="编组_8" data-name="编组 8" transform="translate(0.498 0.501)">
    <path id="排除_19" data-name="排除 19" d="M19425.744,15858h-13.8a1.922,1.922,0,0,1-1.941-1.9,1.839,1.839,0,0,1,.238-.916l6.9-12.21a1.949,1.949,0,0,1,1.7-.979,1.972,1.972,0,0,1,.938.238,1.945,1.945,0,0,1,.76.741l6.9,12.21a1.837,1.837,0,0,1,.17,1.428,1.9,1.9,0,0,1-.926,1.146A1.955,1.955,0,0,1,19425.744,15858Zm-6.9-14.315a.477.477,0,0,0-.365.166l-.045.068-6.689,11.721a.5.5,0,0,0-.059.22.464.464,0,0,0,.385.448l.088,0h13.375a.507.507,0,0,0,.225-.054.449.449,0,0,0,.219-.546l-.033-.073-6.686-11.721a.4.4,0,0,0-.117-.132l-.068-.044A.452.452,0,0,0,19418.84,15843.686Zm0,11.79a.844.844,0,1,1,.838-.844A.845.845,0,0,1,19418.84,15855.476Zm0-2.526a.844.844,0,0,1-.844-.843v-3.369a.841.841,0,1,1,1.682,0v3.369A.842.842,0,0,1,19418.84,15852.949Z" transform="translate(-19409.998 -15842)" fill="currentColor" stroke="rgba(0,0,0,0)" stroke-miterlimit="10" stroke-width="1"/>
  </g>
</svg>
