<?xml version="1.0" encoding="UTF-8"?>
<svg width="20px" height="20px" viewBox="0 0 20 20" version="1.1" xmlns="http://www.w3.org/2000/svg" xmlns:xlink="http://www.w3.org/1999/xlink">
    <title>服务概览</title>
    <g id="汇总" stroke="none" stroke-width="1">
        <g id="服务概览" >
            <rect id="矩形" opacity="0" x="0" y="0" width="20" height="20"></rect>
            <path d="M9.0625,2.8125 L3.125,2.8125 C2.953125,2.8125 2.8125,2.953125 2.8125,3.125 L2.8125,9.0625 C2.8125,9.234375 2.953125,9.375 3.125,9.375 L9.0625,9.375 C9.234375,9.375 9.375,9.234375 9.375,9.0625 L9.375,3.125 C9.375,2.953125 9.234375,2.8125 9.0625,2.8125 Z M8.046875,8.046875 L4.140625,8.046875 L4.140625,4.140625 L8.046875,4.140625 L8.046875,8.046875 Z M16.875,2.8125 L10.9375,2.8125 C10.765625,2.8125 10.625,2.953125 10.625,3.125 L10.625,9.0625 C10.625,9.234375 10.765625,9.375 10.9375,9.375 L16.875,9.375 C17.046875,9.375 17.1875,9.234375 17.1875,9.0625 L17.1875,3.125 C17.1875,2.953125 17.046875,2.8125 16.875,2.8125 Z M15.859375,8.046875 L11.953125,8.046875 L11.953125,4.140625 L15.859375,4.140625 L15.859375,8.046875 Z M9.0625,10.625 L3.125,10.625 C2.953125,10.625 2.8125,10.765625 2.8125,10.9375 L2.8125,16.875 C2.8125,17.046875 2.953125,17.1875 3.125,17.1875 L9.0625,17.1875 C9.234375,17.1875 9.375,17.046875 9.375,16.875 L9.375,10.9375 C9.375,10.765625 9.234375,10.625 9.0625,10.625 Z M8.046875,15.859375 L4.140625,15.859375 L4.140625,11.953125 L8.046875,11.953125 L8.046875,15.859375 Z M16.875,10.625 L10.9375,10.625 C10.765625,10.625 10.625,10.765625 10.625,10.9375 L10.625,16.875 C10.625,17.046875 10.765625,17.1875 10.9375,17.1875 L16.875,17.1875 C17.046875,17.1875 17.1875,17.046875 17.1875,16.875 L17.1875,10.9375 C17.1875,10.765625 17.046875,10.625 16.875,10.625 Z M15.859375,15.859375 L11.953125,15.859375 L11.953125,11.953125 L15.859375,11.953125 L15.859375,15.859375 Z" id="形状"></path>
        </g>
    </g>
</svg>