<?xml version="1.0" encoding="UTF-8"?>
<svg width="18px" height="18px" viewBox="0 0 18 18" version="1.1" xmlns="http://www.w3.org/2000/svg" xmlns:xlink="http://www.w3.org/1999/xlink">
    <title>切片</title>
    <g id="主账号" stroke="none" stroke-width="1" fill="none" fill-rule="evenodd">
        <g id="费用账单-账单查看--资源账单" transform="translate(-41.000000, -621.000000)">
            <g id="编组-16" transform="translate(0.000000, 600.000000)">
                <g id="导出记录" transform="translate(41.000000, 21.000000)">
                    <rect id="矩形备份-22" x="0" y="0" width="18" height="18"></rect>
                    <path d="M14.125,0.4 C15.5008695,0.4 16.6,1.57240585 16.6,3 L16.6,4.67661754 C16.6,5.00798839 16.3313708,5.27661754 16,5.27661754 C15.6686292,5.27661754 15.4,5.00798839 15.4,4.67661754 L15.4,3 C15.4,2.21845515 14.8201983,1.6 14.125,1.6 L2.875,1.6 C2.1798017,1.6 1.6,2.21845515 1.6,3 L1.6,15 C1.6,15.7815448 2.1798017,16.4 2.875,16.4 L14.125,16.4 C14.8201983,16.4 15.4,15.7815448 15.4,15 L15.4,13.5578056 C15.4,13.2264348 15.6686292,12.9578056 16,12.9578056 C16.3313708,12.9578056 16.6,13.2264348 16.6,13.5578056 L16.6,15 C16.6,16.4275942 15.5008695,17.6 14.125,17.6 L2.875,17.6 C1.49913048,17.6 0.4,16.4275942 0.4,15 L0.4,3 C0.4,1.57240585 1.49913048,0.4 2.875,0.4 L14.125,0.4 Z" id="路径" fill="currentColor" fill-rule="nonzero"></path>
                    <path d="M13.6296788,6.16114244 L16.4288916,8.77084127 C16.5018287,8.83884034 16.5540217,8.92075792 16.5851929,9.00866431 C16.6457798,9.10235461 16.6812336,9.21445802 16.6812336,9.33484212 C16.6812336,9.42230861 16.6625178,9.5054038 16.6288725,9.5803414 C16.6244125,9.7417934 16.5547218,9.90144077 16.4228098,10.016134 L13.505034,12.5530445 C13.2549676,12.770469 12.8759913,12.7440076 12.6585667,12.4939412 C12.4411422,12.2438748 12.4676036,11.8648985 12.71767,11.6474739 L14.687,9.934 L5.6,9.93484212 C5.26862915,9.93484212 5,9.66621297 5,9.33484212 C5,9.00347127 5.26862915,8.73484212 5.6,8.73484212 L14.63,8.734 L12.811383,7.03886217 C12.5690073,6.81289601 12.5557049,6.43322999 12.781671,6.19085438 C13.0076372,5.94847877 13.3873032,5.93517628 13.6296788,6.16114244 Z" id="形状结合" fill="currentColor" fill-rule="nonzero"></path>
                </g>
            </g>
        </g>
    </g>
</svg>
