<?xml version="1.0" encoding="UTF-8"?>
<svg width="18px" height="18px" viewBox="0 0 18 18" version="1.1" xmlns="http://www.w3.org/2000/svg" xmlns:xlink="http://www.w3.org/1999/xlink">
    <g id="主账号" stroke="none" stroke-width="1" fill="none" fill-rule="evenodd">
        <g id="费用中心-订单管理-订单详情--待支付" transform="translate(-41.000000, -261.000000)">
            <g id="收支明细" transform="translate(41.000000, 261.000000)">
                <rect id="矩形备份-18" x="0" y="0" width="18" height="18"></rect>
                <path d="M14.125,1.4 C15.4830073,1.4 16.6,2.44252651 16.6,3.75 L16.6,4.73402493 C16.6,5.06539578 16.3313708,5.33402493 16,5.33402493 C15.6686292,5.33402493 15.4,5.06539578 15.4,4.73402493 L15.4,3.75 C15.4,3.12447686 14.8380605,2.6 14.125,2.6 L2.875,2.6 C2.1619395,2.6 1.6,3.12447686 1.6,3.75 L1.6,14.25 C1.6,14.8755231 2.1619395,15.4 2.875,15.4 L14.125,15.4 C14.8380605,15.4 15.4,14.8755231 15.4,14.25 L15.4,12.7388733 C15.4,12.4075024 15.6686292,12.1388733 16,12.1388733 C16.3313708,12.1388733 16.6,12.4075024 16.6,12.7388733 L16.6,14.25 C16.6,15.5574735 15.4830073,16.6 14.125,16.6 L2.875,16.6 C1.51699269,16.6 0.4,15.5574735 0.4,14.25 L0.4,3.75 C0.4,2.44252651 1.51699269,1.4 2.875,1.4 L14.125,1.4 Z" id="路径" fill="currentColor" fill-rule="nonzero"></path>
                <path d="M17,6 C17.5522847,6 18,6.44771525 18,7 L18,10.4254917 C18,10.9777765 17.5522847,11.4254917 17,11.4254917 L11,11.4254917 C10.4477153,11.4254917 10,10.9777765 10,10.4254917 L10,7 C10,6.44771525 10.4477153,6 11,6 L17,6 Z M16.8,7.2 L11.2,7.2 L11.2,10.225 L16.8,10.225 L16.8,7.2 Z" id="矩形备份-19" fill="currentColor" fill-rule="nonzero"></path>
                <circle id="椭圆形" fill="currentColor" cx="12.6" cy="8.6" r="1"></circle>
            </g>
        </g>
    </g>
</svg>
