<?xml version="1.0" encoding="UTF-8"?>
<svg width="20px" height="20px" viewBox="0 0 20 20" version="1.1" xmlns="http://www.w3.org/2000/svg" xmlns:xlink="http://www.w3.org/1999/xlink">
    <title>统计分析</title>
    <g id="汇总" stroke="none" stroke-width="1" >
        <g id="统计分析">
            <rect id="矩形" opacity="0" x="0" y="0" width="20" height="20"></rect>
            <path d="M16.875,10.1171875 L9.8828125,10.1171875 L9.8828125,3.125 C9.8828125,3.0390625 9.8125,2.96875 9.7265625,2.96875 L9.21875,2.96875 C8.1640625,2.96875 7.140625,3.17578125 6.17773438,3.58203125 C5.24804688,3.97460937 4.41210938,4.5390625 3.6953125,5.25585938 C2.97851563,5.97265625 2.4140625,6.80859375 2.02148438,7.73828125 C1.61328125,8.703125 1.40625,9.7265625 1.40625,10.78125 C1.40625,11.8359375 1.61328125,12.859375 2.01953125,13.8222656 C2.41210938,14.7519531 2.9765625,15.5878906 3.69335938,16.3046875 C4.41015625,17.0214844 5.24609375,17.5859375 6.17578125,17.9785156 C7.140625,18.3867188 8.1640625,18.59375 9.21875,18.59375 C10.2734375,18.59375 11.296875,18.3867188 12.2597656,17.9804688 C13.1894531,17.5878906 14.0253906,17.0234375 14.7421875,16.3066406 C15.4589844,15.5898437 16.0234375,14.7539062 16.4160156,13.8242187 C16.8242188,12.859375 17.03125,11.8359375 17.03125,10.78125 L17.03125,10.2734375 C17.03125,10.1875 16.9609375,10.1171875 16.875,10.1171875 Z M13.7832031,15.3867187 C12.5605469,16.5996094 10.9101563,17.2734375 9.1875,17.2656922 C7.46679688,17.2578125 5.84960938,16.5839844 4.6328125,15.3671875 C3.40820313,14.1425781 2.734375,12.5136719 2.734375,10.78125 C2.734375,9.04882812 3.40820313,7.41992187 4.6328125,6.1953125 C5.69921875,5.12890625 7.07226563,4.47851562 8.5546875,4.33007812 L8.5546875,11.4453125 L15.6699219,11.4453125 C15.5195313,12.9355469 14.8632813,14.3164062 13.7832031,15.3867187 Z M18.59375,9.03125 L18.5429688,8.48046875 C18.3769531,6.68164062 17.578125,4.984375 16.2929687,3.703125 C15.0078125,2.41992188 13.3085937,1.62304687 11.5039063,1.45703125 L10.9511719,1.40625 C10.859375,1.3984375 10.78125,1.46875 10.78125,1.56054688 L10.78125,9.0625 C10.78125,9.1484375 10.8515625,9.21875 10.9375,9.21875 L18.4375,9.19921875 C18.5292969,9.19921875 18.6015625,9.12109375 18.59375,9.03125 Z M12.1054688,7.89453125 L12.1054688,2.8828125 C13.328125,3.13867187 14.4628906,3.74609375 15.3554688,4.63671875 C16.2480469,5.52734375 16.859375,6.66015625 17.1132813,7.88085937 L12.1054688,7.89453125 Z" id="形状"></path>
        </g>
    </g>
</svg>