<?xml version="1.0" encoding="UTF-8"?>
<svg width="18px" height="18px" viewBox="0 0 18 18" version="1.1" xmlns="http://www.w3.org/2000/svg" xmlns:xlink="http://www.w3.org/1999/xlink">
    <title>切片</title>
    <g id="主账号" stroke="none" stroke-width="1" fill="none" fill-rule="evenodd">
        <g id="费用中心-订单管理-订单详情--待支付" transform="translate(-41.000000, -201.000000)">
            <g id="续费管理" transform="translate(41.000000, 201.000000)">
                <rect id="矩形备份-17" x="0" y="0" width="17.9841793" height="17.9841793"></rect>
                <path d="M1.21660716,10.9470931 C1.53077329,10.8426262 1.87014245,11.012621 1.97460939,11.3267871 C2.97095738,14.3231302 5.78363616,16.3855855 8.99208961,16.3855855 C12.150531,16.3855855 14.9291415,14.3868048 15.9648655,11.4571238 C16.0752183,11.1449764 16.4177223,10.9813896 16.7298697,11.0917424 C17.042017,11.2020952 17.2056038,11.5445993 17.095251,11.8567466 C15.8914519,15.2618501 12.662571,17.5845308 8.99208961,17.5845308 C5.26343146,17.5845308 1.99502001,15.1879 0.836913178,11.7050953 C0.732446239,11.3909292 0.902441024,11.05156 1.21660716,10.9470931 Z M8.99208961,0.399648429 C12.599544,0.399648429 15.7849297,2.6434245 17.0355814,5.96397298 C17.1522766,6.27380508 16.9957082,6.61957378 16.6858761,6.73626897 C16.376044,6.85296417 16.0302753,6.69639578 15.9135801,6.38656367 C14.8374686,3.52942907 12.0963505,1.59859372 8.99208961,1.59859372 C6.04824892,1.59859372 3.42153118,3.33470271 2.23980706,5.97549951 C2.10457535,6.27770157 1.74996521,6.41305778 1.44776315,6.27782607 C1.14556109,6.14259436 1.01020488,5.78798423 1.14543659,5.48578217 C2.51853737,2.41731628 5.5712512,0.399648429 8.99208961,0.399648429 Z" id="形状" fill="currentColor" fill-rule="nonzero"></path>
                <path d="M12.4443054,5.72063936 C12.6342048,5.99184389 12.568294,6.36564252 12.2970895,6.55554198 L10.1688662,8.0449587 L12.1979616,8.0453559 C12.5290412,8.0453559 12.7974342,8.31374895 12.7974342,8.64482855 C12.7974342,8.97590815 12.5290412,9.24430119 12.1979616,9.24430119 L10.0908662,9.2439587 L10.0908662,10.0429587 L12.1979616,10.043598 C12.5290412,10.043598 12.7974342,10.3119911 12.7974342,10.6430707 C12.7974342,10.9741503 12.5290412,11.2425433 12.1979616,11.2425433 L10.0908662,11.2419587 L10.0911228,13.6708354 C10.0911228,14.001915 9.82272978,14.270308 9.49165018,14.270308 C9.16057058,14.270308 8.89217754,14.001915 8.89217754,13.6708354 L8.89186616,11.2419587 L6.7853388,11.2425433 C6.4542592,11.2425433 6.18586616,10.9741503 6.18586616,10.6430707 C6.18586616,10.3119911 6.4542592,10.043598 6.7853388,10.043598 L8.89186616,10.0429587 L8.89186616,9.2439587 L6.7853388,9.24430119 C6.4542592,9.24430119 6.18586616,8.97590815 6.18586616,8.64482855 C6.18586616,8.31374895 6.4542592,8.0453559 6.7853388,8.0453559 L8.81386616,8.0449587 L6.68621086,6.55554198 C6.41500633,6.36564252 6.34909554,5.99184389 6.538995,5.72063936 C6.72889446,5.44943483 7.10269309,5.38352404 7.37389762,5.5734235 L9.49086616,7.0559587 L11.6094027,5.5734235 C11.8806073,5.38352404 12.2544059,5.44943483 12.4443054,5.72063936 Z" id="形状结合" fill="currentColor" fill-rule="nonzero"></path>
                <line x1="14.2260161" y1="6.15871647" x2="16.4649504" y2="5.98566999" id="直线-7备份-8" stroke="currentColor" stroke-width="1.2" stroke-linecap="round" transform="translate(15.345483, 6.072193) rotate(16.000000) translate(-15.345483, -6.072193) "></line>
                <line x1="1.30998139" y1="11.6654464" x2="3.91527816" y2="11.5583041" id="直线-7备份-9" stroke="currentColor" stroke-width="1.2" stroke-linecap="round" transform="translate(2.612630, 11.611875) rotate(16.000000) translate(-2.612630, -11.611875) "></line>
            </g>
        </g>
    </g>
</svg>
