<?xml version="1.0" encoding="UTF-8"?>
<svg width="20px" height="20px" viewBox="0 0 20 20" version="1.1" xmlns="http://www.w3.org/2000/svg" xmlns:xlink="http://www.w3.org/1999/xlink">
    <title>filedone-outlined</title>
    <g id="控制台" stroke="none" stroke-width="1" fill="none" fill-rule="evenodd">
        <g id="域名-概览-" transform="translate(-20.000000, -320.000000)" fill="currentColor" fill-rule="nonzero">
            <g id="侧边栏/实例" transform="translate(0.000000, 60.000000)">
                <g id="一级导航备份-2" transform="translate(0.000000, 240.000000)">
                    <g id="filedone-outlined" transform="translate(20.000000, 20.000000)">
                        <rect id="矩形" opacity="0" x="0" y="0" width="20" height="20"></rect>
                        <path d="M13.4375,6.09375 L13.4375,5.15625 C13.4375,5.0703125 13.3671875,5 13.28125,5 L5.78125,5 C5.6953125,5 5.625,5.0703125 5.625,5.15625 L5.625,6.09375 C5.625,6.1796875 5.6953125,6.25 5.78125,6.25 L13.28125,6.25 C13.3671875,6.25 13.4375,6.1796875 13.4375,6.09375 Z M5.78125,7.8125 C5.6953125,7.8125 5.625,7.8828125 5.625,7.96875 L5.625,8.90625 C5.625,8.9921875 5.6953125,9.0625 5.78125,9.0625 L9.375,9.0625 C9.4609375,9.0625 9.53125,8.9921875 9.53125,8.90625 L9.53125,7.96875 C9.53125,7.8828125 9.4609375,7.8125 9.375,7.8125 L5.78125,7.8125 Z M13.125,10.078125 C10.7949219,10.078125 8.90625,11.9667969 8.90625,14.296875 C8.90625,16.6269531 10.7949219,18.515625 13.125,18.515625 C15.4550781,18.515625 17.34375,16.6269531 17.34375,14.296875 C17.34375,11.9667969 15.4550781,10.078125 13.125,10.078125 Z M15.2246094,16.3964844 C14.6640625,16.9570312 13.9179688,17.265625 13.125,17.265625 C12.3320312,17.265625 11.5859375,16.9570312 11.0253906,16.3964844 C10.4648438,15.8359375 10.15625,15.0898438 10.15625,14.296875 C10.15625,13.5039062 10.4648438,12.7578125 11.0253906,12.1972656 C11.5859375,11.6367188 12.3320312,11.328125 13.125,11.328125 C13.9179688,11.328125 14.6640625,11.6367188 15.2246094,12.1972656 C15.7851562,12.7578125 16.09375,13.5039062 16.09375,14.296875 C16.09375,15.0898438 15.7851562,15.8359375 15.2246094,16.3964844 Z M14.8632813,12.8125 L13.9980469,12.8125 C13.9472656,12.8125 13.9003906,12.8359375 13.8710938,12.8769531 L12.6308594,14.5917969 L12.1796875,13.96875 C12.1503906,13.9277344 12.1035156,13.9042969 12.0527344,13.9042969 L11.1914062,13.9042969 C11.0644531,13.9042969 10.9902344,14.0488281 11.0644531,14.1523438 L12.5058594,16.1464844 C12.5683594,16.2324219 12.6953125,16.2324219 12.7578125,16.1464844 L14.9882813,13.0605469 C15.0644531,12.9570313 14.9902344,12.8125 14.8632813,12.8125 Z M8.59375,16.640625 L4.0625,16.640625 L4.0625,2.890625 L15,2.890625 L15,9.609375 C15,9.6953125 15.0703125,9.765625 15.15625,9.765625 L16.25,9.765625 C16.3359375,9.765625 16.40625,9.6953125 16.40625,9.609375 L16.40625,2.109375 C16.40625,1.76367188 16.1269531,1.484375 15.78125,1.484375 L3.28125,1.484375 C2.93554688,1.484375 2.65625,1.76367188 2.65625,2.109375 L2.65625,17.421875 C2.65625,17.7675781 2.93554688,18.046875 3.28125,18.046875 L8.59375,18.046875 C8.6796875,18.046875 8.75,17.9765625 8.75,17.890625 L8.75,16.796875 C8.75,16.7109375 8.6796875,16.640625 8.59375,16.640625 Z" id="形状"></path>
                    </g>
                </g>
            </g>
        </g>
    </g>
</svg>
