<svg xmlns="http://www.w3.org/2000/svg" xmlns:xlink="http://www.w3.org/1999/xlink" fill="none" version="1.1" width="20" height="20" viewBox="0 0 20 20"><defs><clipPath id="master_svg0_6_0315"><rect x="0" y="0" width="20" height="20" rx="0"/></clipPath></defs><g clip-path="url(#master_svg0_6_0315)"><g><path d="M10.028749976158142,5.49375C7.6124999761581424,5.49375,5.653749976158142,7.4525,5.653749976158142,9.86875C5.653749976158142,12.285,7.6124999761581424,14.2438,10.028749976158142,14.2438C12.444999976158142,14.2438,14.403699976158142,12.285,14.403699976158142,9.86875C14.403699976158142,7.4525,12.444999976158142,5.49375,10.028749976158142,5.49375ZM10.028749976158142,12.99375C8.302499976158142,12.99375,6.903749976158142,11.595,6.903749976158142,9.86875C6.903749976158142,8.1425,8.302499976158142,6.74375,10.028749976158142,6.74375C11.754999976158143,6.74375,13.153699976158142,8.1425,13.153699976158142,9.86875C13.153699976158142,11.595,11.754999976158143,12.99375,10.028749976158142,12.99375ZM18.694999976158144,7.67C16.57869997615814,4.80875,13.481299976158143,3,10.022499976158143,3C6.563749976158142,3,3.467499976158142,4.80875,1.351249976158142,7.67C0.4162499761581421,8.93375,0.4162499761581421,10.811250000000001,1.351249976158142,12.07375C3.467499976158142,14.935,6.564999976158142,16.7437,10.023749976158141,16.7437C13.482499976158142,16.7437,16.578799976158145,14.935,18.69619997615814,12.07375C19.629999976158143,10.811250000000001,19.629999976158143,8.93375,18.694999976158144,7.67ZM17.754999976158143,11.0375C15.792499976158142,13.87,12.966199976158142,15.4962,10.001249976158142,15.4962C7.038749976158142,15.4962,4.212499976158142,13.87,2.248749976158142,11.03875C1.7812499761581422,10.36375,1.7812499761581422,9.38375,2.248749976158142,8.70875C4.212499976158142,5.875,7.038749976158142,4.25125,10.001249976158142,4.25125C12.966299976158142,4.25125,15.792499976158142,5.876250000000001,17.754999976158143,8.70875C18.222499976158144,9.3825,18.222499976158144,10.36375,17.754999976158143,11.0375Z" fill="#222222" fill-opacity="1"/></g></g></svg>