<?xml version="1.0" encoding="UTF-8"?>
<svg width="20px" height="20px" viewBox="0 0 20 20" version="1.1" xmlns="http://www.w3.org/2000/svg" xmlns:xlink="http://www.w3.org/1999/xlink">
    <title>切片</title>
    <g id="汇总" stroke="none" stroke-width="1" fill="none" fill-rule="evenodd">
        <g id="DNS-解析-监控任务-监控列表-更多设置" transform="translate(-587.000000, -677.000000)" fill-rule="nonzero">
            <g id="编组-12备份" transform="translate(80.000000, 140.000000)">
                <g id="编组-5" transform="translate(20.000000, 143.000000)">
                    <g id="icon_添加" transform="translate(487.000000, 394.000000)">
                        <rect id="矩形" fill="#000000" opacity="0" x="0" y="0" width="20" height="20"></rect>
                        <path d="M0.625,10 C0.625,4.82237538 4.82222199,0.625 10,0.625 C15.177625,0.625 19.375,4.82222199 19.375,10 C19.375,15.177625 15.1774041,19.375 9.99916633,19.375 C4.82429703,19.3685722 0.630968603,15.1748705 0.625,10 Z M1.875,10 C1.87469254,14.4881455 5.51284194,18.1266689 10.0008337,18.1266689 C14.488519,18.1269757 18.1266689,14.4888258 18.1266689,10.0008337 C18.1269757,5.5131495 14.4884523,1.8750002 10,1.875 C5.51478028,1.88005189 1.88005169,5.51478028 1.875,10 Z M9.375,15 L9.375,10.625 L5,10.625 C4.65482195,10.625 4.375,10.3451777 4.375,10 C4.375,9.65482235 4.65482195,9.375 5,9.375 L9.375,9.375 L9.375,5 C9.375,4.65482195 9.65482235,4.375 10,4.375 C10.3451777,4.375 10.625,4.65482195 10.625,5 L10.625,9.375 L15,9.375 C15.3451777,9.375 15.625,9.65482235 15.625,10 C15.625,10.3451777 15.3451777,10.625 15,10.625 L10.625,10.625 L10.625,15 C10.625,15.3451777 10.3451777,15.625 10,15.625 C9.65482235,15.625 9.375,15.3451777 9.375,15 Z" id="形状" fill="#0063FF"></path>
                    </g>
                </g>
            </g>
        </g>
    </g>
</svg>