<svg xmlns="http://www.w3.org/2000/svg" xmlns:xlink="http://www.w3.org/1999/xlink" fill="none" version="1.1" width="16" height="16" viewBox="0 0 16 16"><defs><clipPath id="master_svg0_22_888"><rect x="0" y="0" width="16" height="16" rx="0"/></clipPath></defs><g clip-path="url(#master_svg0_22_888)"><g><g><path d="M-0.0020000000949949026,8.000000000047496C-0.0010761120949949027,3.5847700000474974,3.580379999905005,0.0060182500474974514,7.997999999905005,0.0060182500474974514C12.416499999905005,0.006942060047497451,15.997999999905005,3.5870500000474976,15.997999999905005,8.003010000047498C15.998199999905005,12.418800000047497,12.417599999905006,15.998900000047497,8.000009999905005,16.0000000000475C3.582519999905005,15.994500000047497,0.0029802499050050977,12.415800000047497,-0.0020000000949949026,8.000000000047496ZM1.102829999905005,8.000000000047496C1.1048699999050051,11.803400000047498,4.189099999905005,14.885500000047497,7.992979999905005,14.885500000047497C11.795899999905005,14.886500000047498,14.880199999905004,11.805800000047498,14.883099999905005,8.003330000047498C14.886099999905005,4.200880000047498,11.805899999905005,1.1154300000474975,8.002019999905006,1.1104400000474974C4.194909999905005,1.1115400000474975,1.1078199999050051,4.194320000047497,1.102829999905005,8.000000000047496ZM4.661399999905005,8.555220000047498C4.354649999905005,8.555220000047498,4.105969999905005,8.306640000047498,4.105969999905005,8.000000000047496C4.105969999905005,7.693360000047497,4.354649999905005,7.444780000047498,4.661399999905005,7.444780000047498L11.328599999905006,7.444780000047498C11.635299999905005,7.444780000047498,11.883999999905004,7.693360000047497,11.883999999905004,8.000000000047496C11.883999999905004,8.306640000047498,11.635299999905005,8.555220000047498,11.328599999905006,8.555220000047498L4.661399999905005,8.555220000047498Z" fill="#394AFF" fill-opacity="1"/></g></g></g></svg>