<?xml version="1.0" encoding="UTF-8"?>
<svg width="22px" height="22px" viewBox="0 0 22 22" version="1.1" xmlns="http://www.w3.org/2000/svg" xmlns:xlink="http://www.w3.org/1999/xlink">
    <title>webx Web应用托管服务器</title>
    <g id="页面-1" stroke="none" stroke-width="1" fill="none" fill-rule="evenodd">
        <g id="子用户" transform="translate(-720.000000, -692.000000)" fill="#0063FF" fill-rule="nonzero">
            <g id="webx-Web应用托管服务器" transform="translate(720.000000, 692.000000)">
                <rect id="矩形" opacity="0" x="0" y="0" width="22" height="22"></rect>
                <path d="M4.763,8.712 C4.444,9.493 4.257,10.362 4.257,11.231 C4.257,11.968 4.389,12.694 4.62,13.343 C5.038,12.661 5.588,11.88 6.27,11.055 C6.182,10.868 6.083,10.637 6.083,10.417 C6.083,10.23 6.127,10.098 6.171,9.955 C5.544,9.482 5.082,9.075 4.763,8.712 L4.763,8.712 Z M7.15,16.731 C7.381,16.544 7.568,16.368 7.788,16.225 C9.669,14.806 11.363,13.981 12.694,13.519 C12.694,13.431 12.65,13.332 12.65,13.244 L12.65,13.101 C12.188,12.958 11.682,12.826 11.231,12.639 C10.043,12.221 9.031,11.726 8.162,11.264 C7.931,11.495 7.612,11.627 7.293,11.627 C7.106,11.627 6.974,11.583 6.831,11.539 C5.962,12.551 5.368,13.508 4.95,14.245 C5.5,15.268 6.237,16.082 7.15,16.731 Z M11.506,11.968 C12.012,12.155 12.518,12.287 13.024,12.43 C13.156,12.298 13.299,12.199 13.442,12.155 C13.299,11.649 13.123,11.143 12.892,10.637 C12.573,9.9 12.21,9.218 11.836,8.624 C11.704,8.668 11.605,8.668 11.473,8.668 C11.198,8.668 10.923,8.58 10.692,8.393 C10.186,8.712 9.68,9.031 9.13,9.449 L8.448,9.999 C8.492,10.131 8.536,10.318 8.536,10.461 L8.536,10.648 C9.35,11.044 10.362,11.55 11.506,11.968 L11.506,11.968 Z M17.919,11.231 C17.919,9.306 17.094,7.524 15.719,6.325 C15.037,6.457 13.981,6.743 12.694,7.282 L12.694,7.414 C12.694,7.689 12.606,7.92 12.463,8.151 C12.881,8.789 13.244,9.526 13.607,10.351 C13.838,10.945 14.069,11.539 14.245,12.089 C14.608,12.177 14.927,12.452 15.114,12.826 C15.389,12.87 15.664,12.87 15.939,12.87 C16.621,12.914 17.27,12.87 17.776,12.87 C17.831,12.287 17.919,11.781 17.919,11.231 L17.919,11.231 Z M11.088,6.237 C11.22,6.193 11.319,6.193 11.451,6.193 C11.814,6.193 12.133,6.325 12.364,6.611 C13.376,6.149 14.245,5.874 14.927,5.698 C13.827,4.961 12.496,4.51 11.077,4.51 C10.571,4.51 10.021,4.554 9.559,4.697 C9.988,5.082 10.538,5.588 11.088,6.237 L11.088,6.237 Z M14.212,17.182 C14.256,16.5 14.212,15.576 13.981,14.432 L13.893,14.432 C13.574,14.432 13.299,14.344 13.112,14.157 C11.825,14.619 10.131,15.389 8.294,16.819 C8.162,16.907 8.019,17.05 7.832,17.138 C8.8,17.644 9.9,17.919 11.044,17.919 C12.188,17.963 13.288,17.688 14.212,17.182 L14.212,17.182 Z M5.137,7.975 C5.456,8.338 5.962,8.844 6.699,9.394 C6.886,9.306 7.117,9.207 7.337,9.207 C7.568,9.207 7.799,9.251 7.975,9.394 L8.657,8.844 C9.207,8.426 9.757,8.063 10.263,7.744 C10.219,7.656 10.219,7.557 10.219,7.425 C10.219,7.15 10.307,6.919 10.45,6.688 C9.768,5.918 9.163,5.313 8.668,4.95 C7.15,5.5 5.918,6.6 5.137,7.975 L5.137,7.975 Z M15.763,13.607 C15.631,13.607 15.4,13.607 15.081,13.695 C14.993,13.882 14.894,14.014 14.762,14.157 C14.949,15.169 15.037,16.038 15.037,16.72 C16.137,15.939 17.006,14.883 17.512,13.607 L15.763,13.607 L15.763,13.607 Z" id="形状"></path>
                <path d="M14.212,1.881 C14.025,1.331 13.53,0.913 12.881,0.913 C12.144,0.913 11.506,1.507 11.506,2.244 C11.506,2.981 12.1,3.575 12.881,3.575 C13.244,3.575 13.618,3.443 13.849,3.157 C17.281,4.345 19.712,7.513 19.712,11.22 C19.712,12.133 19.58,13.013 19.294,13.838 L20.482,14.52 C20.845,13.508 21.0760313,12.364 21.0760313,11.22 C21.087,6.875 18.194,3.168 14.212,1.881 L14.212,1.881 Z M18.106,15.906 C17.369,15.906 16.731,16.5 16.731,17.237 C16.731,17.38 16.775,17.468 16.775,17.6 C15.257,18.931 13.244,19.756 11.044,19.756 C8.525,19.756 6.226,18.656 4.631,16.962 L3.399,17.644 C5.236,19.756 7.986,21.076 11.011,21.076 C13.574,21.076 15.961,20.108 17.699,18.513 C17.787,18.557 17.886,18.557 18.018,18.557 C18.755,18.557 19.393,17.963 19.393,17.226 C19.393,16.489 18.843,15.906 18.106,15.906 L18.106,15.906 Z M2.618,12.881 C2.53,12.331 2.431,11.825 2.431,11.231 C2.431,7.15 5.368,3.762 9.262,2.937 L9.262,1.562 C4.587,2.387 1.056,6.413 1.056,11.231 C1.056,11.913 1.144,12.606 1.287,13.244 C1.056,13.475 0.924,13.794 0.924,14.157 C0.924,14.894 1.518,15.488 2.299,15.488 C3.036,15.488 3.674,14.894 3.674,14.157 C3.663,13.519 3.212,13.013 2.618,12.881 Z" id="形状"></path>
            </g>
        </g>
    </g>
</svg>