<?xml version="1.0" encoding="UTF-8"?>
<svg width="40px" height="40px" viewBox="0 0 40 40" version="1.1" xmlns="http://www.w3.org/2000/svg" xmlns:xlink="http://www.w3.org/1999/xlink">
    <title>切片</title>
    <g id="主账号" stroke="none" stroke-width="1" fill="none" fill-rule="evenodd">
        <g id="费用中心-账户信息2" transform="translate(-801.000000, -687.000000)">
            <g id="编组-9备份" transform="translate(772.000000, 687.000000)">
                <g id="费用账单" transform="translate(29.000000, 0.000000)">
                    <rect id="矩形备份-17" x="0" y="0" width="40" height="40"></rect>
                    <path d="M2.7059498,24.348274 C3.40471092,24.115921 4.15952803,24.4940195 4.39188101,25.1927806 C6.60793541,31.8571784 12.8638312,36.4444443 19.9999999,36.4444443 C27.0249329,36.4444443 33.2050548,31.9988019 35.5086885,25.4826725 C35.7541327,24.7884015 36.5159223,24.4245555 37.2101933,24.6699997 C37.9044642,24.9154438 38.2683102,25.6772335 38.0228661,26.3715044 C35.3454035,33.9450578 28.1638006,39.111111 19.9999999,39.111111 C11.7068038,39.111111 4.43727786,33.7805797 1.86144314,26.0342052 C1.62909016,25.335444 2.00718867,24.5806269 2.7059498,24.348274 Z M19.9999999,0.888888889 C28.0236174,0.888888889 35.1084793,5.87944428 37.8901503,13.2649322 C38.1497011,13.9540537 37.8014653,14.7231045 37.1123438,14.9826553 C36.4232223,15.2422061 35.6541715,14.8939702 35.3946207,14.2048488 C33.0011582,7.85007536 26.9044259,3.55555556 19.9999999,3.55555556 C13.4523768,3.55555556 7.61009135,7.41696946 4.98172759,13.2905693 C4.68094832,13.9627202 3.89223257,14.2637764 3.22008166,13.9629971 C2.54793076,13.6622178 2.24687457,12.8735021 2.54765384,12.2013512 C5.60167319,5.37653955 12.3914494,0.888888889 19.9999999,0.888888889 Z" id="形状" fill="#DDDDDD" fill-rule="nonzero"></path>
                    <path d="M27.6783392,12.7237151 C28.1007092,13.326922 27.954112,14.1583164 27.3509051,14.5806864 L22.6174619,17.8940361 L27.130427,17.8942965 C27.8668066,17.8942965 28.4637603,18.4912501 28.4637603,19.2276298 C28.4637603,19.9640095 27.8668066,20.5609631 27.130427,20.5609631 L22.4434619,20.5600361 L22.4434619,22.3380361 L27.130427,22.3387409 C27.8668066,22.3387409 28.4637603,22.9356946 28.4637603,23.6720743 C28.4637603,24.4084539 27.8668066,25.0054076 27.130427,25.0054076 L22.4434619,25.0050361 L22.4444444,30.4063592 C22.4444444,31.1427389 21.8474908,31.7396926 21.1111111,31.7396926 C20.3747314,31.7396926 19.7777778,31.1427389 19.7777778,30.4063592 L19.7774619,25.0050361 L15.0917953,25.0054076 C14.3554156,25.0054076 13.7584619,24.4084539 13.7584619,23.6720743 C13.7584619,22.9356946 14.3554156,22.3387409 15.0917953,22.3387409 L19.7774619,22.3380361 L19.7774619,20.5600361 L15.0917953,20.5609631 C14.3554156,20.5609631 13.7584619,19.9640095 13.7584619,19.2276298 C13.7584619,18.4912501 14.3554156,17.8942965 15.0917953,17.8942965 L19.6034619,17.8940361 L14.8713172,14.5806864 C14.2681103,14.1583164 14.121513,13.326922 14.543883,12.7237151 C14.9662531,12.1205082 15.7976474,11.973911 16.4008543,12.396281 L21.1104619,15.6940361 L25.8213679,12.396281 C26.4245748,11.973911 27.2559692,12.1205082 27.6783392,12.7237151 Z" id="形状结合" fill="#DDDDDD" fill-rule="nonzero"></path>
                    <line x1="31.6411794" y1="13.6980762" x2="36.6209658" y2="13.3131902" id="直线-7备份-8" stroke="#DDDDDD" stroke-width="1.2" stroke-linecap="round" transform="translate(34.131073, 13.505633) rotate(16.000000) translate(-34.131073, -13.505633) "></line>
                    <line x1="2.91363062" y1="25.946019" x2="8.70827207" y2="25.7077155" id="直线-7备份-9" stroke="#DDDDDD" stroke-width="1.2" stroke-linecap="round" transform="translate(5.810951, 25.826867) rotate(16.000000) translate(-5.810951, -25.826867) "></line>
                </g>
            </g>
        </g>
    </g>
</svg>