<?xml version="1.0" encoding="UTF-8"?>
<svg width="40px" height="40px" viewBox="0 0 40 40" version="1.1" xmlns="http://www.w3.org/2000/svg" xmlns:xlink="http://www.w3.org/1999/xlink">
    <title>切片</title>
    <g id="主账号" stroke="none" stroke-width="1" fill="none" fill-rule="evenodd">
        <g id="费用中心-账户信息2" transform="translate(-394.000000, -687.000000)">
            <g id="编组-9" transform="translate(372.000000, 687.000000)">
                <g id="费用账单" transform="translate(22.000000, 0.000000)">
                    <rect id="矩形备份-20" x="0" y="0" width="40" height="40"></rect>
                    <path d="M31.6666667,0.888888889 C34.593362,0.888888889 36.8888889,3.51234821 36.8888889,6.66666667 L36.8888889,13.610222 C36.8888889,14.3466017 36.2919352,14.9435554 35.5555556,14.9435554 C34.8191759,14.9435554 34.2222222,14.3466017 34.2222222,13.610222 L34.2222222,6.66666667 C34.2222222,4.91178735 33.0355194,3.55555556 31.6666667,3.55555556 L8.33333333,3.55555556 C6.9644806,3.55555556 5.77777778,4.91178735 5.77777778,6.66666667 L5.77777778,33.3333333 C5.77777778,35.0882126 6.9644806,36.4444444 8.33333333,36.4444444 L18.3333333,36.4444444 C19.069713,36.4444444 19.6666667,37.0413981 19.6666667,37.7777778 C19.6666667,38.5141574 19.069713,39.1111111 18.3333333,39.1111111 L8.33333333,39.1111111 C5.40663801,39.1111111 3.11111111,36.4876518 3.11111111,33.3333333 L3.11111111,6.66666667 C3.11111111,3.51234821 5.40663801,0.888888889 8.33333333,0.888888889 L31.6666667,0.888888889 Z" id="路径备份" fill="#DDDDDD" fill-rule="nonzero"></path>
                    <path d="M23.6111111,10.8888889 C24.3474908,10.8888889 24.9444444,11.4858426 24.9444444,12.2222222 C24.9444444,12.9586019 24.3474908,13.5555556 23.6111111,13.5555556 L11.6944444,13.5555556 C10.9580648,13.5555556 10.3611111,12.9586019 10.3611111,12.2222222 C10.3611111,11.4858426 10.9580648,10.8888889 11.6944444,10.8888889 L23.6111111,10.8888889 Z" id="直线-7备份-10" fill="#DDDDDD" fill-rule="nonzero"></path>
                    <path d="M36.5672281,21.612604 C36.9895981,22.2158109 36.8430009,23.0472053 36.2397939,23.4695753 L31.5063508,26.782925 L36.0193158,26.7831854 C36.7556955,26.7831854 37.3526492,27.380139 37.3526492,28.1165187 C37.3526492,28.8528984 36.7556955,29.449852 36.0193158,29.449852 L31.3323508,29.448925 L31.3323508,31.226925 L36.0193158,31.2276298 C36.7556955,31.2276298 37.3526492,31.8245835 37.3526492,32.5609631 C37.3526492,33.2973428 36.7556955,33.8942965 36.0193158,33.8942965 L31.3323508,33.893925 L31.3333333,37.0730259 C31.3333333,37.8094056 30.7363797,38.4063592 30,38.4063592 C29.2636203,38.4063592 28.6666667,37.8094056 28.6666667,37.0730259 L28.6663508,33.893925 L23.9806842,33.8942965 C23.2443045,33.8942965 22.6473508,33.2973428 22.6473508,32.5609631 C22.6473508,31.8245835 23.2443045,31.2276298 23.9806842,31.2276298 L28.6663508,31.226925 L28.6663508,29.448925 L23.9806842,29.449852 C23.2443045,29.449852 22.6473508,28.8528984 22.6473508,28.1165187 C22.6473508,27.380139 23.2443045,26.7831854 23.9806842,26.7831854 L28.4923508,26.782925 L23.7602061,23.4695753 C23.1569991,23.0472053 23.0104019,22.2158109 23.4327719,21.612604 C23.8551419,21.0093971 24.6865363,20.8627999 25.2897432,21.2851699 L29.9993508,24.582925 L34.7102568,21.2851699 C35.3134637,20.8627999 36.1448581,21.0093971 36.5672281,21.612604 Z" id="形状结合备份" fill="#DDDDDD" fill-rule="nonzero"></path>
                    <path d="M18.6111111,19.7777778 C19.3474908,19.7777778 19.9444444,20.3747314 19.9444444,21.1111111 C19.9444444,21.8474908 19.3474908,22.4444444 18.6111111,22.4444444 L11.6944444,22.4444444 C10.9580648,22.4444444 10.3611111,21.8474908 10.3611111,21.1111111 C10.3611111,20.3747314 10.9580648,19.7777778 11.6944444,19.7777778 L18.6111111,19.7777778 Z" id="直线-7备份-11" fill="#DDDDDD" fill-rule="nonzero"></path>
                </g>
            </g>
        </g>
    </g>
</svg>