<?xml version="1.0" encoding="UTF-8"?>
<svg width="40px" height="40px" viewBox="0 0 40 40" version="1.1" xmlns="http://www.w3.org/2000/svg" xmlns:xlink="http://www.w3.org/1999/xlink">
    <title>编组 8</title>
    <g id="主账号" stroke="none" stroke-width="1" fill="none" fill-rule="evenodd">
        <g id="费用中心-账户信息2" transform="translate(-1208.000000, -687.000000)" fill="#DDDDDD" fill-rule="nonzero">
            <g id="编组-8" transform="translate(1208.000000, 687.000000)">
                <path d="M30,21.6666016 C34.6023438,21.6666016 38.3333984,25.3976562 38.3333984,30 C38.3333984,34.6023437 34.6023438,38.3333984 30,38.3333984 C25.3976563,38.3333984 21.6666016,34.6023437 21.6666016,30 C21.6666016,25.3976562 25.3976563,21.6666016 30,21.6666016 Z M33.75,0 C35.1307119,0 36.25,1.11928813 36.25,2.5 L36.25,18.25 C36.25,18.9403559 35.6903559,19.5 35,19.5 C34.3096441,19.5 33.75,18.9403559 33.75,18.25 L33.75,2.5 L6.25,2.5 L6.25,35 L18.25,35 C18.9403559,35 19.5,35.5596441 19.5,36.25 C19.5,36.9403559 18.9403559,37.5 18.25,37.5 L6.25,37.5 C4.86928813,37.5 3.75,36.3807119 3.75,35 L3.75,2.5 C3.75,1.11928813 4.86928813,0 6.25,0 L33.75,0 Z M30,24 C26.6915888,24 24,26.6915888 24,30 C24,33.3084112 26.6915888,36 30,36 C33.3084112,36 36,33.3084112 36,30 C36,26.6915888 33.3084112,24 30,24 Z M29.1666992,26 C29.6269185,26 30,26.3730815 30,26.8333008 L30,30 L33.3333008,30 C33.7935201,30 34.1666016,30.3730815 34.1666016,30.8333008 C34.1666016,31.2935201 33.7935201,31.6666016 33.3333008,31.6666016 L28.3333984,31.6666016 L28.3333984,26.8333008 C28.3333984,26.3730815 28.7064799,26 29.1666992,26 Z M21.25,15 C22.0833333,15 22.5,15.4166667 22.5,16.25 C22.5,17.0833333 22.0833333,17.5 21.25,17.5 L11.25,17.5 C10.4166667,17.5 10,17.0833333 10,16.25 C10,15.4166667 10.4166667,15 11.25,15 L21.25,15 Z M28.75,7.5 C29.5833333,7.5 30,7.91666667 30,8.75 C30,9.58333333 29.5833333,10 28.75,10 L11.25,10 C10.4166667,10 10,9.58333333 10,8.75 C10,7.91666667 10.4166667,7.5 11.25,7.5 L28.75,7.5 Z" id="形状结合"></path>
            </g>
        </g>
    </g>
</svg>