<?xml version="1.0" encoding="UTF-8"?>
<svg width="16px" height="16px" viewBox="0 0 16 16" version="1.1" xmlns="http://www.w3.org/2000/svg" xmlns:xlink="http://www.w3.org/1999/xlink">
    <title>数据元</title>
    <g id="对象存储2.0" stroke="none" stroke-width="1" fill="none" fill-rule="evenodd">
        <g id="对象存储-概览-已开通" transform="translate(-850.000000, -456.000000)" fill-rule="nonzero">
            <g id="编组-5备份-2" transform="translate(830.000000, 376.000000)">
                <g id="编组-4备份-6" transform="translate(20.000000, 62.000000)">
                    <g id="数据元" transform="translate(0.000000, 18.000003)">
                        <rect id="矩形" fill="#000000" opacity="0" x="0" y="0" width="15.9999971" height="15.9999971"></rect>
                        <g id="编组-6" transform="translate(1.940000, 0.999997)" fill="#0063FF">
                            <path d="M6.02549499,10.642776 C3.89306569,10.7630748 1.77156022,10.1725456 0.021874996,8.9477646 L0.021874996,11.5941743 C0.14216013,12.7424065 2.67922216,14 6.06924498,14 C9.45926779,14 11.9744548,12.731469 12.116615,11.5722993 L12.116615,8.82747947 C11.7338709,9.16647355 11.2964393,9.43986998 10.8262226,9.65857892 C9.31710766,10.3256433 7.67677007,10.664651 6.02549499,10.642776 Z" id="路径"></path>
                            <path d="M10.8262226,5.07657391 C9.31710766,5.74363824 7.67677007,6.07170849 6.02549499,6.06077099 C3.89306569,6.1810698 1.77156022,5.59054061 0.021874996,4.36575958 L0.021874996,7.00123176 C0.14216013,8.14946397 2.66828467,9.41800866 6.05830748,9.41800866 C9.44833029,9.41800866 11.9744548,8.14947764 12.116615,6.99030793 L12.116615,4.24547445 C11.7338709,4.58446853 11.2964393,4.86880246 10.8262226,5.07657391 Z" id="路径"></path>
                            <path d="M6.01455749,4.9672126 C7.53460994,5.00002509 9.0437249,4.70476733 10.4434785,4.11423815 C11.4276756,3.64400776 12.0510036,3.03161725 12.0510036,2.48483806 C12.0510036,1.92712136 11.4495506,1.29286952 10.4434649,0.855437964 C9.04373857,0.264922448 7.54556111,-0.0303353103 6.03643248,0.00246351179 C2.58079835,0.00246351179 0,1.31473085 0,2.48483806 C0,3.65494526 2.56986086,4.9672126 6.01457116,4.9672126 L6.01455749,4.9672126 Z" id="路径"></path>
                        </g>
                    </g>
                </g>
            </g>
        </g>
    </g>
</svg>