<?xml version="1.0" encoding="UTF-8"?>
<svg width="18px" height="18px" viewBox="0 0 18 18" version="1.1" xmlns="http://www.w3.org/2000/svg" xmlns:xlink="http://www.w3.org/1999/xlink">
    <title>icon账号</title>
    <g id="账户中心" stroke="none" stroke-width="1" fill="none" fill-rule="evenodd">
        <g id="账户中心/海外" transform="translate(-431.000000, -693.000000)">
            <g id="编组备份" transform="translate(411.000000, 610.000000)">
                <g id="编组-2" transform="translate(0.000000, 68.000000)">
                    <g id="icon账号" transform="translate(20.000000, 15.000000)">
                        <rect id="矩形" x="0" y="0" width="18" height="18"></rect>
                        <g id="编组" transform="translate(2.454382, 1.636364)" fill="#7A8CA6" stroke="#7A8CA6" stroke-width="0.3">
                            <g transform="translate(0.000000, 4.090909)" id="Fill-1">
                                <path d="M12.4363636,8.83636364 C12.4363636,9.01701818 12.2897455,9.16363636 12.1090909,9.16363636 L0.981818182,9.16363636 C0.801490909,9.16363636 0.654545455,9.01701818 0.654545455,8.83636364 L0.654545455,0.981818182 C0.654545455,0.801163636 0.801490909,0.654545455 0.981818182,0.654545455 L12.1090909,0.654545455 C12.2897455,0.654545455 12.4363636,0.801163636 12.4363636,0.981818182 L12.4363636,8.83636364 Z M12.1090909,0 L0.981818182,0 C0.440509091,0 0,0.440509091 0,0.981818182 L0,8.83636364 C0,9.37767273 0.440509091,9.81818182 0.981818182,9.81818182 L12.1090909,9.81818182 C12.6504,9.81818182 13.0909091,9.37767273 13.0909091,8.83636364 L13.0909091,0.981818182 C13.0909091,0.440509091 12.6504,0 12.1090909,0 L12.1090909,0 Z"></path>
                            </g>
                            <path d="M6.54561818,8.33426182 C6.27496364,8.33426182 6.05470909,8.11400727 6.05470909,7.84335273 C6.05470909,7.57269818 6.27496364,7.35244364 6.54561818,7.35244364 C6.81627273,7.35244364 7.03652727,7.57269818 7.03652727,7.84335273 C7.03652727,8.11400727 6.81627273,8.33426182 6.54561818,8.33426182 M6.54561818,6.69789818 C5.91398182,6.69789818 5.40016364,7.21171636 5.40016364,7.84335273 C5.40016364,8.36044364 5.74707273,8.79342545 6.21834545,8.93546182 L6.21834545,9.47840727 L5.72743636,9.47840727 L5.72743636,10.1329527 L6.21834545,10.1329527 L6.21834545,11.2685891 L6.87289091,11.2685891 L6.87289091,8.93546182 C7.34416364,8.79342545 7.69107273,8.36044364 7.69107273,7.84335273 C7.69107273,7.21171636 7.17692727,6.69789818 6.54561818,6.69789818" id="Fill-3"></path>
                            <path d="M6.54561818,0.654545455 C8.16954545,0.654545455 9.49107273,1.97574545 9.49107273,3.6 L10.1456182,3.6 C10.1456182,1.61509091 8.53052727,0 6.54561818,0 C4.56070909,0 2.94561818,1.61509091 2.94561818,3.6 L3.60016364,3.6 C3.60016364,1.97574545 4.92169091,0.654545455 6.54561818,0.654545455" id="Fill-5"></path>
                        </g>
                    </g>
                </g>
            </g>
        </g>
    </g>
</svg>