<?xml version="1.0" encoding="UTF-8"?>
<svg width="16px" height="16px" viewBox="0 0 16 16" version="1.1" xmlns="http://www.w3.org/2000/svg" xmlns:xlink="http://www.w3.org/1999/xlink">
    <title>45停止</title>
    <g id="CDN" stroke="none" stroke-width="1" fill="none" fill-rule="evenodd">
        <g id="猫云控制台设计规范2" transform="translate(-390.000000, -766.000000)" fill-rule="nonzero">
            <g id="编组-90" transform="translate(160.000000, 535.000000)">
                <g id="编组-87" transform="translate(0.000000, 177.000000)">
                    <g id="45停止" transform="translate(230.000000, 54.000000)">
                        <rect id="矩形" fill="#000000" opacity="0" x="0" y="0" width="16" height="16"></rect>
                        <path d="M8,14.6438303 C4.32404853,14.6438303 1.33331248,11.6578659 1.33331248,7.98754381 C1.33331248,4.31732898 4.32404853,1.3312573 8,1.3312573 C11.6760587,1.3312573 14.6666875,4.31732898 14.6666875,7.98754381 C14.6666875,11.657848 11.6760587,14.6438303 8,14.6438303 M8,0 C3.58868667,0 0,3.583093 0,7.98752594 C0,12.3919946 3.58868667,15.9750519 8,15.9750519 C12.4113491,15.9750519 16,12.3919946 16,7.98752594 C16,3.583093 12.4113312,0 8,0 M10.2833604,10.3777915 L10.2833604,5.60978803 C10.2833604,5.24212497 9.98489442,4.9441415 9.61674884,4.9441415 C9.24849603,4.9441415 8.95003005,5.24214284 8.95003005,5.60978803 L8.95003005,10.3777915 C8.95003005,10.7454725 9.24849603,11.0434738 9.61674884,11.0434738 C9.98491229,11.0434738 10.2833604,10.7454725 10.2833604,10.3777915 M7.0687704,10.3777915 L7.0687704,5.60978803 C7.0687704,5.24212497 6.77030441,4.9441415 6.40215883,4.9441415 C6.03390603,4.9441415 5.73544004,5.24214284 5.73544004,5.60978803 L5.73544004,10.3777915 C5.73544004,10.7454725 6.03390603,11.0434738 6.40215883,11.0434738 C6.77030441,11.0434738 7.0687704,10.7454725 7.0687704,10.3777915" id="形状" fill="currentColor"></path>
                    </g>
                </g>
            </g>
        </g>
    </g>
</svg>