<?xml version="1.0" encoding="UTF-8"?>
<svg width="24px" height="24px" viewBox="0 0 24 24" version="1.1" xmlns="http://www.w3.org/2000/svg" xmlns:xlink="http://www.w3.org/1999/xlink">
    <title>编组 11</title>
    <g id="主账号" stroke="none" stroke-width="1" fill="none" fill-rule="evenodd">
        <g id="费用中心--在线充值" transform="translate(-1032.000000, -307.000000)">
            <g id="编组-11" transform="translate(1032.000000, 307.000000)">
                <rect id="矩形备份-5" opacity="0.131231399" fill-rule="nonzero" x="0" y="0" width="24" height="24"></rect>
                <g id="编组-9" transform="translate(5.000000, 4.000000)" fill="#635BFF">
                    <path d="M6.75858816,7.57002605 L5.07822101,9.15440885 C4.9755147,9.25120865 4.97535447,9.40851465 5.07784714,9.50551665 L6.75805407,11.0956619 C6.86038652,11.1925123 7.02632958,11.1925123 7.12871544,11.0956619 L8.80886896,9.50551665 C8.91136163,9.40851465 8.91120141,9.25120865 8.8085485,9.15440885 L7.12855521,7.57002605 C7.02627617,7.47358008 6.8608672,7.47358008 6.75858816,7.57002605 M6.94359839,12.3281787 C6.62089868,12.3281787 6.31790704,12.2094915 6.08990223,11.9937518 L4.12870835,10.1375713 C3.90070354,9.92178108 3.77529822,9.63507168 3.77529822,9.32965946 C3.77529822,9.02465161 3.90070354,8.73789167 4.12870835,8.52215195 L6.08990223,6.66597148 C6.56081308,6.22114732 7.32590302,6.22033854 7.79681387,6.66597148 L9.75800775,8.52215195 C10.2284913,8.96743105 10.2284913,9.69229225 9.75800775,10.1375713 L7.79681387,11.9937518 C7.56880906,12.2094915 7.26587083,12.3281787 6.94359839,12.3281787" id="Fill-1"></path>
                    <path d="M6.94348623,14.3456079 C6.46146622,14.3456079 6.06949449,14.7168845 6.06949449,15.173082 C6.06949449,15.62933 6.46146622,16 6.94348623,16 C7.42550624,16 7.81747797,15.62933 7.81747797,15.173082 C7.81747797,14.7168845 7.42550624,14.3456079 6.94348623,14.3456079" id="Fill-17"></path>
                    <path d="M6.04877698,14.0357525 L1.32076153,9.59302064 C1.21773476,9.49617028 1.21746772,9.33866209 1.32006721,9.24160955 L5.90051243,4.90654532 C6.33414351,4.49528516 6.33366282,3.82673466 5.90008516,3.41638437 L2.61780928,0.309995251 C2.24469108,-0.0431344783 1.65643973,-0.106218633 1.20112443,0.184837906 C0.885100899,0.386929612 0.71664759,0.741525239 0.71664759,1.10254049 L0.71664759,6.78678673 C0.71664759,6.92250865 0.8896407,6.99090037 0.991652691,6.89546537 L1.81212819,6.12809313 C1.84283861,6.09933121 1.86014326,6.0602069 1.86014326,6.01936395 L1.86014326,1.71589235 C1.86014326,1.49570439 2.14075635,1.38470054 2.30632555,1.53937804 L4.90383926,3.96639934 C5.0072933,4.06299695 5.0078808,4.22101062 4.90501426,4.31831591 L0.325583821,8.65247027 C-0.10852794,9.06373043 -0.10852794,9.73212928 0.325583821,10.14344 L5.45828244,15.0011221 C5.50928843,14.6062901 5.72778637,14.2626634 6.04877698,14.0357525" id="Fill-18"></path>
                    <path d="M13.5615863,8.65246521 L8.98258309,4.35698023 C8.8793961,4.26023097 8.87907564,4.10257113 8.98172854,4.00541749 L11.5796161,1.54644973 C11.7447046,1.39015469 12.0270268,1.50085525 12.0270268,1.72180144 L12.0270268,6.0193589 C12.0270268,6.06020185 12.0442781,6.09932615 12.0749885,6.12808808 L12.895464,6.89546031 C12.997476,6.99089531 13.1704691,6.9225036 13.1704691,6.78678168 L13.1704691,1.0556267 C13.1704691,0.552975396 12.7976179,0.112751117 12.2503316,0.0163051508 C11.8834623,-0.0482954495 11.5081543,0.0834837093 11.2442584,0.333292916 L7.9875122,3.41592438 C7.77707909,3.614781 7.6609136,3.87945138 7.6609136,4.16085321 C7.6609136,4.44255833 7.77665181,4.70773419 7.98708493,4.9068941 L12.5667824,9.20339005 C12.669649,9.29993711 12.6703433,9.45709147 12.5682779,9.55439676 L7.85382842,14.0479296 C8.16605989,14.2749416 8.37846915,14.6128563 8.42872742,15.0009654 L13.5615863,10.1434349 C13.9956446,9.73212423 13.9956446,9.06372537 13.5615863,8.65246521" id="Fill-19"></path>
                </g>
            </g>
        </g>
    </g>
</svg>