<?xml version="1.0" encoding="UTF-8"?>
<svg width="24px" height="24px" viewBox="0 0 24 24" version="1.1" xmlns="http://www.w3.org/2000/svg" xmlns:xlink="http://www.w3.org/1999/xlink">
    <g id="主账号" stroke="none" stroke-width="1" fill="none" fill-rule="evenodd">
        <g id="费用中心--在线充值" transform="translate(-944.000000, -307.000000)" fill-rule="nonzero">
            <g id="pay_mastercard" transform="translate(944.000000, 307.000000)">
                <rect id="矩形" fill="#000000" opacity="0" x="0" y="0" width="24" height="24"></rect>
                <path d="M5.38364062,20.7141797 L5.38364062,19.6178203 C5.38364062,19.1978203 5.12617969,18.924 4.6854375,18.924 C4.43730161,18.9138095 4.20114949,19.0310635 4.05928125,19.2348984 C3.9359769,19.0298121 3.70907324,18.9100637 3.47017969,18.924 C3.26650734,18.9155649 3.07266646,19.0118709 2.95635937,19.1792812 L2.95635937,18.9610781 L2.57017969,18.9610781 L2.57017969,20.7142031 L2.95635937,20.7142031 L2.95635937,19.7454609 C2.95635937,19.4356172 3.12217969,19.2894609 3.37964062,19.2894609 C3.63710156,19.2894609 3.76582031,19.4531016 3.76582031,19.7454609 L3.76582031,20.7141797 L4.152,20.7141797 L4.152,19.7454609 C4.152,19.4356172 4.33528125,19.2894609 4.57417969,19.2894609 C4.83164062,19.2894609 4.96035937,19.4531016 4.96035937,19.7454609 L4.96035937,20.7141797 L5.38364062,20.7141797 Z M11.1032812,18.96 L10.4782031,18.96 L10.4782031,18.4308984 L10.0908984,18.4308984 L10.0908984,18.96 L9.74182031,18.96 L9.74182031,19.308 L10.0908984,19.308 L10.0908984,20.1108984 C10.0908984,20.5134609 10.2556406,20.7512812 10.6974609,20.7512812 C10.8632812,20.7512812 11.0465391,20.6967187 11.1752812,20.6225391 L11.0651016,20.2941797 C10.9660021,20.35584 10.851241,20.3876548 10.7345391,20.3858203 C10.5501797,20.3858203 10.4771016,20.2767187 10.4771016,20.0934609 L10.4771016,19.308 L11.1021797,19.308 L11.1021797,18.96 L11.1032812,18.96 Z M14.376,18.924 C14.1556406,18.924 14.0083594,19.0331016 13.9167187,19.1792813 L13.9167187,18.9610781 L13.5305391,18.9610781 L13.5305391,20.7142031 L13.9167187,20.7142031 L13.9167187,19.728 C13.9167187,19.4356406 14.0454609,19.2708984 14.2843594,19.2708984 C14.3585391,19.2708984 14.4501797,19.2894609 14.5243594,19.308 L14.6334609,18.9425391 C14.5603594,18.924 14.4501797,18.924 14.376,18.924 Z M9.42982031,19.1061797 C9.24546094,18.9785391 8.988,18.924 8.712,18.924 C8.27128125,18.924 7.97671875,19.1422031 7.97671875,19.4901797 C7.97671875,19.7825391 8.19710156,19.9472812 8.58328125,20.0018203 L8.76764062,20.0203594 C8.9694375,20.0563594 9.07964062,20.1108984 9.07964062,20.2025391 C9.07964062,20.3301797 8.93346094,20.4218203 8.676,20.4218203 C8.46554023,20.4233252 8.25976755,20.35969 8.08689844,20.2396406 L7.90361719,20.532 C8.10546094,20.6781797 8.38146094,20.7502031 8.65635937,20.7502031 C9.17235937,20.7502031 9.46582031,20.5134609 9.46582031,20.184 C9.46582031,19.8741797 9.22689844,19.7094609 8.85925781,19.6548984 L8.676,19.6363828 C8.51017969,19.6178203 8.38146094,19.5818203 8.38146094,19.4727188 C8.38146094,19.344 8.51017969,19.2709219 8.712,19.2709219 C8.93346094,19.2709219 9.15379687,19.3625625 9.264,19.4171016 L9.42982031,19.1061797 L9.42982031,19.1061797 Z M19.6908984,18.924 C19.4705391,18.924 19.3232813,19.0331016 19.2316406,19.1792813 L19.2316406,18.9610781 L18.8454609,18.9610781 L18.8454609,20.7142031 L19.2316406,20.7142031 L19.2316406,19.728 C19.2316406,19.4356406 19.3603594,19.2708984 19.5992813,19.2708984 C19.6723594,19.2708984 19.7651016,19.2894609 19.8392813,19.308 L19.9483594,18.9425391 C19.8752813,18.924 19.7650781,18.924 19.6908984,18.924 Z M14.7621797,19.8371016 C14.7621797,20.3672578 15.1308984,20.7512812 15.7003828,20.7512812 C15.9578203,20.7512812 16.1421797,20.6967187 16.3254609,20.5494609 L16.1421797,20.2396172 C15.9948984,20.3487187 15.8476406,20.4032812 15.6818203,20.4032812 C15.3698203,20.4032812 15.1483828,20.1850781 15.1483828,19.8371016 C15.1483828,19.5087422 15.3698203,19.2894609 15.6828984,19.2708984 C15.8476406,19.2708984 15.9948984,19.3254609 16.1411016,19.4345391 L16.3265391,19.1247187 C16.1411016,18.9785391 15.9578203,18.924 15.7003594,18.924 C15.1308984,18.924 14.7621797,19.308 14.7621797,19.8371016 L14.7621797,19.8371016 Z M18.3294609,19.8371016 L18.3294609,18.96 L17.9443828,18.96 L17.9443828,19.1792812 C17.8122977,19.0101602 17.6067642,18.9151119 17.3923594,18.924 C16.896,18.924 16.5087187,19.308 16.5087187,19.8371016 C16.5087187,20.3672578 16.896,20.7512812 17.3923594,20.7512812 C17.6498203,20.7512812 17.8341797,20.6596406 17.9443594,20.4948984 L17.9443594,20.7141797 L18.3305391,20.7141797 L18.3305391,19.8371016 L18.3294609,19.8371016 Z M16.9145391,19.8371016 C16.9145391,19.5272578 17.1163594,19.2708984 17.448,19.2708984 C17.76,19.2708984 17.9803594,19.5087187 17.9803594,19.8381797 C17.9803594,20.148 17.76,20.4032578 17.448,20.4032578 C17.3010841,20.4019448 17.1610457,20.3408255 17.0601822,20.2339959 C16.9593186,20.1271664 16.9063385,19.9838506 16.9134609,19.8371016 L16.9145391,19.8371016 Z M12.2978203,18.924 C11.7828984,18.924 11.4152812,19.2894609 11.4152812,19.8371016 C11.4152812,20.3858203 11.7828984,20.7512812 12.3163594,20.7512812 C12.5738203,20.7512812 12.8312812,20.6781797 13.0341797,20.5134609 L12.8498203,20.2396406 C12.7017625,20.3532895 12.5214852,20.4170717 12.3348984,20.4218203 C12.096,20.4218203 11.8571016,20.3127187 11.8014609,20.0018203 L13.1072812,20.0018203 L13.1072812,19.8556406 C13.1257969,19.2883594 12.7952812,18.924 12.2978203,18.924 L12.2978203,18.924 Z M12.2978203,19.2523594 C12.5378203,19.2523594 12.7025391,19.3985391 12.7396172,19.6723594 L11.82,19.6723594 C11.8571016,19.4356406 12.0228984,19.2523594 12.2978203,19.2523594 Z M21.8792813,19.8371016 L21.8792813,18.2661797 L21.4931016,18.2661797 L21.4931016,19.1792812 C21.3612465,19.0104835 21.1562024,18.915472 20.9421797,18.924 C20.4447187,18.924 20.0585391,19.308 20.0585391,19.8371016 C20.0585391,20.3672578 20.4447187,20.7512812 20.9421797,20.7512812 C21.1996406,20.7512812 21.3828984,20.6596406 21.4931016,20.4948984 L21.4931016,20.7141797 L21.8792813,20.7141797 L21.8792813,19.8371016 L21.8792813,19.8371016 Z M20.4632813,19.8371016 C20.4632813,19.5272578 20.6661797,19.2708984 20.9978203,19.2708984 C21.3098203,19.2708984 21.5301797,19.5087187 21.5301797,19.8381797 C21.5301797,20.148 21.3098203,20.4032578 20.9967422,20.4032578 C20.8500144,20.4016536 20.7102574,20.3404071 20.6096286,20.2336108 C20.5089997,20.1268145 20.4561649,19.9836655 20.4632813,19.8371016 L20.4632813,19.8371016 Z M7.5534375,19.8371016 L7.5534375,18.96 L7.16728125,18.96 L7.16728125,19.1792812 C7.03520104,19.0101671 6.8296779,18.9151196 6.61528125,18.924 C6.11889844,18.924 5.73271875,19.308 5.73271875,19.8371016 C5.73271875,20.3672578 6.11889844,20.7512812 6.61635938,20.7512812 C6.87382031,20.7512812 7.05710156,20.6596406 7.16728125,20.4948984 L7.16728125,20.7141797 L7.55346094,20.7141797 L7.55346094,19.8371016 L7.5534375,19.8371016 Z M6.11889844,19.8371016 C6.11889844,19.5272578 6.32182031,19.2708984 6.65346094,19.2708984 C6.96546094,19.2708984 7.18582031,19.5087187 7.18582031,19.8381797 C7.18582031,20.148 6.96546094,20.4032578 6.65238281,20.4032578 C6.50565093,20.4016599 6.36588783,20.3404162 6.26525387,20.2336191 C6.16461992,20.1268221 6.11178199,19.9836695 6.11889844,19.8371016 L6.11889844,19.8371016 Z" id="形状" fill="#000000"></path>
                <polygon id="路径" fill="#FF5F00" points="9.30110156 5.64 15.0938203 5.64 15.0938203 15.9817969 9.30110156 15.9817969"></polygon>
                <path d="M9.66871875,10.8108984 C9.66871875,8.70982031 10.6614609,6.84653906 12.1887188,5.64 C11.0237272,4.72668769 9.58575575,4.23109846 8.1054375,4.23271479 C4.4454375,4.23271479 1.48471875,7.17489844 1.48471875,10.8109219 C1.48471875,14.4469453 4.44546094,17.3891044 8.10546094,17.3891044 C9.58540176,17.390475 11.022946,16.8948993 12.1876406,15.9818203 C10.5956001,14.7386735 9.66581614,12.8308003 9.66764063,10.8108984 L9.66871875,10.8108984 Z" id="路径" fill="#EB001B"></path>
                <path d="M22.9091016,10.8108984 C22.9091016,14.4468984 19.9483594,17.3891055 16.2894609,17.3891055 C14.8091427,17.3907219 13.3711713,16.8951326 12.2061797,15.9818203 C13.8016452,14.7414499 14.7323013,12.8317872 14.7261797,10.8108984 C14.7261797,8.70982031 13.7334609,6.84653906 12.2061797,5.64 C13.3711713,4.72668769 14.8091427,4.23109846 16.2894609,4.23271479 C19.9483594,4.23271479 22.9091016,7.19346094 22.9091016,10.8109219 L22.9091016,10.8108984 Z" id="路径" fill="#F79E1B"></path>
            </g>
        </g>
    </g>
</svg>