<?xml version="1.0" encoding="UTF-8"?>
<svg width="24px" height="24px" viewBox="0 0 24 24" version="1.1" xmlns="http://www.w3.org/2000/svg" xmlns:xlink="http://www.w3.org/1999/xlink">
    <title>编组 5</title>
    <g id="主账号" stroke="none" stroke-width="1" fill="none" fill-rule="evenodd">
        <g id="费用中心--在线充值" transform="translate(-808.000000, -307.000000)">
            <g id="编组-5" transform="translate(808.000000, 307.000000)">
                <rect id="矩形" x="0" y="0" width="24" height="24"></rect>
                <g id="编组-4" transform="translate(1.000000, 4.000000)" fill-rule="nonzero">
                    <path d="M6.8745167,13.8662127 C6.8745167,15.4286028 5.62460457,16.6394552 4.10127417,16.6394552 L0,16.6394552 L0,10.7804921 C0,10.7804921 1.24991213,11.1320299 2.85136204,11.1320299 C5.50742531,11.1320299 6.28862039,10.1164763 6.28862039,8.86656415 L6.28862039,5.62460457 L3.9059754,5.62460457 L3.9059754,8.86656415 C3.9059754,9.64775923 3.39819859,10.2336555 2.42170475,10.2336555 C1.60144991,10.2336555 0.820254833,9.99929701 0.039059754,9.60869947 L0.039059754,2.77324253 C0.039059754,1.21085237 1.28897188,0 2.81230228,0 L6.8745167,0 L6.8745167,13.8662127 L6.8745167,13.8662127 Z" id="路径" fill="#10529A"></path>
                    <path d="M14.5692882,13.9052724 C14.5692882,15.4676626 13.3193761,16.6785149 11.7960457,16.6785149 L7.69477153,16.6785149 L7.69477153,10.2727153 C8.3978471,10.8586116 9.60869947,11.2492091 11.6007469,11.1710896 C12.6553603,11.1320299 13.7880931,10.8195518 13.7880931,10.8195518 L13.7880931,9.64775923 C13.2412566,9.9211775 12.538181,10.1945958 11.6788664,10.2727153 C10.1945958,10.3898946 9.29622144,9.64775923 9.29622144,8.35878735 C9.29622144,7.06981547 10.1945958,6.32768014 11.6788664,6.4448594 C12.538181,6.52297891 13.2412566,6.75733743 13.7880931,7.06981547 L13.7880931,5.89802285 C13.7880931,5.89802285 12.6553603,5.62460457 11.6007469,5.54648506 C9.64775923,5.46836555 8.3978471,5.81990334 7.69477153,6.4448594 L7.69477153,2.81230228 C7.69477153,1.24991213 8.94468366,0.039059754 10.4680141,0.039059754 L14.5302285,0.039059754 L14.5302285,13.9052724 L14.5692882,13.9052724 Z" id="路径" fill="#B01E35"></path>
                    <path d="M22.225,13.8662127 C22.225,15.4286028 20.9750879,16.6394552 19.4517575,16.6394552 L15.3895431,16.6394552 L15.3895431,11.0148506 L19.686116,11.0148506 C20.7016696,11.0148506 21.4438049,10.4680141 21.4438049,9.60869947 C21.4438049,8.82750439 20.7407293,8.31972759 19.842355,8.28066784 L19.842355,8.24160808 C20.6626098,8.12442882 21.0922671,7.61665202 21.0922671,6.99169596 C21.0922671,6.21050088 20.4282513,5.74178383 19.529877,5.70272408 L15.3895431,5.70272408 L15.3895431,2.81230228 C15.3895431,1.24991213 16.6394552,0.039059754 18.1627856,0.039059754 L22.225,0.039059754 L22.225,13.8662127 Z" id="路径" fill="#2F9744"></path>
                    <path d="M18.3580844,8.67126538 L18.5533831,8.67126538 C18.8658612,8.74938489 19.1002197,9.02280316 19.1002197,9.37434095 C19.1002197,9.76493849 18.8268014,10.0383568 18.5533831,10.0774165 L16.7566344,10.0774165 L16.7566344,8.59314587 L18.3580844,8.59314587 L18.3580844,8.67126538 Z" id="路径" fill="#2F9744"></path>
                    <path d="M16.7566344,7.81195079 L16.7566344,6.48391916 L18.3580844,6.48391916 C18.6705624,6.52297891 18.9049209,6.75733743 18.9049209,7.14793497 C18.9049209,7.49947276 18.6315026,7.77289104 18.3580844,7.81195079 L16.7566344,7.81195079 Z" id="路径" fill="#2F9744"></path>
                </g>
            </g>
        </g>
    </g>
</svg>