<?xml version="1.0" encoding="UTF-8"?>
<svg width="24px" height="24px" viewBox="0 0 24 24" version="1.1" xmlns="http://www.w3.org/2000/svg" xmlns:xlink="http://www.w3.org/1999/xlink">
    <title>编组 7</title>
    <g id="主账号" stroke="none" stroke-width="1" fill="none" fill-rule="evenodd">
        <g id="费用中心--在线充值" transform="translate(-1004.000000, -307.000000)" fill-rule="nonzero">
            <g id="编组-7" transform="translate(1004.000000, 307.000000)">
                <rect id="矩形备份-4" opacity="0.131231399" x="0" y="0" width="24" height="24"></rect>
                <g id="支付宝" transform="translate(4.000000, 4.000000)">
                    <rect id="矩形" fill="#000000" opacity="0" x="0" y="0" width="16" height="16"></rect>
                    <path d="M3.60579687,9.00870313 C3.40870312,9.15942188 3.21159375,9.37970313 3.15360937,9.6695625 C3.07246875,10.0521719 3.14203125,10.539125 3.50145312,10.92175 C3.953625,11.3739063 4.6376875,11.5014375 4.939125,11.5246406 C5.739125,11.5826094 6.59709375,11.1768125 7.246375,10.7362344 C7.50145312,10.5623281 7.9304375,10.2029063 8.34782812,9.64639063 C7.42029687,9.17101563 6.260875,8.6376875 5.03189062,8.68404688 C4.38260937,8.70725 3.9304375,8.83478125 3.60579687,9.00870313 Z M15.3623125,11.1304219 C15.768125,10.168125 16,9.1130625 16,8 C16,3.59420312 12.4057969,0 8,0 C3.59420312,0 0,3.59420312 0,8 C0,12.4057969 3.59420312,16 8,16 C10.6666719,16 13.0202969,14.6898437 14.4811562,12.6840625 C13.1014531,12.0115937 10.8405781,10.8753594 9.4376875,10.2029062 C8.7768125,10.9681094 7.79129687,11.7217344 6.67826562,12.046375 C5.98260937,12.2550781 5.34492187,12.3362187 4.69565625,12.1970937 C4.03478125,12.0579687 3.55940625,11.7565156 3.28115625,11.4550625 C3.14203125,11.29275 2.97970312,11.10725 2.85217187,10.8637656 C2.86376562,10.8753594 2.86376562,10.8985469 2.86376562,10.9101406 C2.86376562,10.9101406 2.79420312,10.7942031 2.74782812,10.6087031 C2.72464062,10.5159375 2.70145312,10.4231875 2.68985937,10.3304219 C2.67826562,10.260875 2.67826562,10.1912969 2.68985937,10.1333281 C2.67826562,10.0173906 2.68985937,9.88985937 2.71304687,9.7623125 C2.78260937,9.4376875 2.91014062,9.07825 3.2695625,8.74203125 C4.03478125,7.98840625 5.06667187,7.953625 5.6,7.953625 C6.38840625,7.96521875 7.75651562,8.3014375 8.9159375,8.71884375 C9.24057812,8.03478125 9.44928125,7.3159375 9.5768125,6.81739062 L4.76521875,6.81739062 L4.76521875,6.29565625 L7.23478125,6.29565625 L7.23478125,5.25217187 L4.25507812,5.25217187 L4.25507812,4.71884375 L7.23478125,4.71884375 L7.23478125,3.67535937 C7.23478125,3.53623437 7.2695625,3.42029687 7.48985937,3.42029687 L8.660875,3.42029687 L8.660875,4.71884375 L11.8956562,4.71884375 L11.8956562,5.24057812 L8.660875,5.24057812 L8.660875,6.2840625 L11.246375,6.2840625 C11.246375,6.2840625 10.9797031,7.73332812 10.1797031,9.15942187 C11.9768125,9.79709375 14.5159531,10.7942031 15.3623125,11.1304375 L15.3623125,11.1304219 Z" id="形状" fill="#06B4FD"></path>
                </g>
            </g>
        </g>
    </g>
</svg>