<?xml version="1.0" encoding="UTF-8"?>
<svg width="24px" height="24px" viewBox="0 0 24 24" version="1.1" xmlns="http://www.w3.org/2000/svg" xmlns:xlink="http://www.w3.org/1999/xlink">
    <title>Amex-2</title>
    <g id="主账号" stroke="none" stroke-width="1" fill="none" fill-rule="evenodd">
        <g id="费用中心--在线充值" transform="translate(-876.000000, -307.000000)" fill-rule="nonzero">
            <g id="Amex-2" transform="translate(876.000000, 307.000000)">
                <rect id="矩形" fill="#000000" opacity="0" x="0" y="0" width="24" height="24"></rect>
                <path d="M15,10.5 L15,11.5 L16,11.5 C16.2761459,11.5 16.5,11.7238619 16.5,12 C16.5,12.2761381 16.2761459,12.5 16,12.5 L15,12.5 L15,13.5 L17.2930078,13.5 L18.7930078,12 L17.2930078,10.5 L15,10.5 Z M4.80899219,10.5 L3.80899219,12.5 L5.60899219,12.5 L5.109,10.5 L4.80899219,10.5 Z M20.5,4.5 L3.5,4.5 C1.57000781,4.5 0,6.07000781 0,8 L0,16 C0,17.9299922 1.57000781,19.5 3.5,19.5 L20.5,19.5 C22.4299922,19.5 24,17.9299922 24,16 L24,8 C24,6.07000781 22.4299922,4.5 20.5,4.5 Z M13.0000087,13.9999922 C13.0000087,14.2761367 12.7761484,14.4999961 12.5000039,14.4999961 C12.2238594,14.4999961 12,14.2761367 12,13.9999922 L12,11.7430078 L10.4239922,14.265 C10.242,14.5570078 9.75799219,14.5570078 9.576,14.265 L7.99999219,11.7430078 L7.99999219,13.9999922 C7.9999984,14.1326024 7.94732355,14.2597834 7.85355615,14.3535552 C7.75978876,14.447327 7.63261023,14.5000078 7.5,14.5000078 L6.49999219,14.5000078 C6.27050663,14.4999427 6.0705292,14.343666 6.015,14.121 L5.859,13.5 L3.50001562,13.5 C3.44039444,13.4987233 3.38147298,13.4868755 3.32599219,13.4650078 L2.94700781,14.2240078 C2.86697892,14.3838856 2.70773542,14.4889238 2.52926279,14.4995556 C2.35079015,14.5101874 2.18020263,14.4247976 2.08175888,14.2755517 C1.98331513,14.1263058 1.97197111,13.9358777 2.052,13.776 L4.05199219,9.77599219 C4.13745938,9.6069864 4.31061284,9.50031335 4.5,9.49999219 L5.50000781,9.49999219 C5.72949337,9.50005726 5.9294708,9.65633403 5.985,9.879 L6.891,13.5 L6.99998437,13.5 L6.99998437,10.0000078 C6.8874826,9.81994642 6.90096896,9.58846913 7.03362008,9.42269087 C7.16627121,9.25691261 7.3891557,9.19298985 7.58950612,9.26326403 C7.78985655,9.3335382 7.92397619,9.52268243 7.92400781,9.735 L10.0000078,13.0570078 L12.0760078,9.735 C12.1939744,9.54547574 12.4236509,9.45761094 12.6379922,9.52000781 C12.8525267,9.58090262 13.0004222,9.77699873 13.0000087,10.0000078 L13.0000087,13.9999922 L13.0000087,13.9999922 Z M21.8539922,13.6459922 C22.049501,13.841501 22.049501,14.1584834 21.8539922,14.3539922 C21.6584834,14.549501 21.341501,14.549501 21.1459922,14.3539922 L19.4999922,12.7069922 L17.8539844,14.3530078 C17.7602038,14.4470835 17.6328424,14.4999743 17.5000078,14.5000078 L14.5000078,14.5000078 C14.3673935,14.500014 14.240209,14.447336 14.1464365,14.3535635 C14.052664,14.259791 13.9999922,14.1326065 13.9999922,13.9999922 L13.9999922,10.0000078 C13.9999922,9.86739352 14.052664,9.74020898 14.1464365,9.64643651 C14.240209,9.55266404 14.3673935,9.49999219 14.5000078,9.49999219 L17.5000078,9.49999219 C17.6326316,9.50014986 17.7598392,9.55261961 17.8540078,9.64600781 L19.4999922,11.292 L21.1460156,9.64598438 C21.3421422,9.45608597 21.6543333,9.45860687 21.8473677,9.65164771 C22.0404022,9.84468854 22.0429127,10.1568797 21.8530078,10.353 L20.2069922,11.9999922 L21.8539922,13.6460156 L21.8539922,13.6459922 Z" id="形状" fill="#3394D4"></path>
            </g>
        </g>
    </g>
</svg>