<?xml version="1.0" encoding="UTF-8"?>
<svg width="24px" height="24px" viewBox="0 0 24 24" version="1.1" xmlns="http://www.w3.org/2000/svg" xmlns:xlink="http://www.w3.org/1999/xlink">
    <g id="主账号" stroke="none" stroke-width="1" fill="none" fill-rule="evenodd">
        <g id="费用中心--在线充值" transform="translate(-1032.000000, -306.000000)" fill-rule="nonzero">
            <g id="编组-12" transform="translate(808.000000, 306.000000)">
                <g id="编组-7备份" transform="translate(224.000000, 0.000000)">
                    <rect id="矩形备份-4" opacity="0.131231399" x="0" y="0" width="24" height="24"></rect>
                    <g id="USDT" transform="translate(4.000000, 4.000000)">
                        <rect id="矩形" fill="#000000" opacity="0" x="0" y="0" width="16" height="16"></rect>
                        <path d="M15.9856719,7.99721875 C15.9856719,12.393625 12.4218906,15.9574063 8.02546875,15.9574063 C3.62921875,15.9574063 0.06528125,12.393625 0.06528125,7.99721875 C0.06528125,3.600875 3.62921875,0.037015625 8.02546875,0.037015625 C12.4218906,0.037015625 15.9856719,3.600875 15.9856719,7.99721875" id="路径" fill="#1BA27A"></path>
                        <polygon id="路径" fill="#FFFFFF" points="11.7614375 4.05103125 4.22390625 4.05103125 4.22390625 5.87071875 7.0828125 5.87071875 7.0828125 8.54535938 8.9025 8.54535938 8.9025 5.87071875 11.7614063 5.87071875"></polygon>
                        <path d="M8.00995312,8.83025 C5.64496875,8.83025 3.72760937,8.45595312 3.72760937,7.9941875 C3.72760937,7.5325 5.64489062,7.158125 8.00995312,7.158125 C10.3749219,7.158125 12.2922187,7.5325 12.2922187,7.9941875 C12.2922187,8.45595313 10.3749219,8.83025 8.00995312,8.83025 M12.8183125,8.13357812 C12.8183125,7.53815625 10.6655469,7.05551563 8.00995312,7.05551563 C5.35442187,7.05551563 3.20151562,7.53815625 3.20151562,8.13357812 C3.20151562,8.65790625 4.87084375,9.09476562 7.08290625,9.1915625 L7.08290625,13.0310938 L8.9024375,13.0310938 L8.9024375,9.1930625 C11.1315469,9.09928125 12.8183125,8.66059375 12.8183125,8.1335625" id="形状" fill="#FFFFFF"></path>
                    </g>
                </g>
            </g>
        </g>
    </g>
</svg>