<?xml version="1.0" encoding="UTF-8"?>
<svg width="24px" height="24px" viewBox="0 0 24 24" version="1.1" xmlns="http://www.w3.org/2000/svg" xmlns:xlink="http://www.w3.org/1999/xlink">
    <title>银行卡支付 (1)</title>
    <g id="主账号" stroke="none" stroke-width="1" fill="none" fill-rule="evenodd">
        <g id="费用中心--在线充值" transform="translate(-910.000000, -307.000000)" fill-rule="nonzero">
            <g id="银行卡支付-(1)" transform="translate(910.000000, 307.000000)">
                <rect id="矩形" fill="#000000" opacity="0" x="0" y="0" width="24" height="24"></rect>
                <path d="M5.53846875,5.53846875 C4.89229687,5.53846875 4.33846875,6 4.06153125,6.55385156 C3.96923437,7.01538281 1.47691406,17.2615312 1.47691406,17.4461484 C1.47691406,17.9077031 1.75385156,18.3692344 2.30770312,18.4615312 L8.67691406,18.4615312 C9.23076562,18.3692344 9.78461719,17.9077031 9.96923437,17.3538516 C10.0615312,17.1692344 12.5538516,6.73846875 12.5538516,6.55385156 C12.5538516,6.09229687 12.2769141,5.63076562 11.7230859,5.44614844 C11.8153828,5.44614844 5.72308594,5.44614844 5.53846875,5.53846875 Z" id="路径" fill="#E4001B"></path>
                <path d="M11.0769141,5.53846875 C10.5230859,5.63076562 9.87691406,6.09229687 9.69229688,6.73846875 C9.6,7.10770312 7.2,17.3538281 7.2,17.5384687 C7.2,18 7.47691406,18.4615312 8.03076562,18.5538516 L14.4,18.5538516 C14.9538281,18.4615312 15.5077031,18 15.6922969,17.4461484 C15.7846172,17.2615312 18.2769141,6.83076562 18.2769141,6.64614844 C18.2769141,6.18461719 18,5.72308594 17.4461484,5.53846875 C17.4461484,5.44614844 11.4461484,5.44614844 11.0769141,5.53846875 Z" id="路径" fill="#00518A"></path>
                <path d="M16.9846172,5.53846875 C16.4307891,5.63076562 15.7846172,6.09229687 15.6,6.73846875 C15.5077031,7.10770312 13.0153828,17.3538516 13.0153828,17.5384687 C13.0153828,18 13.2922969,18.4615313 13.8461484,18.5538516 L18.7384688,18.5538516 C19.2922969,18.4615313 19.8461484,18 20.0307656,17.4461484 C20.1230859,17.2615312 22.6153828,6.83076562 22.6153828,6.64614844 C22.6153828,6.18461719 22.3384688,5.72308594 21.7846172,5.53846875 C21.6922969,5.53846875 16.7077031,5.44614844 16.3384453,5.53846875 L16.9846172,5.53846875 C16.9846172,5.44614844 16.9846172,5.53846875 16.9846172,5.53846875 L16.9846172,5.53846875 Z" id="路径" fill="#088F8B"></path>
                <path d="M5.26153125,8.76923438 L5.26153125,8.86153125 C4.98461719,9.78461719 4.8,10.8 4.8,10.9846172 C4.89229688,11.3538516 5.44617188,11.3538516 5.81538281,10.8922969 C5.90770313,10.8 6.36921094,8.76923438 6.36921094,8.58461719 L7.2,8.58461719 L7.2,8.67691406 C7.2,8.67691406 7.10770313,9.13846875 6.92308594,9.78461719 C6.64614844,10.9846172 6.64614844,11.0769141 6.46153125,11.2615312 C6,12.0922969 4.15385156,11.9077031 4.06153125,11.2615312 C4.06153125,11.0769141 4.33846875,9.23076563 4.52308594,8.67691406 L5.26153125,8.67691406 L5.26153125,8.76923438 Z M16.6153828,8.76923438 C17.0769141,8.86153125 17.2615547,9.23076563 16.9846172,9.87691406 C16.8,10.4307656 16.3384453,10.8 15.4153828,10.8 C15.1384688,10.8 15.2307656,10.8 15.0461484,11.6307656 C15.0461484,11.8153828 14.9538516,11.9077031 14.9538516,11.9077031 C14.9538516,12 14.1230859,12 14.1230859,11.9077031 C14.7692344,9.04614844 14.7692344,8.86153125 14.7692344,8.86153125 L16.6154063,8.86153125 L16.6153828,8.76923438 Z M9.87691406,9.87691406 C9.96923438,9.87691406 10.0615313,9.96923438 10.0615313,10.0615313 C10.0615313,10.3384688 9.50770313,10.5230859 9.23076563,10.3384688 C9.04614844,10.1538516 9.41538281,9.87691406 9.8769375,9.87691406 L9.87691406,9.87691406 Z M7.84614844,10.1538516 L7.84614844,10.2461484 L7.93846875,10.1538516 C8.30770313,9.96923438 8.58461719,10.0615313 8.76923438,10.2461484 C8.86153125,10.3384688 8.86153125,10.4307656 8.67691406,11.2615313 C8.67691406,11.3538516 8.58461719,11.5384687 8.58461719,11.6307656 C8.58461719,11.8153828 8.58461719,11.8153828 8.21538281,11.8153828 L7.84617188,11.8153828 C7.84617188,11.8153828 7.84617188,11.6307656 7.93849219,11.4461484 C8.12310938,10.6153828 8.12310938,10.5230859 7.93849219,10.5230859 C7.84617188,10.5230859 7.753875,10.6153828 7.753875,10.6153828 C7.753875,10.7077031 7.56925781,11.6307656 7.56925781,11.7230859 L7.56925781,11.8153828 L7.29232031,11.8153828 C6.92310938,11.8153828 6.92310938,11.8153828 7.01540625,11.5384687 C7.10772656,11.0769141 7.20002344,10.7077031 7.20002344,10.4307656 C7.29232031,10.1538516 7.20002344,10.1538516 7.4769375,10.1538516 C7.56925781,10.1538516 7.753875,10.1538516 7.753875,10.0615312 C7.753875,10.0615312 7.84617188,10.0615312 7.84617188,10.1538516 L7.84614844,10.1538516 Z M13.1077031,10.0615313 L13.1077031,10.2461484 L13.2,10.1538516 C13.8461719,9.78461719 14.2153828,10.0615313 14.0307656,10.9846172 C14.0307656,11.1692344 13.9384688,11.4461484 13.9384688,11.5384453 C13.9384688,11.6307422 13.8461484,11.8153828 13.8461484,11.8153828 L13.2,11.8153828 C13.2,11.8153828 13.2,11.6307656 13.2922969,11.4461484 C13.4769141,10.6153828 13.4769141,10.5230859 13.2922969,10.5230859 C13.2,10.5230859 13.1077031,10.5230859 13.1077031,10.6153828 C13.1077031,10.7076797 12.9230859,11.5384687 12.9230859,11.7230859 L12.9230859,11.8153828 L12.6461484,11.8153828 C12.2769141,11.8153828 12.2769141,11.9077031 12.3692344,11.4461484 C12.4615313,11.0769141 12.5538516,10.5230859 12.5538516,10.2461484 C12.5538516,9.96921094 12.5538516,9.96923437 12.8307656,9.96923437 C12.9230859,9.96923437 13.1077031,9.96923437 13.1077031,9.87691406 C13.0153828,9.87691406 13.1077031,10.0615312 13.1077031,10.0615312 L13.1077031,10.0615313 Z M19.7538516,10.0615312 C19.7538516,10.7077031 19.8461484,10.9846172 19.8461484,10.9846172 L20.0307656,10.6153828 C20.3077031,10.1538516 20.3077031,10.1538516 20.4922969,10.1538516 C20.5846172,10.1538516 20.6769141,10.1538516 20.7692344,10.0615312 C20.9538516,10.0615312 20.9538516,9.96923437 20.7692344,10.4307656 C20.4,11.0769375 19.8461484,12 19.6615313,12.2769375 C19.1077031,13.2922969 19.1077031,13.2922969 18.5538516,13.2922969 L18.2769141,13.2922969 L18.2769141,13.2 C18.2769141,13.2 18.2769141,13.1077031 18.3692344,13.0153828 L18.3692344,12.9230859 L18.4615313,12.9230859 C18.5538516,12.9230859 18.5538516,12.9230859 18.6461484,12.7384688 C18.6461484,12.6461484 18.7384688,12.6461484 18.7384688,12.5538516 C18.7384688,12.4615547 18.8307656,12.3692344 18.9230859,12.1846172 L19.1077031,11.9077031 L19.1077031,11.5384688 C19.0153828,11.0769141 19.0153828,10.5230859 18.9230859,10.3384688 C18.9230859,10.1538516 18.9230859,10.1538516 19.1077031,10.1538516 C19.2,10.1538516 19.2922969,10.1538516 19.3846172,10.0615313 C19.4769141,9.96923438 19.7538516,10.0615313 19.7538516,10.0615313 L19.7538516,10.0615312 Z M11.5384687,10.0615312 C12.4615312,10.2461484 12.0922969,11.6307656 11.1692344,11.9077031 C10.5230625,12 10.0615313,11.8153828 10.0615313,11.3538516 C10.0615313,10.5230859 10.6153828,9.96923437 11.5384687,10.0615312 L11.5384687,10.0615312 Z M17.8153828,10.1538516 L17.9077031,10.2461484 C18,10.3384688 18,10.3384688 18,10.2461484 L18.4615312,10.1538516 C18.8307656,10.0615313 18.7384687,10.0615313 18.7384687,10.1538516 C18.6461484,10.7076797 18.4615312,11.3538516 18.4615312,11.5384687 C18.3692344,11.9077031 18.4615312,11.9077031 18,11.8153828 L17.6307656,11.8153828 C17.6307656,11.8153828 17.6307656,11.7230859 17.6307656,11.8153828 C17.5384687,12 16.9845937,12 16.7077031,11.7230859 C16.3384687,11.0769141 17.2615312,9.87691406 17.8153828,10.1538516 L17.8153828,10.1538516 Z M9.96921094,10.4307656 L9.96921094,10.5230859 C9.87691406,10.8922969 9.78461719,11.6307656 9.69229688,11.7230859 L9.69229688,11.9077031 L9.23076563,11.9077031 C8.86153125,11.9077031 8.86153125,11.9077031 8.95385156,11.7230859 C9.04614844,11.4461484 9.13846875,11.1692344 9.13846875,10.8 C9.13846875,10.4307656 9.13846875,10.6153828 9.41538281,10.5230859 C9.50770313,10.5230859 9.69229688,10.5230859 9.69229688,10.4307656 L9.96923437,10.4307656 L9.96921094,10.4307656 Z M11.8153828,12.6461484 C11.8153828,12.6461484 11.8153828,12.7384687 11.7230859,12.7384687 C11.7230859,12.8307656 11.6307656,12.8307656 11.6307656,12.8307656 L12.2769375,12.8307656 L12.1845937,13.2 L11.0769375,13.2 C10.9845937,13.2922969 10.2461484,13.4769141 10.2461484,13.3846172 L10.3384687,13.0153828 L10.4307656,13.0153828 C10.6153828,13.0153828 10.6153828,13.0153828 10.7077031,12.7384687 L10.8,12.5538516 C11.7230859,12.6461484 11.8153828,12.6461484 11.8153828,12.6461484 L11.8153828,12.6461484 Z M13.2922969,12.6461484 L13.2922969,12.9230859 C13.2922969,12.9230859 13.3846172,12.9230859 13.3846172,12.8307656 C13.5692344,12.6461484 13.8461484,12.6461484 14.4922969,12.6461484 L14.9538516,12.6461484 C14.9538516,12.6461484 14.5846172,13.8461484 14.5846172,13.9384688 L14.3077031,14.2153828 L13.0153828,14.2153828 L12.9230859,14.5846172 C12.7384687,15.2307891 12.7384687,15.2307891 13.0153828,15.1384453 C13.2922969,15.1384453 13.2,15.1384453 13.2,15.3230859 L13.1077031,15.5077031 L12.8307656,15.5077031 C12.1845937,15.5077031 12,15.5077031 12.1845937,15.2307656 C12.1845937,15.1384688 13.0153828,12.4615313 13.1077031,12.4615313 C12.6461484,12.6461484 13.2922969,12.6461484 13.2922969,12.6461484 L13.2922969,12.6461484 Z M16.2461484,12.6461484 C16.2461484,12.6461484 16.2461484,12.8307656 16.2461484,12.6461484 C16.1538516,12.8307656 16.1538516,12.8307656 16.3384687,12.7384687 C16.5230859,12.6461484 16.8922969,12.6461484 17.9077031,12.6461484 L18.1846172,12.6461484 L18.1846172,12.7384687 C18.1846172,12.9230859 18.1846172,12.9230859 18.2769141,12.9230859 L18.3692344,12.9230859 L18.2769141,13.1077031 L18.1846172,13.2922969 L18,13.2922969 C17.5384687,13.2922969 17.4461719,13.2922969 17.4461719,13.0153828 L17.4461719,12.9230859 L17.4461719,13.1077031 L17.2615312,13.1077031 C17.2615312,13.1077031 16.7077031,14.8615312 16.7077031,15.1384687 L16.8,15.1384687 C16.8922969,15.1384687 16.8922969,15.1384687 16.8922969,15.2307656 C16.8922969,15.3230625 16.8922969,15.3230859 16.9846172,15.3230859 L17.1692344,15.3230859 C17.2615312,15.3230859 17.2615312,15.3230859 17.5384687,14.8615312 L17.6307656,14.6769141 L17.3538516,14.6769141 C16.9846172,14.6769141 17.0769141,14.6769141 17.0769141,14.4922969 L17.1692344,14.3077031 L17.8154062,14.3077031 C17.9077031,14.1230859 17.9077031,14.0307656 17.9077031,14.0307656 L17.0769141,14.0307656 L17.1692344,13.6615312 L19.1077031,13.6615312 C19.1077031,13.6615312 19.1077031,13.7538516 19.0153828,13.8461484 L19.0153828,13.9384687 L18.4615547,13.9384687 C18.3692109,14.1230859 18.3692109,14.1230859 18.3692109,14.2153828 L18.6461484,14.2153828 C19.0153828,14.2153828 19.0153828,14.2153828 18.9230859,14.4 L18.8307656,14.5846172 L18.1845937,14.5846172 L18.0922969,14.7692344 L18.3692344,14.7692344 L18.3692344,15.0461484 C18.3692344,15.3230859 18.3692344,15.3230859 18.5538516,15.3230859 C18.6461484,15.3230859 18.6461484,15.3230859 18.5538516,15.5077031 L18.4615312,15.7846172 L18.2769141,15.7846172 C17.9077031,15.7846172 17.9077031,15.6922969 17.8153828,15.4153828 L17.8153828,15.2307656 L17.7230859,15.4153828 C17.3538516,15.8769141 17.3538516,15.8769141 16.8,15.8769141 C16.5230859,15.8769141 16.5230859,15.8769141 16.5230859,15.7846172 L16.4307656,15.7846172 C16.3384687,15.7846172 16.3384687,15.7846172 16.3384687,15.8769141 L16.3384687,15.9692344 L15.7846172,15.9692344 C15.7846172,15.8769141 15.8769141,15.8769141 15.2307891,15.8769141 L14.6769141,15.8769141 L14.7692344,15.6922969 L14.8615312,15.5077031 C14.9538516,15.5077031 14.9538516,15.5077031 14.9538516,15.4153828 C15.4153828,13.7538516 15.6,13.1077031 15.6,13.0153828 L15.6,12.9230859 L15.8769141,12.9230859 C16.0615312,12.6461484 16.2461484,12.6461484 16.2461484,12.6461484 L16.2461484,12.6461484 Z M12.2769141,13.6615312 L12.1846172,14.0307656 L11.5384453,14.0307656 C11.4461484,14.2153828 11.4461484,14.3077031 11.4461484,14.3077031 L12,14.3077031 L12,14.4 C12,14.4 12,14.4922969 11.9077031,14.5846172 L11.9077031,14.7692344 L11.2615313,14.7692344 L11.0769141,15.0461484 C10.9846172,15.4153828 10.9846172,15.4153828 11.3538516,15.3230859 C11.5384687,15.3230859 11.5384687,15.3230859 11.4461484,15.5077031 L11.3538516,15.6922969 L10.9846172,15.6922969 C10.3384453,15.6922969 10.1538516,15.6922969 10.4307891,15.0461484 C10.5230859,14.8615312 10.5230859,14.6769141 10.5230859,14.6769141 L10.1538281,14.6769141 C10.246125,14.4 10.246125,14.3077031 10.246125,14.3077031 L10.6153594,14.3077031 L10.7076797,14.0307656 L10.3384453,14.0307656 C10.3384453,14.0307656 10.4307422,13.7538516 10.4307422,13.6615312 C10.6153594,13.5692344 12.2769141,13.5692344 12.2769141,13.6615312 L12.2769141,13.6615312 Z M14.4922969,14.4922969 L14.4922969,14.5846172 C14.4,14.8615313 14.3077031,14.9538516 14.0307656,14.9538516 L13.8461484,14.9538516 L13.8461484,15.2307656 L14.2153828,15.2307656 L14.1230859,15.6 L13.2922969,15.6 C13.2,15.6 13.2,15.6 13.2,14.9538281 L13.2,14.4 L13.7538281,14.4 L13.7538281,14.5846172 L13.8461719,14.5846172 C13.9384687,14.5846172 13.9384687,14.5846172 14.0307656,14.4 L14.0307656,14.3077031 L14.2153828,14.3077031 C14.4,14.4922969 14.4922969,14.4922969 14.4922969,14.4922969 L14.4922969,14.4922969 Z M15.4153828,9.69229688 L15.3230859,10.1538516 L15.5077031,10.1538516 C16.4307656,10.1538516 16.7077031,9.13846875 15.8769141,9.13846875 L15.6,9.13846875 C15.5077031,9.23076563 15.5077031,9.23076563 15.4153828,9.69229688 L15.4153828,9.69229688 Z M10.9846172,10.5230859 C10.8,10.6153828 10.6153828,11.4461484 10.8,11.5384687 C10.8922969,11.6307656 11.0769141,11.4461484 11.1692344,11.2615313 C11.3538516,10.6153828 11.3538516,10.4307656 10.9846172,10.5230859 Z M17.6307891,10.5230859 C17.4461484,10.6153828 17.2615313,11.4461484 17.4461484,11.5384687 C17.6307656,11.6307891 17.9077031,11.2615312 17.9077031,10.7077031 C17.9077031,10.5230859 17.8153828,10.4307656 17.6307656,10.5230859 L17.6307891,10.5230859 Z M13.2,13.2 L13.1077031,13.3846172 C13.1077031,13.4769141 13.0153828,13.5692344 13.0153828,13.5692344 C13.0153828,13.5692344 13.1077031,13.5692344 13.1077031,13.4769141 C13.2922969,13.3846172 13.3846172,13.3846172 13.6615313,13.3846172 L13.9384688,13.3846172 C13.9384688,13.2922969 14.0307656,13.2 14.0307656,13.2 C14.1230859,13.1077031 13.2,13.1077031 13.2,13.2 Z M13.0153828,13.7538281 L13.0153828,13.9384688 L14.0307656,13.9384688 L14.1230859,13.7538516 L13.0153828,13.7538516 L13.0153828,13.7538281 Z M16.0615547,13.3846172 C16.0615547,13.4769141 15.9692109,13.6615312 15.9692109,13.6615312 L16.0615547,13.6615312 C16.1538516,13.6615312 16.2461484,13.5692344 16.3384688,13.5692344 L16.4307656,13.5692344 C16.4307656,13.5692344 16.5230859,13.2922969 16.5230859,13.2 L16.1538281,13.2 L16.0615078,13.3846172 L16.0615547,13.3846172 Z M15.8769141,13.9384453 C15.8769141,13.9384453 15.8769141,14.0307891 15.7846172,14.2153828 C15.7846172,14.3077031 15.6922969,14.4922969 15.6922969,14.4922969 L15.7846172,14.4922969 C15.8769141,14.4922969 15.9692344,14.4 16.0615313,14.4 C16.1538281,14.4 16.2461484,14.4 16.2461484,14.3077031 C16.2461484,14.3077031 16.2461484,14.2153828 16.3384688,14.1230859 L16.3384688,14.0307656 L16.1538516,14.0307656 C15.9692344,13.9384688 15.8769141,13.9384688 15.8769141,13.9384688 L15.8769141,13.9384453 Z M15.4153828,15.2307891 L15.8769141,15.2307891 C15.9692344,14.9538516 15.9692344,14.8615312 15.9692344,14.7692344 L15.5077031,14.7692344 L15.4153828,15.2307656 L15.4153828,15.2307891 Z" id="形状" fill="#FFFFFF"></path>
            </g>
        </g>
    </g>
</svg>