<?xml version="1.0" encoding="UTF-8"?>
<svg width="24px" height="24px" viewBox="0 0 24 24" version="1.1" xmlns="http://www.w3.org/2000/svg" xmlns:xlink="http://www.w3.org/1999/xlink">
    <title>Visa-2</title>
    <g id="主账号" stroke="none" stroke-width="1" fill="none" fill-rule="evenodd">
        <g id="费用中心--在线充值" transform="translate(-842.000000, -307.000000)" fill-rule="nonzero">
            <g id="Visa-2" transform="translate(842.000000, 307.000000)">
                <rect id="矩形" fill="#000000" opacity="0" x="0" y="0" width="24" height="24"></rect>
                <path d="M18,12.0000078 L19,12.0000078 L19,10.0000078 L18.7999922,10.0000078 L18,12.0000078 Z M20.5,4.00000781 L3.5,4.00000781 C1.60000781,4.00000781 0,5.59999219 0,7.50000781 L0,16.5000078 C0,18.4000078 1.60000781,19.9999922 3.5,19.9999922 L20.5,19.9999922 C22.3999922,19.9999922 24,18.4000078 24,16.5000078 L24,7.50000781 C24,5.59999219 22.3999922,4.00000781 20.5,4.00000781 L20.5,4.00000781 Z M10.0000078,9.70000781 L7.99999219,14.7 C7.90000781,14.8999922 7.69999219,15 7.50000781,15 L6.49999219,15 C6.19999219,15 6.00000781,14.8000078 6.00000781,14.5000078 L6.00000781,10.0000078 L4.50000781,10.0000078 C4.2,10.0000078 4.00000781,9.79999219 4.00000781,9.49999219 C4.00000781,9.19999219 4.2,9 4.50000781,9 L6.49999219,9 C6.79999219,9 7.00000781,9.19999219 7.00000781,9.49999219 L7.00000781,13.9999922 L7.2,13.9999922 L9.00000781,9.3 C9.10000781,9.10000781 9.40000781,8.89999219 9.70000781,9 C9.9,9.10000781 10.0999922,9.40000781 10.0000078,9.70000781 L10.0000078,9.70000781 Z M10.9999922,14.5999922 C10.9999922,14.8000078 10.6999922,15 10.5000078,15 L10.3999922,15 C10.0999922,14.8999922 10.0000078,14.7 10.0000078,14.4 L10.9999922,9.40000781 C11.1,9.10000781 11.2999922,9 11.5999922,9 C11.8999922,9.10000781 12.0000078,9.3 12.0000078,9.6 L10.9999922,14.5999922 L10.9999922,14.5999922 Z M16.0000078,9.70000781 C15.9,10.0000078 15.7000078,10.0999922 15.4000078,10.0999922 C15,10.0000078 13.9999922,9.9 13.6999922,10.3000078 C13.6000078,10.5 13.6000078,10.6000078 13.6000078,10.6999922 C13.6999922,10.9999922 14.2000078,11.2999922 14.4,11.5000078 C15.7000078,12.3 15.7999922,13.0000078 15.7000078,13.5 C15.6,13.9999922 15.1999922,14.5000078 14.7,14.7 C14.4,14.8999922 13.9999922,15 13.6000078,15 C13.2,15 12.7999922,14.8999922 12.3,14.8000078 C12,14.7 11.8999922,14.4 12,14.2000078 C12.1000078,13.9000078 12.4000078,13.8 12.6,13.9000078 C13.3000078,14.1 13.8,14.2000078 14.2000078,13.9000078 C14.5000078,13.6999922 14.5999922,13.3999922 14.7,13.3000078 C14.8000078,13.0999922 14.5000078,12.7000078 13.9000078,12.4000078 C13.5,12.1999922 12.7999922,11.7 12.6,10.9999922 C12.4999922,10.6000078 12.6,10.2 12.7999922,9.9 C13.5,8.7 15.4999922,9.19999219 15.4999922,9.19999219 C15.9,9.19999219 16.0999922,9.40000781 16.0000078,9.70000781 L16.0000078,9.70000781 Z M19.9999922,14.5 C19.9999922,14.8000078 19.8,15 19.5,15 C19.2,15 19.0000078,14.8000078 19.0000078,14.5 L19.0000078,13 L17.5999922,13 L16.9999922,14.7 C16.9000078,14.8999922 16.6999922,15 16.5,15 L16.3000078,15 C16.0000078,14.8999922 15.9,14.5999922 16.0000078,14.2999922 L18,9.3 C18.1000078,9.10000781 18.3,9 18.4999922,9 L19.5,9 C19.8,9 19.9999922,9.19999219 19.9999922,9.5 L19.9999922,14.5 L19.9999922,14.5 Z" id="形状" fill="#00448A"></path>
            </g>
        </g>
    </g>
</svg>