<?xml version="1.0" encoding="UTF-8"?>
<svg width="44px" height="44px" viewBox="0 0 44 44" version="1.1" xmlns="http://www.w3.org/2000/svg" xmlns:xlink="http://www.w3.org/1999/xlink">
    <g id="CDN" stroke="none" stroke-width="1" fill="none" fill-rule="evenodd">
        <g id="购买资源包-支付成功" transform="translate(-697.000000, -140.000000)" fill-rule="nonzero">
            <g id="HTSCIT_完成" transform="translate(697.000000, 140.000000)">
                <rect id="矩形" fill="#000000" opacity="0" x="0" y="0" width="44" height="44"></rect>
                <path d="M22,1 C27.658148,1 32.8242816,3.2587587 36.536744,6.97117404 L36.536744,6.97117404 L34.2893945,9.2184954 L34.2893945,9.2184954 L34.2779568,9.22993298 C31.1916937,6.14370818 26.8530359,4.22040844 22,4.22040844 C12.1373803,4.22040844 4.22044733,12.1372458 4.22044733,21.9997464 C4.22044733,31.8622481 12.1373803,39.7790837 22,39.7790837 C31.8626207,39.7790837 39.7795519,31.8622481 39.7795519,21.9997464 C39.7795519,20.5460908 39.5782774,19.2489821 39.2651757,17.9518734 C39.2651757,17.9518734 41.8817883,15.3800185 41.8817883,15.3800185 C42.6869023,17.4822295 43,19.7409885 43,21.9997464 C43,33.6289996 33.6293936,42.9994928 22,42.9994928 C10.3706074,42.9994928 1,33.6289996 1,21.9997464 C1,10.3704942 10.3706074,1 22,1 Z M40.1851465,7.66499996 C40.1851465,7.66499996 40.6810882,8.15732175 41.2183583,8.69067035 L41.512781,8.98294403 C42.0500511,9.51629264 42.5459928,10.0086144 42.5459928,10.0086144 C42.5459928,10.0086144 42.526366,10.0280979 42.4883521,10.0658344 L42.3881752,10.1652801 C40.6940754,11.8470146 25.8801132,26.5528488 23.2599054,29.1539315 L23.0903117,29.3222872 C23.0657955,29.3466245 23.0431845,29.3690705 23.0225248,29.3895794 L22.9223479,29.4890251 C22.9096766,29.5016039 22.8990483,29.5121546 22.890509,29.5206317 L22.8647072,29.5462451 C22.8647072,29.5462451 21.6842841,30.6729836 21.6842841,30.6729836 C21.6842841,30.6729836 20.5038604,29.5462451 20.5038604,29.5462451 C20.5038604,29.5462451 20.4926192,29.5350859 20.4709694,29.5135941 L20.3060979,29.3499261 C19.1840561,28.2360741 13.6288043,22.7213705 12.5067625,21.6075185 L12.382068,21.4837343 C12.366143,21.4679254 12.3527159,21.4545964 12.341891,21.4438505 L12.309,21.4111996 C12.309,21.4111996 12.3253948,21.3949245 12.3554519,21.3650868 L12.4838775,21.2375985 C12.6751498,21.0477223 13.0003126,20.7249328 13.3422118,20.3855292 L13.6366345,20.0932555 C14.0273764,19.7053656 14.3962587,19.3391758 14.5684037,19.1682873 L14.6698463,19.0675851 C14.6698463,19.0675851 14.6820242,19.079674 14.705365,19.1028445 L14.8078619,19.2045933 C15.7009037,20.0911166 20.6532267,25.0072918 21.5462685,25.8938152 L21.6487654,25.9955639 C21.6721062,26.0187344 21.6842841,26.0308234 21.6842841,26.0308234 L21.6842841,26.0308234 L21.7107009,26.0045994 C21.719441,25.9959231 21.730317,25.9851264 21.7432799,25.9722581 L21.9149645,25.8018267 C22.8164744,24.906897 26.2316057,21.5166929 29.8694631,17.9053885 L30.4774421,17.3018472 C34.8437744,12.9673851 39.3462906,8.49773298 40.0810506,7.76833607 Z" id="形状" fill="#02DE6D"></path>
            </g>
        </g>
    </g>
</svg>