<?xml version="1.0" encoding="UTF-8"?>
<svg width="44px" height="44px" viewBox="0 0 44 44" version="1.1" xmlns="http://www.w3.org/2000/svg" xmlns:xlink="http://www.w3.org/1999/xlink">
    <title>HTSCIT_完成</title>
    <g id="CDN" stroke="none" stroke-width="1" fill="none" fill-rule="evenodd">
        <g id="购买资源包-支付失败" transform="translate(-697.000000, -140.000000)" fill-rule="nonzero">
            <g id="HTSCIT_完成" transform="translate(697.000000, 140.000000)">
                <rect id="矩形" fill="#000000" opacity="0" x="0" y="0" width="44" height="44"></rect>
                <path d="M22,1 C10.3706074,1 1,10.3704942 1,21.9997464 C1,33.6289996 10.3706074,42.9994928 22,42.9994928 C33.6293936,42.9994928 43,33.6289996 43,21.9997464 C43,19.7409885 42.6869023,17.4822295 41.8817883,15.3800185 C41.8817883,15.3800185 39.2651757,17.9518734 39.2651757,17.9518734 C39.5782774,19.2489821 39.7795519,20.5460908 39.7795519,21.9997464 C39.7795519,31.8622481 31.8626207,39.7790837 22,39.7790837 C12.1373803,39.7790837 4.22044733,31.8622481 4.22044733,21.9997464 C4.22044733,12.1372458 12.1373803,4.22040844 22,4.22040844 C26.8530359,4.22040844 31.1916937,6.14370818 34.2779568,9.22993298 C34.2779568,9.22993298 36.536744,6.97117404 36.536744,6.97117404 C32.8242816,3.2587587 27.658148,1 22,1 C22,1 22,1 22,1 Z" id="形状" fill="#FE4D4F"></path>
                <g id="编组-4" transform="translate(12.250000, 14.400000)" fill="#FE4D4F">
                    <circle id="椭圆形备份-2" cx="2.75" cy="2" r="2"></circle>
                    <circle id="椭圆形备份-3" cx="16.75" cy="2" r="2"></circle>
                    <path d="M19.3027973,13.269371 C19.3027973,13.269371 19.5018215,13.5629697 19.5018215,13.5629697 C19.5018215,13.5629697 16.9975853,15.214879 16.9975853,15.214879 C15.2461433,12.5597539 12.5890398,11 9.73962307,11 C6.99804115,11 4.43436623,12.4438014 2.68382454,14.918941 C2.68382454,14.918941 2.49940705,15.1880622 2.49940705,15.1880622 C2.49940705,15.1880622 0,13.5288563 0,13.5288563 C2.28678846,10.0840669 5.85088587,8 9.73962307,8 C13.5302153,8 17.0119057,9.98022282 19.3027973,13.269371 Z" id="路径备份"></path>
                </g>
            </g>
        </g>
    </g>
</svg>