<?xml version="1.0" encoding="UTF-8"?>
<svg width="24px" height="24px" viewBox="0 0 24 24" version="1.1" xmlns="http://www.w3.org/2000/svg" xmlns:xlink="http://www.w3.org/1999/xlink">
    <g id="主账号" stroke="none" stroke-width="1" fill="none" fill-rule="evenodd">
        <g id="费用中心--在线充值" transform="translate(-976.000000, -307.000000)" fill-rule="nonzero">
            <g id="编组-6" transform="translate(976.000000, 307.000000)">
                <rect id="矩形" opacity="0.131231399" x="0" y="0" width="24" height="24"></rect>
                <g id="微信支付" transform="translate(4.000000, 4.000000)">
                    <rect id="矩形" fill="#000000" opacity="0" x="0" y="0" width="16" height="16"></rect>
                    <path d="M0,7.64 L0,7.16 C0.04,6.72 0.12,6.32 0.24,5.92 C0.56,4.88 1.08,4 1.8,3.24 C2.8,2.16 4,1.48 5.32,1.04 C6.08,0.8 6.84,0.68 7.6,0.64 C8.24,0.6 8.84,0.64 9.48,0.76 C10,0.84 10.48,0.96 11,1.16 C12.24,1.6 13.32,2.28 14.24,3.24 C14.36,3.36 14.44,3.48 14.56,3.6 C14.52,3.6 14.52,3.64 14.48,3.64 C14.16,3.8 13.84,3.96 13.52,4.08 C11.28,5.12 9.04,6.16 6.8,7.16 C6.36,7.36 5.92,7.32 5.52,7.08 C5.2,6.88 4.92,6.68 4.6,6.48 C4.4,6.32 4.2,6.2 3.96,6.04 C3.76,5.92 3.64,6 3.64,6.24 L3.64,6.28 C3.68,6.48 3.72,6.68 3.8,6.88 C4.2,7.84 4.6,8.76 5,9.72 C5.12,10 5.32,10.12 5.56,10.08 C5.72,10.08 5.88,10.04 6,9.96 C6.48,9.72 6.92,9.44 7.36,9.16 C9.8,7.72 12.2,6.28 14.64,4.84 C14.8,4.72 15,4.64 15.16,4.52 C15.16,4.56 15.2,4.56 15.2,4.6 C15.28,4.76 15.36,4.88 15.4,5.04 C15.84,6 16.04,7 15.96,8.04 C15.92,8.48 15.84,8.92 15.72,9.36 C15.44,10.32 14.96,11.16 14.28,11.92 C13.48,12.8 12.48,13.48 11.4,13.92 C10.76,14.16 10.12,14.36 9.48,14.48 C9.04,14.56 8.6,14.6 8.2,14.6 L7.48,14.6 C7.16,14.56 6.84,14.56 6.56,14.52 C6.08,14.44 5.6,14.32 5.16,14.16 L5.04,14.16 C4.84,14.28 4.68,14.4 4.48,14.52 C4.04,14.8 3.64,15.04 3.2,15.28 C3.12,15.32 3,15.36 2.92,15.36 C2.84,15.36 2.76,15.32 2.76,15.2 C2.76,15.12 2.76,15 2.8,14.92 C2.88,14.32 3,13.76 3.12,13.16 C3.12,13.08 3.12,13.04 3.04,13 C2.8,12.8 2.56,12.64 2.32,12.4 C1.52,11.68 0.88,10.8 0.48,9.8 C0.32,9.36 0.2,8.88 0.12,8.4 C0.08,8.2 0.08,8 0.08,7.76 C0,7.76 0,7.72 0,7.64 L0,7.64 Z" id="路径" fill="#6BCC03"></path>
                </g>
            </g>
        </g>
    </g>
</svg>