<?xml version="1.0" encoding="UTF-8"?>
<svg width="18px" height="18px" viewBox="0 0 18 18" version="1.1" xmlns="http://www.w3.org/2000/svg" xmlns:xlink="http://www.w3.org/1999/xlink">
    <g id="主账号" stroke="none" stroke-width="1" fill="none" fill-rule="evenodd" opacity="0.504906064">
        <g id="支付系统--订单支付-网银备份" transform="translate(-354.000000, -468.000000)" fill="#394AFF" fill-rule="nonzero">
            <g id="48银行卡" transform="translate(354.000000, 468.000000)">
                <rect id="矩形" opacity="0" x="0" y="0" width="18" height="18"></rect>
                <path d="M16.875,4.5 L16.875,5.625 L1.125,5.625 L1.125,4.5 C1.125,3.88125 1.63125,3.375 2.25,3.375 L15.75,3.375 C16.36875,3.375 16.875,3.88125 16.875,4.5 Z M16.875,6.75 L16.875,13.5 C16.875,14.11875 16.36875,14.625 15.75,14.625 L2.25,14.625 C1.63125,14.625 1.125,14.11875 1.125,13.5 L1.125,6.75 L16.875,6.75 Z M4.5,11.25 L2.25,11.25 L2.25,11.8125 L4.5,11.8125 L4.5,11.25 Z M6.75,10.125 L2.25,10.125 L2.25,10.6875 L6.75,10.6875 L6.75,10.125 Z" id="形状"></path>
            </g>
        </g>
    </g>
</svg>