<?xml version="1.0" encoding="UTF-8"?>
<svg width="48px" height="48px" viewBox="0 0 48 48" version="1.1" xmlns="http://www.w3.org/2000/svg" xmlns:xlink="http://www.w3.org/1999/xlink">
    <title>YUAN-circle-fill</title>
    <g id="CDN" stroke="none" stroke-width="1" fill="none" fill-rule="evenodd">
        <g id="购买资源包-支付订单2" transform="translate(-750.000000, -643.000000)" fill-rule="nonzero">
            <g id="编组-8备份" transform="translate(730.000000, 623.000000)">
                <g id="YUAN-circle-fill" transform="translate(20.000000, 20.000000)">
                    <rect id="矩形" fill="#000000" opacity="0" x="0" y="0" width="48" height="48"></rect>
                    <g id="编组-14" transform="translate(2.000000, 2.000000)">
                        <path d="M22,6 C13.1642857,6 6,13.1642857 6,22 C6,30.8357143 13.1642857,38 22,38 C30.8357143,38 38,30.8357143 38,22 C38,13.1642857 30.8357143,6 22,6 Z M27.95,14.8142857 L23.9821429,22.1285714 L26.1964286,22.1285714 C26.3535714,22.1285714 26.4821429,22.2571429 26.4821429,22.4142857 L26.4821429,23.4821429 C26.4821429,23.6392857 26.3535714,23.7678571 26.1964286,23.7678571 L23.2678571,23.7678571 L23.2678571,25.25 L26.1964286,25.25 C26.3535714,25.25 26.4821429,25.3785714 26.4821429,25.5357143 L26.4821429,26.6035714 C26.4821429,26.7607143 26.3535714,26.8892857 26.1964286,26.8892857 L23.2678571,26.8892857 L23.2678571,29.3214286 C23.2678571,29.4785714 23.1392857,29.6071429 22.9821429,29.6071429 L21.0428571,29.6071429 C20.8857143,29.6071429 20.7571429,29.4785714 20.7571429,29.3214286 L20.7571429,26.8892857 L17.8392857,26.8892857 C17.6821429,26.8892857 17.5535714,26.7607143 17.5535714,26.6035714 L17.5535714,25.5357143 C17.5535714,25.3785714 17.6821429,25.25 17.8392857,25.25 L20.7571429,25.25 L20.7571429,23.7678571 L17.8392857,23.7678571 C17.6821429,23.7678571 17.5535714,23.6392857 17.5535714,23.4821429 L17.5535714,22.4142857 C17.5535714,22.2571429 17.6821429,22.1285714 17.8392857,22.1285714 L20.0321429,22.1285714 L16.05,14.8142857 C15.975,14.675 16.025,14.5035714 16.1642857,14.425 C16.2071429,14.4035714 16.2535714,14.3892857 16.3,14.3892857 L18.4678571,14.3892857 C18.575,14.3892857 18.675,14.45 18.7214286,14.5464286 L21.9571429,20.975 L22.0785714,20.975 L25.3142857,14.5464286 C25.3642857,14.45 25.4607143,14.3892857 25.5678571,14.3892857 L27.6928571,14.3892857 C27.85,14.3892857 27.9785714,14.5178571 27.9785714,14.675 C27.9857143,14.725 27.9714286,14.7714286 27.95,14.8142857 Z" id="形状" fill="#0063FF"></path>
                        <path d="M22,0 C9.8497355,0 0,9.8497355 0,22 C0,34.1502645 9.8497355,44 22,44 C34.1502645,44 44,34.1502645 44,22 C44,9.8497355 34.1502645,0 22,0 Z M22,1.50684932 C33.3180546,1.50684932 42.4931507,10.6819454 42.4931507,22 C42.4931507,33.3180546 33.3180546,42.4931507 22,42.4931507 C10.6819454,42.4931507 1.50684932,33.3180546 1.50684932,22 C1.50684932,10.6819454 10.6819454,1.50684932 22,1.50684932 Z" id="椭圆形" fill="#000000"></path>
                    </g>
                </g>
            </g>
        </g>
    </g>
</svg>