<?xml version="1.0" encoding="UTF-8"?>
<svg width="48px" height="48px" viewBox="0 0 48 48" version="1.1" xmlns="http://www.w3.org/2000/svg" xmlns:xlink="http://www.w3.org/1999/xlink">
    <title>credit card</title>
    <g id="CDN" stroke="none" stroke-width="1" fill="none" fill-rule="evenodd">
        <g id="购买资源包-支付订单2" transform="translate(-80.000000, -643.000000)">
            <g id="编组-8" transform="translate(60.000000, 623.000000)">
                <g id="credit-card" transform="translate(20.000000, 20.000000)">
                    <rect id="矩形" fill="#000000" fill-rule="nonzero" opacity="0" x="0" y="0" width="48" height="48"></rect>
                    <g id="银行卡" transform="translate(2.000000, 8.000000)">
                        <rect id="矩形" fill="#000000" fill-rule="nonzero" opacity="0" x="0" y="0" width="44" height="32.6966618"></rect>
                        <path d="M4.50173115,32.6966618 L39.4982689,32.6966618 C41.9807134,32.6966618 44,30.4724736 44,27.7285207 L44,10.5 L0.00102203492,10.5 L0.00102203492,27.7285207 C-9.43847366e-12,30.4724736 2.01621936,32.6966618 4.50173115,32.6966618 Z" id="形状" fill="#0063FF" fill-rule="nonzero"></path>
                        <rect id="矩形" fill="#FFFFFF" x="31" y="25" width="10" height="3" rx="1.5"></rect>
                        <path d="M4.50183576,0 C2.01933355,0 0,2.02004064 0,4.51213933 L0,8 L44,8 L44,4.51213933 C44,2.02004064 41.9837338,0 39.4981642,0 L4.50183576,0 Z" id="路径" fill="#000000" fill-rule="nonzero"></path>
                    </g>
                </g>
            </g>
        </g>
    </g>
</svg>