<svg xmlns="http://www.w3.org/2000/svg" xmlns:xlink="http://www.w3.org/1999/xlink" fill="currentColor" version="1.1" width="16" height="16" viewBox="0 0 16 16"><defs><clipPath id="master_svg0_13_581"><rect x="0" y="0" width="16" height="16" rx="0"/></clipPath></defs><g clip-path="url(#master_svg0_13_581)"><g style="opacity:0;"><rect x="0" y="0.0010000000474974513" width="15.99899959564209" height="15.99899959564209" rx="0" fill="currentColor" fill-opacity="1"/></g><g><path d="M1.694,16C0.744934,15.9728,-0.00801188,15.1914,0,14.242L0,1.745C-0.00679488,0.798255,0.74747,0.0212815,1.694,0L9.964,0C10.2669,0.011386,10.5051,0.262915,10.5,0.566C10.5058,0.870544,10.2692,1.12488,9.965,1.141L1.775,1.141C1.39864,1.13895,1.097,1.45198,1.113,1.828L1.113,14.157C1.09654,14.5345,1.39713,14.8501,1.775,14.852L13.708,14.852C14.0912,14.8532,14.401,14.5402,14.396,14.157L14.396,6.666C14.396,6.36059,14.6436,6.113,14.949,6.113C15.2544,6.113,15.502,6.36059,15.502,6.666L15.502,14.245C15.4996,15.197,14.7407,15.9746,13.789,16L1.694,16ZM4.4,12.451C4.27323,12.318,4.22475,12.1286,4.272,11.951L5.072,8.935C5.07881,8.91917,5.08828,8.90463,5.1,8.892C5.106,8.883,5.1,8.872,5.112,8.864L12.863,0.855C13.0959,0.616233,13.4165,0.48325,13.75,0.487C14.1527,0.493661,14.5357,0.661951,14.813,0.954L15.546,1.712C15.8335,2.00479,15.9962,2.39767,16,2.808C16.0055,3.14781,15.8777,3.47626,15.644,3.723L7.883,11.729C7.85985,11.7541,7.82716,11.7683,7.793,11.768Q7.787,11.768,7.782,11.768L4.882,12.585C4.71026,12.6317,4.52671,12.582,4.402,12.455L4.4,12.451Z" fill="currentColor" fill-opacity="1"/></g></g></svg>