<svg t="1719459464887" class="icon" viewBox="0 0 1024 1024" version="1.1" xmlns="http://www.w3.org/2000/svg" p-id="4261" width="200" height="200"><path d="M96 524.8a217.6 217.6 0 1 0 435.2 0 217.6 217.6 0 1 0-435.2 0z" p-id="4262" fill="#1296db"></path><path d="M531.2 281.6v57.6c44.8 38.4 83.2 102.4 83.2 179.2S576 659.2 531.2 697.6v57.6c76.8-44.8 128-134.4 128-236.8-6.4-102.4-57.6-192-128-236.8z" p-id="4263" fill="#1296db"></path><path d="M646.4 102.4V160C755.2 230.4 832 364.8 832 518.4s-76.8 288-185.6 358.4v57.6c134.4-76.8 230.4-230.4 230.4-416s-96-339.2-230.4-416z" p-id="4264" fill="#1296db"></path><path d="M582.4 192v57.6c76.8 57.6 134.4 153.6 134.4 268.8s-51.2 211.2-134.4 268.8v57.6c108.8-64 179.2-185.6 179.2-326.4S691.2 249.6 582.4 192z" p-id="4265" fill="#1296db"></path></svg>