<?xml version="1.0" encoding="UTF-8"?>
<svg width="20px" height="20px" viewBox="0 0 20 20" version="1.1" xmlns="http://www.w3.org/2000/svg" xmlns:xlink="http://www.w3.org/1999/xlink">
    <title>blue</title>
    <g id="页面-1" stroke="none" stroke-width="1" fill="none" fill-rule="evenodd">
        <g id="概览页--未开通备份-3" transform="translate(-674.000000, -239.000000)">
            <g id="blue" transform="translate(674.000000, 239.000000)">
                <rect id="矩形" x="0" y="0" width="20" height="20"></rect>
                <path d="M4,9 L4,15 L14.2676,14.9999 C14.6134,14.4022 15.2597,14 16,14 C17.1046,14 18,14.8954 18,16 C18,17.1046 17.1046,18 16,18 C15.2602,18 14.6142,17.5983 14.2682,17.0011 L2,17 L2,9 L4,9 Z M12.2619,6.60502 L14.9497,9.29289 L11.40565,12.837 L8.57659,10.00919 L7.87868,10.70711 L8.86861,11.69704 L7.4544,13.1113 L5.05025,10.70711 L8.57723,7.18013 L11.40502,10.00919 L12.1213,9.29289 L10.84766,8.01923 L12.2619,6.60502 Z M4,2 C4.73984,2 5.38585,2.401715 5.73181,2.998923 L18,3 L18,11 L16,11 L16,5 L5.73239,5.00007 C5.38657,5.59783 4.74025,6 4,6 C2.89543,6 2,5.10457 2,4 C2,2.89543 2.89543,2 4,2 Z" id="形状" fill="#555555" fill-rule="nonzero"></path>
            </g>
        </g>
    </g>
</svg>