<?xml version="1.0" encoding="UTF-8"?>
<svg width="20px" height="20px" viewBox="0 0 20 20" version="1.1" xmlns="http://www.w3.org/2000/svg" xmlns:xlink="http://www.w3.org/1999/xlink">
    <title>book</title>
    <g id="页面-1" stroke="none" stroke-width="1" fill="currentColor" fill-rule="evenodd">
        <g id="概览页--未开通备份-3" transform="translate(-674.000000, -488.000000)" fill-rule="nonzero">
            <g id="编组-7备份-5" transform="translate(673.000000, 488.000000)">
                <g id="book" transform="translate(1.000000, 0.000000)">
                    <rect id="矩形" opacity="0" x="0" y="0" width="20" height="20"></rect>
                    <path d="M16.25,1.25 L3.75,1.25 C3.40429688,1.25 3.125,1.52929688 3.125,1.875 L3.125,18.125 C3.125,18.4707031 3.40429688,18.75 3.75,18.75 L16.25,18.75 C16.5957031,18.75 16.875,18.4707031 16.875,18.125 L16.875,1.875 C16.875,1.52929688 16.5957031,1.25 16.25,1.25 Z M11.171875,2.65625 L13.046875,2.65625 L13.046875,6.75585938 L12.1386719,6.09375 L11.171875,6.78515625 L11.171875,2.65625 Z M15.46875,17.34375 L4.53125,17.34375 L4.53125,2.65625 L10,2.65625 L10,8.45507812 C10,8.51953125 10.0195312,8.58398438 10.0585938,8.63671875 C10.1582031,8.77734375 10.3535156,8.81054688 10.4941406,8.70898438 L12.1308594,7.5390625 L13.7207031,8.69921875 C13.7734375,8.73828125 13.8378906,8.75976562 13.9042969,8.75976562 C14.0761719,8.75976562 14.2167969,8.61914062 14.2167969,8.44726562 L14.2167969,2.65625 L15.4667969,2.65625 L15.4667969,17.34375 L15.46875,17.34375 Z" id="形状"></path>
                </g>
            </g>
        </g>
    </g>
</svg>
