<?xml version="1.0" encoding="UTF-8"?>
<svg width="20px" height="20px" viewBox="0 0 20 20" version="1.1" xmlns="http://www.w3.org/2000/svg" xmlns:xlink="http://www.w3.org/1999/xlink">
    <title>编组 8</title>
    <g id="页面-1" stroke="none" stroke-width="1" fill="none" fill-rule="evenodd">
        <g id="概览页--未开通备份-3" transform="translate(-240.000000, -238.000000)">
            <g id="编组-8" transform="translate(240.000000, 238.000000)">
                <rect id="矩形" x="0" y="0" width="20" height="20"></rect>
                <g id="c44cdb49c16b43900604eef994098fec" transform="translate(3.000000, 2.000000)" fill="#555555">
                    <path d="M0,4.001 L7,8 L7,16 L0,12.001 L0,4.001 Z M3.999,2.001 L11,6 L11,14.001 L9,12.857 L9,7.159 L3.999,4.302 L3.999,2.001 Z M2,7.44693 L2,10.8402 L5,12.5541 L5,9.16079 L2,7.44693 Z M8,0 L15,4.001 L15,12.001 L12.999,10.858 L12.999,5.159 L8,2.302 L8,0 Z" id="形状"></path>
                </g>
            </g>
        </g>
    </g>
</svg>