<?xml version="1.0" encoding="UTF-8"?>
<svg width="21px" height="20px" viewBox="0 0 21 20" version="1.1" xmlns="http://www.w3.org/2000/svg" xmlns:xlink="http://www.w3.org/1999/xlink">
    <title>b0b4960298b57b6028799c58fbd39c0d</title>
    <g id="页面-1" stroke="none" stroke-width="1" fill="none" fill-rule="evenodd">
        <g id="概览页--未开通备份-3" transform="translate(-455.000000, -417.000000)">
            <g id="b0b4960298b57b6028799c58fbd39c0d" transform="translate(455.500000, 417.000000)">
                <rect id="矩形" x="0" y="0" width="20" height="20"></rect>
                <path d="M12.847,15.521 C13.508,14.129 13.934,12.607 14.059,11 L16.41,11 C16.066,13.038 14.697,14.731 12.847,15.521 Z M4.591,11 L6.941,11 C7.066,12.607 7.493,14.129 8.154,15.521 C6.304,14.731 4.935,13.038 4.591,11 Z M8.154,4.478 C7.493,5.87 7.066,7.392 6.941,9 L4.591,9 C4.935,6.961 6.304,5.268 8.154,4.478 Z M12.054,11 C11.899,12.705 11.347,14.294 10.5,15.687 C9.654,14.294 9.101,12.705 8.947,11 L12.054,11 Z M8.947,9 C9.101,7.294 9.654,5.705 10.5,4.313 C11.347,5.705 11.899,7.294 12.054,9 L8.947,9 Z M16.41,9 L14.059,9 C13.934,7.392 13.508,5.87 12.847,4.478 C14.697,5.268 16.066,6.961 16.41,9 Z M10.5,2 C6.082,2 2.5,5.581 2.5,10 C2.5,14.418 6.082,18 10.5,18 C14.919,18 18.5,14.418 18.5,10 C18.5,5.581 14.919,2 10.5,2 Z" id="形状" fill="#555555"></path>
            </g>
        </g>
    </g>
</svg>