<?xml version="1.0" encoding="UTF-8"?>
<svg width="20px" height="20px" viewBox="0 0 20 20" version="1.1" xmlns="http://www.w3.org/2000/svg" xmlns:xlink="http://www.w3.org/1999/xlink">
    <title>ef8cbe7b73e97f54b3c831bcee5b52bc</title>
    <g id="页面-1" stroke="none" stroke-width="1" fill="none" fill-rule="evenodd">
        <g id="概览页--未开通备份-3" transform="translate(-457.000000, -239.000000)">
            <g id="ef8cbe7b73e97f54b3c831bcee5b52bc" transform="translate(457.000000, 239.000000)">
                <rect id="矩形" x="0" y="0" width="20" height="20"></rect>
                <path d="M13.0005,10 C14.7018,10 16.1168,11.11639 16.434,12.6523 C17.3727,13.1465 18.0005,14.0717 18.0005,15.1538 C18.0005,16.7402 16.6357,18 15.0005,18 L11.00046,18 C9.36526,18 8.00046,16.7402 8.00046,15.1538 C8.00046,14.0692 8.63446,13.1118 9.57099,12.6329 C9.89606,11.10698 11.30632,10 13.0005,10 Z M17.0005,5 L17.0003,5.03834 C17.0005,5.0457 17.0005,5.05308 17.0005,5.06046 L17.0005,10.9791 C16.6989,10.56604 16.3652,10.20396 15.9992,9.89288 C15.6985,9.63738 15.3656,9.43288 15.0005,9.27936 L15.0008,7.47401 C13.8014,7.87741 12.10026,8 10.00046,8 C7.90066,8 6.19947,7.87741 5.00014,7.47401 L5.001,9.72584 C5.64502,9.94198 6.16602,10.08554 6.55679,10.15651 L6.70039,10.18019 C7.24218,10.25964 7.14032,10.37348 7.9892,10.37348 L7.9892,12.3289 C6.98824,12.3168 7.13302,12.265 6.41021,12.159 C6.01946,12.1017 5.55139,11.99048 5.00178,11.82529 L5,15.0739 C5.03959,15.1051 5.5368,15.4262 6.0206,15.6191 C6.24039,15.7068 6.5443,15.8095 6.93231,15.9273 C6.9676,16.174 7.06487,16.4832 7.22412,16.8548 C7.38337,17.2263 7.67665,17.6081 8.10397,18 C7.91389,17.9721 7.57377,17.9129 7.0836,17.8222 C5.90122,17.6034 4.85579,17.3088 4.21657,16.9883 C4.18052,16.9703 4.00483,16.8668 3.7363,16.6545 C3.256411,16.2751 3,15.6853 3,15.0736 L3.000477,5.06037 L3.000674,5.03865 C3.00053,5.02582 3.000457,5.01294 3.000457,5 C3.000457,2.74489 5.19894,2.107532 8.89451,2.0131278 C9.09292,2.00410376 9.29531,2 9.50046,2 L9.6113,2.0014763 C9.64275,2.00123159 9.6743,2.00101806 9.70594,2.00083516 L10.00046,2 C14.3593,2 17.0005,2.528238 17.0005,5 Z M13.0005,12 C12.13566,12 11.50046,12.5863 11.50046,13.3077 L11.50046,14.16 L10.7127,14.3311 C10.29789,14.4212 10.00046,14.7723 10.00046,15.1538 C10.00046,15.5983 10.43566,16 11.00046,16 L15.0005,16 C15.5653,16 16.0005,15.5983 16.0005,15.1538 C16.0005,14.7849 15.7086,14.4466 15.2384,14.3189 L14.5005,14.1186 L14.5005,13.3077 C14.5005,12.5863 13.8653,12 13.0005,12 Z M10.00046,4 C7.51339,4 5.45044,4.36317 5.06507,4.83882 C5.04051,4.88971 5.01902,4.94365 5,5 C5,5.55228 7.23903,6 10.00046,6 C12.7619,6 15.0005,5.55228 15.0005,5 C15.0005,4.44772 12.7619,4 10.00046,4 Z" id="形状" fill="#555555" fill-rule="nonzero"></path>
            </g>
        </g>
    </g>
</svg>