<?xml version="1.0" encoding="UTF-8"?>
<svg width="20px" height="20px" viewBox="0 0 20 20" version="1.1" xmlns="http://www.w3.org/2000/svg" xmlns:xlink="http://www.w3.org/1999/xlink">
    <title>blue</title>
    <g id="页面-1" stroke="none" stroke-width="1" fill="none" fill-rule="evenodd">
        <g id="概览页--未开通备份-3" transform="translate(-240.000000, -388.000000)" fill-rule="nonzero">
            <g id="blue" transform="translate(240.000000, 388.000000)">
                <path d="M10.0136999,2 C14.2147792,2 17.6608225,5.2271605 17.9999999,9.33367636 L16.6588033,9.33325256 C16.3237163,5.96440921 13.4764955,3.33333088 10.0136999,3.33333088 C6.32549632,3.33333088 3.33561658,6.31809371 3.33561658,9.99998527 C3.33561658,13.6818768 6.32549632,16.6666397 10.0136999,16.6666397 C13.2442505,16.6666397 15.939029,14.3766518 16.5580538,11.334022 L17.9164993,11.3339107 C17.280396,15.117229 13.9842752,17.9999705 10.0136999,17.9999705 C5.58785561,17.9999705 1.99999992,14.4182551 1.99999992,9.99998527 C1.99999992,5.5817154 5.58785561,2 10.0136999,2 Z M9.33332719,10.6666507 L9.33332719,15.3333088 L5.33332719,13.2621913 L5.33332719,10.6666507 L9.33332719,10.6666507 Z M14.6666507,10.6666507 L14.6666507,13.2621913 L10.6666507,15.3333088 L10.6666507,10.6666507 L14.6666507,10.6666507 Z M8.00686556,11.9999816 L6.66665807,11.9999816 L6.66665807,12.6611132 L8.00686556,13.3385615 L8.00686556,11.9999816 Z M13.3333124,11.9999816 L11.993105,11.9999816 L11.993105,13.3385615 L13.3333124,12.6611132 L13.3333124,11.9999816 Z M9.33332719,5.33332719 L9.33332719,9.99998527 L5.33332719,9.99998527 L5.33332719,7.4044447 L9.33332719,5.33332719 Z M10.6666507,5.33332719 L14.6666507,7.4044447 L14.6666507,9.99998527 L10.6666507,9.99998527 L10.6666507,5.33332719 Z M8.00686556,7.32807449 L6.66665807,8.00552279 L6.66665807,8.66665439 L8.00686556,8.66665439 L8.00686556,7.32807449 Z M11.993105,7.32807449 L11.993105,8.66665439 L13.3333124,8.66665439 L13.3333124,8.00552279 L11.993105,7.32807449 Z" id="形状结合" fill="#555555"></path>
                <rect id="Rectangle-Copy" fill="#444444" opacity="0" x="0" y="0" width="20" height="20"></rect>
            </g>
        </g>
    </g>
</svg>