<?xml version="1.0" encoding="UTF-8"?>
<svg width="12px" height="12px" viewBox="0 0 12 12" version="1.1" xmlns="http://www.w3.org/2000/svg" xmlns:xlink="http://www.w3.org/1999/xlink">
    <g id="登录注册" stroke="none" stroke-width="1" fill="none" fill-rule="evenodd">
        <g id="忘记密码--设置密码-/风险提示" transform="translate(-574.000000, -224.000000)" fill-rule="nonzero">
            <g id="编组-15备份-2" transform="translate(564.000000, 186.000000)">
                <g id="编组-9" transform="translate(10.000000, 36.000000)">
                    <g id="check-circle-fill" transform="translate(0.000000, 2.000000)">
                        <rect id="矩形" fill="#000000" opacity="0" x="0" y="0" width="12" height="12"></rect>
                        <path d="M6,0.75 C3.10078125,0.75 0.75,3.10078125 0.75,6 C0.75,8.89921875 3.10078125,11.25 6,11.25 C8.89921875,11.25 11.25,8.89921875 11.25,6 C11.25,3.10078125 8.89921875,0.75 6,0.75 Z M8.26757813,4.28554688 L5.79960937,7.70742187 C5.65078125,7.91484375 5.34257813,7.91484375 5.19375,7.70742187 L3.73242188,5.68242188 C3.68789063,5.6203125 3.73242188,5.53359375 3.80859375,5.53359375 L4.35820312,5.53359375 C4.47773437,5.53359375 4.59140625,5.59101562 4.66171875,5.68945312 L5.49609375,6.84726562 L7.33828125,4.29257813 C7.40859375,4.1953125 7.52109375,4.13671875 7.64179687,4.13671875 L8.19140625,4.13671875 C8.26757813,4.13671875 8.31210938,4.2234375 8.26757813,4.28554688 Z" id="形状" fill="#02DE6D"></path>
                    </g>
                </g>
            </g>
        </g>
    </g>
</svg>