<?xml version="1.0" encoding="UTF-8"?>
<svg width="12px" height="12px" viewBox="0 0 12 12" version="1.1" xmlns="http://www.w3.org/2000/svg" xmlns:xlink="http://www.w3.org/1999/xlink">
    <g id="登录注册" stroke="none" stroke-width="1" fill="none" fill-rule="evenodd">
        <g id="设置新密码备份" transform="translate(-940.000000, -641.000000)" fill="#F5A623" fill-rule="nonzero">
            <g id="编组-15" transform="translate(930.000000, 582.000000)">
                <g id="编组-8" transform="translate(10.000000, 57.000000)">
                    <g id="info-circle-fill" transform="translate(0.000000, 2.000000)">
                        <rect id="矩形" opacity="0" x="0" y="0" width="12" height="12"></rect>
                        <path d="M6,0.75 C3.10078125,0.75 0.75,3.10078125 0.75,6 C0.75,8.89921875 3.10078125,11.25 6,11.25 C8.89921875,11.25 11.25,8.89921875 11.25,6 C11.25,3.10078125 8.89921875,0.75 6,0.75 Z M6.375,8.53125 C6.375,8.5828125 6.3328125,8.625 6.28125,8.625 L5.71875,8.625 C5.6671875,8.625 5.625,8.5828125 5.625,8.53125 L5.625,5.34375 C5.625,5.2921875 5.6671875,5.25 5.71875,5.25 L6.28125,5.25 C6.3328125,5.25 6.375,5.2921875 6.375,5.34375 L6.375,8.53125 Z M6,4.5 C5.68945312,4.5 5.4375,4.24804688 5.4375,3.9375 C5.4375,3.62695312 5.68945312,3.375 6,3.375 C6.31054688,3.375 6.5625,3.62695312 6.5625,3.9375 C6.5625,4.24804688 6.31054688,4.5 6,4.5 Z" id="形状"></path>
                    </g>
                </g>
            </g>
        </g>
    </g>
</svg>