<?xml version="1.0" encoding="UTF-8"?>
<svg width="16px" height="16px" viewBox="0 0 16 16" version="1.1" xmlns="http://www.w3.org/2000/svg" xmlns:xlink="http://www.w3.org/1999/xlink">
    <title>key</title>
    <g id="账户中心" stroke="none" stroke-width="1" fill="none" fill-rule="evenodd">
        <g id="账户中心-谷歌验证/海外" transform="translate(-302.000000, -566.000000)" fill-rule="nonzero">
            <g id="亮色-小-水平-当前项备份" transform="translate(260.000000, 316.000000)">
                <g id="编组-6" transform="translate(32.000000, 240.000000)">
                    <g id="key" transform="translate(10.000000, 10.000000)">
                        <rect id="矩形" fill="#000000" opacity="0" x="0" y="0" width="16" height="16"></rect>
                        <path d="M9.5,1.75 C6.8765625,1.75 4.75,3.8765625 4.75,6.5 C4.75,7.5984375 5.1234375,8.609375 5.7484375,9.4140625 L5.10625,10.05625 L4.1328125,9.0828125 C4.084375,9.034375 4.0046875,9.034375 3.9546875,9.0828125 L3.3328125,9.7046875 C3.284375,9.753125 3.284375,9.8328125 3.3328125,9.8828125 L4.30625,10.85625 L3.6046875,11.5578125 L2.63125,10.584375 C2.5828125,10.5359375 2.503125,10.5359375 2.453125,10.584375 L1.83125,11.20625 C1.7828125,11.2546875 1.7828125,11.334375 1.83125,11.384375 L2.8046875,12.3578125 L1.784375,13.378125 C1.7359375,13.4265625 1.7359375,13.50625 1.784375,13.5546875 L2.4453125,14.215625 C2.49375,14.2640625 2.5734375,14.2640625 2.621875,14.215625 L6.584375,10.253125 C7.390625,10.8765625 8.4015625,11.25 9.5,11.25 C12.1234375,11.25 14.25,9.1234375 14.25,6.5 C14.25,3.8765625 12.1234375,1.75 9.5,1.75 Z M12.01875,9.01875 C11.346875,9.6921875 10.4515625,10.0625 9.5,10.0625 C8.5484375,10.0625 7.653125,9.6921875 6.98125,9.01875 C6.3078125,8.346875 5.9375,7.4515625 5.9375,6.5 C5.9375,5.5484375 6.3078125,4.653125 6.98125,3.98125 C7.653125,3.3078125 8.5484375,2.9375 9.5,2.9375 C10.4515625,2.9375 11.346875,3.3078125 12.01875,3.98125 C12.6921875,4.653125 13.0625,5.5484375 13.0625,6.5 C13.0625,7.4515625 12.6921875,8.346875 12.01875,9.01875 Z" id="形状" fill="#324065"></path>
                    </g>
                </g>
            </g>
        </g>
    </g>
</svg>