<?xml version="1.0" encoding="UTF-8"?>
<svg width="20px" height="20px" viewBox="0 0 20 20" version="1.1" xmlns="http://www.w3.org/2000/svg" xmlns:xlink="http://www.w3.org/1999/xlink">
    <g id="主账号" stroke="none" stroke-width="1" fill="none" fill-rule="evenodd">
        <g id="支付系统--订单支付--微信" transform="translate(-430.000000, -568.000000)" fill="#FFFFFF" fill-rule="nonzero">
            <g id="编组-31" transform="translate(340.000000, 452.000000)">
                <g id="编组-13备份" transform="translate(58.000000, 65.000000)">
                    <g id="sync-outlined" transform="translate(32.000000, 51.000000)">
                        <rect id="矩形" opacity="0" x="0" y="0" width="20" height="20"></rect>
                        <path d="M3.28125,9.84765625 C3.30078125,8.99414062 3.4765625,8.16601562 3.80664062,7.38671875 C4.14453125,6.5859375 4.62890625,5.86914062 5.24609375,5.25 C5.86328125,4.63085937 6.58203125,4.14648438 7.3828125,3.80859375 C8.2109375,3.45898438 9.08984375,3.28125 9.99804688,3.28125 C10.90625,3.28125 11.7851563,3.45898438 12.6113281,3.80859375 C13.4101563,4.14648438 14.1289063,4.63085938 14.7460938,5.25 C14.9394531,5.44335938 15.1210938,5.6484375 15.2890625,5.86328125 L14.1132813,6.78125 C14.0097656,6.86132812 14.0449219,7.02539062 14.171875,7.05664062 L17.6035156,7.89648438 C17.7011719,7.91992188 17.796875,7.84570312 17.796875,7.74609375 L17.8125,4.21289062 C17.8125,4.08203125 17.6621094,4.0078125 17.5605469,4.08984375 L16.4589844,4.95117188 C14.9570313,3.02929688 12.6210938,1.796875 9.99609375,1.796875 C5.52148438,1.796875 1.88085937,5.3828125 1.79683527,9.83984375 C1.79492187,9.92773438 1.86523437,10 1.953125,10 L3.125,10 C3.2109375,10 3.27929688,9.93164062 3.28125,9.84765625 Z M18.046875,10 L16.875,10 C16.7890625,10 16.7207031,10.0683594 16.71875,10.1523438 C16.6992188,11.0058594 16.5234375,11.8339844 16.1933594,12.6132812 C15.8554688,13.4140625 15.3710938,14.1328125 14.7539062,14.75 C14.1367188,15.3671875 13.4179688,15.8535156 12.6171875,16.1914062 C11.7890625,16.5410156 10.9101563,16.71875 10.0019531,16.71875 C9.09375,16.71875 8.21484375,16.5410156 7.38671875,16.1914062 C6.58789063,15.8535156 5.86914063,15.3691406 5.25195313,14.75 C5.05859375,14.5566406 4.87695313,14.3515625 4.70898438,14.1367188 L5.88476562,13.21875 C5.98828125,13.1386719 5.953125,12.9746094 5.82617188,12.9433594 L2.39453125,12.1035156 C2.296875,12.0800781 2.20117187,12.1542969 2.20117187,12.2539063 L2.1875,15.7890625 C2.1875,15.9199219 2.33789062,15.9941406 2.43945312,15.9121094 L3.54101562,15.0507812 C5.04296875,16.9707031 7.37890625,18.203125 10.0039063,18.203125 C14.4804688,18.203125 18.1191406,14.6152344 18.2031647,10.1601562 C18.2050781,10.0722656 18.1347656,10 18.046875,10 Z" id="形状"></path>
                    </g>
                </g>
            </g>
        </g>
    </g>
</svg>