<?xml version="1.0" encoding="UTF-8"?>
<svg width="14px" height="14px" viewBox="0 0 14 14" version="1.1" xmlns="http://www.w3.org/2000/svg" xmlns:xlink="http://www.w3.org/1999/xlink">
    <g id="主账号" stroke="none" stroke-width="1" fill="none" fill-rule="evenodd">
        <g id="账号信息-复制-编辑" transform="translate(-871.000000, -208.000000)" fill="#555555" fill-rule="nonzero">
            <g id="编组-4" transform="translate(219.000000, 139.000000)">
                <g id="编组-15" transform="translate(602.000000, 66.000000)">
                    <g id="question-circle-outlined" transform="translate(50.000000, 3.000000)">
                        <rect id="矩形" opacity="0" x="0" y="0" width="14" height="14"></rect>
                        <path d="M7,0.875 C3.61757813,0.875 0.875,3.61757813 0.875,7 C0.875,10.3824219 3.61757813,13.125 7,13.125 C10.3824219,13.125 13.125,10.3824219 13.125,7 C13.125,3.61757813 10.3824219,0.875 7,0.875 Z M7,12.0859375 C4.19179688,12.0859375 1.9140625,9.80820312 1.9140625,7 C1.9140625,4.19179688 4.19179688,1.9140625 7,1.9140625 C9.80820312,1.9140625 12.0859375,4.19179688 12.0859375,7 C12.0859375,9.80820312 9.80820312,12.0859375 7,12.0859375 Z" id="形状"></path>
                        <path d="M8.52578125,4.32988281 C8.115625,3.9703125 7.57421875,3.7734375 7,3.7734375 C6.42578125,3.7734375 5.884375,3.97167969 5.47421875,4.32988281 C5.04765625,4.703125 4.8125,5.20488281 4.8125,5.7421875 L4.8125,5.84609375 C4.8125,5.90625 4.86171875,5.95546875 4.921875,5.95546875 L5.578125,5.95546875 C5.63828125,5.95546875 5.6875,5.90625 5.6875,5.84609375 L5.6875,5.7421875 C5.6875,5.13925781 6.27675781,4.6484375 7,4.6484375 C7.72324219,4.6484375 8.3125,5.13925781 8.3125,5.7421875 C8.3125,6.16738281 8.01171875,6.55703125 7.54550781,6.73613281 C7.25566406,6.846875 7.00957031,7.04101562 6.83320312,7.2953125 C6.65410156,7.55507813 6.56113281,7.86679687 6.56113281,8.18261719 L6.56113281,8.4765625 C6.56113281,8.53671875 6.61035156,8.5859375 6.67050781,8.5859375 L7.32675781,8.5859375 C7.38691406,8.5859375 7.43613281,8.53671875 7.43613281,8.4765625 L7.43613281,8.16621094 C7.43613281,7.896875 7.60566406,7.65078125 7.85859375,7.55371094 C8.66523438,7.24335937 9.18613874,6.53242188 9.18613874,5.7421875 C9.1875,5.20488281 8.95234375,4.703125 8.52578125,4.32988281 Z M6.453125,10.0078125 C6.453125,10.3098432 6.69796928,10.5546875 7,10.5546875 C7.30203072,10.5546875 7.546875,10.3098432 7.546875,10.0078125 C7.546875,9.70578178 7.30203072,9.4609375 7,9.4609375 C6.69796928,9.4609375 6.453125,9.70578178 6.453125,10.0078125 Z" id="形状"></path>
                    </g>
                </g>
            </g>
        </g>
    </g>
</svg>
