<svg xmlns="http://www.w3.org/2000/svg" xmlns:xlink="http://www.w3.org/1999/xlink" fill="none" version="1.1" width="15" height="15" viewBox="0 0 15 15"><defs><clipPath id="master_svg0_8_0616"><rect x="0" y="0" width="15" height="15" rx="0"/></clipPath></defs><g clip-path="url(#master_svg0_8_0616)"><g style="opacity:0;"><rect x="0" y="0" width="15" height="15" rx="0" fill="#000000" fill-opacity="1"/></g><g><path d="M4.05469,12.7153L4.965,11.7778C5.72797,12.2457,6.60501,12.4944,7.5,12.4969C10.2975,12.4547,12.5336,10.15702,12.4997,7.35938L11.25,7.35938L13.125,4.7906200000000005L15,7.35937L13.7494,7.35937C13.7963,10.85816,10.9988,13.7329,7.5,13.7813L7.49156,13.7813C6.26481,13.7796,5.06705,13.4082,4.05469,12.7153ZM0,7.35938L3.75,7.35938L1.875,9.92813L0,7.35938ZM1.24969,7.35938C1.20277,3.86023,4.00087,0.9853279,7.5,0.9375C8.72958,0.937754124,9.93042,1.309281,10.9453,2.0034400000000003L10.035,2.94094C9.27228,2.4725200000000003,8.39507,2.22369,7.5,2.22187C4.70224,2.2635300000000003,2.46589,4.56152,2.50031,7.35938L1.24969,7.35938Z" fill="currentColor" fill-opacity="1"/></g></g></svg>