<?xml version="1.0" encoding="UTF-8"?>
<svg width="16px" height="16px" viewBox="0 0 16 16" version="1.1" xmlns="http://www.w3.org/2000/svg" xmlns:xlink="http://www.w3.org/1999/xlink">
    <g id="CDN" stroke="none" stroke-width="1" fill="none" fill-rule="evenodd">
        <g id="猫云控制台设计规范2" transform="translate(-507.000000, -713.000000)" fill-rule="nonzero">
            <g id="编组-90" transform="translate(160.000000, 535.000000)">
                <g id="编组-87" transform="translate(0.000000, 177.000000)">
                    <g id="刷新" transform="translate(347.000000, 1.000000)">
                        <rect id="矩形" fill="#000000" opacity="0" x="0" y="0" width="16" height="16"></rect>
                        <path d="M8,13.3299948 C7.01266667,13.3299948 6.09033333,13.0477751 5.29633333,12.5655355 L4.32533333,13.5632371 C5.41448818,14.3058377 6.69286957,14.7013044 8,14.6999968 C11.682,14.6999968 14.6666667,11.6332514 14.6666667,7.85 L13.3333333,7.85 C13.3333333,10.8715321 10.9406667,13.3299948 8,13.3299948 Z M8,1.00000323 C4.318,1.00000323 1.33333333,4.06674858 1.33333333,7.85 L2.66666667,7.85 C2.66666667,4.82846786 5.05933333,2.37000518 8,2.37000518 C8.98733333,2.37000518 9.90966667,2.65222492 10.7036667,3.13446446 L11.6746667,2.1367629 C10.5855118,1.39416234 9.30713043,0.99869565 8,1.00000323 Z M12,7.85 L16,7.85 L14,5.11000259 L12,7.85 Z M4,7.85 L0,7.85 L2,10.5899974 L4,7.85 Z" id="形状" fill="currentColor"></path>
                    </g>
                </g>
            </g>
        </g>
    </g>
</svg>