<?xml version="1.0" encoding="UTF-8"?>
<svg width="110px" height="110px" viewBox="0 0 110 110" version="1.1" xmlns="http://www.w3.org/2000/svg" xmlns:xlink="http://www.w3.org/1999/xlink">
    <g id="登录注册" stroke="none" stroke-width="1" fill="none" fill-rule="evenodd">
        <g id="注册成功" transform="translate(-665.000000, -204.000000)" fill="#02DE6D">
            <g id="编组-2" transform="translate(665.000000, 204.000000)">
                <path d="M55,0 C85.3756612,0 110,24.6243388 110,55 C110,85.3756612 85.3756612,110 55,110 C24.6243388,110 0,85.3756612 0,55 C0,24.6243388 24.6243388,0 55,0 Z M55,17 C34.0131795,17 17,34.0131795 17,55 C17,75.9868205 34.0131795,93 55,93 C75.9868205,93 93,75.9868205 93,55 C93,34.0131795 75.9868205,17 55,17 Z" id="椭圆形" fill-rule="nonzero" opacity="0.0945172991"></path>
                <g id="Icon/Fill/Check-Circle-Fill" transform="translate(11.000000, 11.000000)">
                    <rect id="矩形" fill-rule="nonzero" opacity="0" x="0" y="0" width="88" height="88"></rect>
                    <path d="M44,5.5 C22.7390625,5.5 5.5,22.7390625 5.5,44 C5.5,65.2609375 22.7390625,82.5 44,82.5 C65.2609375,82.5 82.5,65.2609375 82.5,44 C82.5,22.7390625 65.2609375,5.5 44,5.5 Z M60.6289063,31.4273437 L42.5304687,56.5210937 C41.4390625,58.0421875 39.1789062,58.0421875 38.0875,56.5210937 L27.3710938,41.6710937 C27.0445312,41.215625 27.3710938,40.5796875 27.9296875,40.5796875 L31.9601562,40.5796875 C32.8367188,40.5796875 33.6703125,41.0007812 34.1859375,41.7226562 L40.3046875,50.2132812 L53.8140625,31.4789062 C54.3296875,30.765625 55.1546875,30.3359375 56.0398438,30.3359375 L60.0703125,30.3359375 C60.6289063,30.3359375 60.9554688,30.971875 60.6289063,31.4273437 Z" id="形状"></path>
                </g>
                <path d="M81.2543435,6.40135218 C81.86111,5.16111036 83.358406,4.6475771 84.5986478,5.25434353 C85.8388896,5.86110997 86.3524229,7.358406 85.7456565,8.59864782 L81.566556,17.1408066 C80.9597895,18.3810484 79.4624935,18.8945816 78.2222517,18.2878152 C76.9820099,17.6810488 76.4684766,16.1837527 77.075243,14.9435109 L81.2543435,6.40135218 Z" id="路径-4" fill-rule="nonzero"></path>
                <path d="M95.6982898,10.7668409 C96.6554871,9.77178386 98.238102,9.74109248 99.2331591,10.6982898 C100.228216,11.6554871 100.258908,13.238102 99.3017102,14.2331591 L90.1226097,23.7753178 C89.1654124,24.7703749 87.5827975,24.8010663 86.5877404,23.8438689 C85.5926834,22.8866716 85.561992,21.3040567 86.5191893,20.3089997 L95.6982898,10.7668409 Z" id="路径-4备份" fill-rule="nonzero"></path>
                <path d="M101.813197,26.0961901 C103.140785,25.7168794 104.524499,26.4856096 104.90381,27.8131972 C105.283121,29.1407847 104.51439,30.5244991 103.186803,30.9038099 L96.1868028,32.9038099 C94.8592153,33.2831206 93.4755009,32.5143904 93.0961901,31.1868028 C92.7168794,29.8592153 93.4856096,28.4755009 94.8131972,28.0961901 L101.813197,26.0961901 Z" id="路径-4备份-2" fill-rule="nonzero"></path>
            </g>
        </g>
    </g>
</svg>