<?xml version="1.0" encoding="UTF-8"?>
<svg width="16px" height="16px" viewBox="0 0 16 16" version="1.1" xmlns="http://www.w3.org/2000/svg" xmlns:xlink="http://www.w3.org/1999/xlink">
    <title>rollback</title>
    <defs>
        <polygon id="path-1" points="0 0 14 0 14 12.5241536 0 12.5241536"></polygon>
    </defs>
    <g id="页面-1" stroke="none" stroke-width="1" fill="none" fill-rule="evenodd">
        <g id="购买资源包-订单确认" transform="translate(-382.000000, -119.000000)">
            <g id="框架/导航条-侧边栏展开备份" transform="translate(60.000000, 100.000000)">
                <g id="rollback" transform="translate(322.000000, 19.000000)">
                    <rect id="矩形" fill="#000000" fill-rule="nonzero" opacity="0" x="0" y="0" width="16" height="16"></rect>
                    <g id="编组" transform="translate(1.000000, 1.740000)">
                        <mask id="mask-2" fill="white">
                            <use xlink:href="#path-1"></use>
                        </mask>
                        <g id="Clip-2"></g>
                        <path d="M3.94543684,0.643334916 L3.36011103,0.0571325772 C3.2839505,-0.0190279526 3.16055486,-0.0190279526 3.08449172,0.0570351852 L0.178801939,2.96272496 C-0.0592240642,3.20006922 -0.0597110241,3.5854493 0.177730628,3.82357269 C0.178120196,3.82386487 0.178509764,3.82425444 0.178801939,3.824644 L3.08449172,6.73033378 C3.16055486,6.80639692 3.2839505,6.80639692 3.36011103,6.73023639 L3.94543684,6.14393666 C4.02140258,6.06787352 4.02140258,5.94457527 3.94533945,5.86851213 L2.07794559,4.00238437 L9.0583211,4.00238437 C11.1060849,4.00238437 12.8210603,5.67830559 12.7819087,7.72577723 C12.7439259,9.70994408 11.1237129,11.306783 9.13039117,11.306783 L3.23817627,11.306783 C3.13055813,11.306783 3.0433923,11.3939488 3.0433923,11.501567 L3.0433923,12.3293988 C3.0433923,12.4369196 3.13055813,12.5241828 3.23817627,12.5241828 L9.05023757,12.5241828 C11.7205309,12.5241828 13.954703,10.4077576 13.9993085,7.73775644 C14.044888,5.01029399 11.8474327,2.7849846 9.13039117,2.7849846 L2.07794559,2.7849846 L3.94533945,0.918759441 C4.02140258,0.842696303 4.02140258,0.719398054 3.94543684,0.643334916" id="Fill-1" fill="#0063FF" mask="url(#mask-2)"></path>
                    </g>
                </g>
            </g>
        </g>
    </g>
</svg>