<svg xmlns="http://www.w3.org/2000/svg" xmlns:xlink="http://www.w3.org/1999/xlink" fill="none" version="1.1" width="16" height="16" viewBox="0 0 16 16"><defs><clipPath id="master_svg0_3_0585"><rect x="0" y="0" width="16" height="16" rx="0"/></clipPath></defs><g clip-path="url(#master_svg0_3_0585)"><g><g style="opacity:0;"><rect x="0" y="0" width="16" height="16" rx="0" fill="#000000" fill-opacity="1"/></g><g><path d="M15.234,15.99C15.0243,15.9814,14.826,15.8918,14.681,15.74L11.681,12.793C10.4208,13.7303,8.8906,14.2338,7.32,14.228C5.3872,14.2315,3.52857,13.4843,2.136,12.144L1.988,11.995C-0.721552,9.2287,-0.654615,4.78346,2.137,2.1C3.51452,0.747733,5.36968,-0.00683611,7.3,0C9.19775,-0.0110627,11.023,0.728299,12.378,2.057C15.1073,4.64769,15.2845,8.93814,12.778,11.745L15.778,14.692C15.9133,14.8275,15.9886,15.0116,15.987,15.203C15.99,15.4024,15.915,15.5951,15.778,15.74C15.6359,15.8906,15.4409,15.9802,15.234,15.99ZM7.287,1.5C4.16908,1.4974,1.61864,3.98304,1.541,7.1C1.57175,10.2019,4.09799,12.6986,7.2,12.693L7.386,12.693C10.4736,12.667,12.9791,10.1872,13.037,7.1C12.9562,3.98286,10.4052,1.49841,7.287,1.5Z" fill="#999999" fill-opacity="1"/></g></g></g></svg>