<svg xmlns="http://www.w3.org/2000/svg" xmlns:xlink="http://www.w3.org/1999/xlink" fill="none" version="1.1" width="16" height="16" viewBox="0 0 16 16"><defs><clipPath id="master_svg0_36_0164"><rect x="0" y="0" width="16" height="16" rx="0"/></clipPath></defs><g clip-path="url(#master_svg0_36_0164)"><g style="opacity:0;"><rect x="0" y="0" width="16" height="16" rx="0" fill="#000000" fill-opacity="1"/></g><g><g><path d="M7.25,1.25L7.25,14.75Q7.25,14.8239,7.264411,14.8963Q7.278822,14.9688,7.30709,15.037Q7.335359,15.1053,7.376398,15.1667Q7.417437,15.2281,7.46967,15.2803Q7.521903,15.3326,7.583322,15.3736Q7.644742,15.4146,7.712987,15.4429Q7.781233,15.4712,7.853682,15.4856Q7.9261315,15.5,8,15.5Q8.0738685,15.5,8.146318,15.4856Q8.218767,15.4712,8.287013,15.4429Q8.355258,15.4146,8.416678,15.3736Q8.478097,15.3326,8.53033,15.2803Q8.582563,15.2281,8.623602,15.1667Q8.664641,15.1053,8.69291,15.037Q8.721178,14.9688,8.735589000000001,14.8963Q8.75,14.8239,8.75,14.75L8.75,1.25Q8.75,1.1761314999999999,8.735589000000001,1.103682Q8.721178,1.031233,8.69291,0.962987Q8.664641,0.8947419999999999,8.623602,0.833322Q8.582563,0.771903,8.53033,0.71967Q8.478097,0.667437,8.416678,0.626398Q8.355258,0.585359,8.287013,0.55709Q8.218767,0.528822,8.146318,0.514411Q8.0738685,0.5,8,0.5Q7.9261315,0.5,7.853682,0.514411Q7.781233,0.528822,7.712987,0.55709Q7.644742,0.585359,7.583322,0.626398Q7.521903,0.667437,7.46967,0.71967Q7.417437,0.771903,7.376398,0.833322Q7.335359,0.8947419999999999,7.30709,0.962987Q7.278822,1.031233,7.264411,1.103682Q7.25,1.1761314999999999,7.25,1.25Z" fill-rule="evenodd" fill="currentColor" fill-opacity="1"/></g><g><path d="M11.96928,6.27994L11.96967,6.28033Q12.07516,6.38582,12.21299,6.44291Q12.35082,6.5,12.5,6.5Q12.64919,6.5,12.78701,6.44291Q12.92484,6.38582,13.03033,6.28033Q13.13582,6.17484,13.19291,6.03701Q13.25,5.89918,13.25,5.75Q13.25,5.60082,13.19291,5.46299Q13.13582,5.32516,13.03033,5.21967L8.53033,0.71967Q8.478100000000001,0.667437,8.41668,0.626398Q8.355260000000001,0.585359,8.28701,0.55709Q8.21877,0.528822,8.14632,0.514411Q8.07387,0.5,8,0.5Q7.92613,0.5,7.85368,0.514411Q7.78123,0.528822,7.71299,0.55709Q7.64474,0.585359,7.58332,0.626398Q7.5219,0.667437,7.46967,0.71967L2.96967,5.21967Q2.864181,5.32516,2.80709,5.46299Q2.75,5.60082,2.75,5.75Q2.75,5.89918,2.80709,6.03701Q2.864181,6.17484,2.96967,6.28033Q3.075159,6.38582,3.212987,6.44291Q3.350816,6.5,3.5,6.5Q3.649184,6.5,3.787013,6.44291Q3.924841,6.38582,4.03033,6.28033L8,2.31066L11.96928,6.27994Z" fill-rule="evenodd" fill="currentColor" fill-opacity="1"/></g></g></g></svg>
