<svg xmlns="http://www.w3.org/2000/svg" xmlns:xlink="http://www.w3.org/1999/xlink" fill="none" version="1.1" width="16" height="16" viewBox="0 0 16 16"><defs><clipPath id="master_svg0_36_0156"><rect x="0" y="0" width="16" height="16" rx="0"/></clipPath></defs><g clip-path="url(#master_svg0_36_0156)"><g style="opacity:0;"><rect x="0" y="0" width="16" height="16" rx="0" fill="#000000" fill-opacity="1"/></g><g transform="matrix(1,0,0,-1,0,29.5)"><g><path d="M7.25,14.75L7.25,28.25Q7.25,28.323900000000002,7.264411,28.3963Q7.278822,28.4688,7.30709,28.537Q7.335359,28.6053,7.376398,28.6667Q7.417437,28.728099999999998,7.46967,28.7803Q7.521903,28.8326,7.583322,28.8736Q7.644742,28.9146,7.712987,28.9429Q7.781233,28.9712,7.853682,28.985599999999998Q7.9261315,29,8,29Q8.0738685,29,8.146318,28.985599999999998Q8.218767,28.9712,8.287013,28.9429Q8.355258,28.9146,8.416678,28.8736Q8.478097,28.8326,8.53033,28.7803Q8.582563,28.728099999999998,8.623602,28.6667Q8.664641,28.6053,8.69291,28.537Q8.721178,28.4688,8.735589000000001,28.3963Q8.75,28.323900000000002,8.75,28.25L8.75,14.75Q8.75,14.6761315,8.735589000000001,14.603682Q8.721178,14.531233,8.69291,14.462987Q8.664641,14.394742,8.623602,14.333322Q8.582563,14.271903,8.53033,14.21967Q8.478097,14.167437,8.416678,14.126398Q8.355258,14.085359,8.287013,14.05709Q8.218767,14.028822,8.146318,14.014410999999999Q8.0738685,14,8,14Q7.9261315,14,7.853682,14.014410999999999Q7.781233,14.028822,7.712987,14.05709Q7.644742,14.085359,7.583322,14.126398Q7.521903,14.167437,7.46967,14.21967Q7.417437,14.271903,7.376398,14.333322Q7.335359,14.394742,7.30709,14.462987Q7.278822,14.531233,7.264411,14.603682Q7.25,14.6761315,7.25,14.75Z" fill-rule="evenodd" fill="currentColor" fill-opacity="1"/></g><g><path d="M11.96928,19.77994L11.96967,19.78033Q12.07516,19.88582,12.21299,19.94291Q12.35082,20,12.5,20Q12.64919,20,12.78701,19.94291Q12.92484,19.88582,13.03033,19.78033Q13.13582,19.67484,13.19291,19.537010000000002Q13.25,19.39918,13.25,19.25Q13.25,19.10082,13.19291,18.962989999999998Q13.13582,18.82516,13.03033,18.71967L8.53033,14.21967Q8.478100000000001,14.167437,8.41668,14.126398Q8.355260000000001,14.085359,8.28701,14.05709Q8.21877,14.028822,8.14632,14.014410999999999Q8.07387,14,8,14Q7.92613,14,7.85368,14.014410999999999Q7.78123,14.028822,7.71299,14.05709Q7.64474,14.085359,7.58332,14.126398Q7.5219,14.167437,7.46967,14.21967L2.96967,18.71967Q2.864181,18.82516,2.80709,18.962989999999998Q2.75,19.10082,2.75,19.25Q2.75,19.39918,2.80709,19.537010000000002Q2.864181,19.67484,2.96967,19.78033Q3.075159,19.88582,3.212987,19.94291Q3.350816,20,3.5,20Q3.649184,20,3.787013,19.94291Q3.924841,19.88582,4.03033,19.78033L8,15.81066L11.96928,19.77994Z" fill-rule="evenodd" fill="currentColor" fill-opacity="1"/></g></g></g></svg>
