<?xml version="1.0" encoding="UTF-8"?>
<svg width="37px" height="37px" viewBox="0 0 37 37" version="1.1" xmlns="http://www.w3.org/2000/svg" xmlns:xlink="http://www.w3.org/1999/xlink">
    <title>编组 24</title>
    <defs>
        <linearGradient x1="6.98261606%" y1="-4.47638701%" x2="95.2459162%" y2="100%" id="linearGradient-1">
            <stop stop-color="#81B2F8" offset="0%"></stop>
            <stop stop-color="#ACD0FF" offset="100%"></stop>
        </linearGradient>
    </defs>
    <g id="页面-1" stroke="none" stroke-width="1" fill="none" fill-rule="evenodd">
        <g id="购买ssl证书-自定义配置备份-2" transform="translate(-237.000000, -382.000000)">
            <g id="编组-5" transform="translate(217.000000, 350.000000)">
                <g id="编组-24" transform="translate(20.000000, 32.000000)">
                    <rect id="矩形" x="0" y="0" width="36" height="36"></rect>
                    <circle id="椭圆形" fill="#0063FF" cx="9.5" cy="9.5" r="9.5"></circle>
                    <circle id="椭圆形" stroke="url(#linearGradient-1)" fill-opacity="0.198672421" fill="#0063FF" fill-rule="nonzero" cx="21" cy="21" r="15.5"></circle>
                    <g id="earth" transform="translate(9.000000, 9.000000)" fill="#FFFFFF" fill-rule="nonzero">
                        <rect id="矩形" opacity="0" x="0" y="0" width="24" height="24"></rect>
                        <path d="M12,0 C5.4,0 0,5.4 0,12 C0,18.6 5.4,24 12,24 C18.6,24 24,18.6 24,12 C24,5.4 18.6,0 12,0 Z M12,22.5 C11.1,22.5 9.9,20.25 9.3,16.35 C10.2,16.5 11.1,16.5 12,16.5 C12.9,16.5 13.8,16.5 14.7,16.35 C14.1,20.25 12.9,22.5 12,22.5 Z M12,15 C10.95,15 10.05,15 9.15,14.85 C9,13.95 9,13.05 9,12 C9,10.95 9,10.05 9.15,9.15 C10.05,9 10.95,9 12,9 C13.05,9 13.95,9 14.85,9.15 C15,10.05 15,10.95 15,12 C15,13.05 15,13.95 14.85,14.85 C13.95,15 13.05,15 12,15 Z M7.65,14.7 C3.75,14.1 1.5,12.9 1.5,12 C1.5,11.1 3.75,9.9 7.65,9.3 C7.5,10.2 7.5,11.1 7.5,12 C7.5,12.9 7.5,13.8 7.65,14.7 Z M12,1.5 C12.9,1.5 14.1,3.75 14.7,7.65 C13.8,7.5 12.9,7.5 12,7.5 C11.1,7.5 10.2,7.5 9.3,7.65 C9.9,3.75 11.1,1.5 12,1.5 Z M16.35,9.3 C20.25,9.9 22.5,11.1 22.5,12 C22.5,12.9 20.25,14.1 16.35,14.7 C16.5,13.8 16.5,12.9 16.5,12 C16.5,11.1 16.5,10.2 16.35,9.3 Z M22.2,9.45 C20.7,8.55 18.6,7.95 16.2,7.65 C15.9,5.25 15.3,3.15 14.4,1.65 C18.3,2.7 21.3,5.7 22.2,9.45 Z M9.45,1.8 C8.55,3.3 7.95,5.4 7.65,7.8 C5.25,8.1 3.15,8.7 1.65,9.6 C2.7,5.7 5.7,2.7 9.45,1.8 Z M1.8,14.55 C3.3,15.45 5.4,16.05 7.8,16.35 C8.1,18.75 8.7,20.85 9.6,22.35 C5.7,21.3 2.7,18.3 1.8,14.55 Z M14.55,22.2 C15.45,20.7 16.05,18.6 16.35,16.2 C18.75,15.9 20.85,15.3 22.35,14.4 C21.3,18.3 18.3,21.3 14.55,22.2 L14.55,22.2 Z" id="形状"></path>
                    </g>
                </g>
            </g>
        </g>
    </g>
</svg>