<?xml version="1.0" encoding="UTF-8"?>
<svg width="32px" height="32px" viewBox="0 0 32 32" version="1.1" xmlns="http://www.w3.org/2000/svg" xmlns:xlink="http://www.w3.org/1999/xlink">
    <g id="账户中心" stroke="none" stroke-width="1" fill="none" fill-rule="evenodd">
        <g id="实名认证/国内-支付宝授权2" transform="translate(-260.000000, -152.000000)">
            <g id="表格-" transform="translate(220.000000, 132.000000)">
                <g id="Icon/Steps-Finished" transform="translate(40.000000, 20.000000)">
                    <circle id="椭圆形" fill="#F5F7FF" cx="16" cy="16" r="16"></circle>
                    <g id="check-outlined" transform="translate(8.000000, 8.000000)" fill="#345AF8" fill-rule="nonzero">
                        <rect id="矩形" opacity="0" x="0" y="0" width="16" height="16"></rect>
                        <path d="M14.25,2.96875 L13.1578125,2.96875 C13.0046875,2.96875 12.859375,3.0390625 12.765625,3.159375 L6.3234375,11.3203125 L3.234375,7.40625 C3.1390625,7.2859375 2.9953125,7.215625 2.8421875,7.215625 L1.75,7.215625 C1.6453125,7.215625 1.5875,7.3359375 1.6515625,7.4171875 L5.93125,12.8390625 C6.13125,13.0921875 6.515625,13.0921875 6.7171875,12.8390625 L14.3484375,3.16875 C14.4125,3.0890625 14.3546875,2.96875 14.25,2.96875 Z" id="路径"></path>
                    </g>
                </g>
            </g>
        </g>
    </g>
</svg>