<?xml version="1.0" encoding="UTF-8"?>
<svg width="16px" height="16px" viewBox="0 0 16 16" version="1.1" xmlns="http://www.w3.org/2000/svg" xmlns:xlink="http://www.w3.org/1999/xlink">
    <title>45停止</title>
    <g id="页面-1" stroke="none" stroke-width="1" fill="none" fill-rule="evenodd">
        <g id="对象存储-存储列表-单个桶详情/文件列表-上传信息备份-2" transform="translate(-920.000000, -506.000000)" fill-rule="nonzero">
            <g id="编组-15" transform="translate(900.000000, 60.000000)">
                <g id="编组-23备份-2" transform="translate(20.000000, 412.000000)">
                    <g id="编组-21" transform="translate(0.000000, 32.000000)">
                        <g id="45停止" transform="translate(0.000000, 2.000000)">
                            <rect id="矩形" fill="#000000" opacity="0" x="0" y="0" width="16" height="16"></rect>
                            <path d="M8,13.833362 C4.78354246,13.833362 2.16664842,11.2165629 2.16664842,8.00001566 C2.16664842,4.7835624 4.78354246,2.16666928 8,2.16666928 C11.2165514,2.16666928 13.8333516,4.7835624 13.8333516,8.00001566 C13.8333516,11.2165472 11.2165514,13.833362 8,13.833362 M8,1 C4.14010084,1 1,4.14010261 1,8 C1,11.8599287 4.14010084,15 8,15 C11.8599304,15 15,11.8599287 15,8 C15,4.14010261 11.8599148,1 8,1 M9.99794035,10.0947486 L9.99794035,5.91623019 C9.99794035,5.59402261 9.73678261,5.33287989 9.41465523,5.33287989 C9.09243403,5.33287989 8.83127629,5.59403827 8.83127629,5.91623019 L8.83127629,10.0947486 C8.83127629,10.4169719 9.09243403,10.6781303 9.41465523,10.6781303 C9.73679825,10.6781303 9.99794035,10.4169719 9.99794035,10.0947486 M7.1851741,10.0947486 L7.1851741,5.91623019 C7.1851741,5.59402261 6.92401636,5.33287989 6.60188898,5.33287989 C6.27966778,5.33287989 6.01851004,5.59403827 6.01851004,5.91623019 L6.01851004,10.0947486 C6.01851004,10.4169719 6.27966778,10.6781303 6.60188898,10.6781303 C6.92401636,10.6781303 7.1851741,10.4169719 7.1851741,10.0947486" id="形状" fill="#FFB100"></path>
                        </g>
                    </g>
                </g>
            </g>
        </g>
    </g>
</svg>