<?xml version="1.0" encoding="UTF-8"?>
<svg width="16px" height="16px" viewBox="0 0 16 16" version="1.1" xmlns="http://www.w3.org/2000/svg" xmlns:xlink="http://www.w3.org/1999/xlink">
    <title>上传</title>
    <g id="页面-1" stroke="none" stroke-width="1" fill="none" fill-rule="evenodd">
        <g id="对象存储-存储列表-单个桶详情/文件列表-上传信息备份-2" transform="translate(-920.000000, -619.000000)" fill-rule="nonzero">
            <g id="编组-15" transform="translate(900.000000, 60.000000)">
                <g id="编组-23备份-3" transform="translate(20.000000, 525.000000)">
                    <g id="编组-21" transform="translate(0.000000, 32.000000)">
                        <g id="上传" transform="translate(0.000000, 2.000000)">
                            <rect id="矩形" fill="#000000" opacity="0" x="0" y="0" width="16" height="16"></rect>
                            <g id="编组-25" transform="translate(1.000109, 2.340000)" fill="#0063FF">
                                <path d="M11.1999251,4.1998557 C11.1999251,1.88028958 9.31948513,0 6.99991901,0 C4.68035288,0 2.79999495,1.88028958 2.79999495,4.1998557 C1.25364032,4.1998557 0,5.45342766 0,6.99986432 C0,8.54630098 1.25364032,9.79987294 2.79999495,9.79987294 L4.19999242,9.79987294 L4.19999242,8.67986129 L2.79999495,8.67986129 C1.87365873,8.67986129 1.11999798,7.9262689 1.11999798,6.99986432 C1.11999798,6.07344607 1.87365873,5.31985368 2.79999495,5.31985368 L3.91999293,5.31985368 L3.91999293,4.1998557 C3.91999293,2.50153845 5.30160176,1.11986126 6.99991901,1.11986126 C8.69824993,1.11986126 10.0799271,2.50153845 10.0799271,4.1998557 L10.0799271,5.31985368 L11.1999251,5.31985368 C12.1263297,5.31985368 12.879799,6.07344607 12.879799,6.99986432 C12.879799,7.9262689 12.1263297,8.67986129 11.1999251,8.67986129 L9.79992763,8.67986129 L9.79992763,9.79987294 L11.1999251,9.79987294 C12.7460747,9.79987294 13.999797,8.54630098 13.999797,6.99986432 C13.999797,5.45342766 12.7460747,4.1998557 11.1999251,4.1998557 Z" id="路径"></path>
                                <polygon id="路径" points="6.99082723 4.26234973 3.96552019 7.51652354 4.84653422 8.33683456 6.36123852 6.70687657 6.36123852 11.3077413 7.62123625 11.3077413 7.62123625 6.70756016 9.1360089 8.33683456 10.0169136 7.51652354"></polygon>
                            </g>
                        </g>
                    </g>
                </g>
            </g>
        </g>
    </g>
</svg>