<?xml version="1.0" encoding="UTF-8"?>
<svg width="16px" height="16px" viewBox="0 0 16 16" version="1.1" xmlns="http://www.w3.org/2000/svg" xmlns:xlink="http://www.w3.org/1999/xlink">
    <title></title>
    <g id="页面-1" stroke="none" stroke-width="1" fill="none" fill-rule="evenodd">
        <g id="对象存储-概览" transform="translate(-232.000000, -149.000000)" fill-rule="nonzero">
            <g id="框架/红色提示-侧边栏收起" transform="translate(220.000000, 140.000000)">
                <g id="组-5799" transform="translate(12.000000, 7.000000)">
                    <g id="喇叭" transform="translate(0.000000, 2.000000)">
                        <rect id="矩形" fill="#000000" opacity="0" x="0" y="0" width="16" height="16"></rect>
                        <path d="M8.2657229,0 C8.44055811,0 8.57300821,0.121854313 8.63128629,0.34966886 C8.63985983,0.42713657 8.63985983,0.505313754 8.63128629,0.582781434 L8.63128629,0.582781434 L8.63128629,15.4225168 C8.63753191,15.487709 8.63753191,15.5533504 8.63128629,15.6185427 C8.58360448,15.8622513 8.45645204,16 8.27102152,16 C8.10816494,15.9858313 7.95496669,15.9167061 7.83658424,15.8039732 C7.83658424,15.8039732 7.60876957,15.6185427 7.60876957,15.6185427 C7.60876957,15.6185427 5.87102142,14.1933775 5.87102142,14.1933775 C5.87102142,14.1933775 3.36506119,12.1324501 3.36506119,12.1324501 L3.36506119,12.1324501 L1.30413392,12.1324501 C0.718931586,12.1324501 0.244531304,11.6580505 0.244531304,11.0728474 L0.244531304,11.0728474 L0.244531304,4.81059599 C0.244531304,4.22539377 0.718931586,3.75099349 1.30413392,3.75099349 L1.30413392,3.75099349 L3.50280944,3.75099349 C3.50280944,3.75099349 5.94519344,1.7430464 5.94519344,1.7430464 C5.94519344,1.7430464 6.07764379,1.63512391 6.26896096,1.47923586 L6.5220883,1.27298398 C7.02069029,0.866715746 7.66174999,0.344370872 7.66174999,0.344370872 C7.66174999,0.344370872 7.8312861,0.196026489 7.8312861,0.196026489 C7.94966903,0.083294332 8.1028668,0.0141683798 8.2657229,0 Z M10.2665285,4.03829298 L10.3637369,4.05297997 C12.1351241,4.55092865 13.3599345,6.16525459 13.3624124,8.0052979 C13.3910946,9.87084007 12.1599437,11.5218005 10.3637369,12.0264897 C10.2029232,12.0663233 10.0327349,12.0286355 9.90377252,11.924634 C9.77481014,11.820632 9.70192346,11.6622906 9.70678326,11.4966884 C9.69645021,11.2549033 9.85126916,11.0368485 10.0829422,10.9668875 C11.3939133,10.5976157 12.2994882,9.40172148 12.2994882,8.03973484 C12.2994882,6.67774868 11.3939133,5.48185408 10.0829422,5.11258268 C9.85126916,5.04262161 9.6964502,4.82456672 9.70678326,4.58278131 C9.70192346,4.41717914 9.77481014,4.25883798 9.90377252,4.15483606 C10.0327349,4.05083415 10.2029232,4.01314705 10.3637369,4.05297997 Z" id="形状" fill="#555555"></path>
                        <path d="M11.4657236,1.1178808 C11.3021919,1.03774651 11.1089648,1.04721795 10.9540541,1.14296136 C10.7991434,1.23870477 10.7042634,1.40729958 10.7027712,1.58940399 C10.7033866,1.79319704 10.8208051,1.9785946 11.0047965,2.06622517 C13.2582285,3.17196071 14.6862862,5.46340907 14.6862862,7.97350991 C14.6862862,10.4836107 13.2582285,12.7750593 11.0047965,13.8807951 C10.8208051,13.9684254 10.7033866,14.1538225 10.7027712,14.3576161 C10.7005948,14.5416037 10.7940004,14.7135645 10.9495455,14.8118607 C11.1050906,14.9101568 11.3004977,14.9207093 11.4657236,14.8397347 C14.0876601,13.5580517 15.7503319,10.8945938 15.7503319,7.97615874 C15.7503319,5.05772412 14.0876601,2.39426577 11.4657236,1.11258278 C11.4657236,1.11258278 11.4657236,1.1178808 11.4657236,1.1178808 C11.4657236,1.1178808 11.4657236,1.1178808 11.4657236,1.1178808 Z" id="路径" fill="#555555"></path>
                    </g>
                </g>
            </g>
        </g>
    </g>
</svg>