<svg xmlns="http://www.w3.org/2000/svg" width="16.004" height="13.695" viewBox="0 0 16.004 13.695">
  <path id="形状" d="M8,13.7a6.549,6.549,0,0,1-3.676-1.135l.98-1A5.128,5.128,0,0,0,8,12.33a5.415,5.415,0,0,0,5.336-5.48H12L14,4.105,16,6.85H14.664a6.894,6.894,0,0,1-1.949,4.842A6.529,6.529,0,0,1,8,13.7ZM2,9.586v0L0,6.85H4L2,9.584ZM2.664,6.85H1.336A6.765,6.765,0,0,1,8,0a6.457,6.457,0,0,1,3.676,1.135l-.969,1A5.21,5.21,0,0,0,8,1.371,5.414,5.414,0,0,0,2.664,6.848Z" transform="translate(0.004 -0.002)" fill="currentColor"/>
</svg>
