<?xml version="1.0" standalone="no"?><!DOCTYPE svg PUBLIC "-//W3C//DTD SVG 1.1//EN" "http://www.w3.org/Graphics/SVG/1.1/DTD/svg11.dtd"><svg t="1715914240359" class="icon" viewBox="0 0 1024 1024" version="1.1" xmlns="http://www.w3.org/2000/svg" p-id="5162" xmlns:xlink="http://www.w3.org/1999/xlink" width="320" height="320"><path d="M747.536 314.224l-135.12-134.864-405.408 404.608 135.136 134.864 405.392-404.608z m135.136-134.864a47.616 47.616 0 0 0 0-67.424l-67.584-67.44a47.84 47.84 0 0 0-67.568 0l-101.344 101.152 135.136 134.864 101.36-101.152zM976 896H48a48 48 0 1 0 0 96h928a48 48 0 1 0 0-96zM172.944 617.664L127.968 797.44l180.128-44.896-135.152-134.88z" fill="#555555" p-id="5163"></path></svg>