<svg xmlns="http://www.w3.org/2000/svg" width="14.789" height="15.932" viewBox="0 0 14.789 15.932">
  <path id="排除_2" data-name="排除 2" d="M19392.2,12048.932h-12.639a.56.56,0,1,1,0-1.119h12.668a.568.568,0,0,1,.561.56A.587.587,0,0,1,19392.2,12048.932Zm-6.316-2.5a.307.307,0,0,1-.215-.081l-4.639-4.638a.3.3,0,0,1-.061-.343.3.3,0,0,1,.275-.192h2.506a.3.3,0,0,0,.316-.321v-6.531a.312.312,0,0,1,.322-.321h2.959a.307.307,0,0,1,.32.321v6.531a.308.308,0,0,0,.322.321h2.506a.309.309,0,0,1,.3.2.3.3,0,0,1-.082.334l-4.615,4.638A.3.3,0,0,1,19385.883,12046.428Z" transform="translate(-19378.5 -12033.5)" fill="currentColor" stroke="rgba(0,0,0,0)" stroke-miterlimit="10" stroke-width="1"/>
</svg>
