<svg xmlns="http://www.w3.org/2000/svg" width="40.377" height="40.378" viewBox="0 0 40.377 40.378">
  <path id="排除_11" data-name="排除 11" d="M1260.188,9190.378a20.189,20.189,0,1,1,7.69-38.847,19.427,19.427,0,0,1,6.285,4.21l-2.17,2.171a16.547,16.547,0,0,0-11.8-4.816,17.092,17.092,0,1,0,17.093,17.094,16.308,16.308,0,0,0-.494-3.894l2.514-2.473a17.769,17.769,0,0,1,1.075,6.366,20.15,20.15,0,0,1-20.189,20.188Zm7.561-11.664h0a8.335,8.335,0,0,0-14.313-.295l-.185.27-2.5-1.658a12.854,12.854,0,0,1,4.27-4.058,11.04,11.04,0,0,1,5.47-1.474,11.663,11.663,0,0,1,9.563,5.271l.2.293-2.5,1.651ZM1267,9168a2,2,0,1,1,2-2A2,2,0,0,1,1267,9168Zm-14,0a2,2,0,1,1,2-2A2,2,0,0,1,1253,9168Z" transform="translate(-1239.999 -9150)" fill="#fe4d4f"/>
</svg>
