<?xml version="1.0" encoding="UTF-8"?>
<svg width="22px" height="22px" viewBox="0 0 22 22" version="1.1" xmlns="http://www.w3.org/2000/svg" xmlns:xlink="http://www.w3.org/1999/xlink">
    <title>ddh 专有宿主机</title>
    <g id="页面-1" stroke="none" stroke-width="1" fill="none" fill-rule="evenodd">
        <g id="子用户" transform="translate(-380.000000, -692.000000)" fill="#0063FF" fill-rule="nonzero">
            <g id="ddh-专有宿主机" transform="translate(380.000000, 692.000000)">
                <rect id="矩形" opacity="0" x="0" y="0" width="22" height="22"></rect>
                <path d="M3.663,7.282 L10.032,3.938 L10.032,2.288 L2.288,6.369 L2.288,15.631 L10.032,19.712 L10.032,18.062 L3.663,14.718 L3.663,7.282 Z M11.968,2.288 L11.968,3.938 L18.337,7.282 L18.337,14.707 L11.968,18.051 L11.968,19.701 L19.712,15.62 L19.712,6.369 L11.968,2.288 L11.968,2.288 Z" id="形状"></path>
                <path d="M11,4.994 L5.082,7.931 L11,10.45 L16.918,7.931 L11,4.994 Z M17.182,8.712 L11.495,11.319 L11.495,13.651 L17.182,10.945 L17.182,8.712 Z M17.182,11.968 L11.495,14.586 L11.495,16.786 L17.182,14.036 L17.182,11.968 L17.182,11.968 Z M10.494,11.319 L4.818,8.712 L4.818,10.956 L10.505,13.618 L10.494,11.319 L10.494,11.319 Z M8.888,12.331 C8.569,12.287 8.294,11.968 8.294,11.649 C8.294,11.33 8.569,11.099 8.888,11.187 C9.207,11.275 9.482,11.55 9.482,11.869 C9.482,12.188 9.218,12.419 8.888,12.331 Z M4.818,11.968 L4.818,14.036 L10.505,16.786 L10.505,14.586 L4.818,11.968 L4.818,11.968 Z M8.888,15.532 C8.569,15.488 8.294,15.169 8.294,14.85 C8.294,14.531 8.569,14.3 8.888,14.388 C9.207,14.476 9.482,14.751 9.482,15.07 C9.482,15.4 9.218,15.631 8.888,15.532 Z" id="形状"></path>
            </g>
        </g>
    </g>
</svg>