<svg xmlns="http://www.w3.org/2000/svg" xmlns:xlink="http://www.w3.org/1999/xlink" fill="none" version="1.1" width="17" height="17.00200080871582" viewBox="0 0 17 17.00200080871582"><defs><clipPath id="master_svg0_3_2780"><rect x="0" y="0" width="17" height="17.00200080871582" rx="0"/></clipPath></defs><g clip-path="url(#master_svg0_3_2780)"><g><g style="opacity:0;"><rect x="0.498046875" y="0.4990234375" width="16" height="16" rx="0" fill="#000000" fill-opacity="1"/></g><g><path d="M8.498046875,16.4990234375C4.080076875,16.4990234375,0.498046875,12.9170234375,0.498046875,8.4990234375C0.498046875,4.0810534375,4.080076875,0.4990234375,8.498046875,0.4990234375C12.916046875,0.4990234375,16.498046875,4.0810534375,16.498046875,8.4990234375C16.492146875,12.9150234375,12.914046875,16.4931234375,8.498046875,16.4990234375ZM8.498046875,1.6406234375C4.710936875,1.6406234375,1.640626875,4.7109334375,1.640626875,8.4980434375C1.640626875,12.2851234375,4.710936875,15.3545234375,8.498046875,15.3545234375C12.285146875,15.3545234375,15.353546875,12.2851234375,15.355446875,8.4980434375C15.349646875,4.7138634375,12.283246875,1.6484334375,8.498046875,1.6435534375L8.498046875,1.6406234375Z" fill="#02DE6D" fill-opacity="1"/><path d="" fill="#000000" fill-opacity="0"/></g><g><path d="M12.081046875,5.6270234375C12.314026875,5.4351973375,12.656056875,5.4577944375,12.861776875,5.6786044375C13.067486875,5.8994154375,13.065856875,6.2421824375,12.858046875,6.4610234375L7.904046875000001,11.032023437500001C7.684976875,11.2354134375,7.346116875,11.2354134375,7.127046875,11.032023437500001L4.652046875,8.747023437500001C4.444232275,8.528183437500001,4.442599075,8.1854134375,4.648318875,7.9646034375C4.854038875,7.7437934375,5.196065875,7.7211934375,5.429046875,7.9130234375L7.5150468749999995,9.8380234375L12.081046875,5.6270234375Z" fill="#02DE6D" fill-opacity="1"/></g></g></g></svg>