<?xml version="1.0" encoding="UTF-8"?>
<svg width="64px" height="64px" viewBox="0 0 64 64" version="1.1" xmlns="http://www.w3.org/2000/svg" xmlns:xlink="http://www.w3.org/1999/xlink">
    <g id="登录注册" stroke="none" stroke-width="1" fill="none" fill-rule="evenodd">
        <g id="注册/成功" transform="translate(-688.000000, -240.000000)" fill="#6DD400" fill-rule="nonzero">
            <g id="编组" transform="translate(520.000000, 240.000000)">
                <g id="check-circle-fill" transform="translate(168.000000, 0.000000)">
                    <rect id="矩形" opacity="0" x="0" y="0" width="64" height="64"></rect>
                    <path d="M32,4 C16.5375,4 4,16.5375 4,32 C4,47.4625 16.5375,60 32,60 C47.4625,60 60,47.4625 60,32 C60,16.5375 47.4625,4 32,4 Z M44.09375,22.85625 L30.93125,41.10625 C30.1375,42.2125 28.49375,42.2125 27.7,41.10625 L19.90625,30.30625 C19.66875,29.975 19.90625,29.5125 20.3125,29.5125 L23.24375,29.5125 C23.88125,29.5125 24.4875,29.81875 24.8625,30.34375 L29.3125,36.51875 L39.1375,22.89375 C39.5125,22.375 40.1125,22.0625 40.75625,22.0625 L43.6875,22.0625 C44.09375,22.0625 44.33125,22.525 44.09375,22.85625 Z" id="形状"></path>
                </g>
            </g>
        </g>
    </g>
</svg>