<?xml version="1.0" encoding="UTF-8"?>
<svg width="16px" height="16px" viewBox="0 0 16 16" version="1.1" xmlns="http://www.w3.org/2000/svg" xmlns:xlink="http://www.w3.org/1999/xlink">
    <title>swap</title>
    <g id="CDN" stroke="none" stroke-width="1" fill="none" fill-rule="evenodd">
        <g id="猫云控制台设计规范2" transform="translate(-449.000000, -766.000000)" fill-rule="nonzero">
            <g id="编组-90" transform="translate(160.000000, 535.000000)">
                <g id="编组-87" transform="translate(0.000000, 177.000000)">
                    <g id="swap" transform="translate(289.000000, 54.000000)">
                        <rect id="矩形" fill="#000000" opacity="0" x="0" y="0" width="16" height="16"></rect>
                        <path d="M14.3892563,9.52169894 L1.15237765,9.52169894 C1.06868421,9.52169894 1.00020776,9.59017539 1.00020776,9.67386883 L1.00020776,10.815143 C1.00020776,10.8988365 1.06868421,10.9673129 1.15237765,10.9673129 L12.6640301,10.9673129 L9.91926567,14.4481993 C9.8412786,14.5471097 9.91165717,14.6954753 10.0390995,14.6954753 L11.4181391,14.6954753 C11.5113432,14.6954753 11.5988409,14.6536286 11.6578067,14.5794458 L14.8685915,10.506999 C15.1824419,10.107553 14.8990254,9.52169894 14.3892563,9.52169894 L14.3892563,9.52169894 Z M14.8476681,5.03268707 L3.33601563,5.03268707 L6.08078009,1.55180074 C6.15876716,1.45289031 6.08838859,1.30452467 5.9609463,1.30452467 L4.58190664,1.30452467 C4.48870258,1.30452467 4.40120489,1.34637139 4.34223905,1.42055421 L1.13145429,5.493001 C0.817603886,5.89244697 1.10102031,6.47830106 1.60888733,6.47830106 L14.8476681,6.47830106 C14.9313616,6.47830106 14.999838,6.40982461 14.999838,6.32613117 L14.999838,5.18485696 C14.999838,5.10116352 14.9313616,5.03268707 14.8476681,5.03268707 Z" id="形状" fill="#999999" transform="translate(8.000000, 8.000000) rotate(-270.000000) translate(-8.000000, -8.000000) "></path>
                    </g>
                </g>
            </g>
        </g>
    </g>
</svg>