<?xml version="1.0" encoding="UTF-8"?>
<svg width="17px" height="17px" viewBox="0 0 17 17" version="1.1" xmlns="http://www.w3.org/2000/svg" xmlns:xlink="http://www.w3.org/1999/xlink">
    <g id="CDN" stroke="none" stroke-width="1" fill="none" fill-rule="evenodd">
        <g id="猫云控制台设计规范2" transform="translate(-623.000000, -712.000000)" fill="#0063FF" fill-rule="nonzero">
            <g id="编组-90" transform="translate(160.000000, 535.000000)">
                <g id="编组-87" transform="translate(0.000000, 177.000000)">
                    <g id="time-circle" transform="translate(463.000000, 0.000000)">
                        <rect id="矩形" opacity="0" x="0" y="0" width="17" height="17"></rect>
                        <path d="M8.5,1.0625 C4.39277344,1.0625 1.0625,4.39277344 1.0625,8.5 C1.0625,12.6072266 4.39277344,15.9375 8.5,15.9375 C12.6072266,15.9375 15.9375,12.6072266 15.9375,8.5 C15.9375,4.39277344 12.6072266,1.0625 8.5,1.0625 Z M8.5,14.6757812 C5.09003906,14.6757812 2.32421875,11.9099609 2.32421875,8.5 C2.32421875,5.09003906 5.09003906,2.32421875 8.5,2.32421875 C11.9099609,2.32421875 14.6757812,5.09003906 14.6757812,8.5 C14.6757812,11.9099609 11.9099609,14.6757812 8.5,14.6757812 Z M11.400293,10.6017578 L9.03291016,8.89013672 L9.03291016,4.78125 C9.03291016,4.70820313 8.97314453,4.6484375 8.90009766,4.6484375 L8.1015625,4.6484375 C8.02851563,4.6484375 7.96875,4.70820313 7.96875,4.78125 L7.96875,9.35332031 C7.96875,9.39648438 7.98867188,9.43632812 8.02353516,9.46123047 L10.7694336,11.4633789 C10.8291992,11.506543 10.912207,11.4932617 10.9553711,11.4351562 L11.4301758,10.7876953 C11.4733398,10.7262695 11.4600586,10.6432617 11.400293,10.6017578 L11.400293,10.6017578 Z" id="形状"></path>
                    </g>
                </g>
            </g>
        </g>
    </g>
</svg>