<?xml version="1.0" encoding="UTF-8"?>
<svg width="40px" height="40px" viewBox="0 0 40 40" version="1.1" xmlns="http://www.w3.org/2000/svg" xmlns:xlink="http://www.w3.org/1999/xlink">
    <title>时间-01</title>
    <g id="页面-1" stroke="none" stroke-width="1" fill="none" fill-rule="evenodd">
        <g id="ssl证书管理----自动dns验证" transform="translate(-800.000000, -317.000000)" fill="#000000" fill-rule="nonzero">
            <g id="编组-3" transform="translate(435.000000, 317.000000)">
                <g id="时间-01" transform="translate(365.000000, 0.000000)">
                    <rect id="矩形" opacity="0" x="0.000228791742" y="0" width="39.9997712" height="39.9997712"></rect>
                    <path d="M34.1756532,5.84175053 C30.4534933,2.0287217 25.3254005,-0.0832713713 19.9975207,0.00251967305 C14.6923269,0.0329680818 9.60730288,2.12722338 5.81938828,5.84175053 C2.10620334,9.620795 0.0177814074,14.701904 7.69943254e-05,19.9998856 C-0.014631841,25.3042731 2.07865399,30.3972159 5.81938828,34.1580207 C9.54154817,37.9710495 14.6696409,40.0830426 19.9975207,39.9972515 C25.3027146,39.9668031 30.3877386,37.8725478 34.1756532,34.1580207 C37.8888381,30.3789762 39.9772601,25.2978672 39.9949645,19.9998856 C40.0096733,14.6954981 37.9163875,9.60255527 34.1756532,5.84175053 Z M19.9980171,37.3323281 C15.3627566,37.4314374 10.8958638,35.5944375 7.671395,32.2630318 C4.44586038,28.9994578 2.64620993,24.5899247 2.66708969,20.0014006 C2.68105095,15.419699 4.47552559,11.0228478 7.671395,7.73976947 C10.9627626,4.50837232 15.3855702,2.6895024 19.9980171,2.6704732 C24.6332777,2.57136389 29.1001705,4.40836376 32.3246393,7.73976947 C35.5501739,11.0033435 37.3498243,15.4128766 37.3289446,20.0014006 C37.3149833,24.5831022 35.5205087,28.9799535 32.3246393,32.2630318 C29.0332716,35.494429 24.610464,37.3132989 19.9980171,37.3323281 Z M21.9974113,18.000149 L21.9974113,10.0012026 C21.997257,8.89688776 21.1019896,8.00174552 19.9976747,8.00174552 C18.8933599,8.00174552 17.9980925,8.89688776 17.9979382,10.0012026 L17.9979382,19.9998856 C17.9979382,21.1043096 18.8932507,21.9996222 19.9976747,21.9996222 L27.9966211,21.9996222 C29.1010452,21.9996222 29.9963577,21.1043096 29.9963577,19.9998856 C29.9963577,18.8954616 29.1010452,18.000149 27.9966211,18.000149 L21.9974113,18.000149 Z" id="形状"></path>
                </g>
            </g>
        </g>
    </g>
</svg>