<?xml version="1.0" encoding="UTF-8"?>
<svg width="16px" height="16px" viewBox="0 0 16 16" version="1.1" xmlns="http://www.w3.org/2000/svg" xmlns:xlink="http://www.w3.org/1999/xlink">
    <g id="汇总" stroke="none" stroke-width="1" fill="none" fill-rule="evenodd">
        <g id="DNS-解析-我的域名-点击域名后-域名设置-功能设置-X优化1" transform="translate(-823.000000, -538.000000)" fill-rule="nonzero">
            <g id="组-356" transform="translate(80.000000, 240.000000)">
                <g id="组-159备份" transform="translate(680.000000, 276.000000)">
                    <g id="注释" transform="translate(63.000000, 22.000000)">
                        <rect id="矩形" fill="#000000" opacity="0" x="0" y="0" width="16" height="16"></rect>
                        <path d="M12.104,12.104 C13.7635034,10.445483 14.2603588,7.95052907 13.3628311,5.78279427 C12.4653034,3.61505946 10.3501948,2.2015617 8.004,2.2015617 C5.65780518,2.2015617 3.54269657,3.61505946 2.64516887,5.78279427 C1.74764117,7.95052907 2.24449664,10.445483 3.904,12.104 C6.16876167,14.3674156 9.83923833,14.3674156 12.104,12.104 Z M12.8,12.8 C10.8570697,14.7496649 7.93042484,15.3357596 5.3865504,14.2846296 C2.84267595,13.2334995 1.18336217,10.7524846 1.18336217,8 C1.18336217,5.24751538 2.84267595,2.76650052 5.3865504,1.71537045 C7.93042484,0.664240377 10.8570697,1.25033506 12.8,3.2 C15.4444829,5.85364924 15.4444829,10.1463508 12.8,12.8 Z M8.072,4.64 C7.52201527,4.61082492 6.9868982,4.82428692 6.608,5.224 C6.25296114,5.62020349 6.06892383,6.14068401 6.096,6.672 L6.096,6.832 L7.048,6.832 L7.048,6.672 C7.03519625,6.38706955 7.11674327,6.10587291 7.28,5.872 C7.46884778,5.6275032 7.77387052,5.50244387 8.08,5.544 C8.32665919,5.52338455 8.57059587,5.60760079 8.752,5.776 C8.90950273,5.94744074 8.99038271,6.17563783 8.976,6.408 C8.97548239,6.60626867 8.90135807,6.79728136 8.768,6.944 C8.68560862,7.03994676 8.59744512,7.13078188 8.504,7.216 C8.17916525,7.48895659 7.90789197,7.81990999 7.704,8.192 C7.58816619,8.44226595 7.53333262,8.71643381 7.544,8.992 L7.544,9.336 L8.504,9.336 L8.504,8.992 C8.49948773,8.81542357 8.54377938,8.64102522 8.632,8.488 C8.72206509,8.33534081 8.83854262,8.19990183 8.976,8.088 C9.19738794,7.86836068 9.40574352,7.63596407 9.6,7.392 C9.82819513,7.09379615 9.94936806,6.72745937 9.944,6.352 C9.96970114,5.88338898 9.78836478,5.42712328 9.448,5.104 C9.06953336,4.77207643 8.57418327,4.60503977 8.072,4.64 L8.072,4.64 Z M7.952,9.824 C7.7810487,9.81937701 7.61586926,9.88602836 7.496,10.008 C7.37271753,10.1236644 7.30560274,10.2870743 7.312,10.456 C7.30737701,10.6269513 7.37402836,10.7921307 7.496,10.912 C7.75192332,11.1537876 8.15207668,11.1537876 8.408,10.912 C8.53675698,10.7928407 8.60691244,10.6232984 8.6,10.448 C8.60240616,10.279808 8.5359278,10.1179477 8.416,10 C8.29179897,9.88052375 8.12419396,9.81694944 7.952,9.824 L7.952,9.824 Z" id="形状" fill="#999999"></path>
                    </g>
                </g>
            </g>
        </g>
    </g>
</svg>