<?xml version="1.0" encoding="UTF-8"?>
<svg width="14px" height="14px" viewBox="0 0 14 14" version="1.1" xmlns="http://www.w3.org/2000/svg" xmlns:xlink="http://www.w3.org/1999/xlink">
    <title>切片</title>
    <g id="汇总" stroke="none" stroke-width="1" fill="none" fill-rule="evenodd">
        <g id="DNS-解析-我的域名-改-域名解锁/设置域名密码" transform="translate(-772.000000, -381.000000)" fill-rule="nonzero">
            <g id="编组-6" transform="translate(200.000000, 79.000000)">
                <g id="我的域名/添加域名-默认状态备份-7" transform="translate(540.000000, 230.000000)">
                    <g id="组-193" transform="translate(20.000000, 62.000000)">
                        <g id="组-5813" transform="translate(12.000000, 9.000000)">
                            <g id="icon_警示" transform="translate(0.000000, 1.000000)">
                                <rect id="矩形" fill="#000000" opacity="0" x="0" y="0" width="14" height="13.9991255"></rect>
                                <path d="M4.27612507,13.4479099 C1.67973095,12.3585955 -0.0069831945,9.81505047 0,6.99956277 C-0.00971083902,3.12979311 3.12999237,-0.00971368908 7,0 C7.93561137,-0.00431742593 8.86213541,0.183596549 9.72212505,0.552090498 C10.5560026,0.900901845 11.3132187,1.41014018 11.95075,2.05087198 C13.2664769,3.36116955 14.0042257,5.14274206 14.0000401,6.99956277 C14.0000401,8.85484732 13.2620475,10.6339533 11.9490001,11.9447542 C10.6376617,13.2599342 8.85694337,13.999264 7,13.999264 C6.06393594,14.0031891 5.13694876,13.8155998 4.27612507,13.4479099 Z M1.25124995,6.99956277 C1.25076586,10.1756195 3.82510215,12.7505793 7.00087452,12.7505793 C10.1761633,12.7510624 12.7504996,10.176887 12.7504996,7.00131337 C12.7509836,3.82622332 10.1762551,1.25204689 7,1.25204679 C3.82699263,1.25590271 1.25558886,3.82675442 1.25124995,6.99956277 Z M6.10049969,9.85450986 C6.14795488,9.40278959 6.54725057,9.07148761 7,9.10818092 C7.45491946,9.07013419 7.85602593,9.40456271 7.90037525,9.85888385 C7.85557532,10.3129663 7.45476675,10.6471479 7,10.6095876 C6.5457139,10.6461616 6.14575022,10.3123606 6.10050011,9.85888385 L6.10049969,9.85450986 Z M6.02874988,5.86913354 C6.02874988,4.50159421 6.46624988,3.39216319 7.00087452,3.39216319 C7.53549957,3.39216319 7.97387493,4.50246867 7.97387493,5.86913354 C7.97387493,7.23579841 7.5381248,8.3452288 7,8.3452288 C6.4618752,8.3452288 6.02874988,7.23754818 6.02874988,5.86913354 Z" id="形状" fill="#F53F3F"></path>
                            </g>
                        </g>
                    </g>
                </g>
            </g>
        </g>
    </g>
</svg>