<svg xmlns="http://www.w3.org/2000/svg" xmlns:xlink="http://www.w3.org/1999/xlink" fill="none" version="1.1" width="16" height="16" viewBox="0 0 16 16"><defs><clipPath id="master_svg0_22_899"><rect x="0" y="0" width="16" height="16" rx="0"/></clipPath></defs><g clip-path="url(#master_svg0_22_899)"><g style="opacity:0;"><rect x="0" y="0" width="16" height="16" rx="0" fill="#000000" fill-opacity="1"/></g><g><path d="M7.997996079368591,14.962992206573487C7.095646079368591,14.960492206573486,6.202026079368592,14.786092206573485,5.364996079368591,14.448992206573486C4.499386079368591,14.100392206573487,3.714276079368591,13.578392206573486,3.0579960793685914,12.914992206573487C2.3934260793685915,12.258092206573487,1.8694640793685913,11.472792206573486,1.5180000793685913,10.607002206573487C0.8357680793685913,8.924872206573486,0.8357680793685913,7.043122206573487,1.5180000793685913,5.361002206573486C1.8699530793685915,4.495482206573486,2.3942460793685916,3.7105722065734863,3.0589960793685913,3.0540022065734864C3.7132860793685913,2.389652206573486,4.498576079368592,1.8686172065734863,5.364996079368591,1.5240002065734863C7.053756079368592,0.8546562065734863,8.934236079368592,0.8546562065734863,10.62299607936859,1.5240002065734863C11.486326079368592,1.8701672065734862,12.269226079368591,2.3902822065734863,12.923026079368592,3.052002206573486C13.586326079368591,3.7068822065734865,14.106326079368591,4.492492206573486,14.450026079368591,5.359002206573487C15.12712607936859,7.042122206573486,15.12712607936859,8.921882206573486,14.450026079368591,10.605002206573486C14.106026079368592,11.471692206573486,13.586126079368592,12.257492206573486,12.923026079368592,12.912992206573486C12.268226079368592,13.574892206573486,11.485726079368591,14.096792206573486,10.62299607936859,14.446992206573487C9.78904607936859,14.785292206573486,8.897946079368591,14.960392206573486,7.997996079368591,14.962992206573487ZM7.9689960793685914,9.504002206573487L9.650996079368591,11.184992206573487C10.096736079368592,11.633392206573486,10.822256079368591,11.633392206573486,11.26802607936859,11.184992206573487C11.47532607936859,10.988322206573486,11.58362607936859,10.709052206573487,11.56302607936859,10.424002206573487C11.531226079368592,10.129852206573487,11.397126079368592,9.856232206573486,11.184026079368591,9.651002206573486L9.501996079368592,7.970002206573486L11.184026079368591,6.288002206573486C11.39692607936859,6.086362206573487,11.531326079368592,5.815562206573486,11.56302607936859,5.524002206573487C11.587226079368591,5.236362206573486,11.478626079368592,4.953432206573487,11.26802607936859,4.756002206573486C11.056026079368591,4.537432206573486,10.763416079368591,4.415882206573486,10.45899607936859,4.4200022065734865C10.15428607936859,4.414312206573486,9.86102607936859,4.5361122065734865,9.649996079368591,4.756002206573486L7.9689960793685914,6.418002206573487L6.333996079368592,4.783002206573487C6.127436079368591,4.577642206573486,5.855976079368591,4.450392206573486,5.565996079368591,4.423002206573486C5.534996079368591,4.423002206573486,5.504996079368591,4.423002206573486,5.477996079368591,4.423002206573486C5.221896079368591,4.422992206573486,4.976656079368592,4.5264922065734865,4.797996079368591,4.710002206573487C4.350546079368591,5.1604322065734864,4.350546079368591,5.887572206573486,4.797996079368591,6.338002206573487L6.433996079368591,7.970002206573486L4.7989960793685915,9.599002206573486C4.351156079368591,10.044972206573487,4.351156079368591,10.770022206573486,4.7989960793685915,11.215992206573487C4.972576079368592,11.403692206573487,5.2154060793685915,11.512092206573486,5.470996079368591,11.515992206573486C5.503996079368592,11.515992206573486,5.536996079368591,11.515992206573486,5.570996079368591,11.515992206573486C5.863806079368591,11.489792206573487,6.136946079368592,11.357492206573486,6.3389960793685916,11.143992206573486L7.9689960793685914,9.505002206573486L7.9689960793685914,9.504002206573487Z" fill="currentColor" fill-opacity="1"/></g></g></svg>