<svg t="1737624342854" class="icon" viewBox="0 0 1024 1024" version="1.1" xmlns="http://www.w3.org/2000/svg" p-id="1455" width="16" height="16"><path d="M450.133333 450.133333H277.333333v-72.533333c0-17.066667-19.2-29.866667-34.133333-21.333333L10.666667 490.666667c-14.933333 8.533333-14.933333 32 0 40.533333l230.4 134.4c14.933333 8.533333 34.133333-2.133333 34.133333-21.333333v-72.533334H448c12.8 0 23.466667-10.666667 23.466667-23.466666v-76.8c2.133333-10.666667-8.533333-21.333333-21.333334-21.333334zM1013.333333 490.666667l-230.4-134.4c-14.933333-8.533333-34.133333 2.133333-34.133333 21.333333v72.533333H576c-12.8 0-23.466667 10.666667-23.466667 23.466667v76.8c0 12.8 10.666667 23.466667 23.466667 23.466667h170.666667v72.533333c0 17.066667 19.2 29.866667 34.133333 21.333333L1013.333333 533.333333c14.933333-10.666667 14.933333-32 0-42.666666z" p-id="1456" fill="CurrentColor"></path></svg>
