<?xml version="1.0" encoding="UTF-8"?>
<svg width="18px" height="18px" viewBox="0 0 18 18" version="1.1" xmlns="http://www.w3.org/2000/svg" xmlns:xlink="http://www.w3.org/1999/xlink">
    <g id="主账号" stroke="none" stroke-width="1" fill="none" fill-rule="evenodd">
        <g id="支付系统--订单支付--usdt" transform="translate(-535.000000, -444.000000)">
            <g id="编组-15" transform="translate(350.000000, 436.000000)">
                <g id="编组-11备份" transform="translate(158.000000, 0.000000)">
                    <g id="编组-9" transform="translate(27.000000, 8.000000)">
                        <rect id="矩形" fill="#C23229" x="0" y="0" width="18" height="18" rx="9"></rect>
                        <g id="vuesax-linear-trontron" transform="translate(3.000000, 3.000000)" fill="#FFFFFF" fill-rule="nonzero">
                            <rect id="矩形" opacity="0" x="0" y="0" width="13" height="13"></rect>
                            <path d="M1.8254209,0.818466797 C1.90882508,0.818938704 1.9919581,0.828013098 2.0735,0.845545898 L9.085375,1.7620459 C9.30480573,1.7849213 9.50470575,1.89841812 9.6367959,2.075125 L11.266125,3.7044541 C11.6308026,4.02602658 11.6784952,4.57737842 11.3744541,4.9567959 L11.3685,4.9649209 L6.2800918,11.4080459 C6.10958823,11.6768378 5.81861171,11.845477 5.500625,11.8597959 C5.11678936,11.8349717 4.78638602,11.5797769 4.665375,11.2146709 L4.6594082,11.2000459 L1.03025,2.1000459 L1.022125,2.0778291 C0.899915646,1.77436419 0.934324912,1.4302573 1.1142041,1.157 C1.28108719,0.933948802 1.54707179,0.807337626 1.8254209,0.818454102 L1.8254209,0.818466797 Z M8.9889541,2.5685791 L1.951625,1.6482959 L1.9164209,1.6423291 C1.88636783,1.63545682 1.85569605,1.63164571 1.824875,1.6309541 C1.80654042,1.63000479 1.78818581,1.63239214 1.7707041,1.638 C1.76001929,1.69629909 1.76622123,1.75643762 1.7885791,1.8113291 L5.4117959,10.8913086 C5.43365996,10.9464559 5.46624732,10.9967177 5.5076709,11.0391836 C5.55748592,11.0063108 5.60036442,10.9639801 5.633875,10.9145918 L5.6398418,10.9064668 L10.7271582,4.4660459 C10.7576071,4.42897585 10.7670022,4.37891691 10.7520664,4.3333291 C10.7367451,4.32173361 10.7222657,4.30906574 10.7087373,4.2954209 L9.0295791,2.61625 C9.01483085,2.60142882 9.00124883,2.58549116 8.9889541,2.5685791 Z M5.4166709,11.7812516 L5.3792959,11.7812516 C5.27197767,11.7714945 5.17293224,11.7195003 5.10395465,11.6367086 C5.03497706,11.5539169 5.00171938,11.4471118 5.0115,11.3397959 L5.5352959,5.5840459 L1.3541709,1.8747041 C1.27338832,1.80299115 1.2244926,1.70205816 1.21829155,1.59421513 C1.2120905,1.4863721 1.24909476,1.3804998 1.321125,1.3 C1.39283833,1.2192136 1.49377396,1.17031539 1.60162011,1.16411429 C1.70946625,1.1579132 1.81534136,1.1949199 1.8958418,1.2669541 L6.2291709,5.1127959 C6.32570276,5.19848758 6.37576719,5.32495399 6.3640459,5.4535 L5.822375,11.4118291 C5.80329015,11.62149 5.62719786,11.7818339 5.4166709,11.7812516 Z M5.9583291,5.82292327 C5.80810326,5.82245086 5.67039933,5.7391166 5.6002959,5.60625 C5.51697458,5.44897201 5.54573324,5.25577082 5.67125,5.1295791 L8.92125,1.8795791 C8.99744447,1.80333354 9.10081701,1.76049493 9.2086084,1.76049493 C9.31639978,1.76049493 9.41977233,1.80333354 9.4959668,1.8795791 C9.65423116,2.03833966 9.65398686,2.29529067 9.4954209,2.45375 L7.1944209,4.7552832 L10.7537041,4.0435459 C10.9737297,3.99957023 11.187745,4.14228689 11.2317207,4.3623125 C11.2756964,4.58233811 11.1329797,4.79635343 10.9129541,4.8403291 L6.0379541,5.8153291 C6.01172627,5.82046926 5.98505572,5.82301215 5.9583291,5.82292327 L5.9583291,5.82292327 Z" id="形状"></path>
                        </g>
                    </g>
                </g>
            </g>
        </g>
    </g>
</svg>