<?xml version="1.0" encoding="UTF-8"?>
<svg width="18px" height="18px" viewBox="0 0 18 18" version="1.1" xmlns="http://www.w3.org/2000/svg" xmlns:xlink="http://www.w3.org/1999/xlink">
    <g id="主账号" stroke="none" stroke-width="1" fill="none" fill-rule="evenodd">
        <g id="访问管理--用户概览" transform="translate(-428.000000, -292.000000)" fill="#02DE6D" fill-rule="nonzero">
            <g id="编组-11备份-2" transform="translate(242.000000, 291.000000)">
                <g id="safetycertificate-filled" transform="translate(186.000000, 1.000000)">
                    <rect id="矩形" opacity="0" x="0" y="0" width="18" height="18"></rect>
                    <path d="M15.2384766,2.98652344 L9.26542969,0.950976562 C9.19335938,0.926367187 9.09667969,0.9140625 9,0.9140625 C8.90332031,0.9140625 8.80664062,0.926367187 8.73457031,0.950976562 L2.76152344,2.98652344 C2.615625,3.03574219 2.49609375,3.20449219 2.49609375,3.35917969 L2.49609375,11.8388672 C2.49609375,11.9935547 2.59628906,12.1974609 2.71757813,12.2941406 L8.77675781,17.015625 C8.83828125,17.0630859 8.91738281,17.0876953 8.99824219,17.0876953 C9.07910156,17.0876953 9.15996094,17.0630859 9.21972656,17.015625 L15.2789063,12.2941406 C15.4001953,12.1992187 15.5004662,11.9953125 15.5004662,11.8388672 L15.5004662,3.35917969 C15.5039063,3.20449219 15.384375,3.0375 15.2384766,2.98652344 Z M12.2080078,5.98886719 L8.47089844,11.1339844 C8.35839844,11.2886719 8.12636719,11.2886719 8.01386719,11.1339844 L5.79199219,8.07539062 C5.72519531,7.98222656 5.79199219,7.85214844 5.90625,7.85214844 L6.8765625,7.85214844 C6.96621094,7.85214844 7.05234375,7.89609375 7.10507812,7.96816406 L8.24238281,9.53261719 L10.8949219,5.87988281 C10.9476562,5.8078125 11.0320312,5.76386719 11.1234375,5.76386719 L12.09375,5.76386719 C12.2080078,5.765625 12.2748047,5.89570312 12.2080078,5.98886719 Z" id="形状"></path>
                </g>
            </g>
        </g>
    </g>
</svg>
