<?xml version="1.0" encoding="UTF-8"?>
<svg width="18px" height="18px" viewBox="0 0 18 18" version="1.1" xmlns="http://www.w3.org/2000/svg" xmlns:xlink="http://www.w3.org/1999/xlink">
    <g id="主账号" stroke="none" stroke-width="1" fill="none" fill-rule="evenodd">
        <g id="访问管理--用户概览" transform="translate(-521.000000, -292.000000)" fill="#FE4D4F" fill-rule="nonzero">
            <g id="编组-11备份-2" transform="translate(242.000000, 291.000000)">
                <g id="编组-12" transform="translate(279.000000, 1.000000)">
                    <rect id="矩形" opacity="0" x="0" y="0" width="18" height="18"></rect>
                    <path d="M9,0.9140625 C9.09667969,0.9140625 9.19335938,0.926367187 9.26542969,0.950976562 L15.2384766,2.98652344 C15.384375,3.0375 15.5039063,3.20449219 15.5005387,3.35917969 L15.5005387,11.8388672 C15.5005387,11.9953125 15.4001953,12.1992187 15.2789063,12.2941406 L9.21972656,17.015625 C9.15996094,17.0630859 9.07910156,17.0876953 8.99824219,17.0876953 C8.91738281,17.0876953 8.83828125,17.0630859 8.77675781,17.015625 L2.71757813,12.2941406 C2.59628906,12.1974609 2.49609375,11.9935547 2.49609375,11.8388672 L2.49609375,3.35917969 C2.49609375,3.20449219 2.615625,3.03574219 2.76152344,2.98652344 L8.73457031,0.950976562 C8.80664063,0.926367187 8.90332031,0.9140625 9,0.9140625 Z M11.1174141,5.58563538 L8.99609375,7.7070625 L6.87477341,5.58563538 L6.16766663,6.29274216 L8.28909375,8.4140625 L6.16766663,10.5353828 L6.87477341,11.2424896 L8.99609375,9.1210625 L11.1174141,11.2424896 L11.8245209,10.5353828 L9.70309375,8.4140625 L11.8245209,6.29274216 L11.1174141,5.58563538 Z" id="形状"></path>
                </g>
            </g>
        </g>
    </g>
</svg>
