<?xml version="1.0" encoding="UTF-8"?>
<svg width="22px" height="22px" viewBox="0 0 22 22" version="1.1" xmlns="http://www.w3.org/2000/svg" xmlns:xlink="http://www.w3.org/1999/xlink">
    <title>imp 低代码音视频工厂</title>
    <g id="页面-1" stroke="none" stroke-width="1" fill="none" fill-rule="evenodd">
        <g id="子用户" transform="translate(-50.000000, -830.000000)" fill="#0063FF" fill-rule="nonzero">
            <g id="imp-低代码音视频工厂" transform="translate(50.000000, 830.000000)">
                <rect id="矩形" opacity="0" x="0" y="0" width="22" height="22"></rect>
                <path d="M11.1067773,18.7160488 C6.99325,18.7160488 3.64970117,15.3317012 3.64970117,11.1778262 C3.64970117,7.0235 6.99325,3.64970117 11.1067988,3.64970117 C15.2203477,3.64970117 18.563875,7.02304883 18.563875,11.1778262 C18.5680899,11.3574479 18.6448029,11.5277218 18.7765507,11.6498865 C18.9082986,11.7720512 19.0838704,11.8357113 19.2632988,11.826375 C19.6172218,11.8163003 19.9017632,11.5317495 19.9118262,11.1778262 C19.9118262,6.28375 15.9600762,2.29167383 11.09625,2.29167383 C6.23242383,2.29167383 2.29167383,6.28375 2.29167383,11.1778262 C2.29167383,16.0815488 6.24342383,20.0635488 11.1067988,20.0635488 C11.286784,20.0635488 11.4593906,19.9920177 11.5866151,19.8647046 C11.7138395,19.7373915 11.7852504,19.5647352 11.785125,19.38475 C11.785125,19.0098477 11.4817012,18.7155762 11.1067988,18.7155762" id="路径"></path>
                <path d="M13.8274512,9.72675 L9.532875,7.29345117 C9.25604883,7.14129883 8.98745117,7.05192383 8.7285,7.05192383 C8.14642383,7.05192383 7.547375,7.481375 7.547375,8.4205 L7.547375,13.29625 C7.547375,14.25325 8.13817383,14.6648262 8.7285,14.6648262 C8.98792383,14.6648262 9.25557617,14.5933262 9.53332617,14.4232988 L13.8183203,11.99 C14.3013965,11.7127012 14.5970215,11.3102988 14.5970215,10.8629512 C14.5970215,10.4156035 14.3105703,10.0040488 13.8270215,9.72675 M19.0071191,14.6675762 C19.3201465,14.6675762 19.5735977,14.8724512 19.5735977,15.1259238 L19.5735977,18.330125 C19.5735977,18.49375 19.4658965,18.645 19.2903477,18.7265762 C19.1104194,18.8085903 18.9037759,18.8085903 18.7238477,18.7265762 C18.5483203,18.645 18.4405977,18.49375 18.4405977,18.330125 L18.4405977,15.1254512 C18.4405977,14.8724512 18.6940703,14.6675762 19.0070977,14.6675762 M16.509625,13.5230714 C16.8226523,13.5230714 17.076125,13.728 17.076125,13.9814512 L17.076125,19.4745762 C17.076125,19.6382012 16.9684238,19.7894512 16.792875,19.8710488 C16.6129468,19.953063 16.4063032,19.953063 16.226375,19.8710488 C16.0508477,19.7894512 15.943125,19.6382012 15.943125,19.4745762 L15.943125,13.981 C15.943125,13.8595488 16.0027012,13.743125 16.1090488,13.6569512 C16.2236479,13.5684194 16.364824,13.5212547 16.509625,13.5230714 M14.0121738,15.3541738 C14.1625,15.3541738 14.3064238,15.40275 14.41275,15.4884512 C14.5145921,15.5653026 14.5757093,15.6844982 14.5786738,15.8120488 L14.5786738,17.6435488 C14.5786738,17.8071738 14.4709512,17.9579512 14.2954238,18.04 C14.1154046,18.1215939 13.9089431,18.1215939 13.7289238,18.04 C13.553375,17.9579512 13.4456738,17.8071738 13.4456738,17.6435488 L13.4456738,15.8125 C13.4456738,15.6910488 13.50525,15.574625 13.6115762,15.4889238 C13.7179238,15.4032012 13.8618262,15.354625 14.0121738,15.354625" id="形状"></path>
            </g>
        </g>
    </g>
</svg>