<?xml version="1.0" encoding="UTF-8"?>
<svg width="16px" height="16px" viewBox="0 0 16 16" version="1.1" xmlns="http://www.w3.org/2000/svg" xmlns:xlink="http://www.w3.org/1999/xlink">
    <title>提示说明备份</title>
    <g id="页面-1" stroke="none" stroke-width="1" fill="none" fill-rule="evenodd">
        <g id="弹性公网IP--购买弹性公网IP-变更包年带宽备份" transform="translate(-477.000000, -336.000000)" fill-rule="nonzero">
            <g id="编组-56" transform="translate(445.000000, 106.000000)">
                <g id="框架/红色提示-侧边栏收起备份-2" transform="translate(20.000000, 220.000000)">
                    <g id="组-5799" transform="translate(12.000000, 8.000000)">
                        <g id="提示说明备份" transform="translate(8.000000, 10.000000) scale(1, -1) translate(-8.000000, -10.000000) translate(0.000000, 2.000000)">
                            <rect id="矩形" fill="#000000" opacity="0" x="0" y="0" width="16" height="16"></rect>
                            <path d="M8,16 C3.582,16 0,12.418 0,8 C0,3.582 3.582,0 8,0 C12.418,0 16,3.582 16,8 C16,12.418 12.418,16 8,16 Z M8,14.6666667 C11.682,14.6666667 14.6666667,11.682 14.6666667,8 C14.6666667,4.318 11.682,1.33333333 8,1.33333333 C4.318,1.33333333 1.33333333,4.318 1.33333333,8 C1.33333333,11.682 4.318,14.6666667 8,14.6666667 Z M8,6.66666666 C8.36818984,6.66666666 8.66666667,6.96514349 8.66666667,7.33333333 L8.66666667,12 C8.66666667,12.3681898 8.36818984,12.6666667 8,12.6666667 C7.63181016,12.6666667 7.33333333,12.3681898 7.33333333,12 L7.33333333,7.33333333 C7.33333333,6.96514349 7.63181016,6.66666666 8,6.66666666 Z M6.99999999,4.26666666 C6.99999999,3.7512009 7.41786756,3.33333333 7.93333333,3.33333333 C8.4487991,3.33333333 8.86666666,3.7512009 8.86666666,4.26666666 C8.86666666,4.78213243 8.4487991,5.2 7.93333333,5.2 C7.41786756,5.2 6.99999999,4.78213243 6.99999999,4.26666666 Z" id="形状" fill="#F7B500"></path>
                        </g>
                    </g>
                </g>
            </g>
        </g>
    </g>
</svg>