<?xml version="1.0" encoding="UTF-8"?>
<svg width="14px" height="14px" viewBox="0 0 14 14" version="1.1" xmlns="http://www.w3.org/2000/svg" xmlns:xlink="http://www.w3.org/1999/xlink">
    <g id="账户中心" stroke="none" stroke-width="1" fill="none" fill-rule="evenodd">
        <g id="账户中心-谷歌验证/海外" transform="translate(-292.000000, -353.000000)" fill="#F6AB2E" fill-rule="nonzero">
            <g id="亮色-小-水平-当前项备份" transform="translate(260.000000, 316.000000)">
                <g id="编组-8" transform="translate(32.000000, 33.000000)">
                    <g id="warning-circle-fill" transform="translate(0.000000, 4.000000)">
                        <rect id="矩形" opacity="0" x="0" y="0" width="14" height="14"></rect>
                        <path d="M7,0.875 C3.61757813,0.875 0.875,3.61757813 0.875,7 C0.875,10.3824219 3.61757813,13.125 7,13.125 C10.3824219,13.125 13.125,10.3824219 13.125,7 C13.125,3.61757813 10.3824219,0.875 7,0.875 Z M6.5625,4.046875 C6.5625,3.98671875 6.61171875,3.9375 6.671875,3.9375 L7.328125,3.9375 C7.38828125,3.9375 7.4375,3.98671875 7.4375,4.046875 L7.4375,7.765625 C7.4375,7.82578125 7.38828125,7.875 7.328125,7.875 L6.671875,7.875 C6.61171875,7.875 6.5625,7.82578125 6.5625,7.765625 L6.5625,4.046875 Z M7,10.0625 C6.63769531,10.0625 6.34375,9.76855469 6.34375,9.40625 C6.34375,9.04394531 6.63769531,8.75 7,8.75 C7.36230469,8.75 7.65625,9.04394531 7.65625,9.40625 C7.65625,9.76855469 7.36230469,10.0625 7,10.0625 Z" id="形状"></path>
                    </g>
                </g>
            </g>
        </g>
    </g>
</svg>