<?xml version="1.0" encoding="UTF-8"?>
<svg width="14px" height="14px" viewBox="0 0 14 14" version="1.1" xmlns="http://www.w3.org/2000/svg" xmlns:xlink="http://www.w3.org/1999/xlink">
    <title>warning-circle</title>
    <g id="CDN" stroke="none" stroke-width="1" fill="none" fill-rule="evenodd">
        <g id="域名管理-–-域名详情---复制配置1备份-4" transform="translate(-728.000000, -394.000000)">
            <g id="组-168" transform="translate(220.000000, 194.000000)">
                <g id="warning-circle" transform="translate(508.000000, 200.000000)">
                    <rect id="close-circle-(Background)" fill-rule="nonzero" x="0" y="0" width="14" height="14"></rect>
                    <path d="M7,0 C10.8659954,0 14,3.13400888 14,7 C14,10.8659954 10.8659916,14 7,14 C3.13400483,14 0,10.8659916 0,7 C0,3.13400459 3.13400912,0 7,0 Z M7,1 C3.6862936,1 1,3.68629003 1,7 C1,10.3137074 3.68628979,13 7,13 C10.3137064,13 13,10.3137102 13,7 C13,3.68629384 10.3137102,1 7,1 Z" id="Union" fill="#FE4D4F" fill-rule="nonzero"></path>
                    <path d="M7,9 C7.4140625,9 7.75,9.3359375 7.75,9.75 C7.75,10.1640625 7.4140625,10.5 7,10.5 C6.5859375,10.5 6.25,10.1640625 6.25,9.75 C6.25,9.3359375 6.5859375,9 7,9 Z M7.375,3.5 C7.44375,3.5 7.5,3.55625 7.5,3.625 L7.5,7.875 C7.5,7.94375 7.44375,8 7.375,8 L6.625,8 C6.55625,8 6.5,7.94375 6.5,7.875 L6.5,3.625 C6.5,3.55625 6.55625,3.5 6.625,3.5 L7.375,3.5 Z" id="形状结合" stroke="#FE4D4F" stroke-width="0.2" fill="#FE4D4F"></path>
                </g>
            </g>
        </g>
    </g>
</svg>