<?xml version="1.0" encoding="UTF-8"?>
<svg width="14px" height="14px" viewBox="0 0 14 14" version="1.1" xmlns="http://www.w3.org/2000/svg" xmlns:xlink="http://www.w3.org/1999/xlink">
    <g id="主账号" stroke="none" stroke-width="1" fill="none" fill-rule="evenodd">
        <g id="访问管理-----用户列表-新建用户-2备份-4" transform="translate(-352.000000, -719.000000)" fill="#FE4D4F" fill-rule="nonzero">
            <g id="提示/默认" transform="translate(352.000000, 719.000000)">
                <rect id="矩形" opacity="0" transform="translate(7.000000, 7.000000) scale(1, -1) translate(-7.000000, -7.000000) " x="0" y="0" width="14" height="14"></rect>
                <path d="M7,14 C3.13425,14 0,10.86575 0,7 C0,3.13425 3.13425,0 7,0 C10.86575,0 14,3.13425 14,7 C14,10.86575 10.86575,14 7,14 Z M7,12.8333333 C10.22175,12.8333333 12.8333333,10.22175 12.8333333,7 C12.8333333,3.77825 10.22175,1.16666666 7,1.16666666 C3.77825,1.16666666 1.16666666,3.77825 1.16666666,7 C1.16666666,10.22175 3.77825,12.8333333 7,12.8333333 Z M6.41666666,6.41666666 C6.41666666,6.09450056 6.67783389,5.83333332 7,5.83333332 C7.32216611,5.83333332 7.58333334,6.09450056 7.58333334,6.41666666 L7.58333334,10.5 C7.58333334,10.8221661 7.32216611,11.0833333 7,11.0833333 C6.67783389,11.0833333 6.41666666,10.8221661 6.41666666,10.5 L6.41666666,6.41666666 L6.41666666,6.41666666 Z M6.94166666,4.55 C6.49063412,4.55 6.12499999,4.18436588 6.12499999,3.73333333 C6.12499999,3.28230078 6.49063412,2.91666666 6.94166666,2.91666666 C7.39269921,2.91666666 7.75833333,3.28230078 7.75833333,3.73333333 C7.75833333,4.18436588 7.39269921,4.55 6.94166666,4.55 L6.94166666,4.55 Z" id="形状" transform="translate(7.000000, 7.000000) scale(1, -1) translate(-7.000000, -7.000000) "></path>
            </g>
        </g>
    </g>
</svg>