<svg xmlns="http://www.w3.org/2000/svg" width="13" height="13" viewBox="0 0 13 13"><defs><style>.a{fill:#28c445;}.b{fill:#fff;}</style></defs><g transform="translate(-316 -240)"><rect class="a" width="13" height="13" rx="2" transform="translate(316 240)"/><path class="b" d="M323.915,245.211a2.5,2.5,0,0,1,.274.017,2.828,2.828,0,0,0-2.857-1.988,2.638,2.638,0,0,0-2.832,2.408,2.324,2.324,0,0,0,1.133,1.912l-.283.851.99-.5a4.843,4.843,0,0,0,.992.142c.089,0,.177,0,.263-.011a2.117,2.117,0,0,1-.087-.594A2.32,2.32,0,0,1,323.915,245.211Zm-1.522-.767a.354.354,0,1,1,0,.707.359.359,0,1,1,0-.707Zm-1.982.707a.36.36,0,1,1,0-.707.354.354,0,1,1,0,.707Zm6.089,2.267a2.289,2.289,0,0,0-2.4-2.054,2.081,2.081,0,1,0,0,4.109,3.556,3.556,0,0,0,.849-.142l.776.426-.212-.708A2.148,2.148,0,0,0,326.5,247.418Zm-3.186-.354a.283.283,0,1,1,0-.566.29.29,0,1,1,0,.566Zm1.557,0a.283.283,0,0,1,0-.566.29.29,0,1,1,0,.566Z"/></g></svg>