<svg width="24" height="24" viewBox="0 0 24 24" fill="none" xmlns="http://www.w3.org/2000/svg">
<path d="M8.5 6.875H6.5V5.125H8.5V6.875Z" fill="#191C23"/>
<path fill-rule="evenodd" clip-rule="evenodd" d="M18.875 11.2305C18.3312 11.0163 17.7421 10.8937 17.125 10.8789V9.875H4.875V14.125H11.8428C11.1296 14.5583 10.5308 15.1589 10.1016 15.875H4.875V20.125H9.63965C9.85738 20.7765 10.2017 21.3696 10.6445 21.875H3.125V2.125H18.875V11.2305ZM4.875 8.125H17.125V3.875H4.875V8.125Z" fill="#191C23"/>
<path fill-rule="evenodd" clip-rule="evenodd" d="M17 12.625C18.5953 12.625 19.931 13.7321 20.2832 15.2197C21.7695 15.5735 22.875 16.9058 22.875 18.5C22.875 20.364 21.364 21.875 19.5 21.875H14.5C12.636 21.875 11.125 20.364 11.125 18.5C11.125 16.9062 12.23 15.5739 13.7158 15.2197C14.068 13.732 15.4046 12.625 17 12.625ZM17 14.375C16.1025 14.375 15.375 15.1025 15.375 16V16.833L14.543 16.874L14.3174 16.8848C13.5064 16.9749 12.875 17.6643 12.875 18.5C12.875 19.3975 13.6025 20.125 14.5 20.125H19.5C20.3975 20.125 21.125 19.3975 21.125 18.5C21.125 17.664 20.4931 16.9745 19.6816 16.8848L19.457 16.874L18.625 16.833V16C18.625 15.1025 17.8975 14.375 17 14.375Z" fill="#191C23"/>
<path d="M8.5 18.875H6.5V17.125H8.5V18.875Z" fill="#191C23"/>
<path d="M8.5 12.875H6.5V11.125H8.5V12.875Z" fill="#191C23"/>
</svg>
