<svg xmlns="http://www.w3.org/2000/svg" width="24" height="24" viewBox="0 0 24 24" fill="none">
  <path d="M15.0127 18.4561C15.3393 18.9768 15.7667 19.4272 16.2676 19.7813C15.0009 20.4776 13.5466 20.875 11.999 20.875C10.4515 20.875 8.99715 20.4776 7.73047 19.7813C8.23179 19.4276 8.65925 18.9776 8.98633 18.457C9.90154 18.8848 10.9221 19.125 11.999 19.125C13.0764 19.125 14.0972 18.8842 15.0127 18.4561Z" fill="currentColor"/>
  <path fill-rule="evenodd" clip-rule="evenodd" d="M12 1.125C13.5878 1.125 14.875 2.41218 14.875 4C14.875 5.28401 14.0329 6.37014 12.8711 6.73926V9.25977C14.033 9.6288 14.875 10.7159 14.875 12C14.875 12.2096 14.8502 12.4135 14.8076 12.6104L17.001 13.877C17.5116 13.4125 18.1889 13.1279 18.9336 13.1279C20.5214 13.1279 21.8086 14.4151 21.8086 16.0029C21.8086 17.5907 20.5214 18.8779 18.9336 18.8779C17.3458 18.8779 16.0586 17.5907 16.0586 16.0029C16.0586 15.7934 16.0824 15.5894 16.125 15.3926L13.9307 14.125C13.4201 14.5892 12.7444 14.875 12 14.875C11.2538 14.875 10.5764 14.5882 10.0654 14.1221L7.87695 15.3857C7.92024 15.5841 7.94531 15.7896 7.94531 16.001C7.94531 17.5888 6.65813 18.876 5.07031 18.876C3.48249 18.876 2.19531 17.5888 2.19531 16.001C2.19531 14.4132 3.48249 13.126 5.07031 13.126C5.81299 13.126 6.48787 13.4098 6.99805 13.8721L9.19043 12.6064C9.14841 12.4109 9.125 12.2081 9.125 12C9.125 10.7188 9.96329 9.63415 11.1211 9.2627V6.73633C9.96343 6.36479 9.125 5.28108 9.125 4C9.125 2.41218 10.4122 1.125 12 1.125ZM18.9336 14.8779C18.3123 14.8779 17.8086 15.3816 17.8086 16.0029C17.8086 16.6243 18.3123 17.1279 18.9336 17.1279C19.5549 17.1279 20.0586 16.6243 20.0586 16.0029C20.0586 15.3816 19.5549 14.8779 18.9336 14.8779ZM5.07031 14.876C4.44899 14.876 3.94531 15.3797 3.94531 16.001C3.94531 16.6223 4.44899 17.126 5.07031 17.126C5.69163 17.126 6.19531 16.6223 6.19531 16.001C6.19531 15.3797 5.69163 14.876 5.07031 14.876ZM12 10.875C11.3787 10.875 10.875 11.3787 10.875 12C10.875 12.6213 11.3787 13.125 12 13.125C12.6213 13.125 13.125 12.6213 13.125 12C13.125 11.3787 12.6213 10.875 12 10.875ZM12 2.875C11.3787 2.875 10.875 3.37868 10.875 4C10.875 4.62132 11.3787 5.125 12 5.125C12.6213 5.125 13.125 4.62132 13.125 4C13.125 3.37868 12.6213 2.875 12 2.875Z" fill="currentColor"/>
  <path d="M7.39258 4.41211C7.4481 5.04089 7.63027 5.6329 7.91211 6.16406C6.23428 7.34123 5.08836 9.22286 4.90234 11.3799C4.27057 11.4023 3.67151 11.5515 3.12891 11.8027C3.19724 8.67022 4.88567 5.93726 7.39258 4.41211Z" fill="currentColor"/>
  <path d="M16.6045 4.41211C19.1118 5.93717 20.7998 8.66994 20.8682 11.8027C20.3254 11.5522 19.7264 11.4036 19.0947 11.3818C18.9092 9.22376 17.7636 7.34154 16.085 6.16406C16.3669 5.63282 16.5489 5.04102 16.6045 4.41211Z" fill="currentColor"/>
</svg>
