<svg width="14" height="14" viewBox="0 0 14 14" fill="none" xmlns="http://www.w3.org/2000/svg">
<path d="M7.16667 5.91667V9.91667H6V5.91667H7.16667Z" fill="#828B9C"/>
<path d="M7.16667 3.25V4.58333H6V3.25H7.16667Z" fill="#828B9C"/>
<path fill-rule="evenodd" clip-rule="evenodd" d="M6.58333 0C10.2192 0 13.1667 2.94746 13.1667 6.58333C13.1667 10.2192 10.2192 13.1667 6.58333 13.1667C2.94746 13.1667 0 10.2192 0 6.58333C0 2.94746 2.94746 0 6.58333 0ZM6.58333 1.16667C3.59179 1.16667 1.16667 3.59179 1.16667 6.58333C1.16667 9.57488 3.59179 12 6.58333 12C9.57488 12 12 9.57488 12 6.58333C12 3.59179 9.57488 1.16667 6.58333 1.16667Z" fill="#828B9C"/>
</svg>
