<svg width="20" height="20" viewBox="0 0 20 20" fill="none" xmlns="http://www.w3.org/2000/svg">
  <path fill-rule="evenodd" clip-rule="evenodd" d="M9.99996 1.77083C14.0846 1.77083 17.3958 5.08206 17.3958 9.16667V14.1667C17.3958 16.4103 15.577 18.2292 13.3333 18.2292H9.99996V16.7708H13.3333C14.5184 16.7708 15.5179 15.9791 15.8333 14.8958H12.6041V9.27083H15.9375V9.16667C15.9375 5.88748 13.2792 3.22917 9.99996 3.22917C6.72077 3.22917 4.06246 5.88748 4.06246 9.16667V9.27083H7.39579V14.8958H2.60413V9.16667C2.60413 5.08206 5.91535 1.77083 9.99996 1.77083ZM14.0625 10.7292V13.4375H15.9375V10.7292H14.0625ZM4.06246 13.4375H5.93746V10.7292H4.06246V13.4375Z" fill="currentColor" />
</svg>
