<svg width="20" height="20" viewBox="0 0 20 20" fill="none" xmlns="http://www.w3.org/2000/svg">
  <path fill-rule="evenodd" clip-rule="evenodd" d="M10 1.77083C14.5449 1.77083 18.2292 5.45516 18.2292 10C18.2292 14.5448 14.5449 18.2292 10 18.2292C5.4552 18.2292 1.77087 14.5448 1.77087 10C1.77087 5.45516 5.4552 1.77083 10 1.77083ZM3.28861 9.11133C3.25047 9.40222 3.22921 9.69871 3.22921 10C3.22921 13.493 5.87441 16.3672 9.27087 16.731V15.3345L6.35421 12.8353V10.4736L3.28861 9.11133ZM10 3.22917C7.07898 3.22917 4.58971 5.07884 3.64018 7.6709L7.81254 9.52637V12.1647L10.7292 14.6647V16.731C13.2397 16.4621 15.3383 14.8216 16.2631 12.5732L14.8706 13.1706L14.3132 13.409L12.5261 10.7292H8.43754V6.93034L8.99011 6.79281L10.1042 6.51367V4.47428L11.3542 4.05762V3.36426C10.9167 3.27545 10.4638 3.22917 10 3.22917ZM12.8125 5.10905L11.5625 5.5249V7.653L9.89587 8.06885V9.27083H13.3073L14.8536 11.5902L16.7229 10.7886C16.7529 10.5298 16.7709 10.2668 16.7709 10C16.7709 7.2642 15.1479 4.90836 12.8125 3.84033V5.10905Z" fill="currentColor" />
</svg>
