<svg width="55" height="22" viewBox="0 0 55 22" fill="none" xmlns="http://www.w3.org/2000/svg">
  <path d="M8.23224 16.5507C8.54073 16.0863 8.72768 15.548 8.77109 14.976C8.90755 13.1675 8.16819 11.9416 9.58285 11.304C10.6303 10.8529 11.6381 10.418 12.5251 9.91132C11.813 13.0781 10.1386 15.0196 8.23224 16.5507ZM5.37559 16.4448C4.91857 16.4112 4.50306 16.1989 4.20442 15.8499C3.91128 15.5073 3.76645 15.0728 3.79419 14.6225C4.45754 14.0152 5.18281 13.5064 5.93794 13.0615C6.72494 13.2662 7.27776 14.0156 7.21414 14.8576C7.17984 15.3166 6.9697 15.7341 6.62236 16.034C6.27502 16.3338 5.83208 16.4796 5.37559 16.4448ZM17.7629 7.36382C17.2381 9.73055 14.5585 10.5709 15.5451 9.39793C17.2018 7.42772 18.0715 2.62471 17.3279 0C16.3458 2.53166 4.29292 9.79669 5.96441 6.36149C3.15699 8.44877 -1.54444 13.9093 0.500432 21.4937C0.778326 19.1585 1.50741 17.4109 2.50518 16.0534C2.63381 16.3467 2.80669 16.6221 3.02053 16.8718C3.49893 17.4312 4.13539 17.8055 4.84288 17.9505C4.97902 17.9783 5.11707 17.9979 5.25766 18.0087C5.6448 18.0378 6.02687 17.9991 6.38998 17.8969C4.52 19.1746 2.6462 20.314 1.38376 22C6.0401 19.3703 18.9568 20.4897 17.7629 7.36382Z" fill="currentColor" />
  <path d="M41.7808 13.9393H45.1064V13.1226H41.7808V11.9063H40.9679V13.1226H38.6463V12.1518H37.8328V13.9393H40.9679V15.693H37.421V16.5095H40.0817C39.8091 17.8824 38.7228 19.1701 37.421 19.7238V20.596C39.1454 19.9983 40.6167 18.3002 40.9071 16.5095H40.9679V20.596H41.7808V16.5095H41.8421C42.1324 18.3002 43.6037 19.9983 45.3281 20.596V19.7238C44.0263 19.1701 42.94 17.8824 42.6674 16.5095H45.3281V15.693H41.7808V13.9393Z" fill="currentColor" />
  <path d="M52.0451 15.1554H51.2322V15.6929H48.6013V16.5095H51.2322V17.0549H48.6013V17.872H51.2322V18.417H48.6013V19.2341H51.2322V19.7794H48.6013V20.596H54.6479V19.7794H52.0451V19.2341H54.6479V18.417H52.0451V17.872H54.6479V17.0549H52.0451V16.5095H54.6479V15.6929H52.0451V15.1554Z" fill="currentColor" />
  <path d="M48.3172 12.1518H47.4988C47.4124 12.8995 47.2593 13.4017 46.7404 13.9853L47.3467 14.5294C48.0257 13.7669 48.2179 13.0786 48.3172 12.1518Z" fill="currentColor" />
  <path d="M53.3263 12.1518L53.5207 13.0773C52.8363 13.4071 52.0332 13.717 51.1615 13.9924V11.9063H50.348V14.2333C49.1972 14.5536 47.9607 14.812 46.7404 14.9793V15.8039C46.8892 15.7839 47.0382 15.7627 47.1874 15.7403V20.596H48.0004V15.6053C50.0933 15.2269 52.151 14.6126 53.6931 13.8981L53.8259 14.5294H54.657L54.1575 12.1518H53.3263Z" fill="currentColor" />
  <path d="M22.1208 10.2141C22.5649 10.428 23.0834 10.5369 23.6769 10.5406C24.5527 10.5464 25.2479 10.325 25.7623 9.87686C26.2771 9.42908 26.5368 8.81552 26.5418 8.03713C26.5451 7.51534 26.4272 7.09084 26.1882 6.76194C25.9493 6.43336 25.68 6.18538 25.3802 6.01758C25.0812 5.8501 24.6685 5.65742 24.1433 5.43848C23.6694 5.24494 23.32 5.09171 23.0942 4.97868C22.8688 4.86532 22.6988 4.73814 22.5847 4.5965C22.4706 4.45486 22.4143 4.28047 22.4156 4.07354C22.4172 3.78409 22.5169 3.55685 22.7146 3.39234C22.9122 3.22827 23.1856 3.14681 23.5342 3.14894C23.9795 3.15181 24.3294 3.27644 24.5837 3.52239C24.838 3.76824 24.9642 4.06482 24.9621 4.41254L24.9613 4.51218C24.9613 4.55375 24.9737 4.58906 24.9998 4.61766C25.0254 4.64723 25.0568 4.66179 25.094 4.66179L26.3739 4.67009C26.4107 4.67051 26.4426 4.65594 26.4686 4.62723C26.4947 4.59863 26.5079 4.56332 26.5083 4.52175L26.5096 4.33566C26.5129 3.80568 26.3912 3.33918 26.1452 2.93584C25.8992 2.53251 25.5564 2.21764 25.1163 1.99125C24.6763 1.76529 24.1743 1.65023 23.6103 1.64651C23.0764 1.64321 22.6041 1.73955 22.1952 1.93564C21.7857 2.13204 21.4648 2.41543 21.2329 2.78676C21.0004 3.15808 20.8826 3.59173 20.8793 4.08853C20.8764 4.59363 20.9906 5.01898 21.2221 5.36415C21.4537 5.70932 21.7415 5.98218 22.0852 6.18326C22.4288 6.38392 22.8485 6.58159 23.3444 6.77523C23.7885 6.96005 24.1123 7.10499 24.3158 7.20962C24.5192 7.31436 24.6796 7.43526 24.7976 7.57276C24.9154 7.71015 24.9737 7.87848 24.9724 8.07701C24.9707 8.35029 24.8728 8.57955 24.6789 8.76447C24.4845 8.94971 24.1913 9.04063 23.798 9.03861C23.3303 9.03563 22.9602 8.91941 22.6868 8.68961C22.4139 8.46035 22.2783 8.17994 22.2803 7.84892L22.2816 7.6624C22.282 7.62136 22.2692 7.58605 22.2436 7.55649C22.2175 7.52746 22.1861 7.51289 22.1488 7.51247L20.8801 7.5046C20.8429 7.50417 20.8114 7.51874 20.7854 7.54735C20.7594 7.57648 20.7461 7.61136 20.7457 7.65283L20.7441 7.92622C20.7407 8.44748 20.8587 8.90611 21.0973 9.30073C21.3358 9.69566 21.677 10.0002 22.1208 10.2141Z" fill="currentColor" />
  <path d="M29.2683 10.5635C29.8915 10.5676 30.3525 10.347 30.6523 9.90175C30.6672 9.87687 30.6822 9.86687 30.697 9.87102C30.7119 9.87517 30.7193 9.88974 30.7193 9.91419L30.7165 10.3367C30.7161 10.3781 30.7289 10.4134 30.7549 10.4426C30.7805 10.472 30.812 10.4866 30.8488 10.4866L32.151 10.4949C32.1882 10.4953 32.2196 10.4812 32.2461 10.4522C32.2722 10.4234 32.2854 10.3881 32.2854 10.3466L32.3238 4.26049C32.3238 4.21933 32.311 4.18403 32.2854 4.15457C32.2593 4.12554 32.2279 4.11098 32.1911 4.11055L30.8889 4.10226C30.8521 4.10226 30.8202 4.1164 30.7942 4.14543C30.7677 4.17414 30.7549 4.20944 30.7545 4.25049L30.7301 8.16294C30.6913 8.43633 30.5895 8.65687 30.4253 8.82594C30.2612 8.99459 30.0527 9.07807 29.8004 9.07637C29.5184 9.07477 29.2984 8.96961 29.1405 8.76151C28.9821 8.55383 28.9044 8.28427 28.906 7.95281L28.9296 4.2389C28.9296 4.19775 28.9168 4.16244 28.8912 4.13341C28.8651 4.10428 28.8337 4.08939 28.7968 4.08939L27.5058 4.08109C27.4686 4.08067 27.4371 4.09513 27.4111 4.12384C27.3846 4.15287 27.3714 4.18786 27.3714 4.22933L27.3453 8.37774C27.3412 9.0652 27.5195 9.60061 27.8809 9.98353C28.2419 10.3666 28.7042 10.5601 29.2683 10.5635Z" fill="currentColor" />
  <path d="M33.2761 10.5019L37.5607 10.5294C37.598 10.5294 37.6294 10.5152 37.6559 10.4862C37.6819 10.4575 37.6951 10.4226 37.6951 10.3811L37.7034 9.08924C37.7038 9.04777 37.691 9.01279 37.665 8.98333C37.6393 8.9543 37.6078 8.93973 37.5707 8.93931L35.0225 8.92314C34.9778 8.92314 34.9703 8.89815 35.0006 8.84839L37.6017 5.79695C37.6468 5.73134 37.6691 5.66903 37.6694 5.61086L37.6778 4.29452C37.6782 4.25305 37.6653 4.21775 37.6397 4.18861C37.6136 4.15958 37.5822 4.14459 37.5455 4.14459L33.3828 4.118C33.346 4.118 33.3142 4.13257 33.2881 4.16128C33.2617 4.18988 33.2488 4.22519 33.2484 4.26634L33.2406 5.54568C33.2402 5.58726 33.253 5.62256 33.279 5.65159C33.3046 5.68104 33.3361 5.69519 33.3732 5.69561L35.7213 5.71061C35.7734 5.71103 35.7805 5.73549 35.7432 5.78536L33.2198 8.83712C33.1747 8.89486 33.1521 8.95717 33.1521 9.02321L33.1434 10.352C33.1434 10.3936 33.1562 10.4289 33.1818 10.4579C33.2075 10.4875 33.2389 10.5019 33.2761 10.5019Z" fill="currentColor" />
  <path d="M41.7594 8.33202C41.7574 8.63029 41.6444 8.87412 41.4207 9.06308C41.197 9.25204 40.9257 9.34551 40.6065 9.34349C40.369 9.34221 40.1801 9.27703 40.0403 9.14741C39.9002 9.01821 39.8307 8.84169 39.8319 8.61827C39.8336 8.36158 39.9295 8.16336 40.1197 8.02385C40.3095 7.88423 40.5718 7.81533 40.9055 7.81777L41.7068 7.82277C41.7441 7.82277 41.7623 7.8435 41.7623 7.88508L41.7594 8.33202ZM41.7135 6.77939L40.5783 6.77227C39.836 6.7677 39.2637 6.94007 38.8609 7.28906C38.4582 7.63881 38.2547 8.13221 38.2506 8.7698C38.2469 9.38252 38.4218 9.84731 38.7762 10.1643C39.1301 10.4812 39.5967 10.6415 40.1755 10.6448C40.8653 10.6494 41.3678 10.4251 41.6821 9.97151C41.6973 9.94663 41.7118 9.93876 41.7272 9.94706C41.7416 9.95535 41.7491 9.97194 41.7491 9.9964L41.7461 10.4064C41.7461 10.448 41.7586 10.4833 41.7847 10.5123C41.8103 10.5418 41.8417 10.5564 41.8789 10.5564L43.1807 10.5647C43.218 10.5651 43.2497 10.5509 43.2759 10.5219C43.3019 10.4932 43.3151 10.4579 43.3156 10.4164L43.342 6.20613C43.3445 5.80865 43.241 5.44763 43.0314 5.1232C42.8221 4.7993 42.5286 4.5425 42.1514 4.35396C41.7743 4.165 41.3446 4.0694 40.8621 4.06611C40.4171 4.06324 40.0139 4.13959 39.6533 4.29452C39.2923 4.44945 39.0016 4.66712 38.7811 4.94711C38.5604 5.22752 38.4342 5.54153 38.4023 5.88882C38.3945 5.94688 38.435 5.98474 38.5239 6.00133L39.8696 6.20858C39.9436 6.2173 39.992 6.17668 40.0147 6.08565C40.0606 5.9203 40.1594 5.79238 40.312 5.70231C40.4651 5.61214 40.656 5.56769 40.886 5.56939C41.1829 5.57141 41.405 5.64914 41.5526 5.80322C41.6999 5.95773 41.773 6.17125 41.771 6.44454L41.7693 6.71783C41.7693 6.75898 41.7503 6.77971 41.7135 6.77939Z" fill="currentColor" />
  <path d="M46.7755 7.56895L47.8589 10.4825C47.8884 10.5572 47.94 10.595 48.014 10.5954L49.3833 10.6041C49.4647 10.6045 49.5057 10.5718 49.5061 10.5053C49.5061 10.4886 49.4991 10.4642 49.4846 10.4309L47.8507 6.48282C47.8437 6.45783 47.8474 6.42923 47.8627 6.39595L49.2885 4.40501C49.3113 4.36396 49.3225 4.3311 49.3225 4.30622C49.3229 4.24848 49.2857 4.21891 49.2117 4.2186L47.7316 4.20903C47.6721 4.2086 47.6163 4.23721 47.5641 4.29495L46.0382 6.24771C46.0233 6.2643 46.0084 6.27047 45.9935 6.26632C45.9787 6.26218 45.9712 6.24729 45.9716 6.22272L45.9976 2.03657C45.998 1.99542 45.9852 1.96011 45.9596 1.93108C45.9336 1.90194 45.9021 1.88706 45.8653 1.88663L44.5632 1.87834C44.5259 1.87834 44.4945 1.8928 44.468 1.92151C44.442 1.95022 44.4287 1.98553 44.4287 2.02657L44.3762 10.423C44.3758 10.4646 44.3882 10.4999 44.4142 10.5289C44.4399 10.5585 44.4713 10.573 44.5085 10.573L45.8108 10.5813C45.8475 10.5817 45.8794 10.5676 45.9054 10.5385C45.9315 10.5099 45.9447 10.4746 45.9451 10.433L45.9568 8.61987C45.9568 8.60328 45.9642 8.5784 45.9791 8.54512L46.6978 7.55608C46.7052 7.53992 46.718 7.53364 46.7367 7.53779C46.7553 7.54194 46.7681 7.55236 46.7755 7.56895Z" fill="currentColor" />
  <path d="M54.9619 4.29835C54.9358 4.26921 54.9044 4.25422 54.8677 4.25422L53.5654 4.24593C53.5282 4.24593 53.4963 4.26007 53.4707 4.28878C53.4442 4.31781 53.431 4.35269 53.4306 4.39426L53.4062 8.30671C53.3674 8.57957 53.266 8.80054 53.1018 8.96919C52.9372 9.13784 52.7288 9.22131 52.4766 9.22014C52.195 9.21801 51.9746 9.11338 51.8165 8.90528C51.6582 8.6976 51.5805 8.42762 51.5825 8.09648L51.6057 4.38267C51.6057 4.34109 51.5929 4.30622 51.5672 4.27666C51.5416 4.24763 51.5102 4.23306 51.4729 4.23263L50.1819 4.22434C50.1451 4.22434 50.1132 4.23848 50.0871 4.26762C50.0607 4.29622 50.0479 4.33152 50.0474 4.37268L50.0214 8.5214C50.0173 9.20845 50.1956 9.74396 50.557 10.1269C50.918 10.5103 51.3807 10.7034 51.9443 10.7072C52.5675 10.7113 53.029 10.4903 53.3285 10.0451C53.3437 10.0205 53.3582 10.0101 53.3735 10.0143C53.388 10.0188 53.3954 10.0334 53.3954 10.058L53.3925 10.4803C53.3925 10.5219 53.4049 10.5572 53.431 10.5863C53.4567 10.6154 53.488 10.63 53.5253 10.6303L54.8275 10.6382C54.8643 10.6387 54.8961 10.6245 54.9222 10.5954C54.9482 10.5668 54.9619 10.5319 54.9619 10.4903L55 4.40383C55.0004 4.36268 54.9875 4.32738 54.9619 4.29835Z" fill="currentColor" />
  <path d="M26.8172 11.8548L25.4479 11.8461C25.3665 11.8453 25.3143 11.8868 25.2917 11.969L24.2363 16.2379C24.0923 16.8215 24.0192 17.4209 24.0192 18.0224V18.0274C24.0192 18.0958 23.9638 18.1516 23.8951 18.1516H23.6474C23.5788 18.1516 23.5234 18.0958 23.5234 18.0274C23.5234 17.4484 23.456 16.8714 23.322 16.3081L22.2865 11.9504C22.265 11.8673 22.2133 11.8254 22.1318 11.825L20.7296 11.8162C20.6476 11.8158 20.6068 11.857 20.6063 11.9396L20.617 11.9895L22.8572 20.4004C22.8787 20.4835 22.9267 20.525 23.0007 20.5254L24.4034 20.5341C24.4774 20.535 24.5258 20.4938 24.5485 20.4112L26.9272 12.0293C26.942 11.9799 26.9387 11.9383 26.9168 11.9051C26.8949 11.8719 26.8614 11.8548 26.8172 11.8548Z" fill="currentColor" />
  <path d="M34.2 11.9014L32.8978 11.893C32.8312 11.8927 32.7791 11.9254 32.7415 11.9915L31.428 14.2213C31.3143 14.4139 31.2544 14.6342 31.2544 14.8584C31.2544 14.927 31.1989 14.9826 31.1303 14.9826H30.8826C30.814 14.9826 30.7586 14.927 30.7586 14.8584V14.824C30.7586 14.6063 30.7023 14.3924 30.5948 14.2034L29.3248 11.9699C29.2881 11.9034 29.2363 11.8698 29.1697 11.8694L27.8676 11.8611C27.8303 11.8611 27.7989 11.8756 27.7729 11.9043C27.7464 11.9329 27.7336 11.9682 27.7332 12.0093L27.6807 20.4058C27.6802 20.4474 27.6926 20.4827 27.7187 20.5117C27.7444 20.5413 27.7757 20.5557 27.813 20.5557L29.1152 20.564C29.1524 20.5645 29.1838 20.5503 29.2103 20.5213C29.2359 20.4927 29.2496 20.4574 29.2496 20.4158L29.284 14.9506C29.2843 14.9179 29.2914 14.8992 29.3066 14.895C29.3211 14.8913 29.3361 14.9016 29.3509 14.9266L30.5175 16.9956C30.5543 17.0625 30.606 17.0956 30.673 17.0961L31.3297 17.1002C31.3963 17.1006 31.4479 17.0682 31.4859 17.0017L32.6786 14.9473C32.6935 14.9229 32.7079 14.9103 32.7233 14.9103C32.7378 14.9107 32.7452 14.9274 32.7452 14.9602L32.7109 20.4378C32.7105 20.4794 32.7233 20.5147 32.7489 20.5437C32.7745 20.5732 32.806 20.5873 32.8432 20.5877L34.1454 20.596C34.1826 20.596 34.2141 20.5819 34.2405 20.5533C34.2666 20.5241 34.2798 20.4893 34.2798 20.4478L34.3327 12.0513C34.3327 12.0102 34.3199 11.9749 34.2943 11.9454C34.2683 11.9163 34.2373 11.9017 34.2 11.9014Z" fill="currentColor" />
</svg>
