<svg width="20" height="20" viewBox="0 0 20 20" fill="none" xmlns="http://www.w3.org/2000/svg">
  <path fill-rule="evenodd" clip-rule="evenodd" d="M8.74998 1.77083C12.6045 1.77083 15.7291 4.89551 15.7291 8.75C15.7291 10.4144 15.1456 11.9419 14.1732 13.1413L18.0159 16.984L16.984 18.016L13.1413 14.1732C11.9418 15.1456 10.4144 15.7292 8.74998 15.7292C4.89549 15.7292 1.77081 12.6045 1.77081 8.75C1.77081 4.89551 4.89549 1.77083 8.74998 1.77083ZM8.74998 3.22917C5.70091 3.22917 3.22915 5.70093 3.22915 8.75C3.22915 11.7991 5.70091 14.2708 8.74998 14.2708C11.7991 14.2708 14.2708 11.7991 14.2708 8.75C14.2708 5.70093 11.7991 3.22917 8.74998 3.22917Z" fill="#828B9C" />
</svg>
