<svg width="18" height="20" viewBox="0 0 18 20" fill="none" xmlns="http://www.w3.org/2000/svg">
<path d="M12.4941 6.49414L9.98828 9H12.875V10.75H9.75V12H12.875V13.75H9.75V15.875H8V13.75H4.875V12H8V10.75H4.875V9H7.76172L5.25586 6.49414L6.49414 5.25586L8.875 7.63672L11.2559 5.25586L12.4941 6.49414Z" fill="#0066FF"/>
<path fill-rule="evenodd" clip-rule="evenodd" d="M17.75 19.75H0V0H17.75V19.75ZM1.75 18H16V1.75H12.875V2.125C12.875 2.67728 12.4273 3.125 11.875 3.125H5.875C5.32272 3.125 4.875 2.67728 4.875 2.125V1.75H1.75V18Z" fill="#0066FF"/>
</svg>
