<?xml version="1.0" encoding="UTF-8"?>
<svg width="20px" height="20px" viewBox="0 0 20 20" version="1.1" xmlns="http://www.w3.org/2000/svg" xmlns:xlink="http://www.w3.org/1999/xlink">
    <title>DNS日志</title>
    <g id="控制台" stroke="none" stroke-width="1" fill="none" fill-rule="evenodd">
        <g id="域名-概览-" transform="translate(-1144.000000, -333.000000)" fill="#555555" fill-rule="nonzero">
            <g id="编组-8备份" transform="translate(1128.000000, 318.000000)">
                <g id="DNS日志" transform="translate(16.000000, 15.000000)">
                    <rect id="矩形" opacity="0" x="0" y="0" width="20" height="20"></rect>
                    <path d="M7.68,5.98 C8.02,5.98 8.28,5.76 8.28,5.49 C8.28,5.22 8.02,5 7.68,5 L5.78,5 C5.44,5 5.18,5.22 5.18,5.49 C5.18,5.76 5.44,5.98 5.78,5.98 L7.68,5.98 L7.68,5.98 Z" id="路径"></path>
                    <path d="M16.24,18.54 C16.48,18.54 16.66,18.36 16.66,18.12 L16.66,6.06 C16.67,5.95 16.62,5.85 16.54,5.78 L16.53,5.77 L12.33,1.57 C12.25,1.49 12.14,1.45 12.03,1.45 L3.73,1.45 C3.49,1.45 3.31,1.63 3.31,1.87 L3.31,18.12 C3.31,18.36 3.49,18.54 3.73,18.54 L16.24,18.54 Z M11.54,2.68 C11.54,2.6 11.59,2.53 11.66,2.5 C11.68,2.49 11.71,2.48 11.74,2.48 C11.79,2.48 11.84,2.5 11.88,2.54 L15.56,6.22 C15.62,6.28 15.63,6.36 15.6,6.44 C15.57,6.51 15.5,6.56 15.42,6.56 L11.74,6.56 C11.63,6.56 11.54,6.47 11.54,6.36 L11.54,2.68 L11.54,2.68 Z M4.32,2.65 C4.32,2.54 4.41,2.45 4.52,2.45 L10.42,2.45 C10.53,2.45 10.62,2.54 10.62,2.65 L10.62,6.87 C10.62,7.21 10.9,7.49 11.24,7.49 L15.46,7.49 C15.51,7.49 15.56,7.51 15.6,7.55 C15.64,7.59 15.66,7.64 15.66,7.69 L15.66,17.33 C15.66,17.44 15.57,17.53 15.46,17.53 L4.52,17.53 C4.41,17.53 4.32,17.44 4.32,17.33 L4.32,2.65 Z" id="形状"></path>
                    <path d="M7.87,13.12 C7.93618484,12.8993936 7.96987205,12.6703206 7.97,12.44 C7.97,12.14 7.93,11.89 7.87,11.69 C7.82,11.5 7.72,11.33 7.58,11.17 C7.44,11.03 7.28,10.92 7.08,10.86 C6.95,10.82 6.76,10.8 6.48,10.8 L5.25,10.8 L5.25,14.02 L6.49,14.02 C6.71,14.02 6.91,14 7.06,13.95 C7.25,13.89 7.41,13.8 7.52,13.68 C7.68,13.53 7.8,13.34 7.87,13.12 L7.87,13.12 Z M7.09,12.95 C7.04,13.09 6.99,13.16 6.96,13.2 C6.91,13.25 6.85,13.28 6.76,13.3 C6.7,13.31 6.6,13.33 6.42,13.33 L6.07,13.33 L6.07,11.62 L6.06,11.57 L6.06,11.52 L6.24,11.52 C6.54,11.52 6.67,11.54 6.72,11.55 C6.82,11.57 6.9,11.61 6.96,11.67 C7.02,11.73 7.07,11.81 7.11,11.92 C7.15,12.04 7.17,12.21 7.17,12.43 C7.15,12.65 7.13,12.82 7.09,12.95 L7.09,12.95 Z M11.29,14.02 L11.29,10.8 L10.53,10.8 L10.53,12.57 L9.45,10.8 L8.7,10.8 L8.7,14.02 L9.46,14.02 L9.46,12.3 L10.53,14.02 L11.29,14.02 Z M14.5,13.59 C14.6041879,13.4291479 14.6597439,13.2416467 14.66,13.05 C14.66,12.83 14.61,12.65 14.52,12.51 C14.44,12.37 14.32,12.26 14.15,12.17 C13.99,12.09 13.73,12.01 13.47,11.94 C13.1,11.85 12.99,11.79 12.95,11.76 C12.89,11.72 12.89,11.67 12.89,11.65 C12.89,11.6 12.91,11.58 12.94,11.54 C13.03,11.47 13.15,11.44 13.31,11.44 C13.45,11.44 13.56,11.47 13.64,11.52 C13.69,11.56 13.75,11.64 13.78,11.8 L13.79,11.88 L14.58,11.85 L14.57,11.76 C14.56,11.45 14.45,11.2 14.24,11.02 C14.03,10.84 13.72,10.74 13.32,10.74 C13.07,10.74 12.86,10.78 12.68,10.85 C12.5,10.93 12.36,11.04 12.26,11.19 C12.16,11.35 12.12,11.51 12.12,11.67 C12.12,11.94 12.22,12.17 12.43,12.35 C12.58,12.48 12.82,12.58 13.16,12.67 C13.38,12.73 13.53,12.77 13.61,12.79 L13.64,12.8 C13.74,12.83 13.81,12.87 13.82,12.92 C13.84,12.95 13.85,12.99 13.85,13.03 C13.85,13.11 13.81,13.19 13.73,13.25 C13.65,13.32 13.53,13.35 13.35,13.35 C13.18,13.35 13.06,13.31 12.97,13.23 C12.88,13.15 12.82,13.03 12.78,12.85 L12.76,12.76 L11.98,12.84 L11.99,12.94 C12.03,13.3 12.17,13.58 12.4,13.78 C12.63,13.97 12.95,14.07 13.35,14.07 C13.62,14.07 13.85,14.03 14.05,13.95 C14.24,13.89 14.39,13.76 14.5,13.59 L14.5,13.59 Z" id="形状"></path>
                </g>
            </g>
        </g>
    </g>
</svg>