<?xml version="1.0" encoding="UTF-8"?>
<svg width="20px" height="20px" viewBox="0 0 20 20" version="1.1" xmlns="http://www.w3.org/2000/svg" xmlns:xlink="http://www.w3.org/1999/xlink">
    <title>container-outlined</title>
    <g id="控制台" stroke="none" stroke-width="1" fill="none" fill-rule="evenodd">
        <g id="域名-概览-" transform="translate(-1144.000000, -395.000000)" fill="#555555" fill-rule="nonzero">
            <g id="编组-8备份-2" transform="translate(1128.000000, 380.000000)">
                <g id="container-outlined" transform="translate(16.000000, 15.000000)">
                    <rect id="矩形" opacity="0" x="0" y="0" width="19.7644835" height="19.7644835"></rect>
                    <path d="M16.0586428,1.23528022 L3.70584065,1.23528022 C3.36420847,1.23528022 3.08820055,1.51128814 3.08820055,1.85292033 L3.08820055,17.9115632 C3.08820055,18.2531953 3.36420847,18.5292033 3.70584065,18.5292033 L16.0586428,18.5292033 C16.400275,18.5292033 16.6762829,18.2531953 16.6762829,17.9115632 L16.6762829,1.85292033 C16.6762829,1.51128814 16.400275,1.23528022 16.0586428,1.23528022 Z M15.2865927,17.139513 L4.47789079,17.139513 L4.47789079,13.2599611 L6.3674835,13.2599611 C6.59137804,13.8930422 6.98512361,14.4624292 7.50818758,14.8947773 C8.17408082,15.444863 9.01754559,15.7498228 9.88224174,15.7498228 C10.7469379,15.7498228 11.5904027,15.4467931 12.2562959,14.8947773 C12.7793599,14.4624292 13.1731054,13.8930422 13.397,13.2599611 L15.2865927,13.2599611 L15.2865927,12.0439821 L12.4222867,12.0439821 L12.3219202,12.5207231 C12.0903051,13.674938 11.0634785,14.5145426 9.88224174,14.5145426 C8.70100504,14.5145426 7.67417835,13.674938 7.44063319,12.5207231 L7.34026667,12.0439821 L4.47789079,12.0439821 L4.47789079,2.62497046 L15.2865927,2.62497046 L15.2865927,17.139513 Z M6.17640109,6.58172741 L13.5880824,6.58172741 C13.6730079,6.58172741 13.7424924,6.5122429 13.7424924,6.42731738 L13.7424924,5.50085722 C13.7424924,5.41593171 13.6730079,5.34644719 13.5880824,5.34644719 L6.17640109,5.34644719 C6.09147558,5.34644719 6.02199106,5.41593171 6.02199106,5.50085722 L6.02199106,6.42731738 C6.02199106,6.5122429 6.09147558,6.58172741 6.17640109,6.58172741 Z M6.17640109,9.66992796 L13.5880824,9.66992796 C13.6730079,9.66992796 13.7424924,9.60044344 13.7424924,9.51551793 L13.7424924,8.58905777 C13.7424924,8.50413225 13.6730079,8.43464774 13.5880824,8.43464774 L6.17640109,8.43464774 C6.09147558,8.43464774 6.02199106,8.50413225 6.02199106,8.58905777 L6.02199106,9.51551793 C6.02199106,9.60044344 6.09147558,9.66992796 6.17640109,9.66992796 Z" id="形状"></path>
                </g>
            </g>
        </g>
    </g>
</svg>